<?xml version="1.0" standalone="no"?>
 <!DOCTYPE svg PUBLIC "-//W3C//DTD SVG 1.1//EN" 
 "http://www.w3.org/Graphics/SVG/1.1/DTD/svg11.dtd"> 
<svg xmlns="http://www.w3.org/2000/svg" version="1.1" 
    width="29.7002cm" height="21.0007cm" viewBox="0 0 116930 82680 ">
<title>SVG Picture created as proto_traparduino-drl_map.svg date 2016/06/14 12:59:36 </title>
  <desc>Picture generated by PCBNEW </desc>
<g style="fill:#000000; fill-opacity:1;stroke:#000000; stroke-opacity:1;
stroke-linecap:round; stroke-linejoin:round; "
 transform="translate(0 0) scale(1 1)">
</g>
<g style="fill:#000000; fill-opacity:0.0; 
stroke:#000000; stroke-width:78.7402; stroke-opacity:1; 
stroke-linecap:round; stroke-linejoin:round;">
<path d="M60500 39768
L60736 40004
" />
<path d="M60736 39768
L60500 40004
" />
<path d="M60500 40358
L60736 40594
" />
<path d="M60736 40358
L60500 40594
" />
<circle cx="50279.5" cy="39929.1" r="118.11" /> 
<circle cx="54838.6" cy="34736.2" r="118.11" /> 
<circle cx="54976.4" cy="30767.7" r="118.11" /> 
<circle cx="55988.2" cy="30732.3" r="118.11" /> 
<circle cx="57574.8" cy="46303.1" r="118.11" /> 
<circle cx="58409.4" cy="38346.5" r="118.11" /> 
<circle cx="59673.2" cy="30570.9" r="118.11" /> 
<circle cx="59728.3" cy="33043.3" r="118.11" /> 
<circle cx="60653.5" cy="46464.6" r="118.11" /> 
<circle cx="61858.3" cy="36059.1" r="118.11" /> 
<circle cx="62232.3" cy="37433.1" r="118.11" /> 
<circle cx="62555.1" cy="43767.7" r="118.11" /> 
<circle cx="62651.6" cy="35474.4" r="118.11" /> 
<circle cx="63149.6" cy="32988.2" r="118.11" /> 
<circle cx="63509.8" cy="30954.7" r="118.11" /> 
<circle cx="63509.8" cy="34891.7" r="118.11" /> 
<circle cx="64509.8" cy="30954.7" r="118.11" /> 
<circle cx="64509.8" cy="34891.7" r="118.11" /> 
<circle cx="64535.4" cy="44448.8" r="118.11" /> 
<circle cx="65521.7" cy="30954.7" r="118.11" /> 
<circle cx="65521.7" cy="34891.7" r="118.11" /> 
<circle cx="66521.7" cy="30954.7" r="118.11" /> 
<circle cx="66521.7" cy="34891.7" r="118.11" /> 
<circle cx="67622" cy="30913.4" r="118.11" /> 
<circle cx="68370.1" cy="35055.1" r="118.11" /> 
<circle cx="68429.1" cy="35893.7" r="118.11" /> 
<circle cx="69496.1" cy="41842.5" r="118.11" /> 
<circle cx="70456.7" cy="43913.4" r="118.11" /> 
<path d="M51031 45149
L51031 45464
" />
<path d="M50874 45307
L51188 45307
" />
<path d="M52015 45149
L52015 45464
" />
<path d="M51858 45307
L52173 45307
" />
<path d="M52248 37318
L52248 37633
" />
<path d="M52090 37476
L52405 37476
" />
<path d="M52248 38303
L52248 38618
" />
<path d="M52090 38460
L52405 38460
" />
<path d="M54799 43814
L54799 44129
" />
<path d="M54641 43972
L54956 43972
" />
<path d="M54799 44799
L54799 45114
" />
<path d="M54641 44956
L54956 44956
" />
<path d="M62110 42161
L62110 42476
" />
<path d="M61952 42318
L62267 42318
" />
<path d="M63094 42161
L63094 42476
" />
<path d="M62937 42318
L63251 42318
" />
<polyline fill="none;"
points="56818,29461
56818,29183
56540,29183
56540,29461
56818,29461
" /> 
<polyline fill="none;"
points="57818,29461
57818,29183
57540,29183
57540,29461
57818,29461
" /> 
<polyline fill="none;"
points="58819,29461
58819,29183
58541,29183
58541,29461
58819,29461
" /> 
<polyline fill="none;"
points="59818,29461
59818,29183
59540,29183
59540,29461
59818,29461
" /> 
<polyline fill="none;"
points="60818,29461
60818,29183
60540,29183
60540,29461
60818,29461
" /> 
<polyline fill="none;"
points="61818,29461
61818,29183
61540,29183
61540,29461
61818,29461
" /> 
<polyline fill="none;"
points="62818,29461
62818,29183
62540,29183
62540,29461
62818,29461
" /> 
<polyline fill="none;"
points="63818,29461
63818,29183
63540,29183
63540,29461
63818,29461
" /> 
<polyline fill="none;"
points="64818,29461
64818,29183
64540,29183
64540,29461
64818,29461
" /> 
<polyline fill="none;"
points="65818,29461
65818,29183
65540,29183
65540,29461
65818,29461
" /> 
<polyline fill="none;"
points="67418,29461
67418,29183
67140,29183
67140,29461
67418,29461
" /> 
<polyline fill="none;"
points="68418,29461
68418,29183
68140,29183
68140,29461
68418,29461
" /> 
<polyline fill="none;"
points="69418,29461
69418,29183
69140,29183
69140,29461
69418,29461
" /> 
<polyline fill="none;"
points="70418,29461
70418,29183
70140,29183
70140,29461
70418,29461
" /> 
<polyline fill="none;"
points="71418,29461
71418,29183
71140,29183
71140,29461
71418,29461
" /> 
<polyline fill="none;"
points="72418,29461
72418,29183
72140,29183
72140,29461
72418,29461
" /> 
<polyline fill="none;"
points="73418,29461
73418,29183
73140,29183
73140,29461
73418,29461
" /> 
<polyline fill="none;"
points="74418,29461
74418,29183
74140,29183
74140,29461
74418,29461
" /> 
<polyline fill="none;"
points="60279,48519
60476,48322
60279,48125
60082,48322
60279,48519
" /> 
<polyline fill="none;"
points="61279,48519
61476,48322
61279,48125
61082,48322
61279,48519
" /> 
<polyline fill="none;"
points="62279,48519
62476,48322
62279,48125
62082,48322
62279,48519
" /> 
<polyline fill="none;"
points="63279,48519
63476,48322
63279,48125
63082,48322
63279,48519
" /> 
<polyline fill="none;"
points="64279,48519
64476,48322
64279,48125
64082,48322
64279,48519
" /> 
<polyline fill="none;"
points="65279,48519
65476,48322
65279,48125
65082,48322
65279,48519
" /> 
<polyline fill="none;"
points="65318,37425
65515,37228
65318,37031
65121,37228
65318,37425
" /> 
<polyline fill="none;"
points="65318,40417
65515,40220
65318,40023
65121,40220
65318,40417
" /> 
<polyline fill="none;"
points="66279,48519
66476,48322
66279,48125
66082,48322
66279,48519
" /> 
<polyline fill="none;"
points="67279,48519
67476,48322
67279,48125
67082,48322
67279,48519
" /> 
<polyline fill="none;"
points="69279,48519
69476,48322
69279,48125
69082,48322
69279,48519
" /> 
<polyline fill="none;"
points="70279,48519
70476,48322
70279,48125
70082,48322
70279,48519
" /> 
<polyline fill="none;"
points="71279,48519
71476,48322
71279,48125
71082,48322
71279,48519
" /> 
<polyline fill="none;"
points="72279,48519
72476,48322
72279,48125
72082,48322
72279,48519
" /> 
<polyline fill="none;"
points="73279,48519
73476,48322
73279,48125
73082,48322
73279,48519
" /> 
<polyline fill="none;"
points="74279,48519
74476,48322
74279,48125
74082,48322
74279,48519
" /> 
<path d="M50516 29004
L50916 29404
" />
<path d="M50916 29004
L50516 29404
" />
<circle cx="50716.5" cy="29204.7" r="200" /> 
<path d="M50516 30004
L50916 30404
" />
<path d="M50916 30004
L50516 30404
" />
<circle cx="50716.5" cy="30204.7" r="200" /> 
<path d="M55575 34390
L55975 34790
" />
<path d="M55975 34390
L55575 34790
" />
<circle cx="55775.6" cy="34590.6" r="200" /> 
<path d="M56575 34390
L56975 34790
" />
<path d="M56975 34390
L56575 34790
" />
<circle cx="56775.6" cy="34590.6" r="200" /> 
<path d="M57311 31839
L57711 32239
" />
<path d="M57711 31839
L57311 32239
" />
<circle cx="57511.8" cy="32039.4" r="200" /> 
<path d="M58311 31839
L58711 32239
" />
<path d="M58711 31839
L58311 32239
" />
<circle cx="58511.8" cy="32039.4" r="200" /> 
<path d="M59311 31839
L59711 32239
" />
<path d="M59711 31839
L59311 32239
" />
<circle cx="59511.8" cy="32039.4" r="200" /> 
<path d="M60311 31839
L60711 32239
" />
<path d="M60711 31839
L60311 32239
" />
<circle cx="60511.8" cy="32039.4" r="200" /> 
<path d="M71607 31933
L72007 32333
" />
<path d="M72007 31933
L71607 32333
" />
<circle cx="71807.1" cy="32133.9" r="200" /> 
<path d="M71607 32933
L72007 33333
" />
<path d="M72007 32933
L71607 33333
" />
<circle cx="71807.1" cy="33133.9" r="200" /> 
<path d="M71607 33933
L72007 34333
" />
<path d="M72007 33933
L71607 34333
" />
<circle cx="71807.1" cy="34133.9" r="200" /> 
<path d="M71607 34933
L72007 35333
" />
<path d="M72007 34933
L71607 35333
" />
<circle cx="71807.1" cy="35133.9" r="200" /> 
<path d="M71977 40323
L72377 40723
" />
<path d="M72377 40323
L71977 40723
" />
<circle cx="72177.2" cy="40523.6" r="200" /> 
<path d="M72977 40323
L73377 40723
" />
<path d="M73377 40323
L72977 40723
" />
<circle cx="73177.2" cy="40523.6" r="200" /> 
<path d="M50909 40740
L51381 41212
" />
<path d="M51381 40740
L50909 41212
" />
<path d="M51145 40740
L51145 41212
" />
<path d="M50909 40976
L51381 40976
" />
<path d="M51858 33051
L52330 33523
" />
<path d="M52330 33051
L51858 33523
" />
<path d="M52094 33051
L52094 33523
" />
<path d="M51858 33287
L52330 33287
" />
<path d="M51893 42724
L52365 43196
" />
<path d="M52365 42724
L51893 43196
" />
<path d="M52129 42724
L52129 43196
" />
<path d="M51893 42960
L52365 42960
" />
<path d="M52842 35035
L53314 35507
" />
<path d="M53314 35035
L52842 35507
" />
<path d="M53078 35035
L53078 35507
" />
<path d="M52842 35271
L53314 35271
" />
<path d="M52877 40740
L53349 41212
" />
<path d="M53349 40740
L52877 41212
" />
<path d="M53113 40740
L53113 41212
" />
<path d="M52877 40976
L53349 40976
" />
<path d="M53826 33051
L54298 33523
" />
<path d="M54298 33051
L53826 33523
" />
<path d="M54062 33051
L54062 33523
" />
<path d="M53826 33287
L54298 33287
" />
<path d="M58736 36941
L59208 37413
" />
<path d="M59208 36941
L58736 37413
" />
<path d="M58972 36941
L58972 37413
" />
<path d="M58736 37177
L59208 37177
" />
<path d="M59720 34957
L60192 35429
" />
<path d="M60192 34957
L59720 35429
" />
<path d="M59956 34957
L59956 35429
" />
<path d="M59720 35193
L60192 35193
" />
<path d="M60704 36941
L61176 37413
" />
<path d="M61176 36941
L60704 37413
" />
<path d="M60940 36941
L60940 37413
" />
<path d="M60704 37177
L61176 37177
" />
</g>
<g style="fill:#000000; fill-opacity:0.0; 
stroke:#000000; stroke-width:118.11; stroke-opacity:1; 
stroke-linecap:round; stroke-linejoin:round;">
<path d="M1068 1833
L1068 652
L1349 652
L1518 708
L1631 821
L1687 933
L1743 1158
L1743 1327
L1687 1552
L1631 1664
L1518 1777
L1349 1833
L1068 1833
" />
<path d="M2249 1833
L2249 1046
" />
<path d="M2249 1271
L2305 1158
L2362 1102
L2474 1046
L2587 1046
" />
<path d="M2980 1833
L2980 1046
" />
<path d="M2980 652
L2924 708
L2980 764
L3037 708
L2980 652
L2980 764
" />
<path d="M3712 1833
L3599 1777
L3543 1664
L3543 652
" />
<path d="M4330 1833
L4218 1777
L4161 1664
L4161 652
" />
<path d="M5680 1833
L5680 652
L6074 1496
L6467 652
L6467 1833
" />
<path d="M7536 1833
L7536 1214
L7480 1102
L7367 1046
L7142 1046
L7030 1102
" />
<path d="M7536 1777
L7424 1833
L7142 1833
L7030 1777
L6974 1664
L6974 1552
L7030 1439
L7142 1383
L7424 1383
L7536 1327
" />
<path d="M8098 1046
L8098 2227
" />
<path d="M8098 1102
L8211 1046
L8436 1046
L8548 1102
L8605 1158
L8661 1271
L8661 1608
L8605 1721
L8548 1777
L8436 1833
L8211 1833
L8098 1777
" />
<path d="M9167 1721
L9223 1777
L9167 1833
L9111 1777
L9167 1721
L9167 1833
" />
<path d="M9167 1102
L9223 1158
L9167 1214
L9111 1158
L9167 1102
L9167 1214
" />
<path d="M-236 3661
L0 3897
" />
<path d="M0 3661
L-236 3897
" />
<path d="M1293 3132
L1406 3132
L1518 3188
L1574 3245
L1631 3357
L1687 3582
L1687 3863
L1631 4088
L1574 4201
L1518 4257
L1406 4313
L1293 4313
L1181 4257
L1124 4201
L1068 4088
L1012 3863
L1012 3582
L1068 3357
L1124 3245
L1181 3188
L1293 3132
" />
<path d="M2193 4201
L2249 4257
L2193 4313
L2137 4257
L2193 4201
L2193 4313
" />
<path d="M3262 3132
L3037 3132
L2924 3188
L2868 3245
L2755 3413
L2699 3638
L2699 4088
L2755 4201
L2812 4257
L2924 4313
L3149 4313
L3262 4257
L3318 4201
L3374 4088
L3374 3807
L3318 3695
L3262 3638
L3149 3582
L2924 3582
L2812 3638
L2755 3695
L2699 3807
" />
<path d="M4105 3132
L4218 3132
L4330 3188
L4386 3245
L4443 3357
L4499 3582
L4499 3863
L4443 4088
L4386 4201
L4330 4257
L4218 4313
L4105 4313
L3993 4257
L3937 4201
L3880 4088
L3824 3863
L3824 3582
L3880 3357
L3937 3245
L3993 3188
L4105 3132
" />
<path d="M5005 4313
L5005 3526
" />
<path d="M5005 3638
L5061 3582
L5174 3526
L5343 3526
L5455 3582
L5511 3695
L5511 4313
" />
<path d="M5511 3695
L5568 3582
L5680 3526
L5849 3526
L5961 3582
L6017 3695
L6017 4313
" />
<path d="M6580 4313
L6580 3526
" />
<path d="M6580 3638
L6636 3582
L6749 3526
L6917 3526
L7030 3582
L7086 3695
L7086 4313
" />
<path d="M7086 3695
L7142 3582
L7255 3526
L7424 3526
L7536 3582
L7592 3695
L7592 4313
" />
<path d="M9898 3076
L8886 4595
" />
<path d="M11417 3132
L11529 3132
L11642 3188
L11698 3245
L11754 3357
L11811 3582
L11811 3863
L11754 4088
L11698 4201
L11642 4257
L11529 4313
L11417 4313
L11304 4257
L11248 4201
L11192 4088
L11136 3863
L11136 3582
L11192 3357
L11248 3245
L11304 3188
L11417 3132
" />
<path d="M12317 4201
L12373 4257
L12317 4313
L12260 4257
L12317 4201
L12317 4313
" />
<path d="M13104 3132
L13217 3132
L13329 3188
L13385 3245
L13442 3357
L13498 3582
L13498 3863
L13442 4088
L13385 4201
L13329 4257
L13217 4313
L13104 4313
L12992 4257
L12935 4201
L12879 4088
L12823 3863
L12823 3582
L12879 3357
L12935 3245
L12992 3188
L13104 3132
" />
<path d="M13948 3245
L14004 3188
L14116 3132
L14398 3132
L14510 3188
L14566 3245
L14623 3357
L14623 3470
L14566 3638
L13892 4313
L14623 4313
" />
<path d="M15635 3526
L15635 4313
" />
<path d="M15354 3076
L15073 3920
L15804 3920
" />
<path d="M16197 3132
L16197 3357
" />
<path d="M16647 3132
L16647 3357
" />
<path d="M18391 4763
L18335 4707
L18222 4538
L18166 4426
L18110 4257
L18053 3976
L18053 3751
L18110 3470
L18166 3301
L18222 3188
L18335 3020
L18391 2964
" />
<path d="M18785 3245
L18841 3188
L18953 3132
L19235 3132
L19347 3188
L19403 3245
L19460 3357
L19460 3470
L19403 3638
L18728 4313
L19460 4313
" />
<path d="M20866 4313
L20866 3132
" />
<path d="M21372 4313
L21372 3695
L21316 3582
L21203 3526
L21034 3526
L20922 3582
L20866 3638
" />
<path d="M22103 4313
L21991 4257
L21934 4201
L21878 4088
L21878 3751
L21934 3638
L21991 3582
L22103 3526
L22272 3526
L22384 3582
L22440 3638
L22497 3751
L22497 4088
L22440 4201
L22384 4257
L22272 4313
L22103 4313
" />
<path d="M23172 4313
L23059 4257
L23003 4145
L23003 3132
" />
<path d="M24071 4257
L23959 4313
L23734 4313
L23622 4257
L23565 4145
L23565 3695
L23622 3582
L23734 3526
L23959 3526
L24071 3582
L24128 3695
L24128 3807
L23565 3920
" />
<path d="M24578 4257
L24690 4313
L24915 4313
L25028 4257
L25084 4145
L25084 4088
L25028 3976
L24915 3920
L24746 3920
L24634 3863
L24578 3751
L24578 3695
L24634 3582
L24746 3526
L24915 3526
L25028 3582
" />
<path d="M25478 4763
L25534 4707
L25646 4538
L25703 4426
L25759 4257
L25815 3976
L25815 3751
L25759 3470
L25703 3301
L25646 3188
L25534 3020
L25478 2964
" />
<circle cx="-118.11" cy="5338.58" r="118.11" /> 
<path d="M1293 4691
L1406 4691
L1518 4748
L1574 4804
L1631 4916
L1687 5141
L1687 5422
L1631 5647
L1574 5760
L1518 5816
L1406 5872
L1293 5872
L1181 5816
L1124 5760
L1068 5647
L1012 5422
L1012 5141
L1068 4916
L1124 4804
L1181 4748
L1293 4691
" />
<path d="M2193 5760
L2249 5816
L2193 5872
L2137 5816
L2193 5760
L2193 5872
" />
<path d="M3262 4691
L3037 4691
L2924 4748
L2868 4804
L2755 4973
L2699 5197
L2699 5647
L2755 5760
L2812 5816
L2924 5872
L3149 5872
L3262 5816
L3318 5760
L3374 5647
L3374 5366
L3318 5254
L3262 5197
L3149 5141
L2924 5141
L2812 5197
L2755 5254
L2699 5366
" />
<path d="M4105 4691
L4218 4691
L4330 4748
L4386 4804
L4443 4916
L4499 5141
L4499 5422
L4443 5647
L4386 5760
L4330 5816
L4218 5872
L4105 5872
L3993 5816
L3937 5760
L3880 5647
L3824 5422
L3824 5141
L3880 4916
L3937 4804
L3993 4748
L4105 4691
" />
<path d="M5005 5872
L5005 5085
" />
<path d="M5005 5197
L5061 5141
L5174 5085
L5343 5085
L5455 5141
L5511 5254
L5511 5872
" />
<path d="M5511 5254
L5568 5141
L5680 5085
L5849 5085
L5961 5141
L6017 5254
L6017 5872
" />
<path d="M6580 5872
L6580 5085
" />
<path d="M6580 5197
L6636 5141
L6749 5085
L6917 5085
L7030 5141
L7086 5254
L7086 5872
" />
<path d="M7086 5254
L7142 5141
L7255 5085
L7424 5085
L7536 5141
L7592 5254
L7592 5872
" />
<path d="M9898 4635
L8886 6154
" />
<path d="M11417 4691
L11529 4691
L11642 4748
L11698 4804
L11754 4916
L11811 5141
L11811 5422
L11754 5647
L11698 5760
L11642 5816
L11529 5872
L11417 5872
L11304 5816
L11248 5760
L11192 5647
L11136 5422
L11136 5141
L11192 4916
L11248 4804
L11304 4748
L11417 4691
" />
<path d="M12317 5760
L12373 5816
L12317 5872
L12260 5816
L12317 5760
L12317 5872
" />
<path d="M13104 4691
L13217 4691
L13329 4748
L13385 4804
L13442 4916
L13498 5141
L13498 5422
L13442 5647
L13385 5760
L13329 5816
L13217 5872
L13104 5872
L12992 5816
L12935 5760
L12879 5647
L12823 5422
L12823 5141
L12879 4916
L12935 4804
L12992 4748
L13104 4691
" />
<path d="M13948 4804
L14004 4748
L14116 4691
L14398 4691
L14510 4748
L14566 4804
L14623 4916
L14623 5029
L14566 5197
L13892 5872
L14623 5872
" />
<path d="M15635 5085
L15635 5872
" />
<path d="M15354 4635
L15073 5479
L15804 5479
" />
<path d="M16197 4691
L16197 4916
" />
<path d="M16647 4691
L16647 4916
" />
<path d="M18391 6322
L18335 6266
L18222 6097
L18166 5985
L18110 5816
L18053 5535
L18053 5310
L18110 5029
L18166 4860
L18222 4748
L18335 4579
L18391 4523
" />
<path d="M18785 4804
L18841 4748
L18953 4691
L19235 4691
L19347 4748
L19403 4804
L19460 4916
L19460 5029
L19403 5197
L18728 5872
L19460 5872
" />
<path d="M20134 5197
L20022 5141
L19966 5085
L19910 4973
L19910 4916
L19966 4804
L20022 4748
L20134 4691
L20359 4691
L20472 4748
L20528 4804
L20584 4916
L20584 4973
L20528 5085
L20472 5141
L20359 5197
L20134 5197
L20022 5254
L19966 5310
L19910 5422
L19910 5647
L19966 5760
L20022 5816
L20134 5872
L20359 5872
L20472 5816
L20528 5760
L20584 5647
L20584 5422
L20528 5310
L20472 5254
L20359 5197
" />
<path d="M21991 5872
L21991 4691
" />
<path d="M22497 5872
L22497 5254
L22440 5141
L22328 5085
L22159 5085
L22047 5141
L21991 5197
" />
<path d="M23228 5872
L23115 5816
L23059 5760
L23003 5647
L23003 5310
L23059 5197
L23115 5141
L23228 5085
L23397 5085
L23509 5141
L23565 5197
L23622 5310
L23622 5647
L23565 5760
L23509 5816
L23397 5872
L23228 5872
" />
<path d="M24296 5872
L24184 5816
L24128 5704
L24128 4691
" />
<path d="M25196 5816
L25084 5872
L24859 5872
L24746 5816
L24690 5704
L24690 5254
L24746 5141
L24859 5085
L25084 5085
L25196 5141
L25253 5254
L25253 5366
L24690 5479
" />
<path d="M25703 5816
L25815 5872
L26040 5872
L26152 5816
L26209 5704
L26209 5647
L26152 5535
L26040 5479
L25871 5479
L25759 5422
L25703 5310
L25703 5254
L25759 5141
L25871 5085
L26040 5085
L26152 5141
" />
<path d="M26602 6322
L26659 6266
L26771 6097
L26827 5985
L26884 5816
L26940 5535
L26940 5310
L26884 5029
L26827 4860
L26771 4748
L26659 4579
L26602 4523
" />
<path d="M-157 6740
L-157 7055
" />
<path d="M-314 6897
L0 6897
" />
<path d="M1293 6250
L1406 6250
L1518 6307
L1574 6363
L1631 6475
L1687 6700
L1687 6982
L1631 7206
L1574 7319
L1518 7375
L1406 7431
L1293 7431
L1181 7375
L1124 7319
L1068 7206
L1012 6982
L1012 6700
L1068 6475
L1124 6363
L1181 6307
L1293 6250
" />
<path d="M2193 7319
L2249 7375
L2193 7431
L2137 7375
L2193 7319
L2193 7431
" />
<path d="M2924 6757
L2812 6700
L2755 6644
L2699 6532
L2699 6475
L2755 6363
L2812 6307
L2924 6250
L3149 6250
L3262 6307
L3318 6363
L3374 6475
L3374 6532
L3318 6644
L3262 6700
L3149 6757
L2924 6757
L2812 6813
L2755 6869
L2699 6982
L2699 7206
L2755 7319
L2812 7375
L2924 7431
L3149 7431
L3262 7375
L3318 7319
L3374 7206
L3374 6982
L3318 6869
L3262 6813
L3149 6757
" />
<path d="M4105 6250
L4218 6250
L4330 6307
L4386 6363
L4443 6475
L4499 6700
L4499 6982
L4443 7206
L4386 7319
L4330 7375
L4218 7431
L4105 7431
L3993 7375
L3937 7319
L3880 7206
L3824 6982
L3824 6700
L3880 6475
L3937 6363
L3993 6307
L4105 6250
" />
<path d="M5005 7431
L5005 6644
" />
<path d="M5005 6757
L5061 6700
L5174 6644
L5343 6644
L5455 6700
L5511 6813
L5511 7431
" />
<path d="M5511 6813
L5568 6700
L5680 6644
L5849 6644
L5961 6700
L6017 6813
L6017 7431
" />
<path d="M6580 7431
L6580 6644
" />
<path d="M6580 6757
L6636 6700
L6749 6644
L6917 6644
L7030 6700
L7086 6813
L7086 7431
" />
<path d="M7086 6813
L7142 6700
L7255 6644
L7424 6644
L7536 6700
L7592 6813
L7592 7431
" />
<path d="M9898 6194
L8886 7713
" />
<path d="M11417 6250
L11529 6250
L11642 6307
L11698 6363
L11754 6475
L11811 6700
L11811 6982
L11754 7206
L11698 7319
L11642 7375
L11529 7431
L11417 7431
L11304 7375
L11248 7319
L11192 7206
L11136 6982
L11136 6700
L11192 6475
L11248 6363
L11304 6307
L11417 6250
" />
<path d="M12317 7319
L12373 7375
L12317 7431
L12260 7375
L12317 7319
L12317 7431
" />
<path d="M13104 6250
L13217 6250
L13329 6307
L13385 6363
L13442 6475
L13498 6700
L13498 6982
L13442 7206
L13385 7319
L13329 7375
L13217 7431
L13104 7431
L12992 7375
L12935 7319
L12879 7206
L12823 6982
L12823 6700
L12879 6475
L12935 6363
L12992 6307
L13104 6250
" />
<path d="M13892 6250
L14623 6250
L14229 6700
L14398 6700
L14510 6757
L14566 6813
L14623 6925
L14623 7206
L14566 7319
L14510 7375
L14398 7431
L14060 7431
L13948 7375
L13892 7319
" />
<path d="M15748 7431
L15073 7431
" />
<path d="M15410 7431
L15410 6250
L15298 6419
L15185 6532
L15073 6588
" />
<path d="M16197 6250
L16197 6475
" />
<path d="M16647 6250
L16647 6475
" />
<path d="M18391 7881
L18335 7825
L18222 7656
L18166 7544
L18110 7375
L18053 7094
L18053 6869
L18110 6588
L18166 6419
L18222 6307
L18335 6138
L18391 6082
" />
<path d="M19010 6757
L18897 6700
L18841 6644
L18785 6532
L18785 6475
L18841 6363
L18897 6307
L19010 6250
L19235 6250
L19347 6307
L19403 6363
L19460 6475
L19460 6532
L19403 6644
L19347 6700
L19235 6757
L19010 6757
L18897 6813
L18841 6869
L18785 6982
L18785 7206
L18841 7319
L18897 7375
L19010 7431
L19235 7431
L19347 7375
L19403 7319
L19460 7206
L19460 6982
L19403 6869
L19347 6813
L19235 6757
" />
<path d="M20866 7431
L20866 6250
" />
<path d="M21372 7431
L21372 6813
L21316 6700
L21203 6644
L21034 6644
L20922 6700
L20866 6757
" />
<path d="M22103 7431
L21991 7375
L21934 7319
L21878 7206
L21878 6869
L21934 6757
L21991 6700
L22103 6644
L22272 6644
L22384 6700
L22440 6757
L22497 6869
L22497 7206
L22440 7319
L22384 7375
L22272 7431
L22103 7431
" />
<path d="M23172 7431
L23059 7375
L23003 7263
L23003 6250
" />
<path d="M24071 7375
L23959 7431
L23734 7431
L23622 7375
L23565 7263
L23565 6813
L23622 6700
L23734 6644
L23959 6644
L24071 6700
L24128 6813
L24128 6925
L23565 7038
" />
<path d="M24578 7375
L24690 7431
L24915 7431
L25028 7375
L25084 7263
L25084 7206
L25028 7094
L24915 7038
L24746 7038
L24634 6982
L24578 6869
L24578 6813
L24634 6700
L24746 6644
L24915 6644
L25028 6700
" />
<path d="M25478 7881
L25534 7825
L25646 7656
L25703 7544
L25759 7375
L25815 7094
L25815 6869
L25759 6588
L25703 6419
L25646 6307
L25534 6138
L25478 6082
" />
<polyline fill="none;"
points="-57,8595
-57,8317
-335,8317
-335,8595
-57,8595
" /> 
<path d="M1687 8991
L1012 8991
" />
<path d="M1349 8991
L1349 7809
L1237 7978
L1124 8091
L1012 8147
" />
<path d="M2193 8878
L2249 8934
L2193 8991
L2137 8934
L2193 8878
L2193 8991
" />
<path d="M2980 7809
L3093 7809
L3205 7866
L3262 7922
L3318 8034
L3374 8259
L3374 8541
L3318 8766
L3262 8878
L3205 8934
L3093 8991
L2980 8991
L2868 8934
L2812 8878
L2755 8766
L2699 8541
L2699 8259
L2755 8034
L2812 7922
L2868 7866
L2980 7809
" />
<path d="M4105 7809
L4218 7809
L4330 7866
L4386 7922
L4443 8034
L4499 8259
L4499 8541
L4443 8766
L4386 8878
L4330 8934
L4218 8991
L4105 8991
L3993 8934
L3937 8878
L3880 8766
L3824 8541
L3824 8259
L3880 8034
L3937 7922
L3993 7866
L4105 7809
" />
<path d="M5005 8991
L5005 8203
" />
<path d="M5005 8316
L5061 8259
L5174 8203
L5343 8203
L5455 8259
L5511 8372
L5511 8991
" />
<path d="M5511 8372
L5568 8259
L5680 8203
L5849 8203
L5961 8259
L6017 8372
L6017 8991
" />
<path d="M6580 8991
L6580 8203
" />
<path d="M6580 8316
L6636 8259
L6749 8203
L6917 8203
L7030 8259
L7086 8372
L7086 8991
" />
<path d="M7086 8372
L7142 8259
L7255 8203
L7424 8203
L7536 8259
L7592 8372
L7592 8991
" />
<path d="M9898 7753
L8886 9272
" />
<path d="M11417 7809
L11529 7809
L11642 7866
L11698 7922
L11754 8034
L11811 8259
L11811 8541
L11754 8766
L11698 8878
L11642 8934
L11529 8991
L11417 8991
L11304 8934
L11248 8878
L11192 8766
L11136 8541
L11136 8259
L11192 8034
L11248 7922
L11304 7866
L11417 7809
" />
<path d="M12317 8878
L12373 8934
L12317 8991
L12260 8934
L12317 8878
L12317 8991
" />
<path d="M13104 7809
L13217 7809
L13329 7866
L13385 7922
L13442 8034
L13498 8259
L13498 8541
L13442 8766
L13385 8878
L13329 8934
L13217 8991
L13104 8991
L12992 8934
L12935 8878
L12879 8766
L12823 8541
L12823 8259
L12879 8034
L12935 7922
L12992 7866
L13104 7809
" />
<path d="M13892 7809
L14623 7809
L14229 8259
L14398 8259
L14510 8316
L14566 8372
L14623 8484
L14623 8766
L14566 8878
L14510 8934
L14398 8991
L14060 8991
L13948 8934
L13892 8878
" />
<path d="M15185 8991
L15410 8991
L15523 8934
L15579 8878
L15691 8709
L15748 8484
L15748 8034
L15691 7922
L15635 7866
L15523 7809
L15298 7809
L15185 7866
L15129 7922
L15073 8034
L15073 8316
L15129 8428
L15185 8484
L15298 8541
L15523 8541
L15635 8484
L15691 8428
L15748 8316
" />
<path d="M16197 7809
L16197 8034
" />
<path d="M16647 7809
L16647 8034
" />
<path d="M18391 9440
L18335 9384
L18222 9215
L18166 9103
L18110 8934
L18053 8653
L18053 8428
L18110 8147
L18166 7978
L18222 7866
L18335 7697
L18391 7641
" />
<path d="M19460 8991
L18785 8991
" />
<path d="M19122 8991
L19122 7809
L19010 7978
L18897 8091
L18785 8147
" />
<path d="M20134 8316
L20022 8259
L19966 8203
L19910 8091
L19910 8034
L19966 7922
L20022 7866
L20134 7809
L20359 7809
L20472 7866
L20528 7922
L20584 8034
L20584 8091
L20528 8203
L20472 8259
L20359 8316
L20134 8316
L20022 8372
L19966 8428
L19910 8541
L19910 8766
L19966 8878
L20022 8934
L20134 8991
L20359 8991
L20472 8934
L20528 8878
L20584 8766
L20584 8541
L20528 8428
L20472 8372
L20359 8316
" />
<path d="M21991 8991
L21991 7809
" />
<path d="M22497 8991
L22497 8372
L22440 8259
L22328 8203
L22159 8203
L22047 8259
L21991 8316
" />
<path d="M23228 8991
L23115 8934
L23059 8878
L23003 8766
L23003 8428
L23059 8316
L23115 8259
L23228 8203
L23397 8203
L23509 8259
L23565 8316
L23622 8428
L23622 8766
L23565 8878
L23509 8934
L23397 8991
L23228 8991
" />
<path d="M24296 8991
L24184 8934
L24128 8822
L24128 7809
" />
<path d="M25196 8934
L25084 8991
L24859 8991
L24746 8934
L24690 8822
L24690 8372
L24746 8259
L24859 8203
L25084 8203
L25196 8259
L25253 8372
L25253 8484
L24690 8597
" />
<path d="M25703 8934
L25815 8991
L26040 8991
L26152 8934
L26209 8822
L26209 8766
L26152 8653
L26040 8597
L25871 8597
L25759 8541
L25703 8428
L25703 8372
L25759 8259
L25871 8203
L26040 8203
L26152 8259
" />
<path d="M26602 9440
L26659 9384
L26771 9215
L26827 9103
L26884 8934
L26940 8653
L26940 8428
L26884 8147
L26827 7978
L26771 7866
L26659 7697
L26602 7641
" />
<polyline fill="none;"
points="-197,10212
0,10015
-197,9818
-394,10015
-197,10212
" /> 
<path d="M1687 10550
L1012 10550
" />
<path d="M1349 10550
L1349 9368
L1237 9537
L1124 9650
L1012 9706
" />
<path d="M2193 10437
L2249 10493
L2193 10550
L2137 10493
L2193 10437
L2193 10550
" />
<path d="M2980 9368
L3093 9368
L3205 9425
L3262 9481
L3318 9593
L3374 9818
L3374 10100
L3318 10325
L3262 10437
L3205 10493
L3093 10550
L2980 10550
L2868 10493
L2812 10437
L2755 10325
L2699 10100
L2699 9818
L2755 9593
L2812 9481
L2868 9425
L2980 9368
" />
<path d="M4105 9368
L4218 9368
L4330 9425
L4386 9481
L4443 9593
L4499 9818
L4499 10100
L4443 10325
L4386 10437
L4330 10493
L4218 10550
L4105 10550
L3993 10493
L3937 10437
L3880 10325
L3824 10100
L3824 9818
L3880 9593
L3937 9481
L3993 9425
L4105 9368
" />
<path d="M5005 10550
L5005 9762
" />
<path d="M5005 9875
L5061 9818
L5174 9762
L5343 9762
L5455 9818
L5511 9931
L5511 10550
" />
<path d="M5511 9931
L5568 9818
L5680 9762
L5849 9762
L5961 9818
L6017 9931
L6017 10550
" />
<path d="M6580 10550
L6580 9762
" />
<path d="M6580 9875
L6636 9818
L6749 9762
L6917 9762
L7030 9818
L7086 9931
L7086 10550
" />
<path d="M7086 9931
L7142 9818
L7255 9762
L7424 9762
L7536 9818
L7592 9931
L7592 10550
" />
<path d="M9898 9312
L8886 10831
" />
<path d="M11417 9368
L11529 9368
L11642 9425
L11698 9481
L11754 9593
L11811 9818
L11811 10100
L11754 10325
L11698 10437
L11642 10493
L11529 10550
L11417 10550
L11304 10493
L11248 10437
L11192 10325
L11136 10100
L11136 9818
L11192 9593
L11248 9481
L11304 9425
L11417 9368
" />
<path d="M12317 10437
L12373 10493
L12317 10550
L12260 10493
L12317 10437
L12317 10550
" />
<path d="M13104 9368
L13217 9368
L13329 9425
L13385 9481
L13442 9593
L13498 9818
L13498 10100
L13442 10325
L13385 10437
L13329 10493
L13217 10550
L13104 10550
L12992 10493
L12935 10437
L12879 10325
L12823 10100
L12823 9818
L12879 9593
L12935 9481
L12992 9425
L13104 9368
" />
<path d="M13892 9368
L14623 9368
L14229 9818
L14398 9818
L14510 9875
L14566 9931
L14623 10043
L14623 10325
L14566 10437
L14510 10493
L14398 10550
L14060 10550
L13948 10493
L13892 10437
" />
<path d="M15185 10550
L15410 10550
L15523 10493
L15579 10437
L15691 10268
L15748 10043
L15748 9593
L15691 9481
L15635 9425
L15523 9368
L15298 9368
L15185 9425
L15129 9481
L15073 9593
L15073 9875
L15129 9987
L15185 10043
L15298 10100
L15523 10100
L15635 10043
L15691 9987
L15748 9875
" />
<path d="M16197 9368
L16197 9593
" />
<path d="M16647 9368
L16647 9593
" />
<path d="M18391 11000
L18335 10943
L18222 10775
L18166 10662
L18110 10493
L18053 10212
L18053 9987
L18110 9706
L18166 9537
L18222 9425
L18335 9256
L18391 9200
" />
<path d="M19460 10550
L18785 10550
" />
<path d="M19122 10550
L19122 9368
L19010 9537
L18897 9650
L18785 9706
" />
<path d="M20472 9368
L20247 9368
L20134 9425
L20078 9481
L19966 9650
L19910 9875
L19910 10325
L19966 10437
L20022 10493
L20134 10550
L20359 10550
L20472 10493
L20528 10437
L20584 10325
L20584 10043
L20528 9931
L20472 9875
L20359 9818
L20134 9818
L20022 9875
L19966 9931
L19910 10043
" />
<path d="M21991 10550
L21991 9368
" />
<path d="M22497 10550
L22497 9931
L22440 9818
L22328 9762
L22159 9762
L22047 9818
L21991 9875
" />
<path d="M23228 10550
L23115 10493
L23059 10437
L23003 10325
L23003 9987
L23059 9875
L23115 9818
L23228 9762
L23397 9762
L23509 9818
L23565 9875
L23622 9987
L23622 10325
L23565 10437
L23509 10493
L23397 10550
L23228 10550
" />
<path d="M24296 10550
L24184 10493
L24128 10381
L24128 9368
" />
<path d="M25196 10493
L25084 10550
L24859 10550
L24746 10493
L24690 10381
L24690 9931
L24746 9818
L24859 9762
L25084 9762
L25196 9818
L25253 9931
L25253 10043
L24690 10156
" />
<path d="M25703 10493
L25815 10550
L26040 10550
L26152 10493
L26209 10381
L26209 10325
L26152 10212
L26040 10156
L25871 10156
L25759 10100
L25703 9987
L25703 9931
L25759 9818
L25871 9762
L26040 9762
L26152 9818
" />
<path d="M26602 11000
L26659 10943
L26771 10775
L26827 10662
L26884 10493
L26940 10212
L26940 9987
L26884 9706
L26827 9537
L26771 9425
L26659 9256
L26602 9200
" />
<path d="M-400 11374
L0 11774
" />
<path d="M0 11374
L-400 11774
" />
<circle cx="-200" cy="11574.8" r="200" /> 
<path d="M1687 12109
L1012 12109
" />
<path d="M1349 12109
L1349 10928
L1237 11096
L1124 11209
L1012 11265
" />
<path d="M2193 11996
L2249 12052
L2193 12109
L2137 12052
L2193 11996
L2193 12109
" />
<path d="M2980 10928
L3093 10928
L3205 10984
L3262 11040
L3318 11152
L3374 11377
L3374 11659
L3318 11884
L3262 11996
L3205 12052
L3093 12109
L2980 12109
L2868 12052
L2812 11996
L2755 11884
L2699 11659
L2699 11377
L2755 11152
L2812 11040
L2868 10984
L2980 10928
" />
<path d="M3824 11040
L3880 10984
L3993 10928
L4274 10928
L4386 10984
L4443 11040
L4499 11152
L4499 11265
L4443 11434
L3768 12109
L4499 12109
" />
<path d="M5005 12109
L5005 11321
" />
<path d="M5005 11434
L5061 11377
L5174 11321
L5343 11321
L5455 11377
L5511 11490
L5511 12109
" />
<path d="M5511 11490
L5568 11377
L5680 11321
L5849 11321
L5961 11377
L6017 11490
L6017 12109
" />
<path d="M6580 12109
L6580 11321
" />
<path d="M6580 11434
L6636 11377
L6749 11321
L6917 11321
L7030 11377
L7086 11490
L7086 12109
" />
<path d="M7086 11490
L7142 11377
L7255 11321
L7424 11321
L7536 11377
L7592 11490
L7592 12109
" />
<path d="M9898 10871
L8886 12390
" />
<path d="M11417 10928
L11529 10928
L11642 10984
L11698 11040
L11754 11152
L11811 11377
L11811 11659
L11754 11884
L11698 11996
L11642 12052
L11529 12109
L11417 12109
L11304 12052
L11248 11996
L11192 11884
L11136 11659
L11136 11377
L11192 11152
L11248 11040
L11304 10984
L11417 10928
" />
<path d="M12317 11996
L12373 12052
L12317 12109
L12260 12052
L12317 11996
L12317 12109
" />
<path d="M13104 10928
L13217 10928
L13329 10984
L13385 11040
L13442 11152
L13498 11377
L13498 11659
L13442 11884
L13385 11996
L13329 12052
L13217 12109
L13104 12109
L12992 12052
L12935 11996
L12879 11884
L12823 11659
L12823 11377
L12879 11152
L12935 11040
L12992 10984
L13104 10928
" />
<path d="M14510 11321
L14510 12109
" />
<path d="M14229 10871
L13948 11715
L14679 11715
" />
<path d="M15354 10928
L15466 10928
L15579 10984
L15635 11040
L15691 11152
L15748 11377
L15748 11659
L15691 11884
L15635 11996
L15579 12052
L15466 12109
L15354 12109
L15241 12052
L15185 11996
L15129 11884
L15073 11659
L15073 11377
L15129 11152
L15185 11040
L15241 10984
L15354 10928
" />
<path d="M16197 10928
L16197 11152
" />
<path d="M16647 10928
L16647 11152
" />
<path d="M18391 12559
L18335 12502
L18222 12334
L18166 12221
L18110 12052
L18053 11771
L18053 11546
L18110 11265
L18166 11096
L18222 10984
L18335 10815
L18391 10759
" />
<path d="M19460 12109
L18785 12109
" />
<path d="M19122 12109
L19122 10928
L19010 11096
L18897 11209
L18785 11265
" />
<path d="M20472 11321
L20472 12109
" />
<path d="M20191 10871
L19910 11715
L20641 11715
" />
<path d="M21991 12109
L21991 10928
" />
<path d="M22497 12109
L22497 11490
L22440 11377
L22328 11321
L22159 11321
L22047 11377
L21991 11434
" />
<path d="M23228 12109
L23115 12052
L23059 11996
L23003 11884
L23003 11546
L23059 11434
L23115 11377
L23228 11321
L23397 11321
L23509 11377
L23565 11434
L23622 11546
L23622 11884
L23565 11996
L23509 12052
L23397 12109
L23228 12109
" />
<path d="M24296 12109
L24184 12052
L24128 11940
L24128 10928
" />
<path d="M25196 12052
L25084 12109
L24859 12109
L24746 12052
L24690 11940
L24690 11490
L24746 11377
L24859 11321
L25084 11321
L25196 11377
L25253 11490
L25253 11602
L24690 11715
" />
<path d="M25703 12052
L25815 12109
L26040 12109
L26152 12052
L26209 11940
L26209 11884
L26152 11771
L26040 11715
L25871 11715
L25759 11659
L25703 11546
L25703 11490
L25759 11377
L25871 11321
L26040 11321
L26152 11377
" />
<path d="M26602 12559
L26659 12502
L26771 12334
L26827 12221
L26884 12052
L26940 11771
L26940 11546
L26884 11265
L26827 11096
L26771 10984
L26659 10815
L26602 10759
" />
<path d="M-472 12897
L0 13369
" />
<path d="M0 12897
L-472 13369
" />
<path d="M-236 12897
L-236 13369
" />
<path d="M-472 13133
L0 13133
" />
<path d="M1687 13668
L1012 13668
" />
<path d="M1349 13668
L1349 12487
L1237 12655
L1124 12768
L1012 12824
" />
<path d="M2193 13555
L2249 13611
L2193 13668
L2137 13611
L2193 13555
L2193 13668
" />
<path d="M2699 12599
L2755 12543
L2868 12487
L3149 12487
L3262 12543
L3318 12599
L3374 12712
L3374 12824
L3318 12993
L2643 13668
L3374 13668
" />
<path d="M4105 12487
L4218 12487
L4330 12543
L4386 12599
L4443 12712
L4499 12937
L4499 13218
L4443 13443
L4386 13555
L4330 13611
L4218 13668
L4105 13668
L3993 13611
L3937 13555
L3880 13443
L3824 13218
L3824 12937
L3880 12712
L3937 12599
L3993 12543
L4105 12487
" />
<path d="M5005 13668
L5005 12880
" />
<path d="M5005 12993
L5061 12937
L5174 12880
L5343 12880
L5455 12937
L5511 13049
L5511 13668
" />
<path d="M5511 13049
L5568 12937
L5680 12880
L5849 12880
L5961 12937
L6017 13049
L6017 13668
" />
<path d="M6580 13668
L6580 12880
" />
<path d="M6580 12993
L6636 12937
L6749 12880
L6917 12880
L7030 12937
L7086 13049
L7086 13668
" />
<path d="M7086 13049
L7142 12937
L7255 12880
L7424 12880
L7536 12937
L7592 13049
L7592 13668
" />
<path d="M9898 12430
L8886 13949
" />
<path d="M11417 12487
L11529 12487
L11642 12543
L11698 12599
L11754 12712
L11811 12937
L11811 13218
L11754 13443
L11698 13555
L11642 13611
L11529 13668
L11417 13668
L11304 13611
L11248 13555
L11192 13443
L11136 13218
L11136 12937
L11192 12712
L11248 12599
L11304 12543
L11417 12487
" />
<path d="M12317 13555
L12373 13611
L12317 13668
L12260 13611
L12317 13555
L12317 13668
" />
<path d="M13104 12487
L13217 12487
L13329 12543
L13385 12599
L13442 12712
L13498 12937
L13498 13218
L13442 13443
L13385 13555
L13329 13611
L13217 13668
L13104 13668
L12992 13611
L12935 13555
L12879 13443
L12823 13218
L12823 12937
L12879 12712
L12935 12599
L12992 12543
L13104 12487
" />
<path d="M14510 12880
L14510 13668
" />
<path d="M14229 12430
L13948 13274
L14679 13274
" />
<path d="M15016 12487
L15804 12487
L15298 13668
" />
<path d="M16197 12487
L16197 12712
" />
<path d="M16647 12487
L16647 12712
" />
<path d="M18391 14118
L18335 14061
L18222 13893
L18166 13780
L18110 13611
L18053 13330
L18053 13105
L18110 12824
L18166 12655
L18222 12543
L18335 12374
L18391 12318
" />
<path d="M18897 13668
L19122 13668
L19235 13611
L19291 13555
L19403 13386
L19460 13161
L19460 12712
L19403 12599
L19347 12543
L19235 12487
L19010 12487
L18897 12543
L18841 12599
L18785 12712
L18785 12993
L18841 13105
L18897 13161
L19010 13218
L19235 13218
L19347 13161
L19403 13105
L19460 12993
" />
<path d="M20866 13668
L20866 12487
" />
<path d="M21372 13668
L21372 13049
L21316 12937
L21203 12880
L21034 12880
L20922 12937
L20866 12993
" />
<path d="M22103 13668
L21991 13611
L21934 13555
L21878 13443
L21878 13105
L21934 12993
L21991 12937
L22103 12880
L22272 12880
L22384 12937
L22440 12993
L22497 13105
L22497 13443
L22440 13555
L22384 13611
L22272 13668
L22103 13668
" />
<path d="M23172 13668
L23059 13611
L23003 13499
L23003 12487
" />
<path d="M24071 13611
L23959 13668
L23734 13668
L23622 13611
L23565 13499
L23565 13049
L23622 12937
L23734 12880
L23959 12880
L24071 12937
L24128 13049
L24128 13161
L23565 13274
" />
<path d="M24578 13611
L24690 13668
L24915 13668
L25028 13611
L25084 13499
L25084 13443
L25028 13330
L24915 13274
L24746 13274
L24634 13218
L24578 13105
L24578 13049
L24634 12937
L24746 12880
L24915 12880
L25028 12937
" />
<path d="M25478 14118
L25534 14061
L25646 13893
L25703 13780
L25759 13611
L25815 13330
L25815 13105
L25759 12824
L25703 12655
L25646 12543
L25534 12374
L25478 12318
" />
</g> 
</svg>
