G04 #@! TF.FileFunction,Profile,NP*
%FSLAX46Y46*%
G04 Gerber Fmt 4.6, Leading zero omitted, Abs format (unit mm)*
G04 Created by KiCad (PCBNEW 4.0.4-stable) date 01/26/17 16:37:22*
%MOMM*%
%LPD*%
G01*
G04 APERTURE LIST*
%ADD10C,0.100000*%
G04 APERTURE END LIST*
D10*
X31000000Y34500000D02*
G75*
G03X31000000Y34500000I-4000000J0D01*
G01*
X3950000Y48014772D02*
X105950000Y48014772D01*
X109888633Y44697987D02*
G75*
G03X110994412Y43245774I1968778J352013D01*
G01*
X110994412Y43245774D02*
X111812999Y42854226D01*
X112950000Y41051300D02*
G75*
G03X111812999Y42854226I-2000000J-1300D01*
G01*
X111892024Y6285746D02*
G75*
G03X112950000Y8050000I-942024J1764254D01*
G01*
X111891176Y6285294D02*
X111008824Y5814706D01*
X111007976Y5814254D02*
G75*
G03X109950000Y4050000I942024J-1764254D01*
G01*
X-50000Y4014772D02*
X-50000Y44014772D01*
X-50000Y4014772D02*
G75*
G03X3950000Y14772I4000000J0D01*
G01*
X3950000Y48014772D02*
G75*
G03X-50000Y44014772I0J-4000000D01*
G01*
X44950000Y26014772D02*
G75*
G03X43950000Y25014772I0J-1000000D01*
G01*
X43950000Y9014772D02*
X43950000Y25014772D01*
X43950000Y9014772D02*
G75*
G03X44950000Y8014772I1000000J0D01*
G01*
X105950000Y14772D02*
X3950000Y14772D01*
X89950000Y8014772D02*
G75*
G03X90950000Y9014772I0J1000000D01*
G01*
X90950000Y25014772D02*
X90950000Y9014772D01*
X90949998Y25016517D02*
G75*
G03X89950000Y26014772I-999998J-1745D01*
G01*
X44950000Y26014772D02*
X89950000Y26014772D01*
X109888013Y44716239D02*
G75*
G03X105950000Y48014772I-3938013J-701467D01*
G01*
X112950000Y41064772D02*
X112950000Y8064772D01*
X105950000Y14772D02*
G75*
G03X109950000Y4014772I0J4000000D01*
G01*
X44950000Y8014772D02*
X89950000Y8014772D01*
M02*
