G04 #@! TF.FileFunction,Legend,Bot*
%FSLAX46Y46*%
G04 Gerber Fmt 4.6, Leading zero omitted, Abs format (unit mm)*
G04 Created by KiCad (PCBNEW 4.0.4-stable) date 01/26/17 16:37:22*
%MOMM*%
%LPD*%
G01*
G04 APERTURE LIST*
%ADD10C,0.100000*%
%ADD11C,0.150000*%
%ADD12C,0.149860*%
%ADD13C,0.127000*%
%ADD14C,0.120000*%
%ADD15R,2.100000X1.300000*%
%ADD16C,5.400000*%
%ADD17C,4.400000*%
%ADD18R,1.300000X2.100000*%
%ADD19R,1.200100X1.200100*%
%ADD20C,1.700000*%
%ADD21R,1.700000X1.700000*%
%ADD22C,2.899360*%
%ADD23C,2.900000*%
%ADD24R,1.310000X1.620000*%
%ADD25C,6.400000*%
%ADD26R,2.432000X2.432000*%
%ADD27O,2.432000X2.432000*%
%ADD28R,1.400000X2.000000*%
%ADD29R,2.000000X1.400000*%
%ADD30R,1.460000X1.050000*%
%ADD31R,1.050000X1.460000*%
%ADD32R,6.000700X2.500580*%
%ADD33R,2.100000X2.100000*%
%ADD34O,2.100000X2.100000*%
%ADD35C,1.400000*%
G04 APERTURE END LIST*
D10*
D11*
X102625000Y33900000D02*
X102625000Y31900000D01*
X104775000Y31900000D02*
X104775000Y33900000D01*
X31607449Y17857018D02*
X33021662Y19271231D01*
X34471231Y17821662D02*
X33057018Y16407449D01*
X37800000Y23575000D02*
X35800000Y23575000D01*
X35800000Y21425000D02*
X37800000Y21425000D01*
X97747980Y9200840D02*
X97747980Y9249100D01*
X98449020Y11999820D02*
X97747980Y11999820D01*
X97747980Y11999820D02*
X97747980Y11750900D01*
X97747980Y9200840D02*
X97747980Y9000180D01*
X97747980Y9000180D02*
X98449020Y9000180D01*
X95400000Y12675000D02*
X93400000Y12675000D01*
X93400000Y10525000D02*
X95400000Y10525000D01*
X96450000Y23975000D02*
X94450000Y23975000D01*
X94450000Y21825000D02*
X96450000Y21825000D01*
X100049760Y32500840D02*
X100049760Y32549100D01*
X100750800Y35299820D02*
X100049760Y35299820D01*
X100049760Y35299820D02*
X100049760Y35050900D01*
X100049760Y32500840D02*
X100049760Y32300180D01*
X100049760Y32300180D02*
X100750800Y32300180D01*
X98600000Y24125000D02*
X100600000Y24125000D01*
X100600000Y26275000D02*
X98600000Y26275000D01*
X89600000Y33900000D02*
X86600000Y33900000D01*
X89600000Y35700000D02*
X86600000Y35700000D01*
X97800000Y14700000D02*
X100800000Y14700000D01*
X97800000Y12900000D02*
X100800000Y12900000D01*
X55600000Y39800000D02*
X58600000Y39800000D01*
X55600000Y38000000D02*
X58600000Y38000000D01*
D12*
X25855765Y23258112D02*
X25855765Y23541888D01*
X25715673Y23681980D02*
X25715673Y23118020D01*
X25573785Y22976132D02*
X25573785Y23823868D01*
X25431897Y22834244D02*
X25997653Y23400000D01*
X25997653Y23400000D02*
X25431897Y23965756D01*
X25431897Y23965756D02*
X25431897Y22834244D01*
X19634244Y18168103D02*
X20200000Y17602347D01*
X20200000Y17602347D02*
X20765756Y18168103D01*
X14968103Y23965756D02*
X14402347Y23400000D01*
X14402347Y23400000D02*
X14968103Y22834244D01*
X20765756Y28631897D02*
X20200000Y29197653D01*
X20200000Y29197653D02*
X19634244Y28631897D01*
D13*
X23896478Y23400000D02*
G75*
G03X23896478Y23400000I-283981J0D01*
G01*
X19930592Y18640464D02*
X20469408Y18640464D01*
X20469408Y18640464D02*
X24959536Y23130592D01*
X24959536Y23130592D02*
X24959536Y23669408D01*
X24959536Y23669408D02*
X20469408Y28159536D01*
X20469408Y28159536D02*
X19930592Y28159536D01*
X19930592Y28159536D02*
X15440464Y23669408D01*
X15440464Y23669408D02*
X15440464Y23130592D01*
X15440464Y23130592D02*
X19930592Y18640464D01*
D11*
X12482322Y25568109D02*
X11068109Y26982322D01*
X12517678Y28431891D02*
X13931891Y27017678D01*
X25417678Y18731891D02*
X26831891Y17317678D01*
X25382322Y15868109D02*
X23968109Y17282322D01*
X24000000Y4775000D02*
X22000000Y4775000D01*
X22000000Y6825000D02*
X24000000Y6825000D01*
X17300000Y6825000D02*
X19300000Y6825000D01*
X19300000Y4775000D02*
X17300000Y4775000D01*
X28500000Y15825000D02*
X30500000Y15825000D01*
X30500000Y13775000D02*
X28500000Y13775000D01*
X10768109Y14317678D02*
X12182322Y15731891D01*
X13631891Y14282322D02*
X12217678Y12868109D01*
X79725000Y37500000D02*
X79725000Y35500000D01*
X77675000Y35500000D02*
X77675000Y37500000D01*
X81550000Y39345000D02*
X83550000Y39345000D01*
X83550000Y37295000D02*
X81550000Y37295000D01*
X94500000Y19625000D02*
X96500000Y19625000D01*
X96500000Y17575000D02*
X94500000Y17575000D01*
X100800000Y21775000D02*
X98800000Y21775000D01*
X98800000Y23825000D02*
X100800000Y23825000D01*
X101000000Y17325000D02*
X103000000Y17325000D01*
X103000000Y15275000D02*
X101000000Y15275000D01*
X53600000Y42125000D02*
X55600000Y42125000D01*
X55600000Y40075000D02*
X53600000Y40075000D01*
X10782322Y16868109D02*
X9368109Y18282322D01*
X10817678Y19731891D02*
X12231891Y18317678D01*
X15900000Y37525000D02*
X17900000Y37525000D01*
X17900000Y35475000D02*
X15900000Y35475000D01*
X17900000Y33175000D02*
X15900000Y33175000D01*
X15900000Y35225000D02*
X17900000Y35225000D01*
X69900000Y36725000D02*
X71900000Y36725000D01*
X71900000Y34675000D02*
X69900000Y34675000D01*
X15900000Y32925000D02*
X17900000Y32925000D01*
X17900000Y30875000D02*
X15900000Y30875000D01*
X101249760Y8050840D02*
X101249760Y8099100D01*
X101950800Y10849820D02*
X101249760Y10849820D01*
X101249760Y10849820D02*
X101249760Y10600900D01*
X101249760Y8050840D02*
X101249760Y7850180D01*
X101249760Y7850180D02*
X101950800Y7850180D01*
X93949760Y27900840D02*
X93949760Y27949100D01*
X94650800Y30699820D02*
X93949760Y30699820D01*
X93949760Y30699820D02*
X93949760Y30450900D01*
X93949760Y27900840D02*
X93949760Y27700180D01*
X93949760Y27700180D02*
X94650800Y27700180D01*
X62175000Y31700000D02*
X62175000Y33700000D01*
X60025000Y33700000D02*
X60025000Y31700000D01*
X31246967Y20967247D02*
X29832753Y19553033D01*
X31353033Y18032753D02*
X32767247Y19446967D01*
X29546967Y22667247D02*
X28132753Y21253033D01*
X29653033Y19732753D02*
X31067247Y21146967D01*
X13867247Y20053033D02*
X12453033Y21467247D01*
X10932753Y19946967D02*
X12346967Y18532753D01*
X96550000Y15125000D02*
X98550000Y15125000D01*
X98550000Y17275000D02*
X96550000Y17275000D01*
X98946967Y30267247D02*
X97532753Y28853033D01*
X99053033Y27332753D02*
X100467247Y28746967D01*
X36800000Y16125000D02*
X38800000Y16125000D01*
X38800000Y18275000D02*
X36800000Y18275000D01*
X25200000Y43725000D02*
X27200000Y43725000D01*
X27200000Y45875000D02*
X25200000Y45875000D01*
X20445000Y43010000D02*
X20445000Y45010000D01*
X18295000Y45010000D02*
X18295000Y43010000D01*
X20200000Y39625000D02*
X22200000Y39625000D01*
X22200000Y41775000D02*
X20200000Y41775000D01*
X68275000Y34100000D02*
X68275000Y36100000D01*
X66125000Y36100000D02*
X66125000Y34100000D01*
X69900000Y31925000D02*
X71900000Y31925000D01*
X71900000Y34075000D02*
X69900000Y34075000D01*
X103900000Y11525000D02*
X105900000Y11525000D01*
X105900000Y13675000D02*
X103900000Y13675000D01*
X38300000Y30825000D02*
X40300000Y30825000D01*
X40300000Y32975000D02*
X38300000Y32975000D01*
X44800000Y31975000D02*
X42800000Y31975000D01*
X42800000Y29825000D02*
X44800000Y29825000D01*
X87220000Y39270000D02*
G75*
G03X87220000Y39270000I-100000J0D01*
G01*
X86570000Y39020000D02*
X87070000Y39020000D01*
X86570000Y36120000D02*
X86570000Y39020000D01*
X87070000Y36120000D02*
X86570000Y36120000D01*
X87070000Y39020000D02*
X87070000Y36120000D01*
X101900000Y19300000D02*
G75*
G03X101900000Y19300000I-100000J0D01*
G01*
X101550000Y19850000D02*
X101550000Y19350000D01*
X98650000Y19850000D02*
X101550000Y19850000D01*
X98650000Y19350000D02*
X98650000Y19850000D01*
X101550000Y19350000D02*
X98650000Y19350000D01*
X22890240Y45019160D02*
X22890240Y44970900D01*
X22189200Y42220180D02*
X22890240Y42220180D01*
X22890240Y42220180D02*
X22890240Y42469100D01*
X22890240Y45019160D02*
X22890240Y45219820D01*
X22890240Y45219820D02*
X22189200Y45219820D01*
X26398480Y7400640D02*
X14699240Y7400640D01*
X14699240Y12399360D02*
X26398480Y12399360D01*
X14699240Y7400640D02*
X14699240Y8249000D01*
X14699240Y12399360D02*
X14699240Y11551000D01*
X26398480Y7400640D02*
X26398480Y8249000D01*
X26398480Y12399360D02*
X26398480Y11551000D01*
D14*
X13957018Y31592551D02*
X15371231Y30178338D01*
X13921662Y28728769D02*
X12507449Y30142982D01*
X8700000Y33225000D02*
X10700000Y33225000D01*
X10700000Y31175000D02*
X8700000Y31175000D01*
X15900000Y39825000D02*
X17900000Y39825000D01*
X17900000Y37775000D02*
X15900000Y37775000D01*
X39475000Y26000000D02*
X39475000Y28000000D01*
X41525000Y28000000D02*
X41525000Y26000000D01*
D11*
X27200000Y43475000D02*
X25200000Y43475000D01*
X25200000Y41325000D02*
X27200000Y41325000D01*
X80125000Y36300000D02*
X80125000Y34300000D01*
X82275000Y34300000D02*
X82275000Y36300000D01*
X84575000Y34300000D02*
X84575000Y36300000D01*
X82425000Y36300000D02*
X82425000Y34300000D01*
X102900000Y24125000D02*
X104900000Y24125000D01*
X104900000Y26275000D02*
X102900000Y26275000D01*
%LPC*%
D15*
X103700000Y31450000D03*
X103700000Y34350000D03*
D16*
X88370000Y45060000D03*
D17*
X88370000Y45060000D03*
D10*
G36*
X33887868Y20102082D02*
X35302082Y18687868D01*
X34312132Y17697918D01*
X32897918Y19112132D01*
X33887868Y20102082D01*
X33887868Y20102082D01*
G37*
G36*
X31766548Y17980762D02*
X33180762Y16566548D01*
X32190812Y15576598D01*
X30776598Y16990812D01*
X31766548Y17980762D01*
X31766548Y17980762D01*
G37*
D18*
X35350000Y22500000D03*
X38250000Y22500000D03*
D19*
X99398980Y11450000D03*
X99398980Y9550000D03*
X97400000Y10500000D03*
D20*
X94000000Y13400000D03*
D21*
X96500000Y13400000D03*
D18*
X92950000Y11600000D03*
X95850000Y11600000D03*
X94000000Y22900000D03*
X96900000Y22900000D03*
D19*
X101700760Y34750000D03*
X101700760Y32850000D03*
X99701780Y33800000D03*
D22*
X94930000Y36760000D03*
X97429360Y31720640D03*
X92430640Y31720640D03*
D18*
X101050000Y25200000D03*
X98150000Y25200000D03*
D23*
X104644950Y20049232D03*
X106355050Y15350768D03*
X106556546Y33765769D03*
X104443454Y29234231D03*
D20*
X94000000Y20600000D03*
D21*
X96500000Y20600000D03*
D20*
X60600000Y41400000D03*
D21*
X58100000Y41400000D03*
D24*
X89235000Y34800000D03*
X85965000Y34800000D03*
X98165000Y13800000D03*
X101435000Y13800000D03*
X55965000Y38900000D03*
X59235000Y38900000D03*
D25*
X6450000Y3500000D03*
D17*
X6450000Y3500000D03*
D25*
X49450000Y3500000D03*
D17*
X49450000Y3500000D03*
D16*
X104950000Y3000000D03*
D17*
X104950000Y3000000D03*
D25*
X49450000Y44500000D03*
D17*
X49450000Y44500000D03*
D25*
X6450000Y44500000D03*
D17*
X6450000Y44500000D03*
D26*
X5500000Y33300000D03*
D27*
X2960000Y33300000D03*
D26*
X5500000Y29800000D03*
D27*
X2960000Y29800000D03*
D26*
X5500000Y26300000D03*
D27*
X2960000Y26300000D03*
D26*
X84870000Y41130000D03*
D27*
X82330000Y41130000D03*
D10*
G36*
X23115889Y21720656D02*
X24318310Y20518235D01*
X23645725Y19845650D01*
X22443304Y21048071D01*
X23115889Y21720656D01*
X23115889Y21720656D01*
G37*
G36*
X22551929Y21156696D02*
X23754350Y19954275D01*
X23081765Y19281690D01*
X21879344Y20484111D01*
X22551929Y21156696D01*
X22551929Y21156696D01*
G37*
G36*
X21986172Y20590940D02*
X23188593Y19388519D01*
X22516008Y18715934D01*
X21313587Y19918355D01*
X21986172Y20590940D01*
X21986172Y20590940D01*
G37*
G36*
X21420416Y20025184D02*
X22622837Y18822763D01*
X21950252Y18150178D01*
X20747831Y19352599D01*
X21420416Y20025184D01*
X21420416Y20025184D01*
G37*
G36*
X20854660Y19459428D02*
X22057081Y18257007D01*
X21384496Y17584422D01*
X20182075Y18786843D01*
X20854660Y19459428D01*
X20854660Y19459428D01*
G37*
G36*
X24813157Y23417925D02*
X26015578Y22215504D01*
X25342993Y21542919D01*
X24140572Y22745340D01*
X24813157Y23417925D01*
X24813157Y23417925D01*
G37*
G36*
X24247401Y22852169D02*
X25449822Y21649748D01*
X24777237Y20977163D01*
X23574816Y22179584D01*
X24247401Y22852169D01*
X24247401Y22852169D01*
G37*
G36*
X23681645Y22286413D02*
X24884066Y21083992D01*
X24211481Y20411407D01*
X23009060Y21613828D01*
X23681645Y22286413D01*
X23681645Y22286413D01*
G37*
G36*
X19545340Y19459428D02*
X20217925Y18786843D01*
X19015504Y17584422D01*
X18342919Y18257007D01*
X19545340Y19459428D01*
X19545340Y19459428D01*
G37*
G36*
X18979584Y20025184D02*
X19652169Y19352599D01*
X18449748Y18150178D01*
X17777163Y18822763D01*
X18979584Y20025184D01*
X18979584Y20025184D01*
G37*
G36*
X18413828Y20590940D02*
X19086413Y19918355D01*
X17883992Y18715934D01*
X17211407Y19388519D01*
X18413828Y20590940D01*
X18413828Y20590940D01*
G37*
G36*
X17848071Y21156696D02*
X18520656Y20484111D01*
X17318235Y19281690D01*
X16645650Y19954275D01*
X17848071Y21156696D01*
X17848071Y21156696D01*
G37*
G36*
X17284111Y21720656D02*
X17956696Y21048071D01*
X16754275Y19845650D01*
X16081690Y20518235D01*
X17284111Y21720656D01*
X17284111Y21720656D01*
G37*
G36*
X16718355Y22286413D02*
X17390940Y21613828D01*
X16188519Y20411407D01*
X15515934Y21083992D01*
X16718355Y22286413D01*
X16718355Y22286413D01*
G37*
G36*
X16152599Y22852169D02*
X16825184Y22179584D01*
X15622763Y20977163D01*
X14950178Y21649748D01*
X16152599Y22852169D01*
X16152599Y22852169D01*
G37*
G36*
X15586843Y23417925D02*
X16259428Y22745340D01*
X15057007Y21542919D01*
X14384422Y22215504D01*
X15586843Y23417925D01*
X15586843Y23417925D01*
G37*
G36*
X15057007Y25257081D02*
X16259428Y24054660D01*
X15586843Y23382075D01*
X14384422Y24584496D01*
X15057007Y25257081D01*
X15057007Y25257081D01*
G37*
G36*
X15622763Y25822837D02*
X16825184Y24620416D01*
X16152599Y23947831D01*
X14950178Y25150252D01*
X15622763Y25822837D01*
X15622763Y25822837D01*
G37*
G36*
X16188519Y26388593D02*
X17390940Y25186172D01*
X16718355Y24513587D01*
X15515934Y25716008D01*
X16188519Y26388593D01*
X16188519Y26388593D01*
G37*
G36*
X16754275Y26954350D02*
X17956696Y25751929D01*
X17284111Y25079344D01*
X16081690Y26281765D01*
X16754275Y26954350D01*
X16754275Y26954350D01*
G37*
G36*
X17318235Y27518310D02*
X18520656Y26315889D01*
X17848071Y25643304D01*
X16645650Y26845725D01*
X17318235Y27518310D01*
X17318235Y27518310D01*
G37*
G36*
X17883992Y28084066D02*
X19086413Y26881645D01*
X18413828Y26209060D01*
X17211407Y27411481D01*
X17883992Y28084066D01*
X17883992Y28084066D01*
G37*
G36*
X18449748Y28649822D02*
X19652169Y27447401D01*
X18979584Y26774816D01*
X17777163Y27977237D01*
X18449748Y28649822D01*
X18449748Y28649822D01*
G37*
G36*
X19015504Y29215578D02*
X20217925Y28013157D01*
X19545340Y27340572D01*
X18342919Y28542993D01*
X19015504Y29215578D01*
X19015504Y29215578D01*
G37*
G36*
X21384496Y29215578D02*
X22057081Y28542993D01*
X20854660Y27340572D01*
X20182075Y28013157D01*
X21384496Y29215578D01*
X21384496Y29215578D01*
G37*
G36*
X21950252Y28649822D02*
X22622837Y27977237D01*
X21420416Y26774816D01*
X20747831Y27447401D01*
X21950252Y28649822D01*
X21950252Y28649822D01*
G37*
G36*
X22516008Y28084066D02*
X23188593Y27411481D01*
X21986172Y26209060D01*
X21313587Y26881645D01*
X22516008Y28084066D01*
X22516008Y28084066D01*
G37*
G36*
X23081765Y27518310D02*
X23754350Y26845725D01*
X22551929Y25643304D01*
X21879344Y26315889D01*
X23081765Y27518310D01*
X23081765Y27518310D01*
G37*
G36*
X23645725Y26954350D02*
X24318310Y26281765D01*
X23115889Y25079344D01*
X22443304Y25751929D01*
X23645725Y26954350D01*
X23645725Y26954350D01*
G37*
G36*
X24211481Y26388593D02*
X24884066Y25716008D01*
X23681645Y24513587D01*
X23009060Y25186172D01*
X24211481Y26388593D01*
X24211481Y26388593D01*
G37*
G36*
X24777237Y25822837D02*
X25449822Y25150252D01*
X24247401Y23947831D01*
X23574816Y24620416D01*
X24777237Y25822837D01*
X24777237Y25822837D01*
G37*
G36*
X25342993Y25257081D02*
X26015578Y24584496D01*
X24813157Y23382075D01*
X24140572Y24054660D01*
X25342993Y25257081D01*
X25342993Y25257081D01*
G37*
G36*
X10237258Y27848528D02*
X11651472Y29262742D01*
X12641422Y28272792D01*
X11227208Y26858578D01*
X10237258Y27848528D01*
X10237258Y27848528D01*
G37*
G36*
X12358578Y25727208D02*
X13772792Y27141422D01*
X14762742Y26151472D01*
X13348528Y24737258D01*
X12358578Y25727208D01*
X12358578Y25727208D01*
G37*
G36*
X27662742Y16451472D02*
X26248528Y15037258D01*
X25258578Y16027208D01*
X26672792Y17441422D01*
X27662742Y16451472D01*
X27662742Y16451472D01*
G37*
G36*
X25541422Y18572792D02*
X24127208Y17158578D01*
X23137258Y18148528D01*
X24551472Y19562742D01*
X25541422Y18572792D01*
X25541422Y18572792D01*
G37*
D28*
X21500000Y5800000D03*
X24500000Y5800000D03*
X19800000Y5800000D03*
X16800000Y5800000D03*
X31000000Y14800000D03*
X28000000Y14800000D03*
D10*
G36*
X13048528Y16562742D02*
X14462742Y15148528D01*
X13472792Y14158578D01*
X12058578Y15572792D01*
X13048528Y16562742D01*
X13048528Y16562742D01*
G37*
G36*
X10927208Y14441422D02*
X12341422Y13027208D01*
X11351472Y12037258D01*
X9937258Y13451472D01*
X10927208Y14441422D01*
X10927208Y14441422D01*
G37*
D29*
X78700000Y35000000D03*
X78700000Y38000000D03*
D28*
X84050000Y38320000D03*
X81050000Y38320000D03*
X97000000Y18600000D03*
X94000000Y18600000D03*
X98300000Y22800000D03*
X101300000Y22800000D03*
X103500000Y16300000D03*
X100500000Y16300000D03*
X56100000Y41100000D03*
X53100000Y41100000D03*
D10*
G36*
X8537258Y19148528D02*
X9951472Y20562742D01*
X10941422Y19572792D01*
X9527208Y18158578D01*
X8537258Y19148528D01*
X8537258Y19148528D01*
G37*
G36*
X10658578Y17027208D02*
X12072792Y18441422D01*
X13062742Y17451472D01*
X11648528Y16037258D01*
X10658578Y17027208D01*
X10658578Y17027208D01*
G37*
D28*
X18400000Y36500000D03*
X15400000Y36500000D03*
X15400000Y34200000D03*
X18400000Y34200000D03*
X72400000Y35700000D03*
X69400000Y35700000D03*
X18400000Y31900000D03*
X15400000Y31900000D03*
D19*
X102900760Y10300000D03*
X102900760Y8400000D03*
X100901780Y9350000D03*
X95600760Y30150000D03*
X95600760Y28250000D03*
X93601780Y29200000D03*
D15*
X61100000Y34150000D03*
X61100000Y31250000D03*
D10*
G36*
X30557538Y17272613D02*
X29072613Y18757538D01*
X29991852Y19676777D01*
X31476777Y18191852D01*
X30557538Y17272613D01*
X30557538Y17272613D01*
G37*
G36*
X32608148Y19323223D02*
X31123223Y20808148D01*
X32042462Y21727387D01*
X33527387Y20242462D01*
X32608148Y19323223D01*
X32608148Y19323223D01*
G37*
G36*
X28857538Y18972613D02*
X27372613Y20457538D01*
X28291852Y21376777D01*
X29776777Y19891852D01*
X28857538Y18972613D01*
X28857538Y18972613D01*
G37*
G36*
X30908148Y21023223D02*
X29423223Y22508148D01*
X30342462Y23427387D01*
X31827387Y21942462D01*
X30908148Y21023223D01*
X30908148Y21023223D01*
G37*
G36*
X10172613Y20742462D02*
X11657538Y22227387D01*
X12576777Y21308148D01*
X11091852Y19823223D01*
X10172613Y20742462D01*
X10172613Y20742462D01*
G37*
G36*
X12223223Y18691852D02*
X13708148Y20176777D01*
X14627387Y19257538D01*
X13142462Y17772613D01*
X12223223Y18691852D01*
X12223223Y18691852D01*
G37*
D18*
X99000000Y16200000D03*
X96100000Y16200000D03*
D10*
G36*
X98257538Y26572613D02*
X96772613Y28057538D01*
X97691852Y28976777D01*
X99176777Y27491852D01*
X98257538Y26572613D01*
X98257538Y26572613D01*
G37*
G36*
X100308148Y28623223D02*
X98823223Y30108148D01*
X99742462Y31027387D01*
X101227387Y29542462D01*
X100308148Y28623223D01*
X100308148Y28623223D01*
G37*
D18*
X39250000Y17200000D03*
X36350000Y17200000D03*
X27650000Y44800000D03*
X24750000Y44800000D03*
D15*
X19370000Y45460000D03*
X19370000Y42560000D03*
D18*
X22650000Y40700000D03*
X19750000Y40700000D03*
D15*
X67200000Y36550000D03*
X67200000Y33650000D03*
D18*
X72350000Y33000000D03*
X69450000Y33000000D03*
X106350000Y12600000D03*
X103450000Y12600000D03*
X40750000Y31900000D03*
X37850000Y31900000D03*
X42350000Y30900000D03*
X45250000Y30900000D03*
D30*
X87920000Y38520000D03*
X87920000Y37570000D03*
X87920000Y36620000D03*
X85720000Y36620000D03*
X85720000Y38520000D03*
D31*
X101050000Y18500000D03*
X100100000Y18500000D03*
X99150000Y18500000D03*
X99150000Y20700000D03*
X101050000Y20700000D03*
D19*
X21239240Y42770000D03*
X21239240Y44670000D03*
X23238220Y43720000D03*
D16*
X109950000Y9050000D03*
D17*
X109950000Y9050000D03*
D16*
X109950000Y40050000D03*
D17*
X109950000Y40050000D03*
D25*
X34950000Y40050000D03*
D17*
X34950000Y40050000D03*
D25*
X34950000Y9050000D03*
D17*
X34950000Y9050000D03*
D32*
X25397720Y9900000D03*
X15700000Y9900000D03*
D33*
X5400000Y15680000D03*
D34*
X2860000Y15680000D03*
X5400000Y18220000D03*
X2860000Y18220000D03*
X5400000Y20760000D03*
X2860000Y20760000D03*
X5400000Y23300000D03*
X2860000Y23300000D03*
D10*
G36*
X16202082Y29312132D02*
X14787868Y27897918D01*
X13797918Y28887868D01*
X15212132Y30302082D01*
X16202082Y29312132D01*
X16202082Y29312132D01*
G37*
G36*
X14080762Y31433452D02*
X12666548Y30019238D01*
X11676598Y31009188D01*
X13090812Y32423402D01*
X14080762Y31433452D01*
X14080762Y31433452D01*
G37*
D28*
X11200000Y32200000D03*
X8200000Y32200000D03*
X18400000Y38800000D03*
X15400000Y38800000D03*
D29*
X40500000Y28500000D03*
X40500000Y25500000D03*
D18*
X24750000Y42400000D03*
X27650000Y42400000D03*
D15*
X81200000Y33850000D03*
X81200000Y36750000D03*
X83500000Y36750000D03*
X83500000Y33850000D03*
D18*
X105350000Y25200000D03*
X102450000Y25200000D03*
D33*
X104450000Y40050000D03*
D34*
X101910000Y40050000D03*
X99370000Y40050000D03*
X96830000Y40050000D03*
X94290000Y40050000D03*
X91750000Y40050000D03*
D33*
X79050000Y40050000D03*
D34*
X76510000Y40050000D03*
X73970000Y40050000D03*
X71430000Y40050000D03*
X68890000Y40050000D03*
X66350000Y40050000D03*
D33*
X94000000Y8500000D03*
X94000000Y25500000D03*
D35*
X64400000Y35450700D03*
X64400000Y33550700D03*
M02*
