G04 #@! TF.FileFunction,Soldermask,Top*
%FSLAX46Y46*%
G04 Gerber Fmt 4.6, Leading zero omitted, Abs format (unit mm)*
G04 Created by KiCad (PCBNEW 4.0.4-stable) date 01/26/17 16:37:22*
%MOMM*%
%LPD*%
G01*
G04 APERTURE LIST*
%ADD10C,0.100000*%
%ADD11R,1.543000X0.908000*%
%ADD12R,1.300000X2.100000*%
%ADD13C,5.400000*%
%ADD14C,4.400000*%
%ADD15C,1.700000*%
%ADD16R,1.700000X1.700000*%
%ADD17R,2.429460X1.540460*%
%ADD18C,2.899360*%
%ADD19R,2.100000X1.300000*%
%ADD20C,2.900000*%
%ADD21C,6.400000*%
%ADD22R,2.432000X2.432000*%
%ADD23O,2.432000X2.432000*%
%ADD24R,1.400000X2.000000*%
%ADD25R,2.000000X1.400000*%
%ADD26R,1.200100X1.200100*%
%ADD27R,1.460000X1.050000*%
%ADD28R,2.100000X2.100000*%
%ADD29O,2.100000X2.100000*%
%ADD30C,1.400000*%
G04 APERTURE END LIST*
D10*
D11*
X90280000Y29455000D03*
X90280000Y30725000D03*
X90280000Y31995000D03*
X90280000Y33265000D03*
X90280000Y34535000D03*
X90280000Y35805000D03*
X90280000Y37075000D03*
X90280000Y38345000D03*
X80120000Y38345000D03*
X80120000Y37075000D03*
X80120000Y35805000D03*
X80120000Y34535000D03*
X80120000Y33265000D03*
X80120000Y31995000D03*
X80120000Y30725000D03*
X80120000Y29455000D03*
D12*
X75750000Y45740000D03*
X72850000Y45740000D03*
X106150000Y9700000D03*
X103250000Y9700000D03*
D13*
X88370000Y45060000D03*
D14*
X88370000Y45060000D03*
D15*
X94000000Y13400000D03*
D16*
X96500000Y13400000D03*
D17*
X110500000Y25803960D03*
X110500000Y23396040D03*
D18*
X94930000Y36760000D03*
X97429360Y31720640D03*
X92430640Y31720640D03*
D19*
X84300000Y4650000D03*
X84300000Y1750000D03*
D20*
X104644950Y20049232D03*
X106355050Y15350768D03*
X106556546Y33765769D03*
X104443454Y29234231D03*
D15*
X94000000Y20600000D03*
D16*
X96500000Y20600000D03*
D15*
X60600000Y41400000D03*
D16*
X58100000Y41400000D03*
D21*
X6450000Y3500000D03*
D14*
X6450000Y3500000D03*
D21*
X49450000Y3500000D03*
D14*
X49450000Y3500000D03*
D13*
X104950000Y3000000D03*
D14*
X104950000Y3000000D03*
D21*
X49450000Y44500000D03*
D14*
X49450000Y44500000D03*
D21*
X6450000Y44500000D03*
D14*
X6450000Y44500000D03*
D22*
X5500000Y33300000D03*
D23*
X2960000Y33300000D03*
D22*
X5500000Y29800000D03*
D23*
X2960000Y29800000D03*
D22*
X5500000Y26300000D03*
D23*
X2960000Y26300000D03*
D22*
X84870000Y41130000D03*
D23*
X82330000Y41130000D03*
D11*
X72675000Y36205000D03*
X72675000Y34935000D03*
X72675000Y33665000D03*
X72675000Y32395000D03*
X66325000Y32395000D03*
X66325000Y33665000D03*
X66325000Y34935000D03*
X66325000Y36205000D03*
D24*
X62000000Y33000000D03*
X59000000Y33000000D03*
X62000000Y35300000D03*
X59000000Y35300000D03*
D10*
G36*
X77502082Y35112132D02*
X76087868Y33697918D01*
X75097918Y34687868D01*
X76512132Y36102082D01*
X77502082Y35112132D01*
X77502082Y35112132D01*
G37*
G36*
X75380762Y37233452D02*
X73966548Y35819238D01*
X72976598Y36809188D01*
X74390812Y38223402D01*
X75380762Y37233452D01*
X75380762Y37233452D01*
G37*
D25*
X84340000Y43280000D03*
X84340000Y46280000D03*
X60950000Y2800000D03*
X60950000Y5800000D03*
X56150000Y2780000D03*
X56150000Y5780000D03*
X69450000Y2980000D03*
X69450000Y5980000D03*
D10*
G36*
X94271259Y4536068D02*
X95116496Y2723452D01*
X93847665Y2131786D01*
X93002428Y3944402D01*
X94271259Y4536068D01*
X94271259Y4536068D01*
G37*
G36*
X91552335Y3268214D02*
X92397572Y1455598D01*
X91128741Y863932D01*
X90283504Y2676548D01*
X91552335Y3268214D01*
X91552335Y3268214D01*
G37*
D25*
X76100000Y31200000D03*
X76100000Y28200000D03*
X105490000Y45770000D03*
X105490000Y42770000D03*
X103310000Y45620000D03*
X103310000Y42620000D03*
D26*
X66940000Y46310760D03*
X65040000Y46310760D03*
X65990000Y44311780D03*
D19*
X54030000Y30050000D03*
X54030000Y32950000D03*
D12*
X55850000Y34900000D03*
X52950000Y34900000D03*
D19*
X47300000Y34650000D03*
X47300000Y37550000D03*
D12*
X73650000Y5300000D03*
X76550000Y5300000D03*
D19*
X63350000Y5830000D03*
X63350000Y2930000D03*
X58550000Y5830000D03*
X58550000Y2930000D03*
D12*
X77250000Y45710000D03*
X80150000Y45710000D03*
D19*
X100000000Y4850000D03*
X100000000Y1950000D03*
X88000000Y1750000D03*
X88000000Y4650000D03*
D12*
X98650000Y9800000D03*
X101550000Y9800000D03*
D19*
X68820000Y43260000D03*
X68820000Y46160000D03*
D27*
X67550000Y2830000D03*
X67550000Y3780000D03*
X67550000Y4730000D03*
X65350000Y4730000D03*
X65350000Y2830000D03*
D26*
X40000760Y14250000D03*
X40000760Y16150000D03*
X38001780Y15200000D03*
X40000760Y17850000D03*
X40000760Y19750000D03*
X38001780Y18800000D03*
D27*
X98100000Y2450000D03*
X98100000Y3400000D03*
X98100000Y4350000D03*
X95900000Y4350000D03*
X95900000Y2450000D03*
D13*
X109950000Y9050000D03*
D14*
X109950000Y9050000D03*
D13*
X109950000Y40050000D03*
D14*
X109950000Y40050000D03*
D21*
X34950000Y40050000D03*
D14*
X34950000Y40050000D03*
D21*
X34950000Y9050000D03*
D14*
X34950000Y9050000D03*
D28*
X5400000Y15680000D03*
D29*
X2860000Y15680000D03*
X5400000Y18220000D03*
X2860000Y18220000D03*
X5400000Y20760000D03*
X2860000Y20760000D03*
X5400000Y23300000D03*
X2860000Y23300000D03*
D25*
X82100000Y46300000D03*
X82100000Y43300000D03*
D28*
X104450000Y40050000D03*
D29*
X101910000Y40050000D03*
X99370000Y40050000D03*
X96830000Y40050000D03*
X94290000Y40050000D03*
X91750000Y40050000D03*
D28*
X79050000Y40050000D03*
D29*
X76510000Y40050000D03*
X73970000Y40050000D03*
X71430000Y40050000D03*
X68890000Y40050000D03*
X66350000Y40050000D03*
D28*
X94000000Y8500000D03*
X94000000Y25500000D03*
D30*
X64400000Y35450700D03*
X64400000Y33550700D03*
M02*
