M48
METRIC,TZ
T1C0.400
T2C0.500
T3C0.800
T4C1.000
T5C1.200
T6C3.000
%
G90
G05
T1
X7400Y14900
X9500Y29200
X9500Y27500
X10500Y25000
X11200Y33700
X15100Y14200
X15600Y19900
X15800Y16300
X17400Y29400
X18100Y17400
X18200Y14900
X19000Y30200
X20400Y29800
X25100Y14200
X26400Y25500
X27000Y22200
X29500Y23700
X31200Y24300
X32900Y24400
X34000Y26500
X34700Y34200
X34900Y17200
X35200Y32500
X35200Y15500
X37000Y27500
X37600Y20700
X38300Y28200
X39500Y23200
X49000Y35400
X51900Y31900
X56600Y31700
X59300Y37400
X63800Y38100
X64000Y41500
X67900Y32300
X74400Y34300
X86620Y41120
X91600Y29800
X96900Y26600
X97100Y7300
X97300Y8800
X99500Y32400
X102100Y12300
X103200Y36100
X104200Y8200
X106100Y7600
X107470Y35990
X109180Y36090
T2
X64400Y35451
X64400Y33551
T3
X58100Y41400
X60600Y41400
X94000Y20600
X94000Y13400
X96500Y20600
X96500Y13400
X104443Y29234
X104645Y20049
X106355Y15351
X106557Y33766
T4
X2860Y23300
X2860Y20760
X2860Y18220
X2860Y15680
X2960Y33300
X2960Y29800
X2960Y26300
X5400Y23300
X5400Y20760
X5400Y18220
X5400Y15680
X5500Y33300
X5500Y29800
X5500Y26300
X66350Y40050
X68890Y40050
X71430Y40050
X73970Y40050
X76510Y40050
X79050Y40050
X82330Y41130
X84870Y41130
X91750Y40050
X94000Y25500
X94000Y8500
X94290Y40050
X96830Y40050
X99370Y40050
X101910Y40050
X104450Y40050
T5
X92431Y31721
X94930Y36760
X97429Y31721
T6
X6450Y44500
X6450Y44500
X6450Y3500
X6450Y3500
X34950Y40050
X34950Y40050
X34950Y9050
X34950Y9050
X49450Y44500
X49450Y44500
X49450Y3500
X49450Y3500
X88370Y45060
X88370Y45060
X104950Y3000
X104950Y3000
X109950Y40050
X109950Y40050
X109950Y9050
X109950Y9050
T0
M30
