<?xml version="1.0" standalone="no"?>
 <!DOCTYPE svg PUBLIC "-//W3C//DTD SVG 1.1//EN" 
 "http://www.w3.org/Graphics/SVG/1.1/DTD/svg11.dtd"> 
<svg xmlns="http://www.w3.org/2000/svg" version="1.1" 
    width="29.7002cm" height="21.0007cm" viewBox="0 0 116930 82680 ">
<title>SVG Picture created as proto_trapapoul2-B.CrtYd.svg date 2016/11/04 16:00:24 </title>
  <desc>Picture generated by PCBNEW </desc>
<g style="fill:#000000; fill-opacity:1;stroke:#000000; stroke-opacity:1;
stroke-linecap:round; stroke-linejoin:round; "
 transform="translate(0 0) scale(1 1)">
</g>
<g style="fill:#000000; fill-opacity:0.0; 
stroke:#000000; stroke-width:-0.000393701; stroke-opacity:1; 
stroke-linecap:round; stroke-linejoin:round;">
</g>
<g style="fill:#000000; fill-opacity:0.0; 
stroke:#000000; stroke-width:59.0551; stroke-opacity:1; 
stroke-linecap:round; stroke-linejoin:round;">
<path d="M62737 44291
L45020 44291
" />
<path d="M63130 37598
L63130 43897
" />
<path d="M45020 37204
L62737 37204
" />
<path d="M44626 43897
L44626 37598
" />
<path d="M63130.8 37598.4 A393.701 393.701 0.0 0 0 62737.1 37204.7 " />
<path d="M62737.1 44291.3 A393.701 393.701 0.0 0 0 63130.8 43897.6 " />
<path d="M44626.9 43897.6 A393.701 393.701 0.0 0 0 45020.6 44291.3 " />
<path d="M45020.6 37204.7 A393.701 393.701 0.0 0 0 44626.9 37598.4 " />
<circle cx="69823.7" cy="33681.1" r="1574.8" /> 
<path d="M79272.5 29330.7 A1574.8 1574.8 0.0 0 0 77697.7 27755.9 " />
<path d="M79272 45866
L79272 29330
" />
<path d="M77697.7 47440.9 A1574.8 1574.8 0.0 0 0 79272.5 45866.1 " />
<path d="M39508 47440
L77697 47440
" />
<path d="M37933 45866
L37933 29330
" />
<path d="M37933.9 45866.1 A1574.8 1574.8 0.0 0 0 39508.7 47440.9 " />
<path d="M39508.7 27755.9 A1574.8 1574.8 0.0 0 0 37933.9 29330.7 " />
<path d="M77697 27755
L39508 27755
" />
</g>
<g style="fill:#000000; fill-opacity:0.0; 
stroke:#000000; stroke-width:19.685; stroke-opacity:1; 
stroke-linecap:round; stroke-linejoin:round;">
<path d="M72382 33366
L74981 33366
" />
<path d="M72382 34271
L74981 34271
" />
<path d="M72382 33366
L72382 34271
" />
<path d="M74981 33366
L74981 34271
" />
<path d="M42756 40177
L42756 42775
" />
<path d="M41811 40177
L41811 42775
" />
<path d="M42756 40177
L41811 40177
" />
<path d="M42756 42775
L41811 42775
" />
<path d="M71083 41397
L73681 41397
" />
<path d="M71083 42303
L73681 42303
" />
<path d="M71083 41397
L71083 42303
" />
<path d="M73681 41397
L73681 42303
" />
<path d="M71063 42342
L68465 42342
" />
<path d="M71063 41437
L68465 41437
" />
<path d="M71063 42342
L71063 41437
" />
<path d="M68465 42342
L68465 41437
" />
<path d="M71595 43070
L74193 43070
" />
<path d="M71595 43976
L74193 43976
" />
<path d="M71595 43070
L71595 43976
" />
<path d="M74193 43070
L74193 43976
" />
<path d="M74764 36889
L77363 36889
" />
<path d="M74764 37795
L77363 37795
" />
<path d="M74764 36889
L74764 37795
" />
<path d="M77363 36889
L77363 37795
" />
<path d="M67481 43838
L67481 41240
" />
<path d="M68386 43838
L68386 41240
" />
<path d="M67481 43838
L68386 43838
" />
<path d="M67481 41240
L68386 41240
" />
<path d="M72363 34311
L74961 34311
" />
<path d="M72363 35216
L74961 35216
" />
<path d="M72363 34311
L72363 35216
" />
<path d="M74961 34311
L74961 35216
" />
<path d="M70886 29173
L73485 29173
" />
<path d="M70886 30078
L73485 30078
" />
<path d="M70886 29173
L70886 30078
" />
<path d="M73485 29173
L73485 30078
" />
<path d="M71930 30433
L74528 30433
" />
<path d="M71930 31338
L74528 31338
" />
<path d="M71930 30433
L71930 31338
" />
<path d="M74528 30433
L74528 31338
" />
<path d="M51595 44901
L51595 47500
" />
<path d="M50689 44901
L50689 47500
" />
<path d="M51595 44901
L50689 44901
" />
<path d="M51595 47500
L50689 47500
" />
<path d="M52441 44901
L52441 47500
" />
<path d="M51536 44901
L51536 47500
" />
<path d="M52441 44901
L51536 44901
" />
<path d="M52441 47500
L51536 47500
" />
<path d="M58996 44881
L58996 47480
" />
<path d="M58091 44881
L58091 47480
" />
<path d="M58996 44881
L58091 44881
" />
<path d="M58996 47480
L58091 47480
" />
<path d="M41713 45137
L44311 45137
" />
<path d="M41713 46043
L44311 46043
" />
<path d="M41713 45137
L41713 46043
" />
<path d="M44311 45137
L44311 46043
" />
<path d="M44370 44960
L46969 44960
" />
<path d="M44370 45866
L46969 45866
" />
<path d="M44370 44960
L44370 45866
" />
<path d="M46969 44960
L46969 45866
" />
<path d="M49666 44704
L49666 47303
" />
<path d="M48760 44704
L48760 47303
" />
<path d="M49666 44704
L48760 44704
" />
<path d="M49666 47303
L48760 47303
" />
<path d="M73150 38838
L73150 41437
" />
<path d="M72244 38838
L72244 41437
" />
<path d="M73150 38838
L72244 38838
" />
<path d="M73150 41437
L72244 41437
" />
<path d="M40998 29464
L42988 27794
" />
<path d="M41580 30158
L43570 28488
" />
<path d="M40998 29464
L41580 30158
" />
<path d="M42988 27794
L43570 28488
" />
<path d="M48374 34762
L46537 32925
" />
<path d="M49015 34122
L47177 32284
" />
<path d="M48374 34762
L49015 34122
" />
<path d="M46537 32925
L47177 32284
" />
<path d="M42179 29681
L44169 28010
" />
<path d="M42761 30374
L44751 28704
" />
<path d="M42179 29681
L42761 30374
" />
<path d="M44169 28010
L44751 28704
" />
<path d="M53681 44980
L57264 44980
" />
<path d="M57264 44980
L57264 45767
" />
<path d="M57264 45767
L53681 45767
" />
<path d="M53681 45767
L53681 44980
" />
<path d="M73800 44881
L70217 44881
" />
<path d="M70217 44881
L70217 44094
" />
<path d="M70217 44094
L73800 44094
" />
<path d="M73800 44094
L73800 44881
" />
<path d="M72323 35452
L72323 37834
" />
<path d="M73701 35452
L73701 37834
" />
<path d="M72323 35452
L73701 35452
" />
<path d="M72323 37834
L73701 37834
" />
<path d="M70729 28976
L68347 28976
" />
<path d="M70729 30354
L68347 30354
" />
<path d="M70729 28976
L70729 30354
" />
<path d="M68347 28976
L68347 30354
" />
<path d="M68977 44055
L71359 44055
" />
<path d="M68977 42677
L71359 42677
" />
<path d="M68977 44055
L68977 42677
" />
<path d="M71359 44055
L71359 42677
" />
<path d="M38229 32578
L44607 32578
" />
<path d="M38229 31200
L44607 31200
" />
<path d="M38229 32578
L38229 31200
" />
<path d="M44607 32578
L44607 31200
" />
<path d="M48229 32559
L54607 32559
" />
<path d="M48229 31181
L54607 31181
" />
<path d="M48229 32559
L48229 31181
" />
<path d="M54607 32559
L54607 31181
" />
<path d="M68812 36679
L66975 38516
" />
<path d="M68144 36011
L66307 37848
" />
<path d="M68812 36679
L68144 36011
" />
<path d="M66975 38516
L66307 37848
" />
<path d="M76260 36929
L73662 36929
" />
<path d="M76260 35984
L73662 35984
" />
<path d="M76260 36929
L76260 35984
" />
<path d="M73662 36929
L73662 35984
" />
<path d="M68202 36088
L66365 37925
" />
<path d="M67534 35420
L65696 37257
" />
<path d="M68202 36088
L67534 35420
" />
<path d="M66365 37925
L65696 37257
" />
<path d="M67441 43838
L70040 43838
" />
<path d="M67441 44783
L70040 44783
" />
<path d="M67441 43838
L67441 44783
" />
<path d="M70040 43838
L70040 44783
" />
<path d="M66411 34336
L64573 36174
" />
<path d="M65742 33668
L63905 35505
" />
<path d="M66411 34336
L65742 33668
" />
<path d="M64573 36174
L63905 35505
" />
<path d="M57343 46870
L54744 46870
" />
<path d="M57343 45925
L54744 45925
" />
<path d="M57343 46870
L57343 45925
" />
<path d="M54744 46870
L54744 45925
" />
<path d="M47185 47460
L47185 44862
" />
<path d="M48130 47460
L48130 44862
" />
<path d="M47185 47460
L48130 47460
" />
<path d="M47185 44862
L48130 44862
" />
<path d="M45611 31220
L45611 33818
" />
<path d="M44666 31220
L44666 33818
" />
<path d="M45611 31220
L44666 31220
" />
<path d="M45611 33818
L44666 33818
" />
<path d="M45709 35236
L45709 32637
" />
<path d="M46654 35236
L46654 32637
" />
<path d="M45709 35236
L46654 35236
" />
<path d="M45709 32637
L46654 32637
" />
<path d="M48131 29685
L50121 28015
" />
<path d="M48738 30409
L50728 28739
" />
<path d="M48131 29685
L48738 30409
" />
<path d="M50121 28015
L50728 28739
" />
<path d="M44331 29508
L46322 27838
" />
<path d="M44939 30232
L46929 28562
" />
<path d="M44331 29508
L44939 30232
" />
<path d="M46322 27838
L46929 28562
" />
<path d="M40571 37106
L43170 37106
" />
<path d="M40571 38051
L43170 38051
" />
<path d="M40571 37106
L40571 38051
" />
<path d="M43170 37106
L43170 38051
" />
<path d="M43229 39665
L43229 37066
" />
<path d="M44174 39665
L44174 37066
" />
<path d="M43229 39665
L44174 39665
" />
<path d="M43229 37066
L44174 37066
" />
<path d="M41359 39035
L38760 39035
" />
<path d="M41359 38090
L38760 38090
" />
<path d="M41359 39035
L41359 38090
" />
<path d="M38760 39035
L38760 38090
" />
<path d="M42146 37027
L39548 37027
" />
<path d="M42146 36082
L39548 36082
" />
<path d="M42146 37027
L42146 36082
" />
<path d="M39548 37027
L39548 36082
" />
<path d="M41359 42539
L38760 42539
" />
<path d="M41359 41594
L38760 41594
" />
<path d="M41359 42539
L41359 41594
" />
<path d="M38760 42539
L38760 41594
" />
<path d="M44548 34133
L41949 34133
" />
<path d="M44548 33188
L41949 33188
" />
<path d="M44548 34133
L44548 33188
" />
<path d="M41949 34133
L41949 33188
" />
<path d="M37992 37066
L40591 37066
" />
<path d="M37992 38011
L40591 38011
" />
<path d="M37992 37066
L37992 38011
" />
<path d="M40591 37066
L40591 38011
" />
<path d="M73977 33307
L72638 33307
" />
<path d="M73977 31417
L73977 33307
" />
<path d="M72638 31417
L73977 31417
" />
<path d="M72638 33307
L72638 31417
" />
<path d="M54685 45866
L54685 47204
" />
<path d="M52796 45866
L54685 45866
" />
<path d="M52796 47204
L52796 45866
" />
<path d="M54685 47204
L52796 47204
" />
<path d="M46693 45826
L46693 47165
" />
<path d="M44804 45826
L46693 45826
" />
<path d="M44804 47165
L44804 45826
" />
<path d="M46693 47165
L44804 47165
" />
<path d="M67611 35517
L65774 37355
" />
<path d="M66943 34849
L65106 36686
" />
<path d="M67611 35517
L66943 34849
" />
<path d="M65774 37355
L65106 36686
" />
<path d="M67001 34927
L65164 36764
" />
<path d="M66333 34259
L64496 36096
" />
<path d="M67001 34927
L66333 34259
" />
<path d="M65164 36764
L64496 36096
" />
<path d="M73544 36574
L73544 40964
" />
<path d="M78327 36574
L78327 40964
" />
<path d="M73544 36574
L78327 36574
" />
<path d="M73544 40964
L78327 40964
" />
<path d="M77382 36574
L77382 33976
" />
<path d="M78288 36574
L78288 33976
" />
<path d="M77382 36574
L78288 36574
" />
<path d="M77382 33976
L78288 33976
" />
<path d="M77481 35275
L74882 35275
" />
<path d="M77481 34370
L74882 34370
" />
<path d="M77481 35275
L77481 34370
" />
<path d="M74882 35275
L74882 34370
" />
<path d="M76910 36102
L74311 36102
" />
<path d="M76910 35196
L74311 35196
" />
<path d="M76910 36102
L76910 35196
" />
<path d="M74311 36102
L74311 35196
" />
</g> 
</svg>
