<?xml version="1.0" standalone="no"?>
 <!DOCTYPE svg PUBLIC "-//W3C//DTD SVG 1.1//EN" 
 "http://www.w3.org/Graphics/SVG/1.1/DTD/svg11.dtd"> 
<svg xmlns="http://www.w3.org/2000/svg" version="1.1" 
    width="29.7002cm" height="21.0007cm" viewBox="0 0 116930 82680 ">
<title>SVG Picture created as proto_trapapoul2-B.SilkS.svg date 2016/11/04 16:00:24 </title>
  <desc>Picture generated by PCBNEW </desc>
<g style="fill:#000000; fill-opacity:1;stroke:#000000; stroke-opacity:1;
stroke-linecap:round; stroke-linejoin:round; "
 transform="translate(0 0) scale(1 1)">
</g>
<g style="fill:#000000; fill-opacity:0.0; 
stroke:#000000; stroke-width:-0.000393701; stroke-opacity:1; 
stroke-linecap:round; stroke-linejoin:round;">
</g>
<g style="fill:#000000; fill-opacity:0.0; 
stroke:#000000; stroke-width:59.0551; stroke-opacity:1; 
stroke-linecap:round; stroke-linejoin:round;">
<path d="M62737 44291
L45020 44291
" />
<path d="M63130 37598
L63130 43897
" />
<path d="M45020 37204
L62737 37204
" />
<path d="M44626 43897
L44626 37598
" />
<path d="M63130.8 37598.4 A393.701 393.701 0.0 0 0 62737.1 37204.7 " />
<path d="M62737.1 44291.3 A393.701 393.701 0.0 0 0 63130.8 43897.6 " />
<path d="M44626.9 43897.6 A393.701 393.701 0.0 0 0 45020.6 44291.3 " />
<path d="M45020.6 37204.7 A393.701 393.701 0.0 0 0 44626.9 37598.4 " />
<circle cx="69823.7" cy="33681.1" r="1574.8" /> 
<path d="M79272.5 29330.7 A1574.8 1574.8 0.0 0 0 77697.7 27755.9 " />
<path d="M79272 45866
L79272 29330
" />
<path d="M77697.7 47440.9 A1574.8 1574.8 0.0 0 0 79272.5 45866.1 " />
<path d="M39508 47440
L77697 47440
" />
<path d="M37933 45866
L37933 29330
" />
<path d="M37933.9 45866.1 A1574.8 1574.8 0.0 0 0 39508.7 47440.9 " />
<path d="M39508.7 27755.9 A1574.8 1574.8 0.0 0 0 37933.9 29330.7 " />
<path d="M77697 27755
L39508 27755
" />
<path d="M74075 33415
L73288 33415
" />
<path d="M73288 34222
L74075 34222
" />
<path d="M41861 41870
L41861 41082
" />
<path d="M42707 41082
L42707 41870
" />
<path d="M72776 41446
L71989 41446
" />
<path d="M71989 42253
L72776 42253
" />
<path d="M69370 42293
L70158 42293
" />
<path d="M70158 41486
L69370 41486
" />
<path d="M73288 43120
L72500 43120
" />
<path d="M72500 43927
L73288 43927
" />
<path d="M76457 36938
L75670 36938
" />
<path d="M75670 37746
L76457 37746
" />
<path d="M67530 42145
L67530 42933
" />
<path d="M68337 42933
L68337 42145
" />
<path d="M74055 34360
L73268 34360
" />
<path d="M73268 35167
L74055 35167
" />
<path d="M72579 29222
L71792 29222
" />
<path d="M71792 30029
L72579 30029
" />
<path d="M73622 30482
L72835 30482
" />
<path d="M72835 31289
L73622 31289
" />
<path d="M51546 46594
L51546 45807
" />
<path d="M50739 45807
L50739 46594
" />
<path d="M52392 46594
L52392 45807
" />
<path d="M51585 45807
L51585 46594
" />
<path d="M58947 46574
L58947 45787
" />
<path d="M58140 45787
L58140 46574
" />
<path d="M43406 45187
L42618 45187
" />
<path d="M42618 45994
L43406 45994
" />
<path d="M46063 45009
L45276 45009
" />
<path d="M45276 45816
L46063 45816
" />
<path d="M49617 46397
L49617 45610
" />
<path d="M48809 45610
L48809 46397
" />
<path d="M73101 40531
L73101 39744
" />
<path d="M72294 39744
L72294 40531
" />
<path d="M42326 28414
L41723 28920
" />
<path d="M42242 29538
L42845 29032
" />
<path d="M47212 33530
L47769 34087
" />
<path d="M48340 33516
L47783 32959
" />
<path d="M43507 28630
L42904 29136
" />
<path d="M43423 29755
L44026 29248
" />
<path d="M55276 45374
L55217 45374
" />
<path d="M55610 45374
L55689 45374
" />
<path d="M55276 45374
L55276 45669
" />
<path d="M55276 45374
L55276 45098
" />
<path d="M55276 45374
L55610 45098
" />
<path d="M55610 45098
L55610 45650
" />
<path d="M55610 45650
L55276 45374
" />
<path d="M72205 44488
L72264 44488
" />
<path d="M71871 44488
L71792 44488
" />
<path d="M72205 44488
L72205 44193
" />
<path d="M72205 44488
L72205 44764
" />
<path d="M72205 44488
L71871 44764
" />
<path d="M71871 44764
L71871 44212
" />
<path d="M71871 44212
L72205 44488
" />
<path d="M73512 36641
L73512 37641
" />
<path d="M73622 35531
L73622 36141
" />
<path d="M73512 36641
L72512 36641
" />
<path d="M72402 36141
L72402 35531
" />
<path d="M72402 35531
L73622 35531
" />
<path d="M72512 36641
L72512 37641
" />
<path d="M72512 37641
L73512 37641
" />
<path d="M69540 30165
L68540 30165
" />
<path d="M70650 30275
L70040 30275
" />
<path d="M69540 30165
L69540 29165
" />
<path d="M70040 29055
L70650 29055
" />
<path d="M70650 29055
L70650 30275
" />
<path d="M69540 29165
L68540 29165
" />
<path d="M68540 29165
L68540 30165
" />
<path d="M70166 42866
L71166 42866
" />
<path d="M69055 42755
L69666 42755
" />
<path d="M70166 42866
L70166 43866
" />
<path d="M69666 43976
L69055 43976
" />
<path d="M69055 43976
L69055 42755
" />
<path d="M70166 43866
L71166 43866
" />
<path d="M71166 43866
L71166 42866
" />
<path d="M39418 31389
L44418 31389
" />
<path d="M44418 31389
L44418 32389
" />
<path d="M44418 32389
L39418 32389
" />
<path d="M38307 31279
L38918 31279
" />
<path d="M39418 31389
L39418 32389
" />
<path d="M38918 32500
L38307 32500
" />
<path d="M38307 32500
L38307 31279
" />
<path d="M49418 31370
L54418 31370
" />
<path d="M54418 31370
L54418 32370
" />
<path d="M54418 32370
L49418 32370
" />
<path d="M48307 31259
L48918 31259
" />
<path d="M49418 31370
L49418 32370
" />
<path d="M48918 32480
L48307 32480
" />
<path d="M48307 32480
L48307 31259
" />
<path d="M42933 38995
L42933 39271
" />
<path d="M42933 39271
L42835 39271
" />
<path d="M41831 39271
L41752 39271
" />
<path d="M41752 39271
L41752 38995
" />
<path d="M42914 41279
L42914 41003
" />
<path d="M42914 41003
L43012 41003
" />
<path d="M44016 41003
L44095 41003
" />
<path d="M44095 41003
L44095 41279
" />
<path d="M40079 40157
L40079 40433
" />
<path d="M40079 40433
L39981 40433
" />
<path d="M38977 40433
L38898 40433
" />
<path d="M38898 40433
L38898 40157
" />
<path d="M42678 43661
L42402 43661
" />
<path d="M42402 43661
L42402 43563
" />
<path d="M42402 42559
L42402 42480
" />
<path d="M42402 42480
L42678 42480
" />
<path d="M66982 37242
L67539 36686
" />
<path d="M68137 37284
L67580 37841
" />
<path d="M74567 36033
L75355 36033
" />
<path d="M75355 36879
L74567 36879
" />
<path d="M66372 36652
L66928 36095
" />
<path d="M67527 36694
L66970 37250
" />
<path d="M69134 44734
L68347 44734
" />
<path d="M68347 43887
L69134 43887
" />
<path d="M64580 34900
L65137 34343
" />
<path d="M65736 34942
L65179 35498
" />
<path d="M55650 45974
L56437 45974
" />
<path d="M56437 46820
L55650 46820
" />
<path d="M48081 45767
L48081 46555
" />
<path d="M47235 46555
L47235 45767
" />
<path d="M44715 32913
L44715 32125
" />
<path d="M45561 32125
L45561 32913
" />
<path d="M46605 33543
L46605 34330
" />
<path d="M45758 34330
L45758 33543
" />
<path d="M50003 29283
L49400 29789
" />
<path d="M48856 29141
L49459 28635
" />
<path d="M46204 29106
L45601 29612
" />
<path d="M45057 28964
L45660 28458
" />
<path d="M42264 38001
L41477 38001
" />
<path d="M41477 37155
L42264 37155
" />
<path d="M44124 37972
L44124 38759
" />
<path d="M43278 38759
L43278 37972
" />
<path d="M39666 38139
L40453 38139
" />
<path d="M40453 38986
L39666 38986
" />
<path d="M40453 36131
L41241 36131
" />
<path d="M41241 36978
L40453 36978
" />
<path d="M39666 41643
L40453 41643
" />
<path d="M40453 42490
L39666 42490
" />
<path d="M42855 33238
L43642 33238
" />
<path d="M43642 34084
L42855 34084
" />
<path d="M39685 37962
L38898 37962
" />
<path d="M38898 37116
L39685 37116
" />
<path d="M70103 37722
L72103 37722
" />
<path d="M72103 37722
L72103 39522
" />
<path d="M72103 39522
L70103 39522
" />
<path d="M70103 39522
L70103 37722
" />
<path d="M70103 38322
L70303 38322
" />
<path d="M70303 38322
L70303 38822
" />
<path d="M70303 38822
L70103 38822
" />
<circle cx="72540.2" cy="32519.7" r="39.3701" /> 
<path d="M72737 32263
L72737 32460
" />
<path d="M73878 32263
L72737 32263
" />
<path d="M73878 32460
L73878 32263
" />
<path d="M72737 32460
L73878 32460
" />
<circle cx="53898.5" cy="47303.1" r="39.3701" /> 
<path d="M53642 47106
L53839 47106
" />
<path d="M53642 45964
L53642 47106
" />
<path d="M53839 45964
L53642 45964
" />
<path d="M53839 47106
L53839 45964
" />
<circle cx="45906.4" cy="47263.8" r="39.3701" /> 
<path d="M45650 47066
L45847 47066
" />
<path d="M45650 45925
L45650 47066
" />
<path d="M45847 45925
L45650 45925
" />
<path d="M45847 47066
L45847 45925
" />
<path d="M70984 41279
L71043 41220
" />
<path d="M70217 40334
L70118 40432
" />
<path d="M70984 41279
L70847 41377
" />
<path d="M70847 41377
L70630 41436
" />
<path d="M70630 41436
L70473 41436
" />
<path d="M70473 41436
L70276 41357
" />
<path d="M70276 41357
L70118 41220
" />
<path d="M71024 40413
L70906 40314
" />
<path d="M70906 40314
L70728 40235
" />
<path d="M70728 40235
L70551 40216
" />
<path d="M70551 40216
L70354 40255
" />
<path d="M70354 40255
L70217 40334
" />
<path d="M65781 36081
L66338 35524
" />
<path d="M66936 36123
L66380 36680
" />
<path d="M65171 35490
L65728 34934
" />
<path d="M66326 35532
L65769 36089
" />
<path d="M73622 36653
L73622 37263
" />
<path d="M74134 36653
L73622 36653
" />
<path d="M75784 37213
L78084 37213
" />
<path d="M78084 37213
L78084 37313
" />
<path d="M78084 37313
L75784 37313
" />
<path d="M75784 37313
L75784 37263
" />
<path d="M75784 37263
L78084 37263
" />
<path d="M74734 37163
L74584 37163
" />
<path d="M74734 37363
L74584 37363
" />
<path d="M74734 38163
L74584 38163
" />
<path d="M74734 38363
L74584 38363
" />
<path d="M74734 39163
L74584 39163
" />
<path d="M74734 39363
L74584 39363
" />
<path d="M74734 40363
L74584 40363
" />
<path d="M74734 40163
L74584 40163
" />
<path d="M74734 36763
L75734 36763
" />
<path d="M74734 37763
L75734 37763
" />
<path d="M74734 37763
L74734 38763
" />
<path d="M74734 38763
L75734 38763
" />
<path d="M75734 38163
L78134 38163
" />
<path d="M78134 38163
L78134 38363
" />
<path d="M78134 38363
L75734 38363
" />
<path d="M75734 38763
L75734 37763
" />
<path d="M75734 37763
L75734 36763
" />
<path d="M78134 37363
L75734 37363
" />
<path d="M78134 37163
L78134 37363
" />
<path d="M75734 37163
L78134 37163
" />
<path d="M74734 37763
L75734 37763
" />
<path d="M74734 36763
L74734 37763
" />
<path d="M74734 39763
L75734 39763
" />
<path d="M74734 39763
L74734 40763
" />
<path d="M74734 40763
L75734 40763
" />
<path d="M75734 40163
L78134 40163
" />
<path d="M78134 40163
L78134 40363
" />
<path d="M78134 40363
L75734 40363
" />
<path d="M75734 40763
L75734 39763
" />
<path d="M75734 39763
L75734 38763
" />
<path d="M78134 39363
L75734 39363
" />
<path d="M78134 39163
L78134 39363
" />
<path d="M75734 39163
L78134 39163
" />
<path d="M74734 39763
L75734 39763
" />
<path d="M74734 38763
L74734 39763
" />
<path d="M74734 38763
L75734 38763
" />
<path d="M77431 34881
L77431 35669
" />
<path d="M78239 35669
L78239 34881
" />
<path d="M75788 35226
L76575 35226
" />
<path d="M76575 34419
L75788 34419
" />
<path d="M75217 36053
L76004 36053
" />
<path d="M76004 35246
L75217 35246
" />
<path d="M54661 46280
L54661 45886
" />
<path d="M54886 46280
L54717 46055
" />
<path d="M54886 45886
L54661 46111
" />
<path d="M56088 46167
L56275 46167
" />
<path d="M56050 46280
L56181 45886
L56313 46280
" />
<path d="M72614 43937
L72614 43544
" />
<path d="M72839 43937
L72670 43712
" />
<path d="M72839 43544
L72614 43769
" />
<path d="M71206 43825
L71393 43825
" />
<path d="M71168 43937
L71300 43544
L71431 43937
" />
</g> 
</svg>
