<?xml version="1.0" standalone="no"?>
 <!DOCTYPE svg PUBLIC "-//W3C//DTD SVG 1.1//EN" 
 "http://www.w3.org/Graphics/SVG/1.1/DTD/svg11.dtd"> 
<svg xmlns="http://www.w3.org/2000/svg" version="1.1" 
    width="29.7002cm" height="21.0007cm" viewBox="0 0 116930 82680 ">
<title>SVG Picture created as proto_trapapoul2-F.SilkS.svg date 2016/11/04 16:00:11 </title>
  <desc>Picture generated by PCBNEW </desc>
<g style="fill:#000000; fill-opacity:1;stroke:#000000; stroke-opacity:1;
stroke-linecap:round; stroke-linejoin:round; "
 transform="translate(0 0) scale(1 1)">
</g>
<g style="fill:#000000; fill-opacity:0.0; 
stroke:#000000; stroke-width:-0.000393701; stroke-opacity:1; 
stroke-linecap:round; stroke-linejoin:round;">
</g>
<g style="fill:#000000; fill-opacity:0.0; 
stroke:#000000; stroke-width:59.0551; stroke-opacity:1; 
stroke-linecap:round; stroke-linejoin:round;">
<path d="M54192 44291
L71909 44291
" />
<path d="M53799 37598
L53799 43897
" />
<path d="M71909 37204
L54192 37204
" />
<path d="M72303 43897
L72303 37598
" />
<path d="M54192.9 37204.7 A393.701 393.701 0.0 0 0 53799.2 37598.4 " />
<path d="M53799.2 43897.6 A393.701 393.701 0.0 0 0 54192.9 44291.3 " />
<path d="M71909.4 44291.3 A393.701 393.701 0.0 0 0 72303.1 43897.6 " />
<path d="M72303.1 37598.4 A393.701 393.701 0.0 0 0 71909.4 37204.7 " />
<circle cx="47106.3" cy="33681.1" r="1574.8" /> 
<path d="M39232.3 27755.9 A1574.8 1574.8 0.0 0 0 37657.5 29330.7 " />
<path d="M37657 45866
L37657 29330
" />
<path d="M37657.5 45866.1 A1574.8 1574.8 0.0 0 0 39232.3 47440.9 " />
<path d="M77421 47440
L39232 47440
" />
<path d="M78996 45866
L78996 29330
" />
<path d="M77421.3 47440.9 A1574.8 1574.8 0.0 0 0 78996.1 45866.1 " />
<path d="M78996.1 29330.7 A1574.8 1574.8 0.0 0 0 77421.3 27755.9 " />
<path d="M39232 27755
L77421 27755
" />
<path d="M51092 28897
L51092 29685
" />
<path d="M51899 29685
L51899 28897
" />
<path d="M52194 46437
L52194 45649
" />
<path d="M51387 45649
L51387 46437
" />
<path d="M49183 45649
L49183 46437
" />
<path d="M49990 46437
L49990 45649
" />
<path d="M74990 44901
L74990 44114
" />
<path d="M74183 44114
L74183 44901
" />
<path d="M71535 30915
L70748 30915
" />
<path d="M70748 31722
L71535 31722
" />
<path d="M69240 28279
L70240 28279
" />
<path d="M68129 28169
L68740 28169
" />
<path d="M69240 28279
L69240 29279
" />
<path d="M68740 29389
L68129 29389
" />
<path d="M68129 29389
L68129 28169
" />
<path d="M69240 29279
L70240 29279
" />
<path d="M70240 29279
L70240 28279
" />
<path d="M75464 40405
L75464 39405
" />
<path d="M75354 41515
L75354 40905
" />
<path d="M75464 40405
L76464 40405
" />
<path d="M76574 40905
L76574 41515
" />
<path d="M76574 41515
L75354 41515
" />
<path d="M76464 40405
L76464 39405
" />
<path d="M76464 39405
L75464 39405
" />
<path d="M67086 29842
L66810 29842
" />
<path d="M66810 29842
L66810 29744
" />
<path d="M66810 28740
L66810 28661
" />
<path d="M66810 28661
L67086 28661
" />
<path d="M50285 45885
L50285 45098
" />
<path d="M51131 45098
L51131 45885
" />
<path d="M48966 45118
L48966 45905
" />
<path d="M48120 45905
L48120 45118
" />
<path d="M75433 39163
L74645 39163
" />
<path d="M74645 38316
L75433 38316
" />
<path d="M75944 42470
L75157 42470
" />
<path d="M75157 41624
L75944 41624
" />
<path d="M77844 42519
L77844 43307
" />
<path d="M76998 43307
L76998 42519
" />
<path d="M78149 41151
L77362 41151
" />
<path d="M77362 40305
L78149 40305
" />
<path d="M71279 28297
L72066 28297
" />
<path d="M72066 29143
L71279 29143
" />
<path d="M76877 34293
L76577 34293
" />
<path d="M76877 34093
L76577 34093
" />
<path d="M77677.8 34293.2 A657.647 657.647 0.0 0 0 77127.8 33543.2 " />
<path d="M77077.8 34843.2 A651.92 651.92 0.0 0 0 77677.8 34143.2 " />
<path d="M77377.8 33643.2 A651.92 651.92 0.0 0 0 76477.8 33843.2 " />
<path d="M76477.8 34543.2 A651.92 651.92 0.0 0 0 77377.8 34743.2 " />
<path d="M78527 35493
L78477 35493
" />
<path d="M77027 35493
L77577 35493
" />
<path d="M78527 32893
L78477 32893
" />
<path d="M77027 32893
L77577 32893
" />
<path d="M78177 34643
L78227 34493
" />
<path d="M78227 34493
L78277 34193
" />
<path d="M78277 34193
L78227 33893
" />
<path d="M78227 33893
L78177 33743
" />
<path d="M77827 34693
L77827 33693
" />
<path d="M77527.8 33043.2 A1253.99 1253.99 0.0 0 0 75877.8 33693.2 " />
<path d="M75877.8 34693.2 A1253.99 1253.99 0.0 0 0 77527.8 35343.2 " />
<path d="M75727 33393
L75727 33743
" />
<path d="M75727 34643
L75727 34993
" />
<path d="M76877 33543
L76877 33343
" />
<path d="M76877 33343
L77177 33343
" />
<path d="M77177 33343
L77177 33543
" />
<path d="M76877 34843
L76877 35043
" />
<path d="M76877 35043
L77177 35043
" />
<path d="M77177 35043
L77177 34843
" />
<path d="M77127 33993
L77127 33543
" />
<path d="M76927 33993
L76927 33543
" />
<path d="M77127 34393
L77127 34843
" />
<path d="M76927 34393
L76927 34843
" />
<path d="M77177 34093
L77677 34093
" />
<path d="M77177 34293
L77677 34293
" />
<path d="M76877 34393
L77177 34393
" />
<path d="M77177 34393
L77177 33993
" />
<path d="M77177 33993
L76877 33993
" />
<path d="M76877 33993
L76877 34393
" />
<path d="M75727 34993
L76277 35493
" />
<path d="M76277 35493
L77027 35493
" />
<path d="M75727 33393
L76277 32893
" />
<path d="M76277 32893
L77027 32893
" />
<path d="M78527 32993
L78627 32993
" />
<path d="M78627 32993
L78627 33443
" />
<path d="M78627 33443
L78527 33443
" />
<path d="M78527 35393
L78627 35393
" />
<path d="M78627 35393
L78627 34943
" />
<path d="M78627 34943
L78527 34943
" />
<path d="M78527 35493
L78527 32893
" />
<path d="M51842 43011
L50503 43011
" />
<path d="M51173.2 44626 A944.882 944.882 0.0 0 0 51841.4 43013 " />
<path d="M50505.1 43013 A944.882 944.882 0.0 0 0 51173.2 44626 " />
<path d="M51842 42047
L50503 42047
" />
<path d="M51173.2 43661.4 A944.882 944.882 0.0 0 0 51841.4 42048.4 " />
<path d="M50505.1 42048.4 A944.882 944.882 0.0 0 0 51173.2 43661.4 " />
<path d="M77598 38759
L77598 39035
" />
<path d="M77598 39035
L77500 39035
" />
<path d="M76496 39035
L76417 39035
" />
<path d="M76417 39035
L76417 38759
" />
<circle cx="74940.9" cy="43661.4" r="39.3701" /> 
<path d="M75137 43405
L75137 43602
" />
<path d="M76279 43405
L75137 43405
" />
<path d="M76279 43602
L76279 43405
" />
<path d="M75137 43602
L76279 43602
" />
<path d="M71746 36027
L68596 36027
" />
<path d="M68596 31727
L71746 31727
" />
<path d="M68596 36027
L68596 31727
" />
<path d="M71746 31727
L71746 36027
" />
<path d="M69996 36027
L69996 35727
" />
<path d="M69996 35727
L70396 35727
" />
<path d="M70396 35727
L70396 36027
" />
<path d="M60531 46190
L58051 46190
" />
<path d="M60528 46246
L58053 46246
" />
<path d="M60523 46301
L59466 46301
" />
<path d="M59115 46301
L58059 46301
" />
<path d="M60516 46356
L59549 46356
" />
<path d="M59033 46356
L58066 46356
" />
<path d="M60505 46411
L59601 46411
" />
<path d="M58980 46411
L58076 46411
" />
<path d="M60493 46466
L59637 46466
" />
<path d="M58944 46466
L58089 46466
" />
<path d="M60477 46521
L59662 46521
" />
<path d="M58920 46521
L58104 46521
" />
<path d="M60459 46576
L59677 46576
" />
<path d="M58905 46576
L58122 46576
" />
<path d="M60438 46631
L59684 46631
" />
<path d="M58898 46631
L58143 46631
" />
<path d="M60414 46687
L59683 46687
" />
<path d="M58899 46687
L58168 46687
" />
<path d="M60387 46742
L59674 46742
" />
<path d="M58907 46742
L58195 46742
" />
<path d="M60355 46797
L59657 46797
" />
<path d="M58924 46797
L58226 46797
" />
<path d="M60321 46852
L59631 46852
" />
<path d="M58951 46852
L58261 46852
" />
<path d="M60281 46907
L59592 46907
" />
<path d="M58990 46907
L58300 46907
" />
<path d="M60237 46962
L59535 46962
" />
<path d="M59047 46962
L58344 46962
" />
<path d="M60188 47017
L59440 47017
" />
<path d="M59141 47017
L58394 47017
" />
<path d="M60132 47072
L58450 47072
" />
<path d="M60068 47127
L58514 47127
" />
<path d="M59994 47183
L58588 47183
" />
<path d="M59906 47238
L58675 47238
" />
<path d="M59798 47293
L58784 47293
" />
<path d="M59650 47348
L58932 47348
" />
<circle cx="59291.3" cy="46653.5" r="393.701" /> 
<circle cx="59291.3" cy="46161.4" r="1254.92" /> 
<path d="M47420 45856
L44941 45856
" />
<path d="M47418 45911
L44943 45911
" />
<path d="M47413 45966
L46356 45966
" />
<path d="M46005 45966
L44948 45966
" />
<path d="M47405 46021
L46439 46021
" />
<path d="M45922 46021
L44956 46021
" />
<path d="M47395 46076
L46491 46076
" />
<path d="M45870 46076
L44966 46076
" />
<path d="M47383 46131
L46527 46131
" />
<path d="M45834 46131
L44979 46131
" />
<path d="M47367 46187
L46551 46187
" />
<path d="M45810 46187
L44994 46187
" />
<path d="M47349 46242
L46567 46242
" />
<path d="M45794 46242
L45012 46242
" />
<path d="M47328 46297
L46574 46297
" />
<path d="M45788 46297
L45033 46297
" />
<path d="M47304 46352
L46573 46352
" />
<path d="M45788 46352
L45057 46352
" />
<path d="M47276 46407
L46564 46407
" />
<path d="M45797 46407
L45085 46407
" />
<path d="M47245 46462
L46547 46462
" />
<path d="M45814 46462
L45116 46462
" />
<path d="M47211 46517
L46520 46517
" />
<path d="M45841 46517
L45151 46517
" />
<path d="M47171 46572
L46481 46572
" />
<path d="M45880 46572
L45190 46572
" />
<path d="M47127 46627
L46424 46627
" />
<path d="M45937 46627
L45234 46627
" />
<path d="M47078 46683
L46330 46683
" />
<path d="M46031 46683
L45283 46683
" />
<path d="M47022 46738
L45340 46738
" />
<path d="M46958 46793
L45403 46793
" />
<path d="M46884 46848
L45477 46848
" />
<path d="M46796 46903
L45565 46903
" />
<path d="M46687 46958
L45674 46958
" />
<path d="M46540 47013
L45822 47013
" />
<circle cx="46181.1" cy="46318.9" r="393.701" /> 
<circle cx="46181.1" cy="45826.8" r="1254.92" /> 
<path d="M77765 39192
L77765 38405
" />
<path d="M78612 38405
L78612 39192
" />
<path d="M77696 37293
L76909 37293
" />
<path d="M76909 36446
L77696 36446
" />
<path d="M68050 46151
L65571 46151
" />
<path d="M68048 46206
L65573 46206
" />
<path d="M68043 46261
L66986 46261
" />
<path d="M66635 46261
L65578 46261
" />
<path d="M68035 46316
L67069 46316
" />
<path d="M66552 46316
L65586 46316
" />
<path d="M68025 46372
L67121 46372
" />
<path d="M66500 46372
L65596 46372
" />
<path d="M68012 46427
L67157 46427
" />
<path d="M66464 46427
L65609 46427
" />
<path d="M67997 46482
L67181 46482
" />
<path d="M66440 46482
L65624 46482
" />
<path d="M67979 46537
L67197 46537
" />
<path d="M66424 46537
L65642 46537
" />
<path d="M67958 46592
L67203 46592
" />
<path d="M66418 46592
L65663 46592
" />
<path d="M67934 46647
L67203 46647
" />
<path d="M66418 46647
L65687 46647
" />
<path d="M67906 46702
L67194 46702
" />
<path d="M66427 46702
L65715 46702
" />
<path d="M67875 46757
L67177 46757
" />
<path d="M66444 46757
L65746 46757
" />
<path d="M67840 46812
L67150 46812
" />
<path d="M66471 46812
L65781 46812
" />
<path d="M67801 46868
L67111 46868
" />
<path d="M66510 46868
L65820 46868
" />
<path d="M67757 46923
L67054 46923
" />
<path d="M66567 46923
L65864 46923
" />
<path d="M67708 46978
L66960 46978
" />
<path d="M66661 46978
L65913 46978
" />
<path d="M67651 47033
L65970 47033
" />
<path d="M67588 47088
L66033 47088
" />
<path d="M67514 47143
L66107 47143
" />
<path d="M67426 47198
L66195 47198
" />
<path d="M67317 47253
L66304 47253
" />
<path d="M67170 47309
L66451 47309
" />
<circle cx="66811" cy="46614.2" r="393.701" /> 
<circle cx="66811" cy="46122" r="1254.92" /> 
<path d="M62533 28235
L62533 28735
" />
<path d="M62843 28530
L62828 28430
" />
<path d="M62828 28430
L62758 28320
" />
<path d="M62758 28320
L62633 28235
" />
<path d="M62633 28235
L62458 28230
" />
<path d="M62458 28230
L62318 28310
" />
<path d="M62318 28310
L62248 28425
" />
<path d="M62248 28425
L62228 28550
" />
<path d="M62228 28550
L62268 28710
" />
<path d="M62268 28710
L62403 28810
" />
<path d="M62403 28810
L62473 28845
" />
<path d="M65833 29735
L62033 29735
" />
<path d="M62033 28535
L62033 28035
" />
<path d="M62033 28035
L65833 28035
" />
<path d="M65833 28035
L65833 30035
" />
<path d="M62033 30035
L62033 29035
" />
<path d="M62033 29035
L62033 28535
" />
<path d="M72178 45597
L72178 46097
" />
<path d="M72488 45892
L72473 45792
" />
<path d="M72473 45792
L72403 45682
" />
<path d="M72403 45682
L72278 45597
" />
<path d="M72278 45597
L72103 45592
" />
<path d="M72103 45592
L71963 45672
" />
<path d="M71963 45672
L71893 45787
" />
<path d="M71893 45787
L71873 45912
" />
<path d="M71873 45912
L71913 46072
" />
<path d="M71913 46072
L72048 46172
" />
<path d="M72048 46172
L72118 46207
" />
<path d="M75478 47097
L71678 47097
" />
<path d="M71678 45897
L71678 45397
" />
<path d="M71678 45397
L75478 45397
" />
<path d="M75478 45397
L75478 47397
" />
<path d="M71678 47397
L71678 46397
" />
<path d="M71678 46397
L71678 45897
" />
<path d="M64606 46505
L63818 46505
" />
<path d="M63818 45659
L64606 45659
" />
<path d="M62381 45561
L61594 45561
" />
<path d="M61594 44714
L62381 44714
" />
</g>
<g style="fill:#000000; fill-opacity:0.0; 
stroke:#000000; stroke-width:150; stroke-opacity:1; 
stroke-linecap:round; stroke-linejoin:round;">
<path d="M63972 32984
L61972 32984
" />
<path d="M63972 33984
L61972 33984
" />
<path d="M62972 31984
L62972 34984
" />
<path d="M61972 31984
L63972 31984
" />
<path d="M63972 31984
L63972 34984
" />
<path d="M63972 34984
L61972 34984
" />
<path d="M78972 29984
L61972 29984
" />
<path d="M61972 36984
L78972 36984
" />
<path d="M61972 36984
L61972 29984
" />
<path d="M78972 36984
L78972 29984
" />
<circle cx="62472.4" cy="30484.3" r="500" /> 
<circle cx="62472.4" cy="36484.3" r="500" /> 
<circle cx="78472.4" cy="30484.3" r="500" /> 
<circle cx="78472.4" cy="36484.3" r="500" /> 
<path d="M77972 30984
L62972 30984
" />
<path d="M62972 35984
L77972 35984
" />
<path d="M77972 36984
L77972 35984
" />
<path d="M77972 30984
L77972 29984
" />
<path d="M62972 29984
L62972 30984
" />
<path d="M62972 36984
L62972 35984
" />
</g>
<g style="fill:#000000; fill-opacity:0.0; 
stroke:#000000; stroke-width:98.4252; stroke-opacity:1; 
stroke-linecap:round; stroke-linejoin:round;">
<circle cx="59724.4" cy="29783.5" r="1968.5" /> 
<circle cx="59744.1" cy="33740.2" r="1968.5" /> 
</g> 
</svg>
