<?xml version="1.0" standalone="no"?>
 <!DOCTYPE svg PUBLIC "-//W3C//DTD SVG 1.1//EN" 
 "http://www.w3.org/Graphics/SVG/1.1/DTD/svg11.dtd"> 
<svg xmlns="http://www.w3.org/2000/svg" version="1.1" 
    width="29.7002cm" height="21.0007cm" viewBox="0 0 116930 82680 ">
<title>SVG Picture created as proto_trapapoul2-F.Fab.svg date 2016/11/04 16:00:11 </title>
  <desc>Picture generated by PCBNEW </desc>
<g style="fill:#000000; fill-opacity:1;stroke:#000000; stroke-opacity:1;
stroke-linecap:round; stroke-linejoin:round; "
 transform="translate(0 0) scale(1 1)">
</g>
<g style="fill:#000000; fill-opacity:0.0; 
stroke:#000000; stroke-width:-0.000393701; stroke-opacity:1; 
stroke-linecap:round; stroke-linejoin:round;">
</g>
<g style="fill:#000000; fill-opacity:0.0; 
stroke:#000000; stroke-width:59.0551; stroke-opacity:1; 
stroke-linecap:round; stroke-linejoin:round;">
<path d="M54192 44291
L71909 44291
" />
<path d="M53799 37598
L53799 43897
" />
<path d="M71909 37204
L54192 37204
" />
<path d="M72303 43897
L72303 37598
" />
<path d="M54192.9 37204.7 A393.701 393.701 0.0 0 0 53799.2 37598.4 " />
<path d="M53799.2 43897.6 A393.701 393.701 0.0 0 0 54192.9 44291.3 " />
<path d="M71909.4 44291.3 A393.701 393.701 0.0 0 0 72303.1 43897.6 " />
<path d="M72303.1 37598.4 A393.701 393.701 0.0 0 0 71909.4 37204.7 " />
<circle cx="47106.3" cy="33681.1" r="1574.8" /> 
<path d="M39232.3 27755.9 A1574.8 1574.8 0.0 0 0 37657.5 29330.7 " />
<path d="M37657 45866
L37657 29330
" />
<path d="M37657.5 45866.1 A1574.8 1574.8 0.0 0 0 39232.3 47440.9 " />
<path d="M77421 47440
L39232 47440
" />
<path d="M78996 45866
L78996 29330
" />
<path d="M77421.3 47440.9 A1574.8 1574.8 0.0 0 0 78996.1 45866.1 " />
<path d="M78996.1 29330.7 A1574.8 1574.8 0.0 0 0 77421.3 27755.9 " />
<path d="M39232 27755
L77421 27755
" />
<path d="M51733 29505
L51733 29730
" />
<path d="M51733 29617
L51339 29617
L51395 29655
L51433 29692
L51452 29730
" />
<path d="M51339 29261
L51339 29223
L51358 29186
L51377 29167
L51414 29148
L51489 29130
L51583 29130
L51658 29148
L51695 29167
L51714 29186
L51733 29223
L51733 29261
L51714 29298
L51695 29317
L51658 29336
L51583 29355
L51489 29355
L51414 29336
L51377 29317
L51358 29298
L51339 29261
" />
<path d="M51470 28961
L51733 28961
" />
<path d="M51508 28961
L51489 28942
L51470 28905
L51470 28848
L51489 28811
L51526 28792
L51733 28792
" />
<path d="M52008 46534
L52008 46759
" />
<path d="M52008 46646
L51615 46646
L51671 46684
L51708 46721
L51727 46759
" />
<path d="M51615 46290
L51615 46253
L51633 46215
L51652 46197
L51690 46178
L51765 46159
L51858 46159
L51933 46178
L51971 46197
L51990 46215
L52008 46253
L52008 46290
L51990 46328
L51971 46347
L51933 46365
L51858 46384
L51765 46384
L51690 46365
L51652 46347
L51633 46328
L51615 46290
" />
<path d="M51615 45915
L51615 45878
L51633 45840
L51652 45822
L51690 45803
L51765 45784
L51858 45784
L51933 45803
L51971 45822
L51990 45840
L52008 45878
L52008 45915
L51990 45953
L51971 45972
L51933 45990
L51858 46009
L51765 46009
L51690 45990
L51652 45972
L51633 45953
L51615 45915
" />
<path d="M51746 45615
L52008 45615
" />
<path d="M51783 45615
L51765 45597
L51746 45559
L51746 45503
L51765 45465
L51802 45447
L52008 45447
" />
<path d="M51802 45128
L51802 45259
" />
<path d="M52008 45259
L51615 45259
L51615 45072
" />
<path d="M49804 46652
L49804 46877
" />
<path d="M49804 46765
L49410 46765
L49466 46802
L49504 46840
L49522 46877
" />
<path d="M49410 46408
L49410 46371
L49429 46333
L49447 46315
L49485 46296
L49560 46277
L49654 46277
L49729 46296
L49766 46315
L49785 46333
L49804 46371
L49804 46408
L49785 46446
L49766 46465
L49729 46483
L49654 46502
L49560 46502
L49485 46483
L49447 46465
L49429 46446
L49410 46408
" />
<path d="M49410 46033
L49410 45996
L49429 45958
L49447 45940
L49485 45921
L49560 45902
L49654 45902
L49729 45921
L49766 45940
L49785 45958
L49804 45996
L49804 46033
L49785 46071
L49766 46090
L49729 46108
L49654 46127
L49560 46127
L49485 46108
L49447 46090
L49429 46071
L49410 46033
" />
<path d="M49541 45733
L49804 45733
" />
<path d="M49579 45733
L49560 45715
L49541 45677
L49541 45621
L49560 45583
L49597 45565
L49804 45565
" />
<path d="M49597 45246
L49597 45377
" />
<path d="M49804 45377
L49410 45377
L49410 45190
" />
<path d="M74784 44928
L74784 45153
" />
<path d="M74784 45041
L74390 45041
L74446 45078
L74484 45116
L74503 45153
" />
<path d="M74390 44685
L74390 44647
L74409 44610
L74428 44591
L74465 44572
L74540 44553
L74634 44553
L74709 44572
L74746 44591
L74765 44610
L74784 44647
L74784 44685
L74765 44722
L74746 44741
L74709 44760
L74634 44778
L74540 44778
L74465 44760
L74428 44741
L74409 44722
L74390 44685
" />
<path d="M74390 44310
L74390 44272
L74409 44235
L74428 44216
L74465 44197
L74540 44178
L74634 44178
L74709 44197
L74746 44216
L74765 44235
L74784 44272
L74784 44310
L74765 44347
L74746 44366
L74709 44385
L74634 44403
L74540 44403
L74465 44385
L74428 44366
L74409 44347
L74390 44310
" />
<path d="M74521 44010
L74784 44010
" />
<path d="M74559 44010
L74540 43991
L74521 43953
L74521 43897
L74540 43860
L74578 43841
L74784 43841
" />
<path d="M70532 31595
L70307 31595
" />
<path d="M70419 31595
L70419 31201
L70382 31257
L70344 31295
L70307 31314
" />
<path d="M70776 31201
L70813 31201
L70851 31220
L70869 31239
L70888 31276
L70907 31351
L70907 31445
L70888 31520
L70869 31557
L70851 31576
L70813 31595
L70776 31595
L70738 31576
L70719 31557
L70701 31520
L70682 31445
L70682 31351
L70701 31276
L70719 31239
L70738 31220
L70776 31201
" />
<path d="M71151 31201
L71188 31201
L71226 31220
L71244 31239
L71263 31276
L71282 31351
L71282 31445
L71263 31520
L71244 31557
L71226 31576
L71188 31595
L71151 31595
L71113 31576
L71094 31557
L71076 31520
L71057 31445
L71057 31351
L71076 31276
L71094 31239
L71113 31220
L71151 31201
" />
<path d="M71451 31332
L71451 31595
" />
<path d="M71451 31370
L71469 31351
L71507 31332
L71563 31332
L71601 31351
L71619 31389
L71619 31595
" />
<path d="M71938 31389
L71807 31389
" />
<path d="M71807 31595
L71807 31201
L71994 31201
" />
<path d="M63684 33248
L63497 33248
L63478 33436
L63497 33417
L63534 33398
L63628 33398
L63666 33417
L63684 33436
L63703 33473
L63703 33567
L63684 33605
L63666 33623
L63628 33642
L63534 33642
L63497 33623
L63478 33605
" />
<path d="M63853 33530
L64041 33530
" />
<path d="M63816 33642
L63947 33248
L64078 33642
" />
<path d="M46571 33642
L46571 33248
" />
<path d="M46740 33642
L46740 33436
L46721 33398
L46684 33380
L46628 33380
L46590 33398
L46571 33417
" />
<path d="M46984 33642
L46946 33623
L46928 33605
L46909 33567
L46909 33455
L46928 33417
L46946 33398
L46984 33380
L47040 33380
L47078 33398
L47096 33417
L47115 33455
L47115 33567
L47096 33605
L47078 33623
L47040 33642
L46984 33642
" />
<path d="M47340 33642
L47303 33623
L47284 33586
L47284 33248
" />
<path d="M47640 33623
L47603 33642
L47528 33642
L47490 33623
L47471 33586
L47471 33436
L47490 33398
L47528 33380
L47603 33380
L47640 33398
L47659 33436
L47659 33473
L47471 33511
" />
<path d="M68479 28957
L68479 28563
" />
<path d="M68479 28751
L68704 28751
" />
<path d="M68704 28957
L68704 28563
" />
<path d="M68873 28601
L68892 28582
L68929 28563
L69023 28563
L69060 28582
L69079 28601
L69098 28638
L69098 28676
L69079 28732
L68854 28957
L69098 28957
" />
<path d="M75684 41083
L75684 40689
" />
<path d="M75684 40877
L75909 40877
" />
<path d="M75909 41083
L75909 40689
" />
<path d="M76077 40727
L76096 40708
L76134 40689
L76227 40689
L76265 40708
L76284 40727
L76302 40764
L76302 40802
L76284 40858
L76059 41083
L76302 41083
" />
<path d="M67323 29767
L66930 29767
L67323 29542
L66930 29542
" />
<path d="M67323 29355
L66930 29355
L66930 29205
L66948 29167
L66967 29148
L67005 29130
L67061 29130
L67098 29148
L67117 29167
L67136 29205
L67136 29355
" />
<path d="M67323 28961
L66930 28961
L67323 28736
L66930 28736
" />
<path d="M50624 45626
L50886 45626
" />
<path d="M50474 45719
L50755 45813
L50755 45569
" />
<path d="M50886 45419
L50493 45419
" />
<path d="M50736 45382
L50886 45269
" />
<path d="M50624 45269
L50774 45419
" />
<path d="M50493 45138
L50493 44876
L50886 45044
" />
<path d="M48537 45783
L48800 45783
" />
<path d="M48387 45877
L48668 45971
L48668 45727
" />
<path d="M48800 45577
L48406 45577
" />
<path d="M48650 45539
L48800 45427
" />
<path d="M48537 45427
L48687 45577
" />
<path d="M48406 45296
L48406 45033
L48800 45202
" />
<path d="M74903 38937
L74678 38937
" />
<path d="M74790 38937
L74790 38544
L74753 38600
L74715 38637
L74678 38656
" />
<path d="M75147 38544
L75184 38544
L75222 38562
L75240 38581
L75259 38619
L75278 38694
L75278 38787
L75259 38862
L75240 38900
L75222 38919
L75184 38937
L75147 38937
L75109 38919
L75090 38900
L75072 38862
L75053 38787
L75053 38694
L75072 38619
L75090 38581
L75109 38562
L75147 38544
" />
<path d="M75447 38937
L75447 38544
" />
<path d="M75484 38787
L75597 38937
" />
<path d="M75597 38675
L75447 38825
" />
<path d="M75257 42284
L75032 42284
" />
<path d="M75145 42284
L75145 41890
L75107 41946
L75070 41984
L75032 42003
" />
<path d="M75501 41890
L75538 41890
L75576 41909
L75595 41928
L75613 41965
L75632 42040
L75632 42134
L75613 42209
L75595 42246
L75576 42265
L75538 42284
L75501 42284
L75464 42265
L75445 42246
L75426 42209
L75407 42134
L75407 42040
L75426 41965
L75445 41928
L75464 41909
L75501 41890
" />
<path d="M75801 42284
L75801 41890
" />
<path d="M75838 42134
L75951 42284
" />
<path d="M75951 42021
L75801 42171
" />
<path d="M77599 42960
L77599 43185
" />
<path d="M77599 43072
L77205 43072
L77261 43110
L77299 43147
L77318 43185
" />
<path d="M77599 42791
L77205 42791
" />
<path d="M77449 42754
L77599 42641
" />
<path d="M77336 42641
L77486 42791
" />
<path d="M77689 40906
L77464 40906
" />
<path d="M77576 40906
L77576 40512
L77539 40568
L77501 40606
L77464 40625
" />
<path d="M77858 40906
L77858 40512
" />
<path d="M77895 40756
L78008 40906
" />
<path d="M78008 40643
L77858 40793
" />
<path d="M71465 28655
L71465 28918
" />
<path d="M71371 28505
L71277 28787
L71521 28787
" />
<path d="M71671 28880
L71690 28899
L71671 28918
L71652 28899
L71671 28880
L71671 28918
" />
<path d="M71821 28524
L72083 28524
L71915 28918
" />
<path d="M72233 28918
L72233 28524
" />
<path d="M72271 28768
L72383 28918
" />
<path d="M72383 28655
L72233 28805
" />
<path d="M75769 34351
L75544 34351
" />
<path d="M75657 34351
L75657 33957
L75619 34013
L75582 34051
L75544 34070
" />
<path d="M76013 33957
L76050 33957
L76088 33976
L76107 33995
L76125 34032
L76144 34107
L76144 34201
L76125 34276
L76107 34313
L76088 34332
L76050 34351
L76013 34351
L75975 34332
L75957 34313
L75938 34276
L75919 34201
L75919 34107
L75938 34032
L75957 33995
L75975 33976
L76013 33957
" />
<path d="M76313 34351
L76313 33957
" />
<path d="M76350 34201
L76463 34351
" />
<path d="M76463 34088
L76313 34238
" />
<path d="M50507 43682
L50750 43682
L50619 43832
L50675 43832
L50713 43850
L50732 43869
L50750 43907
L50750 44000
L50732 44038
L50713 44056
L50675 44075
L50563 44075
L50525 44056
L50507 44038
" />
<path d="M51125 44075
L50900 44075
" />
<path d="M51013 44075
L51013 43682
L50975 43738
L50938 43775
L50900 43794
" />
<path d="M51463 43813
L51463 44075
" />
<path d="M51369 43663
L51275 43944
L51519 43944
" />
<path d="M51838 43813
L51838 44075
" />
<path d="M51744 43663
L51650 43944
L51894 43944
" />
<path d="M50487 42422
L50731 42422
L50599 42572
L50656 42572
L50693 42590
L50712 42609
L50731 42647
L50731 42740
L50712 42778
L50693 42797
L50656 42815
L50543 42815
L50506 42797
L50487 42778
" />
<path d="M51106 42815
L50881 42815
" />
<path d="M50993 42815
L50993 42422
L50956 42478
L50918 42515
L50881 42534
" />
<path d="M51443 42553
L51443 42815
" />
<path d="M51349 42403
L51256 42684
L51499 42684
" />
<path d="M51818 42553
L51818 42815
" />
<path d="M51724 42403
L51631 42684
L51874 42684
" />
<path d="M76707 38675
L76707 38937
" />
<path d="M76614 38525
L76520 38806
L76764 38806
" />
<path d="M76876 38544
L77120 38544
L76989 38694
L77045 38694
L77082 38712
L77101 38731
L77120 38769
L77120 38862
L77101 38900
L77082 38919
L77045 38937
L76932 38937
L76895 38919
L76876 38900
" />
<path d="M77495 38937
L77270 38937
" />
<path d="M77382 38937
L77382 38544
L77345 38600
L77307 38637
L77270 38656
" />
<path d="M75349 42874
L75274 42874
L75237 42893
L75218 42912
L75180 42968
L75162 43043
L75162 43193
L75180 43231
L75199 43249
L75237 43268
L75312 43268
L75349 43249
L75368 43231
L75387 43193
L75387 43099
L75368 43062
L75349 43043
L75312 43024
L75237 43024
L75199 43043
L75180 43062
L75162 43099
" />
<path d="M75630 42874
L75668 42874
L75705 42893
L75724 42912
L75743 42949
L75762 43024
L75762 43118
L75743 43193
L75724 43231
L75705 43249
L75668 43268
L75630 43268
L75593 43249
L75574 43231
L75555 43193
L75537 43118
L75537 43024
L75555 42949
L75574 42912
L75593 42893
L75630 42874
" />
<path d="M76137 43268
L75912 43268
" />
<path d="M76024 43268
L76024 42874
L75987 42931
L75949 42968
L75912 42987
" />
<path d="M68978 34075
L68978 33682
L69128 33682
L69165 33700
L69184 33719
L69203 33757
L69203 33813
L69184 33850
L69165 33869
L69128 33888
L68978 33888
" />
<path d="M69596 34038
L69578 34056
L69521 34075
L69484 34075
L69428 34056
L69390 34019
L69371 33982
L69353 33907
L69353 33850
L69371 33775
L69390 33738
L69428 33700
L69484 33682
L69521 33682
L69578 33700
L69596 33719
" />
<path d="M69896 33869
L69765 33869
" />
<path d="M69765 34075
L69765 33682
L69953 33682
" />
<path d="M70159 33850
L70121 33832
L70103 33813
L70084 33775
L70084 33757
L70103 33719
L70121 33700
L70159 33682
L70234 33682
L70271 33700
L70290 33719
L70309 33757
L70309 33775
L70290 33813
L70271 33832
L70234 33850
L70159 33850
L70121 33869
L70103 33888
L70084 33925
L70084 34000
L70103 34038
L70121 34056
L70159 34075
L70234 34075
L70271 34056
L70290 34038
L70309 34000
L70309 33925
L70290 33888
L70271 33869
L70234 33850
" />
<path d="M70665 33682
L70478 33682
L70459 33869
L70478 33850
L70515 33832
L70609 33832
L70646 33850
L70665 33869
L70684 33907
L70684 34000
L70665 34038
L70646 34056
L70609 34075
L70515 34075
L70478 34056
L70459 34038
" />
<path d="M70815 33682
L71077 33682
L70909 34075
" />
<path d="M71396 33813
L71396 34075
" />
<path d="M71302 33663
L71209 33944
L71452 33944
" />
<path d="M58585 45703
L58585 45965
" />
<path d="M58491 45553
L58398 45834
L58641 45834
" />
<path d="M58754 45571
L59016 45571
L58847 45965
" />
<path d="M59241 45571
L59279 45571
L59316 45590
L59335 45609
L59354 45646
L59372 45721
L59372 45815
L59354 45890
L59335 45928
L59316 45946
L59279 45965
L59241 45965
L59204 45946
L59185 45928
L59166 45890
L59147 45815
L59147 45721
L59166 45646
L59185 45609
L59204 45590
L59241 45571
" />
<path d="M59710 45703
L59710 45965
" />
<path d="M59541 45703
L59541 45909
L59560 45946
L59597 45965
L59654 45965
L59691 45946
L59710 45928
" />
<path d="M60029 45759
L59897 45759
" />
<path d="M59897 45965
L59897 45571
L60085 45571
" />
<path d="M45475 45388
L45475 45650
" />
<path d="M45381 45238
L45287 45519
L45531 45519
" />
<path d="M45643 45256
L45906 45256
L45737 45650
" />
<path d="M46131 45256
L46168 45256
L46206 45275
L46225 45294
L46243 45331
L46262 45406
L46262 45500
L46243 45575
L46225 45613
L46206 45631
L46168 45650
L46131 45650
L46093 45631
L46075 45613
L46056 45575
L46037 45500
L46037 45406
L46056 45331
L46075 45294
L46093 45275
L46131 45256
" />
<path d="M46600 45388
L46600 45650
" />
<path d="M46431 45388
L46431 45594
L46450 45631
L46487 45650
L46543 45650
L46581 45631
L46600 45613
" />
<path d="M46918 45444
L46787 45444
" />
<path d="M46787 45650
L46787 45256
L46975 45256
" />
<path d="M78288 39013
L78288 39238
" />
<path d="M78288 39126
L77894 39126
L77950 39163
L77988 39201
L78007 39238
" />
<path d="M77894 38770
L77894 38732
L77913 38695
L77932 38676
L77969 38657
L78044 38638
L78138 38638
L78213 38657
L78250 38676
L78269 38695
L78288 38732
L78288 38770
L78269 38807
L78250 38826
L78213 38845
L78138 38863
L78044 38863
L77969 38845
L77932 38826
L77913 38807
L77894 38770
" />
<path d="M78288 38470
L77894 38470
" />
<path d="M78138 38432
L78288 38320
" />
<path d="M78025 38320
L78175 38470
" />
<path d="M76957 36706
L76957 36969
" />
<path d="M76863 36556
L76769 36838
L77013 36838
" />
<path d="M77163 36931
L77182 36950
L77163 36969
L77144 36950
L77163 36931
L77163 36969
" />
<path d="M77313 36575
L77575 36575
L77407 36969
" />
<path d="M77725 36969
L77725 36575
" />
<path d="M77763 36819
L77875 36969
" />
<path d="M77875 36706
L77725 36856
" />
<path d="M66183 45683
L66183 45945
" />
<path d="M66090 45533
L65996 45814
L66240 45814
" />
<path d="M66352 45552
L66615 45552
L66446 45945
" />
<path d="M66840 45552
L66877 45552
L66915 45570
L66933 45589
L66952 45627
L66971 45702
L66971 45795
L66952 45870
L66933 45908
L66915 45927
L66877 45945
L66840 45945
L66802 45927
L66783 45908
L66765 45870
L66746 45795
L66746 45702
L66765 45627
L66783 45589
L66802 45570
L66840 45552
" />
<path d="M67308 45683
L67308 45945
" />
<path d="M67140 45683
L67140 45889
L67158 45927
L67196 45945
L67252 45945
L67290 45927
L67308 45908
" />
<path d="M67627 45739
L67496 45739
" />
<path d="M67496 45945
L67496 45552
L67683 45552
" />
<path d="M63623 29075
L63398 29075
" />
<path d="M63511 29075
L63511 28682
L63473 28738
L63436 28775
L63398 28794
" />
<path d="M63867 28682
L63905 28682
L63942 28700
L63961 28719
L63980 28757
L63998 28832
L63998 28925
L63980 29000
L63961 29038
L63942 29056
L63905 29075
L63867 29075
L63830 29056
L63811 29038
L63792 29000
L63773 28925
L63773 28832
L63792 28757
L63811 28719
L63830 28700
L63867 28682
" />
<path d="M64167 29075
L64167 28682
" />
<path d="M64205 28925
L64317 29075
" />
<path d="M64317 28813
L64167 28963
" />
<path d="M73407 46378
L73182 46378
" />
<path d="M73294 46378
L73294 45985
L73257 46041
L73219 46078
L73182 46097
" />
<path d="M73651 45985
L73688 45985
L73726 46003
L73744 46022
L73763 46060
L73782 46135
L73782 46228
L73763 46303
L73744 46341
L73726 46360
L73688 46378
L73651 46378
L73613 46360
L73594 46341
L73576 46303
L73557 46228
L73557 46135
L73576 46060
L73594 46022
L73613 46003
L73651 45985
" />
<path d="M73951 46378
L73951 45985
" />
<path d="M73988 46228
L74101 46378
" />
<path d="M74101 46116
L73951 46266
" />
<path d="M38717 29311
L38717 28918
" />
<path d="M38886 29311
L38886 29105
L38867 29068
L38830 29049
L38773 29049
L38736 29068
L38717 29086
" />
<path d="M39130 29311
L39092 29293
L39073 29274
L39055 29236
L39055 29124
L39073 29086
L39092 29068
L39130 29049
L39186 29049
L39223 29068
L39242 29086
L39261 29124
L39261 29236
L39242 29274
L39223 29293
L39186 29311
L39130 29311
" />
<path d="M39486 29311
L39448 29293
L39430 29255
L39430 28918
" />
<path d="M39786 29293
L39748 29311
L39673 29311
L39636 29293
L39617 29255
L39617 29105
L39636 29068
L39673 29049
L39748 29049
L39786 29068
L39805 29105
L39805 29143
L39617 29180
" />
<path d="M38717 45847
L38717 45453
" />
<path d="M38886 45847
L38886 45641
L38867 45603
L38830 45584
L38773 45584
L38736 45603
L38717 45622
" />
<path d="M39130 45847
L39092 45828
L39073 45809
L39055 45772
L39055 45659
L39073 45622
L39092 45603
L39130 45584
L39186 45584
L39223 45603
L39242 45622
L39261 45659
L39261 45772
L39242 45809
L39223 45828
L39186 45847
L39130 45847
" />
<path d="M39486 45847
L39448 45828
L39430 45791
L39430 45453
" />
<path d="M39786 45828
L39748 45847
L39673 45847
L39636 45828
L39617 45791
L39617 45641
L39636 45603
L39673 45584
L39748 45584
L39786 45603
L39805 45641
L39805 45678
L39617 45716
" />
<path d="M55233 29311
L55233 28918
" />
<path d="M55402 29311
L55402 29105
L55383 29068
L55345 29049
L55289 29049
L55252 29068
L55233 29086
" />
<path d="M55645 29311
L55608 29293
L55589 29274
L55570 29236
L55570 29124
L55589 29086
L55608 29068
L55645 29049
L55702 29049
L55739 29068
L55758 29086
L55777 29124
L55777 29236
L55758 29274
L55739 29293
L55702 29311
L55645 29311
" />
<path d="M56002 29311
L55964 29293
L55945 29255
L55945 28918
" />
<path d="M56302 29293
L56264 29311
L56189 29311
L56152 29293
L56133 29255
L56133 29105
L56152 29068
L56189 29049
L56264 29049
L56302 29068
L56320 29105
L56320 29143
L56133 29180
" />
<path d="M55253 45827
L55253 45434
" />
<path d="M55421 45827
L55421 45621
L55403 45583
L55365 45565
L55309 45565
L55271 45583
L55253 45602
" />
<path d="M55665 45827
L55628 45808
L55609 45790
L55590 45752
L55590 45640
L55609 45602
L55628 45583
L55665 45565
L55721 45565
L55759 45583
L55778 45602
L55796 45640
L55796 45752
L55778 45790
L55759 45808
L55721 45827
L55665 45827
" />
<path d="M56021 45827
L55984 45808
L55965 45771
L55965 45434
" />
<path d="M56321 45808
L56284 45827
L56209 45827
L56171 45808
L56152 45771
L56152 45621
L56171 45583
L56209 45565
L56284 45565
L56321 45583
L56340 45621
L56340 45658
L56152 45696
" />
<path d="M76886 29331
L76886 28937
" />
<path d="M77055 29331
L77055 29125
L77036 29087
L76999 29069
L76943 29069
L76905 29087
L76886 29106
" />
<path d="M77299 29331
L77261 29312
L77243 29294
L77224 29256
L77224 29144
L77243 29106
L77261 29087
L77299 29069
L77355 29069
L77393 29087
L77411 29106
L77430 29144
L77430 29256
L77411 29294
L77393 29312
L77355 29331
L77299 29331
" />
<path d="M77655 29331
L77618 29312
L77599 29275
L77599 28937
" />
<path d="M77955 29312
L77918 29331
L77843 29331
L77805 29312
L77786 29275
L77786 29125
L77805 29087
L77843 29069
L77918 29069
L77955 29087
L77974 29125
L77974 29162
L77786 29200
" />
<path d="M77103 46063
L77103 45670
" />
<path d="M77272 46063
L77272 45857
L77253 45820
L77215 45801
L77159 45801
L77122 45820
L77103 45838
" />
<path d="M77515 46063
L77478 46045
L77459 46026
L77440 45988
L77440 45876
L77459 45838
L77478 45820
L77515 45801
L77572 45801
L77609 45820
L77628 45838
L77647 45876
L77647 45988
L77628 46026
L77609 46045
L77572 46063
L77515 46063
" />
<path d="M77872 46063
L77834 46045
L77815 46007
L77815 45670
" />
<path d="M78172 46045
L78134 46063
L78059 46063
L78022 46045
L78003 46007
L78003 45857
L78022 45820
L78059 45801
L78134 45801
L78172 45820
L78190 45857
L78190 45895
L78003 45932
" />
<path d="M64037 46280
L63812 46280
" />
<path d="M63924 46280
L63924 45886
L63887 45943
L63849 45980
L63812 45999
" />
<path d="M64281 45886
L64318 45886
L64356 45905
L64374 45924
L64393 45961
L64412 46036
L64412 46130
L64393 46205
L64374 46242
L64356 46261
L64318 46280
L64281 46280
L64243 46261
L64224 46242
L64206 46205
L64187 46130
L64187 46036
L64206 45961
L64224 45924
L64243 45905
L64281 45886
" />
<path d="M64580 46280
L64580 45886
" />
<path d="M64618 46130
L64730 46280
" />
<path d="M64730 46017
L64580 46167
" />
<path d="M61569 44941
L61812 44941
L61681 45091
L61737 45091
L61775 45110
L61794 45129
L61812 45166
L61812 45260
L61794 45298
L61775 45316
L61737 45335
L61625 45335
L61587 45316
L61569 45298
" />
<path d="M61981 45335
L61981 44941
" />
<path d="M62019 45185
L62131 45335
" />
<path d="M62131 45073
L61981 45223
" />
<path d="M62262 44941
L62506 44941
L62375 45091
L62431 45091
L62469 45110
L62487 45129
L62506 45166
L62506 45260
L62487 45298
L62469 45316
L62431 45335
L62319 45335
L62281 45316
L62262 45298
" />
<path d="M59204 30192
L59222 30135
L59241 30117
L59279 30098
L59335 30098
L59372 30117
L59391 30135
L59410 30173
L59410 30323
L59016 30323
L59016 30192
L59035 30154
L59054 30135
L59091 30117
L59129 30117
L59166 30135
L59185 30154
L59204 30192
L59204 30323
" />
<path d="M59297 29948
L59297 29760
" />
<path d="M59410 29985
L59016 29854
L59410 29723
" />
<path d="M59016 29648
L59016 29423
" />
<path d="M59410 29535
L59016 29535
" />
<path d="M59453 33908
L59509 33927
L59528 33946
L59547 33983
L59547 34040
L59528 34077
L59509 34096
L59472 34115
L59322 34115
L59322 33721
L59453 33721
L59491 33740
L59509 33758
L59528 33796
L59528 33833
L59509 33871
L59491 33890
L59453 33908
L59322 33908
" />
<path d="M59697 34002
L59884 34002
" />
<path d="M59659 34115
L59790 33721
L59922 34115
" />
<path d="M59997 33721
L60222 33721
" />
<path d="M60109 34115
L60109 33721
" />
</g> 
</svg>
