<?xml version="1.0" standalone="no"?>
 <!DOCTYPE svg PUBLIC "-//W3C//DTD SVG 1.1//EN" 
 "http://www.w3.org/Graphics/SVG/1.1/DTD/svg11.dtd"> 
<svg xmlns="http://www.w3.org/2000/svg" version="1.1" 
    width="29.7002cm" height="21.0007cm" viewBox="0 0 116930 82680 ">
<title>SVG Picture created as proto_trapapoul2-B.Fab.svg date 2016/11/04 16:00:24 </title>
  <desc>Picture generated by PCBNEW </desc>
<g style="fill:#000000; fill-opacity:1;stroke:#000000; stroke-opacity:1;
stroke-linecap:round; stroke-linejoin:round; "
 transform="translate(0 0) scale(1 1)">
</g>
<g style="fill:#000000; fill-opacity:0.0; 
stroke:#000000; stroke-width:-0.000393701; stroke-opacity:1; 
stroke-linecap:round; stroke-linejoin:round;">
</g>
<g style="fill:#000000; fill-opacity:0.0; 
stroke:#000000; stroke-width:59.0551; stroke-opacity:1; 
stroke-linecap:round; stroke-linejoin:round;">
<path d="M62737 44291
L45020 44291
" />
<path d="M63130 37598
L63130 43897
" />
<path d="M45020 37204
L62737 37204
" />
<path d="M44626 43897
L44626 37598
" />
<path d="M63130.8 37598.4 A393.701 393.701 0.0 0 0 62737.1 37204.7 " />
<path d="M62737.1 44291.3 A393.701 393.701 0.0 0 0 63130.8 43897.6 " />
<path d="M44626.9 43897.6 A393.701 393.701 0.0 0 0 45020.6 44291.3 " />
<path d="M45020.6 37204.7 A393.701 393.701 0.0 0 0 44626.9 37598.4 " />
<circle cx="69823.7" cy="33681.1" r="1574.8" /> 
<path d="M79272.5 29330.7 A1574.8 1574.8 0.0 0 0 77697.7 27755.9 " />
<path d="M79272 45866
L79272 29330
" />
<path d="M77697.7 47440.9 A1574.8 1574.8 0.0 0 0 79272.5 45866.1 " />
<path d="M39508 47440
L77697 47440
" />
<path d="M37933 45866
L37933 29330
" />
<path d="M37933.9 45866.1 A1574.8 1574.8 0.0 0 0 39508.7 47440.9 " />
<path d="M39508.7 27755.9 A1574.8 1574.8 0.0 0 0 37933.9 29330.7 " />
<path d="M77697 27755
L39508 27755
" />
<path d="M78150 35905
L77520 35905
" />
<path d="M78150 34645
L78150 35905
" />
<path d="M77520 34645
L78150 34645
" />
<path d="M77520 35905
L77520 34645
" />
<path d="M76811 34507
L76811 35137
" />
<path d="M75552 34507
L76811 34507
" />
<path d="M75552 35137
L75552 34507
" />
<path d="M76811 35137
L75552 35137
" />
<path d="M76241 35334
L76241 35964
" />
<path d="M74981 35334
L76241 35334
" />
<path d="M74981 35964
L74981 35334
" />
<path d="M76241 35964
L74981 35964
" />
<path d="M73102 33997
L72877 33997
" />
<path d="M72990 33997
L72990 33603
L72952 33659
L72915 33697
L72877 33715
" />
<path d="M73346 33603
L73383 33603
L73421 33622
L73440 33640
L73458 33678
L73477 33753
L73477 33847
L73458 33922
L73440 33959
L73421 33978
L73383 33997
L73346 33997
L73308 33978
L73290 33959
L73271 33922
L73252 33847
L73252 33753
L73271 33678
L73290 33640
L73308 33622
L73346 33603
" />
<path d="M73815 33734
L73815 33997
" />
<path d="M73646 33734
L73646 33940
L73665 33978
L73702 33997
L73758 33997
L73796 33978
L73815 33959
" />
<path d="M74133 33790
L74002 33790
" />
<path d="M74002 33997
L74002 33603
L74190 33603
" />
<path d="M42421 40989
L42421 41233
L42271 41102
L42271 41158
L42252 41196
L42233 41214
L42196 41233
L42102 41233
L42064 41214
L42046 41196
L42027 41158
L42027 41046
L42046 41008
L42064 40989
" />
<path d="M42421 41364
L42421 41608
L42271 41477
L42271 41533
L42252 41571
L42233 41589
L42196 41608
L42102 41608
L42064 41589
L42046 41571
L42027 41533
L42027 41421
L42046 41383
L42064 41364
" />
<path d="M42421 41852
L42421 41889
L42402 41927
L42383 41946
L42346 41964
L42271 41983
L42177 41983
L42102 41964
L42064 41946
L42046 41927
L42027 41889
L42027 41852
L42046 41814
L42064 41796
L42102 41777
L42177 41758
L42271 41758
L42346 41777
L42383 41796
L42402 41814
L42421 41852
" />
<path d="M72149 42028
L71924 42028
" />
<path d="M72036 42028
L72036 41634
L71999 41691
L71961 41728
L71924 41747
" />
<path d="M72393 41634
L72430 41634
L72468 41653
L72486 41672
L72505 41709
L72524 41784
L72524 41878
L72505 41953
L72486 41991
L72468 42009
L72430 42028
L72393 42028
L72355 42009
L72336 41991
L72318 41953
L72299 41878
L72299 41784
L72318 41709
L72336 41672
L72355 41653
L72393 41634
" />
<path d="M72693 41766
L72693 42159
" />
<path d="M72693 41784
L72730 41766
L72805 41766
L72843 41784
L72861 41803
L72880 41841
L72880 41953
L72861 41991
L72843 42009
L72805 42028
L72730 42028
L72693 42009
" />
<path d="M69531 41989
L69306 41989
" />
<path d="M69418 41989
L69418 41595
L69381 41651
L69343 41689
L69306 41707
" />
<path d="M69774 41595
L69812 41595
L69849 41614
L69868 41632
L69887 41670
L69906 41745
L69906 41839
L69887 41914
L69868 41951
L69849 41970
L69812 41989
L69774 41989
L69737 41970
L69718 41951
L69699 41914
L69681 41839
L69681 41745
L69699 41670
L69718 41632
L69737 41614
L69774 41595
" />
<path d="M70074 41726
L70074 42120
" />
<path d="M70074 41745
L70112 41726
L70187 41726
L70224 41745
L70243 41764
L70262 41801
L70262 41914
L70243 41951
L70224 41970
L70187 41989
L70112 41989
L70074 41970
" />
<path d="M72680 43642
L72455 43642
" />
<path d="M72568 43642
L72568 43248
L72530 43305
L72493 43342
L72455 43361
" />
<path d="M72924 43248
L72962 43248
L72999 43267
L73018 43286
L73037 43323
L73055 43398
L73055 43492
L73037 43567
L73018 43605
L72999 43623
L72962 43642
L72924 43642
L72887 43623
L72868 43605
L72849 43567
L72830 43492
L72830 43398
L72849 43323
L72868 43286
L72887 43267
L72924 43248
" />
<path d="M73224 43380
L73224 43642
" />
<path d="M73224 43417
L73243 43398
L73280 43380
L73337 43380
L73374 43398
L73393 43436
L73393 43642
" />
<path d="M76696 37815
L76471 37815
" />
<path d="M76584 37815
L76584 37422
L76546 37478
L76509 37515
L76471 37534
" />
<path d="M76940 37422
L76977 37422
L77015 37440
L77034 37459
L77052 37497
L77071 37572
L77071 37665
L77052 37740
L77034 37778
L77015 37797
L76977 37815
L76940 37815
L76902 37797
L76884 37778
L76865 37740
L76846 37665
L76846 37572
L76865 37497
L76884 37459
L76902 37440
L76940 37422
" />
<path d="M77240 37553
L77240 37815
" />
<path d="M77240 37590
L77259 37572
L77296 37553
L77352 37553
L77390 37572
L77409 37609
L77409 37815
" />
<path d="M67696 42246
L67696 42021
" />
<path d="M67696 42134
L68090 42134
L68034 42096
L67996 42059
L67977 42021
" />
<path d="M68090 42490
L68090 42528
L68071 42565
L68052 42584
L68015 42603
L67940 42621
L67846 42621
L67771 42603
L67734 42584
L67715 42565
L67696 42528
L67696 42490
L67715 42453
L67734 42434
L67771 42415
L67846 42396
L67940 42396
L68015 42415
L68052 42434
L68071 42453
L68090 42490
" />
<path d="M67959 42790
L67696 42790
" />
<path d="M67921 42790
L67940 42809
L67959 42846
L67959 42903
L67940 42940
L67903 42959
L67696 42959
" />
<path d="M73389 34882
L73164 34882
" />
<path d="M73277 34882
L73277 34489
L73239 34545
L73202 34582
L73164 34601
" />
<path d="M73633 34489
L73670 34489
L73708 34507
L73726 34526
L73745 34564
L73764 34639
L73764 34732
L73745 34807
L73726 34845
L73708 34864
L73670 34882
L73633 34882
L73595 34864
L73576 34845
L73558 34807
L73539 34732
L73539 34639
L73558 34564
L73576 34526
L73595 34507
L73633 34489
" />
<path d="M73933 34620
L73933 34882
" />
<path d="M73933 34657
L73951 34639
L73989 34620
L74045 34620
L74083 34639
L74101 34676
L74101 34882
" />
<path d="M71747 29561
L71747 29823
" />
<path d="M71653 29411
L71559 29692
L71803 29692
" />
<path d="M71915 29430
L72178 29430
L72009 29823
" />
<path d="M72403 29430
L72440 29430
L72478 29448
L72497 29467
L72515 29505
L72534 29580
L72534 29673
L72515 29748
L72497 29786
L72478 29805
L72440 29823
L72403 29823
L72365 29805
L72347 29786
L72328 29748
L72309 29673
L72309 29580
L72328 29505
L72347 29467
L72365 29448
L72403 29430
" />
<path d="M72703 29561
L72703 29955
" />
<path d="M72703 29580
L72740 29561
L72815 29561
L72853 29580
L72872 29598
L72890 29636
L72890 29748
L72872 29786
L72853 29805
L72815 29823
L72740 29823
L72703 29805
" />
<path d="M72768 31083
L72543 31083
" />
<path d="M72655 31083
L72655 30689
L72618 30746
L72580 30783
L72543 30802
" />
<path d="M73011 30689
L73049 30689
L73086 30708
L73105 30727
L73124 30764
L73142 30839
L73142 30933
L73124 31008
L73105 31046
L73086 31064
L73049 31083
L73011 31083
L72974 31064
L72955 31046
L72936 31008
L72918 30933
L72918 30839
L72936 30764
L72955 30727
L72974 30708
L73011 30689
" />
<path d="M73480 30821
L73480 31083
" />
<path d="M73311 30821
L73311 31027
L73330 31064
L73367 31083
L73424 31083
L73461 31064
L73480 31046
" />
<path d="M73799 30877
L73667 30877
" />
<path d="M73667 31083
L73667 30689
L73855 30689
" />
<path d="M50885 45798
L50885 45573
" />
<path d="M50885 45686
L51279 45686
L51223 45648
L51185 45611
L51166 45573
" />
<path d="M51279 46042
L51279 46079
L51260 46117
L51241 46136
L51204 46154
L51129 46173
L51035 46173
L50960 46154
L50923 46136
L50904 46117
L50885 46079
L50885 46042
L50904 46004
L50923 45986
L50960 45967
L51035 45948
L51129 45948
L51204 45967
L51241 45986
L51260 46004
L51279 46042
" />
<path d="M51148 46511
L50885 46511
" />
<path d="M51148 46342
L50941 46342
L50904 46361
L50885 46398
L50885 46454
L50904 46492
L50923 46511
" />
<path d="M51091 46829
L51091 46698
" />
<path d="M50885 46698
L51279 46698
L51279 46886
" />
<path d="M52053 45722
L51791 45722
" />
<path d="M52203 45628
L51922 45535
L51922 45778
" />
<path d="M52184 45891
L52184 46153
L51791 45985
" />
<path d="M52184 46378
L52184 46416
L52166 46453
L52147 46472
L52109 46491
L52034 46510
L51941 46510
L51866 46491
L51828 46472
L51810 46453
L51791 46416
L51791 46378
L51810 46341
L51828 46322
L51866 46303
L51941 46285
L52034 46285
L52109 46303
L52147 46322
L52166 46341
L52184 46378
" />
<path d="M52053 46678
L51660 46678
" />
<path d="M52034 46678
L52053 46716
L52053 46791
L52034 46828
L52016 46847
L51978 46866
L51866 46866
L51828 46847
L51810 46828
L51791 46791
L51791 46716
L51810 46678
" />
<path d="M58307 45759
L58307 45534
" />
<path d="M58307 45646
L58700 45646
L58644 45609
L58606 45571
L58588 45534
" />
<path d="M58700 46002
L58700 46040
L58681 46077
L58663 46096
L58625 46115
L58550 46134
L58456 46134
L58382 46115
L58344 46096
L58325 46077
L58307 46040
L58307 46002
L58325 45965
L58344 45946
L58382 45928
L58456 45909
L58550 45909
L58625 45928
L58663 45946
L58681 45965
L58700 46002
" />
<path d="M58569 46471
L58307 46471
" />
<path d="M58569 46302
L58363 46302
L58325 46321
L58307 46359
L58307 46415
L58325 46452
L58344 46471
" />
<path d="M58513 46790
L58513 46659
" />
<path d="M58307 46659
L58700 46659
L58700 46846
" />
<path d="M42630 45808
L42405 45808
" />
<path d="M42517 45808
L42517 45414
L42480 45470
L42442 45508
L42405 45526
" />
<path d="M42873 45414
L42911 45414
L42948 45433
L42967 45451
L42986 45489
L43005 45564
L43005 45658
L42986 45733
L42967 45770
L42948 45789
L42911 45808
L42873 45808
L42836 45789
L42817 45770
L42798 45733
L42780 45658
L42780 45564
L42798 45489
L42817 45451
L42836 45433
L42873 45414
" />
<path d="M43342 45545
L43342 45808
" />
<path d="M43173 45545
L43173 45751
L43192 45789
L43230 45808
L43286 45808
L43323 45789
L43342 45770
" />
<path d="M43661 45601
L43530 45601
" />
<path d="M43530 45808
L43530 45414
L43717 45414
" />
<path d="M45152 45407
L45152 45670
" />
<path d="M45058 45257
L44965 45538
L45208 45538
" />
<path d="M45321 45276
L45583 45276
L45415 45670
" />
<path d="M45808 45276
L45846 45276
L45883 45295
L45902 45314
L45921 45351
L45940 45426
L45940 45520
L45921 45595
L45902 45632
L45883 45651
L45846 45670
L45808 45670
L45771 45651
L45752 45632
L45733 45595
L45715 45520
L45715 45426
L45733 45351
L45752 45314
L45771 45295
L45808 45276
" />
<path d="M46108 45407
L46108 45801
" />
<path d="M46108 45426
L46146 45407
L46221 45407
L46258 45426
L46277 45445
L46296 45482
L46296 45595
L46277 45632
L46258 45651
L46221 45670
L46146 45670
L46108 45651
" />
<path d="M48995 45641
L48995 45416
" />
<path d="M48995 45528
L49389 45528
L49333 45491
L49295 45453
L49277 45416
" />
<path d="M49389 45884
L49389 45922
L49370 45959
L49352 45978
L49314 45997
L49239 46016
L49145 46016
L49070 45997
L49033 45978
L49014 45959
L48995 45922
L48995 45884
L49014 45847
L49033 45828
L49070 45809
L49145 45791
L49239 45791
L49314 45809
L49352 45828
L49370 45847
L49389 45884
" />
<path d="M49258 46353
L48995 46353
" />
<path d="M49258 46184
L49052 46184
L49014 46203
L48995 46241
L48995 46297
L49014 46334
L49033 46353
" />
<path d="M49202 46672
L49202 46541
" />
<path d="M48995 46541
L49389 46541
L49389 46728
" />
<path d="M72421 39755
L72421 39530
" />
<path d="M72421 39642
L72814 39642
L72758 39605
L72721 39567
L72702 39530
" />
<path d="M72814 39999
L72814 40036
L72796 40074
L72777 40092
L72739 40111
L72664 40130
L72571 40130
L72496 40111
L72458 40092
L72439 40074
L72421 40036
L72421 39999
L72439 39961
L72458 39942
L72496 39924
L72571 39905
L72664 39905
L72739 39924
L72777 39942
L72796 39961
L72814 39999
" />
<path d="M72683 40467
L72421 40467
" />
<path d="M72683 40299
L72477 40299
L72439 40317
L72421 40355
L72421 40411
L72439 40449
L72458 40467
" />
<path d="M72627 40786
L72627 40655
" />
<path d="M72421 40655
L72814 40655
L72814 40842
" />
<path d="M42244 29177
L42071 29321
" />
<path d="M42158 29249
L41905 28947
L41912 29014
L41907 29067
L41891 29106
" />
<path d="M42177 28718
L42206 28694
L42247 28684
L42273 28687
L42312 28703
L42374 28749
L42435 28821
L42468 28890
L42478 28931
L42476 28957
L42459 28996
L42431 29020
L42390 29030
L42363 29027
L42325 29011
L42262 28965
L42202 28893
L42168 28824
L42158 28783
L42161 28757
L42177 28718
" />
<path d="M42492 28626
L42660 28827
" />
<path d="M42516 28655
L42518 28628
L42535 28590
L42578 28554
L42619 28544
L42657 28561
L42790 28719
" />
<path d="M47371 33331
L47212 33172
" />
<path d="M47292 33252
L47570 32973
L47504 32986
L47451 32986
L47411 32973
" />
<path d="M47822 33225
L47849 33252
L47862 33291
L47862 33318
L47849 33358
L47809 33424
L47743 33490
L47676 33530
L47637 33543
L47610 33543
L47570 33530
L47544 33503
L47531 33464
L47531 33437
L47544 33397
L47584 33331
L47650 33265
L47716 33225
L47756 33212
L47782 33212
L47822 33225
" />
<path d="M48061 33649
L47875 33835
" />
<path d="M47941 33530
L47796 33676
L47782 33716
L47796 33755
L47835 33795
L47875 33808
L47902 33808
" />
<path d="M48246 33914
L48154 33822
" />
<path d="M48008 33967
L48286 33689
L48419 33822
" />
<path d="M43203 29632
L43030 29776
" />
<path d="M43116 29704
L42863 29402
L42871 29470
L42866 29522
L42849 29561
" />
<path d="M43136 29173
L43165 29149
L43206 29140
L43232 29142
L43271 29159
L43333 29204
L43393 29276
L43427 29345
L43437 29386
L43435 29413
L43418 29451
L43389 29475
L43348 29485
L43322 29482
L43284 29466
L43221 29420
L43161 29349
L43127 29279
L43117 29238
L43120 29212
L43136 29173
" />
<path d="M43423 28932
L43452 28908
L43493 28899
L43519 28901
L43558 28918
L43620 28963
L43681 29035
L43714 29104
L43724 29145
L43722 29171
L43705 29210
L43676 29234
L43636 29244
L43609 29241
L43571 29225
L43508 29179
L43448 29108
L43414 29038
L43404 28997
L43407 28971
L43423 28932
" />
<path d="M43738 28840
L43906 29041
" />
<path d="M43762 28869
L43764 28842
L43781 28804
L43824 28768
L43864 28758
L43903 28775
L44036 28933
" />
<path d="M54223 45533
L54280 45552
L54373 45552
L54411 45533
L54430 45514
L54448 45477
L54448 45439
L54430 45402
L54411 45383
L54373 45364
L54298 45345
L54261 45327
L54242 45308
L54223 45270
L54223 45233
L54242 45195
L54261 45177
L54298 45158
L54392 45158
L54448 45177
" />
<path d="M54842 45514
L54823 45533
L54767 45552
L54729 45552
L54673 45533
L54636 45495
L54617 45458
L54598 45383
L54598 45327
L54617 45252
L54636 45214
L54673 45177
L54729 45158
L54767 45158
L54823 45177
L54842 45195
" />
<path d="M55011 45552
L55011 45158
" />
<path d="M55011 45345
L55236 45345
" />
<path d="M55236 45552
L55236 45158
" />
<path d="M55498 45158
L55573 45158
L55611 45177
L55648 45214
L55667 45289
L55667 45420
L55648 45495
L55611 45533
L55573 45552
L55498 45552
L55461 45533
L55423 45495
L55404 45420
L55404 45289
L55423 45214
L55461 45177
L55498 45158
" />
<path d="M55779 45158
L56004 45158
" />
<path d="M55892 45552
L55892 45158
" />
<path d="M56079 45158
L56304 45158
" />
<path d="M56192 45552
L56192 45158
" />
<path d="M56435 45552
L56435 45158
" />
<path d="M56660 45552
L56492 45327
" />
<path d="M56660 45158
L56435 45383
" />
<path d="M56904 45364
L56904 45552
" />
<path d="M56773 45158
L56904 45364
L57035 45158
" />
<path d="M70759 44667
L70815 44685
L70909 44685
L70946 44667
L70965 44648
L70984 44610
L70984 44573
L70965 44535
L70946 44517
L70909 44498
L70834 44479
L70796 44461
L70777 44442
L70759 44404
L70759 44367
L70777 44329
L70796 44311
L70834 44292
L70927 44292
L70984 44311
" />
<path d="M71377 44648
L71359 44667
L71302 44685
L71265 44685
L71209 44667
L71171 44629
L71152 44592
L71134 44517
L71134 44461
L71152 44386
L71171 44348
L71209 44311
L71265 44292
L71302 44292
L71359 44311
L71377 44329
" />
<path d="M71546 44685
L71546 44292
" />
<path d="M71546 44479
L71771 44479
" />
<path d="M71771 44685
L71771 44292
" />
<path d="M72034 44292
L72109 44292
L72146 44311
L72184 44348
L72202 44423
L72202 44554
L72184 44629
L72146 44667
L72109 44685
L72034 44685
L71996 44667
L71959 44629
L71940 44554
L71940 44423
L71959 44348
L71996 44311
L72034 44292
" />
<path d="M72315 44292
L72540 44292
" />
<path d="M72427 44685
L72427 44292
" />
<path d="M72615 44292
L72840 44292
" />
<path d="M72727 44685
L72727 44292
" />
<path d="M72971 44685
L72971 44292
" />
<path d="M73196 44685
L73027 44461
" />
<path d="M73196 44292
L72971 44517
" />
<path d="M73440 44498
L73440 44685
" />
<path d="M73308 44292
L73440 44498
L73571 44292
" />
<path d="M72574 36280
L72574 35886
" />
<path d="M72574 36074
L72799 36074
" />
<path d="M72799 36280
L72799 35886
" />
<path d="M72968 35924
L72987 35905
L73024 35886
L73118 35886
L73156 35905
L73174 35924
L73193 35961
L73193 35999
L73174 36055
L72949 36280
L73193 36280
" />
<path d="M69681 29823
L69681 29430
" />
<path d="M69681 29617
L69906 29617
" />
<path d="M69906 29823
L69906 29430
" />
<path d="M70074 29467
L70093 29448
L70131 29430
L70224 29430
L70262 29448
L70281 29467
L70299 29505
L70299 29542
L70281 29598
L70056 29823
L70299 29823
" />
<path d="M70291 43504
L70291 43111
" />
<path d="M70291 43298
L70516 43298
" />
<path d="M70516 43504
L70516 43111
" />
<path d="M70685 43148
L70703 43129
L70741 43111
L70835 43111
L70872 43129
L70891 43148
L70910 43186
L70910 43223
L70891 43279
L70666 43504
L70910 43504
" />
<path d="M40960 31989
L40960 31595
" />
<path d="M40960 31782
L41185 31782
" />
<path d="M41185 31989
L41185 31595
" />
<path d="M41541 31595
L41466 31595
L41429 31614
L41410 31632
L41373 31689
L41354 31764
L41354 31914
L41373 31951
L41391 31970
L41429 31989
L41504 31989
L41541 31970
L41560 31951
L41579 31914
L41579 31820
L41560 31782
L41541 31764
L41504 31745
L41429 31745
L41391 31764
L41373 31782
L41354 31820
" />
<path d="M51157 31969
L51157 31575
" />
<path d="M51157 31763
L51382 31763
" />
<path d="M51382 31969
L51382 31575
" />
<path d="M51738 31575
L51663 31575
L51626 31594
L51607 31613
L51570 31669
L51551 31744
L51551 31894
L51570 31931
L51588 31950
L51626 31969
L51701 31969
L51738 31950
L51757 31931
L51776 31894
L51776 31800
L51757 31763
L51738 31744
L51701 31725
L51626 31725
L51588 31744
L51570 31763
L51551 31800
" />
<path d="M41808 39154
L41808 38760
L42033 39154
L42033 38760
" />
<path d="M42220 39154
L42220 38760
L42370 38760
L42408 38779
L42426 38798
L42445 38835
L42445 38892
L42426 38929
L42408 38948
L42370 38967
L42220 38967
" />
<path d="M42614 39154
L42614 38760
L42839 39154
L42839 38760
" />
<path d="M43057 41575
L43057 41182
L43207 41182
L43245 41200
L43263 41219
L43282 41257
L43282 41313
L43263 41350
L43245 41369
L43207 41388
L43057 41388
" />
<path d="M43451 41575
L43451 41182
L43676 41575
L43676 41182
" />
<path d="M43863 41575
L43863 41182
L44013 41182
L44051 41200
L44070 41219
L44088 41257
L44088 41313
L44070 41350
L44051 41369
L44013 41388
L43863 41388
" />
<path d="M38914 40276
L38914 39882
L39139 40276
L39139 39882
" />
<path d="M39326 40276
L39326 39882
L39476 39882
L39514 39901
L39533 39920
L39551 39957
L39551 40014
L39533 40051
L39514 40070
L39476 40089
L39326 40089
" />
<path d="M39720 40276
L39720 39882
L39945 40276
L39945 39882
" />
<path d="M42618 42604
L43011 42604
L43011 42754
L42992 42791
L42974 42810
L42936 42829
L42880 42829
L42843 42810
L42824 42791
L42805 42754
L42805 42604
" />
<path d="M42618 42997
L43011 42997
L42618 43222
L43011 43222
" />
<path d="M42618 43410
L43011 43410
L43011 43560
L42992 43597
L42974 43616
L42936 43635
L42880 43635
L42843 43616
L42824 43597
L42805 43560
L42805 43410
" />
<path d="M67450 37485
L67291 37644
" />
<path d="M67371 37565
L67092 37286
L67105 37353
L67105 37406
L67092 37446
" />
<path d="M67344 37035
L67371 37008
L67410 36995
L67437 36995
L67477 37008
L67543 37048
L67609 37114
L67649 37180
L67662 37220
L67662 37247
L67649 37286
L67622 37313
L67583 37326
L67556 37326
L67516 37313
L67450 37273
L67384 37207
L67344 37141
L67331 37101
L67331 37074
L67344 37035
" />
<path d="M67834 37101
L67556 36822
" />
<path d="M67755 36968
L67941 36995
" />
<path d="M67755 36809
L67755 37021
" />
<path d="M74746 36674
L74521 36674
" />
<path d="M74634 36674
L74634 36280
L74596 36336
L74559 36374
L74521 36392
" />
<path d="M74990 36280
L75028 36280
L75065 36299
L75084 36317
L75103 36355
L75121 36430
L75121 36524
L75103 36599
L75084 36636
L75065 36655
L75028 36674
L74990 36674
L74953 36655
L74934 36636
L74915 36599
L74896 36524
L74896 36430
L74915 36355
L74934 36317
L74953 36299
L74990 36280
" />
<path d="M75290 36674
L75290 36280
" />
<path d="M75328 36524
L75440 36674
" />
<path d="M75440 36411
L75290 36561
" />
<path d="M67021 36964
L66862 37123
" />
<path d="M66941 37044
L66663 36766
L66676 36832
L66676 36885
L66663 36925
" />
<path d="M66915 36514
L66941 36487
L66981 36474
L67008 36474
L67047 36487
L67114 36527
L67180 36593
L67220 36659
L67233 36699
L67233 36726
L67220 36766
L67193 36792
L67153 36805
L67127 36805
L67087 36792
L67021 36752
L66954 36686
L66915 36620
L66901 36580
L66901 36553
L66915 36514
" />
<path d="M67405 36580
L67127 36302
" />
<path d="M67326 36447
L67511 36474
" />
<path d="M67326 36288
L67326 36500
" />
<path d="M68467 44489
L68242 44489
" />
<path d="M68354 44489
L68354 44095
L68317 44151
L68279 44189
L68242 44207
" />
<path d="M68711 44095
L68748 44095
L68786 44114
L68804 44132
L68823 44170
L68842 44245
L68842 44339
L68823 44414
L68804 44451
L68786 44470
L68748 44489
L68711 44489
L68673 44470
L68654 44451
L68636 44414
L68617 44339
L68617 44245
L68636 44170
L68654 44132
L68673 44114
L68711 44095
" />
<path d="M69010 44489
L69010 44095
" />
<path d="M69048 44339
L69160 44489
" />
<path d="M69160 44226
L69010 44376
" />
<path d="M65048 35171
L64889 35330
" />
<path d="M64969 35250
L64691 34972
L64704 35038
L64704 35091
L64691 35131
" />
<path d="M64942 34720
L64969 34693
L65009 34680
L65035 34680
L65075 34693
L65141 34733
L65208 34799
L65247 34866
L65261 34906
L65261 34932
L65247 34972
L65221 34998
L65181 35012
L65155 35012
L65115 34998
L65048 34959
L64982 34892
L64942 34826
L64929 34786
L64929 34760
L64942 34720
" />
<path d="M65433 34786
L65155 34508
" />
<path d="M65353 34654
L65539 34680
" />
<path d="M65353 34495
L65353 34707
" />
<path d="M55829 46575
L55604 46575
" />
<path d="M55717 46575
L55717 46182
L55679 46238
L55642 46275
L55604 46294
" />
<path d="M56073 46182
L56110 46182
L56148 46200
L56166 46219
L56185 46257
L56204 46332
L56204 46425
L56185 46500
L56166 46538
L56148 46556
L56110 46575
L56073 46575
L56035 46556
L56016 46538
L55998 46500
L55979 46425
L55979 46332
L55998 46257
L56016 46219
L56035 46200
L56073 46182
" />
<path d="M56373 46575
L56373 46182
" />
<path d="M56410 46425
L56523 46575
" />
<path d="M56523 46313
L56373 46463
" />
<path d="M47499 45887
L47499 45662
" />
<path d="M47499 45775
L47893 45775
L47837 45737
L47799 45700
L47781 45662
" />
<path d="M47893 46131
L47893 46168
L47874 46206
L47856 46225
L47818 46243
L47743 46262
L47649 46262
L47574 46243
L47537 46225
L47518 46206
L47499 46168
L47499 46131
L47518 46093
L47537 46075
L47574 46056
L47649 46037
L47743 46037
L47818 46056
L47856 46075
L47874 46093
L47893 46131
" />
<path d="M47499 46431
L47893 46431
" />
<path d="M47649 46468
L47499 46581
" />
<path d="M47762 46581
L47612 46431
" />
<path d="M45223 32173
L44960 32173
" />
<path d="M45373 32080
L45091 31986
L45091 32230
" />
<path d="M44998 32380
L44979 32398
L44960 32380
L44979 32361
L44998 32380
L44960 32380
" />
<path d="M45354 32529
L45354 32792
L44960 32623
" />
<path d="M44960 32942
L45354 32942
" />
<path d="M45110 32979
L44960 33092
" />
<path d="M45223 33092
L45073 32942
" />
<path d="M45962 33744
L45962 33519
" />
<path d="M45962 33631
L46355 33631
L46299 33594
L46262 33556
L46243 33519
" />
<path d="M46355 33988
L46355 34025
L46337 34063
L46318 34081
L46280 34100
L46205 34119
L46112 34119
L46037 34100
L45999 34081
L45980 34063
L45962 34025
L45962 33988
L45980 33950
L45999 33931
L46037 33913
L46112 33894
L46205 33894
L46280 33913
L46318 33931
L46337 33950
L46355 33988
" />
<path d="M45962 34288
L46355 34288
" />
<path d="M46112 34325
L45962 34438
" />
<path d="M46224 34438
L46074 34288
" />
<path d="M49387 29557
L49215 29702
" />
<path d="M49301 29629
L49048 29328
L49056 29395
L49051 29448
L49034 29486
" />
<path d="M49321 29099
L49350 29075
L49390 29065
L49417 29067
L49455 29084
L49518 29129
L49578 29201
L49612 29271
L49622 29311
L49619 29338
L49603 29376
L49574 29400
L49533 29410
L49507 29408
L49468 29391
L49406 29346
L49346 29274
L49312 29204
L49302 29164
L49304 29137
L49321 29099
" />
<path d="M49804 29208
L49551 28906
" />
<path d="M49736 29069
L49919 29111
" />
<path d="M49750 28910
L49732 29121
" />
<path d="M45075 29294
L45077 29268
L45094 29230
L45165 29169
L45206 29160
L45233 29162
L45271 29178
L45295 29207
L45317 29262
L45289 29579
L45476 29423
" />
<path d="M45581 29285
L45608 29288
L45605 29314
L45579 29312
L45581 29285
L45605 29314
" />
<path d="M45505 28933
L45508 28906
L45524 28868
L45596 28808
L45637 28798
L45663 28800
L45702 28817
L45726 28846
L45748 28901
L45720 29218
L45907 29061
" />
<path d="M46036 28953
L45783 28651
" />
<path d="M45968 28814
L46151 28856
" />
<path d="M45982 28655
L45964 28866
" />
<path d="M41097 37363
L41341 37363
L41210 37513
L41266 37513
L41303 37531
L41322 37550
L41341 37588
L41341 37681
L41322 37719
L41303 37738
L41266 37756
L41153 37756
L41116 37738
L41097 37719
" />
<path d="M41510 37756
L41510 37363
" />
<path d="M41547 37606
L41660 37756
" />
<path d="M41660 37494
L41510 37644
" />
<path d="M41791 37363
L42034 37363
L41903 37513
L41959 37513
L41997 37531
L42016 37550
L42034 37588
L42034 37681
L42016 37719
L41997 37738
L41959 37756
L41847 37756
L41810 37738
L41791 37719
" />
<path d="M43936 37859
L43936 38103
L43786 37972
L43786 38028
L43768 38066
L43749 38084
L43711 38103
L43618 38103
L43580 38084
L43561 38066
L43543 38028
L43543 37916
L43561 37878
L43580 37859
" />
<path d="M43936 38234
L43936 38478
L43786 38347
L43786 38403
L43768 38441
L43749 38459
L43711 38478
L43618 38478
L43580 38459
L43561 38441
L43543 38403
L43543 38291
L43561 38253
L43580 38234
" />
<path d="M43936 38722
L43936 38759
L43918 38797
L43899 38816
L43861 38834
L43786 38853
L43693 38853
L43618 38834
L43580 38816
L43561 38797
L43543 38759
L43543 38722
L43561 38684
L43580 38666
L43618 38647
L43693 38628
L43786 38628
L43861 38647
L43899 38666
L43918 38684
L43936 38722
" />
<path d="M39581 38347
L39825 38347
L39694 38497
L39750 38497
L39788 38516
L39806 38534
L39825 38572
L39825 38666
L39806 38703
L39788 38722
L39750 38741
L39638 38741
L39600 38722
L39581 38703
" />
<path d="M39994 38741
L39994 38347
" />
<path d="M40031 38591
L40144 38741
" />
<path d="M40144 38478
L39994 38628
" />
<path d="M40275 38347
L40519 38347
L40388 38497
L40444 38497
L40481 38516
L40500 38534
L40519 38572
L40519 38666
L40500 38703
L40481 38722
L40444 38741
L40331 38741
L40294 38722
L40275 38703
" />
<path d="M40321 36339
L40565 36339
L40433 36489
L40490 36489
L40527 36508
L40546 36526
L40565 36564
L40565 36658
L40546 36695
L40527 36714
L40490 36733
L40377 36733
L40340 36714
L40321 36695
" />
<path d="M40696 36339
L40940 36339
L40808 36489
L40865 36489
L40902 36508
L40921 36526
L40940 36564
L40940 36658
L40921 36695
L40902 36714
L40865 36733
L40752 36733
L40715 36714
L40696 36695
" />
<path d="M41183 36339
L41221 36339
L41258 36358
L41277 36377
L41296 36414
L41315 36489
L41315 36583
L41296 36658
L41277 36695
L41258 36714
L41221 36733
L41183 36733
L41146 36714
L41127 36695
L41108 36658
L41090 36583
L41090 36489
L41108 36414
L41127 36377
L41146 36358
L41183 36339
" />
<path d="M39671 41851
L39915 41851
L39784 42001
L39840 42001
L39878 42020
L39896 42038
L39915 42076
L39915 42170
L39896 42207
L39878 42226
L39840 42245
L39728 42245
L39690 42226
L39671 42207
" />
<path d="M40046 41851
L40290 41851
L40159 42001
L40215 42001
L40253 42020
L40271 42038
L40290 42076
L40290 42170
L40271 42207
L40253 42226
L40215 42245
L40103 42245
L40065 42226
L40046 42207
" />
<path d="M40534 41851
L40571 41851
L40609 41870
L40627 41888
L40646 41926
L40665 42001
L40665 42095
L40646 42170
L40627 42207
L40609 42226
L40571 42245
L40534 42245
L40496 42226
L40477 42207
L40459 42170
L40440 42095
L40440 42001
L40459 41926
L40477 41888
L40496 41870
L40534 41851
" />
<path d="M43182 33721
L42957 33721
" />
<path d="M43069 33721
L43069 33327
L43032 33383
L42994 33421
L42957 33440
" />
<path d="M43351 33721
L43351 33327
" />
<path d="M43388 33571
L43501 33721
" />
<path d="M43501 33458
L43351 33608
" />
<path d="M38849 37422
L38887 37422
L38924 37440
L38943 37459
L38962 37497
L38980 37572
L38980 37665
L38962 37740
L38943 37778
L38924 37797
L38887 37815
L38849 37815
L38812 37797
L38793 37778
L38774 37740
L38756 37665
L38756 37572
L38774 37497
L38793 37459
L38812 37440
L38849 37422
" />
<path d="M39374 37815
L39243 37628
" />
<path d="M39149 37815
L39149 37422
L39299 37422
L39337 37440
L39355 37459
L39374 37497
L39374 37553
L39355 37590
L39337 37609
L39299 37628
L39149 37628
" />
<path d="M39524 37459
L39543 37440
L39580 37422
L39674 37422
L39712 37440
L39730 37459
L39749 37497
L39749 37534
L39730 37590
L39505 37815
L39749 37815
" />
<path d="M70712 38780
L70487 38780
" />
<path d="M70599 38780
L70599 38386
L70562 38443
L70524 38480
L70487 38499
" />
<path d="M70843 38386
L71087 38386
L70956 38536
L71012 38536
L71049 38555
L71068 38574
L71087 38611
L71087 38705
L71068 38742
L71049 38761
L71012 38780
L70899 38780
L70862 38761
L70843 38742
" />
<path d="M71218 38386
L71462 38386
L71331 38536
L71387 38536
L71424 38555
L71443 38574
L71462 38611
L71462 38705
L71443 38742
L71424 38761
L71387 38780
L71274 38780
L71237 38761
L71218 38742
" />
<path d="M71593 38386
L71855 38386
L71687 38780
" />
<path d="M72957 31654
L72769 31654
L72751 31841
L72769 31823
L72807 31804
L72901 31804
L72938 31823
L72957 31841
L72976 31879
L72976 31973
L72957 32010
L72938 32029
L72901 32048
L72807 32048
L72769 32029
L72751 32010
" />
<path d="M73126 31691
L73144 31673
L73182 31654
L73276 31654
L73313 31673
L73332 31691
L73351 31729
L73351 31766
L73332 31823
L73107 32048
L73351 32048
" />
<path d="M73594 31654
L73632 31654
L73669 31673
L73688 31691
L73707 31729
L73726 31804
L73726 31898
L73707 31973
L73688 32010
L73669 32029
L73632 32048
L73594 32048
L73557 32029
L73538 32010
L73519 31973
L73501 31898
L73501 31804
L73519 31729
L73538 31691
L73557 31673
L73594 31654
" />
<path d="M74082 31654
L73894 31654
L73876 31841
L73894 31823
L73932 31804
L74025 31804
L74063 31823
L74082 31841
L74100 31879
L74100 31973
L74082 32010
L74063 32029
L74025 32048
L73932 32048
L73894 32029
L73876 32010
" />
<path d="M53523 46106
L53523 45918
L53336 45899
L53354 45918
L53373 45956
L53373 46049
L53354 46087
L53336 46106
L53298 46124
L53204 46124
L53167 46106
L53148 46087
L53129 46049
L53129 45956
L53148 45918
L53167 45899
" />
<path d="M53486 46274
L53504 46293
L53523 46331
L53523 46424
L53504 46462
L53486 46481
L53448 46499
L53411 46499
L53354 46481
L53129 46256
L53129 46499
" />
<path d="M53523 46743
L53523 46781
L53504 46818
L53486 46837
L53448 46856
L53373 46874
L53279 46874
L53204 46856
L53167 46837
L53148 46818
L53129 46781
L53129 46743
L53148 46706
L53167 46687
L53204 46668
L53279 46649
L53373 46649
L53448 46668
L53486 46687
L53504 46706
L53523 46743
" />
<path d="M53523 47230
L53523 47043
L53336 47024
L53354 47043
L53373 47080
L53373 47174
L53354 47212
L53336 47230
L53298 47249
L53204 47249
L53167 47230
L53148 47212
L53129 47174
L53129 47080
L53148 47043
L53167 47024
" />
<path d="M45531 46125
L45531 45938
L45343 45919
L45362 45938
L45381 45975
L45381 46069
L45362 46107
L45343 46125
L45306 46144
L45212 46144
L45175 46125
L45156 46107
L45137 46069
L45137 45975
L45156 45938
L45175 45919
" />
<path d="M45493 46294
L45512 46313
L45531 46350
L45531 46444
L45512 46482
L45493 46500
L45456 46519
L45418 46519
L45362 46500
L45137 46275
L45137 46519
" />
<path d="M45531 46763
L45531 46800
L45512 46838
L45493 46856
L45456 46875
L45381 46894
L45287 46894
L45212 46875
L45175 46856
L45156 46838
L45137 46800
L45137 46763
L45156 46725
L45175 46706
L45212 46688
L45287 46669
L45381 46669
L45456 46688
L45493 46706
L45512 46725
L45531 46763
" />
<path d="M45531 47250
L45531 47063
L45343 47044
L45362 47063
L45381 47100
L45381 47194
L45362 47231
L45343 47250
L45306 47269
L45212 47269
L45175 47250
L45156 47231
L45137 47194
L45137 47100
L45156 47063
L45175 47044
" />
<path d="M69380 40650
L69624 40650
L69492 40800
L69549 40800
L69586 40819
L69605 40838
L69624 40875
L69624 40969
L69605 41006
L69586 41025
L69549 41044
L69436 41044
L69399 41025
L69380 41006
" />
<path d="M69774 40688
L69792 40669
L69830 40650
L69924 40650
L69961 40669
L69980 40688
L69998 40725
L69998 40763
L69980 40819
L69755 41044
L69998 41044
" />
<path d="M70167 41006
L70186 41025
L70167 41044
L70148 41025
L70167 41006
L70167 41044
" />
<path d="M70317 40650
L70580 40650
L70411 41044
" />
<path d="M70898 40650
L70823 40650
L70786 40669
L70767 40688
L70730 40744
L70711 40819
L70711 40969
L70730 41006
L70748 41025
L70786 41044
L70861 41044
L70898 41025
L70917 41006
L70936 40969
L70936 40875
L70917 40838
L70898 40819
L70861 40800
L70786 40800
L70748 40819
L70730 40838
L70711 40875
" />
<path d="M71161 40819
L71123 40800
L71105 40781
L71086 40744
L71086 40725
L71105 40688
L71123 40669
L71161 40650
L71236 40650
L71273 40669
L71292 40688
L71311 40725
L71311 40744
L71292 40781
L71273 40800
L71236 40819
L71161 40819
L71123 40838
L71105 40856
L71086 40894
L71086 40969
L71105 41006
L71123 41025
L71161 41044
L71236 41044
L71273 41025
L71292 41006
L71311 40969
L71311 40894
L71292 40856
L71273 40838
L71236 40819
" />
<path d="M71480 41044
L71480 40650
" />
<path d="M71705 41044
L71536 40819
" />
<path d="M71705 40650
L71480 40875
" />
<path d="M65842 36367
L65842 36340
L65855 36301
L65921 36234
L65961 36221
L65987 36221
L66027 36234
L66054 36261
L66080 36314
L66080 36632
L66253 36460
" />
<path d="M66345 36314
L66372 36314
L66372 36340
L66345 36340
L66345 36314
L66372 36340
" />
<path d="M66239 35969
L66239 35943
L66253 35903
L66319 35837
L66359 35823
L66385 35823
L66425 35837
L66451 35863
L66478 35916
L66478 36234
L66650 36062
" />
<path d="M66770 35943
L66491 35664
" />
<path d="M66690 35810
L66876 35837
" />
<path d="M66690 35651
L66690 35863
" />
<path d="M65204 35776
L65204 35750
L65217 35710
L65283 35644
L65323 35631
L65349 35631
L65389 35644
L65416 35670
L65442 35723
L65442 36042
L65615 35869
" />
<path d="M65707 35723
L65734 35723
L65734 35750
L65707 35750
L65707 35723
L65734 35750
" />
<path d="M65601 35379
L65601 35352
L65615 35312
L65681 35246
L65721 35233
L65747 35233
L65787 35246
L65813 35273
L65840 35326
L65840 35644
L66012 35472
" />
<path d="M66132 35352
L65853 35074
" />
<path d="M66052 35220
L66238 35246
" />
<path d="M66052 35061
L66052 35273
" />
<path d="M74937 38524
L74937 38130
" />
<path d="M74937 38318
L75162 38318
" />
<path d="M75162 38524
L75162 38130
" />
<path d="M75518 38262
L75518 38524
" />
<path d="M75424 38112
L75330 38393
L75574 38393
" />
<path d="M77677 34943
L77677 34718
" />
<path d="M77677 34831
L78070 34831
L78014 34793
L77977 34756
L77958 34718
" />
<path d="M78070 35187
L78070 35224
L78052 35262
L78033 35281
L77995 35299
L77920 35318
L77827 35318
L77752 35299
L77714 35281
L77695 35262
L77677 35224
L77677 35187
L77695 35149
L77714 35131
L77752 35112
L77827 35093
L77920 35093
L77995 35112
L78033 35131
L78052 35149
L78070 35187
" />
<path d="M77939 35487
L77677 35487
" />
<path d="M77902 35487
L77920 35506
L77939 35543
L77939 35599
L77920 35637
L77883 35656
L77677 35656
" />
<path d="M75612 34961
L75387 34961
" />
<path d="M75499 34961
L75499 34567
L75462 34624
L75424 34661
L75387 34680
" />
<path d="M75855 34567
L75893 34567
L75930 34586
L75949 34605
L75968 34642
L75986 34717
L75986 34811
L75968 34886
L75949 34924
L75930 34942
L75893 34961
L75855 34961
L75818 34942
L75799 34924
L75780 34886
L75762 34811
L75762 34717
L75780 34642
L75799 34605
L75818 34586
L75855 34567
" />
<path d="M76230 34567
L76268 34567
L76305 34586
L76324 34605
L76343 34642
L76361 34717
L76361 34811
L76343 34886
L76324 34924
L76305 34942
L76268 34961
L76230 34961
L76193 34942
L76174 34924
L76155 34886
L76136 34811
L76136 34717
L76155 34642
L76174 34605
L76193 34586
L76230 34567
" />
<path d="M76530 34699
L76530 34961
" />
<path d="M76530 34736
L76549 34717
L76586 34699
L76643 34699
L76680 34717
L76699 34755
L76699 34961
" />
<path d="M77018 34755
L76886 34755
" />
<path d="M76886 34961
L76886 34567
L77074 34567
" />
<path d="M75208 35827
L74983 35827
" />
<path d="M75096 35827
L75096 35434
L75058 35490
L75021 35527
L74983 35546
" />
<path d="M75452 35434
L75490 35434
L75527 35452
L75546 35471
L75565 35508
L75583 35583
L75583 35677
L75565 35752
L75546 35790
L75527 35808
L75490 35827
L75452 35827
L75415 35808
L75396 35790
L75377 35752
L75358 35677
L75358 35583
L75377 35508
L75396 35471
L75415 35452
L75452 35434
" />
<path d="M75921 35565
L75921 35827
" />
<path d="M75752 35565
L75752 35771
L75771 35808
L75808 35827
L75865 35827
L75902 35808
L75921 35790
" />
<path d="M76240 35621
L76108 35621
" />
<path d="M76108 35827
L76108 35434
L76296 35434
" />
</g> 
</svg>
