M48
METRIC,LZ
T1C0.500
T2C0.599
T3C0.600
T4C0.800
T5C0.813
T6C0.998
T7C1.001
T8C1.016
T9C1.199
T10C3.000
T11C8.000
%
G90
G05
T1
X10985Y-0903
X1139Y-0736
X11505Y-1085
X1201Y-09885
X12115Y-11565
X1213Y-09725
X12215Y-11
X1277Y-0861
X1291Y-08315
X13005Y-1063
X1301Y-0956
X1315Y-10695
X13175Y-08555
X1321Y-0824
X1478Y-0817
X14865Y-08025
X1505Y-11415
X1561Y-07805
X1569Y-08945
X16305Y-11565
X16355Y-08265
X16675Y-08435
X16815Y-07215
X17175Y-08865
X1737Y-1155
X17395Y-11865
X17475Y-11415
X17535Y-0801
X17675Y-08
X18435Y-09555
X1874Y-0883
X18805Y-09085
X1908Y-08715
X1909Y-11955
X1912Y-0849
X1914Y-1139
X1952Y-0899
X19855Y-1093
X2001Y-099
T2
X117001Y-1037
X118499Y-1037
T3
X12871Y-1085
X12871Y-11095
X12998Y-1085
X12998Y-11095
X13125Y-1085
X13125Y-11095
T4
X1173Y-11515
X1173Y-11765
X14925Y-0857
X1506Y-116
X1506Y-1185
X1517Y-07315
X1517Y-07815
X15425Y-0857
X15765Y-08475
X16175Y-11425
X1678Y-08545
X1697Y-1159
X1697Y-1184
X18575Y-0887
T5
X15985Y-07375
X16239Y-07375
X16493Y-07375
X18435Y-11785
X18689Y-11785
X18943Y-11785
T6
X1087Y-09719
X1087Y-09973
X1087Y-10227
X16122Y-07743
X16376Y-07743
X1663Y-07743
X16884Y-07743
X17138Y-07743
X17392Y-07743
X17646Y-07743
T7
X16005Y-08095
X16122Y-09267
X16259Y-08095
X16376Y-09267
X16513Y-08095
X1663Y-09267
X16767Y-08095
X16884Y-09267
X17021Y-08095
X17138Y-09267
X17392Y-09267
X17646Y-09267
X179Y-07743
X179Y-09267
X18154Y-07743
X18154Y-09267
X18408Y-07743
X18408Y-09267
X18545Y-081
X18662Y-07743
X18662Y-09267
X18799Y-081
X18916Y-07743
X18916Y-09267
X19053Y-081
X1917Y-07743
X19307Y-081
X19561Y-081
T8
X1087Y-09465
X11155Y-0918
X11155Y-09434
X11751Y-11015
X1191Y-07535
X12005Y-11015
X12164Y-07535
X17275Y-08095
X1746Y-0731
X17714Y-0731
X19295Y-10136
X19295Y-1039
X19815Y-081
T9
X193111Y-086851
X19815Y-084351
X19815Y-08935
T10
X0997Y-0745
X0997Y-0745
X0997Y-1165
X0997Y-1165
X14165Y-0745
X14165Y-0745
X1417Y-11645
X1417Y-11645
X19665Y-07455
X19665Y-07455
X1967Y-1165
X1967Y-1165
T11
X11965Y-0855
T0
M30
