<?xml version="1.0" standalone="no"?>
 <!DOCTYPE svg PUBLIC "-//W3C//DTD SVG 1.1//EN" 
 "http://www.w3.org/Graphics/SVG/1.1/DTD/svg11.dtd"> 
<svg xmlns="http://www.w3.org/2000/svg" version="1.1" 
    width="29.7002cm" height="21.0007cm" viewBox="0 0 116930 82680 ">
<title>SVG Picture created as proto_trapapoul2-F.CrtYd.svg date 2016/11/04 16:00:11 </title>
  <desc>Picture generated by PCBNEW </desc>
<g style="fill:#000000; fill-opacity:1;stroke:#000000; stroke-opacity:1;
stroke-linecap:round; stroke-linejoin:round; "
 transform="translate(0 0) scale(1 1)">
</g>
<g style="fill:#000000; fill-opacity:0.0; 
stroke:#000000; stroke-width:-0.000393701; stroke-opacity:1; 
stroke-linecap:round; stroke-linejoin:round;">
</g>
<g style="fill:#000000; fill-opacity:0.0; 
stroke:#000000; stroke-width:59.0551; stroke-opacity:1; 
stroke-linecap:round; stroke-linejoin:round;">
<path d="M54192 44291
L71909 44291
" />
<path d="M53799 37598
L53799 43897
" />
<path d="M71909 37204
L54192 37204
" />
<path d="M72303 43897
L72303 37598
" />
<path d="M54192.9 37204.7 A393.701 393.701 0.0 0 0 53799.2 37598.4 " />
<path d="M53799.2 43897.6 A393.701 393.701 0.0 0 0 54192.9 44291.3 " />
<path d="M71909.4 44291.3 A393.701 393.701 0.0 0 0 72303.1 43897.6 " />
<path d="M72303.1 37598.4 A393.701 393.701 0.0 0 0 71909.4 37204.7 " />
<circle cx="47106.3" cy="33681.1" r="1574.8" /> 
<path d="M39232.3 27755.9 A1574.8 1574.8 0.0 0 0 37657.5 29330.7 " />
<path d="M37657 45866
L37657 29330
" />
<path d="M37657.5 45866.1 A1574.8 1574.8 0.0 0 0 39232.3 47440.9 " />
<path d="M77421 47440
L39232 47440
" />
<path d="M78996 45866
L78996 29330
" />
<path d="M77421.3 47440.9 A1574.8 1574.8 0.0 0 0 78996.1 45866.1 " />
<path d="M78996.1 29330.7 A1574.8 1574.8 0.0 0 0 77421.3 27755.9 " />
<path d="M39232 27755
L77421 27755
" />
</g>
<g style="fill:#000000; fill-opacity:0.0; 
stroke:#000000; stroke-width:19.685; stroke-opacity:1; 
stroke-linecap:round; stroke-linejoin:round;">
<path d="M51043 30590
L51043 27992
" />
<path d="M51948 30590
L51948 27992
" />
<path d="M51043 30590
L51948 30590
" />
<path d="M51043 27992
L51948 27992
" />
<path d="M52244 44744
L52244 47342
" />
<path d="M51338 44744
L51338 47342
" />
<path d="M52244 44744
L51338 44744
" />
<path d="M52244 47342
L51338 47342
" />
<path d="M49133 47342
L49133 44744
" />
<path d="M50039 47342
L50039 44744
" />
<path d="M49133 47342
L50039 47342
" />
<path d="M49133 44744
L50039 44744
" />
<path d="M75039 43208
L75039 45807
" />
<path d="M74133 43208
L74133 45807
" />
<path d="M75039 43208
L74133 43208
" />
<path d="M75039 45807
L74133 45807
" />
<path d="M69842 30866
L72440 30866
" />
<path d="M69842 31771
L72440 31771
" />
<path d="M69842 30866
L69842 31771
" />
<path d="M72440 30866
L72440 31771
" />
<path d="M68051 29468
L70433 29468
" />
<path d="M68051 28090
L70433 28090
" />
<path d="M68051 29468
L68051 28090
" />
<path d="M70433 29468
L70433 28090
" />
<path d="M76653 41594
L76653 39212
" />
<path d="M75275 41594
L75275 39212
" />
<path d="M76653 41594
L75275 41594
" />
<path d="M76653 39212
L75275 39212
" />
<path d="M51181 44192
L51181 46791
" />
<path d="M50236 44192
L50236 46791
" />
<path d="M51181 44192
L50236 44192
" />
<path d="M51181 46791
L50236 46791
" />
<path d="M48070 46811
L48070 44212
" />
<path d="M49015 46811
L49015 44212
" />
<path d="M48070 46811
L49015 46811
" />
<path d="M48070 44212
L49015 44212
" />
<path d="M73740 38267
L76338 38267
" />
<path d="M73740 39212
L76338 39212
" />
<path d="M73740 38267
L73740 39212
" />
<path d="M76338 38267
L76338 39212
" />
<path d="M74251 41574
L76850 41574
" />
<path d="M74251 42519
L76850 42519
" />
<path d="M74251 41574
L74251 42519
" />
<path d="M76850 41574
L76850 42519
" />
<path d="M76948 44212
L76948 41614
" />
<path d="M77893 44212
L77893 41614
" />
<path d="M76948 44212
L77893 44212
" />
<path d="M76948 41614
L77893 41614
" />
<path d="M76456 40255
L79055 40255
" />
<path d="M76456 41200
L79055 41200
" />
<path d="M76456 40255
L76456 41200
" />
<path d="M79055 40255
L79055 41200
" />
<path d="M72972 29192
L70374 29192
" />
<path d="M72972 28248
L70374 28248
" />
<path d="M72972 29192
L72972 28248
" />
<path d="M70374 29192
L70374 28248
" />
<path d="M52224 42913
L52224 44724
" />
<path d="M52224 42913
L50118 42913
" />
<path d="M52224 44724
L50118 44724
" />
<path d="M50118 42913
L50118 44724
" />
<path d="M52224 41948
L52224 43759
" />
<path d="M52224 41948
L50118 41948
" />
<path d="M52224 43759
L50118 43759
" />
<path d="M50118 41948
L50118 43759
" />
<path d="M76377 44448
L75039 44448
" />
<path d="M76377 42559
L76377 44448
" />
<path d="M75039 42559
L76377 42559
" />
<path d="M75039 44448
L75039 42559
" />
<circle cx="59291.3" cy="46161.4" r="1338.58" /> 
<circle cx="46181.1" cy="45826.8" r="1338.58" /> 
<path d="M78661 37500
L78661 40098
" />
<path d="M77716 37500
L77716 40098
" />
<path d="M78661 37500
L77716 37500
" />
<path d="M78661 40098
L77716 40098
" />
<path d="M76003 36397
L78602 36397
" />
<path d="M76003 37342
L78602 37342
" />
<path d="M76003 36397
L76003 37342
" />
<path d="M78602 36397
L78602 37342
" />
<circle cx="66811" cy="46122" r="1338.58" /> 
<path d="M62913 45610
L65511 45610
" />
<path d="M62913 46555
L65511 46555
" />
<path d="M62913 45610
L62913 46555
" />
<path d="M65511 45610
L65511 46555
" />
<path d="M60688 44665
L63287 44665
" />
<path d="M60688 45610
L63287 45610
" />
<path d="M60688 44665
L60688 45610
" />
<path d="M63287 44665
L63287 45610
" />
</g> 
</svg>
