<?xml version="1.0" encoding="UTF-8" standalone="no"?>
<svg
   xmlns:dc="http://purl.org/dc/elements/1.1/"
   xmlns:cc="http://creativecommons.org/ns#"
   xmlns:rdf="http://www.w3.org/1999/02/22-rdf-syntax-ns#"
   xmlns:svg="http://www.w3.org/2000/svg"
   xmlns="http://www.w3.org/2000/svg"
   xmlns:sodipodi="http://sodipodi.sourceforge.net/DTD/sodipodi-0.dtd"
   xmlns:inkscape="http://www.inkscape.org/namespaces/inkscape"
   version="1.1"
   width="29.7002cm"
   height="21.0007cm"
   viewBox="0 0 116930 82680 "
   id="svg2"
   inkscape:version="0.91 r13725"
   sodipodi:docname="proto_trapapoul2-Fcombo.svg">
  <metadata
     id="metadata228">
    <rdf:RDF>
      <cc:Work
         rdf:about="">
        <dc:format>image/svg+xml</dc:format>
        <dc:type
           rdf:resource="http://purl.org/dc/dcmitype/StillImage" />
        <dc:title>SVG Picture created as proto_trapapoul2-F.CrtYd.svg date 2016/11/04 15:26:58 </dc:title>
      </cc:Work>
    </rdf:RDF>
  </metadata>
  <defs
     id="defs226" />
  <sodipodi:namedview
     pagecolor="#ffffff"
     bordercolor="#666666"
     borderopacity="1"
     objecttolerance="10"
     gridtolerance="10"
     guidetolerance="10"
     inkscape:pageopacity="0"
     inkscape:pageshadow="2"
     inkscape:window-width="1304"
     inkscape:window-height="746"
     id="namedview224"
     showgrid="false"
     inkscape:zoom="0.31715345"
     inkscape:cx="526.18463"
     inkscape:cy="498.18156"
     inkscape:window-x="54"
     inkscape:window-y="-8"
     inkscape:window-maximized="1"
     inkscape:current-layer="svg2" />
  <title
     id="title4">SVG Picture created as proto_trapapoul2-F.CrtYd.svg date 2016/11/04 15:26:58 </title>
  <desc
     id="desc6">Picture generated by PCBNEW </desc>
  <g
     style="fill:#000000; fill-opacity:1;stroke:#000000; stroke-opacity:1; stroke-linecap:round; stroke-linejoin:round; "
     transform="translate(0 0) scale(1 1)"
     id="g8" />
  <g
     style="fill:#000000; fill-opacity:0.0;  stroke:#000000; stroke-width:-0.000393701; stroke-opacity:1;  stroke-linecap:round; stroke-linejoin:round;"
     id="g10" />
  <g
     style="fill:#000000; fill-opacity:0.0;  stroke:#000000; stroke-width:59.0551; stroke-opacity:1;  stroke-linecap:round; stroke-linejoin:round;"
     id="g12">
    <path
       d="M54192 44291 L71909 44291 "
       id="path14" />
    <path
       d="M53799 37598 L53799 43897 "
       id="path16" />
    <path
       d="M71909 37204 L54192 37204 "
       id="path18" />
    <path
       d="M72303 43897 L72303 37598 "
       id="path20" />
    <path
       d="M54192.9 37204.7 A393.701 393.701 0.0 0 0 53799.2 37598.4 "
       id="path22" />
    <path
       d="M53799.2 43897.6 A393.701 393.701 0.0 0 0 54192.9 44291.3 "
       id="path24" />
    <path
       d="M71909.4 44291.3 A393.701 393.701 0.0 0 0 72303.1 43897.6 "
       id="path26" />
    <path
       d="M72303.1 37598.4 A393.701 393.701 0.0 0 0 71909.4 37204.7 "
       id="path28" />
    <circle
       cx="47106.3"
       cy="33681.1"
       r="1574.8"
       id="circle30" />
    <path
       d="M39232.3 27755.9 A1574.8 1574.8 0.0 0 0 37657.5 29330.7 "
       id="path32" />
    <path
       d="M37657 45866 L37657 29330 "
       id="path34" />
    <path
       d="M37657.5 45866.1 A1574.8 1574.8 0.0 0 0 39232.3 47440.9 "
       id="path36" />
    <path
       d="M77421 47440 L39232 47440 "
       id="path38" />
    <path
       d="M78996 45866 L78996 29330 "
       id="path40" />
    <path
       d="M77421.3 47440.9 A1574.8 1574.8 0.0 0 0 78996.1 45866.1 "
       id="path42" />
    <path
       d="M78996.1 29330.7 A1574.8 1574.8 0.0 0 0 77421.3 27755.9 "
       id="path44" />
    <path
       d="M39232 27755 L77421 27755 "
       id="path46" />
  </g>
  <g
     style="fill:#000000; fill-opacity:0.0;  stroke:#000000; stroke-width:19.685; stroke-opacity:1;  stroke-linecap:round; stroke-linejoin:round;"
     id="g48">
    <path
       d="M51043 30590 L51043 27992 "
       id="path50" />
    <path
       d="M51948 30590 L51948 27992 "
       id="path52" />
    <path
       d="M51043 30590 L51948 30590 "
       id="path54" />
    <path
       d="M51043 27992 L51948 27992 "
       id="path56" />
    <path
       d="M52244 44744 L52244 47342 "
       id="path58" />
    <path
       d="M51338 44744 L51338 47342 "
       id="path60" />
    <path
       d="M52244 44744 L51338 44744 "
       id="path62" />
    <path
       d="M52244 47342 L51338 47342 "
       id="path64" />
    <path
       d="M49133 47342 L49133 44744 "
       id="path66" />
    <path
       d="M50039 47342 L50039 44744 "
       id="path68" />
    <path
       d="M49133 47342 L50039 47342 "
       id="path70" />
    <path
       d="M49133 44744 L50039 44744 "
       id="path72" />
    <path
       d="M75039 43208 L75039 45807 "
       id="path74" />
    <path
       d="M74133 43208 L74133 45807 "
       id="path76" />
    <path
       d="M75039 43208 L74133 43208 "
       id="path78" />
    <path
       d="M75039 45807 L74133 45807 "
       id="path80" />
    <path
       d="M69842 30866 L72440 30866 "
       id="path82" />
    <path
       d="M69842 31771 L72440 31771 "
       id="path84" />
    <path
       d="M69842 30866 L69842 31771 "
       id="path86" />
    <path
       d="M72440 30866 L72440 31771 "
       id="path88" />
    <path
       d="M68051 29468 L70433 29468 "
       id="path90" />
    <path
       d="M68051 28090 L70433 28090 "
       id="path92" />
    <path
       d="M68051 29468 L68051 28090 "
       id="path94" />
    <path
       d="M70433 29468 L70433 28090 "
       id="path96" />
    <path
       d="M76653 41594 L76653 39212 "
       id="path98" />
    <path
       d="M75275 41594 L75275 39212 "
       id="path100" />
    <path
       d="M76653 41594 L75275 41594 "
       id="path102" />
    <path
       d="M76653 39212 L75275 39212 "
       id="path104" />
    <path
       d="M51181 44192 L51181 46791 "
       id="path106" />
    <path
       d="M50236 44192 L50236 46791 "
       id="path108" />
    <path
       d="M51181 44192 L50236 44192 "
       id="path110" />
    <path
       d="M51181 46791 L50236 46791 "
       id="path112" />
    <path
       d="M48070 46811 L48070 44212 "
       id="path114" />
    <path
       d="M49015 46811 L49015 44212 "
       id="path116" />
    <path
       d="M48070 46811 L49015 46811 "
       id="path118" />
    <path
       d="M48070 44212 L49015 44212 "
       id="path120" />
    <path
       d="M73740 38267 L76338 38267 "
       id="path122" />
    <path
       d="M73740 39212 L76338 39212 "
       id="path124" />
    <path
       d="M73740 38267 L73740 39212 "
       id="path126" />
    <path
       d="M76338 38267 L76338 39212 "
       id="path128" />
    <path
       d="M74251 41574 L76850 41574 "
       id="path130" />
    <path
       d="M74251 42519 L76850 42519 "
       id="path132" />
    <path
       d="M74251 41574 L74251 42519 "
       id="path134" />
    <path
       d="M76850 41574 L76850 42519 "
       id="path136" />
    <path
       d="M76948 44212 L76948 41614 "
       id="path138" />
    <path
       d="M77893 44212 L77893 41614 "
       id="path140" />
    <path
       d="M76948 44212 L77893 44212 "
       id="path142" />
    <path
       d="M76948 41614 L77893 41614 "
       id="path144" />
    <path
       d="M76456 40255 L79055 40255 "
       id="path146" />
    <path
       d="M76456 41200 L79055 41200 "
       id="path148" />
    <path
       d="M76456 40255 L76456 41200 "
       id="path150" />
    <path
       d="M79055 40255 L79055 41200 "
       id="path152" />
    <path
       d="M72972 29192 L70374 29192 "
       id="path154" />
    <path
       d="M72972 28248 L70374 28248 "
       id="path156" />
    <path
       d="M72972 29192 L72972 28248 "
       id="path158" />
    <path
       d="M70374 29192 L70374 28248 "
       id="path160" />
    <path
       d="M52224 42913 L52224 44724 "
       id="path162" />
    <path
       d="M52224 42913 L50118 42913 "
       id="path164" />
    <path
       d="M52224 44724 L50118 44724 "
       id="path166" />
    <path
       d="M50118 42913 L50118 44724 "
       id="path168" />
    <path
       d="M52224 41948 L52224 43759 "
       id="path170" />
    <path
       d="M52224 41948 L50118 41948 "
       id="path172" />
    <path
       d="M52224 43759 L50118 43759 "
       id="path174" />
    <path
       d="M50118 41948 L50118 43759 "
       id="path176" />
    <path
       d="M76377 44448 L75039 44448 "
       id="path178" />
    <path
       d="M76377 42559 L76377 44448 "
       id="path180" />
    <path
       d="M75039 42559 L76377 42559 "
       id="path182" />
    <path
       d="M75039 44448 L75039 42559 "
       id="path184" />
    <circle
       cx="59291.3"
       cy="46161.4"
       r="1338.58"
       id="circle186" />
    <circle
       cx="46181.1"
       cy="45826.8"
       r="1338.58"
       id="circle188" />
    <path
       d="M78661 37500 L78661 40098 "
       id="path190" />
    <path
       d="M77716 37500 L77716 40098 "
       id="path192" />
    <path
       d="M78661 37500 L77716 37500 "
       id="path194" />
    <path
       d="M78661 40098 L77716 40098 "
       id="path196" />
    <path
       d="M76003 36397 L78602 36397 "
       id="path198" />
    <path
       d="M76003 37342 L78602 37342 "
       id="path200" />
    <path
       d="M76003 36397 L76003 37342 "
       id="path202" />
    <path
       d="M78602 36397 L78602 37342 "
       id="path204" />
    <circle
       cx="66811"
       cy="46122"
       r="1338.58"
       id="circle206" />
    <path
       d="M62913 45610 L65511 45610 "
       id="path208" />
    <path
       d="M62913 46555 L65511 46555 "
       id="path210" />
    <path
       d="M62913 45610 L62913 46555 "
       id="path212" />
    <path
       d="M65511 45610 L65511 46555 "
       id="path214" />
    <path
       d="M60688 44665 L63287 44665 "
       id="path216" />
    <path
       d="M60688 45610 L63287 45610 "
       id="path218" />
    <path
       d="M60688 44665 L60688 45610 "
       id="path220" />
    <path
       d="M63287 44665 L63287 45610 "
       id="path222" />
  </g>
</svg>
