M48
;DRILL file {KiCad 4.0.2-stable} date 14/06/2016 12:56:11
;FORMAT={-:-/ absolute / metric / decimal}
FMAT,2
METRIC,TZ
T1C0.599
T2C0.600
T3C0.800
T4C0.998
T5C1.001
T6C1.016
T7C1.199
%
G90
G05
M71
T1
X153.97Y-101.311
X153.97Y-102.809
T2
X127.71Y-101.42
X139.29Y-88.23
X139.64Y-78.15
X142.21Y-78.06
X146.24Y-117.61
X148.36Y-97.4
X151.57Y-77.65
X151.71Y-83.93
X154.06Y-118.02
X157.12Y-91.59
X158.07Y-95.08
X158.89Y-111.17
X159.135Y-90.105
X160.4Y-83.79
X161.315Y-78.625
X161.315Y-88.625
X163.855Y-78.625
X163.855Y-88.625
X163.92Y-112.9
X166.425Y-78.625
X166.425Y-88.625
X168.965Y-78.625
X168.965Y-88.625
X171.76Y-78.52
X173.66Y-89.04
X173.81Y-91.17
X176.52Y-106.28
X178.96Y-111.54
T3
X129.62Y-115.08
X132.12Y-115.08
X132.71Y-95.19
X132.71Y-97.69
X139.19Y-111.69
X139.19Y-114.19
X157.76Y-107.49
X160.26Y-107.49
T4
X143.966Y-74.48
X146.506Y-74.48
X149.049Y-74.48
X151.586Y-74.48
X154.126Y-74.48
X156.666Y-74.48
X159.206Y-74.48
X161.746Y-74.48
X164.286Y-74.48
X166.826Y-74.48
X170.89Y-74.48
X173.43Y-74.48
X175.97Y-74.48
X178.51Y-74.48
X181.05Y-74.48
X183.59Y-74.48
X186.13Y-74.48
X188.67Y-74.48
T5
X153.11Y-122.74
X155.65Y-122.74
X158.19Y-122.74
X160.73Y-122.74
X163.27Y-122.74
X165.81Y-122.74
X165.91Y-94.56
X165.91Y-102.16
X168.35Y-122.74
X170.89Y-122.74
X175.97Y-122.74
X178.51Y-122.74
X181.05Y-122.74
X183.59Y-122.74
X186.13Y-122.74
X188.67Y-122.74
T6
X128.82Y-74.18
X128.82Y-76.72
X141.67Y-87.86
X144.21Y-87.86
X146.08Y-81.38
X148.62Y-81.38
X151.16Y-81.38
X153.7Y-81.38
X182.39Y-81.62
X182.39Y-84.16
X182.39Y-86.7
X182.39Y-89.24
X183.33Y-102.93
X185.87Y-102.93
T7
X129.91Y-104.08
X132.32Y-84.55
X132.409Y-109.119
X134.819Y-89.589
X134.909Y-104.08
X137.319Y-84.55
X149.791Y-94.43
X152.291Y-89.391
X154.79Y-94.43
T0
M30
