<?xml version="1.0" standalone="no"?>
 <!DOCTYPE svg PUBLIC "-//W3C//DTD SVG 1.1//EN" 
 "http://www.w3.org/Graphics/SVG/1.1/DTD/svg11.dtd"> 
<svg xmlns="http://www.w3.org/2000/svg" version="1.1" 
    width="11.4706cm" height="5.14858cm" viewBox="0 0 45160 20270 ">
<title>SVG Picture created as proto_trapapoul4-B.Fab.svg date 2017/01/05 14:59:22 </title>
  <desc>Picture generated by PCBNEW </desc>
<g style="fill:#000000; fill-opacity:1;stroke:#000000; stroke-opacity:1;
stroke-linecap:round; stroke-linejoin:round; "
 transform="translate(0 0) scale(1 1)">
</g>
<g style="fill:#000000; fill-opacity:0.0; 
stroke:#000000; stroke-width:-0.000393701; stroke-opacity:1; 
stroke-linecap:round; stroke-linejoin:round;">
</g>
<g style="fill:#000000; fill-opacity:0.0; 
stroke:#000000; stroke-width:39.3701; stroke-opacity:1; 
stroke-linecap:round; stroke-linejoin:round;">
<path d="M1856 764
L42013 764
" />
<path d="M43564.5 2070.46 A787.402 787.402 0.0 0 0 43999.9 2642.2 " />
<path d="M43999 2642
L44322 2796
" />
<path d="M44769.8 3506.17 A787.402 787.402 0.0 0 0 44322.1 2796.35 " />
<path d="M44353.3 17193.4 A787.402 787.402 0.0 0 0 44769.8 16498.8 " />
<path d="M44352 17193
L44005 17378
" />
<path d="M44005.2 17379 A787.402 787.402 0.0 0 0 43588.7 18073.6 " />
<path d="M281 18087
L281 2339
" />
<path d="M281.59 18087.5 A1574.8 1574.8 0.0 0 0 1856.39 19662.3 " />
<path d="M1856.39 764.641 A1574.8 1574.8 0.0 0 0 281.59 2339.44 " />
<path d="M17998.1 9426.06 A393.701 393.701 0.0 0 0 17604.4 9819.76 " />
<path d="M17604 16118
L17604 9819
" />
<path d="M17604.4 16119 A393.701 393.701 0.0 0 0 17998.1 16512.7 " />
<path d="M42013 19662
L1856 19662
" />
<path d="M35714.7 16512.7 A393.701 393.701 0.0 0 0 36108.4 16119 " />
<path d="M36108 9819
L36108 16118
" />
<path d="M36108.4 9819.07 A393.701 393.701 0.0 0 0 35714.7 9426.06 " />
<path d="M17998 9426
L35714 9426
" />
<path d="M43564.3 2063.28 A1574.8 1574.8 0.0 0 0 42013.9 764.641 " />
<path d="M44769 3500
L44769 16492
" />
<path d="M42013.9 19662.3 A1574.8 1574.8 0.0 0 0 43588.7 18087.5 " />
<path d="M17998 16512
L35714 16512
" />
</g>
<g style="fill:#000000; fill-opacity:0.0; 
stroke:#000000; stroke-width:59.0551; stroke-opacity:1; 
stroke-linecap:round; stroke-linejoin:round;">
<path d="M40951 6197
L40951 6441
L41101 6310
L41101 6366
L41120 6404
L41139 6422
L41176 6441
L41270 6441
L41308 6422
L41326 6404
L41345 6366
L41345 6254
L41326 6216
L41308 6197
" />
<path d="M41345 6610
L40951 6610
" />
<path d="M41195 6647
L41345 6760
" />
<path d="M41083 6760
L41233 6610
" />
<path d="M40951 6891
L40951 7135
L41101 7004
L41101 7060
L41120 7097
L41139 7116
L41176 7135
L41270 7135
L41308 7116
L41326 7097
L41345 7060
L41345 6947
L41326 6910
L41308 6891
" />
<path d="M13637 12607
L13796 12448
" />
<path d="M13717 12527
L13438 12249
L13505 12262
L13558 12262
L13597 12249
" />
<path d="M13186 12501
L13160 12527
L13147 12567
L13147 12593
L13160 12633
L13200 12699
L13266 12766
L13332 12806
L13372 12819
L13399 12819
L13438 12806
L13465 12779
L13478 12739
L13478 12713
L13465 12673
L13425 12607
L13359 12540
L13293 12501
L13253 12487
L13226 12487
L13186 12501
" />
<path d="M13067 12806
L13253 12991
" />
<path d="M13094 12832
L13067 12832
L13027 12845
L12988 12885
L12974 12925
L12988 12965
L13133 13110
" />
<path d="M15100 10764
L15100 11027
" />
<path d="M15194 10614
L15288 10896
L15044 10896
" />
<path d="M14894 11027
L14894 10633
" />
<path d="M14856 10877
L14744 11027
" />
<path d="M14744 10764
L14894 10914
" />
<path d="M14613 10633
L14350 10633
L14519 11027
" />
<path d="M3936 13398
L4096 13557
" />
<path d="M4016 13477
L4294 13199
L4281 13265
L4281 13318
L4294 13358
" />
<path d="M4043 12947
L4016 12920
L3976 12907
L3950 12907
L3910 12920
L3844 12960
L3777 13027
L3738 13093
L3724 13133
L3724 13159
L3738 13199
L3764 13225
L3804 13239
L3830 13239
L3870 13225
L3936 13186
L4003 13119
L4043 13053
L4056 13013
L4056 12987
L4043 12947
" />
<path d="M3738 12828
L3552 13013
" />
<path d="M3711 12854
L3711 12828
L3698 12788
L3658 12748
L3618 12735
L3579 12748
L3433 12894
" />
<path d="M39337 15106
L38943 15106
L38943 15256
L38962 15294
L38981 15313
L39018 15331
L39075 15331
L39112 15313
L39131 15294
L39150 15256
L39150 15106
" />
<path d="M39337 15500
L38943 15500
L39337 15725
L38943 15725
" />
<path d="M39337 15912
L38943 15912
L38943 16062
L38962 16100
L38981 16119
L39018 16137
L39075 16137
L39112 16119
L39131 16100
L39150 16062
L39150 15912
" />
<path d="M37972 14924
L37729 14924
L37860 15074
L37804 15074
L37766 15093
L37747 15112
L37729 15149
L37729 15243
L37747 15281
L37766 15299
L37804 15318
L37916 15318
L37954 15299
L37972 15281
" />
<path d="M37597 14924
L37354 14924
L37485 15074
L37429 15074
L37391 15093
L37372 15112
L37354 15149
L37354 15243
L37372 15281
L37391 15299
L37429 15318
L37541 15318
L37579 15299
L37597 15281
" />
<path d="M37110 14924
L37072 14924
L37035 14943
L37016 14962
L36997 14999
L36979 15074
L36979 15168
L36997 15243
L37016 15281
L37035 15299
L37072 15318
L37110 15318
L37147 15299
L37166 15281
L37185 15243
L37204 15168
L37204 15074
L37185 14999
L37166 14962
L37147 14943
L37110 14924
" />
<path d="M38248 10515
L38004 10515
L38135 10665
L38079 10665
L38042 10684
L38023 10702
L38004 10740
L38004 10834
L38023 10871
L38042 10890
L38079 10909
L38192 10909
L38229 10890
L38248 10871
" />
<path d="M37873 10515
L37629 10515
L37760 10665
L37704 10665
L37667 10684
L37648 10702
L37629 10740
L37629 10834
L37648 10871
L37667 10890
L37704 10909
L37817 10909
L37854 10890
L37873 10871
" />
<path d="M37386 10515
L37348 10515
L37311 10534
L37292 10552
L37273 10590
L37254 10665
L37254 10759
L37273 10834
L37292 10871
L37311 10890
L37348 10909
L37386 10909
L37423 10890
L37442 10871
L37461 10834
L37479 10759
L37479 10665
L37461 10590
L37442 10552
L37423 10534
L37386 10515
" />
<path d="M40164 5845
L39770 5845
L40164 6070
L39770 6070
" />
<path d="M40164 6257
L39770 6257
L39770 6407
L39789 6445
L39808 6464
L39845 6482
L39901 6482
L39939 6464
L39958 6445
L39976 6407
L39976 6257
" />
<path d="M40164 6651
L39770 6651
L40164 6876
L39770 6876
" />
<path d="M40093 10830
L40318 10830
" />
<path d="M40205 10830
L40205 10436
L40243 10492
L40280 10530
L40318 10549
" />
<path d="M39849 10436
L39811 10436
L39774 10455
L39755 10474
L39736 10511
L39718 10586
L39718 10680
L39736 10755
L39755 10792
L39774 10811
L39811 10830
L39849 10830
L39886 10811
L39905 10792
L39924 10755
L39943 10680
L39943 10586
L39924 10511
L39905 10474
L39886 10455
L39849 10436
" />
<path d="M39474 10436
L39437 10436
L39399 10455
L39380 10474
L39362 10511
L39343 10586
L39343 10680
L39362 10755
L39380 10792
L39399 10811
L39437 10830
L39474 10830
L39511 10811
L39530 10792
L39549 10755
L39568 10680
L39568 10586
L39549 10511
L39530 10474
L39511 10455
L39474 10436
" />
<path d="M39174 10830
L39174 10436
" />
<path d="M39137 10680
L39024 10830
" />
<path d="M39024 10567
L39174 10717
" />
<path d="M37121 6756
L37065 6775
L36971 6775
L36934 6756
L36915 6737
L36896 6700
L36896 6662
L36915 6625
L36934 6606
L36971 6587
L37046 6569
L37084 6550
L37102 6531
L37121 6494
L37121 6456
L37102 6419
L37084 6400
L37046 6381
L36952 6381
L36896 6400
" />
<path d="M36502 6737
L36521 6756
L36577 6775
L36615 6775
L36671 6756
L36709 6719
L36727 6681
L36746 6606
L36746 6550
L36727 6475
L36709 6437
L36671 6400
L36615 6381
L36577 6381
L36521 6400
L36502 6419
" />
<path d="M36334 6775
L36334 6381
" />
<path d="M36334 6569
L36109 6569
" />
<path d="M36109 6775
L36109 6381
" />
<path d="M35846 6381
L35771 6381
L35734 6400
L35696 6437
L35678 6512
L35678 6644
L35696 6719
L35734 6756
L35771 6775
L35846 6775
L35884 6756
L35921 6719
L35940 6644
L35940 6512
L35921 6437
L35884 6400
L35846 6381
" />
<path d="M35565 6381
L35340 6381
" />
<path d="M35453 6775
L35453 6381
" />
<path d="M35265 6381
L35040 6381
" />
<path d="M35153 6775
L35153 6381
" />
<path d="M34909 6775
L34909 6381
" />
<path d="M34684 6775
L34853 6550
" />
<path d="M34684 6381
L34909 6606
" />
<path d="M34440 6587
L34440 6775
" />
<path d="M34571 6381
L34440 6587
L34309 6381
" />
<path d="M39011 14197
L38955 14216
L38861 14216
L38823 14197
L38805 14178
L38786 14141
L38786 14103
L38805 14066
L38823 14047
L38861 14028
L38936 14010
L38973 13991
L38992 13972
L39011 13935
L39011 13897
L38992 13860
L38973 13841
L38936 13822
L38842 13822
L38786 13841
" />
<path d="M38392 14178
L38411 14197
L38467 14216
L38505 14216
L38561 14197
L38598 14160
L38617 14122
L38636 14047
L38636 13991
L38617 13916
L38598 13878
L38561 13841
L38505 13822
L38467 13822
L38411 13841
L38392 13860
" />
<path d="M38224 14216
L38224 13822
" />
<path d="M38224 14010
L37999 14010
" />
<path d="M37999 14216
L37999 13822
" />
<path d="M37736 13822
L37661 13822
L37624 13841
L37586 13878
L37567 13953
L37567 14085
L37586 14160
L37624 14197
L37661 14216
L37736 14216
L37774 14197
L37811 14160
L37830 14085
L37830 13953
L37811 13878
L37774 13841
L37736 13822
" />
<path d="M37455 13822
L37230 13822
" />
<path d="M37342 14216
L37342 13822
" />
<path d="M37155 13822
L36930 13822
" />
<path d="M37042 14216
L37042 13822
" />
<path d="M36799 14216
L36799 13822
" />
<path d="M36574 14216
L36742 13991
" />
<path d="M36574 13822
L36799 14047
" />
<path d="M36330 14028
L36330 14216
" />
<path d="M36461 13822
L36330 14028
L36199 13822
" />
<path d="M23302 5142
L23246 5161
L23152 5161
L23115 5142
L23096 5123
L23077 5086
L23077 5048
L23096 5011
L23115 4992
L23152 4973
L23227 4954
L23265 4936
L23284 4917
L23302 4879
L23302 4842
L23284 4804
L23265 4786
L23227 4767
L23134 4767
L23077 4786
" />
<path d="M22684 5123
L22702 5142
L22759 5161
L22796 5161
L22852 5142
L22890 5104
L22909 5067
L22927 4992
L22927 4936
L22909 4861
L22890 4823
L22852 4786
L22796 4767
L22759 4767
L22702 4786
L22684 4804
" />
<path d="M22515 5161
L22515 4767
" />
<path d="M22515 4954
L22290 4954
" />
<path d="M22290 5161
L22290 4767
" />
<path d="M22027 4767
L21952 4767
L21915 4786
L21877 4823
L21859 4898
L21859 5029
L21877 5104
L21915 5142
L21952 5161
L22027 5161
L22065 5142
L22102 5104
L22121 5029
L22121 4898
L22102 4823
L22065 4786
L22027 4767
" />
<path d="M21746 4767
L21521 4767
" />
<path d="M21634 5161
L21634 4767
" />
<path d="M21446 4767
L21221 4767
" />
<path d="M21334 5161
L21334 4767
" />
<path d="M21090 5161
L21090 4767
" />
<path d="M20865 5161
L21034 4936
" />
<path d="M20865 4767
L21090 4992
" />
<path d="M20621 4973
L20621 5161
" />
<path d="M20753 4767
L20621 4973
L20490 4767
" />
<path d="M5472 8831
L5631 8990
" />
<path d="M5551 8910
L5830 8632
L5817 8698
L5817 8751
L5830 8791
" />
<path d="M5578 8380
L5551 8354
L5512 8340
L5485 8340
L5445 8354
L5379 8393
L5313 8460
L5273 8526
L5260 8566
L5260 8592
L5273 8632
L5300 8658
L5339 8672
L5366 8672
L5406 8658
L5472 8619
L5538 8552
L5578 8486
L5591 8446
L5591 8420
L5578 8380
" />
<path d="M5273 8261
L5087 8446
" />
<path d="M5247 8287
L5247 8261
L5233 8221
L5194 8181
L5154 8168
L5114 8181
L4968 8327
" />
<path d="M10486 13255
L10645 13414
" />
<path d="M10566 13334
L10844 13056
L10831 13122
L10831 13175
L10844 13215
" />
<path d="M10592 12804
L10566 12777
L10526 12764
L10500 12764
L10460 12777
L10394 12817
L10327 12883
L10288 12950
L10274 12990
L10274 13016
L10288 13056
L10314 13082
L10354 13096
L10380 13096
L10420 13082
L10486 13043
L10553 12976
L10592 12910
L10606 12870
L10606 12844
L10592 12804
" />
<path d="M10327 12539
L10301 12512
L10261 12499
L10234 12499
L10195 12512
L10128 12552
L10062 12618
L10022 12685
L10009 12724
L10009 12751
L10022 12791
L10049 12817
L10089 12830
L10115 12830
L10155 12817
L10221 12777
L10288 12711
L10327 12645
L10341 12605
L10341 12579
L10327 12539
" />
<path d="M10022 12420
L9837 12605
" />
<path d="M9996 12446
L9996 12420
L9983 12380
L9943 12340
L9903 12327
L9863 12340
L9717 12486
" />
<path d="M11259 12728
L11418 12887
" />
<path d="M11339 12808
L11617 12530
L11604 12596
L11604 12649
L11617 12689
" />
<path d="M11365 12278
L11339 12251
L11299 12238
L11273 12238
L11233 12251
L11167 12291
L11100 12357
L11060 12424
L11047 12463
L11047 12490
L11060 12530
L11087 12556
L11127 12569
L11153 12569
L11193 12556
L11259 12516
L11326 12450
L11365 12384
L11379 12344
L11379 12317
L11365 12278
" />
<path d="M11060 12158
L10875 12344
" />
<path d="M11034 12185
L11034 12158
L11021 12119
L10981 12079
L10941 12066
L10901 12079
L10756 12225
" />
<path d="M9609 17562
L9834 17562
" />
<path d="M9721 17562
L9721 17169
L9759 17225
L9796 17262
L9834 17281
" />
<path d="M9365 17169
L9328 17169
L9290 17187
L9272 17206
L9253 17244
L9234 17319
L9234 17412
L9253 17487
L9272 17525
L9290 17543
L9328 17562
L9365 17562
L9403 17543
L9422 17525
L9440 17487
L9459 17412
L9459 17319
L9440 17244
L9422 17206
L9403 17187
L9365 17169
" />
<path d="M9065 17300
L9065 17693
" />
<path d="M9065 17319
L9028 17300
L8953 17300
L8915 17319
L8897 17337
L8878 17375
L8878 17487
L8897 17525
L8915 17543
L8953 17562
L9028 17562
L9065 17543
" />
<path d="M7759 17523
L7984 17523
" />
<path d="M7871 17523
L7871 17129
L7909 17185
L7946 17223
L7984 17242
" />
<path d="M7515 17129
L7477 17129
L7440 17148
L7421 17167
L7402 17204
L7384 17279
L7384 17373
L7402 17448
L7421 17485
L7440 17504
L7477 17523
L7515 17523
L7552 17504
L7571 17485
L7590 17448
L7609 17373
L7609 17279
L7590 17204
L7571 17167
L7552 17148
L7515 17129
" />
<path d="M7215 17260
L7215 17654
" />
<path d="M7215 17279
L7177 17260
L7102 17260
L7065 17279
L7046 17298
L7027 17335
L7027 17448
L7046 17485
L7065 17504
L7102 17523
L7177 17523
L7215 17504
" />
<path d="M12168 14019
L12393 14019
" />
<path d="M12281 14019
L12281 13625
L12318 13681
L12356 13719
L12393 13738
" />
<path d="M11924 13625
L11887 13625
L11849 13644
L11831 13663
L11812 13700
L11793 13775
L11793 13869
L11812 13944
L11831 13981
L11849 14000
L11887 14019
L11924 14019
L11962 14000
L11981 13981
L11999 13944
L12018 13869
L12018 13775
L11999 13700
L11981 13663
L11962 13644
L11924 13625
" />
<path d="M11624 13756
L11624 14019
" />
<path d="M11624 13794
L11606 13775
L11568 13756
L11512 13756
L11474 13775
L11456 13813
L11456 14019
" />
<path d="M5448 13985
L5607 13826
" />
<path d="M5528 13905
L5249 13627
L5316 13640
L5369 13640
L5408 13627
" />
<path d="M4997 13879
L4971 13905
L4958 13945
L4958 13971
L4971 14011
L5011 14077
L5077 14144
L5143 14183
L5183 14197
L5210 14197
L5249 14183
L5276 14157
L5289 14117
L5289 14091
L5276 14051
L5236 13985
L5170 13918
L5104 13879
L5064 13865
L5037 13865
L4997 13879
" />
<path d="M4878 14183
L5064 14369
" />
<path d="M4905 14210
L4878 14210
L4838 14223
L4799 14263
L4785 14303
L4799 14343
L4944 14488
" />
<path d="M31201 4859
L31463 4859
" />
<path d="M31051 4765
L31332 4671
L31332 4915
" />
<path d="M31069 5028
L31069 5290
L31463 5121
" />
<path d="M31069 5515
L31069 5552
L31088 5590
L31107 5609
L31144 5627
L31219 5646
L31313 5646
L31388 5627
L31426 5609
L31444 5590
L31463 5552
L31463 5515
L31444 5477
L31426 5459
L31388 5440
L31313 5421
L31219 5421
L31144 5440
L31107 5459
L31088 5477
L31069 5515
" />
<path d="M31201 5815
L31594 5815
" />
<path d="M31219 5815
L31201 5852
L31201 5927
L31219 5965
L31238 5984
L31276 6002
L31388 6002
L31426 5984
L31444 5965
L31463 5927
L31463 5852
L31444 5815
" />
<path d="M33223 4759
L33448 4759
" />
<path d="M33335 4759
L33335 4365
L33373 4422
L33410 4459
L33448 4478
" />
<path d="M32979 4365
L32941 4365
L32904 4384
L32885 4403
L32866 4440
L32848 4515
L32848 4609
L32866 4684
L32885 4722
L32904 4740
L32941 4759
L32979 4759
L33016 4740
L33035 4722
L33054 4684
L33073 4609
L33073 4515
L33054 4440
L33035 4403
L33016 4384
L32979 4365
" />
<path d="M32510 4497
L32510 4759
" />
<path d="M32679 4497
L32679 4703
L32660 4740
L32623 4759
L32566 4759
L32529 4740
L32510 4722
" />
<path d="M32191 4553
L32323 4553
" />
<path d="M32323 4759
L32323 4365
L32135 4365
" />
<path d="M38321 12523
L38546 12523
" />
<path d="M38434 12523
L38434 12129
L38471 12185
L38508 12223
L38546 12242
" />
<path d="M38077 12129
L38040 12129
L38002 12148
L37984 12167
L37965 12204
L37946 12279
L37946 12373
L37965 12448
L37984 12485
L38002 12504
L38040 12523
L38077 12523
L38115 12504
L38134 12485
L38152 12448
L38171 12373
L38171 12279
L38152 12204
L38134 12167
L38115 12148
L38077 12129
" />
<path d="M37609 12260
L37609 12523
" />
<path d="M37777 12260
L37777 12467
L37759 12504
L37721 12523
L37665 12523
L37627 12504
L37609 12485
" />
<path d="M37290 12317
L37421 12317
" />
<path d="M37421 12523
L37421 12129
L37234 12129
" />
<path d="M40149 9623
L40149 9885
" />
<path d="M40243 9473
L40336 9754
L40093 9754
" />
<path d="M39980 9491
L39718 9491
L39886 9885
" />
<path d="M39493 9491
L39455 9491
L39418 9510
L39399 9529
L39380 9566
L39362 9641
L39362 9735
L39380 9810
L39399 9848
L39418 9866
L39455 9885
L39493 9885
L39530 9866
L39549 9848
L39568 9810
L39586 9735
L39586 9641
L39568 9566
L39549 9529
L39530 9510
L39493 9491
" />
<path d="M39193 9623
L39193 10016
" />
<path d="M39193 9641
L39155 9623
L39080 9623
L39043 9641
L39024 9660
L39005 9698
L39005 9810
L39024 9848
L39043 9866
L39080 9885
L39155 9885
L39193 9866
" />
<path d="M40880 13389
L41105 13389
" />
<path d="M40993 13389
L40993 12995
L41030 13052
L41068 13089
L41105 13108
" />
<path d="M40636 12995
L40599 12995
L40561 13014
L40543 13033
L40524 13070
L40505 13145
L40505 13239
L40524 13314
L40543 13352
L40561 13370
L40599 13389
L40636 13389
L40674 13370
L40693 13352
L40711 13314
L40730 13239
L40730 13145
L40711 13070
L40693 13033
L40674 13014
L40636 12995
" />
<path d="M40168 13127
L40168 13389
" />
<path d="M40336 13127
L40336 13333
L40318 13370
L40280 13389
L40224 13389
L40186 13370
L40168 13352
" />
<path d="M39849 13183
L39980 13183
" />
<path d="M39980 13389
L39980 12995
L39793 12995
" />
<path d="M22219 3665
L22444 3665
" />
<path d="M22331 3665
L22331 3271
L22369 3327
L22406 3365
L22444 3383
" />
<path d="M21975 3271
L21937 3271
L21900 3290
L21881 3308
L21862 3346
L21844 3421
L21844 3515
L21862 3590
L21881 3627
L21900 3646
L21937 3665
L21975 3665
L22012 3646
L22031 3627
L22050 3590
L22069 3515
L22069 3421
L22050 3346
L22031 3308
L22012 3290
L21975 3271
" />
<path d="M21506 3402
L21506 3665
" />
<path d="M21675 3402
L21675 3608
L21656 3646
L21619 3665
L21562 3665
L21525 3646
L21506 3627
" />
<path d="M21188 3458
L21319 3458
" />
<path d="M21319 3665
L21319 3271
L21131 3271
" />
<path d="M4858 13020
L5017 13179
" />
<path d="M4937 13099
L5216 12821
L5202 12887
L5202 12940
L5216 12980
" />
<path d="M4964 12569
L4937 12542
L4897 12529
L4871 12529
L4831 12542
L4765 12582
L4699 12648
L4659 12715
L4646 12755
L4646 12781
L4659 12821
L4685 12847
L4725 12861
L4752 12861
L4791 12847
L4858 12808
L4924 12741
L4964 12675
L4977 12635
L4977 12609
L4964 12569
" />
<path d="M4699 12304
L4672 12277
L4632 12264
L4606 12264
L4566 12277
L4500 12317
L4433 12383
L4394 12450
L4380 12489
L4380 12516
L4394 12556
L4420 12582
L4460 12595
L4486 12595
L4526 12582
L4593 12542
L4659 12476
L4699 12410
L4712 12370
L4712 12344
L4699 12304
" />
<path d="M4394 12184
L4208 12370
" />
<path d="M4367 12211
L4367 12184
L4354 12145
L4314 12105
L4274 12092
L4235 12105
L4089 12251
" />
<path d="M4009 11880
L4102 11972
" />
<path d="M3956 12118
L4235 11840
L4102 11707
" />
<path d="M7564 6381
L7789 6381
" />
<path d="M7676 6381
L7676 5987
L7714 6044
L7751 6081
L7789 6100
" />
<path d="M7320 5987
L7282 5987
L7245 6006
L7226 6025
L7207 6062
L7189 6137
L7189 6231
L7207 6306
L7226 6344
L7245 6362
L7282 6381
L7320 6381
L7357 6362
L7376 6344
L7395 6306
L7414 6231
L7414 6137
L7395 6062
L7376 6025
L7357 6006
L7320 5987
" />
<path d="M6945 5987
L6907 5987
L6870 6006
L6851 6025
L6832 6062
L6814 6137
L6814 6231
L6832 6306
L6851 6344
L6870 6362
L6907 6381
L6945 6381
L6982 6362
L7001 6344
L7020 6306
L7039 6231
L7039 6137
L7020 6062
L7001 6025
L6982 6006
L6945 5987
" />
<path d="M6645 6119
L6645 6381
" />
<path d="M6645 6156
L6626 6137
L6589 6119
L6532 6119
L6495 6137
L6476 6175
L6476 6381
" />
<path d="M6158 6175
L6289 6175
" />
<path d="M6289 6381
L6289 5987
L6101 5987
" />
<path d="M7564 5476
L7789 5476
" />
<path d="M7676 5476
L7676 5082
L7714 5138
L7751 5176
L7789 5194
" />
<path d="M7320 5082
L7282 5082
L7245 5101
L7226 5119
L7207 5157
L7189 5232
L7189 5326
L7207 5401
L7226 5438
L7245 5457
L7282 5476
L7320 5476
L7357 5457
L7376 5438
L7395 5401
L7414 5326
L7414 5232
L7395 5157
L7376 5119
L7357 5101
L7320 5082
" />
<path d="M6945 5082
L6907 5082
L6870 5101
L6851 5119
L6832 5157
L6814 5232
L6814 5326
L6832 5401
L6851 5438
L6870 5457
L6907 5476
L6945 5476
L6982 5457
L7001 5438
L7020 5401
L7039 5326
L7039 5232
L7020 5157
L7001 5119
L6982 5101
L6945 5082
" />
<path d="M6645 5213
L6645 5476
" />
<path d="M6645 5251
L6626 5232
L6589 5213
L6532 5213
L6495 5232
L6476 5269
L6476 5476
" />
<path d="M6158 5269
L6289 5269
" />
<path d="M6289 5476
L6289 5082
L6101 5082
" />
<path d="M5715 5989
L5715 5764
" />
<path d="M5715 5877
L5321 5877
L5378 5839
L5415 5802
L5434 5764
" />
<path d="M5321 6233
L5321 6271
L5340 6308
L5359 6327
L5396 6346
L5471 6364
L5565 6364
L5640 6346
L5678 6327
L5696 6308
L5715 6271
L5715 6233
L5696 6196
L5678 6177
L5640 6158
L5565 6139
L5471 6139
L5396 6158
L5359 6177
L5340 6196
L5321 6233
" />
<path d="M5453 6533
L5715 6533
" />
<path d="M5490 6533
L5471 6552
L5453 6589
L5453 6645
L5471 6683
L5509 6702
L5715 6702
" />
<path d="M28597 5791
L28822 5791
" />
<path d="M28709 5791
L28709 5397
L28747 5453
L28784 5491
L28822 5509
" />
<path d="M28353 5397
L28315 5397
L28278 5416
L28259 5434
L28240 5472
L28222 5547
L28222 5641
L28240 5716
L28259 5753
L28278 5772
L28315 5791
L28353 5791
L28390 5772
L28409 5753
L28428 5716
L28447 5641
L28447 5547
L28428 5472
L28409 5434
L28390 5416
L28353 5397
" />
<path d="M27884 5528
L27884 5791
" />
<path d="M28053 5528
L28053 5734
L28034 5772
L27997 5791
L27940 5791
L27903 5772
L27884 5753
" />
<path d="M27565 5584
L27697 5584
" />
<path d="M27697 5791
L27697 5397
L27509 5397
" />
<path d="M7356 7287
L7580 7287
" />
<path d="M7468 7287
L7468 6893
L7505 6949
L7543 6987
L7580 7005
" />
<path d="M7112 6893
L7074 6893
L7037 6912
L7018 6930
L6999 6968
L6981 7043
L6981 7137
L6999 7212
L7018 7249
L7037 7268
L7074 7287
L7112 7287
L7149 7268
L7168 7249
L7187 7212
L7206 7137
L7206 7043
L7187 6968
L7168 6930
L7149 6912
L7112 6893
" />
<path d="M6737 6893
L6699 6893
L6662 6912
L6643 6930
L6624 6968
L6606 7043
L6606 7137
L6624 7212
L6643 7249
L6662 7268
L6699 7287
L6737 7287
L6774 7268
L6793 7249
L6812 7212
L6831 7137
L6831 7043
L6812 6968
L6793 6930
L6774 6912
L6737 6893
" />
<path d="M6437 7024
L6437 7287
" />
<path d="M6437 7062
L6418 7043
L6381 7024
L6324 7024
L6287 7043
L6268 7080
L6268 7287
" />
<path d="M40754 15451
L40361 15451
L40754 15676
L40361 15676
" />
<path d="M40754 15864
L40361 15864
L40361 16014
L40380 16051
L40398 16070
L40436 16089
L40492 16089
L40529 16070
L40548 16051
L40567 16014
L40567 15864
" />
<path d="M40754 16257
L40361 16257
L40754 16482
L40361 16482
" />
<path d="M37841 7705
L37447 7705
L37447 7855
L37466 7892
L37485 7911
L37522 7930
L37579 7930
L37616 7911
L37635 7892
L37654 7855
L37654 7705
" />
<path d="M37841 8098
L37447 8098
L37841 8323
L37447 8323
" />
<path d="M37841 8511
L37447 8511
L37447 8661
L37466 8698
L37485 8717
L37522 8736
L37579 8736
L37616 8717
L37635 8698
L37654 8661
L37654 8511
" />
<path d="M24613 6441
L24613 6216
" />
<path d="M24613 6329
L24219 6329
L24275 6291
L24313 6254
L24332 6216
" />
<path d="M24219 6685
L24219 6722
L24238 6760
L24257 6779
L24294 6797
L24369 6816
L24463 6816
L24538 6797
L24575 6779
L24594 6760
L24613 6722
L24613 6685
L24594 6647
L24575 6629
L24538 6610
L24463 6591
L24369 6591
L24294 6610
L24257 6629
L24238 6647
L24219 6685
" />
<path d="M24613 6985
L24219 6985
" />
<path d="M24463 7022
L24613 7135
" />
<path d="M24350 7135
L24500 6985
" />
<path d="M12955 11951
L13114 11792
" />
<path d="M13034 11871
L12756 11593
L12822 11606
L12875 11606
L12915 11593
" />
<path d="M12504 11845
L12477 11871
L12464 11911
L12464 11937
L12477 11977
L12517 12043
L12583 12110
L12650 12150
L12689 12163
L12716 12163
L12756 12150
L12782 12123
L12796 12083
L12796 12057
L12782 12017
L12743 11951
L12676 11884
L12610 11845
L12570 11831
L12544 11831
L12504 11845
" />
<path d="M12570 12335
L12292 12057
" />
<path d="M12438 12256
L12464 12441
" />
<path d="M12279 12256
L12491 12256
" />
<path d="M12207 11321
L12366 11162
" />
<path d="M12286 11241
L12008 10963
L12074 10976
L12127 10976
L12167 10963
" />
<path d="M11756 11215
L11729 11241
L11716 11281
L11716 11307
L11729 11347
L11769 11414
L11835 11480
L11902 11520
L11941 11533
L11968 11533
L12008 11520
L12034 11493
L12048 11453
L12048 11427
L12034 11387
L11994 11321
L11928 11254
L11862 11215
L11822 11201
L11796 11201
L11756 11215
" />
<path d="M11822 11705
L11544 11427
" />
<path d="M11690 11626
L11716 11811
" />
<path d="M11531 11626
L11743 11626
" />
<path d="M5222 12085
L5382 12244
" />
<path d="M5302 12165
L5580 11886
L5567 11953
L5567 12006
L5580 12045
" />
<path d="M5328 11635
L5302 11608
L5262 11595
L5236 11595
L5196 11608
L5130 11648
L5063 11714
L5024 11780
L5010 11820
L5010 11847
L5024 11886
L5050 11913
L5090 11926
L5116 11926
L5156 11913
L5222 11873
L5289 11807
L5328 11741
L5342 11701
L5342 11674
L5328 11635
" />
<path d="M4838 11701
L5116 11422
" />
<path d="M4918 11568
L4732 11595
" />
<path d="M4918 11409
L4918 11621
" />
<path d="M33130 5457
L33130 5607
" />
<path d="M32999 5513
L33336 5513
L33374 5532
L33392 5569
L33392 5607
" />
<path d="M33392 5738
L32999 5738
" />
<path d="M33149 5738
L33130 5776
L33130 5851
L33149 5888
L33167 5907
L33205 5926
L33317 5926
L33355 5907
L33374 5888
L33392 5851
L33392 5776
L33374 5738
" />
<path d="M33392 6263
L32999 6263
" />
<path d="M33374 6263
L33392 6226
L33392 6151
L33374 6113
L33355 6094
L33317 6076
L33205 6076
L33167 6094
L33149 6113
L33130 6151
L33130 6226
L33149 6263
" />
<path d="M32185 5457
L32185 5607
" />
<path d="M32054 5513
L32391 5513
L32429 5532
L32447 5569
L32447 5607
" />
<path d="M32447 5738
L32054 5738
" />
<path d="M32204 5738
L32185 5776
L32185 5851
L32204 5888
L32222 5907
L32260 5926
L32372 5926
L32410 5907
L32429 5888
L32447 5851
L32447 5776
L32429 5738
" />
<path d="M32447 6263
L32054 6263
" />
<path d="M32429 6263
L32447 6226
L32447 6151
L32429 6113
L32410 6094
L32372 6076
L32260 6076
L32222 6094
L32204 6113
L32185 6151
L32185 6226
L32204 6263
" />
<path d="M38941 13468
L39166 13468
" />
<path d="M39053 13468
L39053 13074
L39091 13130
L39128 13168
L39166 13187
" />
<path d="M38697 13074
L38659 13074
L38622 13093
L38603 13112
L38584 13149
L38566 13224
L38566 13318
L38584 13393
L38603 13430
L38622 13449
L38659 13468
L38697 13468
L38734 13449
L38753 13430
L38772 13393
L38791 13318
L38791 13224
L38772 13149
L38753 13112
L38734 13093
L38697 13074
" />
<path d="M38397 13468
L38397 13074
" />
<path d="M38359 13318
L38247 13468
" />
<path d="M38247 13205
L38397 13355
" />
<path d="M39913 8625
L39669 8625
L39800 8775
L39744 8775
L39706 8794
L39688 8813
L39669 8850
L39669 8944
L39688 8981
L39706 9000
L39744 9019
L39856 9019
L39894 9000
L39913 8981
" />
<path d="M39538 8625
L39294 8625
L39425 8775
L39369 8775
L39332 8794
L39313 8813
L39294 8850
L39294 8944
L39313 8981
L39332 9000
L39369 9019
L39482 9019
L39519 9000
L39538 8981
" />
<path d="M39125 9019
L39125 8625
" />
<path d="M39088 8869
L38975 9019
" />
<path d="M38975 8756
L39125 8906
" />
<path d="M15415 12851
L15415 13113
" />
<path d="M15509 12701
L15603 12982
L15359 12982
" />
<path d="M15209 13113
L15209 12720
" />
<path d="M15171 12963
L15059 13113
" />
<path d="M15059 12851
L15209 13001
" />
<path d="M14928 12720
L14665 12720
L14834 13113
" />
<path d="M10361 2347
L10361 2122
" />
<path d="M10361 2234
L9967 2234
L10023 2197
L10061 2159
L10080 2122
" />
<path d="M9967 2590
L9967 2628
L9986 2665
L10005 2684
L10042 2703
L10117 2722
L10211 2722
L10286 2703
L10323 2684
L10342 2665
L10361 2628
L10361 2590
L10342 2553
L10323 2534
L10286 2515
L10211 2497
L10117 2497
L10042 2515
L10005 2534
L9986 2553
L9967 2590
" />
<path d="M10361 2890
L9967 2890
" />
<path d="M10211 2928
L10361 3040
" />
<path d="M10098 3040
L10248 2890
" />
<path d="M7894 2019
L8156 2019
" />
<path d="M7744 1925
L8025 1831
L8025 2075
" />
<path d="M8119 2225
L8137 2244
L8156 2225
L8137 2206
L8119 2225
L8156 2225
" />
<path d="M7762 2375
L7762 2637
L8156 2468
" />
<path d="M8156 2787
L7762 2787
" />
<path d="M8006 2825
L8156 2937
" />
<path d="M7894 2937
L8044 2787
" />
<path d="M7897 4019
L8122 4019
" />
<path d="M8010 4019
L8010 3625
L8047 3681
L8085 3719
L8122 3738
" />
<path d="M7654 3625
L7616 3625
L7579 3644
L7560 3663
L7541 3700
L7522 3775
L7522 3869
L7541 3944
L7560 3981
L7579 4000
L7616 4019
L7654 4019
L7691 4000
L7710 3981
L7729 3944
L7747 3869
L7747 3775
L7729 3700
L7710 3663
L7691 3644
L7654 3625
" />
<path d="M7354 4019
L7354 3625
" />
<path d="M7316 3869
L7204 4019
" />
<path d="M7204 3756
L7354 3906
" />
<path d="M26673 5483
L26936 5483
" />
<path d="M26523 5389
L26804 5296
L26804 5539
" />
<path d="M26898 5689
L26917 5708
L26936 5689
L26917 5671
L26898 5689
L26936 5689
" />
<path d="M26542 5839
L26542 6102
L26936 5933
" />
<path d="M26936 6252
L26542 6252
" />
<path d="M26786 6289
L26936 6402
" />
<path d="M26673 6402
L26823 6252
" />
<path d="M28488 6893
L28713 6893
" />
<path d="M28600 6893
L28600 6499
L28638 6555
L28675 6593
L28713 6612
" />
<path d="M28244 6499
L28207 6499
L28169 6518
L28150 6537
L28132 6574
L28113 6649
L28113 6743
L28132 6818
L28150 6855
L28169 6874
L28207 6893
L28244 6893
L28282 6874
L28300 6855
L28319 6818
L28338 6743
L28338 6649
L28319 6574
L28300 6537
L28282 6518
L28244 6499
" />
<path d="M27944 6893
L27944 6499
" />
<path d="M27907 6743
L27794 6893
" />
<path d="M27794 6630
L27944 6780
" />
<path d="M42078 14491
L41834 14491
L41966 14641
L41909 14641
L41872 14660
L41853 14679
L41834 14716
L41834 14810
L41853 14848
L41872 14866
L41909 14885
L42022 14885
L42059 14866
L42078 14848
" />
<path d="M41666 14885
L41666 14491
" />
<path d="M41628 14735
L41516 14885
" />
<path d="M41516 14623
L41666 14773
" />
<path d="M41384 14491
L41141 14491
L41272 14641
L41216 14641
L41178 14660
L41159 14679
L41141 14716
L41141 14810
L41159 14848
L41178 14866
L41216 14885
L41328 14885
L41366 14866
L41384 14848
" />
<path d="M16319 6893
L16075 6893
L16206 7043
L16150 7043
L16113 7062
L16094 7080
L16075 7118
L16075 7212
L16094 7249
L16113 7268
L16150 7287
L16263 7287
L16300 7268
L16319 7249
" />
<path d="M15944 6893
L15700 6893
L15831 7043
L15775 7043
L15738 7062
L15719 7080
L15700 7118
L15700 7212
L15719 7249
L15738 7268
L15775 7287
L15888 7287
L15925 7268
L15944 7249
" />
<path d="M15456 6893
L15419 6893
L15381 6912
L15363 6930
L15344 6968
L15325 7043
L15325 7137
L15344 7212
L15363 7249
L15381 7268
L15419 7287
L15456 7287
L15494 7268
L15513 7249
L15531 7212
L15550 7137
L15550 7043
L15531 6968
L15513 6930
L15494 6912
L15456 6893
" />
<path d="M18051 7326
L17807 7326
L17939 7476
L17882 7476
L17845 7495
L17826 7513
L17807 7551
L17807 7645
L17826 7682
L17845 7701
L17882 7720
L17995 7720
L18032 7701
L18051 7682
" />
<path d="M17676 7326
L17432 7326
L17564 7476
L17507 7476
L17470 7495
L17451 7513
L17432 7551
L17432 7645
L17451 7682
L17470 7701
L17507 7720
L17620 7720
L17657 7701
L17676 7682
" />
<path d="M17189 7326
L17151 7326
L17114 7345
L17095 7364
L17076 7401
L17057 7476
L17057 7570
L17076 7645
L17095 7682
L17114 7701
L17151 7720
L17189 7720
L17226 7701
L17245 7682
L17264 7645
L17282 7570
L17282 7476
L17264 7401
L17245 7364
L17226 7345
L17189 7326
" />
<path d="M36000 5003
L36000 4609
L35869 4891
L35738 4609
L35738 5003
" />
<path d="M35550 5003
L35550 4609
" />
<path d="M35138 4966
L35156 4984
L35213 5003
L35250 5003
L35306 4984
L35344 4947
L35363 4909
L35381 4834
L35381 4778
L35363 4703
L35344 4666
L35306 4628
L35250 4609
L35213 4609
L35156 4628
L35138 4647
" />
<path d="M34781 4609
L34969 4609
L34988 4797
L34969 4778
L34931 4759
L34838 4759
L34800 4778
L34781 4797
L34763 4834
L34763 4928
L34781 4966
L34800 4984
L34838 5003
L34931 5003
L34969 4984
L34988 4966
" />
<path d="M34613 4647
L34594 4628
L34556 4609
L34463 4609
L34425 4628
L34407 4647
L34388 4684
L34388 4722
L34407 4778
L34631 5003
L34388 5003
" />
<path d="M34144 4609
L34107 4609
L34069 4628
L34050 4647
L34032 4684
L34013 4759
L34013 4853
L34032 4928
L34050 4966
L34069 4984
L34107 5003
L34144 5003
L34182 4984
L34200 4966
L34219 4928
L34238 4853
L34238 4759
L34219 4684
L34200 4647
L34182 4628
L34144 4609
" />
<path d="M33657 4609
L33844 4609
L33863 4797
L33844 4778
L33807 4759
L33713 4759
L33675 4778
L33657 4797
L33638 4834
L33638 4928
L33657 4966
L33675 4984
L33713 5003
L33807 5003
L33844 4984
L33863 4966
" />
<path d="M40882 11972
L40882 11578
L40751 11859
L40619 11578
L40619 11972
" />
<path d="M40432 11972
L40432 11578
" />
<path d="M40020 11934
L40038 11953
L40095 11972
L40132 11972
L40188 11953
L40226 11915
L40245 11878
L40263 11803
L40263 11747
L40245 11672
L40226 11634
L40188 11597
L40132 11578
L40095 11578
L40038 11597
L40020 11615
" />
<path d="M39663 11578
L39851 11578
L39870 11765
L39851 11747
L39813 11728
L39720 11728
L39682 11747
L39663 11765
L39645 11803
L39645 11897
L39663 11934
L39682 11953
L39720 11972
L39813 11972
L39851 11953
L39870 11934
" />
<path d="M39495 11615
L39476 11597
L39438 11578
L39345 11578
L39307 11597
L39288 11615
L39270 11653
L39270 11690
L39288 11747
L39513 11972
L39270 11972
" />
<path d="M39026 11578
L38988 11578
L38951 11597
L38932 11615
L38913 11653
L38895 11728
L38895 11822
L38913 11897
L38932 11934
L38951 11953
L38988 11972
L39026 11972
L39063 11953
L39082 11934
L39101 11897
L39120 11822
L39120 11728
L39101 11653
L39082 11615
L39063 11597
L39026 11578
" />
<path d="M38538 11578
L38726 11578
L38745 11765
L38726 11747
L38688 11728
L38595 11728
L38557 11747
L38538 11765
L38520 11803
L38520 11897
L38538 11934
L38557 11953
L38595 11972
L38688 11972
L38726 11953
L38745 11934
" />
<path d="M9035 2124
L9298 2124
" />
<path d="M8885 2030
L9167 1936
L9167 2180
" />
<path d="M8904 2292
L8904 2536
L9054 2405
L9054 2461
L9073 2498
L9092 2517
L9129 2536
L9223 2536
L9260 2517
L9279 2498
L9298 2461
L9298 2349
L9279 2311
L9260 2292
" />
<path d="M9298 2911
L9298 2686
" />
<path d="M9298 2798
L8904 2798
L8960 2761
L8998 2723
L9017 2686
" />
<path d="M8711 16027
L8936 16027
" />
<path d="M8823 16027
L8823 15633
L8861 15689
L8898 15727
L8936 15746
" />
<path d="M8374 15633
L8449 15633
L8486 15652
L8505 15671
L8542 15727
L8561 15802
L8561 15952
L8542 15989
L8523 16008
L8486 16027
L8411 16027
L8374 16008
L8355 15989
L8336 15952
L8336 15858
L8355 15821
L8374 15802
L8411 15783
L8486 15783
L8523 15802
L8542 15821
L8561 15858
" />
<path d="M8167 16027
L8167 15633
L8036 15914
L7905 15633
L7905 16027
" />
</g>
<g style="fill:#000000; fill-opacity:0.0; 
stroke:#000000; stroke-width:39.3701; stroke-opacity:1; 
stroke-linecap:round; stroke-linejoin:round;">
<path d="M40813 7345
L41443 7345
" />
<path d="M40813 6085
L40813 7345
" />
<path d="M41443 6085
L40813 6085
" />
<path d="M41443 7345
L41443 6085
" />
</g>
<g style="fill:#000000; fill-opacity:0.0; 
stroke:#000000; stroke-width:59.0551; stroke-opacity:1; 
stroke-linecap:round; stroke-linejoin:round;">
<path d="M13977 12422
L13531 11976
" />
<path d="M13086 13312
L13977 12422
" />
<path d="M12640 12867
L13086 13312
" />
<path d="M13531 11976
L12640 12867
" />
</g>
<g style="fill:#000000; fill-opacity:0.0; 
stroke:#000000; stroke-width:39.3701; stroke-opacity:1; 
stroke-linecap:round; stroke-linejoin:round;">
<path d="M14159 10494
L14159 11124
" />
<path d="M15419 10494
L14159 10494
" />
<path d="M15419 11124
L15419 10494
" />
<path d="M14159 11124
L15419 11124
" />
</g>
<g style="fill:#000000; fill-opacity:0.0; 
stroke:#000000; stroke-width:59.0551; stroke-opacity:1; 
stroke-linecap:round; stroke-linejoin:round;">
<path d="M3700 12464
L3255 12909
" />
<path d="M4591 13355
L3700 12464
" />
<path d="M4146 13800
L4591 13355
" />
<path d="M3255 12909
L4146 13800
" />
</g>
<g style="fill:#000000; fill-opacity:0.0; 
stroke:#000000; stroke-width:39.3701; stroke-opacity:1; 
stroke-linecap:round; stroke-linejoin:round;">
<path d="M36836 14786
L36836 15416
" />
<path d="M38096 14786
L36836 14786
" />
<path d="M38096 15416
L38096 14786
" />
<path d="M36836 15416
L38096 15416
" />
<path d="M37072 10416
L37072 11046
" />
<path d="M38332 10416
L37072 10416
" />
<path d="M38332 11046
L38332 10416
" />
<path d="M37072 11046
L38332 11046
" />
<path d="M40301 10061
L40301 9431
" />
<path d="M39041 10061
L40301 10061
" />
<path d="M39041 9431
L39041 10061
" />
<path d="M40301 9431
L39041 9431
" />
</g>
<g style="fill:#000000; fill-opacity:0.0; 
stroke:#000000; stroke-width:59.0551; stroke-opacity:1; 
stroke-linecap:round; stroke-linejoin:round;">
<path d="M34691 5967
L34494 5967
" />
<path d="M34691 6124
L34927 5967
" />
<path d="M34691 5809
L34691 6124
" />
<path d="M34927 5967
L34691 5809
" />
<path d="M34927 5967
L34927 6183
" />
<path d="M34927 5967
L34927 5750
" />
<path d="M35084 5967
L34927 5967
" />
<path d="M35320 6282
L35320 5652
" />
<path d="M34257 6282
L35320 6282
" />
<path d="M34257 5652
L34257 6282
" />
<path d="M35320 5652
L34257 5652
" />
<path d="M39691 14235
L39887 14235
" />
<path d="M39691 14077
L39454 14235
" />
<path d="M39691 14392
L39691 14077
" />
<path d="M39454 14235
L39691 14392
" />
<path d="M39454 14235
L39454 14018
" />
<path d="M39454 14235
L39454 14451
" />
<path d="M39297 14235
L39454 14235
" />
<path d="M39061 13920
L39061 14549
" />
<path d="M40124 13920
L39061 13920
" />
<path d="M40124 14549
L40124 13920
" />
<path d="M39061 14549
L40124 14549
" />
<path d="M23076 4353
L23273 4353
" />
<path d="M23076 4195
L22840 4353
" />
<path d="M23076 4510
L23076 4195
" />
<path d="M22840 4353
L23076 4510
" />
<path d="M22840 4353
L22840 4136
" />
<path d="M22840 4353
L22840 4569
" />
<path d="M22683 4353
L22840 4353
" />
<path d="M22446 4038
L22446 4668
" />
<path d="M23509 4038
L22446 4038
" />
<path d="M23509 4668
L23509 4038
" />
<path d="M22446 4668
L23509 4668
" />
<path d="M5196 7858
L4751 8303
" />
<path d="M6087 8749
L5196 7858
" />
<path d="M5642 9194
L6087 8749
" />
<path d="M4751 8303
L5642 9194
" />
<path d="M10523 13525
L10969 13079
" />
<path d="M9633 12634
L10523 13525
" />
<path d="M10078 12188
L9633 12634
" />
<path d="M10969 13079
L10078 12188
" />
<path d="M11429 13131
L11874 12686
" />
<path d="M10538 12240
L11429 13131
" />
<path d="M10984 11795
L10538 12240
" />
<path d="M11874 12686
L10984 11795
" />
<path d="M8726 17069
L8726 17699
" />
<path d="M9986 17069
L8726 17069
" />
<path d="M9986 17699
L9986 17069
" />
<path d="M8726 17699
L9986 17699
" />
<path d="M8135 17699
L8135 17069
" />
<path d="M6876 17699
L8135 17699
" />
<path d="M6876 17069
L6876 17699
" />
<path d="M8135 17069
L6876 17069
" />
<path d="M12545 14156
L12545 13526
" />
<path d="M11285 14156
L12545 14156
" />
<path d="M11285 13526
L11285 14156
" />
<path d="M12545 13526
L11285 13526
" />
<path d="M5772 13815
L5327 13370
" />
<path d="M4881 14706
L5772 13815
" />
<path d="M4436 14260
L4881 14706
" />
<path d="M5327 13370
L4436 14260
" />
<path d="M30970 5927
L31600 5927
" />
<path d="M30970 4668
L30970 5927
" />
<path d="M31600 4668
L30970 4668
" />
<path d="M31600 5927
L31600 4668
" />
<path d="M33431 4896
L33431 4266
" />
<path d="M32171 4896
L33431 4896
" />
<path d="M32171 4266
L32171 4896
" />
<path d="M33431 4266
L32171 4266
" />
<path d="M38529 12660
L38529 12030
" />
<path d="M37269 12660
L38529 12660
" />
<path d="M37269 12030
L37269 12660
" />
<path d="M38529 12030
L37269 12030
" />
<path d="M39041 10298
L39041 10927
" />
<path d="M40301 10298
L39041 10298
" />
<path d="M40301 10927
L40301 10298
" />
<path d="M39041 10927
L40301 10927
" />
<path d="M41088 13565
L41088 12935
" />
<path d="M39828 13565
L41088 13565
" />
<path d="M39828 12935
L39828 13565
" />
<path d="M41088 12935
L39828 12935
" />
<path d="M22427 3801
L22427 3172
" />
<path d="M21167 3801
L22427 3801
" />
<path d="M21167 3172
L21167 3801
" />
<path d="M22427 3172
L21167 3172
" />
<path d="M4330 11795
L3885 12240
" />
<path d="M5221 12686
L4330 11795
" />
<path d="M4775 13131
L5221 12686
" />
<path d="M3885 12240
L4775 13131
" />
<path d="M7584 5612
L7584 4983
" />
<path d="M6324 5612
L7584 5612
" />
<path d="M6324 4983
L6324 5612
" />
<path d="M7584 4983
L6324 4983
" />
<path d="M6324 5888
L6324 6518
" />
<path d="M7584 5888
L6324 5888
" />
<path d="M7584 6518
L7584 5888
" />
<path d="M6324 6518
L7584 6518
" />
<path d="M5261 6951
L5891 6951
" />
<path d="M5261 5691
L5261 6951
" />
<path d="M5891 5691
L5261 5691
" />
<path d="M5891 6951
L5891 5691
" />
<path d="M28844 5927
L28844 5298
" />
<path d="M27584 5927
L28844 5927
" />
<path d="M27584 5298
L27584 5927
" />
<path d="M28844 5298
L27584 5298
" />
<path d="M7584 7424
L7584 6794
" />
<path d="M6324 7424
L7584 7424
" />
<path d="M6324 6794
L6324 7424
" />
<path d="M7584 6794
L6324 6794
" />
</g>
<g style="fill:#000000; fill-opacity:0.0; 
stroke:#000000; stroke-width:39.3701; stroke-opacity:1; 
stroke-linecap:round; stroke-linejoin:round;">
<path d="M24671 6164
L24041 6164
" />
<path d="M24671 7424
L24671 6164
" />
<path d="M24041 7424
L24671 7424
" />
<path d="M24041 6164
L24041 7424
" />
<path d="M11955 12213
L12401 12659
" />
<path d="M12846 11322
L11955 12213
" />
<path d="M13292 11768
L12846 11322
" />
<path d="M12401 12659
L13292 11768
" />
<path d="M11286 11544
L11732 11989
" />
<path d="M12177 10653
L11286 11544
" />
<path d="M12622 11098
L12177 10653
" />
<path d="M11732 11989
L12622 11098
" />
<path d="M4960 11125
L4515 11571
" />
<path d="M5851 12016
L4960 11125
" />
<path d="M5405 12462
L5851 12016
" />
<path d="M4515 11571
L5405 12462
" />
<path d="M33553 5266
L32923 5266
" />
<path d="M33553 6526
L33553 5266
" />
<path d="M32923 6526
L33553 6526
" />
<path d="M32923 5266
L32923 6526
" />
<path d="M31962 6518
L32592 6518
" />
<path d="M31962 5258
L31962 6518
" />
<path d="M32592 5258
L31962 5258
" />
<path d="M32592 6518
L32592 5258
" />
<path d="M39336 13605
L39336 12975
" />
<path d="M38076 13605
L39336 13605
" />
<path d="M38076 12975
L38076 13605
" />
<path d="M39336 12975
L38076 12975
" />
<path d="M38824 8486
L38824 9116
" />
<path d="M40084 8486
L38824 8486
" />
<path d="M40084 9116
L40084 8486
" />
<path d="M38824 9116
L40084 9116
" />
<path d="M15813 13211
L15813 12581
" />
<path d="M14553 13211
L15813 13211
" />
<path d="M14553 12581
L14553 13211
" />
<path d="M15813 12581
L14553 12581
" />
<path d="M9899 3227
L10529 3227
" />
<path d="M9899 1967
L9899 3227
" />
<path d="M10529 1967
L9899 1967
" />
<path d="M10529 3227
L10529 1967
" />
<path d="M8242 1711
L7612 1711
" />
<path d="M8242 2971
L8242 1711
" />
<path d="M7612 2971
L8242 2971
" />
<path d="M7612 1711
L7612 2971
" />
<path d="M8293 4116
L8293 3486
" />
<path d="M7033 4116
L8293 4116
" />
<path d="M7033 3486
L7033 4116
" />
<path d="M8293 3486
L7033 3486
" />
<path d="M27072 5219
L26443 5219
" />
<path d="M27072 6479
L27072 5219
" />
<path d="M26443 6479
L27072 6479
" />
<path d="M26443 5219
L26443 6479
" />
<path d="M28844 6990
L28844 6361
" />
<path d="M27584 6990
L28844 6990
" />
<path d="M27584 6361
L27584 6990
" />
<path d="M28844 6361
L27584 6361
" />
<path d="M42230 15022
L42230 14392
" />
<path d="M40970 15022
L42230 15022
" />
<path d="M40970 14392
L40970 15022
" />
<path d="M42230 14392
L40970 14392
" />
<path d="M16403 7424
L16403 6794
" />
<path d="M15143 7424
L16403 7424
" />
<path d="M15143 6794
L15143 7424
" />
<path d="M16403 6794
L15143 6794
" />
<path d="M16915 7187
L16915 7817
" />
<path d="M18175 7187
L16915 7187
" />
<path d="M18175 7817
L18175 7187
" />
<path d="M16915 7817
L18175 7817
" />
</g> 
</svg>
