M48
METRIC,TZ
T1C0.400
T2C0.599
T3C0.800
T4C1.000
T5C1.016
T6C1.199
T7C3.000
T8C8.000
%
G90
G05
T1
X9.4Y14.9
X11.5Y29.2
X11.5Y27.5
X12.5Y25.
X13.2Y33.7
X17.1Y14.2
X17.6Y19.9
X17.8Y16.3
X19.4Y29.4
X20.1Y17.4
X20.2Y14.9
X21.Y30.2
X22.4Y29.8
X27.1Y14.2
X28.4Y25.5
X29.Y22.2
X31.5Y23.7
X33.2Y24.3
X34.9Y24.4
X36.Y26.5
X36.7Y34.2
X36.9Y17.2
X37.2Y32.5
X37.2Y15.5
X39.Y27.5
X39.6Y20.7
X40.3Y28.2
X41.5Y23.2
X51.Y35.4
X53.9Y31.9
X58.6Y31.7
X61.3Y37.4
X65.8Y38.1
X66.Y41.5
X69.9Y32.3
X76.4Y34.3
X88.62Y41.12
X93.6Y29.8
X99.1Y25.6
X99.1Y7.3
X99.3Y8.8
X101.5Y32.4
X104.1Y12.3
X105.2Y36.1
X106.2Y8.2
X108.1Y7.6
X109.47Y35.99
X111.18Y36.09
T2
X66.5Y35.049
X66.5Y33.551
T3
X60.1Y41.4
X62.6Y41.4
X96.Y20.6
X96.Y13.4
X98.5Y20.6
X98.5Y13.4
X106.443Y29.234
X106.645Y20.049
X108.355Y15.351
X108.557Y33.766
T4
X4.86Y23.3
X4.86Y20.76
X4.86Y18.22
X4.86Y15.68
X7.4Y23.3
X7.4Y20.76
X7.4Y18.22
X7.4Y15.68
T5
X4.96Y33.3
X4.96Y29.8
X4.96Y26.3
X7.5Y33.3
X7.5Y29.8
X7.5Y26.3
X68.35Y40.05
X70.89Y40.05
X73.43Y40.05
X75.97Y40.05
X78.51Y40.05
X81.05Y40.05
X84.33Y41.13
X86.87Y41.13
X93.75Y40.05
X96.Y25.5
X96.Y8.5
X96.29Y40.05
X98.83Y40.05
X101.37Y40.05
X103.91Y40.05
X106.45Y40.05
T6
X94.431Y31.721
X96.93Y36.76
X99.429Y31.721
T7
X8.45Y44.5
X8.45Y44.5
X8.45Y3.5
X8.45Y3.5
X36.95Y40.05
X36.95Y40.05
X36.95Y9.05
X36.95Y9.05
X51.45Y44.5
X51.45Y44.5
X51.45Y3.5
X51.45Y3.5
X90.37Y45.06
X90.37Y45.06
X106.95Y3.
X106.95Y3.
X111.95Y40.05
X111.95Y40.05
X111.95Y9.05
X111.95Y9.05
T8
X29.Y34.5
T0
M30
