<?xml version="1.0" standalone="no"?>
 <!DOCTYPE svg PUBLIC "-//W3C//DTD SVG 1.1//EN" 
 "http://www.w3.org/Graphics/SVG/1.1/DTD/svg11.dtd"> 
<svg xmlns="http://www.w3.org/2000/svg" version="1.1" 
    width="11.4706cm" height="5.14858cm" viewBox="0 0 45160 20270 ">
<title>SVG Picture created as proto_trapapoul4-Edge.Cuts.svg date 2017/01/05 14:59:22 </title>
  <desc>Picture generated by PCBNEW </desc>
<g style="fill:#000000; fill-opacity:1;stroke:#000000; stroke-opacity:1;
stroke-linecap:round; stroke-linejoin:round; "
 transform="translate(0 0) scale(1 1)">
</g>
<g style="fill:#000000; fill-opacity:0.0; 
stroke:#000000; stroke-width:-0.000393701; stroke-opacity:1; 
stroke-linecap:round; stroke-linejoin:round;">
</g>
<g style="fill:#000000; fill-opacity:0.0; 
stroke:#000000; stroke-width:39.3701; stroke-opacity:1; 
stroke-linecap:round; stroke-linejoin:round;">
<path d="M1856 764
L42013 764
" />
<path d="M43564.5 2070.46 A787.402 787.402 0.0 0 0 43999.9 2642.2 " />
<path d="M43999 2642
L44322 2796
" />
<path d="M44769.8 3506.17 A787.402 787.402 0.0 0 0 44322.1 2796.35 " />
<path d="M44353.3 17193.4 A787.402 787.402 0.0 0 0 44769.8 16498.8 " />
<path d="M44352 17193
L44005 17378
" />
<path d="M44005.2 17379 A787.402 787.402 0.0 0 0 43588.7 18073.6 " />
<path d="M281 18087
L281 2339
" />
<path d="M281.59 18087.5 A1574.8 1574.8 0.0 0 0 1856.39 19662.3 " />
<path d="M1856.39 764.641 A1574.8 1574.8 0.0 0 0 281.59 2339.44 " />
<path d="M17998.1 9426.06 A393.701 393.701 0.0 0 0 17604.4 9819.76 " />
<path d="M17604 16118
L17604 9819
" />
<path d="M17604.4 16119 A393.701 393.701 0.0 0 0 17998.1 16512.7 " />
<path d="M42013 19662
L1856 19662
" />
<path d="M35714.7 16512.7 A393.701 393.701 0.0 0 0 36108.4 16119 " />
<path d="M36108 9819
L36108 16118
" />
<path d="M36108.4 9819.07 A393.701 393.701 0.0 0 0 35714.7 9426.06 " />
<path d="M17998 9426
L35714 9426
" />
<path d="M43564.3 2063.28 A1574.8 1574.8 0.0 0 0 42013.9 764.641 " />
<path d="M44769 3500
L44769 16492
" />
<path d="M42013.9 19662.3 A1574.8 1574.8 0.0 0 0 43588.7 18087.5 " />
<path d="M17998 16512
L35714 16512
" />
</g> 
</svg>
