<?xml version="1.0" standalone="no"?>
 <!DOCTYPE svg PUBLIC "-//W3C//DTD SVG 1.1//EN" 
 "http://www.w3.org/Graphics/SVG/1.1/DTD/svg11.dtd"> 
<svg xmlns="http://www.w3.org/2000/svg" version="1.1" 
    width="11.4706cm" height="5.14858cm" viewBox="0 0 45160 20270 ">
<title>SVG Picture created as proto_trapapoul4-F.Fab.svg date 2017/01/05 14:59:22 </title>
  <desc>Picture generated by PCBNEW </desc>
<g style="fill:#000000; fill-opacity:1;stroke:#000000; stroke-opacity:1;
stroke-linecap:round; stroke-linejoin:round; "
 transform="translate(0 0) scale(1 1)">
</g>
<g style="fill:#000000; fill-opacity:0.0; 
stroke:#000000; stroke-width:-0.000393701; stroke-opacity:1; 
stroke-linecap:round; stroke-linejoin:round;">
</g>
<g style="fill:#000000; fill-opacity:0.0; 
stroke:#000000; stroke-width:39.3701; stroke-opacity:1; 
stroke-linecap:round; stroke-linejoin:round;">
<path d="M1856 764
L42013 764
" />
<path d="M43564.5 2070.46 A787.402 787.402 0.0 0 0 43999.9 2642.2 " />
<path d="M43999 2642
L44322 2796
" />
<path d="M44769.8 3506.17 A787.402 787.402 0.0 0 0 44322.1 2796.35 " />
<path d="M44353.3 17193.4 A787.402 787.402 0.0 0 0 44769.8 16498.8 " />
<path d="M44352 17193
L44005 17378
" />
<path d="M44005.2 17379 A787.402 787.402 0.0 0 0 43588.7 18073.6 " />
<path d="M281 18087
L281 2339
" />
<path d="M281.59 18087.5 A1574.8 1574.8 0.0 0 0 1856.39 19662.3 " />
<path d="M1856.39 764.641 A1574.8 1574.8 0.0 0 0 281.59 2339.44 " />
<path d="M17998.1 9426.06 A393.701 393.701 0.0 0 0 17604.4 9819.76 " />
<path d="M17604 16118
L17604 9819
" />
<path d="M17604.4 16119 A393.701 393.701 0.0 0 0 17998.1 16512.7 " />
<path d="M42013 19662
L1856 19662
" />
<path d="M35714.7 16512.7 A393.701 393.701 0.0 0 0 36108.4 16119 " />
<path d="M36108 9819
L36108 16118
" />
<path d="M36108.4 9819.07 A393.701 393.701 0.0 0 0 35714.7 9426.06 " />
<path d="M17998 9426
L35714 9426
" />
<path d="M43564.3 2063.28 A1574.8 1574.8 0.0 0 0 42013.9 764.641 " />
<path d="M44769 3500
L44769 16492
" />
<path d="M42013.9 19662.3 A1574.8 1574.8 0.0 0 0 43588.7 18087.5 " />
<path d="M17998 16512
L35714 16512
" />
</g>
<g style="fill:#000000; fill-opacity:0.0; 
stroke:#000000; stroke-width:59.0551; stroke-opacity:1; 
stroke-linecap:round; stroke-linejoin:round;">
<path d="M29039 1497
L29058 1479
L29095 1460
L29189 1460
L29227 1479
L29245 1497
L29264 1535
L29264 1572
L29245 1629
L29020 1854
L29264 1854
" />
<path d="M29433 1816
L29452 1835
L29433 1854
L29414 1835
L29433 1816
L29433 1854
" />
<path d="M29601 1497
L29620 1479
L29658 1460
L29751 1460
L29789 1479
L29808 1497
L29826 1535
L29826 1572
L29808 1629
L29583 1854
L29826 1854
" />
<path d="M29995 1854
L29995 1460
" />
<path d="M30033 1704
L30145 1854
" />
<path d="M30145 1591
L29995 1741
" />
<path d="M41118 15633
L41156 15633
L41193 15652
L41212 15671
L41231 15708
L41249 15783
L41249 15877
L41231 15952
L41212 15989
L41193 16008
L41156 16027
L41118 16027
L41081 16008
L41062 15989
L41043 15952
L41024 15877
L41024 15783
L41043 15708
L41062 15671
L41081 15652
L41118 15633
" />
<path d="M41643 16027
L41512 15839
" />
<path d="M41418 16027
L41418 15633
L41568 15633
L41606 15652
L41624 15671
L41643 15708
L41643 15764
L41624 15802
L41606 15821
L41568 15839
L41418 15839
" />
<path d="M41793 15671
L41812 15652
L41849 15633
L41943 15633
L41981 15652
L41999 15671
L42018 15708
L42018 15746
L41999 15802
L41774 16027
L42018 16027
" />
<path d="M37213 13914
L37213 14176
" />
<path d="M37119 13764
L37026 14045
L37269 14045
" />
<path d="M37382 13783
L37644 13783
L37476 14176
" />
<path d="M37869 13783
L37907 13783
L37944 13801
L37963 13820
L37982 13858
L38000 13933
L38000 14026
L37982 14101
L37963 14139
L37944 14158
L37907 14176
L37869 14176
L37832 14158
L37813 14139
L37794 14101
L37775 14026
L37775 13933
L37794 13858
L37813 13820
L37832 13801
L37869 13783
" />
<path d="M38338 13914
L38338 14176
" />
<path d="M38169 13914
L38169 14120
L38188 14158
L38225 14176
L38282 14176
L38319 14158
L38338 14139
" />
<path d="M38657 13970
L38525 13970
" />
<path d="M38525 14176
L38525 13783
L38713 13783
" />
<path d="M43589 10018
L43589 10206
L43777 10224
L43758 10206
L43739 10168
L43739 10074
L43758 10037
L43777 10018
L43814 9999
L43908 9999
L43945 10018
L43964 10037
L43983 10074
L43983 10168
L43964 10206
L43945 10224
" />
<path d="M43870 9849
L43870 9662
" />
<path d="M43983 9887
L43589 9756
L43983 9624
" />
<path d="M37281 6499
L37056 6499
" />
<path d="M37168 6499
L37168 6106
L37131 6162
L37093 6199
L37056 6218
" />
<path d="M37524 6106
L37562 6106
L37599 6124
L37618 6143
L37637 6181
L37655 6256
L37655 6349
L37637 6424
L37618 6462
L37599 6480
L37562 6499
L37524 6499
L37487 6480
L37468 6462
L37449 6424
L37431 6349
L37431 6256
L37449 6181
L37468 6143
L37487 6124
L37524 6106
" />
<path d="M37899 6106
L37937 6106
L37974 6124
L37993 6143
L38012 6181
L38030 6256
L38030 6349
L38012 6424
L37993 6462
L37974 6480
L37937 6499
L37899 6499
L37862 6480
L37843 6462
L37824 6424
L37805 6349
L37805 6256
L37824 6181
L37843 6143
L37862 6124
L37899 6106
" />
<path d="M38199 6499
L38199 6106
" />
<path d="M38237 6349
L38349 6499
" />
<path d="M38349 6237
L38199 6387
" />
<path d="M33707 18455
L33707 18680
" />
<path d="M33707 18567
L33314 18567
L33370 18605
L33407 18642
L33426 18680
" />
<path d="M33707 18286
L33314 18286
" />
<path d="M33557 18248
L33707 18136
" />
<path d="M33445 18136
L33595 18286
" />
<path d="M42651 12093
L42653 12153
L42642 12177
L42613 12207
L42560 12226
L42518 12221
L42494 12210
L42464 12181
L42412 12040
L42782 11906
L42827 12029
L42823 12071
L42811 12095
L42782 12125
L42747 12138
L42706 12133
L42682 12122
L42651 12093
L42606 11970
" />
<path d="M42646 12354
L42711 12530
" />
<path d="M42528 12358
L42943 12346
L42618 12604
" />
<path d="M43013 12540
L43090 12751
" />
<path d="M42682 12780
L43052 12646
" />
<path d="M42544 7917
L42585 7874
L42610 7865
L42652 7864
L42703 7887
L42729 7920
L42738 7945
L42739 7987
L42676 8123
L42319 7957
L42374 7838
L42407 7812
L42432 7802
L42474 7801
L42508 7817
L42534 7850
L42543 7875
L42544 7917
L42489 8036
" />
<path d="M42732 7736
L42811 7566
" />
<path d="M42818 7817
L42517 7532
L42929 7579
" />
<path d="M42604 7345
L42699 7141
" />
<path d="M43008 7409
L42652 7243
" />
<path d="M37252 11040
L37252 11302
" />
<path d="M37159 10890
L37065 11171
L37309 11171
" />
<path d="M37421 10909
L37684 10909
L37515 11302
" />
<path d="M37909 10909
L37946 10909
L37984 10927
L38002 10946
L38021 10984
L38040 11059
L38040 11152
L38021 11227
L38002 11265
L37984 11284
L37946 11302
L37909 11302
L37871 11284
L37852 11265
L37834 11227
L37815 11152
L37815 11059
L37834 10984
L37852 10946
L37871 10927
L37909 10909
" />
<path d="M38377 11040
L38377 11302
" />
<path d="M38209 11040
L38209 11246
L38227 11284
L38265 11302
L38321 11302
L38359 11284
L38377 11265
" />
<path d="M38696 11096
L38565 11096
" />
<path d="M38565 11302
L38565 10909
L38752 10909
" />
<path d="M23158 3875
L23158 4137
" />
<path d="M23064 3725
L22970 4006
L23214 4006
" />
<path d="M23327 3743
L23589 3743
L23420 4137
" />
<path d="M23814 3743
L23852 3743
L23889 3762
L23908 3781
L23927 3818
L23945 3893
L23945 3987
L23927 4062
L23908 4100
L23889 4118
L23852 4137
L23814 4137
L23777 4118
L23758 4100
L23739 4062
L23720 3987
L23720 3893
L23739 3818
L23758 3781
L23777 3762
L23814 3743
" />
<path d="M24283 3875
L24283 4137
" />
<path d="M24114 3875
L24114 4081
L24133 4118
L24170 4137
L24227 4137
L24264 4118
L24283 4100
" />
<path d="M24601 3931
L24470 3931
" />
<path d="M24470 4137
L24470 3743
L24658 3743
" />
<path d="M27880 7399
L27487 7399
L27768 7268
L27487 7137
L27880 7137
" />
<path d="M27843 6724
L27862 6743
L27880 6799
L27880 6837
L27862 6893
L27824 6930
L27787 6949
L27712 6968
L27655 6968
L27580 6949
L27543 6930
L27505 6893
L27487 6837
L27487 6799
L27505 6743
L27524 6724
" />
<path d="M27880 6555
L27487 6555
L27487 6406
L27505 6368
L27524 6349
L27562 6331
L27618 6331
L27655 6349
L27674 6368
L27693 6406
L27693 6555
" />
<path d="M27487 6199
L27487 5937
L27880 6106
" />
<path d="M27880 5768
L27880 5693
L27862 5656
L27843 5637
L27787 5599
L27712 5581
L27562 5581
L27524 5599
L27505 5618
L27487 5656
L27487 5731
L27505 5768
L27524 5787
L27562 5806
L27655 5806
L27693 5787
L27712 5768
L27730 5731
L27730 5656
L27712 5618
L27693 5599
L27655 5581
" />
<path d="M27618 5243
L27880 5243
" />
<path d="M27468 5337
L27749 5431
L27749 5187
" />
<path d="M27487 4962
L27487 4924
L27505 4887
L27524 4868
L27562 4849
L27637 4831
L27730 4831
L27805 4849
L27843 4868
L27862 4887
L27880 4924
L27880 4962
L27862 4999
L27843 5018
L27805 5037
L27730 5056
L27637 5056
L27562 5037
L27524 5018
L27505 4999
L27487 4962
" />
<path d="M25912 7257
L25912 7013
L26062 7144
L26062 7088
L26081 7050
L26099 7032
L26137 7013
L26231 7013
L26268 7032
L26287 7050
L26306 7088
L26306 7200
L26287 7238
L26268 7257
" />
<path d="M25949 6863
L25931 6844
L25912 6807
L25912 6713
L25931 6675
L25949 6657
L25987 6638
L26024 6638
L26081 6657
L26306 6882
L26306 6638
" />
<path d="M26268 6469
L26287 6450
L26306 6469
L26287 6488
L26268 6469
L26306 6469
" />
<path d="M25912 6319
L25912 6057
L26306 6226
" />
<path d="M25912 5738
L25912 5813
L25931 5851
L25949 5869
L26006 5907
L26081 5926
L26231 5926
L26268 5907
L26287 5888
L26306 5851
L26306 5776
L26287 5738
L26268 5719
L26231 5701
L26137 5701
L26099 5719
L26081 5738
L26062 5776
L26062 5851
L26081 5888
L26099 5907
L26137 5926
" />
<path d="M26081 5476
L26062 5513
L26043 5532
L26006 5551
L25987 5551
L25949 5532
L25931 5513
L25912 5476
L25912 5401
L25931 5363
L25949 5344
L25987 5326
L26006 5326
L26043 5344
L26062 5363
L26081 5401
L26081 5476
L26099 5513
L26118 5532
L26156 5551
L26231 5551
L26268 5532
L26287 5513
L26306 5476
L26306 5401
L26287 5363
L26268 5344
L26231 5326
L26156 5326
L26118 5344
L26099 5363
L26081 5401
" />
<path d="M26306 5157
L25912 5157
" />
<path d="M26306 4932
L26081 5101
" />
<path d="M25912 4932
L26137 5157
" />
<path d="M23788 6854
L23563 6854
" />
<path d="M23675 6854
L23675 6460
L23638 6516
L23600 6554
L23563 6572
" />
<path d="M24032 6460
L24069 6460
L24107 6479
L24125 6497
L24144 6535
L24163 6610
L24163 6704
L24144 6779
L24125 6816
L24107 6835
L24069 6854
L24032 6854
L23994 6835
L23975 6816
L23957 6779
L23938 6704
L23938 6610
L23957 6535
L23975 6497
L23994 6479
L24032 6460
" />
<path d="M24332 6591
L24332 6985
" />
<path d="M24332 6610
L24369 6591
L24444 6591
L24482 6610
L24500 6629
L24519 6666
L24519 6779
L24500 6816
L24482 6835
L24444 6854
L24369 6854
L24332 6835
" />
<path d="M23906 5909
L23681 5909
" />
<path d="M23793 5909
L23793 5515
L23756 5571
L23718 5609
L23681 5627
" />
<path d="M24150 5515
L24187 5515
L24225 5534
L24243 5552
L24262 5590
L24281 5665
L24281 5759
L24262 5834
L24243 5871
L24225 5890
L24187 5909
L24150 5909
L24112 5890
L24093 5871
L24075 5834
L24056 5759
L24056 5665
L24075 5590
L24093 5552
L24112 5534
L24150 5515
" />
<path d="M24450 5646
L24450 6040
" />
<path d="M24450 5665
L24487 5646
L24562 5646
L24600 5665
L24618 5684
L24637 5721
L24637 5834
L24618 5871
L24600 5890
L24562 5909
L24487 5909
L24450 5890
" />
<path d="M29642 5441
L29482 5282
" />
<path d="M29562 5362
L29840 5083
L29774 5097
L29721 5097
L29681 5083
" />
<path d="M30092 5335
L30119 5362
L30132 5402
L30132 5428
L30119 5468
L30079 5534
L30013 5600
L29946 5640
L29907 5653
L29880 5653
L29840 5640
L29814 5614
L29801 5574
L29801 5547
L29814 5508
L29854 5441
L29920 5375
L29986 5335
L30026 5322
L30052 5322
L30092 5335
" />
<path d="M30212 5640
L30026 5826
" />
<path d="M30185 5667
L30212 5667
L30251 5680
L30291 5720
L30304 5759
L30291 5799
L30145 5945
" />
<path d="M33747 2452
L33747 2677
" />
<path d="M33747 2564
L33353 2564
L33409 2602
L33447 2639
L33465 2677
" />
<path d="M33353 2208
L33353 2170
L33372 2133
L33390 2114
L33428 2095
L33503 2077
L33597 2077
L33672 2095
L33709 2114
L33728 2133
L33747 2170
L33747 2208
L33728 2245
L33709 2264
L33672 2283
L33597 2302
L33503 2302
L33428 2283
L33390 2264
L33372 2245
L33353 2208
" />
<path d="M33484 1739
L33747 1739
" />
<path d="M33484 1908
L33690 1908
L33728 1889
L33747 1852
L33747 1795
L33728 1758
L33709 1739
" />
<path d="M33540 1421
L33540 1552
" />
<path d="M33747 1552
L33353 1552
L33353 1364
" />
<path d="M32802 2283
L32802 2508
" />
<path d="M32802 2395
L32408 2395
L32464 2433
L32502 2470
L32520 2508
" />
<path d="M32408 2039
L32408 2002
L32427 1964
L32446 1945
L32483 1927
L32558 1908
L32652 1908
L32727 1927
L32764 1945
L32783 1964
L32802 2002
L32802 2039
L32783 2077
L32764 2095
L32727 2114
L32652 2133
L32558 2133
L32483 2114
L32446 2095
L32427 2077
L32408 2039
" />
<path d="M32539 1739
L32802 1739
" />
<path d="M32577 1739
L32558 1720
L32539 1683
L32539 1627
L32558 1589
L32595 1570
L32802 1570
" />
<path d="M25380 18397
L25380 18621
" />
<path d="M25380 18509
L24987 18509
L25043 18546
L25080 18584
L25099 18621
" />
<path d="M24987 18153
L24987 18115
L25005 18078
L25024 18059
L25062 18040
L25137 18022
L25230 18022
L25305 18040
L25343 18059
L25362 18078
L25380 18115
L25380 18153
L25362 18190
L25343 18209
L25305 18228
L25230 18247
L25137 18247
L25062 18228
L25024 18209
L25005 18190
L24987 18153
" />
<path d="M25118 17684
L25380 17684
" />
<path d="M25118 17853
L25324 17853
L25362 17834
L25380 17797
L25380 17740
L25362 17703
L25343 17684
" />
<path d="M25174 17365
L25174 17497
" />
<path d="M25380 17497
L24987 17497
L24987 17309
" />
<path d="M23228 18461
L23491 18461
" />
<path d="M23078 18554
L23359 18648
L23359 18404
" />
<path d="M23097 18292
L23097 18029
L23491 18198
" />
<path d="M23097 17804
L23097 17767
L23116 17729
L23134 17711
L23172 17692
L23247 17673
L23341 17673
L23416 17692
L23453 17711
L23472 17729
L23491 17767
L23491 17804
L23472 17842
L23453 17861
L23416 17879
L23341 17898
L23247 17898
L23172 17879
L23134 17861
L23116 17842
L23097 17804
" />
<path d="M23228 17504
L23622 17504
" />
<path d="M23247 17504
L23228 17467
L23228 17392
L23247 17355
L23266 17336
L23303 17317
L23416 17317
L23453 17336
L23472 17355
L23491 17392
L23491 17467
L23472 17504
" />
<path d="M27802 18357
L27802 18582
" />
<path d="M27802 18470
L27408 18470
L27464 18507
L27502 18545
L27520 18582
" />
<path d="M27408 18113
L27408 18076
L27427 18038
L27446 18020
L27483 18001
L27558 17982
L27652 17982
L27727 18001
L27764 18020
L27783 18038
L27802 18076
L27802 18113
L27783 18151
L27764 18170
L27727 18188
L27652 18207
L27558 18207
L27483 18188
L27446 18170
L27427 18151
L27408 18113
" />
<path d="M27539 17645
L27802 17645
" />
<path d="M27539 17813
L27745 17813
L27783 17795
L27802 17757
L27802 17701
L27783 17663
L27764 17645
" />
<path d="M27595 17326
L27595 17457
" />
<path d="M27802 17457
L27408 17457
L27408 17270
" />
<path d="M36433 18952
L36230 19047
" />
<path d="M36331 19000
L36165 18643
L36155 18710
L36137 18760
L36111 18792
" />
<path d="M36488 18492
L36522 18477
L36564 18478
L36589 18487
L36622 18513
L36670 18573
L36710 18658
L36725 18734
L36723 18776
L36714 18801
L36688 18833
L36654 18849
L36612 18848
L36588 18839
L36555 18813
L36506 18753
L36466 18668
L36452 18592
L36453 18550
L36462 18525
L36488 18492
" />
<path d="M36828 18334
L36862 18318
L36904 18319
L36929 18328
L36961 18354
L37010 18414
L37050 18499
L37064 18575
L37063 18617
L37054 18642
L37028 18675
L36994 18691
L36952 18690
L36927 18681
L36894 18654
L36846 18594
L36806 18509
L36791 18434
L36793 18392
L36802 18367
L36828 18334
" />
<path d="M37155 18326
L37266 18564
" />
<path d="M37171 18360
L37180 18335
L37206 18302
L37257 18279
L37299 18280
L37332 18306
L37419 18493
" />
<path d="M30479 8545
L30479 8770
" />
<path d="M30479 8657
L30085 8657
L30141 8695
L30179 8732
L30198 8770
" />
<path d="M30085 8301
L30085 8263
L30104 8226
L30123 8207
L30160 8188
L30235 8170
L30329 8170
L30404 8188
L30441 8207
L30460 8226
L30479 8263
L30479 8301
L30460 8338
L30441 8357
L30404 8376
L30329 8395
L30235 8395
L30160 8376
L30123 8357
L30104 8338
L30085 8301
" />
<path d="M30085 7926
L30085 7888
L30104 7851
L30123 7832
L30160 7813
L30235 7795
L30329 7795
L30404 7813
L30441 7832
L30460 7851
L30479 7888
L30479 7926
L30460 7963
L30441 7982
L30404 8001
L30329 8020
L30235 8020
L30160 8001
L30123 7982
L30104 7963
L30085 7926
" />
<path d="M30216 7626
L30479 7626
" />
<path d="M30254 7626
L30235 7607
L30216 7570
L30216 7513
L30235 7476
L30273 7457
L30479 7457
" />
<path d="M30273 7139
L30273 7270
" />
<path d="M30479 7270
L30085 7270
L30085 7082
" />
<path d="M42014 2648
L42014 2873
" />
<path d="M42014 2761
L41621 2761
L41677 2798
L41714 2836
L41733 2873
" />
<path d="M41621 2405
L41621 2367
L41639 2330
L41658 2311
L41696 2292
L41771 2274
L41864 2274
L41939 2292
L41977 2311
L41996 2330
L42014 2367
L42014 2405
L41996 2442
L41977 2461
L41939 2480
L41864 2498
L41771 2498
L41696 2480
L41658 2461
L41639 2442
L41621 2405
" />
<path d="M41752 2105
L42014 2105
" />
<path d="M41789 2105
L41771 2086
L41752 2049
L41752 1992
L41771 1955
L41808 1936
L42014 1936
" />
<path d="M41808 1617
L41808 1749
" />
<path d="M42014 1749
L41621 1749
L41621 1561
" />
<path d="M41148 2688
L41148 2913
" />
<path d="M41148 2800
L40754 2800
L40811 2838
L40848 2875
L40867 2913
" />
<path d="M40754 2444
L40754 2407
L40773 2369
L40792 2350
L40829 2332
L40904 2313
L40998 2313
L41073 2332
L41111 2350
L41129 2369
L41148 2407
L41148 2444
L41129 2482
L41111 2500
L41073 2519
L40998 2538
L40904 2538
L40829 2519
L40792 2500
L40773 2482
L40754 2444
" />
<path d="M40886 1975
L41148 1975
" />
<path d="M40886 2144
L41092 2144
L41129 2125
L41148 2088
L41148 2032
L41129 1994
L41111 1975
" />
<path d="M40942 1657
L40942 1788
" />
<path d="M41148 1788
L40754 1788
L40754 1600
" />
<path d="M25769 1932
L25769 1539
L25994 1932
L25994 1539
" />
<path d="M26182 1932
L26182 1539
L26332 1539
L26369 1557
L26388 1576
L26407 1614
L26407 1670
L26388 1707
L26369 1726
L26332 1745
L26182 1745
" />
<path d="M26576 1932
L26576 1539
L26801 1932
L26801 1539
" />
<path d="M21343 7780
L21324 7761
L21306 7723
L21306 7630
L21324 7592
L21343 7573
L21381 7555
L21418 7555
L21474 7573
L21699 7798
L21699 7555
" />
<path d="M21662 7386
L21681 7367
L21699 7386
L21681 7405
L21662 7386
L21699 7386
" />
<path d="M21343 7217
L21324 7199
L21306 7161
L21306 7067
L21324 7030
L21343 7011
L21381 6992
L21418 6992
L21474 7011
L21699 7236
L21699 6992
" />
<path d="M21699 6824
L21306 6824
" />
<path d="M21549 6786
L21699 6674
" />
<path d="M21437 6674
L21587 6824
" />
<path d="M21204 5749
L21223 5731
L21261 5712
L21354 5712
L21392 5731
L21411 5749
L21429 5787
L21429 5824
L21411 5881
L21186 6106
L21429 6106
" />
<path d="M21598 6068
L21617 6087
L21598 6106
L21579 6087
L21598 6068
L21598 6106
" />
<path d="M21767 5749
L21786 5731
L21823 5712
L21917 5712
L21954 5731
L21973 5749
L21992 5787
L21992 5824
L21973 5881
L21748 6106
L21992 6106
" />
<path d="M22161 6106
L22161 5712
" />
<path d="M22198 5956
L22311 6106
" />
<path d="M22311 5843
L22161 5993
" />
<path d="M20597 5689
L20597 5914
" />
<path d="M20597 5802
L20203 5802
L20260 5839
L20297 5877
L20316 5914
" />
<path d="M20203 5446
L20203 5408
L20222 5371
L20241 5352
L20278 5333
L20353 5314
L20447 5314
L20522 5333
L20559 5352
L20578 5371
L20597 5408
L20597 5446
L20578 5483
L20559 5502
L20522 5521
L20447 5539
L20353 5539
L20278 5521
L20241 5502
L20222 5483
L20203 5446
" />
<path d="M20597 5146
L20203 5146
" />
<path d="M20447 5108
L20597 4996
" />
<path d="M20335 4996
L20485 5146
" />
<path d="M29673 17759
L29448 17759
" />
<path d="M29560 17759
L29560 17365
L29523 17422
L29485 17459
L29448 17478
" />
<path d="M29916 17365
L29954 17365
L29991 17384
L30010 17403
L30029 17440
L30048 17515
L30048 17609
L30029 17684
L30010 17722
L29991 17740
L29954 17759
L29916 17759
L29879 17740
L29860 17722
L29841 17684
L29823 17609
L29823 17515
L29841 17440
L29860 17403
L29879 17384
L29916 17365
" />
<path d="M30216 17759
L30216 17365
" />
<path d="M30254 17609
L30366 17759
" />
<path d="M30366 17497
L30216 17647
" />
<path d="M24252 18374
L24252 18224
" />
<path d="M24121 18318
L24458 18318
L24496 18299
L24514 18262
L24514 18224
" />
<path d="M24514 18093
L24121 18093
" />
<path d="M24271 18093
L24252 18056
L24252 17981
L24271 17943
L24289 17924
L24327 17906
L24439 17906
L24477 17924
L24496 17943
L24514 17981
L24514 18056
L24496 18093
" />
<path d="M24514 17568
L24121 17568
" />
<path d="M24496 17568
L24514 17606
L24514 17681
L24496 17718
L24477 17737
L24439 17756
L24327 17756
L24289 17737
L24271 17718
L24252 17681
L24252 17606
L24271 17568
" />
<path d="M22362 18374
L22362 18224
" />
<path d="M22231 18318
L22568 18318
L22606 18299
L22625 18262
L22625 18224
" />
<path d="M22625 18093
L22231 18093
" />
<path d="M22381 18093
L22362 18056
L22362 17981
L22381 17943
L22400 17924
L22437 17906
L22550 17906
L22587 17924
L22606 17943
L22625 17981
L22625 18056
L22606 18093
" />
<path d="M22625 17568
L22231 17568
" />
<path d="M22606 17568
L22625 17606
L22625 17681
L22606 17718
L22587 17737
L22550 17756
L22437 17756
L22400 17737
L22381 17718
L22362 17681
L22362 17606
L22381 17568
" />
<path d="M31051 1893
L30826 1893
" />
<path d="M30938 1893
L30938 1499
L30901 1555
L30863 1593
L30826 1612
" />
<path d="M31294 1499
L31332 1499
L31369 1518
L31388 1537
L31407 1574
L31426 1649
L31426 1743
L31407 1818
L31388 1855
L31369 1874
L31332 1893
L31294 1893
L31257 1874
L31238 1855
L31219 1818
L31201 1743
L31201 1649
L31219 1574
L31238 1537
L31257 1518
L31294 1499
" />
<path d="M31594 1893
L31594 1499
" />
<path d="M31632 1743
L31744 1893
" />
<path d="M31744 1630
L31594 1780
" />
<path d="M39849 18337
L39849 18561
" />
<path d="M39849 18449
L39455 18449
L39511 18486
L39549 18524
L39568 18561
" />
<path d="M39849 18168
L39455 18168
" />
<path d="M39699 18130
L39849 18018
" />
<path d="M39586 18018
L39736 18168
" />
<path d="M35164 18681
L35164 18906
" />
<path d="M35164 18794
L34770 18794
L34826 18831
L34864 18869
L34883 18906
" />
<path d="M34770 18438
L34770 18400
L34789 18363
L34808 18344
L34845 18325
L34920 18307
L35014 18307
L35089 18325
L35126 18344
L35145 18363
L35164 18400
L35164 18438
L35145 18475
L35126 18494
L35089 18513
L35014 18531
L34920 18531
L34845 18513
L34808 18494
L34789 18475
L34770 18438
" />
<path d="M35164 18138
L34770 18138
" />
<path d="M35014 18100
L35164 17988
" />
<path d="M34901 17988
L35051 18138
" />
<path d="M39703 15987
L39478 15987
" />
<path d="M39590 15987
L39590 15594
L39553 15650
L39515 15687
L39478 15706
" />
<path d="M39871 15987
L39871 15594
" />
<path d="M39909 15837
L40021 15987
" />
<path d="M40021 15725
L39871 15875
" />
<path d="M27342 2431
L27605 2431
" />
<path d="M27192 2525
L27474 2618
L27474 2375
" />
<path d="M27567 2225
L27586 2206
L27605 2225
L27586 2243
L27567 2225
L27605 2225
" />
<path d="M27211 2075
L27211 1812
L27605 1981
" />
<path d="M27605 1662
L27211 1662
" />
<path d="M27455 1625
L27605 1512
" />
<path d="M27342 1512
L27492 1662
" />
<path d="M26266 18640
L26266 18828
L26454 18846
L26435 18828
L26416 18790
L26416 18696
L26435 18659
L26454 18640
L26491 18621
L26585 18621
L26622 18640
L26641 18659
L26660 18696
L26660 18790
L26641 18828
L26622 18846
" />
<path d="M26304 18471
L26285 18453
L26266 18415
L26266 18322
L26285 18284
L26304 18265
L26341 18247
L26379 18247
L26435 18265
L26660 18490
L26660 18247
" />
<path d="M26266 18003
L26266 17965
L26285 17928
L26304 17909
L26341 17890
L26416 17872
L26510 17872
L26585 17890
L26622 17909
L26641 17928
L26660 17965
L26660 18003
L26641 18040
L26622 18059
L26585 18078
L26510 18097
L26416 18097
L26341 18078
L26304 18059
L26285 18040
L26266 18003
" />
<path d="M26266 17515
L26266 17703
L26454 17722
L26435 17703
L26416 17665
L26416 17572
L26435 17534
L26454 17515
L26491 17497
L26585 17497
L26622 17515
L26641 17534
L26660 17572
L26660 17665
L26641 17703
L26622 17722
" />
<path d="M14930 13670
L15117 13670
" />
<path d="M14892 13783
L15023 13389
L15155 13783
" />
<path d="M15248 13389
L15492 13389
L15361 13539
L15417 13539
L15455 13558
L15473 13576
L15492 13614
L15492 13708
L15473 13745
L15455 13764
L15417 13783
L15305 13783
L15267 13764
L15248 13745
" />
<path d="M15867 13783
L15642 13783
" />
<path d="M15754 13783
L15754 13389
L15717 13445
L15679 13483
L15642 13501
" />
<path d="M16204 13520
L16204 13783
" />
<path d="M16111 13370
L16017 13651
L16261 13651
" />
<path d="M16579 13520
L16579 13783
" />
<path d="M16486 13370
L16392 13651
L16636 13651
" />
<path d="M14890 12410
L15078 12410
" />
<path d="M14853 12523
L14984 12129
L15115 12523
" />
<path d="M15209 12129
L15453 12129
L15321 12279
L15378 12279
L15415 12298
L15434 12317
L15453 12354
L15453 12448
L15434 12485
L15415 12504
L15378 12523
L15265 12523
L15228 12504
L15209 12485
" />
<path d="M15828 12523
L15603 12523
" />
<path d="M15715 12523
L15715 12129
L15678 12185
L15640 12223
L15603 12242
" />
<path d="M16165 12260
L16165 12523
" />
<path d="M16071 12110
L15978 12392
L16221 12392
" />
<path d="M16540 12260
L16540 12523
" />
<path d="M16446 12110
L16353 12392
L16596 12392
" />
<path d="M38195 18629
L38195 18704
L38214 18741
L38233 18760
L38289 18798
L38364 18816
L38514 18816
L38552 18798
L38570 18779
L38589 18741
L38589 18666
L38570 18629
L38552 18610
L38514 18591
L38420 18591
L38383 18610
L38364 18629
L38345 18666
L38345 18741
L38364 18779
L38383 18798
L38420 18816
" />
<path d="M38195 18348
L38195 18310
L38214 18273
L38233 18254
L38270 18235
L38345 18217
L38439 18217
L38514 18235
L38552 18254
L38570 18273
L38589 18310
L38589 18348
L38570 18385
L38552 18404
L38514 18423
L38439 18441
L38345 18441
L38270 18423
L38233 18404
L38214 18385
L38195 18348
" />
<path d="M38589 17842
L38589 18067
" />
<path d="M38589 17954
L38195 17954
L38252 17992
L38289 18029
L38308 18067
" />
</g>
<g style="fill:#000000; fill-opacity:0.0; 
stroke:#000000; stroke-width:39.3701; stroke-opacity:1; 
stroke-linecap:round; stroke-linejoin:round;">
<path d="M30183 1345
L30183 1975
" />
<path d="M28923 1345
L30183 1345
" />
<path d="M28923 1975
L28923 1345
" />
<path d="M30183 1975
L28923 1975
" />
<path d="M42151 15534
L42151 16164
" />
<path d="M40891 15534
L42151 15534
" />
<path d="M40891 16164
L40891 15534
" />
<path d="M42151 16164
L40891 16164
" />
<path d="M33175 17778
L33805 17778
" />
<path d="M33175 19038
L33175 17778
" />
<path d="M33805 19038
L33175 19038
" />
<path d="M33805 17778
L33805 19038
" />
</g>
<g style="fill:#000000; fill-opacity:0.0; 
stroke:#000000; stroke-width:59.0551; stroke-opacity:1; 
stroke-linecap:round; stroke-linejoin:round;">
<path d="M24750 6361
L24750 6990
" />
<path d="M23490 6361
L24750 6361
" />
<path d="M23490 6990
L23490 6361
" />
<path d="M24750 6990
L23490 6990
" />
<path d="M24750 5455
L24750 6085
" />
<path d="M23490 5455
L24750 5455
" />
<path d="M23490 6085
L23490 5455
" />
<path d="M24750 6085
L23490 6085
" />
<path d="M30591 5733
L30145 6178
" />
<path d="M29700 4842
L30591 5733
" />
<path d="M29254 5287
L29700 4842
" />
<path d="M30145 6178
L29254 5287
" />
<path d="M33820 2668
L33191 2668
" />
<path d="M33820 1408
L33820 2668
" />
<path d="M33191 1408
L33820 1408
" />
<path d="M33191 2668
L33191 1408
" />
<path d="M32939 2695
L32309 2695
" />
<path d="M32939 1435
L32939 2695
" />
<path d="M32309 1435
L32939 1435
" />
<path d="M32309 2695
L32309 1435
" />
<path d="M24612 18605
L23982 18605
" />
<path d="M24612 17345
L24612 18605
" />
<path d="M23982 17345
L24612 17345
" />
<path d="M23982 18605
L23982 17345
" />
<path d="M22722 18612
L22092 18612
" />
<path d="M22722 17353
L22722 18612
" />
<path d="M22092 17353
L22722 17353
" />
<path d="M22092 18612
L22092 17353
" />
<path d="M27958 18534
L27328 18534
" />
<path d="M27958 17274
L27958 18534
" />
<path d="M27328 17274
L27958 17274
" />
<path d="M27328 18534
L27328 17274
" />
<path d="M37235 18053
L37501 18624
" />
<path d="M36093 18585
L37235 18053
" />
<path d="M36359 19156
L36093 18585
" />
<path d="M37501 18624
L36359 19156
" />
<path d="M29946 7345
L30576 7345
" />
<path d="M29946 8605
L29946 7345
" />
<path d="M30576 8605
L29946 8605
" />
<path d="M30576 7345
L30576 8605
" />
<path d="M41517 1609
L42147 1609
" />
<path d="M41517 2868
L41517 1609
" />
<path d="M42147 2868
L41517 2868
" />
<path d="M42147 1609
L42147 2868
" />
<path d="M40659 1668
L41289 1668
" />
<path d="M40659 2927
L40659 1668
" />
<path d="M41289 2927
L40659 2927
" />
<path d="M41289 1668
L41289 2927
" />
</g>
<g style="fill:#000000; fill-opacity:0.0; 
stroke:#000000; stroke-width:39.3701; stroke-opacity:1; 
stroke-linecap:round; stroke-linejoin:round;">
<path d="M21887 7896
L21257 7896
" />
<path d="M21887 6636
L21887 7896
" />
<path d="M21257 6636
L21887 6636
" />
<path d="M21257 7896
L21257 6636
" />
<path d="M22368 5612
L22368 6242
" />
<path d="M21108 5612
L22368 5612
" />
<path d="M21108 6242
L21108 5612
" />
<path d="M22368 6242
L21108 6242
" />
<path d="M20694 6124
L20065 6124
" />
<path d="M20694 4864
L20694 6124
" />
<path d="M20065 4864
L20694 4864
" />
<path d="M20065 6124
L20065 4864
" />
<path d="M29238 17896
L29238 17266
" />
<path d="M30498 17896
L29238 17896
" />
<path d="M30498 17266
L30498 17896
" />
<path d="M29238 17266
L30498 17266
" />
<path d="M24927 17313
L25557 17313
" />
<path d="M24927 18573
L24927 17313
" />
<path d="M25557 18573
L24927 18573
" />
<path d="M25557 17313
L25557 18573
" />
<path d="M23037 17313
L23667 17313
" />
<path d="M23037 18573
L23037 17313
" />
<path d="M23667 18573
L23037 18573
" />
<path d="M23667 17313
L23667 18573
" />
<path d="M30655 1986
L30655 1357
" />
<path d="M31915 1986
L30655 1986
" />
<path d="M31915 1357
L31915 1986
" />
<path d="M30655 1357
L31915 1357
" />
<path d="M39356 17699
L39986 17699
" />
<path d="M39356 18959
L39356 17699
" />
<path d="M39986 18959
L39356 18959
" />
<path d="M39986 17699
L39986 18959
" />
<path d="M35261 19038
L34631 19038
" />
<path d="M35261 17778
L35261 19038
" />
<path d="M34631 17778
L35261 17778
" />
<path d="M34631 19038
L34631 17778
" />
<path d="M39080 16124
L39080 15494
" />
<path d="M40340 16124
L39080 16124
" />
<path d="M40340 15494
L40340 16124
" />
<path d="M39080 15494
L40340 15494
" />
<path d="M27710 2695
L27080 2695
" />
<path d="M27710 1435
L27710 2695
" />
<path d="M27080 1435
L27710 1435
" />
<path d="M27080 2695
L27080 1435
" />
<path d="M2927 13994
L2927 9994
" />
<path d="M2927 9994
L927 9994
" />
<path d="M927 9994
L927 13994
" />
<path d="M927 13994
L2927 13994
" />
</g> 
</svg>
