G04 #@! TF.FileFunction,Legend,Top*
%FSLAX46Y46*%
G04 Gerber Fmt 4.6, Leading zero omitted, Abs format (unit mm)*
G04 Created by KiCad (PCBNEW 4.0.4-stable) date 12/06/16 19:38:57*
%MOMM*%
%LPD*%
G01*
G04 APERTURE LIST*
%ADD10C,0.100000*%
%ADD11C,0.150000*%
%ADD12C,0.250000*%
G04 APERTURE END LIST*
D10*
X110000000Y46000000D02*
G75*
G03X106000000Y50000000I-4000000J0D01*
G01*
X106000000Y0D02*
G75*
G03X110000000Y4000000I0J4000000D01*
G01*
X108000000Y3500000D02*
G75*
G03X108000000Y3500000I-1500000J0D01*
G01*
X108000000Y46500000D02*
G75*
G03X108000000Y46500000I-1500000J0D01*
G01*
X53000000Y46500000D02*
G75*
G03X53000000Y46500000I-1500000J0D01*
G01*
X53000000Y3500000D02*
G75*
G03X53000000Y3500000I-1500000J0D01*
G01*
X10000000Y46500000D02*
G75*
G03X10000000Y46500000I-1500000J0D01*
G01*
X10000000Y3500000D02*
G75*
G03X10000000Y3500000I-1500000J0D01*
G01*
X0Y4000000D02*
G75*
G03X4000000Y0I4000000J0D01*
G01*
X4000000Y50000000D02*
G75*
G03X0Y46000000I0J-4000000D01*
G01*
X4000000Y50000000D02*
X106000000Y50000000D01*
X106000000Y0D02*
X4000000Y0D01*
X47500000Y26000000D02*
G75*
G03X46500000Y25000000I0J-1000000D01*
G01*
X47500000Y26000000D02*
X92500000Y26000000D01*
X93500000Y25000000D02*
G75*
G03X92500000Y26000000I-1000000J0D01*
G01*
X93500000Y9000000D02*
X93500000Y25000000D01*
X92500000Y8000000D02*
G75*
G03X93500000Y9000000I0J1000000D01*
G01*
X92500000Y8000000D02*
X47500000Y8000000D01*
X46500000Y9000000D02*
G75*
G03X47500000Y8000000I1000000J0D01*
G01*
X46500000Y9000000D02*
X46500000Y25000000D01*
X0Y4000000D02*
X0Y46000000D01*
X110000000Y46000000D02*
X110000000Y4000000D01*
X33000000Y34500000D02*
G75*
G03X33000000Y34500000I-4000000J0D01*
G01*
D11*
X78800000Y4475000D02*
X80800000Y4475000D01*
X80800000Y2325000D02*
X78800000Y2325000D01*
D12*
X87500000Y33800000D02*
G75*
G03X87500000Y33800000I-6600000J0D01*
G01*
X72800000Y33800000D02*
G75*
G03X72800000Y33800000I-6600000J0D01*
G01*
D11*
X105725000Y24149000D02*
X105725000Y17851000D01*
X105865000Y24143000D02*
X105865000Y17857000D01*
X106005000Y24130000D02*
X106005000Y21446000D01*
X106005000Y20554000D02*
X106005000Y17870000D01*
X106145000Y24111000D02*
X106145000Y21656000D01*
X106145000Y20344000D02*
X106145000Y17889000D01*
X106285000Y24085000D02*
X106285000Y21789000D01*
X106285000Y20211000D02*
X106285000Y17915000D01*
X106425000Y24053000D02*
X106425000Y21880000D01*
X106425000Y20120000D02*
X106425000Y17947000D01*
X106565000Y24014000D02*
X106565000Y21942000D01*
X106565000Y20058000D02*
X106565000Y17986000D01*
X106705000Y23968000D02*
X106705000Y21981000D01*
X106705000Y20019000D02*
X106705000Y18032000D01*
X106845000Y23915000D02*
X106845000Y21998000D01*
X106845000Y20002000D02*
X106845000Y18085000D01*
X106985000Y23853000D02*
X106985000Y21996000D01*
X106985000Y20004000D02*
X106985000Y18147000D01*
X107125000Y23783000D02*
X107125000Y21974000D01*
X107125000Y20026000D02*
X107125000Y18217000D01*
X107265000Y23704000D02*
X107265000Y21931000D01*
X107265000Y20069000D02*
X107265000Y18296000D01*
X107405000Y23616000D02*
X107405000Y21863000D01*
X107405000Y20137000D02*
X107405000Y18384000D01*
X107545000Y23516000D02*
X107545000Y21764000D01*
X107545000Y20236000D02*
X107545000Y18484000D01*
X107685000Y23404000D02*
X107685000Y21619000D01*
X107685000Y20381000D02*
X107685000Y18596000D01*
X107825000Y23279000D02*
X107825000Y21380000D01*
X107825000Y20620000D02*
X107825000Y18721000D01*
X107965000Y23136000D02*
X107965000Y18864000D01*
X108105000Y22974000D02*
X108105000Y19026000D01*
X108245000Y22786000D02*
X108245000Y19214000D01*
X108385000Y22563000D02*
X108385000Y19437000D01*
X108525000Y22287000D02*
X108525000Y19713000D01*
X108665000Y21912000D02*
X108665000Y20088000D01*
X107900000Y21000000D02*
G75*
G03X107900000Y21000000I-1000000J0D01*
G01*
X108837500Y21000000D02*
G75*
G03X108837500Y21000000I-3187500J0D01*
G01*
X105725000Y17189000D02*
X105725000Y10891000D01*
X105865000Y17183000D02*
X105865000Y10897000D01*
X106005000Y17170000D02*
X106005000Y14486000D01*
X106005000Y13594000D02*
X106005000Y10910000D01*
X106145000Y17151000D02*
X106145000Y14696000D01*
X106145000Y13384000D02*
X106145000Y10929000D01*
X106285000Y17125000D02*
X106285000Y14829000D01*
X106285000Y13251000D02*
X106285000Y10955000D01*
X106425000Y17093000D02*
X106425000Y14920000D01*
X106425000Y13160000D02*
X106425000Y10987000D01*
X106565000Y17054000D02*
X106565000Y14982000D01*
X106565000Y13098000D02*
X106565000Y11026000D01*
X106705000Y17008000D02*
X106705000Y15021000D01*
X106705000Y13059000D02*
X106705000Y11072000D01*
X106845000Y16955000D02*
X106845000Y15038000D01*
X106845000Y13042000D02*
X106845000Y11125000D01*
X106985000Y16893000D02*
X106985000Y15036000D01*
X106985000Y13044000D02*
X106985000Y11187000D01*
X107125000Y16823000D02*
X107125000Y15014000D01*
X107125000Y13066000D02*
X107125000Y11257000D01*
X107265000Y16744000D02*
X107265000Y14971000D01*
X107265000Y13109000D02*
X107265000Y11336000D01*
X107405000Y16656000D02*
X107405000Y14903000D01*
X107405000Y13177000D02*
X107405000Y11424000D01*
X107545000Y16556000D02*
X107545000Y14804000D01*
X107545000Y13276000D02*
X107545000Y11524000D01*
X107685000Y16444000D02*
X107685000Y14659000D01*
X107685000Y13421000D02*
X107685000Y11636000D01*
X107825000Y16319000D02*
X107825000Y14420000D01*
X107825000Y13660000D02*
X107825000Y11761000D01*
X107965000Y16176000D02*
X107965000Y11904000D01*
X108105000Y16014000D02*
X108105000Y12066000D01*
X108245000Y15826000D02*
X108245000Y12254000D01*
X108385000Y15603000D02*
X108385000Y12477000D01*
X108525000Y15327000D02*
X108525000Y12753000D01*
X108665000Y14952000D02*
X108665000Y13128000D01*
X107900000Y14040000D02*
G75*
G03X107900000Y14040000I-1000000J0D01*
G01*
X108837500Y14040000D02*
G75*
G03X108837500Y14040000I-3187500J0D01*
G01*
X105725000Y30949000D02*
X105725000Y24651000D01*
X105865000Y30943000D02*
X105865000Y24657000D01*
X106005000Y30930000D02*
X106005000Y28246000D01*
X106005000Y27354000D02*
X106005000Y24670000D01*
X106145000Y30911000D02*
X106145000Y28456000D01*
X106145000Y27144000D02*
X106145000Y24689000D01*
X106285000Y30885000D02*
X106285000Y28589000D01*
X106285000Y27011000D02*
X106285000Y24715000D01*
X106425000Y30853000D02*
X106425000Y28680000D01*
X106425000Y26920000D02*
X106425000Y24747000D01*
X106565000Y30814000D02*
X106565000Y28742000D01*
X106565000Y26858000D02*
X106565000Y24786000D01*
X106705000Y30768000D02*
X106705000Y28781000D01*
X106705000Y26819000D02*
X106705000Y24832000D01*
X106845000Y30715000D02*
X106845000Y28798000D01*
X106845000Y26802000D02*
X106845000Y24885000D01*
X106985000Y30653000D02*
X106985000Y28796000D01*
X106985000Y26804000D02*
X106985000Y24947000D01*
X107125000Y30583000D02*
X107125000Y28774000D01*
X107125000Y26826000D02*
X107125000Y25017000D01*
X107265000Y30504000D02*
X107265000Y28731000D01*
X107265000Y26869000D02*
X107265000Y25096000D01*
X107405000Y30416000D02*
X107405000Y28663000D01*
X107405000Y26937000D02*
X107405000Y25184000D01*
X107545000Y30316000D02*
X107545000Y28564000D01*
X107545000Y27036000D02*
X107545000Y25284000D01*
X107685000Y30204000D02*
X107685000Y28419000D01*
X107685000Y27181000D02*
X107685000Y25396000D01*
X107825000Y30079000D02*
X107825000Y28180000D01*
X107825000Y27420000D02*
X107825000Y25521000D01*
X107965000Y29936000D02*
X107965000Y25664000D01*
X108105000Y29774000D02*
X108105000Y25826000D01*
X108245000Y29586000D02*
X108245000Y26014000D01*
X108385000Y29363000D02*
X108385000Y26237000D01*
X108525000Y29087000D02*
X108525000Y26513000D01*
X108665000Y28712000D02*
X108665000Y26888000D01*
X107900000Y27800000D02*
G75*
G03X107900000Y27800000I-1000000J0D01*
G01*
X108837500Y27800000D02*
G75*
G03X108837500Y27800000I-3187500J0D01*
G01*
X58200000Y34600000D02*
X58200000Y37600000D01*
X56400000Y34600000D02*
X56400000Y37600000D01*
X32130000Y23370000D02*
X32130000Y18290000D01*
X31850000Y26190000D02*
X33400000Y26190000D01*
X34670000Y25910000D02*
X34670000Y23370000D01*
X34670000Y23370000D02*
X32130000Y23370000D01*
X32130000Y18290000D02*
X37210000Y18290000D01*
X37210000Y18290000D02*
X37210000Y23370000D01*
X31850000Y26190000D02*
X31850000Y24640000D01*
X37210000Y25910000D02*
X34670000Y25910000D01*
X37210000Y23370000D02*
X37210000Y25910000D01*
X24930000Y46030000D02*
X22390000Y46030000D01*
X27750000Y45750000D02*
X26200000Y45750000D01*
X24930000Y46030000D02*
X24930000Y48570000D01*
X26200000Y48850000D02*
X27750000Y48850000D01*
X27750000Y48850000D02*
X27750000Y45750000D01*
X24930000Y48570000D02*
X22390000Y48570000D01*
X22390000Y48570000D02*
X22390000Y46030000D01*
X1330000Y31530000D02*
X1330000Y34070000D01*
X1050000Y28710000D02*
X1050000Y30260000D01*
X1330000Y31530000D02*
X3870000Y31530000D01*
X4150000Y30260000D02*
X4150000Y28710000D01*
X4150000Y28710000D02*
X1050000Y28710000D01*
X3870000Y31530000D02*
X3870000Y34070000D01*
X3870000Y34070000D02*
X1330000Y34070000D01*
X20070000Y1930000D02*
X17530000Y1930000D01*
X22890000Y1650000D02*
X21340000Y1650000D01*
X20070000Y1930000D02*
X20070000Y4470000D01*
X21340000Y4750000D02*
X22890000Y4750000D01*
X22890000Y4750000D02*
X22890000Y1650000D01*
X20070000Y4470000D02*
X17530000Y4470000D01*
X17530000Y4470000D02*
X17530000Y1930000D01*
X6700000Y14170000D02*
X6700000Y15720000D01*
X5400000Y14170000D02*
X6700000Y14170000D01*
X1209000Y15593000D02*
X-4633000Y15593000D01*
X-4633000Y15593000D02*
X-4633000Y15847000D01*
X-4633000Y15847000D02*
X1209000Y15847000D01*
X1209000Y15847000D02*
X1209000Y15720000D01*
X1209000Y15720000D02*
X-4633000Y15720000D01*
X3876000Y15466000D02*
X4257000Y15466000D01*
X3876000Y15974000D02*
X4257000Y15974000D01*
X3876000Y18006000D02*
X4257000Y18006000D01*
X3876000Y18514000D02*
X4257000Y18514000D01*
X3876000Y20546000D02*
X4257000Y20546000D01*
X3876000Y21054000D02*
X4257000Y21054000D01*
X3876000Y23594000D02*
X4257000Y23594000D01*
X3876000Y23086000D02*
X4257000Y23086000D01*
X3876000Y14450000D02*
X1336000Y14450000D01*
X3876000Y16990000D02*
X1336000Y16990000D01*
X3876000Y16990000D02*
X3876000Y19530000D01*
X3876000Y19530000D02*
X1336000Y19530000D01*
X1336000Y18006000D02*
X-4760000Y18006000D01*
X-4760000Y18006000D02*
X-4760000Y18514000D01*
X-4760000Y18514000D02*
X1336000Y18514000D01*
X1336000Y19530000D02*
X1336000Y16990000D01*
X1336000Y16990000D02*
X1336000Y14450000D01*
X-4760000Y15974000D02*
X1336000Y15974000D01*
X-4760000Y15466000D02*
X-4760000Y15974000D01*
X1336000Y15466000D02*
X-4760000Y15466000D01*
X3876000Y16990000D02*
X1336000Y16990000D01*
X3876000Y14450000D02*
X3876000Y16990000D01*
X3876000Y22070000D02*
X1336000Y22070000D01*
X3876000Y22070000D02*
X3876000Y24610000D01*
X3876000Y24610000D02*
X1336000Y24610000D01*
X1336000Y23086000D02*
X-4760000Y23086000D01*
X-4760000Y23086000D02*
X-4760000Y23594000D01*
X-4760000Y23594000D02*
X1336000Y23594000D01*
X1336000Y24610000D02*
X1336000Y22070000D01*
X1336000Y22070000D02*
X1336000Y19530000D01*
X-4760000Y21054000D02*
X1336000Y21054000D01*
X-4760000Y20546000D02*
X-4760000Y21054000D01*
X1336000Y20546000D02*
X-4760000Y20546000D01*
X3876000Y22070000D02*
X1336000Y22070000D01*
X3876000Y19530000D02*
X3876000Y22070000D01*
X3876000Y19530000D02*
X1336000Y19530000D01*
X59270000Y38930000D02*
X56730000Y38930000D01*
X62090000Y38650000D02*
X60540000Y38650000D01*
X59270000Y38930000D02*
X59270000Y41470000D01*
X60540000Y41750000D02*
X62090000Y41750000D01*
X62090000Y41750000D02*
X62090000Y38650000D01*
X59270000Y41470000D02*
X56730000Y41470000D01*
X56730000Y41470000D02*
X56730000Y38930000D01*
X106230000Y39730000D02*
X93530000Y39730000D01*
X93530000Y39730000D02*
X93530000Y42270000D01*
X93530000Y42270000D02*
X106230000Y42270000D01*
X109050000Y39450000D02*
X107500000Y39450000D01*
X106230000Y39730000D02*
X106230000Y42270000D01*
X107500000Y42550000D02*
X109050000Y42550000D01*
X109050000Y42550000D02*
X109050000Y39450000D01*
X80830000Y39830000D02*
X68130000Y39830000D01*
X68130000Y39830000D02*
X68130000Y42370000D01*
X68130000Y42370000D02*
X80830000Y42370000D01*
X83650000Y39550000D02*
X82100000Y39550000D01*
X80830000Y39830000D02*
X80830000Y42370000D01*
X82100000Y42650000D02*
X83650000Y42650000D01*
X83650000Y42650000D02*
X83650000Y39550000D01*
X104119640Y34945360D02*
X103357640Y34945360D01*
X104119640Y35453360D02*
X103357640Y35453360D01*
X106151640Y34945360D02*
G75*
G03X104754640Y36850360I-1651000J254000D01*
G01*
X104627640Y33548360D02*
G75*
G03X106151640Y35326360I-127000J1651000D01*
G01*
X105389640Y36596360D02*
G75*
G03X103103640Y36088360I-889000J-1397000D01*
G01*
X103103640Y34310360D02*
G75*
G03X105389640Y33802360I1397000J889000D01*
G01*
X108310640Y31897360D02*
X108183640Y31897360D01*
X104500640Y31897360D02*
X105897640Y31897360D01*
X108310640Y38501360D02*
X108183640Y38501360D01*
X104500640Y38501360D02*
X105897640Y38501360D01*
X107421640Y34056360D02*
X107548640Y34437360D01*
X107548640Y34437360D02*
X107675640Y35199360D01*
X107675640Y35199360D02*
X107548640Y35961360D01*
X107548640Y35961360D02*
X107421640Y36342360D01*
X106532640Y33929360D02*
X106532640Y36469360D01*
X105770640Y38120360D02*
G75*
G03X101579640Y36469360I-1270000J-2921000D01*
G01*
X101579640Y33929360D02*
G75*
G03X105770640Y32278360I2921000J1270000D01*
G01*
X101198640Y37231360D02*
X101198640Y36342360D01*
X101198640Y34056360D02*
X101198640Y33167360D01*
X104119640Y36850360D02*
X104119640Y37358360D01*
X104119640Y37358360D02*
X104881640Y37358360D01*
X104881640Y37358360D02*
X104881640Y36850360D01*
X104119640Y33548360D02*
X104119640Y33040360D01*
X104119640Y33040360D02*
X104881640Y33040360D01*
X104881640Y33040360D02*
X104881640Y33548360D01*
X104754640Y35707360D02*
X104754640Y36850360D01*
X104246640Y35707360D02*
X104246640Y36850360D01*
X104754640Y34691360D02*
X104754640Y33548360D01*
X104246640Y34691360D02*
X104246640Y33548360D01*
X104881640Y35453360D02*
X106151640Y35453360D01*
X104881640Y34945360D02*
X106151640Y34945360D01*
X104119640Y34691360D02*
X104881640Y34691360D01*
X104881640Y34691360D02*
X104881640Y35707360D01*
X104881640Y35707360D02*
X104119640Y35707360D01*
X104119640Y35707360D02*
X104119640Y34691360D01*
X101198640Y33167360D02*
X102595640Y31897360D01*
X102595640Y31897360D02*
X104500640Y31897360D01*
X101198640Y37231360D02*
X102595640Y38501360D01*
X102595640Y38501360D02*
X104500640Y38501360D01*
X108310640Y38247360D02*
X108564640Y38247360D01*
X108564640Y38247360D02*
X108564640Y37104360D01*
X108564640Y37104360D02*
X108310640Y37104360D01*
X108310640Y32151360D02*
X108564640Y32151360D01*
X108564640Y32151360D02*
X108564640Y33294360D01*
X108564640Y33294360D02*
X108310640Y33294360D01*
X108310640Y31897360D02*
X108310640Y38501360D01*
X42730000Y12200000D02*
X39330000Y12200000D01*
X42727056Y12197056D02*
G75*
G02X41030000Y8100000I-1697056J-1697056D01*
G01*
X39332944Y12197056D02*
G75*
G03X41030000Y8100000I1697056J-1697056D01*
G01*
X42730000Y16500000D02*
X39330000Y16500000D01*
X42727056Y16497056D02*
G75*
G02X41030000Y12400000I-1697056J-1697056D01*
G01*
X39332944Y16497056D02*
G75*
G03X41030000Y12400000I1697056J-1697056D01*
G01*
X96237000Y28039000D02*
X88236000Y28039000D01*
X88236000Y38961000D02*
X96237000Y38961000D01*
X88236000Y28039000D02*
X88236000Y38961000D01*
X96237000Y38961000D02*
X96237000Y28039000D01*
X91792000Y28039000D02*
X91792000Y28801000D01*
X91792000Y28801000D02*
X92808000Y28801000D01*
X92808000Y28801000D02*
X92808000Y28039000D01*
X23915051Y30130339D02*
X24340715Y29988451D01*
X24340715Y29988451D02*
X24836425Y29636425D01*
X24836425Y29636425D02*
X25118405Y29210761D01*
X25118405Y29210761D02*
X25330339Y28434867D01*
X25330339Y28434867D02*
X25188451Y27725426D01*
X25188451Y27725426D02*
X24906471Y27159670D01*
X24906471Y27159670D02*
X20240330Y22493529D01*
X20240330Y22493529D02*
X19602732Y22139707D01*
X19602732Y22139707D02*
X19108818Y22069661D01*
X19108818Y22069661D02*
X18471219Y22139707D01*
X18471219Y22139707D02*
X17905463Y22421687D01*
X17905463Y22421687D02*
X17551641Y22775509D01*
X17551641Y22775509D02*
X17339707Y23271219D01*
X17339707Y23271219D02*
X17269661Y24048910D01*
X17269661Y24048910D02*
X17411549Y24614666D01*
X17411549Y24614666D02*
X17693529Y25040330D01*
X17763575Y25110376D02*
X22431512Y29778313D01*
X22431512Y29778313D02*
X22785334Y29988451D01*
X22785334Y29988451D02*
X23351090Y30130339D01*
X23351090Y30130339D02*
X24058735Y30130339D01*
X17397181Y25491139D02*
X17106220Y25131928D01*
X17106220Y25131928D02*
X16903267Y24770922D01*
X16903267Y24770922D02*
X16752398Y24311133D01*
X16752398Y24311133D02*
X16711089Y23942942D01*
X16711089Y23942942D02*
X16725458Y23461601D01*
X16725458Y23461601D02*
X16901471Y22876088D01*
X16901471Y22876088D02*
X17233740Y22360621D01*
X17233740Y22360621D02*
X17594746Y21999615D01*
X17594746Y21999615D02*
X18210792Y21624240D01*
X18210792Y21624240D02*
X18909456Y21489537D01*
X18909456Y21489537D02*
X19496765Y21552398D01*
X19496765Y21552398D02*
X19942185Y21703267D01*
X19942185Y21703267D02*
X20373238Y21908016D01*
X20373238Y21908016D02*
X20705507Y22197181D01*
X25741635Y27542229D02*
X25852990Y27966097D01*
X25852990Y27966097D02*
X25881727Y28389965D01*
X25881727Y28389965D02*
X25826049Y28801261D01*
X25826049Y28801261D02*
X25648240Y29402938D01*
X25648240Y29402938D02*
X25393201Y29812438D01*
X25393201Y29812438D02*
X25082484Y30151892D01*
X25082484Y30151892D02*
X24694537Y30414115D01*
X24694537Y30414115D02*
X24241932Y30597312D01*
X24241932Y30597312D02*
X23654623Y30674542D01*
X23654623Y30674542D02*
X23180466Y30652990D01*
X23180466Y30652990D02*
X22742229Y30541635D01*
X22742229Y30541635D02*
X22339914Y30336885D01*
X22339914Y30336885D02*
X21978907Y30072865D01*
X20683954Y22189996D02*
X25245925Y26751967D01*
X25245925Y26751967D02*
X25515332Y27075256D01*
X25515332Y27075256D02*
X25741635Y27542229D01*
X17389996Y25483954D02*
X21951967Y30045925D01*
X97550000Y23950000D02*
X96000000Y23950000D01*
X96000000Y27050000D02*
X97550000Y27050000D01*
X97550000Y27050000D02*
X97550000Y23950000D01*
X94730000Y26770000D02*
X94730000Y24230000D01*
X97550000Y6950000D02*
X96000000Y6950000D01*
X96000000Y10050000D02*
X97550000Y10050000D01*
X97550000Y10050000D02*
X97550000Y6950000D01*
X94730000Y9770000D02*
X94730000Y7230000D01*
X23900000Y43975000D02*
X25900000Y43975000D01*
X25900000Y46025000D02*
X23900000Y46025000D01*
X2700000Y25975000D02*
X4700000Y25975000D01*
X4700000Y28025000D02*
X2700000Y28025000D01*
X72875000Y47500000D02*
X72875000Y45500000D01*
X74925000Y45500000D02*
X74925000Y47500000D01*
X75175000Y47500000D02*
X75175000Y45500000D01*
X77225000Y45500000D02*
X77225000Y47500000D01*
X61675000Y47400000D02*
X61675000Y45400000D01*
X63725000Y45400000D02*
X63725000Y47400000D01*
X63975000Y47400000D02*
X63975000Y45400000D01*
X66025000Y45400000D02*
X66025000Y47400000D01*
X60875000Y5320000D02*
X60875000Y3320000D01*
X62925000Y3320000D02*
X62925000Y5320000D01*
X56075000Y5300000D02*
X56075000Y3300000D01*
X58125000Y3300000D02*
X58125000Y5300000D01*
X69375000Y5500000D02*
X69375000Y3500000D01*
X71425000Y3500000D02*
X71425000Y5500000D01*
X31817678Y8868109D02*
X33231891Y10282322D01*
X31782322Y11731891D02*
X30368109Y10317678D01*
X84400000Y1275000D02*
X86400000Y1275000D01*
X86400000Y3325000D02*
X84400000Y3325000D01*
X108625000Y7600000D02*
X108625000Y9600000D01*
X106575000Y9600000D02*
X106575000Y7600000D01*
X88400000Y41725000D02*
X86400000Y41725000D01*
X86400000Y39675000D02*
X88400000Y39675000D01*
X101470000Y48115000D02*
X99470000Y48115000D01*
X99470000Y46065000D02*
X101470000Y46065000D01*
X101860000Y45245000D02*
X99860000Y45245000D01*
X99860000Y43195000D02*
X101860000Y43195000D01*
X99049760Y12099160D02*
X99049760Y12050900D01*
X99750800Y9300180D02*
X99049760Y9300180D01*
X99049760Y9300180D02*
X99049760Y9549100D01*
X99049760Y12099160D02*
X99049760Y12299820D01*
X99049760Y12299820D02*
X99750800Y12299820D01*
X95849000Y14099160D02*
X95849000Y14050900D01*
X96550040Y11300180D02*
X95849000Y11300180D01*
X95849000Y11300180D02*
X95849000Y11549100D01*
X95849000Y14099160D02*
X95849000Y14299820D01*
X95849000Y14299820D02*
X96550040Y14299820D01*
X101049160Y27351000D02*
X101000900Y27351000D01*
X98250180Y26649960D02*
X98250180Y27351000D01*
X98250180Y27351000D02*
X98499100Y27351000D01*
X101049160Y27351000D02*
X101249820Y27351000D01*
X101249820Y27351000D02*
X101249820Y26649960D01*
X97349760Y22299160D02*
X97349760Y22250900D01*
X98050800Y19500180D02*
X97349760Y19500180D01*
X97349760Y19500180D02*
X97349760Y19749100D01*
X97349760Y22299160D02*
X97349760Y22499820D01*
X97349760Y22499820D02*
X98050800Y22499820D01*
X82049760Y48299160D02*
X82049760Y48250900D01*
X82750800Y45500180D02*
X82049760Y45500180D01*
X82049760Y45500180D02*
X82049760Y45749100D01*
X82049760Y48299160D02*
X82049760Y48499820D01*
X82049760Y48499820D02*
X82750800Y48499820D01*
X58775000Y46400000D02*
X58775000Y44400000D01*
X56625000Y44400000D02*
X56625000Y46400000D01*
X61375000Y47400000D02*
X61375000Y45400000D01*
X59225000Y45400000D02*
X59225000Y47400000D01*
X74800000Y4525000D02*
X72800000Y4525000D01*
X72800000Y6675000D02*
X74800000Y6675000D01*
X63225000Y3400000D02*
X63225000Y5400000D01*
X65375000Y5400000D02*
X65375000Y3400000D01*
X58425000Y3400000D02*
X58425000Y5400000D01*
X60575000Y5400000D02*
X60575000Y3400000D01*
X30835000Y5820000D02*
X30835000Y3820000D01*
X28685000Y3820000D02*
X28685000Y5820000D01*
X36845000Y3730000D02*
X36845000Y5730000D01*
X38995000Y5730000D02*
X38995000Y3730000D01*
X42315000Y3600000D02*
X42315000Y5600000D01*
X44465000Y5600000D02*
X44465000Y3600000D01*
X101275000Y15700000D02*
X101275000Y13700000D01*
X99125000Y13700000D02*
X99125000Y15700000D01*
X97800000Y14625000D02*
X95800000Y14625000D01*
X95800000Y16775000D02*
X97800000Y16775000D01*
X99000000Y24875000D02*
X101000000Y24875000D01*
X101000000Y22725000D02*
X99000000Y22725000D01*
X99400000Y17025000D02*
X97400000Y17025000D01*
X97400000Y19175000D02*
X99400000Y19175000D01*
X100925000Y3900000D02*
X100925000Y5900000D01*
X103075000Y5900000D02*
X103075000Y3900000D01*
X88900000Y4075000D02*
X90900000Y4075000D01*
X90900000Y1925000D02*
X88900000Y1925000D01*
X100075000Y6800000D02*
X100075000Y4800000D01*
X97925000Y4800000D02*
X97925000Y6800000D01*
X102900000Y10275000D02*
X104900000Y10275000D01*
X104900000Y8125000D02*
X102900000Y8125000D01*
X88300000Y48375000D02*
X90300000Y48375000D01*
X90300000Y46225000D02*
X88300000Y46225000D01*
X70200000Y45300000D02*
G75*
G03X70200000Y45300000I-100000J0D01*
G01*
X69550000Y45550000D02*
X70050000Y45550000D01*
X69550000Y48450000D02*
X69550000Y45550000D01*
X70050000Y48450000D02*
X69550000Y48450000D01*
X70050000Y45550000D02*
X70050000Y48450000D01*
X67800000Y2100000D02*
G75*
G03X67800000Y2100000I-100000J0D01*
G01*
X67150000Y2350000D02*
X67650000Y2350000D01*
X67150000Y5250000D02*
X67150000Y2350000D01*
X67650000Y5250000D02*
X67150000Y5250000D01*
X67650000Y2350000D02*
X67650000Y5250000D01*
X40349760Y18399160D02*
X40349760Y18350900D01*
X41050800Y15600180D02*
X40349760Y15600180D01*
X40349760Y15600180D02*
X40349760Y15849100D01*
X40349760Y18399160D02*
X40349760Y18599820D01*
X40349760Y18599820D02*
X41050800Y18599820D01*
X40349760Y21699160D02*
X40349760Y21650900D01*
X41050800Y18900180D02*
X40349760Y18900180D01*
X40349760Y18900180D02*
X40349760Y19149100D01*
X40349760Y21699160D02*
X40349760Y21899820D01*
X40349760Y21899820D02*
X41050800Y21899820D01*
X33149760Y5979160D02*
X33149760Y5930900D01*
X33850800Y3180180D02*
X33149760Y3180180D01*
X33149760Y3180180D02*
X33149760Y3429100D01*
X33149760Y5979160D02*
X33149760Y6179820D01*
X33149760Y6179820D02*
X33850800Y6179820D01*
X94700000Y1000000D02*
G75*
G03X94700000Y1000000I-100000J0D01*
G01*
X94050000Y1250000D02*
X94550000Y1250000D01*
X94050000Y4150000D02*
X94050000Y1250000D01*
X94550000Y4150000D02*
X94050000Y4150000D01*
X94550000Y1250000D02*
X94550000Y4150000D01*
M02*
