G04 #@! TF.FileFunction,Soldermask,Bot*
%FSLAX46Y46*%
G04 Gerber Fmt 4.6, Leading zero omitted, Abs format (unit mm)*
G04 Created by KiCad (PCBNEW 4.0.4-stable) date 12/06/16 19:38:57*
%MOMM*%
%LPD*%
G01*
G04 APERTURE LIST*
%ADD10C,0.100000*%
%ADD11R,1.300000X2.100000*%
%ADD12C,2.900000*%
%ADD13C,1.700000*%
%ADD14R,1.700000X1.700000*%
%ADD15R,1.620000X1.310000*%
%ADD16C,6.400000*%
%ADD17C,4.400000*%
%ADD18C,10.400000*%
%ADD19R,2.127200X2.127200*%
%ADD20O,2.127200X2.127200*%
%ADD21R,2.432000X2.432000*%
%ADD22O,2.432000X2.432000*%
%ADD23R,2.432000X2.127200*%
%ADD24O,2.432000X2.127200*%
%ADD25R,2.127200X2.432000*%
%ADD26O,2.127200X2.432000*%
%ADD27C,2.899360*%
%ADD28R,1.543000X0.908000*%
%ADD29O,1.299160X1.901140*%
%ADD30C,1.901140*%
%ADD31O,1.400760X1.901140*%
%ADD32R,2.635200X2.635200*%
%ADD33R,1.400000X2.000000*%
%ADD34R,2.000000X1.400000*%
%ADD35R,2.100000X1.300000*%
%ADD36R,1.460000X1.050000*%
G04 APERTURE END LIST*
D10*
X110000000Y46000000D02*
G75*
G03X106000000Y50000000I-4000000J0D01*
G01*
X106000000Y0D02*
G75*
G03X110000000Y4000000I0J4000000D01*
G01*
X108000000Y3500000D02*
G75*
G03X108000000Y3500000I-1500000J0D01*
G01*
X108000000Y46500000D02*
G75*
G03X108000000Y46500000I-1500000J0D01*
G01*
X53000000Y46500000D02*
G75*
G03X53000000Y46500000I-1500000J0D01*
G01*
X53000000Y3500000D02*
G75*
G03X53000000Y3500000I-1500000J0D01*
G01*
X10000000Y46500000D02*
G75*
G03X10000000Y46500000I-1500000J0D01*
G01*
X10000000Y3500000D02*
G75*
G03X10000000Y3500000I-1500000J0D01*
G01*
X0Y4000000D02*
G75*
G03X4000000Y0I4000000J0D01*
G01*
X4000000Y50000000D02*
G75*
G03X0Y46000000I0J-4000000D01*
G01*
X4000000Y50000000D02*
X106000000Y50000000D01*
X106000000Y0D02*
X4000000Y0D01*
X47500000Y26000000D02*
G75*
G03X46500000Y25000000I0J-1000000D01*
G01*
X47500000Y26000000D02*
X92500000Y26000000D01*
X93500000Y25000000D02*
G75*
G03X92500000Y26000000I-1000000J0D01*
G01*
X93500000Y9000000D02*
X93500000Y25000000D01*
X92500000Y8000000D02*
G75*
G03X93500000Y9000000I0J1000000D01*
G01*
X92500000Y8000000D02*
X47500000Y8000000D01*
X46500000Y9000000D02*
G75*
G03X47500000Y8000000I1000000J0D01*
G01*
X46500000Y9000000D02*
X46500000Y25000000D01*
X0Y4000000D02*
X0Y46000000D01*
X110000000Y46000000D02*
X110000000Y4000000D01*
X33000000Y34500000D02*
G75*
G03X33000000Y34500000I-4000000J0D01*
G01*
D11*
X105250000Y16500000D03*
X108150000Y16500000D03*
D12*
X78400000Y33800000D03*
X83400000Y33800000D03*
X63700000Y33800000D03*
X68700000Y33800000D03*
D13*
X106900000Y21000000D03*
D14*
X104400000Y21000000D03*
D13*
X106900000Y14040000D03*
D14*
X104400000Y14040000D03*
D13*
X106900000Y27800000D03*
D14*
X104400000Y27800000D03*
D15*
X102300000Y22865000D03*
X102300000Y26135000D03*
X104300000Y30465000D03*
X104300000Y33735000D03*
D16*
X8500000Y3500000D03*
D17*
X8500000Y3500000D03*
D16*
X51500000Y3500000D03*
D17*
X51500000Y3500000D03*
D16*
X106500000Y3500000D03*
D17*
X106500000Y3500000D03*
D16*
X106500000Y46500000D03*
D17*
X106500000Y46500000D03*
D16*
X51500000Y46500000D03*
D17*
X51500000Y46500000D03*
D16*
X8500000Y46500000D03*
D17*
X8500000Y46500000D03*
D18*
X29000000Y34500000D03*
D19*
X33400000Y24640000D03*
D20*
X35940000Y24640000D03*
X33400000Y22100000D03*
X35940000Y22100000D03*
X33400000Y19560000D03*
X35940000Y19560000D03*
D21*
X26200000Y47300000D03*
D22*
X23660000Y47300000D03*
D21*
X2600000Y30260000D03*
D22*
X2600000Y32800000D03*
D21*
X21340000Y3200000D03*
D22*
X18800000Y3200000D03*
D23*
X5400000Y15720000D03*
D24*
X5400000Y18260000D03*
X5400000Y20800000D03*
X5400000Y23340000D03*
D21*
X60540000Y40200000D03*
D22*
X58000000Y40200000D03*
D25*
X107500000Y41000000D03*
D26*
X104960000Y41000000D03*
X102420000Y41000000D03*
X99880000Y41000000D03*
X97340000Y41000000D03*
X94800000Y41000000D03*
D25*
X82100000Y41100000D03*
D26*
X79560000Y41100000D03*
X77020000Y41100000D03*
X74480000Y41100000D03*
X71940000Y41100000D03*
X69400000Y41100000D03*
D27*
X101960640Y35199360D03*
X107000000Y37698720D03*
X107000000Y32700000D03*
D10*
G36*
X21984111Y20879344D02*
X20781690Y22081765D01*
X21454275Y22754350D01*
X22656696Y21551929D01*
X21984111Y20879344D01*
X21984111Y20879344D01*
G37*
G36*
X22548071Y21443304D02*
X21345650Y22645725D01*
X22018235Y23318310D01*
X23220656Y22115889D01*
X22548071Y21443304D01*
X22548071Y21443304D01*
G37*
G36*
X23113828Y22009060D02*
X21911407Y23211481D01*
X22583992Y23884066D01*
X23786413Y22681645D01*
X23113828Y22009060D01*
X23113828Y22009060D01*
G37*
G36*
X23679584Y22574816D02*
X22477163Y23777237D01*
X23149748Y24449822D01*
X24352169Y23247401D01*
X23679584Y22574816D01*
X23679584Y22574816D01*
G37*
G36*
X24245340Y23140572D02*
X23042919Y24342993D01*
X23715504Y25015578D01*
X24917925Y23813157D01*
X24245340Y23140572D01*
X24245340Y23140572D01*
G37*
G36*
X20286843Y19182075D02*
X19084422Y20384496D01*
X19757007Y21057081D01*
X20959428Y19854660D01*
X20286843Y19182075D01*
X20286843Y19182075D01*
G37*
G36*
X20852599Y19747831D02*
X19650178Y20950252D01*
X20322763Y21622837D01*
X21525184Y20420416D01*
X20852599Y19747831D01*
X20852599Y19747831D01*
G37*
G36*
X21418355Y20313587D02*
X20215934Y21516008D01*
X20888519Y22188593D01*
X22090940Y20986172D01*
X21418355Y20313587D01*
X21418355Y20313587D01*
G37*
G36*
X25554660Y23140572D02*
X24882075Y23813157D01*
X26084496Y25015578D01*
X26757081Y24342993D01*
X25554660Y23140572D01*
X25554660Y23140572D01*
G37*
G36*
X26120416Y22574816D02*
X25447831Y23247401D01*
X26650252Y24449822D01*
X27322837Y23777237D01*
X26120416Y22574816D01*
X26120416Y22574816D01*
G37*
G36*
X26686172Y22009060D02*
X26013587Y22681645D01*
X27216008Y23884066D01*
X27888593Y23211481D01*
X26686172Y22009060D01*
X26686172Y22009060D01*
G37*
G36*
X27251929Y21443304D02*
X26579344Y22115889D01*
X27781765Y23318310D01*
X28454350Y22645725D01*
X27251929Y21443304D01*
X27251929Y21443304D01*
G37*
G36*
X27815889Y20879344D02*
X27143304Y21551929D01*
X28345725Y22754350D01*
X29018310Y22081765D01*
X27815889Y20879344D01*
X27815889Y20879344D01*
G37*
G36*
X28381645Y20313587D02*
X27709060Y20986172D01*
X28911481Y22188593D01*
X29584066Y21516008D01*
X28381645Y20313587D01*
X28381645Y20313587D01*
G37*
G36*
X28947401Y19747831D02*
X28274816Y20420416D01*
X29477237Y21622837D01*
X30149822Y20950252D01*
X28947401Y19747831D01*
X28947401Y19747831D01*
G37*
G36*
X29513157Y19182075D02*
X28840572Y19854660D01*
X30042993Y21057081D01*
X30715578Y20384496D01*
X29513157Y19182075D01*
X29513157Y19182075D01*
G37*
G36*
X30042993Y17342919D02*
X28840572Y18545340D01*
X29513157Y19217925D01*
X30715578Y18015504D01*
X30042993Y17342919D01*
X30042993Y17342919D01*
G37*
G36*
X29477237Y16777163D02*
X28274816Y17979584D01*
X28947401Y18652169D01*
X30149822Y17449748D01*
X29477237Y16777163D01*
X29477237Y16777163D01*
G37*
G36*
X28911481Y16211407D02*
X27709060Y17413828D01*
X28381645Y18086413D01*
X29584066Y16883992D01*
X28911481Y16211407D01*
X28911481Y16211407D01*
G37*
G36*
X28345725Y15645650D02*
X27143304Y16848071D01*
X27815889Y17520656D01*
X29018310Y16318235D01*
X28345725Y15645650D01*
X28345725Y15645650D01*
G37*
G36*
X27781765Y15081690D02*
X26579344Y16284111D01*
X27251929Y16956696D01*
X28454350Y15754275D01*
X27781765Y15081690D01*
X27781765Y15081690D01*
G37*
G36*
X27216008Y14515934D02*
X26013587Y15718355D01*
X26686172Y16390940D01*
X27888593Y15188519D01*
X27216008Y14515934D01*
X27216008Y14515934D01*
G37*
G36*
X26650252Y13950178D02*
X25447831Y15152599D01*
X26120416Y15825184D01*
X27322837Y14622763D01*
X26650252Y13950178D01*
X26650252Y13950178D01*
G37*
G36*
X26084496Y13384422D02*
X24882075Y14586843D01*
X25554660Y15259428D01*
X26757081Y14057007D01*
X26084496Y13384422D01*
X26084496Y13384422D01*
G37*
G36*
X23715504Y13384422D02*
X23042919Y14057007D01*
X24245340Y15259428D01*
X24917925Y14586843D01*
X23715504Y13384422D01*
X23715504Y13384422D01*
G37*
G36*
X23149748Y13950178D02*
X22477163Y14622763D01*
X23679584Y15825184D01*
X24352169Y15152599D01*
X23149748Y13950178D01*
X23149748Y13950178D01*
G37*
G36*
X22583992Y14515934D02*
X21911407Y15188519D01*
X23113828Y16390940D01*
X23786413Y15718355D01*
X22583992Y14515934D01*
X22583992Y14515934D01*
G37*
G36*
X22018235Y15081690D02*
X21345650Y15754275D01*
X22548071Y16956696D01*
X23220656Y16284111D01*
X22018235Y15081690D01*
X22018235Y15081690D01*
G37*
G36*
X21454275Y15645650D02*
X20781690Y16318235D01*
X21984111Y17520656D01*
X22656696Y16848071D01*
X21454275Y15645650D01*
X21454275Y15645650D01*
G37*
G36*
X20888519Y16211407D02*
X20215934Y16883992D01*
X21418355Y18086413D01*
X22090940Y17413828D01*
X20888519Y16211407D01*
X20888519Y16211407D01*
G37*
G36*
X20322763Y16777163D02*
X19650178Y17449748D01*
X20852599Y18652169D01*
X21525184Y17979584D01*
X20322763Y16777163D01*
X20322763Y16777163D01*
G37*
G36*
X19757007Y17342919D02*
X19084422Y18015504D01*
X20286843Y19217925D01*
X20959428Y18545340D01*
X19757007Y17342919D01*
X19757007Y17342919D01*
G37*
D28*
X20075000Y32695000D03*
X20075000Y33965000D03*
X20075000Y35235000D03*
X20075000Y36505000D03*
X13725000Y36505000D03*
X13725000Y35235000D03*
X13725000Y33965000D03*
X13725000Y32695000D03*
D29*
X41030000Y10500000D03*
X39760000Y10500000D03*
X42300000Y10500000D03*
X41030000Y14800000D03*
X39760000Y14800000D03*
X42300000Y14800000D03*
D30*
X19573995Y24373995D03*
X23026005Y27826005D03*
D31*
X11500000Y32250980D03*
X11500000Y34349020D03*
D32*
X96000000Y25500000D03*
X96000000Y8500000D03*
D33*
X44200000Y22500000D03*
X41200000Y22500000D03*
X44200000Y20200000D03*
X41200000Y20200000D03*
D10*
G36*
X36862742Y15351472D02*
X35448528Y13937258D01*
X34458578Y14927208D01*
X35872792Y16341422D01*
X36862742Y15351472D01*
X36862742Y15351472D01*
G37*
G36*
X34741422Y17472792D02*
X33327208Y16058578D01*
X32337258Y17048528D01*
X33751472Y18462742D01*
X34741422Y17472792D01*
X34741422Y17472792D01*
G37*
G36*
X19148528Y28362742D02*
X20562742Y26948528D01*
X19572792Y25958578D01*
X18158578Y27372792D01*
X19148528Y28362742D01*
X19148528Y28362742D01*
G37*
G36*
X17027208Y26241422D02*
X18441422Y24827208D01*
X17451472Y23837258D01*
X16037258Y25251472D01*
X17027208Y26241422D01*
X17027208Y26241422D01*
G37*
G36*
X20751472Y27137258D02*
X19337258Y28551472D01*
X20327208Y29541422D01*
X21741422Y28127208D01*
X20751472Y27137258D01*
X20751472Y27137258D01*
G37*
G36*
X22872792Y29258578D02*
X21458578Y30672792D01*
X22448528Y31662742D01*
X23862742Y30248528D01*
X22872792Y29258578D01*
X22872792Y29258578D01*
G37*
D33*
X9700000Y34500000D03*
X6700000Y34500000D03*
X9700000Y32200000D03*
X6700000Y32200000D03*
D10*
G36*
X25262742Y40751472D02*
X23848528Y39337258D01*
X22858578Y40327208D01*
X24272792Y41741422D01*
X25262742Y40751472D01*
X25262742Y40751472D01*
G37*
G36*
X23141422Y42872792D02*
X21727208Y41458578D01*
X20737258Y42448528D01*
X22151472Y43862742D01*
X23141422Y42872792D01*
X23141422Y42872792D01*
G37*
D33*
X18900000Y6300000D03*
X15900000Y6300000D03*
X104800000Y9400000D03*
X107800000Y9400000D03*
X104900000Y19100000D03*
X107900000Y19100000D03*
X104300000Y23000000D03*
X107300000Y23000000D03*
X104300000Y25570000D03*
X107300000Y25570000D03*
D34*
X14500000Y24200000D03*
X14500000Y27200000D03*
X12200000Y24200000D03*
X12200000Y27200000D03*
X9800000Y24200000D03*
X9800000Y27200000D03*
X32500000Y8600000D03*
X32500000Y5600000D03*
X30200000Y5600000D03*
X30200000Y8600000D03*
X35600000Y38500000D03*
X35600000Y41500000D03*
D35*
X16600000Y22650000D03*
X16600000Y19750000D03*
X49500000Y31350000D03*
X49500000Y34250000D03*
X52100000Y31350000D03*
X52100000Y34250000D03*
X11800000Y22650000D03*
X11800000Y19750000D03*
X14200000Y22650000D03*
X14200000Y19750000D03*
D11*
X28650000Y2800000D03*
X25750000Y2800000D03*
D10*
G36*
X38627387Y31457538D02*
X37142462Y29972613D01*
X36223223Y30891852D01*
X37708148Y32376777D01*
X38627387Y31457538D01*
X38627387Y31457538D01*
G37*
G36*
X36576777Y33508148D02*
X35091852Y32023223D01*
X34172613Y32942462D01*
X35657538Y34427387D01*
X36576777Y33508148D01*
X36576777Y33508148D01*
G37*
D11*
X100350000Y19100000D03*
X103250000Y19100000D03*
X107750000Y11900000D03*
X104850000Y11900000D03*
D35*
X25400000Y8750000D03*
X25400000Y5850000D03*
X27800000Y5800000D03*
X27800000Y8700000D03*
X38000000Y41550000D03*
X38000000Y38650000D03*
X38000000Y34250000D03*
X38000000Y37150000D03*
D11*
X42450000Y39100000D03*
X45350000Y39100000D03*
D35*
X40400000Y38650000D03*
X40400000Y41550000D03*
D10*
G36*
X41542462Y31327387D02*
X43027387Y29842462D01*
X42108148Y28923223D01*
X40623223Y30408148D01*
X41542462Y31327387D01*
X41542462Y31327387D01*
G37*
G36*
X39491852Y29276777D02*
X40976777Y27791852D01*
X40057538Y26872613D01*
X38572613Y28357538D01*
X39491852Y29276777D01*
X39491852Y29276777D01*
G37*
D11*
X41250000Y24900000D03*
X44150000Y24900000D03*
D36*
X101600000Y15350000D03*
X101600000Y16300000D03*
X101600000Y17250000D03*
X103800000Y17250000D03*
X103800000Y15350000D03*
M02*
