G04 #@! TF.FileFunction,Profile,NP*
%FSLAX46Y46*%
G04 Gerber Fmt 4.6, Leading zero omitted, Abs format (unit mm)*
G04 Created by KiCad (PCBNEW 4.0.4-stable) date 12/06/16 19:34:19*
%MOMM*%
%LPD*%
G01*
G04 APERTURE LIST*
%ADD10C,0.100000*%
G04 APERTURE END LIST*
D10*
X110000000Y46000000D02*
G75*
G03X106000000Y50000000I-4000000J0D01*
G01*
X106000000Y0D02*
G75*
G03X110000000Y4000000I0J4000000D01*
G01*
X108000000Y3500000D02*
G75*
G03X108000000Y3500000I-1500000J0D01*
G01*
X108000000Y46500000D02*
G75*
G03X108000000Y46500000I-1500000J0D01*
G01*
X53000000Y46500000D02*
G75*
G03X53000000Y46500000I-1500000J0D01*
G01*
X53000000Y3500000D02*
G75*
G03X53000000Y3500000I-1500000J0D01*
G01*
X10000000Y46500000D02*
G75*
G03X10000000Y46500000I-1500000J0D01*
G01*
X10000000Y3500000D02*
G75*
G03X10000000Y3500000I-1500000J0D01*
G01*
X0Y4000000D02*
G75*
G03X4000000Y0I4000000J0D01*
G01*
X4000000Y50000000D02*
G75*
G03X0Y46000000I0J-4000000D01*
G01*
X4000000Y50000000D02*
X106000000Y50000000D01*
X106000000Y0D02*
X4000000Y0D01*
X47500000Y26000000D02*
G75*
G03X46500000Y25000000I0J-1000000D01*
G01*
X47500000Y26000000D02*
X92500000Y26000000D01*
X93500000Y25000000D02*
G75*
G03X92500000Y26000000I-1000000J0D01*
G01*
X93500000Y9000000D02*
X93500000Y25000000D01*
X92500000Y8000000D02*
G75*
G03X93500000Y9000000I0J1000000D01*
G01*
X92500000Y8000000D02*
X47500000Y8000000D01*
X46500000Y9000000D02*
G75*
G03X47500000Y8000000I1000000J0D01*
G01*
X46500000Y9000000D02*
X46500000Y25000000D01*
X0Y4000000D02*
X0Y46000000D01*
X110000000Y46000000D02*
X110000000Y4000000D01*
X33000000Y34500000D02*
G75*
G03X33000000Y34500000I-4000000J0D01*
G01*
M02*
