M48
METRIC,LZ
T1C0.400
T2C0.599
T3C0.600
T4C0.800
T5C0.800
T6C1.016
T7C1.199
T8C3.000
T9C8.000
%
G90
G05
T1
X008Y0242
X0122Y0184
X0189Y0382
X0189Y0085
X0201Y0393
X0202Y0158
X0237Y0065
X0258Y0124
X0268Y0259
X0276Y0125
X0307Y0433
X031Y0127
X0312Y0184
X0322Y0153
X0338Y0147
X0366Y0359
X0377Y0126
X039Y0298
X0394Y037
X0397Y0087
X0409Y0374
X0432Y029
X0432Y0274
X0434Y0337
X0436Y0184
X0436Y0161
X0445Y0149
X0447Y0354
X0559Y0366
X0573Y0336
X059Y032
X0636Y0413
X0662Y0402
X0731Y0369
X0735Y0316
X0745Y0377
X0965Y0106
X0969Y0227
X0981Y0269
X0988Y0088
X0996Y0308
X1017Y0283
X1031Y0371
X1054Y0074
X1055Y039199
X1059Y0357
T2
X0115Y034049
X0115Y032551
T3
X03976Y0148
X03976Y0105
X04103Y0148
X04103Y0105
X0423Y0148
X0423Y0105
T4
X0637Y0338
X0687Y0338
X0784Y0338
X0834Y0338
X1044Y0278
X1044Y021
X1044Y01404
X1069Y0278
X1069Y021
X1069Y01404
T5
X019574Y024374
X023026Y027826
T6
X0026Y0328
X0026Y03026
X0054Y02334
X0054Y0208
X0054Y01826
X0054Y01572
X0188Y0032
X02134Y0032
X02366Y0473
X0262Y0473
X0334Y02464
X0334Y0221
X0334Y01956
X03594Y02464
X03594Y0221
X03594Y01956
X058Y0402
X06054Y0402
X0694Y0411
X07194Y0411
X07448Y0411
X07702Y0411
X07956Y0411
X0821Y0411
X0948Y041
X096Y0255
X096Y0085
X09734Y041
X09988Y041
X10242Y041
X10496Y041
X1075Y041
T7
X101961Y035199
X107Y037699
X107Y0327
T8
X0085Y0465
X0085Y0465
X0085Y0035
X0085Y0035
X0515Y0465
X0515Y0465
X0515Y0035
X0515Y0035
X1065Y0465
X1065Y0465
X1065Y0035
X1065Y0035
T9
X029Y0345
T0
M30
