G04 #@! TF.FileFunction,Soldermask,Top*
%FSLAX46Y46*%
G04 Gerber Fmt 4.6, Leading zero omitted, Abs format (unit mm)*
G04 Created by KiCad (PCBNEW 4.0.4-stable) date 12/06/16 19:38:57*
%MOMM*%
%LPD*%
G01*
G04 APERTURE LIST*
%ADD10C,0.100000*%
%ADD11R,1.300000X2.100000*%
%ADD12C,2.900000*%
%ADD13C,1.700000*%
%ADD14R,1.700000X1.700000*%
%ADD15R,1.620000X1.310000*%
%ADD16C,6.400000*%
%ADD17C,4.400000*%
%ADD18C,10.400000*%
%ADD19R,2.127200X2.127200*%
%ADD20O,2.127200X2.127200*%
%ADD21R,2.432000X2.432000*%
%ADD22O,2.432000X2.432000*%
%ADD23R,2.432000X2.127200*%
%ADD24O,2.432000X2.127200*%
%ADD25R,2.127200X2.432000*%
%ADD26O,2.127200X2.432000*%
%ADD27C,2.899360*%
%ADD28O,1.299160X1.901140*%
%ADD29R,1.543000X0.908000*%
%ADD30C,1.901140*%
%ADD31O,1.400760X1.901140*%
%ADD32R,2.635200X2.635200*%
%ADD33R,1.400000X2.000000*%
%ADD34R,2.000000X1.400000*%
%ADD35R,1.540460X2.429460*%
%ADD36R,1.200100X1.200100*%
%ADD37R,2.100000X1.300000*%
%ADD38R,1.460000X1.050000*%
G04 APERTURE END LIST*
D10*
X110000000Y46000000D02*
G75*
G03X106000000Y50000000I-4000000J0D01*
G01*
X106000000Y0D02*
G75*
G03X110000000Y4000000I0J4000000D01*
G01*
X108000000Y3500000D02*
G75*
G03X108000000Y3500000I-1500000J0D01*
G01*
X108000000Y46500000D02*
G75*
G03X108000000Y46500000I-1500000J0D01*
G01*
X53000000Y46500000D02*
G75*
G03X53000000Y46500000I-1500000J0D01*
G01*
X53000000Y3500000D02*
G75*
G03X53000000Y3500000I-1500000J0D01*
G01*
X10000000Y46500000D02*
G75*
G03X10000000Y46500000I-1500000J0D01*
G01*
X10000000Y3500000D02*
G75*
G03X10000000Y3500000I-1500000J0D01*
G01*
X0Y4000000D02*
G75*
G03X4000000Y0I4000000J0D01*
G01*
X4000000Y50000000D02*
G75*
G03X0Y46000000I0J-4000000D01*
G01*
X4000000Y50000000D02*
X106000000Y50000000D01*
X106000000Y0D02*
X4000000Y0D01*
X47500000Y26000000D02*
G75*
G03X46500000Y25000000I0J-1000000D01*
G01*
X47500000Y26000000D02*
X92500000Y26000000D01*
X93500000Y25000000D02*
G75*
G03X92500000Y26000000I-1000000J0D01*
G01*
X93500000Y9000000D02*
X93500000Y25000000D01*
X92500000Y8000000D02*
G75*
G03X93500000Y9000000I0J1000000D01*
G01*
X92500000Y8000000D02*
X47500000Y8000000D01*
X46500000Y9000000D02*
G75*
G03X47500000Y8000000I1000000J0D01*
G01*
X46500000Y9000000D02*
X46500000Y25000000D01*
X0Y4000000D02*
X0Y46000000D01*
X110000000Y46000000D02*
X110000000Y4000000D01*
X33000000Y34500000D02*
G75*
G03X33000000Y34500000I-4000000J0D01*
G01*
D11*
X81250000Y3400000D03*
X78350000Y3400000D03*
D12*
X78400000Y33800000D03*
X83400000Y33800000D03*
X63700000Y33800000D03*
X68700000Y33800000D03*
D13*
X106900000Y21000000D03*
D14*
X104400000Y21000000D03*
D13*
X106900000Y14040000D03*
D14*
X104400000Y14040000D03*
D13*
X106900000Y27800000D03*
D14*
X104400000Y27800000D03*
D15*
X57300000Y34965000D03*
X57300000Y38235000D03*
D16*
X8500000Y3500000D03*
D17*
X8500000Y3500000D03*
D16*
X51500000Y3500000D03*
D17*
X51500000Y3500000D03*
D16*
X106500000Y3500000D03*
D17*
X106500000Y3500000D03*
D16*
X106500000Y46500000D03*
D17*
X106500000Y46500000D03*
D16*
X51500000Y46500000D03*
D17*
X51500000Y46500000D03*
D16*
X8500000Y46500000D03*
D17*
X8500000Y46500000D03*
D18*
X29000000Y34500000D03*
D19*
X33400000Y24640000D03*
D20*
X35940000Y24640000D03*
X33400000Y22100000D03*
X35940000Y22100000D03*
X33400000Y19560000D03*
X35940000Y19560000D03*
D21*
X26200000Y47300000D03*
D22*
X23660000Y47300000D03*
D21*
X2600000Y30260000D03*
D22*
X2600000Y32800000D03*
D21*
X21340000Y3200000D03*
D22*
X18800000Y3200000D03*
D23*
X5400000Y15720000D03*
D24*
X5400000Y18260000D03*
X5400000Y20800000D03*
X5400000Y23340000D03*
D21*
X60540000Y40200000D03*
D22*
X58000000Y40200000D03*
D25*
X107500000Y41000000D03*
D26*
X104960000Y41000000D03*
X102420000Y41000000D03*
X99880000Y41000000D03*
X97340000Y41000000D03*
X94800000Y41000000D03*
D25*
X82100000Y41100000D03*
D26*
X79560000Y41100000D03*
X77020000Y41100000D03*
X74480000Y41100000D03*
X71940000Y41100000D03*
X69400000Y41100000D03*
D27*
X101960640Y35199360D03*
X107000000Y37698720D03*
X107000000Y32700000D03*
D28*
X41030000Y10500000D03*
X39760000Y10500000D03*
X42300000Y10500000D03*
X41030000Y14800000D03*
X39760000Y14800000D03*
X42300000Y14800000D03*
D29*
X97380000Y29055000D03*
X97380000Y30325000D03*
X97380000Y31595000D03*
X97380000Y32865000D03*
X97380000Y34135000D03*
X97380000Y35405000D03*
X97380000Y36675000D03*
X97380000Y37945000D03*
X87220000Y37945000D03*
X87220000Y36675000D03*
X87220000Y35405000D03*
X87220000Y34135000D03*
X87220000Y32865000D03*
X87220000Y31595000D03*
X87220000Y30325000D03*
X87220000Y29055000D03*
D30*
X19573995Y24373995D03*
X23026005Y27826005D03*
D31*
X11500000Y32250980D03*
X11500000Y34349020D03*
D32*
X96000000Y25500000D03*
X96000000Y8500000D03*
D33*
X26400000Y45000000D03*
X23400000Y45000000D03*
X5200000Y27000000D03*
X2200000Y27000000D03*
D34*
X73900000Y45000000D03*
X73900000Y48000000D03*
X76200000Y45000000D03*
X76200000Y48000000D03*
X62700000Y44900000D03*
X62700000Y47900000D03*
X65000000Y44900000D03*
X65000000Y47900000D03*
X61900000Y2820000D03*
X61900000Y5820000D03*
X57100000Y2800000D03*
X57100000Y5800000D03*
X70400000Y3000000D03*
X70400000Y6000000D03*
D10*
G36*
X32648528Y12562742D02*
X34062742Y11148528D01*
X33072792Y10158578D01*
X31658578Y11572792D01*
X32648528Y12562742D01*
X32648528Y12562742D01*
G37*
G36*
X30527208Y10441422D02*
X31941422Y9027208D01*
X30951472Y8037258D01*
X29537258Y9451472D01*
X30527208Y10441422D01*
X30527208Y10441422D01*
G37*
D33*
X86900000Y2300000D03*
X83900000Y2300000D03*
D34*
X107600000Y10100000D03*
X107600000Y7100000D03*
D33*
X85900000Y40700000D03*
X88900000Y40700000D03*
X98970000Y47090000D03*
X101970000Y47090000D03*
X99360000Y44220000D03*
X102360000Y44220000D03*
D35*
X59303960Y29100000D03*
X56896040Y29100000D03*
D36*
X100700760Y9850000D03*
X100700760Y11750000D03*
X98701780Y10800000D03*
X97500000Y11850000D03*
X97500000Y13750000D03*
X95501020Y12800000D03*
X98800000Y25700000D03*
X100700000Y25700000D03*
X99750000Y27698980D03*
X99000760Y20050000D03*
X99000760Y21950000D03*
X97001780Y21000000D03*
X83700760Y46050000D03*
X83700760Y47950000D03*
X81701780Y47000000D03*
D37*
X57700000Y43950000D03*
X57700000Y46850000D03*
X60300000Y44950000D03*
X60300000Y47850000D03*
D11*
X72350000Y5600000D03*
X75250000Y5600000D03*
D37*
X64300000Y5850000D03*
X64300000Y2950000D03*
X59500000Y5850000D03*
X59500000Y2950000D03*
X29760000Y3370000D03*
X29760000Y6270000D03*
X37920000Y6180000D03*
X37920000Y3280000D03*
X43390000Y6050000D03*
X43390000Y3150000D03*
X100200000Y13250000D03*
X100200000Y16150000D03*
D11*
X95350000Y15700000D03*
X98250000Y15700000D03*
X101450000Y23800000D03*
X98550000Y23800000D03*
X96950000Y18100000D03*
X99850000Y18100000D03*
D37*
X102000000Y6350000D03*
X102000000Y3450000D03*
D11*
X91350000Y3000000D03*
X88450000Y3000000D03*
D37*
X99000000Y4350000D03*
X99000000Y7250000D03*
D11*
X105350000Y9200000D03*
X102450000Y9200000D03*
X90750000Y47300000D03*
X87850000Y47300000D03*
D38*
X70900000Y46050000D03*
X70900000Y47000000D03*
X70900000Y47950000D03*
X68700000Y47950000D03*
X68700000Y46050000D03*
X68500000Y2850000D03*
X68500000Y3800000D03*
X68500000Y4750000D03*
X66300000Y4750000D03*
X66300000Y2850000D03*
D36*
X42000760Y16150000D03*
X42000760Y18050000D03*
X40001780Y17100000D03*
X42000760Y19450000D03*
X42000760Y21350000D03*
X40001780Y20400000D03*
X34800760Y3730000D03*
X34800760Y5630000D03*
X32801780Y4680000D03*
D38*
X95400000Y1750000D03*
X95400000Y2700000D03*
X95400000Y3650000D03*
X93200000Y3650000D03*
X93200000Y1750000D03*
M02*
