<?xml version="1.0" standalone="no"?>
 <!DOCTYPE svg PUBLIC "-//W3C//DTD SVG 1.1//EN" 
 "http://www.w3.org/Graphics/SVG/1.1/DTD/svg11.dtd"> 
<svg xmlns="http://www.w3.org/2000/svg" version="1.1" 
    width="29.7002cm" height="21.0007cm" viewBox="0 0 116930 82680 ">
<title>SVG Picture created as Arduino_As_Uno-F.SilkS.svg date 2016/04/08 10:40:55 </title>
  <desc>Picture generated by PCBNEW </desc>
<g style="fill:#000000; fill-opacity:1;stroke:#000000; stroke-opacity:1;
stroke-linecap:round; stroke-linejoin:round; "
 transform="translate(0 0) scale(1 1)">
</g>
<g style="fill:#000000; fill-opacity:0.0; 
stroke:#000000; stroke-width:-0.000393701; stroke-opacity:1; 
stroke-linecap:round; stroke-linejoin:round;">
</g>
<g style="fill:#000000; fill-opacity:0.0; 
stroke:#000000; stroke-width:59.0551; stroke-opacity:1; 
stroke-linecap:round; stroke-linejoin:round;">
<path d="M54878 47637
L54878 47862
" />
<path d="M54878 47750
L54484 47750
L54540 47787
L54578 47824
L54596 47862
" />
<path d="M55200 49250
L62200 49250
" />
<path d="M62200 49250
L62200 48250
" />
<path d="M62200 48250
L55200 48250
" />
<path d="M54089 49360
L54700 49360
" />
<path d="M55200 49250
L55200 48250
" />
<path d="M54700 48139
L54089 48139
" />
<path d="M54089 48139
L54089 49360
" />
<path d="M64200 49250
L69200 49250
" />
<path d="M69200 49250
L69200 48250
" />
<path d="M69200 48250
L64200 48250
" />
<path d="M63089 49360
L63700 49360
" />
<path d="M64200 49250
L64200 48250
" />
<path d="M63700 48139
L63089 48139
" />
<path d="M63089 48139
L63089 49360
" />
<path d="M51600 30250
L60600 30250
" />
<path d="M60600 30250
L60600 29250
" />
<path d="M60600 29250
L51600 29250
" />
<path d="M50489 30360
L51100 30360
" />
<path d="M51600 30250
L51600 29250
" />
<path d="M51100 29139
L50489 29139
" />
<path d="M50489 29139
L50489 30360
" />
<path d="M62200 30250
L69200 30250
" />
<path d="M69200 30250
L69200 29250
" />
<path d="M69200 29250
L62200 29250
" />
<path d="M61089 30360
L61700 30360
" />
<path d="M62200 30250
L62200 29250
" />
<path d="M61700 29139
L61089 29139
" />
<path d="M61089 29139
L61089 30360
" />
<circle cx="49200" cy="48750" r="900" /> 
<circle cx="69700" cy="46750" r="900" /> 
<circle cx="49700" cy="29750" r="900" /> 
<circle cx="69700" cy="35750" r="900" /> 
<path d="M57705 39711
L57705 41678
" />
<path d="M57761 39714
L57761 40634
" />
<path d="M57761 40755
L57761 41675
" />
<path d="M57816 39720
L57816 40508
" />
<path d="M57816 40881
L57816 41669
" />
<path d="M57871 39729
L57871 40450
" />
<path d="M57871 40938
L57871 41659
" />
<path d="M57926 39742
L57926 40414
" />
<path d="M57926 40975
L57926 41646
" />
<path d="M57981 39759
L57981 40392
" />
<path d="M57981 40997
L57981 41630
" />
<path d="M58036 39778
L58036 40381
" />
<path d="M58036 41007
L58036 41611
" />
<path d="M58091 39802
L58091 40380
" />
<path d="M58091 41009
L58091 41587
" />
<path d="M58146 39830
L58146 40389
" />
<path d="M58146 41000
L58146 41559
" />
<path d="M58201 39862
L58201 40409
" />
<path d="M58201 40980
L58201 41527
" />
<path d="M58257 39900
L58257 40441
" />
<path d="M58257 40948
L58257 41489
" />
<path d="M58312 39943
L58312 40493
" />
<path d="M58312 40896
L58312 41446
" />
<path d="M58367 39994
L58367 40590
" />
<path d="M58367 40799
L58367 41395
" />
<path d="M58422 40052
L58422 41337
" />
<path d="M58477 40123
L58477 41266
" />
<path d="M58532 40209
L58532 41180
" />
<path d="M58587 40323
L58587 41066
" />
<path d="M58642 40509
L58642 40880
" />
<circle cx="58070.1" cy="40694.9" r="314.961" /> 
<circle cx="57676.4" cy="40694.9" r="999.016" /> 
<path d="M55737 38529
L55737 40497
" />
<path d="M55792 38533
L55792 39453
" />
<path d="M55792 39574
L55792 40494
" />
<path d="M55847 38539
L55847 39327
" />
<path d="M55847 39700
L55847 40488
" />
<path d="M55902 38548
L55902 39269
" />
<path d="M55902 39757
L55902 40478
" />
<path d="M55957 38561
L55957 39233
" />
<path d="M55957 39794
L55957 40465
" />
<path d="M56012 38577
L56012 39211
" />
<path d="M56012 39816
L56012 40449
" />
<path d="M56068 38597
L56068 39200
" />
<path d="M56068 39826
L56068 40429
" />
<path d="M56123 38621
L56123 39199
" />
<path d="M56123 39827
L56123 40405
" />
<path d="M56178 38649
L56178 39208
" />
<path d="M56178 39819
L56178 40378
" />
<path d="M56233 38681
L56233 39227
" />
<path d="M56233 39799
L56233 40346
" />
<path d="M56288 38718
L56288 39260
" />
<path d="M56288 39767
L56288 40308
" />
<path d="M56343 38762
L56343 39312
" />
<path d="M56343 39715
L56343 40264
" />
<path d="M56398 38812
L56398 39409
" />
<path d="M56398 39618
L56398 40214
" />
<path d="M56453 38871
L56453 40155
" />
<path d="M56509 38942
L56509 40085
" />
<path d="M56564 39028
L56564 39999
" />
<path d="M56619 39142
L56619 39885
" />
<path d="M56674 39327
L56674 39699
" />
<circle cx="56101.6" cy="39513.8" r="314.961" /> 
<circle cx="55707.9" cy="39513.8" r="999.016" /> 
<path d="M57705 37348
L57705 39316
" />
<path d="M57761 37351
L57761 38272
" />
<path d="M57761 38393
L57761 39313
" />
<path d="M57816 37358
L57816 38146
" />
<path d="M57816 38518
L57816 39307
" />
<path d="M57871 37367
L57871 38088
" />
<path d="M57871 38576
L57871 39297
" />
<path d="M57926 37380
L57926 38052
" />
<path d="M57926 38612
L57926 39284
" />
<path d="M57981 37396
L57981 38030
" />
<path d="M57981 38635
L57981 39268
" />
<path d="M58036 37416
L58036 38019
" />
<path d="M58036 38645
L58036 39248
" />
<path d="M58091 37440
L58091 38018
" />
<path d="M58091 38646
L58091 39224
" />
<path d="M58146 37468
L58146 38027
" />
<path d="M58146 38638
L58146 39197
" />
<path d="M58201 37500
L58201 38046
" />
<path d="M58201 38618
L58201 39164
" />
<path d="M58257 37537
L58257 38079
" />
<path d="M58257 38586
L58257 39127
" />
<path d="M58312 37581
L58312 38131
" />
<path d="M58312 38534
L58312 39083
" />
<path d="M58367 37631
L58367 38228
" />
<path d="M58367 38437
L58367 39033
" />
<path d="M58422 37690
L58422 38974
" />
<path d="M58477 37761
L58477 38904
" />
<path d="M58532 37847
L58532 38818
" />
<path d="M58587 37961
L58587 38704
" />
<path d="M58642 38146
L58642 38518
" />
<circle cx="58070.1" cy="38332.7" r="314.961" /> 
<circle cx="57676.4" cy="38332.7" r="999.016" /> 
<path d="M47440 41059
L49408 41059
" />
<path d="M47443 41003
L48363 41003
" />
<path d="M48485 41003
L49405 41003
" />
<path d="M47450 40948
L48238 40948
" />
<path d="M48610 40948
L49398 40948
" />
<path d="M47459 40893
L48180 40893
" />
<path d="M48668 40893
L49389 40893
" />
<path d="M47472 40838
L48144 40838
" />
<path d="M48704 40838
L49376 40838
" />
<path d="M47488 40783
L48122 40783
" />
<path d="M48726 40783
L49360 40783
" />
<path d="M47508 40728
L48111 40728
" />
<path d="M48737 40728
L49340 40728
" />
<path d="M47532 40673
L48110 40673
" />
<path d="M48738 40673
L49316 40673
" />
<path d="M47559 40618
L48118 40618
" />
<path d="M48729 40618
L49288 40618
" />
<path d="M47592 40562
L48138 40562
" />
<path d="M48710 40562
L49256 40562
" />
<path d="M47629 40507
L48170 40507
" />
<path d="M48677 40507
L49219 40507
" />
<path d="M47673 40452
L48222 40452
" />
<path d="M48625 40452
L49175 40452
" />
<path d="M47723 40397
L48320 40397
" />
<path d="M48528 40397
L49125 40397
" />
<path d="M47782 40342
L49066 40342
" />
<path d="M47852 40287
L48996 40287
" />
<path d="M47938 40232
L48909 40232
" />
<path d="M48052 40177
L48796 40177
" />
<path d="M48238 40122
L48610 40122
" />
<circle cx="48424.4" cy="40694.9" r="314.961" /> 
<circle cx="48424.4" cy="41088.6" r="999.016" /> 
<path d="M49408 38755
L47440 38755
" />
<path d="M49405 38811
L48485 38811
" />
<path d="M48363 38811
L47443 38811
" />
<path d="M49398 38866
L48610 38866
" />
<path d="M48238 38866
L47450 38866
" />
<path d="M49389 38921
L48668 38921
" />
<path d="M48180 38921
L47459 38921
" />
<path d="M49376 38976
L48704 38976
" />
<path d="M48144 38976
L47472 38976
" />
<path d="M49360 39031
L48726 39031
" />
<path d="M48122 39031
L47488 39031
" />
<path d="M49340 39086
L48737 39086
" />
<path d="M48111 39086
L47508 39086
" />
<path d="M49316 39141
L48738 39141
" />
<path d="M48110 39141
L47532 39141
" />
<path d="M49288 39196
L48729 39196
" />
<path d="M48118 39196
L47559 39196
" />
<path d="M49256 39251
L48710 39251
" />
<path d="M48138 39251
L47592 39251
" />
<path d="M49219 39307
L48677 39307
" />
<path d="M48170 39307
L47629 39307
" />
<path d="M49175 39362
L48625 39362
" />
<path d="M48222 39362
L47673 39362
" />
<path d="M49125 39417
L48528 39417
" />
<path d="M48320 39417
L47723 39417
" />
<path d="M49066 39472
L47782 39472
" />
<path d="M48996 39527
L47852 39527
" />
<path d="M48909 39582
L47938 39582
" />
<path d="M48796 39637
L48052 39637
" />
<path d="M48610 39692
L48238 39692
" />
<circle cx="48424.4" cy="39120.1" r="314.961" /> 
<circle cx="48424.4" cy="38726.4" r="999.016" /> 
<path d="M46140 36344
L48503 36344
" />
<path d="M48503 38116
L46140 38116
" />
<path d="M66042 42958
L66042 40005
" />
<path d="M66042 40005
L67814 40005
" />
<path d="M67814 40005
L67814 42958
" />
<path d="M67814 42958
L66042 42958
" />
<path d="M63837 39789
L63837 42151
" />
<path d="M62066 42151
L62066 39789
" />
<path d="M66278 39789
L66278 42151
" />
<path d="M64507 42151
L64507 39789
" />
<path d="M54231 46452
L54231 41728
" />
<path d="M54231 41728
L56003 41728
" />
<path d="M56003 41728
L56003 46452
" />
<path d="M56003 46452
L54231 46452
" />
<path d="M48011 47555
L48011 42830
" />
<path d="M48011 42830
L49782 42830
" />
<path d="M49782 42830
L49782 47555
" />
<path d="M49782 47555
L48011 47555
" />
<path d="M52845 43875
L53845 43875
" />
<path d="M53845 43875
L53845 39875
" />
<path d="M53845 39875
L52845 39875
" />
<path d="M52845 39875
L52845 43875
" />
<path d="M53345 39423
L53345 39875
" />
<path d="M53345 44328
L53345 43875
" />
<path d="M51467 43875
L52467 43875
" />
<path d="M52467 43875
L52467 39875
" />
<path d="M52467 39875
L51467 39875
" />
<path d="M51467 39875
L51467 43875
" />
<path d="M51967 39423
L51967 39875
" />
<path d="M51967 44328
L51967 43875
" />
<path d="M61192 40482
L61192 38482
" />
<path d="M61192 38482
L62192 38482
" />
<path d="M62192 38482
L62192 40482
" />
<path d="M62192 40482
L61192 40482
" />
<path d="M61692 40482
L61692 40982
" />
<path d="M61692 38482
L61692 37982
" />
<path d="M61192 45127
L61192 43127
" />
<path d="M61192 43127
L62192 43127
" />
<path d="M62192 43127
L62192 45127
" />
<path d="M62192 45127
L61192 45127
" />
<path d="M61692 45127
L61692 45627
" />
<path d="M61692 43127
L61692 42627
" />
<path d="M60168 40482
L60168 38482
" />
<path d="M60168 38482
L61168 38482
" />
<path d="M61168 38482
L61168 40482
" />
<path d="M61168 40482
L60168 40482
" />
<path d="M60668 40482
L60668 40982
" />
<path d="M60668 38482
L60668 37982
" />
<path d="M60168 45127
L60168 43127
" />
<path d="M60168 43127
L61168 43127
" />
<path d="M61168 43127
L61168 45127
" />
<path d="M61168 45127
L60168 45127
" />
<path d="M60668 45127
L60668 45627
" />
<path d="M60668 43127
L60668 42627
" />
<path d="M59144 40482
L59144 38482
" />
<path d="M59144 38482
L60144 38482
" />
<path d="M60144 38482
L60144 40482
" />
<path d="M60144 40482
L59144 40482
" />
<path d="M59644 40482
L59644 40982
" />
<path d="M59644 38482
L59644 37982
" />
<path d="M59144 45127
L59144 43127
" />
<path d="M59144 43127
L60144 43127
" />
<path d="M60144 43127
L60144 45127
" />
<path d="M60144 45127
L59144 45127
" />
<path d="M59644 45127
L59644 45627
" />
<path d="M59644 43127
L59644 42627
" />
<path d="M45459 38624
L45459 40624
" />
<path d="M45459 40624
L44459 40624
" />
<path d="M44459 40624
L44459 38624
" />
<path d="M44459 38624
L45459 38624
" />
<path d="M44959 38624
L44959 38124
" />
<path d="M44959 40624
L44959 41124
" />
<path d="M52333 35127
L52333 33127
" />
<path d="M52333 33127
L53333 33127
" />
<path d="M53333 33127
L53333 35127
" />
<path d="M53333 35127
L52333 35127
" />
<path d="M52833 35127
L52833 35627
" />
<path d="M52833 33127
L52833 32627
" />
<path d="M69869 41931
L69869 43931
" />
<path d="M69869 43931
L68869 43931
" />
<path d="M68869 43931
L68869 41931
" />
<path d="M68869 41931
L69869 41931
" />
<path d="M69369 41931
L69369 41431
" />
<path d="M69369 43931
L69369 44431
" />
<path d="M68845 42875
L68845 44875
" />
<path d="M68845 44875
L67845 44875
" />
<path d="M67845 44875
L67845 42875
" />
<path d="M67845 42875
L68845 42875
" />
<path d="M68345 42875
L68345 42375
" />
<path d="M68345 44875
L68345 45375
" />
<path d="M67822 44450
L67822 46450
" />
<path d="M67822 46450
L66822 46450
" />
<path d="M66822 46450
L66822 44450
" />
<path d="M66822 44450
L67822 44450
" />
<path d="M67322 44450
L67322 43950
" />
<path d="M67322 46450
L67322 46950
" />
<path d="M50499 37167
L50499 39167
" />
<path d="M50499 39167
L49499 39167
" />
<path d="M49499 39167
L49499 37167
" />
<path d="M49499 37167
L50499 37167
" />
<path d="M49999 37167
L49999 36667
" />
<path d="M49999 39167
L49999 39667
" />
<path d="M51089 41891
L51089 43891
" />
<path d="M51089 43891
L50089 43891
" />
<path d="M50089 43891
L50089 41891
" />
<path d="M50089 41891
L51089 41891
" />
<path d="M50589 41891
L50589 41391
" />
<path d="M50589 43891
L50589 44391
" />
<path d="M46699 35283
L46399 35283
" />
<path d="M46699 35083
L46399 35083
" />
<path d="M47499.9 35283.3 A657.647 657.647 0.0 0 0 46949.9 34533.3 " />
<path d="M46899.9 35833.3 A651.92 651.92 0.0 0 0 47499.9 35133.3 " />
<path d="M47199.9 34633.3 A651.92 651.92 0.0 0 0 46299.9 34833.3 " />
<path d="M46299.9 35533.3 A651.92 651.92 0.0 0 0 47199.9 35733.3 " />
<path d="M48349 36483
L48299 36483
" />
<path d="M46849 36483
L47399 36483
" />
<path d="M48349 33883
L48299 33883
" />
<path d="M46849 33883
L47399 33883
" />
<path d="M47999 35633
L48049 35483
" />
<path d="M48049 35483
L48099 35183
" />
<path d="M48099 35183
L48049 34883
" />
<path d="M48049 34883
L47999 34733
" />
<path d="M47649 35683
L47649 34683
" />
<path d="M47349.9 34033.3 A1253.99 1253.99 0.0 0 0 45699.9 34683.3 " />
<path d="M45699.9 35683.3 A1253.99 1253.99 0.0 0 0 47349.9 36333.3 " />
<path d="M45549 34383
L45549 34733
" />
<path d="M45549 35633
L45549 35983
" />
<path d="M46699 34533
L46699 34333
" />
<path d="M46699 34333
L46999 34333
" />
<path d="M46999 34333
L46999 34533
" />
<path d="M46699 35833
L46699 36033
" />
<path d="M46699 36033
L46999 36033
" />
<path d="M46999 36033
L46999 35833
" />
<path d="M46949 34983
L46949 34533
" />
<path d="M46749 34983
L46749 34533
" />
<path d="M46949 35383
L46949 35833
" />
<path d="M46749 35383
L46749 35833
" />
<path d="M46999 35083
L47499 35083
" />
<path d="M46999 35283
L47499 35283
" />
<path d="M46699 35383
L46999 35383
" />
<path d="M46999 35383
L46999 34983
" />
<path d="M46999 34983
L46699 34983
" />
<path d="M46699 34983
L46699 35383
" />
<path d="M45549 35983
L46099 36483
" />
<path d="M46099 36483
L46849 36483
" />
<path d="M45549 34383
L46099 33883
" />
<path d="M46099 33883
L46849 33883
" />
<path d="M48349 33983
L48449 33983
" />
<path d="M48449 33983
L48449 34433
" />
<path d="M48449 34433
L48349 34433
" />
<path d="M48349 36383
L48449 36383
" />
<path d="M48449 36383
L48449 35933
" />
<path d="M48449 35933
L48349 35933
" />
<path d="M48349 36483
L48349 33883
" />
<path d="M63241 43137
L63241 43637
" />
<path d="M66135 43137
L66135 43637
" />
<path d="M66135 47944
L66135 47444
" />
<path d="M63241 47944
L63241 47444
" />
<path d="M63241 43137
L66135 43137
" />
<path d="M63241 47944
L66135 47944
" />
<path d="M63241 43637
L62735 43637
" />
<path d="M64802 42171
L64802 38785
" />
<path d="M64802 38785
L63542 38785
" />
<path d="M63542 38785
L63542 42171
" />
<path d="M63837 42171
L63542 42171
" />
<path d="M64526 42171
L64802 42171
" />
<path d="M64054 42171
L64015 42289
" />
<path d="M64290 42171
L64329 42289
" />
<path d="M64526 42171
L63818 42171
" />
<path d="M58570 44525
L58570 42525
" />
<path d="M58680 45635
L58070 45635
" />
<path d="M57570 45525
L57570 44525
" />
<path d="M57570 44525
L58570 44525
" />
<path d="M58570 42525
L56570 42525
" />
<path d="M56570 42525
L56570 44525
" />
<path d="M58680 45635
L58680 45025
" />
<path d="M56570 45525
L57570 45525
" />
<path d="M56570 44525
L56570 45525
" />
<path d="M51955 35431
L51955 32431
" />
<path d="M50955 35431
L50955 32431
" />
<path d="M50845 36541
L50845 35931
" />
<path d="M51955 32431
L50955 32431
" />
<path d="M50955 35431
L51955 35431
" />
<path d="M52066 35931
L52066 36541
" />
<path d="M52066 36541
L50845 36541
" />
<path d="M51967 45773
L51967 45576
" />
<circle cx="50983.5" cy="47348.4" r="787.402" /> 
<circle cx="52952" cy="47348.4" r="787.402" /> 
<path d="M53936 46364
L49999 46364
" />
<path d="M53936 48293
L49999 48293
" />
<path d="M53936 45773
L49999 45773
" />
<path d="M53936 45576
L49999 45576
" />
<path d="M49999 45576
L49999 49435
" />
<path d="M49999 49435
L53936 49435
" />
<path d="M53936 49435
L53936 45576
" />
<circle cx="45904.7" cy="44631.9" r="787.402" /> 
<path d="M47479 45616
L47676 45616
" />
<path d="M47479 47584
L47676 47584
" />
<circle cx="45904.7" cy="46600.4" r="787.402" /> 
<circle cx="45904.7" cy="48568.9" r="787.402" /> 
<path d="M46888 49553
L46888 43647
" />
<path d="M44959 49553
L44959 43647
" />
<path d="M47479 49553
L47479 43647
" />
<path d="M47676 49553
L47676 43647
" />
<path d="M47676 43647
L43818 43647
" />
<path d="M43818 43647
L43818 49553
" />
<path d="M43818 49553
L47676 49553
" />
<path d="M45826 38096
L45826 37820
" />
<path d="M45826 38883
L45826 38765
" />
<path d="M45826 39592
L45826 39513
" />
<path d="M45826 40261
L45826 40222
" />
<path d="M45826 41009
L45826 40970
" />
<path d="M45826 41994
L45826 41718
" />
<path d="M45432 39316
L45707 39316
" />
<path d="M45432 40498
L45707 40498
" />
<path d="M47322 41994
L47322 37820
" />
<path d="M45863 37807
L47313 37807
" />
<path d="M47313 42007
L45863 42007
" />
<path d="M45413 37807
L45863 37807
" />
<path d="M45863 42007
L45413 42007
" />
<path d="M45413 39907
L45413 42007
" />
<path d="M45413 39907
L45413 37807
" />
<path d="M54231 46698
L57184 46698
" />
<path d="M57184 46698
L57184 48470
" />
<path d="M57184 48470
L54231 48470
" />
<path d="M54231 48470
L54231 46698
" />
<path d="M60333 48470
L57381 48470
" />
<path d="M57381 48470
L57381 46698
" />
<path d="M57381 46698
L60333 46698
" />
<path d="M60333 46698
L60333 48470
" />
<path d="M53345 32021
L53345 33360
" />
<path d="M54959.8 32690.9 A944.882 944.882 0.0 0 0 53346.8 32022.8 " />
<path d="M53346.8 33359.1 A944.882 944.882 0.0 0 0 54959.8 32690.9 " />
<path d="M66889 38500
L68857 38500
" />
<path d="M66892 38444
L67812 38444
" />
<path d="M67933 38444
L68853 38444
" />
<path d="M66898 38389
L67687 38389
" />
<path d="M68059 38389
L68847 38389
" />
<path d="M66908 38334
L67629 38334
" />
<path d="M68117 38334
L68838 38334
" />
<path d="M66921 38279
L67592 38279
" />
<path d="M68153 38279
L68825 38279
" />
<path d="M66937 38224
L67570 38224
" />
<path d="M68175 38224
L68809 38224
" />
<path d="M66957 38169
L67560 38169
" />
<path d="M68186 38169
L68789 38169
" />
<path d="M66981 38114
L67559 38114
" />
<path d="M68187 38114
L68765 38114
" />
<path d="M67008 38059
L67567 38059
" />
<path d="M68178 38059
L68737 38059
" />
<path d="M67040 38003
L67587 38003
" />
<path d="M68159 38003
L68705 38003
" />
<path d="M67078 37948
L67619 37948
" />
<path d="M68126 37948
L68668 37948
" />
<path d="M67122 37893
L67671 37893
" />
<path d="M68074 37893
L68624 37893
" />
<path d="M67172 37838
L67768 37838
" />
<path d="M67977 37838
L68574 37838
" />
<path d="M67231 37783
L68515 37783
" />
<path d="M67301 37728
L68444 37728
" />
<path d="M67387 37673
L68358 37673
" />
<path d="M67501 37618
L68244 37618
" />
<path d="M67687 37562
L68059 37562
" />
<circle cx="67873.2" cy="38135.8" r="314.961" /> 
<circle cx="67873.2" cy="38529.5" r="999.016" /> 
<path d="M68778 34976
L66810 34976
" />
<path d="M68775 35031
L67855 35031
" />
<path d="M67733 35031
L66813 35031
" />
<path d="M68768 35086
L67980 35086
" />
<path d="M67608 35086
L66820 35086
" />
<path d="M68759 35141
L68038 35141
" />
<path d="M67550 35141
L66829 35141
" />
<path d="M68746 35196
L68074 35196
" />
<path d="M67514 35196
L66842 35196
" />
<path d="M68730 35251
L68096 35251
" />
<path d="M67492 35251
L66858 35251
" />
<path d="M68710 35307
L68107 35307
" />
<path d="M67481 35307
L66878 35307
" />
<path d="M68686 35362
L68108 35362
" />
<path d="M67480 35362
L66902 35362
" />
<path d="M68659 35417
L68100 35417
" />
<path d="M67488 35417
L66929 35417
" />
<path d="M68626 35472
L68080 35472
" />
<path d="M67508 35472
L66962 35472
" />
<path d="M68589 35527
L68048 35527
" />
<path d="M67540 35527
L66999 35527
" />
<path d="M68545 35582
L67996 35582
" />
<path d="M67592 35582
L67043 35582
" />
<path d="M68495 35637
L67898 35637
" />
<path d="M67690 35637
L67093 35637
" />
<path d="M68436 35692
L67152 35692
" />
<path d="M68366 35748
L67222 35748
" />
<path d="M68279 35803
L67309 35803
" />
<path d="M68166 35858
L67422 35858
" />
<path d="M67980 35913
L67608 35913
" />
<circle cx="67794.5" cy="35340.6" r="314.961" /> 
<circle cx="67794.5" cy="34946.9" r="999.016" /> 
<path d="M67125 31187
L69487 31187
" />
<path d="M69487 32958
L67125 32958
" />
<path d="M62412 37923
L62412 35923
" />
<path d="M62412 35923
L63412 35923
" />
<path d="M63412 35923
L63412 37923
" />
<path d="M63412 37923
L62412 37923
" />
<path d="M62912 37923
L62912 38423
" />
<path d="M62912 35923
L62912 35423
" />
<path d="M65450 32710
L65450 32410
" />
<path d="M65650 32710
L65650 32410
" />
<path d="M65450.1 33510.5 A657.647 657.647 0.0 0 0 66200.1 32960.5 " />
<path d="M64900.1 32910.5 A651.92 651.92 0.0 0 0 65600.1 33510.5 " />
<path d="M66100.1 33210.5 A651.92 651.92 0.0 0 0 65900.1 32310.5 " />
<path d="M65200.1 32310.5 A651.92 651.92 0.0 0 0 65000.1 33210.5 " />
<path d="M64250 34360
L64250 34310
" />
<path d="M64250 32860
L64250 33410
" />
<path d="M66850 34360
L66850 34310
" />
<path d="M66850 32860
L66850 33410
" />
<path d="M65100 34010
L65250 34060
" />
<path d="M65250 34060
L65550 34110
" />
<path d="M65550 34110
L65850 34060
" />
<path d="M65850 34060
L66000 34010
" />
<path d="M65050 33660
L66050 33660
" />
<path d="M66700.1 33360.5 A1253.99 1253.99 0.0 0 0 66050.1 31710.5 " />
<path d="M65050.1 31710.5 A1253.99 1253.99 0.0 0 0 64400.1 33360.5 " />
<path d="M66350 31560
L66000 31560
" />
<path d="M65100 31560
L64750 31560
" />
<path d="M66200 32710
L66400 32710
" />
<path d="M66400 32710
L66400 33010
" />
<path d="M66400 33010
L66200 33010
" />
<path d="M64900 32710
L64700 32710
" />
<path d="M64700 32710
L64700 33010
" />
<path d="M64700 33010
L64900 33010
" />
<path d="M65750 32960
L66200 32960
" />
<path d="M65750 32760
L66200 32760
" />
<path d="M65350 32960
L64900 32960
" />
<path d="M65350 32760
L64900 32760
" />
<path d="M65650 33010
L65650 33510
" />
<path d="M65450 33010
L65450 33510
" />
<path d="M65350 32710
L65350 33010
" />
<path d="M65350 33010
L65750 33010
" />
<path d="M65750 33010
L65750 32710
" />
<path d="M65750 32710
L65350 32710
" />
<path d="M64750 31560
L64250 32110
" />
<path d="M64250 32110
L64250 32860
" />
<path d="M66350 31560
L66850 32110
" />
<path d="M66850 32110
L66850 32860
" />
<path d="M66750 34360
L66750 34460
" />
<path d="M66750 34460
L66300 34460
" />
<path d="M66300 34460
L66300 34360
" />
<path d="M64350 34360
L64350 34460
" />
<path d="M64350 34460
L64800 34460
" />
<path d="M64800 34460
L64800 34360
" />
<path d="M64250 34360
L66850 34360
" />
<path d="M64881 34750
L64881 34474
" />
<path d="M64881 35537
L64881 35419
" />
<path d="M64881 36246
L64881 36167
" />
<path d="M64881 36915
L64881 36876
" />
<path d="M64881 37663
L64881 37624
" />
<path d="M64881 38648
L64881 38372
" />
<path d="M64487 35970
L64762 35970
" />
<path d="M64487 37152
L64762 37152
" />
<path d="M66377 38648
L66377 34474
" />
<path d="M64918 34461
L66368 34461
" />
<path d="M66368 38661
L64918 38661
" />
<path d="M64468 34461
L64918 34461
" />
<path d="M64918 38661
L64468 38661
" />
<path d="M64468 36561
L64468 38661
" />
<path d="M64468 36561
L64468 34461
" />
<path d="M58570 31509
L58570 36509
" />
<path d="M58570 36509
L57570 36509
" />
<path d="M57570 36509
L57570 31509
" />
<path d="M58680 30399
L58680 31009
" />
<path d="M58570 31509
L57570 31509
" />
<path d="M57459 31009
L57459 30399
" />
<path d="M57459 30399
L58680 30399
" />
<path d="M57909 47928
L57909 47534
L58059 47534
L58096 47553
L58115 47571
L58134 47609
L58134 47665
L58115 47703
L58096 47721
L58059 47740
L57909 47740
" />
<path d="M58509 47928
L58284 47928
" />
<path d="M58396 47928
L58396 47534
L58359 47590
L58321 47628
L58284 47646
" />
<path d="M66009 47928
L66009 47534
L66159 47534
L66196 47553
L66215 47571
L66234 47609
L66234 47665
L66215 47703
L66196 47721
L66159 47740
L66009 47740
" />
<path d="M66384 47571
L66403 47553
L66440 47534
L66534 47534
L66571 47553
L66590 47571
L66609 47609
L66609 47646
L66590 47703
L66365 47928
L66609 47928
" />
<path d="M55309 31028
L55309 30634
L55459 30634
L55496 30653
L55515 30671
L55534 30709
L55534 30765
L55515 30803
L55496 30821
L55459 30840
L55309 30840
" />
<path d="M55665 30634
L55909 30634
L55778 30784
L55834 30784
L55871 30803
L55890 30821
L55909 30859
L55909 30953
L55890 30990
L55871 31009
L55834 31028
L55721 31028
L55684 31009
L55665 30990
" />
<path d="M64909 31028
L64909 30634
L65059 30634
L65096 30653
L65115 30671
L65134 30709
L65134 30765
L65115 30803
L65096 30821
L65059 30840
L64909 30840
" />
<path d="M65471 30765
L65471 31028
" />
<path d="M65378 30615
L65284 30896
L65528 30896
" />
<path d="M57235 39339
L57217 39358
L57160 39376
L57123 39376
L57067 39358
L57029 39320
L57010 39283
L56992 39208
L56992 39151
L57010 39076
L57029 39039
L57067 39001
L57123 38983
L57160 38983
L57217 39001
L57235 39020
" />
<path d="M57385 39020
L57404 39001
L57442 38983
L57535 38983
L57573 39001
L57592 39020
L57610 39058
L57610 39095
L57592 39151
L57367 39376
L57610 39376
" />
<path d="M57854 38983
L57891 38983
L57929 39001
L57948 39020
L57966 39058
L57985 39133
L57985 39226
L57966 39301
L57948 39339
L57929 39358
L57891 39376
L57854 39376
L57816 39358
L57798 39339
L57779 39301
L57760 39226
L57760 39133
L57779 39058
L57798 39020
L57816 39001
L57854 38983
" />
<path d="M58360 39376
L58135 39376
" />
<path d="M58248 39376
L58248 38983
L58210 39039
L58173 39076
L58135 39095
" />
<path d="M55267 38158
L55248 38177
L55192 38195
L55154 38195
L55098 38177
L55061 38139
L55042 38102
L55023 38027
L55023 37970
L55042 37895
L55061 37858
L55098 37820
L55154 37802
L55192 37802
L55248 37820
L55267 37839
" />
<path d="M55417 37839
L55436 37820
L55473 37802
L55567 37802
L55604 37820
L55623 37839
L55642 37877
L55642 37914
L55623 37970
L55398 38195
L55642 38195
" />
<path d="M55885 37802
L55923 37802
L55960 37820
L55979 37839
L55998 37877
L56017 37952
L56017 38045
L55998 38120
L55979 38158
L55960 38177
L55923 38195
L55885 38195
L55848 38177
L55829 38158
L55810 38120
L55792 38045
L55792 37952
L55810 37877
L55829 37839
L55848 37820
L55885 37802
" />
<path d="M56148 37802
L56392 37802
L56260 37952
L56317 37952
L56354 37970
L56373 37989
L56392 38027
L56392 38120
L56373 38158
L56354 38177
L56317 38195
L56204 38195
L56167 38177
L56148 38158
" />
<path d="M57235 36977
L57217 36995
L57160 37014
L57123 37014
L57067 36995
L57029 36958
L57010 36920
L56992 36845
L56992 36789
L57010 36714
L57029 36677
L57067 36639
L57123 36621
L57160 36621
L57217 36639
L57235 36658
" />
<path d="M57385 36658
L57404 36639
L57442 36621
L57535 36621
L57573 36639
L57592 36658
L57610 36696
L57610 36733
L57592 36789
L57367 37014
L57610 37014
" />
<path d="M57854 36621
L57891 36621
L57929 36639
L57948 36658
L57966 36696
L57985 36770
L57985 36864
L57966 36939
L57948 36977
L57929 36995
L57891 37014
L57854 37014
L57816 36995
L57798 36977
L57779 36939
L57760 36864
L57760 36770
L57779 36696
L57798 36658
L57816 36639
L57854 36621
" />
<path d="M58341 36621
L58154 36621
L58135 36808
L58154 36789
L58191 36770
L58285 36770
L58323 36789
L58341 36808
L58360 36845
L58360 36939
L58341 36977
L58323 36995
L58285 37014
L58191 37014
L58154 36995
L58135 36977
" />
<path d="M47068 41529
L47087 41547
L47106 41604
L47106 41641
L47087 41697
L47050 41735
L47012 41754
L46937 41772
L46881 41772
L46806 41754
L46768 41735
L46731 41697
L46712 41641
L46712 41604
L46731 41547
L46750 41529
" />
<path d="M46712 41397
L46712 41154
L46862 41285
L46862 41229
L46881 41191
L46900 41172
L46937 41154
L47031 41154
L47068 41172
L47087 41191
L47106 41229
L47106 41341
L47087 41379
L47068 41397
" />
<path d="M46712 40910
L46712 40872
L46731 40835
L46750 40816
L46787 40797
L46862 40779
L46956 40779
L47031 40797
L47068 40816
L47087 40835
L47106 40872
L47106 40910
L47087 40947
L47068 40966
L47031 40985
L46956 41004
L46862 41004
L46787 40985
L46750 40966
L46731 40947
L46712 40910
" />
<path d="M47106 40404
L47106 40629
" />
<path d="M47106 40516
L46712 40516
L46768 40554
L46806 40591
L46825 40629
" />
<path d="M50061 39166
L50079 39185
L50098 39241
L50098 39279
L50079 39335
L50042 39373
L50004 39391
L49929 39410
L49873 39410
L49798 39391
L49761 39373
L49723 39335
L49704 39279
L49704 39241
L49723 39185
L49742 39166
" />
<path d="M49704 39035
L49704 38791
L49854 38923
L49854 38866
L49873 38829
L49892 38810
L49929 38791
L50023 38791
L50061 38810
L50079 38829
L50098 38866
L50098 38979
L50079 39016
L50061 39035
" />
<path d="M49704 38548
L49704 38510
L49723 38473
L49742 38454
L49779 38435
L49854 38417
L49948 38417
L50023 38435
L50061 38454
L50079 38473
L50098 38510
L50098 38548
L50079 38585
L50061 38604
L50023 38623
L49948 38642
L49854 38642
L49779 38623
L49742 38604
L49723 38585
L49704 38548
" />
<path d="M49742 38267
L49723 38248
L49704 38210
L49704 38117
L49723 38079
L49742 38060
L49779 38042
L49817 38042
L49873 38060
L50098 38285
L50098 38042
" />
<path d="M46881 35992
L46862 36011
L46806 36030
L46768 36030
L46712 36011
L46675 35974
L46656 35936
L46637 35861
L46637 35805
L46656 35730
L46675 35693
L46712 35655
L46768 35636
L46806 35636
L46862 35655
L46881 35674
" />
<path d="M47012 35636
L47256 35636
L47125 35786
L47181 35786
L47218 35805
L47237 35824
L47256 35861
L47256 35955
L47237 35992
L47218 36011
L47181 36030
L47068 36030
L47031 36011
L47012 35992
" />
<path d="M47500 35636
L47537 35636
L47575 35655
L47593 35674
L47612 35711
L47631 35786
L47631 35880
L47612 35955
L47593 35992
L47575 36011
L47537 36030
L47500 36030
L47462 36011
L47443 35992
L47425 35955
L47406 35880
L47406 35786
L47425 35711
L47443 35674
L47462 35655
L47500 35636
" />
<path d="M47762 35636
L48006 35636
L47875 35786
L47931 35786
L47968 35805
L47987 35824
L48006 35861
L48006 35955
L47987 35992
L47968 36011
L47931 36030
L47818 36030
L47781 36011
L47762 35992
" />
<path d="M65691 41922
L65709 41941
L65728 41997
L65728 42035
L65709 42091
L65672 42129
L65634 42147
L65559 42166
L65503 42166
L65428 42147
L65391 42129
L65353 42091
L65334 42035
L65334 41997
L65353 41941
L65372 41922
" />
<path d="M65334 41566
L65334 41754
L65522 41772
L65503 41754
L65484 41716
L65484 41622
L65503 41585
L65522 41566
L65559 41547
L65653 41547
L65691 41566
L65709 41585
L65728 41622
L65728 41716
L65709 41754
L65691 41772
" />
<path d="M65334 41304
L65334 41266
L65353 41229
L65372 41210
L65409 41191
L65484 41172
L65578 41172
L65653 41191
L65691 41210
L65709 41229
L65728 41266
L65728 41304
L65709 41341
L65691 41360
L65653 41379
L65578 41397
L65484 41397
L65409 41379
L65372 41360
L65353 41341
L65334 41304
" />
<path d="M65334 40929
L65334 40891
L65353 40854
L65372 40835
L65409 40816
L65484 40797
L65578 40797
L65653 40816
L65691 40835
L65709 40854
L65728 40891
L65728 40929
L65709 40966
L65691 40985
L65653 41004
L65578 41022
L65484 41022
L65409 41004
L65372 40985
L65353 40966
L65334 40929
" />
<path d="M64470 41411
L64489 41429
L64508 41486
L64508 41523
L64489 41579
L64451 41617
L64414 41636
L64339 41654
L64283 41654
L64208 41636
L64170 41617
L64133 41579
L64114 41523
L64114 41486
L64133 41429
L64151 41411
" />
<path d="M64114 41054
L64114 41242
L64301 41261
L64283 41242
L64264 41204
L64264 41111
L64283 41073
L64301 41054
L64339 41036
L64433 41036
L64470 41054
L64489 41073
L64508 41111
L64508 41204
L64489 41242
L64470 41261
" />
<path d="M64114 40792
L64114 40754
L64133 40717
L64151 40698
L64189 40679
L64264 40661
L64358 40661
L64433 40679
L64470 40698
L64489 40717
L64508 40754
L64508 40792
L64489 40829
L64470 40848
L64433 40867
L64358 40886
L64264 40886
L64189 40867
L64151 40848
L64133 40829
L64114 40792
" />
<path d="M64508 40286
L64508 40511
" />
<path d="M64508 40398
L64114 40398
L64170 40436
L64208 40473
L64226 40511
" />
<path d="M66911 41411
L66930 41429
L66948 41486
L66948 41523
L66930 41579
L66892 41617
L66855 41636
L66780 41654
L66723 41654
L66649 41636
L66611 41617
L66574 41579
L66555 41523
L66555 41486
L66574 41429
L66592 41411
" />
<path d="M66555 41054
L66555 41242
L66742 41261
L66723 41242
L66705 41204
L66705 41111
L66723 41073
L66742 41054
L66780 41036
L66873 41036
L66911 41054
L66930 41073
L66948 41111
L66948 41204
L66930 41242
L66911 41261
" />
<path d="M66555 40792
L66555 40754
L66574 40717
L66592 40698
L66630 40679
L66705 40661
L66798 40661
L66873 40679
L66911 40698
L66930 40717
L66948 40754
L66948 40792
L66930 40829
L66911 40848
L66873 40867
L66798 40886
L66705 40886
L66630 40867
L66592 40848
L66574 40829
L66555 40792
" />
<path d="M66592 40511
L66574 40492
L66555 40454
L66555 40361
L66574 40323
L66592 40304
L66630 40286
L66667 40286
L66723 40304
L66948 40529
L66948 40286
" />
<path d="M53879 44531
L53898 44549
L53917 44606
L53917 44643
L53898 44699
L53861 44737
L53823 44756
L53748 44774
L53692 44774
L53617 44756
L53580 44737
L53542 44699
L53523 44643
L53523 44606
L53542 44549
L53561 44531
" />
<path d="M53523 44193
L53523 44268
L53542 44306
L53561 44324
L53617 44362
L53692 44381
L53842 44381
L53879 44362
L53898 44343
L53917 44306
L53917 44231
L53898 44193
L53879 44174
L53842 44156
L53748 44156
L53711 44174
L53692 44193
L53673 44231
L53673 44306
L53692 44343
L53711 44362
L53748 44381
" />
<path d="M53523 43912
L53523 43874
L53542 43837
L53561 43818
L53598 43799
L53673 43781
L53767 43781
L53842 43799
L53879 43818
L53898 43837
L53917 43874
L53917 43912
L53898 43949
L53879 43968
L53842 43987
L53767 44006
L53673 44006
L53598 43987
L53561 43968
L53542 43949
L53523 43912
" />
<path d="M53523 43537
L53523 43499
L53542 43462
L53561 43443
L53598 43425
L53673 43406
L53767 43406
L53842 43425
L53879 43443
L53898 43462
L53917 43499
L53917 43537
L53898 43574
L53879 43593
L53842 43612
L53767 43631
L53673 43631
L53598 43612
L53561 43593
L53542 43574
L53523 43537
" />
<path d="M47659 45633
L47678 45652
L47697 45708
L47697 45745
L47678 45802
L47640 45839
L47603 45858
L47528 45877
L47472 45877
L47397 45858
L47359 45839
L47322 45802
L47303 45745
L47303 45708
L47322 45652
L47340 45633
" />
<path d="M47303 45502
L47303 45239
L47697 45408
" />
<path d="M47303 45014
L47303 44977
L47322 44939
L47340 44921
L47378 44902
L47453 44883
L47547 44883
L47622 44902
L47659 44921
L47678 44939
L47697 44977
L47697 45014
L47678 45052
L47659 45071
L47622 45089
L47547 45108
L47453 45108
L47378 45089
L47340 45071
L47322 45052
L47303 45014
" />
<path d="M47303 44639
L47303 44602
L47322 44564
L47340 44546
L47378 44527
L47453 44508
L47547 44508
L47622 44527
L47659 44546
L47678 44564
L47697 44602
L47697 44639
L47678 44677
L47659 44696
L47622 44714
L47547 44733
L47453 44733
L47378 44714
L47340 44696
L47322 44677
L47303 44639
" />
<path d="M51841 42382
L51841 42513
" />
<path d="M52047 42513
L51654 42513
L51654 42325
" />
<path d="M51654 42007
L51654 42082
L51672 42119
L51691 42138
L51747 42175
L51822 42194
L51972 42194
L52010 42175
L52029 42157
L52047 42119
L52047 42044
L52029 42007
L52010 41988
L51972 41969
L51879 41969
L51841 41988
L51822 42007
L51804 42044
L51804 42119
L51822 42157
L51841 42175
L51879 42194
" />
<path d="M51654 41726
L51654 41688
L51672 41651
L51691 41632
L51729 41613
L51804 41594
L51897 41594
L51972 41613
L52010 41632
L52029 41651
L52047 41688
L52047 41726
L52029 41763
L52010 41782
L51972 41800
L51897 41819
L51804 41819
L51729 41800
L51691 41782
L51672 41763
L51654 41726
" />
<path d="M51654 41351
L51654 41313
L51672 41276
L51691 41257
L51729 41238
L51804 41219
L51897 41219
L51972 41238
L52010 41257
L52029 41276
L52047 41313
L52047 41351
L52029 41388
L52010 41407
L51972 41426
L51897 41444
L51804 41444
L51729 41426
L51691 41407
L51672 41388
L51654 41351
" />
<path d="M50463 42382
L50463 42513
" />
<path d="M50669 42513
L50276 42513
L50276 42325
" />
<path d="M50276 42213
L50276 41950
L50669 42119
" />
<path d="M50276 41726
L50276 41688
L50294 41651
L50313 41632
L50351 41613
L50426 41594
L50519 41594
L50594 41613
L50632 41632
L50651 41651
L50669 41688
L50669 41726
L50651 41763
L50632 41782
L50594 41800
L50519 41819
L50426 41819
L50351 41800
L50313 41782
L50294 41763
L50276 41726
" />
<path d="M50276 41351
L50276 41313
L50294 41276
L50313 41257
L50351 41238
L50426 41219
L50519 41219
L50594 41238
L50632 41257
L50651 41276
L50669 41313
L50669 41351
L50651 41388
L50632 41407
L50594 41426
L50519 41444
L50426 41444
L50351 41426
L50313 41407
L50294 41388
L50276 41351
" />
<path d="M60492 39824
L60304 39956
" />
<path d="M60492 40049
L60098 40049
L60098 39899
L60117 39862
L60136 39843
L60173 39824
L60229 39824
L60267 39843
L60286 39862
L60304 39899
L60304 40049
" />
<path d="M60136 39674
L60117 39656
L60098 39618
L60098 39524
L60117 39487
L60136 39468
L60173 39449
L60211 39449
L60267 39468
L60492 39693
L60492 39449
" />
<path d="M60098 39206
L60098 39168
L60117 39131
L60136 39112
L60173 39093
L60248 39074
L60342 39074
L60417 39093
L60454 39112
L60473 39131
L60492 39168
L60492 39206
L60473 39243
L60454 39262
L60417 39281
L60342 39299
L60248 39299
L60173 39281
L60136 39262
L60117 39243
L60098 39206
" />
<path d="M60492 38699
L60492 38924
" />
<path d="M60492 38812
L60098 38812
L60154 38849
L60192 38887
L60211 38924
" />
<path d="M60492 44470
L60304 44601
" />
<path d="M60492 44695
L60098 44695
L60098 44545
L60117 44508
L60136 44489
L60173 44470
L60229 44470
L60267 44489
L60286 44508
L60304 44545
L60304 44695
" />
<path d="M60136 44320
L60117 44301
L60098 44264
L60098 44170
L60117 44133
L60136 44114
L60173 44095
L60211 44095
L60267 44114
L60492 44339
L60492 44095
" />
<path d="M60098 43851
L60098 43814
L60117 43776
L60136 43758
L60173 43739
L60248 43720
L60342 43720
L60417 43739
L60454 43758
L60473 43776
L60492 43814
L60492 43851
L60473 43889
L60454 43908
L60417 43926
L60342 43945
L60248 43945
L60173 43926
L60136 43908
L60117 43889
L60098 43851
" />
<path d="M60136 43570
L60117 43551
L60098 43514
L60098 43420
L60117 43383
L60136 43364
L60173 43345
L60211 43345
L60267 43364
L60492 43589
L60492 43345
" />
<path d="M59468 39824
L59281 39956
" />
<path d="M59468 40049
L59074 40049
L59074 39899
L59093 39862
L59112 39843
L59149 39824
L59206 39824
L59243 39843
L59262 39862
L59281 39899
L59281 40049
" />
<path d="M59112 39674
L59093 39656
L59074 39618
L59074 39524
L59093 39487
L59112 39468
L59149 39449
L59187 39449
L59243 39468
L59468 39693
L59468 39449
" />
<path d="M59074 39206
L59074 39168
L59093 39131
L59112 39112
L59149 39093
L59224 39074
L59318 39074
L59393 39093
L59431 39112
L59449 39131
L59468 39168
L59468 39206
L59449 39243
L59431 39262
L59393 39281
L59318 39299
L59224 39299
L59149 39281
L59112 39262
L59093 39243
L59074 39206
" />
<path d="M59074 38943
L59074 38699
L59224 38831
L59224 38774
L59243 38737
L59262 38718
L59299 38699
L59393 38699
L59431 38718
L59449 38737
L59468 38774
L59468 38887
L59449 38924
L59431 38943
" />
<path d="M59468 44470
L59281 44601
" />
<path d="M59468 44695
L59074 44695
L59074 44545
L59093 44508
L59112 44489
L59149 44470
L59206 44470
L59243 44489
L59262 44508
L59281 44545
L59281 44695
" />
<path d="M59112 44320
L59093 44301
L59074 44264
L59074 44170
L59093 44133
L59112 44114
L59149 44095
L59187 44095
L59243 44114
L59468 44339
L59468 44095
" />
<path d="M59074 43851
L59074 43814
L59093 43776
L59112 43758
L59149 43739
L59224 43720
L59318 43720
L59393 43739
L59431 43758
L59449 43776
L59468 43814
L59468 43851
L59449 43889
L59431 43908
L59393 43926
L59318 43945
L59224 43945
L59149 43926
L59112 43908
L59093 43889
L59074 43851
" />
<path d="M59206 43383
L59468 43383
" />
<path d="M59056 43476
L59337 43570
L59337 43326
" />
<path d="M58444 39824
L58257 39956
" />
<path d="M58444 40049
L58051 40049
L58051 39899
L58070 39862
L58088 39843
L58126 39824
L58182 39824
L58220 39843
L58238 39862
L58257 39899
L58257 40049
" />
<path d="M58088 39674
L58070 39656
L58051 39618
L58051 39524
L58070 39487
L58088 39468
L58126 39449
L58163 39449
L58220 39468
L58444 39693
L58444 39449
" />
<path d="M58051 39206
L58051 39168
L58070 39131
L58088 39112
L58126 39093
L58201 39074
L58295 39074
L58369 39093
L58407 39112
L58426 39131
L58444 39168
L58444 39206
L58426 39243
L58407 39262
L58369 39281
L58295 39299
L58201 39299
L58126 39281
L58088 39262
L58070 39243
L58051 39206
" />
<path d="M58051 38718
L58051 38906
L58238 38924
L58220 38906
L58201 38868
L58201 38774
L58220 38737
L58238 38718
L58276 38699
L58369 38699
L58407 38718
L58426 38737
L58444 38774
L58444 38868
L58426 38906
L58407 38924
" />
<path d="M58444 44470
L58257 44601
" />
<path d="M58444 44695
L58051 44695
L58051 44545
L58070 44508
L58088 44489
L58126 44470
L58182 44470
L58220 44489
L58238 44508
L58257 44545
L58257 44695
" />
<path d="M58088 44320
L58070 44301
L58051 44264
L58051 44170
L58070 44133
L58088 44114
L58126 44095
L58163 44095
L58220 44114
L58444 44339
L58444 44095
" />
<path d="M58051 43851
L58051 43814
L58070 43776
L58088 43758
L58126 43739
L58201 43720
L58295 43720
L58369 43739
L58407 43758
L58426 43776
L58444 43814
L58444 43851
L58426 43889
L58407 43908
L58369 43926
L58295 43945
L58201 43945
L58126 43926
L58088 43908
L58070 43889
L58051 43851
" />
<path d="M58051 43383
L58051 43458
L58070 43495
L58088 43514
L58145 43551
L58220 43570
L58369 43570
L58407 43551
L58426 43533
L58444 43495
L58444 43420
L58426 43383
L58407 43364
L58369 43345
L58276 43345
L58238 43364
L58220 43383
L58201 43420
L58201 43495
L58220 43533
L58238 43551
L58276 43570
" />
<path d="M46515 40162
L46328 40293
" />
<path d="M46515 40387
L46122 40387
L46122 40237
L46140 40200
L46159 40181
L46197 40162
L46253 40162
L46290 40181
L46309 40200
L46328 40237
L46328 40387
" />
<path d="M46122 40031
L46122 39787
L46272 39918
L46272 39862
L46290 39825
L46309 39806
L46347 39787
L46440 39787
L46478 39806
L46497 39825
L46515 39862
L46515 39975
L46497 40012
L46478 40031
" />
<path d="M46122 39543
L46122 39506
L46140 39468
L46159 39450
L46197 39431
L46272 39412
L46365 39412
L46440 39431
L46478 39450
L46497 39468
L46515 39506
L46515 39543
L46497 39581
L46478 39600
L46440 39618
L46365 39637
L46272 39637
L46197 39618
L46159 39600
L46140 39581
L46122 39543
" />
<path d="M46515 39037
L46515 39262
" />
<path d="M46515 39150
L46122 39150
L46178 39187
L46215 39225
L46234 39262
" />
<path d="M51633 34470
L51446 34601
" />
<path d="M51633 34695
L51240 34695
L51240 34545
L51259 34508
L51277 34489
L51315 34470
L51371 34470
L51408 34489
L51427 34508
L51446 34545
L51446 34695
" />
<path d="M51371 34133
L51633 34133
" />
<path d="M51221 34226
L51502 34320
L51502 34076
" />
<path d="M51240 33739
L51240 33926
L51427 33945
L51408 33926
L51390 33889
L51390 33795
L51408 33758
L51427 33739
L51465 33720
L51558 33720
L51596 33739
L51615 33758
L51633 33795
L51633 33889
L51615 33926
L51596 33945
" />
<path d="M51240 33476
L51240 33439
L51259 33401
L51277 33383
L51315 33364
L51390 33345
L51483 33345
L51558 33364
L51596 33383
L51615 33401
L51633 33439
L51633 33476
L51615 33514
L51596 33533
L51558 33551
L51483 33570
L51390 33570
L51315 33551
L51277 33533
L51259 33514
L51240 33476
" />
<path d="M70925 43469
L70737 43600
" />
<path d="M70925 43694
L70531 43694
L70531 43544
L70550 43507
L70569 43488
L70606 43469
L70662 43469
L70700 43488
L70719 43507
L70737 43544
L70737 43694
" />
<path d="M70531 43113
L70531 43300
L70719 43319
L70700 43300
L70681 43263
L70681 43169
L70700 43132
L70719 43113
L70756 43094
L70850 43094
L70887 43113
L70906 43132
L70925 43169
L70925 43263
L70906 43300
L70887 43319
" />
<path d="M70531 42850
L70531 42813
L70550 42776
L70569 42757
L70606 42738
L70681 42719
L70775 42719
L70850 42738
L70887 42757
L70906 42776
L70925 42813
L70925 42850
L70906 42888
L70887 42907
L70850 42925
L70775 42944
L70681 42944
L70606 42925
L70569 42907
L70550 42888
L70531 42850
" />
<path d="M70925 42344
L70925 42569
" />
<path d="M70925 42457
L70531 42457
L70587 42494
L70625 42532
L70644 42569
" />
<path d="M69901 44414
L69714 44545
" />
<path d="M69901 44639
L69508 44639
L69508 44489
L69526 44452
L69545 44433
L69583 44414
L69639 44414
L69676 44433
L69695 44452
L69714 44489
L69714 44639
" />
<path d="M69508 44058
L69508 44245
L69695 44264
L69676 44245
L69658 44208
L69658 44114
L69676 44077
L69695 44058
L69733 44039
L69826 44039
L69864 44058
L69883 44077
L69901 44114
L69901 44208
L69883 44245
L69864 44264
" />
<path d="M69508 43795
L69508 43758
L69526 43720
L69545 43702
L69583 43683
L69658 43664
L69751 43664
L69826 43683
L69864 43702
L69883 43720
L69901 43758
L69901 43795
L69883 43833
L69864 43852
L69826 43870
L69751 43889
L69658 43889
L69583 43870
L69545 43852
L69526 43833
L69508 43795
" />
<path d="M69545 43514
L69526 43495
L69508 43458
L69508 43364
L69526 43327
L69545 43308
L69583 43289
L69620 43289
L69676 43308
L69901 43533
L69901 43289
" />
<path d="M68878 45989
L68690 46120
" />
<path d="M68878 46214
L68484 46214
L68484 46064
L68503 46026
L68521 46008
L68559 45989
L68615 45989
L68653 46008
L68671 46026
L68690 46064
L68690 46214
" />
<path d="M68484 45633
L68484 45820
L68671 45839
L68653 45820
L68634 45783
L68634 45689
L68653 45651
L68671 45633
L68709 45614
L68803 45614
L68840 45633
L68859 45651
L68878 45689
L68878 45783
L68859 45820
L68840 45839
" />
<path d="M68484 45370
L68484 45333
L68503 45295
L68521 45276
L68559 45258
L68634 45239
L68728 45239
L68803 45258
L68840 45276
L68859 45295
L68878 45333
L68878 45370
L68859 45408
L68840 45426
L68803 45445
L68728 45464
L68634 45464
L68559 45445
L68521 45426
L68503 45408
L68484 45370
" />
<path d="M68484 45108
L68484 44864
L68634 44995
L68634 44939
L68653 44901
L68671 44883
L68709 44864
L68803 44864
L68840 44883
L68859 44901
L68878 44939
L68878 45051
L68859 45089
L68840 45108
" />
<path d="M51555 38705
L51367 38837
" />
<path d="M51555 38930
L51161 38930
L51161 38780
L51180 38743
L51199 38724
L51236 38705
L51292 38705
L51330 38724
L51349 38743
L51367 38780
L51367 38930
" />
<path d="M51161 38574
L51161 38312
L51555 38480
" />
<path d="M51161 38087
L51161 38049
L51180 38012
L51199 37993
L51236 37974
L51311 37955
L51405 37955
L51480 37974
L51517 37993
L51536 38012
L51555 38049
L51555 38087
L51536 38124
L51517 38143
L51480 38162
L51405 38180
L51311 38180
L51236 38162
L51199 38143
L51180 38124
L51161 38087
" />
<path d="M51555 37581
L51555 37806
" />
<path d="M51555 37693
L51161 37693
L51217 37731
L51255 37768
L51274 37806
" />
<path d="M52145 43430
L51958 43561
" />
<path d="M52145 43655
L51752 43655
L51752 43505
L51770 43467
L51789 43449
L51827 43430
L51883 43430
L51920 43449
L51939 43467
L51958 43505
L51958 43655
" />
<path d="M51752 43299
L51752 43036
L52145 43205
" />
<path d="M51752 42811
L51752 42774
L51770 42736
L51789 42717
L51827 42699
L51902 42680
L51995 42680
L52070 42699
L52108 42717
L52127 42736
L52145 42774
L52145 42811
L52127 42849
L52108 42867
L52070 42886
L51995 42905
L51902 42905
L51827 42886
L51789 42867
L51770 42849
L51752 42811
" />
<path d="M51789 42530
L51770 42511
L51752 42474
L51752 42380
L51770 42342
L51789 42324
L51827 42305
L51864 42305
L51920 42324
L52145 42549
L52145 42305
" />
<path d="M45527 34292
L45340 34423
" />
<path d="M45527 34517
L45134 34517
L45134 34367
L45153 34330
L45171 34311
L45209 34292
L45265 34292
L45302 34311
L45321 34330
L45340 34367
L45340 34517
" />
<path d="M45134 34180
L45527 34048
L45134 33917
" />
<path d="M45134 33823
L45134 33580
L45284 33711
L45284 33655
L45302 33617
L45321 33598
L45359 33580
L45452 33580
L45490 33598
L45509 33617
L45527 33655
L45527 33767
L45509 33805
L45490 33823
" />
<path d="M45134 33336
L45134 33298
L45153 33261
L45171 33242
L45209 33224
L45284 33205
L45377 33205
L45452 33224
L45490 33242
L45509 33261
L45527 33298
L45527 33336
L45509 33373
L45490 33392
L45452 33411
L45377 33430
L45284 33430
L45209 33411
L45171 33392
L45153 33373
L45134 33336
" />
<path d="M45527 32830
L45527 33055
" />
<path d="M45527 32942
L45134 32942
L45190 32980
L45227 33017
L45246 33055
" />
<path d="M62513 41770
L62513 42089
L62532 42126
L62550 42145
L62588 42164
L62663 42164
L62700 42145
L62719 42126
L62738 42089
L62738 41770
" />
<path d="M63113 41770
L62925 41770
L62906 41958
L62925 41939
L62963 41920
L63056 41920
L63094 41939
L63113 41958
L63131 41995
L63131 42089
L63113 42126
L63094 42145
L63056 42164
L62963 42164
L62925 42145
L62906 42126
" />
<path d="M63375 41770
L63413 41770
L63450 41789
L63469 41808
L63488 41845
L63506 41920
L63506 42014
L63488 42089
L63469 42126
L63450 42145
L63413 42164
L63375 42164
L63338 42145
L63319 42126
L63300 42089
L63281 42014
L63281 41920
L63300 41845
L63319 41808
L63338 41789
L63375 41770
" />
<path d="M63750 41770
L63788 41770
L63825 41789
L63844 41808
L63863 41845
L63881 41920
L63881 42014
L63863 42089
L63844 42126
L63825 42145
L63788 42164
L63750 42164
L63713 42145
L63694 42126
L63675 42089
L63656 42014
L63656 41920
L63675 41845
L63694 41808
L63713 41789
L63750 41770
" />
<path d="M63576 37782
L63839 38176
" />
<path d="M63839 37782
L63576 38176
" />
<path d="M64176 37782
L63989 37782
L63970 37970
L63989 37951
L64026 37932
L64120 37932
L64157 37951
L64176 37970
L64195 38007
L64195 38101
L64176 38138
L64157 38157
L64120 38176
L64026 38176
L63989 38157
L63970 38138
" />
<path d="M64439 37782
L64476 37782
L64514 37801
L64532 37820
L64551 37857
L64570 37932
L64570 38026
L64551 38101
L64532 38138
L64514 38157
L64476 38176
L64439 38176
L64401 38157
L64382 38138
L64364 38101
L64345 38026
L64345 37932
L64364 37857
L64382 37820
L64401 37801
L64439 37782
" />
<path d="M64814 37782
L64851 37782
L64889 37801
L64907 37820
L64926 37857
L64945 37932
L64945 38026
L64926 38101
L64907 38138
L64889 38157
L64851 38176
L64814 38176
L64776 38157
L64757 38138
L64739 38101
L64720 38026
L64720 37932
L64739 37857
L64757 37820
L64776 37801
L64814 37782
" />
<path d="M57563 46817
L57563 47099
L57545 47155
L57507 47192
L57451 47211
L57413 47211
" />
<path d="M57732 46855
L57751 46836
L57788 46817
L57882 46817
L57920 46836
L57938 46855
L57957 46892
L57957 46930
L57938 46986
L57713 47211
L57957 47211
" />
<path d="M58201 46817
L58238 46817
L58276 46836
L58295 46855
L58313 46892
L58332 46967
L58332 47061
L58313 47136
L58295 47174
L58276 47192
L58238 47211
L58201 47211
L58163 47192
L58145 47174
L58126 47136
L58107 47061
L58107 46967
L58126 46892
L58145 46855
L58163 46836
L58201 46817
" />
<path d="M58707 47211
L58482 47211
" />
<path d="M58595 47211
L58595 46817
L58557 46874
L58520 46911
L58482 46930
" />
<path d="M51324 37723
L51324 38004
L51305 38060
L51268 38098
L51212 38117
L51174 38117
" />
<path d="M51474 37723
L51718 37723
L51587 37873
L51643 37873
L51680 37892
L51699 37910
L51718 37948
L51718 38042
L51699 38079
L51680 38098
L51643 38117
L51530 38117
L51493 38098
L51474 38079
" />
<path d="M51836 44849
L51836 45130
L51817 45186
L51780 45224
L51723 45243
L51686 45243
" />
<path d="M52192 44849
L52117 44849
L52080 44868
L52061 44886
L52023 44943
L52005 45018
L52005 45168
L52023 45205
L52042 45224
L52080 45243
L52155 45243
L52192 45224
L52211 45205
L52230 45168
L52230 45074
L52211 45036
L52192 45018
L52155 44999
L52080 44999
L52042 45018
L52023 45036
L52005 45074
" />
<path d="M47972 46731
L48253 46731
L48310 46750
L48347 46787
L48366 46844
L48366 46881
" />
<path d="M47972 46581
L47972 46319
L48366 46487
" />
<path d="M44397 40582
L44716 40582
L44753 40563
L44772 40544
L44791 40507
L44791 40432
L44772 40394
L44753 40376
L44716 40357
L44397 40357
" />
<path d="M44397 40207
L44397 39963
L44547 40094
L44547 40038
L44566 40001
L44585 39982
L44622 39963
L44716 39963
L44753 39982
L44772 40001
L44791 40038
L44791 40151
L44772 40188
L44753 40207
" />
<path d="M44397 39720
L44397 39682
L44416 39645
L44435 39626
L44472 39607
L44547 39588
L44641 39588
L44716 39607
L44753 39626
L44772 39645
L44791 39682
L44791 39720
L44772 39757
L44753 39776
L44716 39794
L44641 39813
L44547 39813
L44472 39794
L44435 39776
L44416 39757
L44397 39720
" />
<path d="M44435 39438
L44416 39420
L44397 39382
L44397 39288
L44416 39251
L44435 39232
L44472 39213
L44510 39213
L44566 39232
L44791 39457
L44791 39213
" />
<path d="M48291 42294
L48291 42519
" />
<path d="M48291 42407
L47897 42407
L47954 42444
L47991 42482
L48010 42519
" />
<path d="M55642 46347
L55623 46366
L55567 46384
L55529 46384
L55473 46366
L55436 46328
L55417 46291
L55398 46216
L55398 46159
L55417 46084
L55436 46047
L55473 46009
L55529 45991
L55567 45991
L55623 46009
L55642 46028
" />
<path d="M56017 46384
L55792 46384
" />
<path d="M55904 46384
L55904 45991
L55867 46047
L55829 46084
L55792 46103
" />
<path d="M58791 49103
L58773 49121
L58716 49140
L58679 49140
L58623 49121
L58585 49084
L58566 49046
L58548 48971
L58548 48915
L58566 48840
L58585 48803
L58623 48765
L58679 48747
L58716 48747
L58773 48765
L58791 48784
" />
<path d="M58941 48784
L58960 48765
L58998 48747
L59091 48747
L59129 48765
L59148 48784
L59166 48821
L59166 48859
L59148 48915
L58923 49140
L59166 49140
" />
<path d="M55374 32490
L55692 32490
L55730 32472
L55749 32453
L55767 32415
L55767 32340
L55749 32303
L55730 32284
L55692 32265
L55374 32265
" />
<path d="M55767 31872
L55767 32097
" />
<path d="M55767 31984
L55374 31984
L55430 32022
L55467 32059
L55486 32097
" />
<path d="M66517 38970
L66536 38988
L66555 39045
L66555 39082
L66536 39138
L66499 39176
L66461 39195
L66386 39213
L66330 39213
L66255 39195
L66217 39176
L66180 39138
L66161 39082
L66161 39045
L66180 38988
L66199 38970
" />
<path d="M66161 38838
L66161 38595
L66311 38726
L66311 38670
L66330 38632
L66349 38613
L66386 38595
L66480 38595
L66517 38613
L66536 38632
L66555 38670
L66555 38782
L66536 38820
L66517 38838
" />
<path d="M66555 38220
L66555 38445
" />
<path d="M66555 38332
L66161 38332
L66217 38370
L66255 38407
L66274 38445
" />
<path d="M66555 37845
L66555 38070
" />
<path d="M66555 37957
L66161 37957
L66217 37995
L66255 38032
L66274 38070
" />
<path d="M69431 35387
L69449 35406
L69468 35462
L69468 35499
L69449 35556
L69412 35593
L69374 35612
L69299 35631
L69243 35631
L69168 35612
L69131 35593
L69093 35556
L69074 35499
L69074 35462
L69093 35406
L69112 35387
" />
<path d="M69074 35256
L69074 35012
L69224 35143
L69224 35087
L69243 35049
L69262 35031
L69299 35012
L69393 35012
L69431 35031
L69449 35049
L69468 35087
L69468 35199
L69449 35237
L69431 35256
" />
<path d="M69468 34637
L69468 34862
" />
<path d="M69468 34750
L69074 34750
L69131 34787
L69168 34824
L69187 34862
" />
<path d="M69112 34487
L69093 34468
L69074 34431
L69074 34337
L69093 34300
L69112 34281
L69149 34262
L69187 34262
L69243 34281
L69468 34506
L69468 34262
" />
<path d="M67865 30835
L67846 30854
L67790 30872
L67753 30872
L67697 30854
L67659 30816
L67640 30779
L67622 30704
L67622 30648
L67640 30573
L67659 30535
L67697 30498
L67753 30479
L67790 30479
L67846 30498
L67865 30516
" />
<path d="M67996 30479
L68240 30479
L68109 30629
L68165 30629
L68203 30648
L68221 30666
L68240 30704
L68240 30797
L68221 30835
L68203 30854
L68165 30872
L68053 30872
L68015 30854
L67996 30835
" />
<path d="M68615 30872
L68390 30872
" />
<path d="M68503 30872
L68503 30479
L68465 30535
L68428 30573
L68390 30591
" />
<path d="M68746 30479
L68990 30479
L68859 30629
L68915 30629
L68953 30648
L68971 30666
L68990 30704
L68990 30797
L68971 30835
L68953 30854
L68915 30872
L68803 30872
L68765 30854
L68746 30835
" />
<path d="M61712 37265
L61525 37397
" />
<path d="M61712 37490
L61319 37490
L61319 37340
L61337 37303
L61356 37284
L61393 37265
L61450 37265
L61487 37284
L61506 37303
L61525 37340
L61525 37490
" />
<path d="M61319 37134
L61319 36890
L61468 37022
L61468 36965
L61487 36928
L61506 36909
L61543 36890
L61637 36890
L61675 36909
L61693 36928
L61712 36965
L61712 37078
L61693 37115
L61675 37134
" />
<path d="M61712 36515
L61712 36740
" />
<path d="M61712 36628
L61319 36628
L61375 36665
L61412 36703
L61431 36740
" />
<path d="M61712 36140
L61712 36365
" />
<path d="M61712 36253
L61319 36253
L61375 36290
L61412 36328
L61431 36365
" />
<path d="M66440 31538
L66309 31351
" />
<path d="M66215 31538
L66215 31144
L66365 31144
L66403 31163
L66422 31182
L66440 31219
L66440 31276
L66422 31313
L66403 31332
L66365 31351
L66215 31351
" />
<path d="M66553 31144
L66684 31538
L66815 31144
" />
<path d="M66909 31144
L67153 31144
L67022 31294
L67078 31294
L67115 31313
L67134 31332
L67153 31369
L67153 31463
L67134 31501
L67115 31519
L67078 31538
L66965 31538
L66928 31519
L66909 31501
" />
<path d="M67528 31538
L67303 31538
" />
<path d="M67415 31538
L67415 31144
L67378 31201
L67340 31238
L67303 31257
" />
<path d="M67903 31538
L67678 31538
" />
<path d="M67790 31538
L67790 31144
L67753 31201
L67715 31238
L67678 31257
" />
<path d="M63452 37235
L63771 37235
L63809 37217
L63827 37198
L63846 37160
L63846 37085
L63827 37048
L63809 37029
L63771 37010
L63452 37010
" />
<path d="M63452 36860
L63452 36617
L63602 36748
L63602 36692
L63621 36654
L63640 36636
L63677 36617
L63771 36617
L63809 36636
L63827 36654
L63846 36692
L63846 36804
L63827 36842
L63809 36860
" />
<path d="M63846 36242
L63846 36467
" />
<path d="M63846 36354
L63452 36354
L63509 36392
L63546 36429
L63565 36467
" />
<path d="M63490 36092
L63471 36073
L63452 36036
L63452 35942
L63471 35904
L63490 35886
L63527 35867
L63565 35867
L63621 35886
L63846 36111
L63846 35867
" />
<path d="M67346 38948
L67346 39173
" />
<path d="M67346 39061
L66952 39061
L67009 39098
L67046 39136
L67065 39173
" />
<path d="M57938 28786
L57938 29067
L57920 29123
L57882 29161
L57826 29180
L57788 29180
" />
<path d="M58295 28917
L58295 29180
" />
<path d="M58201 28767
L58107 29048
L58351 29048
" />
</g> 
</svg>
