<?xml version="1.0" standalone="no"?>
 <!DOCTYPE svg PUBLIC "-//W3C//DTD SVG 1.1//EN" 
 "http://www.w3.org/Graphics/SVG/1.1/DTD/svg11.dtd"> 
<svg xmlns="http://www.w3.org/2000/svg" version="1.1" 
    width="29.7002cm" height="21.0007cm" viewBox="0 0 116930 82680 ">
<title>SVG Picture created as Arduino_As_Uno-B.SilkS.svg date 2016/04/08 10:40:55 </title>
  <desc>Picture generated by PCBNEW </desc>
<g style="fill:#000000; fill-opacity:1;stroke:#000000; stroke-opacity:1;
stroke-linecap:round; stroke-linejoin:round; "
 transform="translate(0 0) scale(1 1)">
</g>
<g style="fill:#000000; fill-opacity:0.0; 
stroke:#000000; stroke-width:-0.000393701; stroke-opacity:1; 
stroke-linecap:round; stroke-linejoin:round;">
</g>
<g style="fill:#000000; fill-opacity:0.0; 
stroke:#000000; stroke-width:59.0551; stroke-opacity:1; 
stroke-linecap:round; stroke-linejoin:round;">
<circle cx="45826" cy="40025.6" r="39.3701" /> 
<path d="M45727 39809
L45727 40005
" />
<path d="M44585 39809
L45727 39809
" />
<path d="M44585 40005
L44585 39809
" />
<path d="M45727 40005
L44585 40005
" />
<path d="M51711 32820
L51711 32801
" />
<path d="M51987 31718
L51711 31718
" />
<path d="M51711 31718
L51711 31816
" />
<path d="M51711 32820
L51711 32899
" />
<path d="M51711 32899
L51987 32899
" />
<circle cx="64881.1" cy="36679.1" r="39.3701" /> 
<path d="M64782 36462
L64782 36659
" />
<path d="M63640 36462
L64782 36462
" />
<path d="M63640 36659
L63640 36462
" />
<path d="M64782 36659
L63640 36659
" />
<path d="M45945 39252
L46263 39252
L46301 39270
L46319 39289
L46338 39327
L46338 39402
L46319 39439
L46301 39458
L46263 39477
L45945 39477
" />
<path d="M45945 39627
L45945 39870
L46095 39739
L46095 39795
L46113 39833
L46132 39852
L46170 39870
L46263 39870
L46301 39852
L46319 39833
L46338 39795
L46338 39683
L46319 39645
L46301 39627
" />
<path d="M45945 40114
L45945 40152
L45963 40189
L45982 40208
L46020 40227
L46095 40245
L46188 40245
L46263 40227
L46301 40208
L46319 40189
L46338 40152
L46338 40114
L46319 40077
L46301 40058
L46263 40039
L46188 40020
L46095 40020
L46020 40039
L45982 40058
L45963 40077
L45945 40114
" />
<path d="M46338 40620
L46338 40395
" />
<path d="M46338 40508
L45945 40508
L46001 40470
L46038 40433
L46057 40395
" />
<path d="M50866 31634
L51185 31634
L51222 31652
L51241 31671
L51259 31709
L51259 31784
L51241 31821
L51222 31840
L51185 31859
L50866 31859
" />
<path d="M50997 32215
L51259 32215
" />
<path d="M50847 32121
L51128 32027
L51128 32271
" />
<path d="M50866 32609
L50866 32421
L51053 32402
L51035 32421
L51016 32459
L51016 32552
L51035 32590
L51053 32609
L51091 32627
L51185 32627
L51222 32609
L51241 32590
L51259 32552
L51259 32459
L51241 32421
L51222 32402
" />
<path d="M50866 32871
L50866 32908
L50885 32946
L50903 32965
L50941 32983
L51016 33002
L51110 33002
L51185 32983
L51222 32965
L51241 32946
L51259 32908
L51259 32871
L51241 32833
L51222 32815
L51185 32796
L51110 32777
L51016 32777
L50941 32796
L50903 32815
L50885 32833
L50866 32871
" />
<path d="M65000 35905
L65318 35905
L65356 35924
L65375 35943
L65393 35980
L65393 36055
L65375 36093
L65356 36112
L65318 36130
L65000 36130
" />
<path d="M65000 36280
L65000 36524
L65150 36393
L65150 36449
L65168 36486
L65187 36505
L65225 36524
L65318 36524
L65356 36505
L65375 36486
L65393 36449
L65393 36336
L65375 36299
L65356 36280
" />
<path d="M65393 36899
L65393 36674
" />
<path d="M65393 36786
L65000 36786
L65056 36749
L65093 36711
L65112 36674
" />
<path d="M65393 37274
L65393 37049
" />
<path d="M65393 37161
L65000 37161
L65056 37124
L65093 37086
L65112 37049
" />
</g> 
</svg>
