M48
;DRILL file {KiCad 4.0.2-stable} date 11/04/2016 14:06:39
;FORMAT={-:-/ absolute / metric / decimal}
FMAT,2
METRIC,TZ
T1C0.599
T2C0.600
T3C0.800
T4C0.900
T5C1.001
T6C1.016
T7C1.100
T8C1.199
T9C1.300
T10C3.048
%
G90
G05
M71
T1
X162.249Y-108.365
X163.747Y-108.365
T2
X137.198Y-81.765
X137.198Y-83.035
X137.198Y-84.305
T3
X122.998Y-97.365
X122.998Y-99.365
X122.998Y-103.365
X122.998Y-105.365
X140.498Y-100.365
X141.098Y-113.865
X141.198Y-93.365
X142.498Y-100.365
X142.898Y-94.865
X145.498Y-97.365
X145.498Y-103.365
X147.498Y-97.365
X147.498Y-103.365
X150.198Y-78.565
X157.998Y-121.365
X160.498Y-111.865
X160.498Y-114.405
X160.498Y-116.945
X160.498Y-119.485
X168.118Y-111.865
X168.118Y-114.405
X168.118Y-116.945
X168.118Y-119.485
X172.198Y-87.765
X172.198Y-89.765
X172.298Y-77.865
X172.398Y-96.865
X172.398Y-98.865
X173.498Y-84.865
X175.498Y-87.765
T4
X117.698Y-93.365
X122.698Y-93.365
X124.198Y-110.915
X124.198Y-118.665
X138.998Y-120.865
X139.998Y-108.115
X139.998Y-115.865
X143.998Y-120.865
X146.998Y-120.865
X151.998Y-120.865
X159.898Y-101.565
X159.898Y-106.565
X166.098Y-101.565
X166.098Y-106.565
X169.998Y-102.865
X169.998Y-107.865
X170.998Y-81.465
X175.998Y-81.465
T5
X114.198Y-95.565
X114.198Y-105.725
X126.998Y-91.865
X126.998Y-102.025
X128.498Y-103.865
X128.498Y-114.025
X131.998Y-98.865
X131.998Y-113.865
X134.198Y-81.605
X134.198Y-91.765
X135.498Y-98.865
X135.498Y-113.865
X151.498Y-95.205
X151.498Y-105.365
X151.498Y-107.005
X151.498Y-117.165
X154.098Y-95.205
X154.098Y-105.365
X154.098Y-107.005
X154.098Y-117.165
X156.698Y-95.205
X156.698Y-105.365
X156.698Y-107.005
X156.698Y-117.165
X159.798Y-88.705
X159.798Y-98.865
X170.998Y-110.365
X170.998Y-120.525
X173.598Y-106.365
X173.598Y-116.525
X176.198Y-103.965
X176.198Y-114.125
T6
X129.794Y-75.565
X130.698Y-83.645
X130.698Y-86.185
X130.698Y-88.725
X130.698Y-91.265
X132.334Y-75.565
X134.874Y-75.565
X137.414Y-75.565
X138.938Y-123.825
X139.954Y-75.565
X141.478Y-123.825
X142.494Y-75.565
X144.018Y-123.825
X144.958Y-109.285
X144.958Y-111.825
X144.958Y-114.365
X145.034Y-75.565
X146.558Y-123.825
X147.498Y-78.765
X147.498Y-81.305
X147.498Y-83.845
X147.498Y-86.385
X147.498Y-88.925
X147.498Y-91.465
X147.498Y-109.285
X147.498Y-111.825
X147.498Y-114.365
X147.574Y-75.565
X149.098Y-123.825
X150.114Y-75.565
X151.638Y-123.825
X152.654Y-75.565
X154.178Y-123.825
X156.718Y-75.565
X156.718Y-123.825
X159.258Y-75.565
X161.798Y-75.565
X161.798Y-123.825
X164.338Y-75.565
X164.338Y-123.825
X166.878Y-75.565
X166.878Y-123.825
X169.418Y-75.565
X169.418Y-123.825
X171.958Y-75.565
X171.958Y-123.825
X174.498Y-75.565
X174.498Y-123.825
T7
X117.799Y-97.664
X117.799Y-99.564
X117.799Y-101.365
X117.799Y-103.166
X117.799Y-105.066
X166.199Y-89.164
X166.199Y-91.064
X166.199Y-92.865
X166.199Y-94.666
X166.199Y-96.566
T8
X116.259Y-87.066
X121.298Y-84.566
X121.298Y-89.565
X163.998Y-85.965
X166.497Y-80.926
X168.997Y-85.965
T9
X116.498Y-113.365
X116.498Y-118.365
X116.498Y-123.365
X129.498Y-120.365
X134.498Y-120.365
T10
X124.968Y-123.825
X126.238Y-75.565
X177.038Y-90.805
X177.038Y-118.745
T0
M30
