<?xml version="1.0" standalone="no"?>
 <!DOCTYPE svg PUBLIC "-//W3C//DTD SVG 1.1//EN" 
 "http://www.w3.org/Graphics/SVG/1.1/DTD/svg11.dtd"> 
<svg xmlns="http://www.w3.org/2000/svg" version="1.1" 
    width="11.4706cm" height="5.18414cm" viewBox="0 0 45160 20410 ">
<title>SVG Picture created as proto_trapapoul4-B.Fab.svg date 2017/04/03 21:15:02 </title>
  <desc>Picture generated by PCBNEW </desc>
<g style="fill:#000000; fill-opacity:1;stroke:#000000; stroke-opacity:1;
stroke-linecap:round; stroke-linejoin:round; "
 transform="translate(0 0) scale(1 1)">
</g>
<g style="fill:#000000; fill-opacity:0.0; 
stroke:#000000; stroke-width:-0.000393701; stroke-opacity:1; 
stroke-linecap:round; stroke-linejoin:round;">
</g>
<g style="fill:#000000; fill-opacity:0.0; 
stroke:#000000; stroke-width:39.3701; stroke-opacity:1; 
stroke-linecap:round; stroke-linejoin:round;">
<circle cx="10931.2" cy="6085.42" r="1574.8" /> 
<path d="M1856 764
L42013 764
" />
<path d="M43564.5 2070.46 A787.402 787.402 0.0 0 0 43999.9 2642.2 " />
<path d="M43999 2642
L44322 2796
" />
<path d="M44769.8 3506.17 A787.402 787.402 0.0 0 0 44322.1 2796.35 " />
<path d="M44353.3 17193.4 A787.402 787.402 0.0 0 0 44769.8 16498.8 " />
<path d="M44352 17193
L44005 17378
" />
<path d="M44005.2 17379 A787.402 787.402 0.0 0 0 43588.7 18073.6 " />
<path d="M281 18087
L281 2339
" />
<path d="M281.59 18087.5 A1574.8 1574.8 0.0 0 0 1856.39 19662.3 " />
<path d="M1856.39 764.641 A1574.8 1574.8 0.0 0 0 281.59 2339.44 " />
<path d="M17998.1 9426.06 A393.701 393.701 0.0 0 0 17604.4 9819.76 " />
<path d="M17604 16118
L17604 9819
" />
<path d="M17604.4 16119 A393.701 393.701 0.0 0 0 17998.1 16512.7 " />
<path d="M42013 19662
L1856 19662
" />
<path d="M35714.7 16512.7 A393.701 393.701 0.0 0 0 36108.4 16119 " />
<path d="M36108 9819
L36108 16118
" />
<path d="M36108.4 9819.07 A393.701 393.701 0.0 0 0 35714.7 9426.06 " />
<path d="M17998 9426
L35714 9426
" />
<path d="M43564.3 2063.28 A1574.8 1574.8 0.0 0 0 42013.9 764.641 " />
<path d="M44769 3500
L44769 16492
" />
<path d="M42013.9 19662.3 A1574.8 1574.8 0.0 0 0 43588.7 18087.5 " />
<path d="M17998 16512
L35714 16512
" />
</g>
<g style="fill:#000000; fill-opacity:0.0; 
stroke:#000000; stroke-width:59.0551; stroke-opacity:1; 
stroke-linecap:round; stroke-linejoin:round;">
<path d="M40989 6216
L40970 6235
L40951 6272
L40951 6366
L40970 6404
L40989 6422
L41026 6441
L41064 6441
L41120 6422
L41345 6197
L41345 6441
" />
<path d="M41345 6610
L40951 6610
" />
<path d="M41195 6647
L41345 6760
" />
<path d="M41083 6760
L41233 6610
" />
<path d="M40989 6910
L40970 6929
L40951 6966
L40951 7060
L40970 7097
L40989 7116
L41026 7135
L41064 7135
L41120 7116
L41345 6891
L41345 7135
" />
<path d="M13889 12355
L14048 12196
" />
<path d="M13969 12275
L13690 11997
L13756 12010
L13810 12010
L13849 11997
" />
<path d="M13438 12249
L13412 12275
L13399 12315
L13399 12342
L13412 12381
L13452 12448
L13518 12514
L13584 12554
L13624 12567
L13650 12567
L13690 12554
L13717 12527
L13730 12487
L13730 12461
L13717 12421
L13677 12355
L13611 12289
L13544 12249
L13505 12236
L13478 12236
L13438 12249
" />
<path d="M13173 12514
L13147 12540
L13133 12580
L13133 12607
L13147 12646
L13186 12713
L13253 12779
L13319 12819
L13359 12832
L13385 12832
L13425 12819
L13452 12792
L13465 12753
L13465 12726
L13452 12686
L13412 12620
L13346 12554
L13279 12514
L13239 12501
L13213 12501
L13173 12514
" />
<path d="M13054 12819
L13239 13004
" />
<path d="M13080 12845
L13054 12845
L13014 12859
L12974 12898
L12961 12938
L12974 12978
L13120 13124
" />
<path d="M12749 13203
L12842 13110
" />
<path d="M12988 13256
L12709 12978
L12577 13110
" />
<path d="M15063 11027
L15288 11027
" />
<path d="M15175 11027
L15175 10633
L15213 10689
L15250 10727
L15288 10746
" />
<path d="M14819 10633
L14781 10633
L14744 10652
L14725 10671
L14706 10708
L14688 10783
L14688 10877
L14706 10952
L14725 10989
L14744 11008
L14781 11027
L14819 11027
L14856 11008
L14875 10989
L14894 10952
L14913 10877
L14913 10783
L14894 10708
L14875 10671
L14856 10652
L14819 10633
" />
<path d="M14519 11027
L14519 10633
" />
<path d="M14482 10877
L14369 11027
" />
<path d="M14369 10764
L14519 10914
" />
<path d="M39337 15106
L38943 15106
L38943 15256
L38962 15294
L38981 15313
L39018 15331
L39075 15331
L39112 15313
L39131 15294
L39150 15256
L39150 15106
" />
<path d="M39337 15500
L38943 15500
L39337 15725
L38943 15725
" />
<path d="M39337 15912
L38943 15912
L38943 16062
L38962 16100
L38981 16119
L39018 16137
L39075 16137
L39112 16119
L39131 16100
L39150 16062
L39150 15912
" />
<path d="M37972 14924
L37729 14924
L37860 15074
L37804 15074
L37766 15093
L37747 15112
L37729 15149
L37729 15243
L37747 15281
L37766 15299
L37804 15318
L37916 15318
L37954 15299
L37972 15281
" />
<path d="M37597 14924
L37354 14924
L37485 15074
L37429 15074
L37391 15093
L37372 15112
L37354 15149
L37354 15243
L37372 15281
L37391 15299
L37429 15318
L37541 15318
L37579 15299
L37597 15281
" />
<path d="M37110 14924
L37072 14924
L37035 14943
L37016 14962
L36997 14999
L36979 15074
L36979 15168
L36997 15243
L37016 15281
L37035 15299
L37072 15318
L37110 15318
L37147 15299
L37166 15281
L37185 15243
L37204 15168
L37204 15074
L37185 14999
L37166 14962
L37147 14943
L37110 14924
" />
<path d="M38425 10436
L38181 10436
L38313 10586
L38256 10586
L38219 10605
L38200 10624
L38181 10661
L38181 10755
L38200 10792
L38219 10811
L38256 10830
L38369 10830
L38406 10811
L38425 10792
" />
<path d="M38050 10436
L37806 10436
L37938 10586
L37881 10586
L37844 10605
L37825 10624
L37806 10661
L37806 10755
L37825 10792
L37844 10811
L37881 10830
L37994 10830
L38031 10811
L38050 10792
" />
<path d="M37563 10436
L37525 10436
L37488 10455
L37469 10474
L37450 10511
L37431 10586
L37431 10680
L37450 10755
L37469 10792
L37488 10811
L37525 10830
L37563 10830
L37600 10811
L37619 10792
L37638 10755
L37656 10680
L37656 10586
L37638 10511
L37619 10474
L37600 10455
L37563 10436
" />
<path d="M40164 5845
L39770 5845
L40164 6070
L39770 6070
" />
<path d="M40164 6257
L39770 6257
L39770 6407
L39789 6445
L39808 6464
L39845 6482
L39901 6482
L39939 6464
L39958 6445
L39976 6407
L39976 6257
" />
<path d="M40164 6651
L39770 6651
L40164 6876
L39770 6876
" />
<path d="M39896 9885
L40121 9885
" />
<path d="M40008 9885
L40008 9491
L40046 9548
L40083 9585
L40121 9604
" />
<path d="M39652 9491
L39615 9491
L39577 9510
L39558 9529
L39540 9566
L39521 9641
L39521 9735
L39540 9810
L39558 9848
L39577 9866
L39615 9885
L39652 9885
L39690 9866
L39708 9848
L39727 9810
L39746 9735
L39746 9641
L39727 9566
L39708 9529
L39690 9510
L39652 9491
" />
<path d="M39277 9491
L39240 9491
L39202 9510
L39183 9529
L39165 9566
L39146 9641
L39146 9735
L39165 9810
L39183 9848
L39202 9866
L39240 9885
L39277 9885
L39315 9866
L39333 9848
L39352 9810
L39371 9735
L39371 9641
L39352 9566
L39333 9529
L39315 9510
L39277 9491
" />
<path d="M38977 9885
L38977 9491
" />
<path d="M38940 9735
L38827 9885
" />
<path d="M38827 9623
L38977 9773
" />
<path d="M36767 6717
L36711 6735
L36617 6735
L36579 6717
L36561 6698
L36542 6660
L36542 6623
L36561 6585
L36579 6567
L36617 6548
L36692 6529
L36729 6510
L36748 6492
L36767 6454
L36767 6417
L36748 6379
L36729 6361
L36692 6342
L36598 6342
L36542 6361
" />
<path d="M36148 6698
L36167 6717
L36223 6735
L36261 6735
L36317 6717
L36354 6679
L36373 6642
L36392 6567
L36392 6510
L36373 6435
L36354 6398
L36317 6361
L36261 6342
L36223 6342
L36167 6361
L36148 6379
" />
<path d="M35979 6735
L35979 6342
" />
<path d="M35979 6529
L35754 6529
" />
<path d="M35754 6735
L35754 6342
" />
<path d="M35492 6342
L35417 6342
L35380 6361
L35342 6398
L35323 6473
L35323 6604
L35342 6679
L35380 6717
L35417 6735
L35492 6735
L35529 6717
L35567 6679
L35586 6604
L35586 6473
L35567 6398
L35529 6361
L35492 6342
" />
<path d="M35211 6342
L34986 6342
" />
<path d="M35098 6735
L35098 6342
" />
<path d="M34911 6342
L34686 6342
" />
<path d="M34798 6735
L34798 6342
" />
<path d="M34555 6735
L34555 6342
" />
<path d="M34330 6735
L34498 6510
" />
<path d="M34330 6342
L34555 6567
" />
<path d="M34086 6548
L34086 6735
" />
<path d="M34217 6342
L34086 6548
L33955 6342
" />
<path d="M38735 14236
L38679 14255
L38585 14255
L38548 14236
L38529 14218
L38510 14180
L38510 14143
L38529 14105
L38548 14086
L38585 14068
L38660 14049
L38698 14030
L38717 14011
L38735 13974
L38735 13936
L38717 13899
L38698 13880
L38660 13861
L38567 13861
L38510 13880
" />
<path d="M38117 14218
L38135 14236
L38192 14255
L38229 14255
L38285 14236
L38323 14199
L38342 14161
L38360 14086
L38360 14030
L38342 13955
L38323 13918
L38285 13880
L38229 13861
L38192 13861
L38135 13880
L38117 13899
" />
<path d="M37948 14255
L37948 13861
" />
<path d="M37948 14049
L37723 14049
" />
<path d="M37723 14255
L37723 13861
" />
<path d="M37461 13861
L37386 13861
L37348 13880
L37311 13918
L37292 13993
L37292 14124
L37311 14199
L37348 14236
L37386 14255
L37461 14255
L37498 14236
L37535 14199
L37554 14124
L37554 13993
L37535 13918
L37498 13880
L37461 13861
" />
<path d="M37179 13861
L36954 13861
" />
<path d="M37067 14255
L37067 13861
" />
<path d="M36879 13861
L36654 13861
" />
<path d="M36767 14255
L36767 13861
" />
<path d="M36523 14255
L36523 13861
" />
<path d="M36298 14255
L36467 14030
" />
<path d="M36298 13861
L36523 14086
" />
<path d="M36054 14068
L36054 14255
" />
<path d="M36186 13861
L36054 14068
L35923 13861
" />
<path d="M24287 5181
L24230 5200
L24137 5200
L24099 5181
L24080 5163
L24062 5125
L24062 5088
L24080 5050
L24099 5031
L24137 5013
L24212 4994
L24249 4975
L24268 4956
L24287 4919
L24287 4881
L24268 4844
L24249 4825
L24212 4806
L24118 4806
L24062 4825
" />
<path d="M23668 5163
L23687 5181
L23743 5200
L23780 5200
L23837 5181
L23874 5144
L23893 5106
L23912 5031
L23912 4975
L23893 4900
L23874 4863
L23837 4825
L23780 4806
L23743 4806
L23687 4825
L23668 4844
" />
<path d="M23499 5200
L23499 4806
" />
<path d="M23499 4994
L23274 4994
" />
<path d="M23274 5200
L23274 4806
" />
<path d="M23012 4806
L22937 4806
L22899 4825
L22862 4863
L22843 4938
L22843 5069
L22862 5144
L22899 5181
L22937 5200
L23012 5200
L23049 5181
L23087 5144
L23105 5069
L23105 4938
L23087 4863
L23049 4825
L23012 4806
" />
<path d="M22730 4806
L22505 4806
" />
<path d="M22618 5200
L22618 4806
" />
<path d="M22431 4806
L22206 4806
" />
<path d="M22318 5200
L22318 4806
" />
<path d="M22074 5200
L22074 4806
" />
<path d="M21849 5200
L22018 4975
" />
<path d="M21849 4806
L22074 5031
" />
<path d="M21606 5013
L21606 5200
" />
<path d="M21737 4806
L21606 5013
L21474 4806
" />
<path d="M5527 9594
L5686 9754
" />
<path d="M5606 9674
L5885 9396
L5872 9462
L5872 9515
L5885 9555
" />
<path d="M5633 9144
L5606 9117
L5567 9104
L5540 9104
L5500 9117
L5434 9157
L5368 9223
L5328 9290
L5315 9329
L5315 9356
L5328 9396
L5355 9422
L5394 9435
L5421 9435
L5461 9422
L5527 9382
L5593 9316
L5633 9250
L5646 9210
L5646 9183
L5633 9144
" />
<path d="M5368 8879
L5341 8852
L5302 8839
L5275 8839
L5235 8852
L5169 8892
L5103 8958
L5063 9024
L5050 9064
L5050 9091
L5063 9130
L5089 9157
L5129 9170
L5156 9170
L5196 9157
L5262 9117
L5328 9051
L5368 8985
L5381 8945
L5381 8918
L5368 8879
" />
<path d="M5063 8759
L4877 8945
" />
<path d="M5036 8786
L5036 8759
L5023 8720
L4983 8680
L4944 8666
L4904 8680
L4758 8826
" />
<path d="M4679 8454
L4771 8547
" />
<path d="M4625 8693
L4904 8415
L4771 8282
" />
<path d="M10606 13374
L10765 13533
" />
<path d="M10685 13454
L10964 13175
L10950 13241
L10950 13294
L10964 13334
" />
<path d="M10712 12923
L10685 12897
L10645 12883
L10619 12883
L10579 12897
L10513 12937
L10447 13003
L10407 13069
L10394 13109
L10394 13135
L10407 13175
L10433 13202
L10473 13215
L10500 13215
L10539 13202
L10606 13162
L10672 13096
L10712 13029
L10725 12990
L10725 12963
L10712 12923
" />
<path d="M10447 12658
L10420 12632
L10380 12618
L10354 12618
L10314 12632
L10248 12671
L10181 12738
L10142 12804
L10128 12844
L10128 12870
L10142 12910
L10168 12937
L10208 12950
L10234 12950
L10274 12937
L10341 12897
L10407 12830
L10447 12764
L10460 12724
L10460 12698
L10447 12658
" />
<path d="M10142 12539
L9956 12724
" />
<path d="M10115 12565
L10115 12539
L10102 12499
L10062 12459
L10022 12446
L9983 12459
L9837 12605
" />
<path d="M9757 12234
L9850 12327
" />
<path d="M9704 12473
L9983 12194
L9850 12062
" />
<path d="M9778 17562
L10003 17562
" />
<path d="M9890 17562
L9890 17169
L9928 17225
L9965 17262
L10003 17281
" />
<path d="M9534 17169
L9497 17169
L9459 17187
L9440 17206
L9422 17244
L9403 17319
L9403 17412
L9422 17487
L9440 17525
L9459 17543
L9497 17562
L9534 17562
L9571 17543
L9590 17525
L9609 17487
L9628 17412
L9628 17319
L9609 17244
L9590 17206
L9571 17187
L9534 17169
" />
<path d="M9234 17300
L9234 17693
" />
<path d="M9234 17319
L9197 17300
L9122 17300
L9084 17319
L9065 17337
L9047 17375
L9047 17487
L9065 17525
L9084 17543
L9122 17562
L9197 17562
L9234 17543
" />
<path d="M8747 17356
L8878 17356
" />
<path d="M8878 17562
L8878 17169
L8690 17169
" />
<path d="M7927 17523
L8152 17523
" />
<path d="M8040 17523
L8040 17129
L8077 17185
L8115 17223
L8152 17242
" />
<path d="M7684 17129
L7646 17129
L7609 17148
L7590 17167
L7571 17204
L7552 17279
L7552 17373
L7571 17448
L7590 17485
L7609 17504
L7646 17523
L7684 17523
L7721 17504
L7740 17485
L7759 17448
L7777 17373
L7777 17279
L7759 17204
L7740 17167
L7721 17148
L7684 17129
" />
<path d="M7384 17260
L7384 17654
" />
<path d="M7384 17279
L7346 17260
L7271 17260
L7234 17279
L7215 17298
L7196 17335
L7196 17448
L7215 17485
L7234 17504
L7271 17523
L7346 17523
L7384 17504
" />
<path d="M6896 17317
L7027 17317
" />
<path d="M7027 17523
L7027 17129
L6840 17129
" />
<path d="M12564 13980
L12789 13980
" />
<path d="M12676 13980
L12676 13586
L12714 13642
L12751 13680
L12789 13698
" />
<path d="M12320 13586
L12282 13586
L12245 13605
L12226 13623
L12207 13661
L12189 13736
L12189 13830
L12207 13905
L12226 13942
L12245 13961
L12282 13980
L12320 13980
L12357 13961
L12376 13942
L12395 13905
L12414 13830
L12414 13736
L12395 13661
L12376 13623
L12357 13605
L12320 13586
" />
<path d="M11945 13586
L11907 13586
L11870 13605
L11851 13623
L11832 13661
L11814 13736
L11814 13830
L11832 13905
L11851 13942
L11870 13961
L11907 13980
L11945 13980
L11982 13961
L12001 13942
L12020 13905
L12039 13830
L12039 13736
L12020 13661
L12001 13623
L11982 13605
L11945 13586
" />
<path d="M11645 13717
L11645 13980
" />
<path d="M11645 13755
L11626 13736
L11589 13717
L11532 13717
L11495 13736
L11476 13773
L11476 13980
" />
<path d="M11158 13773
L11289 13773
" />
<path d="M11289 13980
L11289 13586
L11101 13586
" />
<path d="M5700 13733
L5859 13574
" />
<path d="M5780 13653
L5501 13375
L5568 13388
L5621 13388
L5660 13375
" />
<path d="M5249 13627
L5223 13653
L5210 13693
L5210 13720
L5223 13759
L5263 13826
L5329 13892
L5395 13932
L5435 13945
L5461 13945
L5501 13932
L5528 13905
L5541 13865
L5541 13839
L5528 13799
L5488 13733
L5422 13666
L5355 13627
L5316 13613
L5289 13613
L5249 13627
" />
<path d="M4984 13892
L4958 13918
L4944 13958
L4944 13985
L4958 14024
L4997 14091
L5064 14157
L5130 14197
L5170 14210
L5196 14210
L5236 14197
L5263 14170
L5276 14130
L5276 14104
L5263 14064
L5223 13998
L5157 13932
L5090 13892
L5050 13879
L5024 13879
L4984 13892
" />
<path d="M4865 14197
L5050 14382
" />
<path d="M4891 14223
L4865 14223
L4825 14237
L4785 14276
L4772 14316
L4785 14356
L4931 14502
" />
<path d="M4560 14581
L4653 14488
" />
<path d="M4799 14634
L4520 14356
L4388 14488
" />
<path d="M31240 4690
L31502 4690
" />
<path d="M31090 4596
L31371 4503
L31371 4746
" />
<path d="M31109 4859
L31109 5121
L31502 4953
" />
<path d="M31109 5346
L31109 5384
L31128 5421
L31146 5440
L31184 5459
L31259 5477
L31353 5477
L31428 5459
L31465 5440
L31484 5421
L31502 5384
L31502 5346
L31484 5309
L31465 5290
L31428 5271
L31353 5253
L31259 5253
L31184 5271
L31146 5290
L31128 5309
L31109 5346
" />
<path d="M31240 5646
L31634 5646
" />
<path d="M31259 5646
L31240 5684
L31240 5759
L31259 5796
L31278 5815
L31315 5834
L31428 5834
L31465 5815
L31484 5796
L31502 5759
L31502 5684
L31484 5646
" />
<path d="M31296 6134
L31296 6002
" />
<path d="M31502 6002
L31109 6002
L31109 6190
" />
<path d="M33223 4759
L33448 4759
" />
<path d="M33335 4759
L33335 4365
L33373 4422
L33410 4459
L33448 4478
" />
<path d="M32979 4365
L32941 4365
L32904 4384
L32885 4403
L32866 4440
L32848 4515
L32848 4609
L32866 4684
L32885 4722
L32904 4740
L32941 4759
L32979 4759
L33016 4740
L33035 4722
L33054 4684
L33073 4609
L33073 4515
L33054 4440
L33035 4403
L33016 4384
L32979 4365
" />
<path d="M32510 4497
L32510 4759
" />
<path d="M32679 4497
L32679 4703
L32660 4740
L32623 4759
L32566 4759
L32529 4740
L32510 4722
" />
<path d="M32191 4553
L32323 4553
" />
<path d="M32323 4759
L32323 4365
L32135 4365
" />
<path d="M38321 12523
L38546 12523
" />
<path d="M38434 12523
L38434 12129
L38471 12185
L38508 12223
L38546 12242
" />
<path d="M38077 12129
L38040 12129
L38002 12148
L37984 12167
L37965 12204
L37946 12279
L37946 12373
L37965 12448
L37984 12485
L38002 12504
L38040 12523
L38077 12523
L38115 12504
L38134 12485
L38152 12448
L38171 12373
L38171 12279
L38152 12204
L38134 12167
L38115 12148
L38077 12129
" />
<path d="M37609 12260
L37609 12523
" />
<path d="M37777 12260
L37777 12467
L37759 12504
L37721 12523
L37665 12523
L37627 12504
L37609 12485
" />
<path d="M37290 12317
L37421 12317
" />
<path d="M37421 12523
L37421 12129
L37234 12129
" />
<path d="M40318 10607
L40318 10869
" />
<path d="M40411 10457
L40505 10738
L40261 10738
" />
<path d="M40149 10476
L39886 10476
L40055 10869
" />
<path d="M39661 10476
L39624 10476
L39586 10494
L39568 10513
L39549 10551
L39530 10626
L39530 10719
L39549 10794
L39568 10832
L39586 10851
L39624 10869
L39661 10869
L39699 10851
L39718 10832
L39736 10794
L39755 10719
L39755 10626
L39736 10551
L39718 10513
L39699 10494
L39661 10476
" />
<path d="M39362 10607
L39362 11001
" />
<path d="M39362 10626
L39324 10607
L39249 10607
L39212 10626
L39193 10644
L39174 10682
L39174 10794
L39193 10832
L39212 10851
L39249 10869
L39324 10869
L39362 10851
" />
<path d="M38874 10663
L39005 10663
" />
<path d="M39005 10869
L39005 10476
L38818 10476
" />
<path d="M40880 13389
L41105 13389
" />
<path d="M40993 13389
L40993 12995
L41030 13052
L41068 13089
L41105 13108
" />
<path d="M40636 12995
L40599 12995
L40561 13014
L40543 13033
L40524 13070
L40505 13145
L40505 13239
L40524 13314
L40543 13352
L40561 13370
L40599 13389
L40636 13389
L40674 13370
L40693 13352
L40711 13314
L40730 13239
L40730 13145
L40711 13070
L40693 13033
L40674 13014
L40636 12995
" />
<path d="M40168 13127
L40168 13389
" />
<path d="M40336 13127
L40336 13333
L40318 13370
L40280 13389
L40224 13389
L40186 13370
L40168 13352
" />
<path d="M39849 13183
L39980 13183
" />
<path d="M39980 13389
L39980 12995
L39793 12995
" />
<path d="M22219 3704
L22444 3704
" />
<path d="M22331 3704
L22331 3310
L22369 3367
L22406 3404
L22444 3423
" />
<path d="M21975 3310
L21937 3310
L21900 3329
L21881 3348
L21862 3385
L21844 3460
L21844 3554
L21862 3629
L21881 3666
L21900 3685
L21937 3704
L21975 3704
L22012 3685
L22031 3666
L22050 3629
L22069 3554
L22069 3460
L22050 3385
L22031 3348
L22012 3329
L21975 3310
" />
<path d="M21506 3441
L21506 3704
" />
<path d="M21675 3441
L21675 3648
L21656 3685
L21619 3704
L21562 3704
L21525 3685
L21506 3666
" />
<path d="M21188 3498
L21319 3498
" />
<path d="M21319 3704
L21319 3310
L21131 3310
" />
<path d="M4858 13020
L5017 13179
" />
<path d="M4937 13099
L5216 12821
L5202 12887
L5202 12940
L5216 12980
" />
<path d="M4964 12569
L4937 12542
L4897 12529
L4871 12529
L4831 12542
L4765 12582
L4699 12648
L4659 12715
L4646 12755
L4646 12781
L4659 12821
L4685 12847
L4725 12861
L4752 12861
L4791 12847
L4858 12808
L4924 12741
L4964 12675
L4977 12635
L4977 12609
L4964 12569
" />
<path d="M4699 12304
L4672 12277
L4632 12264
L4606 12264
L4566 12277
L4500 12317
L4433 12383
L4394 12450
L4380 12489
L4380 12516
L4394 12556
L4420 12582
L4460 12595
L4486 12595
L4526 12582
L4593 12542
L4659 12476
L4699 12410
L4712 12370
L4712 12344
L4699 12304
" />
<path d="M4394 12184
L4208 12370
" />
<path d="M4367 12211
L4367 12184
L4354 12145
L4314 12105
L4274 12092
L4235 12105
L4089 12251
" />
<path d="M4009 11880
L4102 11972
" />
<path d="M3956 12118
L4235 11840
L4102 11707
" />
<path d="M7642 5476
L7867 5476
" />
<path d="M7755 5476
L7755 5082
L7792 5138
L7830 5176
L7867 5194
" />
<path d="M7399 5082
L7361 5082
L7324 5101
L7305 5119
L7286 5157
L7267 5232
L7267 5326
L7286 5401
L7305 5438
L7324 5457
L7361 5476
L7399 5476
L7436 5457
L7455 5438
L7474 5401
L7492 5326
L7492 5232
L7474 5157
L7455 5119
L7436 5101
L7399 5082
" />
<path d="M7024 5082
L6986 5082
L6949 5101
L6930 5119
L6911 5157
L6892 5232
L6892 5326
L6911 5401
L6930 5438
L6949 5457
L6986 5476
L7024 5476
L7061 5457
L7080 5438
L7099 5401
L7117 5326
L7117 5232
L7099 5157
L7080 5119
L7061 5101
L7024 5082
" />
<path d="M6724 5213
L6724 5476
" />
<path d="M6724 5251
L6705 5232
L6667 5213
L6611 5213
L6574 5232
L6555 5269
L6555 5476
" />
<path d="M6236 5269
L6368 5269
" />
<path d="M6368 5476
L6368 5082
L6180 5082
" />
<path d="M7524 6421
L7749 6421
" />
<path d="M7637 6421
L7637 6027
L7674 6083
L7712 6121
L7749 6139
" />
<path d="M7281 6027
L7243 6027
L7206 6046
L7187 6064
L7168 6102
L7149 6177
L7149 6271
L7168 6346
L7187 6383
L7206 6402
L7243 6421
L7281 6421
L7318 6402
L7337 6383
L7356 6346
L7374 6271
L7374 6177
L7356 6102
L7337 6064
L7318 6046
L7281 6027
" />
<path d="M6906 6027
L6868 6027
L6831 6046
L6812 6064
L6793 6102
L6774 6177
L6774 6271
L6793 6346
L6812 6383
L6831 6402
L6868 6421
L6906 6421
L6943 6402
L6962 6383
L6981 6346
L6999 6271
L6999 6177
L6981 6102
L6962 6064
L6943 6046
L6906 6027
" />
<path d="M6606 6158
L6606 6421
" />
<path d="M6606 6196
L6587 6177
L6549 6158
L6493 6158
L6456 6177
L6437 6214
L6437 6421
" />
<path d="M6118 6214
L6249 6214
" />
<path d="M6249 6421
L6249 6027
L6062 6027
" />
<path d="M28636 5830
L28861 5830
" />
<path d="M28748 5830
L28748 5436
L28786 5492
L28823 5530
L28861 5549
" />
<path d="M28392 5436
L28355 5436
L28317 5455
L28299 5474
L28280 5511
L28261 5586
L28261 5680
L28280 5755
L28299 5792
L28317 5811
L28355 5830
L28392 5830
L28430 5811
L28449 5792
L28467 5755
L28486 5680
L28486 5586
L28467 5511
L28449 5474
L28430 5455
L28392 5436
" />
<path d="M27924 5567
L27924 5830
" />
<path d="M28092 5567
L28092 5774
L28074 5811
L28036 5830
L27980 5830
L27942 5811
L27924 5792
" />
<path d="M27605 5624
L27736 5624
" />
<path d="M27736 5830
L27736 5436
L27549 5436
" />
<path d="M7524 7287
L7749 7287
" />
<path d="M7637 7287
L7637 6893
L7674 6949
L7712 6987
L7749 7005
" />
<path d="M7281 6893
L7243 6893
L7206 6912
L7187 6930
L7168 6968
L7149 7043
L7149 7137
L7168 7212
L7187 7249
L7206 7268
L7243 7287
L7281 7287
L7318 7268
L7337 7249
L7356 7212
L7374 7137
L7374 7043
L7356 6968
L7337 6930
L7318 6912
L7281 6893
" />
<path d="M6906 6893
L6868 6893
L6831 6912
L6812 6930
L6793 6968
L6774 7043
L6774 7137
L6793 7212
L6812 7249
L6831 7268
L6868 7287
L6906 7287
L6943 7268
L6962 7249
L6981 7212
L6999 7137
L6999 7043
L6981 6968
L6962 6930
L6943 6912
L6906 6893
" />
<path d="M6606 7024
L6606 7287
" />
<path d="M6606 7062
L6587 7043
L6549 7024
L6493 7024
L6456 7043
L6437 7080
L6437 7287
" />
<path d="M6118 7080
L6249 7080
" />
<path d="M6249 7287
L6249 6893
L6062 6893
" />
<path d="M40754 15451
L40361 15451
L40754 15676
L40361 15676
" />
<path d="M40754 15864
L40361 15864
L40361 16014
L40380 16051
L40398 16070
L40436 16089
L40492 16089
L40529 16070
L40548 16051
L40567 16014
L40567 15864
" />
<path d="M40754 16257
L40361 16257
L40754 16482
L40361 16482
" />
<path d="M37841 7705
L37447 7705
L37447 7855
L37466 7892
L37485 7911
L37522 7930
L37579 7930
L37616 7911
L37635 7892
L37654 7855
L37654 7705
" />
<path d="M37841 8098
L37447 8098
L37841 8323
L37447 8323
" />
<path d="M37841 8511
L37447 8511
L37447 8661
L37466 8698
L37485 8717
L37522 8736
L37579 8736
L37616 8717
L37635 8698
L37654 8661
L37654 8511
" />
<path d="M24613 6441
L24613 6216
" />
<path d="M24613 6329
L24219 6329
L24275 6291
L24313 6254
L24332 6216
" />
<path d="M24219 6685
L24219 6722
L24238 6760
L24257 6779
L24294 6797
L24369 6816
L24463 6816
L24538 6797
L24575 6779
L24594 6760
L24613 6722
L24613 6685
L24594 6647
L24575 6629
L24538 6610
L24463 6591
L24369 6591
L24294 6610
L24257 6629
L24238 6647
L24219 6685
" />
<path d="M24613 6985
L24219 6985
" />
<path d="M24463 7022
L24613 7135
" />
<path d="M24350 7135
L24500 6985
" />
<path d="M12955 11951
L13114 11792
" />
<path d="M13034 11871
L12756 11593
L12822 11606
L12875 11606
L12915 11593
" />
<path d="M12504 11845
L12477 11871
L12464 11911
L12464 11937
L12477 11977
L12517 12043
L12583 12110
L12650 12150
L12689 12163
L12716 12163
L12756 12150
L12782 12123
L12796 12083
L12796 12057
L12782 12017
L12743 11951
L12676 11884
L12610 11845
L12570 11831
L12544 11831
L12504 11845
" />
<path d="M12570 12335
L12292 12057
" />
<path d="M12438 12256
L12464 12441
" />
<path d="M12279 12256
L12491 12256
" />
<path d="M12207 11321
L12366 11162
" />
<path d="M12286 11241
L12008 10963
L12074 10976
L12127 10976
L12167 10963
" />
<path d="M11756 11215
L11729 11241
L11716 11281
L11716 11307
L11729 11347
L11769 11414
L11835 11480
L11902 11520
L11941 11533
L11968 11533
L12008 11520
L12034 11493
L12048 11453
L12048 11427
L12034 11387
L11994 11321
L11928 11254
L11862 11215
L11822 11201
L11796 11201
L11756 11215
" />
<path d="M11822 11705
L11544 11427
" />
<path d="M11690 11626
L11716 11811
" />
<path d="M11531 11626
L11743 11626
" />
<path d="M5183 12085
L5342 12244
" />
<path d="M5263 12165
L5541 11886
L5528 11953
L5528 12006
L5541 12045
" />
<path d="M5289 11635
L5263 11608
L5223 11595
L5196 11595
L5157 11608
L5090 11648
L5024 11714
L4984 11780
L4971 11820
L4971 11847
L4984 11886
L5011 11913
L5050 11926
L5077 11926
L5117 11913
L5183 11873
L5249 11807
L5289 11741
L5302 11701
L5302 11674
L5289 11635
" />
<path d="M4799 11701
L5077 11422
" />
<path d="M4878 11568
L4693 11595
" />
<path d="M4878 11409
L4878 11621
" />
<path d="M38941 13468
L39166 13468
" />
<path d="M39053 13468
L39053 13074
L39091 13130
L39128 13168
L39166 13187
" />
<path d="M38697 13074
L38659 13074
L38622 13093
L38603 13112
L38584 13149
L38566 13224
L38566 13318
L38584 13393
L38603 13430
L38622 13449
L38659 13468
L38697 13468
L38734 13449
L38753 13430
L38772 13393
L38791 13318
L38791 13224
L38772 13149
L38753 13112
L38734 13093
L38697 13074
" />
<path d="M38397 13468
L38397 13074
" />
<path d="M38359 13318
L38247 13468
" />
<path d="M38247 13205
L38397 13355
" />
<path d="M39424 8119
L39609 8304
" />
<path d="M39384 7947
L39649 8079
L39477 8251
" />
<path d="M39212 8145
L39026 8331
L39424 8490
" />
<path d="M39198 8715
L38920 8437
" />
<path d="M39066 8636
L39092 8821
" />
<path d="M38907 8636
L39119 8636
" />
<path d="M15378 13113
L15603 13113
" />
<path d="M15490 13113
L15490 12720
L15528 12776
L15565 12813
L15603 12832
" />
<path d="M15134 12720
L15096 12720
L15059 12738
L15040 12757
L15021 12795
L15003 12870
L15003 12963
L15021 13038
L15040 13076
L15059 13095
L15096 13113
L15134 13113
L15171 13095
L15190 13076
L15209 13038
L15228 12963
L15228 12870
L15209 12795
L15190 12757
L15171 12738
L15134 12720
" />
<path d="M14834 13113
L14834 12720
" />
<path d="M14796 12963
L14684 13113
" />
<path d="M14684 12851
L14834 13001
" />
<path d="M10929 2208
L11154 2208
" />
<path d="M11041 2208
L11041 1814
L11079 1870
L11116 1908
L11154 1927
" />
<path d="M10685 1814
L10648 1814
L10610 1833
L10591 1852
L10573 1889
L10554 1964
L10554 2058
L10573 2133
L10591 2170
L10610 2189
L10648 2208
L10685 2208
L10723 2189
L10741 2170
L10760 2133
L10779 2058
L10779 1964
L10760 1889
L10741 1852
L10723 1833
L10685 1814
" />
<path d="M10385 2208
L10385 1814
" />
<path d="M10348 2058
L10235 2208
" />
<path d="M10235 1945
L10385 2095
" />
<path d="M7894 2112
L8156 2112
" />
<path d="M7744 2019
L8025 1925
L8025 2169
" />
<path d="M7762 2281
L7762 2543
L8156 2375
" />
<path d="M8156 2693
L7762 2693
" />
<path d="M8006 2731
L8156 2843
" />
<path d="M7894 2843
L8044 2693
" />
<path d="M8882 3861
L9107 3861
" />
<path d="M8994 3861
L8994 3468
L9032 3524
L9069 3561
L9107 3580
" />
<path d="M8638 3468
L8600 3468
L8563 3486
L8544 3505
L8525 3543
L8507 3618
L8507 3711
L8525 3786
L8544 3824
L8563 3843
L8600 3861
L8638 3861
L8675 3843
L8694 3824
L8713 3786
L8732 3711
L8732 3618
L8713 3543
L8694 3505
L8675 3486
L8638 3468
" />
<path d="M8338 3861
L8338 3468
" />
<path d="M8300 3711
L8188 3861
" />
<path d="M8188 3599
L8338 3749
" />
<path d="M26936 5427
L26936 5202
" />
<path d="M26936 5314
L26542 5314
L26598 5277
L26636 5239
L26654 5202
" />
<path d="M26542 5671
L26542 5708
L26561 5746
L26579 5764
L26617 5783
L26692 5802
L26786 5802
L26861 5783
L26898 5764
L26917 5746
L26936 5708
L26936 5671
L26917 5633
L26898 5614
L26861 5596
L26786 5577
L26692 5577
L26617 5596
L26579 5614
L26561 5633
L26542 5671
" />
<path d="M26542 6046
L26542 6083
L26561 6121
L26579 6139
L26617 6158
L26692 6177
L26786 6177
L26861 6158
L26898 6139
L26917 6121
L26936 6083
L26936 6046
L26917 6008
L26898 5989
L26861 5971
L26786 5952
L26692 5952
L26617 5971
L26579 5989
L26561 6008
L26542 6046
" />
<path d="M26936 6346
L26542 6346
" />
<path d="M26786 6383
L26936 6495
" />
<path d="M26673 6495
L26823 6346
" />
<path d="M28675 6893
L28900 6893
" />
<path d="M28788 6893
L28788 6499
L28825 6555
L28863 6593
L28900 6612
" />
<path d="M28432 6499
L28394 6499
L28357 6518
L28338 6537
L28319 6574
L28300 6649
L28300 6743
L28319 6818
L28338 6855
L28357 6874
L28394 6893
L28432 6893
L28469 6874
L28488 6855
L28507 6818
L28525 6743
L28525 6649
L28507 6574
L28488 6537
L28469 6518
L28432 6499
" />
<path d="M28057 6499
L28019 6499
L27982 6518
L27963 6537
L27944 6574
L27925 6649
L27925 6743
L27944 6818
L27963 6855
L27982 6874
L28019 6893
L28057 6893
L28094 6874
L28113 6855
L28132 6818
L28150 6743
L28150 6649
L28132 6574
L28113 6537
L28094 6518
L28057 6499
" />
<path d="M27757 6893
L27757 6499
" />
<path d="M27719 6743
L27607 6893
" />
<path d="M27607 6630
L27757 6780
" />
<path d="M42059 14529
L42041 14510
L42003 14491
L41909 14491
L41872 14510
L41853 14529
L41834 14566
L41834 14604
L41853 14660
L42078 14885
L41834 14885
" />
<path d="M41666 14885
L41666 14491
" />
<path d="M41628 14735
L41516 14885
" />
<path d="M41516 14623
L41666 14773
" />
<path d="M41366 14529
L41347 14510
L41309 14491
L41216 14491
L41178 14510
L41159 14529
L41141 14566
L41141 14604
L41159 14660
L41384 14885
L41141 14885
" />
<path d="M16319 6893
L16075 6893
L16206 7043
L16150 7043
L16113 7062
L16094 7080
L16075 7118
L16075 7212
L16094 7249
L16113 7268
L16150 7287
L16263 7287
L16300 7268
L16319 7249
" />
<path d="M15944 6893
L15700 6893
L15831 7043
L15775 7043
L15738 7062
L15719 7080
L15700 7118
L15700 7212
L15719 7249
L15738 7268
L15775 7287
L15888 7287
L15925 7268
L15944 7249
" />
<path d="M15456 6893
L15419 6893
L15381 6912
L15363 6930
L15344 6968
L15325 7043
L15325 7137
L15344 7212
L15363 7249
L15381 7268
L15419 7287
L15456 7287
L15494 7268
L15513 7249
L15531 7212
L15550 7137
L15550 7043
L15531 6968
L15513 6930
L15494 6912
L15456 6893
" />
<path d="M18051 7326
L17807 7326
L17939 7476
L17882 7476
L17845 7495
L17826 7513
L17807 7551
L17807 7645
L17826 7682
L17845 7701
L17882 7720
L17995 7720
L18032 7701
L18051 7682
" />
<path d="M17676 7326
L17432 7326
L17564 7476
L17507 7476
L17470 7495
L17451 7513
L17432 7551
L17432 7645
L17451 7682
L17470 7701
L17507 7720
L17620 7720
L17657 7701
L17676 7682
" />
<path d="M17189 7326
L17151 7326
L17114 7345
L17095 7364
L17076 7401
L17057 7476
L17057 7570
L17076 7645
L17095 7682
L17114 7701
L17151 7720
L17189 7720
L17226 7701
L17245 7682
L17264 7645
L17282 7570
L17282 7476
L17264 7401
L17245 7364
L17226 7345
L17189 7326
" />
<path d="M36000 5003
L36000 4609
L35869 4891
L35738 4609
L35738 5003
" />
<path d="M35550 5003
L35550 4609
" />
<path d="M35138 4966
L35156 4984
L35213 5003
L35250 5003
L35306 4984
L35344 4947
L35363 4909
L35381 4834
L35381 4778
L35363 4703
L35344 4666
L35306 4628
L35250 4609
L35213 4609
L35156 4628
L35138 4647
" />
<path d="M34781 4609
L34969 4609
L34988 4797
L34969 4778
L34931 4759
L34838 4759
L34800 4778
L34781 4797
L34763 4834
L34763 4928
L34781 4966
L34800 4984
L34838 5003
L34931 5003
L34969 4984
L34988 4966
" />
<path d="M34613 4647
L34594 4628
L34556 4609
L34463 4609
L34425 4628
L34407 4647
L34388 4684
L34388 4722
L34407 4778
L34631 5003
L34388 5003
" />
<path d="M34144 4609
L34107 4609
L34069 4628
L34050 4647
L34032 4684
L34013 4759
L34013 4853
L34032 4928
L34050 4966
L34069 4984
L34107 5003
L34144 5003
L34182 4984
L34200 4966
L34219 4928
L34238 4853
L34238 4759
L34219 4684
L34200 4647
L34182 4628
L34144 4609
" />
<path d="M33657 4609
L33844 4609
L33863 4797
L33844 4778
L33807 4759
L33713 4759
L33675 4778
L33657 4797
L33638 4834
L33638 4928
L33657 4966
L33675 4984
L33713 5003
L33807 5003
L33844 4984
L33863 4966
" />
<path d="M40882 11972
L40882 11578
L40751 11859
L40619 11578
L40619 11972
" />
<path d="M40432 11972
L40432 11578
" />
<path d="M40020 11934
L40038 11953
L40095 11972
L40132 11972
L40188 11953
L40226 11915
L40245 11878
L40263 11803
L40263 11747
L40245 11672
L40226 11634
L40188 11597
L40132 11578
L40095 11578
L40038 11597
L40020 11615
" />
<path d="M39663 11578
L39851 11578
L39870 11765
L39851 11747
L39813 11728
L39720 11728
L39682 11747
L39663 11765
L39645 11803
L39645 11897
L39663 11934
L39682 11953
L39720 11972
L39813 11972
L39851 11953
L39870 11934
" />
<path d="M39495 11615
L39476 11597
L39438 11578
L39345 11578
L39307 11597
L39288 11615
L39270 11653
L39270 11690
L39288 11747
L39513 11972
L39270 11972
" />
<path d="M39026 11578
L38988 11578
L38951 11597
L38932 11615
L38913 11653
L38895 11728
L38895 11822
L38913 11897
L38932 11934
L38951 11953
L38988 11972
L39026 11972
L39063 11953
L39082 11934
L39101 11897
L39120 11822
L39120 11728
L39101 11653
L39082 11615
L39063 11597
L39026 11578
" />
<path d="M38538 11578
L38726 11578
L38745 11765
L38726 11747
L38688 11728
L38595 11728
L38557 11747
L38538 11765
L38520 11803
L38520 11897
L38538 11934
L38557 11953
L38595 11972
L38688 11972
L38726 11953
L38745 11934
" />
<path d="M8996 2163
L9258 2163
" />
<path d="M8846 2069
L9127 1975
L9127 2219
" />
<path d="M8865 2332
L8865 2575
L9015 2444
L9015 2500
L9033 2538
L9052 2557
L9090 2575
L9183 2575
L9221 2557
L9240 2538
L9258 2500
L9258 2388
L9240 2350
L9221 2332
" />
<path d="M9258 2950
L9258 2725
" />
<path d="M9258 2838
L8865 2838
L8921 2800
L8958 2763
L8977 2725
" />
<path d="M8711 16027
L8936 16027
" />
<path d="M8823 16027
L8823 15633
L8861 15689
L8898 15727
L8936 15746
" />
<path d="M8374 15633
L8449 15633
L8486 15652
L8505 15671
L8542 15727
L8561 15802
L8561 15952
L8542 15989
L8523 16008
L8486 16027
L8411 16027
L8374 16008
L8355 15989
L8336 15952
L8336 15858
L8355 15821
L8374 15802
L8411 15783
L8486 15783
L8523 15802
L8542 15821
L8561 15858
" />
<path d="M8167 16027
L8167 15633
L8036 15914
L7905 15633
L7905 16027
" />
<path d="M6078 8335
L6237 8494
" />
<path d="M6158 8414
L6436 8136
L6423 8202
L6423 8255
L6436 8295
" />
<path d="M6184 7884
L6158 7857
L6118 7844
L6091 7844
L6052 7857
L5985 7897
L5919 7963
L5879 8030
L5866 8069
L5866 8096
L5879 8136
L5906 8162
L5946 8176
L5972 8176
L6012 8162
L6078 8123
L6144 8056
L6184 7990
L6197 7950
L6197 7924
L6184 7884
" />
<path d="M5919 7619
L5893 7592
L5853 7579
L5826 7579
L5786 7592
L5720 7632
L5654 7698
L5614 7765
L5601 7804
L5601 7831
L5614 7871
L5641 7897
L5680 7910
L5707 7910
L5747 7897
L5813 7857
L5879 7791
L5919 7725
L5932 7685
L5932 7659
L5919 7619
" />
<path d="M5614 7499
L5429 7685
" />
<path d="M5588 7526
L5588 7499
L5574 7460
L5535 7420
L5495 7407
L5455 7420
L5309 7566
" />
<path d="M5230 7195
L5322 7287
" />
<path d="M5177 7433
L5455 7155
L5322 7022
" />
<path d="M4729 7326
L4954 7326
" />
<path d="M4841 7326
L4841 6932
L4879 6989
L4916 7026
L4954 7045
" />
<path d="M4485 6932
L4448 6932
L4410 6951
L4392 6970
L4373 7007
L4354 7082
L4354 7176
L4373 7251
L4392 7289
L4410 7307
L4448 7326
L4485 7326
L4523 7307
L4541 7289
L4560 7251
L4579 7176
L4579 7082
L4560 7007
L4541 6970
L4523 6951
L4485 6932
" />
<path d="M4110 6932
L4073 6932
L4035 6951
L4017 6970
L3998 7007
L3979 7082
L3979 7176
L3998 7251
L4017 7289
L4035 7307
L4073 7326
L4110 7326
L4148 7307
L4167 7289
L4185 7251
L4204 7176
L4204 7082
L4185 7007
L4167 6970
L4148 6951
L4110 6932
" />
<path d="M3810 7064
L3810 7326
" />
<path d="M3810 7101
L3792 7082
L3754 7064
L3698 7064
L3660 7082
L3642 7120
L3642 7326
" />
<path d="M3323 7120
L3454 7120
" />
<path d="M3454 7326
L3454 6932
L3267 6932
" />
<path d="M7524 4570
L7749 4570
" />
<path d="M7637 4570
L7637 4176
L7674 4233
L7712 4270
L7749 4289
" />
<path d="M7281 4176
L7243 4176
L7206 4195
L7187 4214
L7168 4251
L7149 4326
L7149 4420
L7168 4495
L7187 4533
L7206 4551
L7243 4570
L7281 4570
L7318 4551
L7337 4533
L7356 4495
L7374 4420
L7374 4326
L7356 4251
L7337 4214
L7318 4195
L7281 4176
" />
<path d="M6906 4176
L6868 4176
L6831 4195
L6812 4214
L6793 4251
L6774 4326
L6774 4420
L6793 4495
L6812 4533
L6831 4551
L6868 4570
L6906 4570
L6943 4551
L6962 4533
L6981 4495
L6999 4420
L6999 4326
L6981 4251
L6962 4214
L6943 4195
L6906 4176
" />
<path d="M6606 4308
L6606 4570
" />
<path d="M6606 4345
L6587 4326
L6549 4308
L6493 4308
L6456 4326
L6437 4364
L6437 4570
" />
<path d="M6118 4364
L6249 4364
" />
<path d="M6249 4570
L6249 4176
L6062 4176
" />
<path d="M16463 8546
L16463 8322
" />
<path d="M16463 8434
L16069 8434
L16126 8397
L16163 8359
L16182 8322
" />
<path d="M16069 8790
L16069 8828
L16088 8865
L16107 8884
L16144 8903
L16219 8921
L16313 8921
L16388 8903
L16426 8884
L16444 8865
L16463 8828
L16463 8790
L16444 8753
L16426 8734
L16388 8715
L16313 8696
L16219 8696
L16144 8715
L16107 8734
L16088 8753
L16069 8790
" />
<path d="M16069 9165
L16069 9203
L16088 9240
L16107 9259
L16144 9278
L16219 9296
L16313 9296
L16388 9278
L16426 9259
L16444 9240
L16463 9203
L16463 9165
L16444 9128
L16426 9109
L16388 9090
L16313 9071
L16219 9071
L16144 9090
L16107 9109
L16088 9128
L16069 9165
" />
<path d="M16201 9465
L16463 9465
" />
<path d="M16238 9465
L16219 9484
L16201 9521
L16201 9578
L16219 9615
L16257 9634
L16463 9634
" />
<path d="M16257 9953
L16257 9821
" />
<path d="M16463 9821
L16069 9821
L16069 10009
" />
<path d="M10927 2930
L10927 3192
" />
<path d="M11021 2780
L11114 3061
L10871 3061
" />
<path d="M10758 2798
L10496 2798
L10664 3192
" />
<path d="M10346 3192
L10346 2798
" />
<path d="M10308 3042
L10196 3192
" />
<path d="M10196 2930
L10346 3080
" />
<path d="M32224 5459
L32487 5459
" />
<path d="M32074 5365
L32356 5271
L32356 5515
" />
<path d="M32093 5627
L32093 5890
L32487 5721
" />
<path d="M32487 6040
L32093 6040
" />
<path d="M32337 6077
L32487 6190
" />
<path d="M32224 6190
L32374 6040
" />
<path d="M33392 5536
L33392 5311
" />
<path d="M33392 5423
L32999 5423
L33055 5386
L33092 5348
L33111 5311
" />
<path d="M32999 5779
L32999 5817
L33017 5854
L33036 5873
L33074 5892
L33149 5911
L33242 5911
L33317 5892
L33355 5873
L33374 5854
L33392 5817
L33392 5779
L33374 5742
L33355 5723
L33317 5704
L33242 5686
L33149 5686
L33074 5704
L33036 5723
L33017 5742
L32999 5779
" />
<path d="M33392 6079
L32999 6079
" />
<path d="M33242 6117
L33392 6229
" />
<path d="M33130 6229
L33280 6079
" />
<path d="M41517 9701
L41517 9964
" />
<path d="M41611 9551
L41705 9833
L41461 9833
" />
<path d="M41349 9570
L41086 9570
L41255 9964
" />
<path d="M40936 9964
L40936 9570
" />
<path d="M40899 9814
L40786 9964
" />
<path d="M40786 9701
L40936 9851
" />
</g>
<g style="fill:#000000; fill-opacity:0.0; 
stroke:#000000; stroke-width:39.3701; stroke-opacity:1; 
stroke-linecap:round; stroke-linejoin:round;">
<path d="M40813 7345
L41443 7345
" />
<path d="M40813 6085
L40813 7345
" />
<path d="M41443 6085
L40813 6085
" />
<path d="M41443 7345
L41443 6085
" />
</g>
<g style="fill:#000000; fill-opacity:0.0; 
stroke:#000000; stroke-width:59.0551; stroke-opacity:1; 
stroke-linecap:round; stroke-linejoin:round;">
<path d="M13977 12422
L13531 11976
" />
<path d="M13086 13312
L13977 12422
" />
<path d="M12640 12867
L13086 13312
" />
<path d="M13531 11976
L12640 12867
" />
</g>
<g style="fill:#000000; fill-opacity:0.0; 
stroke:#000000; stroke-width:39.3701; stroke-opacity:1; 
stroke-linecap:round; stroke-linejoin:round;">
<path d="M14159 10494
L14159 11124
" />
<path d="M15419 10494
L14159 10494
" />
<path d="M15419 11124
L15419 10494
" />
<path d="M14159 11124
L15419 11124
" />
<path d="M36836 14786
L36836 15416
" />
<path d="M38096 14786
L36836 14786
" />
<path d="M38096 15416
L38096 14786
" />
<path d="M36836 15416
L38096 15416
" />
<path d="M37250 10337
L37250 10967
" />
<path d="M38509 10337
L37250 10337
" />
<path d="M38509 10967
L38509 10337
" />
<path d="M37250 10967
L38509 10967
" />
<path d="M40143 10061
L40143 9431
" />
<path d="M38883 10061
L40143 10061
" />
<path d="M38883 9431
L38883 10061
" />
<path d="M40143 9431
L38883 9431
" />
</g>
<g style="fill:#000000; fill-opacity:0.0; 
stroke:#000000; stroke-width:59.0551; stroke-opacity:1; 
stroke-linecap:round; stroke-linejoin:round;">
<path d="M34691 5967
L34494 5967
" />
<path d="M34691 6124
L34927 5967
" />
<path d="M34691 5809
L34691 6124
" />
<path d="M34927 5967
L34691 5809
" />
<path d="M34927 5967
L34927 6183
" />
<path d="M34927 5967
L34927 5750
" />
<path d="M35084 5967
L34927 5967
" />
<path d="M35320 6282
L35320 5652
" />
<path d="M34257 6282
L35320 6282
" />
<path d="M34257 5652
L34257 6282
" />
<path d="M35320 5652
L34257 5652
" />
<path d="M39691 14235
L39887 14235
" />
<path d="M39691 14077
L39454 14235
" />
<path d="M39691 14392
L39691 14077
" />
<path d="M39454 14235
L39691 14392
" />
<path d="M39454 14235
L39454 14018
" />
<path d="M39454 14235
L39454 14451
" />
<path d="M39297 14235
L39454 14235
" />
<path d="M39061 13920
L39061 14549
" />
<path d="M40124 13920
L39061 13920
" />
<path d="M40124 14549
L40124 13920
" />
<path d="M39061 14549
L40124 14549
" />
<path d="M23076 4353
L23273 4353
" />
<path d="M23076 4195
L22840 4353
" />
<path d="M23076 4510
L23076 4195
" />
<path d="M22840 4353
L23076 4510
" />
<path d="M22840 4353
L22840 4136
" />
<path d="M22840 4353
L22840 4569
" />
<path d="M22683 4353
L22840 4353
" />
<path d="M22446 4038
L22446 4668
" />
<path d="M23509 4038
L22446 4038
" />
<path d="M23509 4668
L23509 4038
" />
<path d="M22446 4668
L23509 4668
" />
<path d="M4999 8370
L4554 8815
" />
<path d="M5890 9260
L4999 8370
" />
<path d="M5445 9706
L5890 9260
" />
<path d="M4554 8815
L5445 9706
" />
<path d="M10523 13525
L10969 13079
" />
<path d="M9633 12634
L10523 13525
" />
<path d="M10078 12188
L9633 12634
" />
<path d="M10969 13079
L10078 12188
" />
<path d="M8726 17069
L8726 17699
" />
<path d="M9986 17069
L8726 17069
" />
<path d="M9986 17699
L9986 17069
" />
<path d="M8726 17699
L9986 17699
" />
<path d="M8135 17699
L8135 17069
" />
<path d="M6876 17699
L8135 17699
" />
<path d="M6876 17069
L6876 17699
" />
<path d="M8135 17069
L6876 17069
" />
<path d="M12545 14156
L12545 13526
" />
<path d="M11285 14156
L12545 14156
" />
<path d="M11285 13526
L11285 14156
" />
<path d="M12545 13526
L11285 13526
" />
<path d="M5772 13815
L5327 13370
" />
<path d="M4881 14706
L5772 13815
" />
<path d="M4436 14260
L4881 14706
" />
<path d="M5327 13370
L4436 14260
" />
<path d="M30970 5927
L31600 5927
" />
<path d="M30970 4668
L30970 5927
" />
<path d="M31600 4668
L30970 4668
" />
<path d="M31600 5927
L31600 4668
" />
<path d="M33431 4896
L33431 4266
" />
<path d="M32171 4896
L33431 4896
" />
<path d="M32171 4266
L32171 4896
" />
<path d="M33431 4266
L32171 4266
" />
<path d="M38529 12660
L38529 12030
" />
<path d="M37269 12660
L38529 12660
" />
<path d="M37269 12030
L37269 12660
" />
<path d="M38529 12030
L37269 12030
" />
<path d="M38962 10376
L38962 11006
" />
<path d="M40222 10376
L38962 10376
" />
<path d="M40222 11006
L40222 10376
" />
<path d="M38962 11006
L40222 11006
" />
<path d="M41088 13565
L41088 12935
" />
<path d="M39828 13565
L41088 13565
" />
<path d="M39828 12935
L39828 13565
" />
<path d="M41088 12935
L39828 12935
" />
<path d="M22427 3801
L22427 3172
" />
<path d="M21167 3801
L22427 3801
" />
<path d="M21167 3172
L21167 3801
" />
<path d="M22427 3172
L21167 3172
" />
<path d="M4330 11795
L3885 12240
" />
<path d="M5221 12686
L4330 11795
" />
<path d="M4775 13131
L5221 12686
" />
<path d="M3885 12240
L4775 13131
" />
<path d="M7584 5612
L7584 4983
" />
<path d="M6324 5612
L7584 5612
" />
<path d="M6324 4983
L6324 5612
" />
<path d="M7584 4983
L6324 4983
" />
<path d="M6324 5888
L6324 6518
" />
<path d="M7584 5888
L6324 5888
" />
<path d="M7584 6518
L7584 5888
" />
<path d="M6324 6518
L7584 6518
" />
<path d="M28844 5927
L28844 5298
" />
<path d="M27584 5927
L28844 5927
" />
<path d="M27584 5298
L27584 5927
" />
<path d="M28844 5298
L27584 5298
" />
<path d="M7584 7424
L7584 6794
" />
<path d="M6324 7424
L7584 7424
" />
<path d="M6324 6794
L6324 7424
" />
<path d="M7584 6794
L6324 6794
" />
</g>
<g style="fill:#000000; fill-opacity:0.0; 
stroke:#000000; stroke-width:39.3701; stroke-opacity:1; 
stroke-linecap:round; stroke-linejoin:round;">
<path d="M24671 6164
L24041 6164
" />
<path d="M24671 7424
L24671 6164
" />
<path d="M24041 7424
L24671 7424
" />
<path d="M24041 6164
L24041 7424
" />
<path d="M11955 12213
L12401 12659
" />
<path d="M12846 11322
L11955 12213
" />
<path d="M13292 11768
L12846 11322
" />
<path d="M12401 12659
L13292 11768
" />
<path d="M11286 11544
L11732 11989
" />
<path d="M12177 10653
L11286 11544
" />
<path d="M12622 11098
L12177 10653
" />
<path d="M11732 11989
L12622 11098
" />
<path d="M4960 11125
L4515 11571
" />
<path d="M5851 12016
L4960 11125
" />
<path d="M5405 12462
L5851 12016
" />
<path d="M4515 11571
L5405 12462
" />
<path d="M39336 13605
L39336 12975
" />
<path d="M38076 13605
L39336 13605
" />
<path d="M38076 12975
L38076 13605
" />
<path d="M39336 12975
L38076 12975
" />
<path d="M38609 8552
L39054 8997
" />
<path d="M39500 7661
L38609 8552
" />
<path d="M39945 8106
L39500 7661
" />
<path d="M39054 8997
L39945 8106
" />
<path d="M15813 13211
L15813 12581
" />
<path d="M14553 13211
L15813 13211
" />
<path d="M14553 12581
L14553 13211
" />
<path d="M15813 12581
L14553 12581
" />
<path d="M11246 2345
L11246 1715
" />
<path d="M9986 2345
L11246 2345
" />
<path d="M9986 1715
L9986 2345
" />
<path d="M11246 1715
L9986 1715
" />
<path d="M8242 1711
L7612 1711
" />
<path d="M8242 2971
L8242 1711
" />
<path d="M7612 2971
L8242 2971
" />
<path d="M7612 1711
L7612 2971
" />
<path d="M9277 3959
L9277 3329
" />
<path d="M8017 3959
L9277 3959
" />
<path d="M8017 3329
L8017 3959
" />
<path d="M9277 3329
L8017 3329
" />
<path d="M27072 5219
L26443 5219
" />
<path d="M27072 6479
L27072 5219
" />
<path d="M26443 6479
L27072 6479
" />
<path d="M26443 5219
L26443 6479
" />
<path d="M28844 6990
L28844 6361
" />
<path d="M27584 6990
L28844 6990
" />
<path d="M27584 6361
L27584 6990
" />
<path d="M28844 6361
L27584 6361
" />
<path d="M42230 15022
L42230 14392
" />
<path d="M40970 15022
L42230 15022
" />
<path d="M40970 14392
L40970 15022
" />
<path d="M42230 14392
L40970 14392
" />
<path d="M16403 7424
L16403 6794
" />
<path d="M15143 7424
L16403 7424
" />
<path d="M15143 6794
L15143 7424
" />
<path d="M16403 6794
L15143 6794
" />
<path d="M16915 7187
L16915 7817
" />
<path d="M18175 7187
L16915 7187
" />
<path d="M18175 7817
L18175 7187
" />
<path d="M16915 7817
L18175 7817
" />
<path d="M6011 8461
L6457 8016
" />
<path d="M5121 7571
L6011 8461
" />
<path d="M5566 7125
L5121 7571
" />
<path d="M6457 8016
L5566 7125
" />
<path d="M4986 7424
L4986 6794
" />
<path d="M3726 7424
L4986 7424
" />
<path d="M3726 6794
L3726 7424
" />
<path d="M4986 6794
L3726 6794
" />
<path d="M7584 4707
L7584 4077
" />
<path d="M6324 4707
L7584 4707
" />
<path d="M6324 4077
L6324 4707
" />
<path d="M7584 4077
L6324 4077
" />
<path d="M16561 8408
L15931 8408
" />
<path d="M16561 9668
L16561 8408
" />
<path d="M15931 9668
L16561 9668
" />
<path d="M15931 8408
L15931 9668
" />
<path d="M9986 2660
L9986 3290
" />
<path d="M11246 2660
L9986 2660
" />
<path d="M11246 3290
L11246 2660
" />
<path d="M9986 3290
L11246 3290
" />
<path d="M31954 6400
L32584 6400
" />
<path d="M31954 5140
L31954 6400
" />
<path d="M32584 5140
L31954 5140
" />
<path d="M32584 6400
L32584 5140
" />
<path d="M33490 5140
L32860 5140
" />
<path d="M33490 6400
L33490 5140
" />
<path d="M32860 6400
L33490 6400
" />
<path d="M32860 5140
L32860 6400
" />
<path d="M41836 10061
L41836 9431
" />
<path d="M40576 10061
L41836 10061
" />
<path d="M40576 9431
L40576 10061
" />
<path d="M41836 9431
L40576 9431
" />
</g> 
</svg>
