<?xml version="1.0" standalone="no"?>
 <!DOCTYPE svg PUBLIC "-//W3C//DTD SVG 1.1//EN" 
 "http://www.w3.org/Graphics/SVG/1.1/DTD/svg11.dtd"> 
<svg xmlns="http://www.w3.org/2000/svg" version="1.1" 
    width="11.4706cm" height="5.18414cm" viewBox="0 0 45160 20410 ">
<title>SVG Picture created as proto_trapapoul4-F.Fab.svg date 2017/04/03 21:15:02 </title>
  <desc>Picture generated by PCBNEW </desc>
<g style="fill:#000000; fill-opacity:1;stroke:#000000; stroke-opacity:1;
stroke-linecap:round; stroke-linejoin:round; "
 transform="translate(0 0) scale(1 1)">
</g>
<g style="fill:#000000; fill-opacity:0.0; 
stroke:#000000; stroke-width:-0.000393701; stroke-opacity:1; 
stroke-linecap:round; stroke-linejoin:round;">
</g>
<g style="fill:#000000; fill-opacity:0.0; 
stroke:#000000; stroke-width:39.3701; stroke-opacity:1; 
stroke-linecap:round; stroke-linejoin:round;">
<circle cx="10931.2" cy="6085.42" r="1574.8" /> 
<path d="M1856 764
L42013 764
" />
<path d="M43564.5 2070.46 A787.402 787.402 0.0 0 0 43999.9 2642.2 " />
<path d="M43999 2642
L44322 2796
" />
<path d="M44769.8 3506.17 A787.402 787.402 0.0 0 0 44322.1 2796.35 " />
<path d="M44353.3 17193.4 A787.402 787.402 0.0 0 0 44769.8 16498.8 " />
<path d="M44352 17193
L44005 17378
" />
<path d="M44005.2 17379 A787.402 787.402 0.0 0 0 43588.7 18073.6 " />
<path d="M281 18087
L281 2339
" />
<path d="M281.59 18087.5 A1574.8 1574.8 0.0 0 0 1856.39 19662.3 " />
<path d="M1856.39 764.641 A1574.8 1574.8 0.0 0 0 281.59 2339.44 " />
<path d="M17998.1 9426.06 A393.701 393.701 0.0 0 0 17604.4 9819.76 " />
<path d="M17604 16118
L17604 9819
" />
<path d="M17604.4 16119 A393.701 393.701 0.0 0 0 17998.1 16512.7 " />
<path d="M42013 19662
L1856 19662
" />
<path d="M35714.7 16512.7 A393.701 393.701 0.0 0 0 36108.4 16119 " />
<path d="M36108 9819
L36108 16118
" />
<path d="M36108.4 9819.07 A393.701 393.701 0.0 0 0 35714.7 9426.06 " />
<path d="M17998 9426
L35714 9426
" />
<path d="M43564.3 2063.28 A1574.8 1574.8 0.0 0 0 42013.9 764.641 " />
<path d="M44769 3500
L44769 16492
" />
<path d="M42013.9 19662.3 A1574.8 1574.8 0.0 0 0 43588.7 18087.5 " />
<path d="M17998 16512
L35714 16512
" />
</g>
<g style="fill:#000000; fill-opacity:0.0; 
stroke:#000000; stroke-width:59.0551; stroke-opacity:1; 
stroke-linecap:round; stroke-linejoin:round;">
<path d="M34922 7490
L34528 7490
L34528 7340
L34547 7302
L34566 7284
L34603 7265
L34660 7265
L34697 7284
L34716 7302
L34735 7340
L34735 7490
" />
<path d="M34885 6871
L34903 6890
L34922 6946
L34922 6984
L34903 7040
L34866 7077
L34828 7096
L34753 7115
L34697 7115
L34622 7096
L34585 7077
L34547 7040
L34528 6984
L34528 6946
L34547 6890
L34566 6871
" />
<path d="M34716 6571
L34716 6702
" />
<path d="M34922 6702
L34528 6702
L34528 6515
" />
<path d="M34697 6309
L34678 6346
L34660 6365
L34622 6384
L34603 6384
L34566 6365
L34547 6346
L34528 6309
L34528 6234
L34547 6196
L34566 6177
L34603 6159
L34622 6159
L34660 6177
L34678 6196
L34697 6234
L34697 6309
L34716 6346
L34735 6365
L34772 6384
L34847 6384
L34885 6365
L34903 6346
L34922 6309
L34922 6234
L34903 6196
L34885 6177
L34847 6159
L34772 6159
L34735 6177
L34716 6196
L34697 6234
" />
<path d="M34528 5802
L34528 5990
L34716 6009
L34697 5990
L34678 5952
L34678 5859
L34697 5821
L34716 5802
L34753 5784
L34847 5784
L34885 5802
L34903 5821
L34922 5859
L34922 5952
L34903 5990
L34885 6009
" />
<path d="M34528 5652
L34528 5390
L34922 5559
" />
<path d="M34660 5071
L34922 5071
" />
<path d="M34510 5165
L34791 5259
L34791 5015
" />
<path d="M29320 1591
L29320 1854
" />
<path d="M29227 1441
L29133 1722
L29377 1722
" />
<path d="M29489 1460
L29751 1460
L29583 1854
" />
<path d="M29901 1854
L29901 1460
" />
<path d="M29939 1704
L30051 1854
" />
<path d="M30051 1591
L29901 1741
" />
<path d="M41118 15633
L41156 15633
L41193 15652
L41212 15671
L41231 15708
L41249 15783
L41249 15877
L41231 15952
L41212 15989
L41193 16008
L41156 16027
L41118 16027
L41081 16008
L41062 15989
L41043 15952
L41024 15877
L41024 15783
L41043 15708
L41062 15671
L41081 15652
L41118 15633
" />
<path d="M41643 16027
L41512 15839
" />
<path d="M41418 16027
L41418 15633
L41568 15633
L41606 15652
L41624 15671
L41643 15708
L41643 15764
L41624 15802
L41606 15821
L41568 15839
L41418 15839
" />
<path d="M41793 15671
L41812 15652
L41849 15633
L41943 15633
L41981 15652
L41999 15671
L42018 15708
L42018 15746
L41999 15802
L41774 16027
L42018 16027
" />
<path d="M37213 13914
L37213 14176
" />
<path d="M37119 13764
L37026 14045
L37269 14045
" />
<path d="M37382 13783
L37644 13783
L37476 14176
" />
<path d="M37869 13783
L37907 13783
L37944 13801
L37963 13820
L37982 13858
L38000 13933
L38000 14026
L37982 14101
L37963 14139
L37944 14158
L37907 14176
L37869 14176
L37832 14158
L37813 14139
L37794 14101
L37775 14026
L37775 13933
L37794 13858
L37813 13820
L37832 13801
L37869 13783
" />
<path d="M38338 13914
L38338 14176
" />
<path d="M38169 13914
L38169 14120
L38188 14158
L38225 14176
L38282 14176
L38319 14158
L38338 14139
" />
<path d="M38657 13970
L38525 13970
" />
<path d="M38525 14176
L38525 13783
L38713 13783
" />
<path d="M43589 10018
L43589 10206
L43777 10224
L43758 10206
L43739 10168
L43739 10074
L43758 10037
L43777 10018
L43814 9999
L43908 9999
L43945 10018
L43964 10037
L43983 10074
L43983 10168
L43964 10206
L43945 10224
" />
<path d="M43870 9849
L43870 9662
" />
<path d="M43983 9887
L43589 9756
L43983 9624
" />
<path d="M37281 6499
L37056 6499
" />
<path d="M37168 6499
L37168 6106
L37131 6162
L37093 6199
L37056 6218
" />
<path d="M37524 6106
L37562 6106
L37599 6124
L37618 6143
L37637 6181
L37655 6256
L37655 6349
L37637 6424
L37618 6462
L37599 6480
L37562 6499
L37524 6499
L37487 6480
L37468 6462
L37449 6424
L37431 6349
L37431 6256
L37449 6181
L37468 6143
L37487 6124
L37524 6106
" />
<path d="M37899 6106
L37937 6106
L37974 6124
L37993 6143
L38012 6181
L38030 6256
L38030 6349
L38012 6424
L37993 6462
L37974 6480
L37937 6499
L37899 6499
L37862 6480
L37843 6462
L37824 6424
L37805 6349
L37805 6256
L37824 6181
L37843 6143
L37862 6124
L37899 6106
" />
<path d="M38199 6499
L38199 6106
" />
<path d="M38237 6349
L38349 6499
" />
<path d="M38349 6237
L38199 6387
" />
<path d="M33707 18455
L33707 18680
" />
<path d="M33707 18567
L33314 18567
L33370 18605
L33407 18642
L33426 18680
" />
<path d="M33707 18286
L33314 18286
" />
<path d="M33557 18248
L33707 18136
" />
<path d="M33445 18136
L33595 18286
" />
<path d="M42651 12093
L42653 12153
L42642 12177
L42613 12207
L42560 12226
L42518 12221
L42494 12210
L42464 12181
L42412 12040
L42782 11906
L42827 12029
L42823 12071
L42811 12095
L42782 12125
L42747 12138
L42706 12133
L42682 12122
L42651 12093
L42606 11970
" />
<path d="M42646 12354
L42711 12530
" />
<path d="M42528 12358
L42943 12346
L42618 12604
" />
<path d="M43013 12540
L43090 12751
" />
<path d="M42682 12780
L43052 12646
" />
<path d="M42544 7917
L42585 7874
L42610 7865
L42652 7864
L42703 7887
L42729 7920
L42738 7945
L42739 7987
L42676 8123
L42319 7957
L42374 7838
L42407 7812
L42432 7802
L42474 7801
L42508 7817
L42534 7850
L42543 7875
L42544 7917
L42489 8036
" />
<path d="M42732 7736
L42811 7566
" />
<path d="M42818 7817
L42517 7532
L42929 7579
" />
<path d="M42604 7345
L42699 7141
" />
<path d="M43008 7409
L42652 7243
" />
<path d="M37252 11040
L37252 11302
" />
<path d="M37159 10890
L37065 11171
L37309 11171
" />
<path d="M37421 10909
L37684 10909
L37515 11302
" />
<path d="M37909 10909
L37946 10909
L37984 10927
L38002 10946
L38021 10984
L38040 11059
L38040 11152
L38021 11227
L38002 11265
L37984 11284
L37946 11302
L37909 11302
L37871 11284
L37852 11265
L37834 11227
L37815 11152
L37815 11059
L37834 10984
L37852 10946
L37871 10927
L37909 10909
" />
<path d="M38377 11040
L38377 11302
" />
<path d="M38209 11040
L38209 11246
L38227 11284
L38265 11302
L38321 11302
L38359 11284
L38377 11265
" />
<path d="M38696 11096
L38565 11096
" />
<path d="M38565 11302
L38565 10909
L38752 10909
" />
<path d="M23158 3875
L23158 4137
" />
<path d="M23064 3725
L22970 4006
L23214 4006
" />
<path d="M23327 3743
L23589 3743
L23420 4137
" />
<path d="M23814 3743
L23852 3743
L23889 3762
L23908 3781
L23927 3818
L23945 3893
L23945 3987
L23927 4062
L23908 4100
L23889 4118
L23852 4137
L23814 4137
L23777 4118
L23758 4100
L23739 4062
L23720 3987
L23720 3893
L23739 3818
L23758 3781
L23777 3762
L23814 3743
" />
<path d="M24283 3875
L24283 4137
" />
<path d="M24114 3875
L24114 4081
L24133 4118
L24170 4137
L24227 4137
L24264 4118
L24283 4100
" />
<path d="M24601 3931
L24470 3931
" />
<path d="M24470 4137
L24470 3743
L24658 3743
" />
<path d="M27880 7399
L27487 7399
L27768 7268
L27487 7137
L27880 7137
" />
<path d="M27843 6724
L27862 6743
L27880 6799
L27880 6837
L27862 6893
L27824 6930
L27787 6949
L27712 6968
L27655 6968
L27580 6949
L27543 6930
L27505 6893
L27487 6837
L27487 6799
L27505 6743
L27524 6724
" />
<path d="M27880 6555
L27487 6555
L27487 6406
L27505 6368
L27524 6349
L27562 6331
L27618 6331
L27655 6349
L27674 6368
L27693 6406
L27693 6555
" />
<path d="M27487 6199
L27487 5937
L27880 6106
" />
<path d="M27880 5768
L27880 5693
L27862 5656
L27843 5637
L27787 5599
L27712 5581
L27562 5581
L27524 5599
L27505 5618
L27487 5656
L27487 5731
L27505 5768
L27524 5787
L27562 5806
L27655 5806
L27693 5787
L27712 5768
L27730 5731
L27730 5656
L27712 5618
L27693 5599
L27655 5581
" />
<path d="M27618 5243
L27880 5243
" />
<path d="M27468 5337
L27749 5431
L27749 5187
" />
<path d="M27487 4962
L27487 4924
L27505 4887
L27524 4868
L27562 4849
L27637 4831
L27730 4831
L27805 4849
L27843 4868
L27862 4887
L27880 4924
L27880 4962
L27862 4999
L27843 5018
L27805 5037
L27730 5056
L27637 5056
L27562 5037
L27524 5018
L27505 4999
L27487 4962
" />
<path d="M23619 6854
L23394 6854
" />
<path d="M23507 6854
L23507 6460
L23469 6516
L23432 6554
L23394 6572
" />
<path d="M23863 6460
L23900 6460
L23938 6479
L23957 6497
L23975 6535
L23994 6610
L23994 6704
L23975 6779
L23957 6816
L23938 6835
L23900 6854
L23863 6854
L23825 6835
L23807 6816
L23788 6779
L23769 6704
L23769 6610
L23788 6535
L23807 6497
L23825 6479
L23863 6460
" />
<path d="M24163 6591
L24163 6985
" />
<path d="M24163 6610
L24200 6591
L24275 6591
L24313 6610
L24332 6629
L24350 6666
L24350 6779
L24332 6816
L24313 6835
L24275 6854
L24200 6854
L24163 6835
" />
<path d="M24650 6647
L24519 6647
" />
<path d="M24519 6854
L24519 6460
L24706 6460
" />
<path d="M23698 5909
L23473 5909
" />
<path d="M23585 5909
L23585 5515
L23548 5571
L23510 5609
L23473 5627
" />
<path d="M23942 5515
L23979 5515
L24017 5534
L24035 5552
L24054 5590
L24073 5665
L24073 5759
L24054 5834
L24035 5871
L24017 5890
L23979 5909
L23942 5909
L23904 5890
L23885 5871
L23867 5834
L23848 5759
L23848 5665
L23867 5590
L23885 5552
L23904 5534
L23942 5515
" />
<path d="M24242 5646
L24242 6040
" />
<path d="M24242 5665
L24279 5646
L24354 5646
L24392 5665
L24410 5684
L24429 5721
L24429 5834
L24410 5871
L24392 5890
L24354 5909
L24279 5909
L24242 5890
" />
<path d="M24729 5702
L24598 5702
" />
<path d="M24598 5909
L24598 5515
L24785 5515
" />
<path d="M29390 5189
L29231 5030
" />
<path d="M29310 5110
L29589 4832
L29522 4845
L29469 4845
L29429 4832
" />
<path d="M29840 5083
L29867 5110
L29880 5150
L29880 5176
L29867 5216
L29827 5282
L29761 5349
L29695 5388
L29655 5402
L29628 5402
L29589 5388
L29562 5362
L29549 5322
L29549 5296
L29562 5256
L29602 5189
L29668 5123
L29734 5083
L29774 5070
L29801 5070
L29840 5083
" />
<path d="M30106 5349
L30132 5375
L30145 5415
L30145 5441
L30132 5481
L30092 5547
L30026 5614
L29960 5653
L29920 5667
L29893 5667
L29854 5653
L29827 5627
L29814 5587
L29814 5561
L29827 5521
L29867 5455
L29933 5388
L29999 5349
L30039 5335
L30066 5335
L30106 5349
" />
<path d="M30225 5653
L30039 5839
" />
<path d="M30198 5680
L30225 5680
L30265 5693
L30304 5733
L30318 5773
L30304 5813
L30159 5958
" />
<path d="M30530 6038
L30437 5945
" />
<path d="M30291 6091
L30570 5813
L30702 5945
" />
<path d="M33747 2452
L33747 2677
" />
<path d="M33747 2564
L33353 2564
L33409 2602
L33447 2639
L33465 2677
" />
<path d="M33353 2208
L33353 2170
L33372 2133
L33390 2114
L33428 2095
L33503 2077
L33597 2077
L33672 2095
L33709 2114
L33728 2133
L33747 2170
L33747 2208
L33728 2245
L33709 2264
L33672 2283
L33597 2302
L33503 2302
L33428 2283
L33390 2264
L33372 2245
L33353 2208
" />
<path d="M33484 1739
L33747 1739
" />
<path d="M33484 1908
L33690 1908
L33728 1889
L33747 1852
L33747 1795
L33728 1758
L33709 1739
" />
<path d="M33540 1421
L33540 1552
" />
<path d="M33747 1552
L33353 1552
L33353 1364
" />
<path d="M24495 18357
L24495 18582
" />
<path d="M24495 18470
L24101 18470
L24157 18507
L24195 18545
L24213 18582
" />
<path d="M24101 18113
L24101 18076
L24120 18038
L24138 18020
L24176 18001
L24251 17982
L24345 17982
L24420 18001
L24457 18020
L24476 18038
L24495 18076
L24495 18113
L24476 18151
L24457 18170
L24420 18188
L24345 18207
L24251 18207
L24176 18188
L24138 18170
L24120 18151
L24101 18113
" />
<path d="M24232 17645
L24495 17645
" />
<path d="M24232 17813
L24438 17813
L24476 17795
L24495 17757
L24495 17701
L24476 17663
L24457 17645
" />
<path d="M24288 17326
L24288 17457
" />
<path d="M24495 17457
L24101 17457
L24101 17270
" />
<path d="M22342 18621
L22605 18621
" />
<path d="M22192 18715
L22474 18809
L22474 18565
" />
<path d="M22211 18453
L22211 18190
L22605 18359
" />
<path d="M22211 17965
L22211 17928
L22230 17890
L22249 17872
L22286 17853
L22361 17834
L22455 17834
L22530 17853
L22567 17872
L22586 17890
L22605 17928
L22605 17965
L22586 18003
L22567 18022
L22530 18040
L22455 18059
L22361 18059
L22286 18040
L22249 18022
L22230 18003
L22211 17965
" />
<path d="M22342 17665
L22736 17665
" />
<path d="M22361 17665
L22342 17628
L22342 17553
L22361 17515
L22380 17497
L22417 17478
L22530 17478
L22567 17497
L22586 17515
L22605 17553
L22605 17628
L22586 17665
" />
<path d="M22399 17178
L22399 17309
" />
<path d="M22605 17309
L22211 17309
L22211 17122
" />
<path d="M27802 18278
L27802 18503
" />
<path d="M27802 18391
L27408 18391
L27464 18428
L27502 18466
L27520 18503
" />
<path d="M27408 18035
L27408 17997
L27427 17960
L27446 17941
L27483 17922
L27558 17903
L27652 17903
L27727 17922
L27764 17941
L27783 17960
L27802 17997
L27802 18035
L27783 18072
L27764 18091
L27727 18110
L27652 18128
L27558 18128
L27483 18110
L27446 18091
L27427 18072
L27408 18035
" />
<path d="M27539 17566
L27802 17566
" />
<path d="M27539 17735
L27745 17735
L27783 17716
L27802 17678
L27802 17622
L27783 17585
L27764 17566
" />
<path d="M27595 17247
L27595 17379
" />
<path d="M27802 17379
L27408 17379
L27408 17191
" />
<path d="M36281 19024
L36077 19119
" />
<path d="M36179 19071
L36012 18714
L36002 18781
L35984 18831
L35958 18864
" />
<path d="M36335 18564
L36369 18548
L36411 18549
L36436 18558
L36469 18584
L36517 18644
L36557 18729
L36572 18805
L36571 18847
L36561 18872
L36535 18905
L36501 18921
L36460 18919
L36435 18910
L36402 18884
L36353 18824
L36313 18739
L36299 18663
L36300 18621
L36309 18597
L36335 18564
" />
<path d="M36675 18405
L36709 18389
L36751 18391
L36776 18400
L36808 18426
L36857 18486
L36897 18571
L36911 18647
L36910 18688
L36901 18713
L36875 18746
L36841 18762
L36799 18761
L36774 18752
L36742 18726
L36693 18666
L36653 18581
L36639 18505
L36640 18463
L36649 18438
L36675 18405
" />
<path d="M37002 18397
L37113 18635
" />
<path d="M37018 18431
L37027 18406
L37053 18374
L37104 18350
L37146 18351
L37179 18377
L37266 18564
" />
<path d="M37468 18242
L37349 18298
" />
<path d="M37436 18485
L37270 18128
L37439 18049
" />
<path d="M30479 8545
L30479 8770
" />
<path d="M30479 8657
L30085 8657
L30141 8695
L30179 8732
L30198 8770
" />
<path d="M30085 8301
L30085 8263
L30104 8226
L30123 8207
L30160 8188
L30235 8170
L30329 8170
L30404 8188
L30441 8207
L30460 8226
L30479 8263
L30479 8301
L30460 8338
L30441 8357
L30404 8376
L30329 8395
L30235 8395
L30160 8376
L30123 8357
L30104 8338
L30085 8301
" />
<path d="M30085 7926
L30085 7888
L30104 7851
L30123 7832
L30160 7813
L30235 7795
L30329 7795
L30404 7813
L30441 7832
L30460 7851
L30479 7888
L30479 7926
L30460 7963
L30441 7982
L30404 8001
L30329 8020
L30235 8020
L30160 8001
L30123 7982
L30104 7963
L30085 7926
" />
<path d="M30216 7626
L30479 7626
" />
<path d="M30254 7626
L30235 7607
L30216 7570
L30216 7513
L30235 7476
L30273 7457
L30479 7457
" />
<path d="M30273 7139
L30273 7270
" />
<path d="M30479 7270
L30085 7270
L30085 7082
" />
<path d="M42054 2797
L42054 3022
" />
<path d="M42054 2909
L41660 2909
L41716 2947
L41754 2984
L41772 3022
" />
<path d="M41660 2553
L41660 2515
L41679 2478
L41697 2459
L41735 2440
L41810 2422
L41904 2422
L41979 2440
L42016 2459
L42035 2478
L42054 2515
L42054 2553
L42035 2590
L42016 2609
L41979 2628
L41904 2647
L41810 2647
L41735 2628
L41697 2609
L41679 2590
L41660 2553
" />
<path d="M41660 2178
L41660 2140
L41679 2103
L41697 2084
L41735 2065
L41810 2047
L41904 2047
L41979 2065
L42016 2084
L42035 2103
L42054 2140
L42054 2178
L42035 2215
L42016 2234
L41979 2253
L41904 2272
L41810 2272
L41735 2253
L41697 2234
L41679 2215
L41660 2178
" />
<path d="M41791 1878
L42054 1878
" />
<path d="M41829 1878
L41810 1859
L41791 1822
L41791 1765
L41810 1728
L41847 1709
L42054 1709
" />
<path d="M41847 1391
L41847 1522
" />
<path d="M42054 1522
L41660 1522
L41660 1334
" />
<path d="M41148 2688
L41148 2913
" />
<path d="M41148 2800
L40754 2800
L40811 2838
L40848 2875
L40867 2913
" />
<path d="M40754 2444
L40754 2407
L40773 2369
L40792 2350
L40829 2332
L40904 2313
L40998 2313
L41073 2332
L41111 2350
L41129 2369
L41148 2407
L41148 2444
L41129 2482
L41111 2500
L41073 2519
L40998 2538
L40904 2538
L40829 2519
L40792 2500
L40773 2482
L40754 2444
" />
<path d="M40886 1975
L41148 1975
" />
<path d="M40886 2144
L41092 2144
L41129 2125
L41148 2088
L41148 2032
L41129 1994
L41111 1975
" />
<path d="M40942 1657
L40942 1788
" />
<path d="M41148 1788
L40754 1788
L40754 1600
" />
<path d="M25769 2050
L25769 1657
L25994 2050
L25994 1657
" />
<path d="M26182 2050
L26182 1657
L26332 1657
L26369 1675
L26388 1694
L26407 1732
L26407 1788
L26388 1825
L26369 1844
L26332 1863
L26182 1863
" />
<path d="M26576 2050
L26576 1657
L26801 2050
L26801 1657
" />
<path d="M21343 7686
L21324 7667
L21306 7630
L21306 7536
L21324 7498
L21343 7480
L21381 7461
L21418 7461
L21474 7480
L21699 7705
L21699 7461
" />
<path d="M21699 7292
L21306 7292
" />
<path d="M21549 7255
L21699 7142
" />
<path d="M21437 7142
L21587 7292
" />
<path d="M21343 6992
L21324 6974
L21306 6936
L21306 6842
L21324 6805
L21343 6786
L21381 6767
L21418 6767
L21474 6786
L21699 7011
L21699 6767
" />
<path d="M21278 5749
L21297 5731
L21335 5712
L21428 5712
L21466 5731
L21485 5749
L21503 5787
L21503 5824
L21485 5881
L21260 6106
L21503 6106
" />
<path d="M21672 6106
L21672 5712
" />
<path d="M21710 5956
L21822 6106
" />
<path d="M21822 5843
L21672 5993
" />
<path d="M21972 5749
L21991 5731
L22028 5712
L22122 5712
L22160 5731
L22178 5749
L22197 5787
L22197 5824
L22178 5881
L21953 6106
L22197 6106
" />
<path d="M18838 5766
L19101 5766
" />
<path d="M18688 5860
L18970 5954
L18970 5710
" />
<path d="M18707 5597
L18707 5335
L19101 5504
" />
<path d="M19101 5185
L18707 5185
" />
<path d="M18951 5148
L19101 5035
" />
<path d="M18838 5035
L18988 5185
" />
<path d="M29673 17759
L29448 17759
" />
<path d="M29560 17759
L29560 17365
L29523 17422
L29485 17459
L29448 17478
" />
<path d="M29916 17365
L29954 17365
L29991 17384
L30010 17403
L30029 17440
L30048 17515
L30048 17609
L30029 17684
L30010 17722
L29991 17740
L29954 17759
L29916 17759
L29879 17740
L29860 17722
L29841 17684
L29823 17609
L29823 17515
L29841 17440
L29860 17403
L29879 17384
L29916 17365
" />
<path d="M30216 17759
L30216 17365
" />
<path d="M30254 17609
L30366 17759
" />
<path d="M30366 17497
L30216 17647
" />
<path d="M25440 18170
L25440 18395
" />
<path d="M25440 18282
L25046 18282
L25102 18320
L25140 18357
L25158 18395
" />
<path d="M25046 17926
L25046 17888
L25065 17851
L25083 17832
L25121 17813
L25196 17795
L25290 17795
L25365 17813
L25402 17832
L25421 17851
L25440 17888
L25440 17926
L25421 17963
L25402 17982
L25365 18001
L25290 18020
L25196 18020
L25121 18001
L25083 17982
L25065 17963
L25046 17926
" />
<path d="M25440 17626
L25046 17626
" />
<path d="M25290 17588
L25440 17476
" />
<path d="M25177 17476
L25327 17626
" />
<path d="M23327 18207
L23589 18207
" />
<path d="M23177 18301
L23458 18395
L23458 18151
" />
<path d="M23195 18038
L23195 17776
L23589 17945
" />
<path d="M23589 17626
L23195 17626
" />
<path d="M23439 17588
L23589 17476
" />
<path d="M23327 17476
L23477 17626
" />
<path d="M30863 1893
L30638 1893
" />
<path d="M30751 1893
L30751 1499
L30713 1555
L30676 1593
L30638 1612
" />
<path d="M31107 1499
L31144 1499
L31182 1518
L31201 1537
L31219 1574
L31238 1649
L31238 1743
L31219 1818
L31201 1855
L31182 1874
L31144 1893
L31107 1893
L31069 1874
L31051 1855
L31032 1818
L31013 1743
L31013 1649
L31032 1574
L31051 1537
L31069 1518
L31107 1499
" />
<path d="M31482 1499
L31519 1499
L31557 1518
L31576 1537
L31594 1574
L31613 1649
L31613 1743
L31594 1818
L31576 1855
L31557 1874
L31519 1893
L31482 1893
L31444 1874
L31426 1855
L31407 1818
L31388 1743
L31388 1649
L31407 1574
L31426 1537
L31444 1518
L31482 1499
" />
<path d="M31782 1893
L31782 1499
" />
<path d="M31819 1743
L31932 1893
" />
<path d="M31932 1630
L31782 1780
" />
<path d="M39849 18524
L39849 18749
" />
<path d="M39849 18636
L39455 18636
L39511 18674
L39549 18711
L39568 18749
" />
<path d="M39455 18280
L39455 18243
L39474 18205
L39493 18187
L39530 18168
L39605 18149
L39699 18149
L39774 18168
L39811 18187
L39830 18205
L39849 18243
L39849 18280
L39830 18318
L39811 18337
L39774 18355
L39699 18374
L39605 18374
L39530 18355
L39493 18337
L39474 18318
L39455 18280
" />
<path d="M39849 17980
L39455 17980
" />
<path d="M39699 17943
L39849 17830
" />
<path d="M39586 17830
L39736 17980
" />
<path d="M34901 18719
L35164 18719
" />
<path d="M34751 18813
L35033 18906
L35033 18663
" />
<path d="M34770 18550
L34770 18288
L35164 18456
" />
<path d="M35164 18138
L34770 18138
" />
<path d="M35014 18100
L35164 17988
" />
<path d="M34901 17988
L35051 18138
" />
<path d="M39703 15987
L39478 15987
" />
<path d="M39590 15987
L39590 15594
L39553 15650
L39515 15687
L39478 15706
" />
<path d="M39871 15987
L39871 15594
" />
<path d="M39909 15837
L40021 15987
" />
<path d="M40021 15725
L39871 15875
" />
<path d="M27605 2300
L27605 2525
" />
<path d="M27605 2412
L27211 2412
L27267 2450
L27305 2487
L27324 2525
" />
<path d="M27211 2056
L27211 2018
L27230 1981
L27249 1962
L27286 1943
L27361 1925
L27455 1925
L27530 1943
L27567 1962
L27586 1981
L27605 2018
L27605 2056
L27586 2093
L27567 2112
L27530 2131
L27455 2150
L27361 2150
L27286 2131
L27249 2112
L27230 2093
L27211 2056
" />
<path d="M27605 1756
L27211 1756
" />
<path d="M27455 1718
L27605 1606
" />
<path d="M27342 1606
L27492 1756
" />
<path d="M26660 19343
L26266 19343
L26547 19212
L26266 19081
L26660 19081
" />
<path d="M26660 18893
L26266 18893
" />
<path d="M26622 18481
L26641 18500
L26660 18556
L26660 18593
L26641 18650
L26604 18687
L26566 18706
L26491 18725
L26435 18725
L26360 18706
L26323 18687
L26285 18650
L26266 18593
L26266 18556
L26285 18500
L26304 18481
" />
<path d="M26266 18125
L26266 18312
L26454 18331
L26435 18312
L26416 18275
L26416 18181
L26435 18143
L26454 18125
L26491 18106
L26585 18106
L26622 18125
L26641 18143
L26660 18181
L26660 18275
L26641 18312
L26622 18331
" />
<path d="M26304 17956
L26285 17937
L26266 17900
L26266 17806
L26285 17768
L26304 17750
L26341 17731
L26379 17731
L26435 17750
L26660 17975
L26660 17731
" />
<path d="M26266 17487
L26266 17450
L26285 17412
L26304 17394
L26341 17375
L26416 17356
L26510 17356
L26585 17375
L26622 17394
L26641 17412
L26660 17450
L26660 17487
L26641 17525
L26622 17543
L26585 17562
L26510 17581
L26416 17581
L26341 17562
L26304 17543
L26285 17525
L26266 17487
" />
<path d="M26266 17000
L26266 17187
L26454 17206
L26435 17187
L26416 17150
L26416 17056
L26435 17019
L26454 17000
L26491 16981
L26585 16981
L26622 17000
L26641 17019
L26660 17056
L26660 17150
L26641 17187
L26622 17206
" />
<path d="M14930 13670
L15117 13670
" />
<path d="M14892 13783
L15023 13389
L15155 13783
" />
<path d="M15248 13389
L15492 13389
L15361 13539
L15417 13539
L15455 13558
L15473 13576
L15492 13614
L15492 13708
L15473 13745
L15455 13764
L15417 13783
L15305 13783
L15267 13764
L15248 13745
" />
<path d="M15867 13783
L15642 13783
" />
<path d="M15754 13783
L15754 13389
L15717 13445
L15679 13483
L15642 13501
" />
<path d="M16204 13520
L16204 13783
" />
<path d="M16111 13370
L16017 13651
L16261 13651
" />
<path d="M16579 13520
L16579 13783
" />
<path d="M16486 13370
L16392 13651
L16636 13651
" />
<path d="M14890 12410
L15078 12410
" />
<path d="M14853 12523
L14984 12129
L15115 12523
" />
<path d="M15209 12129
L15453 12129
L15321 12279
L15378 12279
L15415 12298
L15434 12317
L15453 12354
L15453 12448
L15434 12485
L15415 12504
L15378 12523
L15265 12523
L15228 12504
L15209 12485
" />
<path d="M15828 12523
L15603 12523
" />
<path d="M15715 12523
L15715 12129
L15678 12185
L15640 12223
L15603 12242
" />
<path d="M16165 12260
L16165 12523
" />
<path d="M16071 12110
L15978 12392
L16221 12392
" />
<path d="M16540 12260
L16540 12523
" />
<path d="M16446 12110
L16353 12392
L16596 12392
" />
<path d="M38589 20204
L38195 20204
L38477 20073
L38195 19941
L38589 19941
" />
<path d="M38552 19529
L38570 19548
L38589 19604
L38589 19641
L38570 19698
L38533 19735
L38495 19754
L38420 19773
L38364 19773
L38289 19754
L38252 19735
L38214 19698
L38195 19641
L38195 19604
L38214 19548
L38233 19529
" />
<path d="M38589 19360
L38195 19360
L38195 19210
L38214 19173
L38233 19154
L38270 19135
L38327 19135
L38364 19154
L38383 19173
L38402 19210
L38402 19360
" />
<path d="M38195 18798
L38195 18873
L38214 18910
L38233 18929
L38289 18966
L38364 18985
L38514 18985
L38552 18966
L38570 18948
L38589 18910
L38589 18835
L38570 18798
L38552 18779
L38514 18760
L38420 18760
L38383 18779
L38364 18798
L38345 18835
L38345 18910
L38364 18948
L38383 18966
L38420 18985
" />
<path d="M38195 18516
L38195 18479
L38214 18441
L38233 18423
L38270 18404
L38345 18385
L38439 18385
L38514 18404
L38552 18423
L38570 18441
L38589 18479
L38589 18516
L38570 18554
L38552 18573
L38514 18591
L38439 18610
L38345 18610
L38270 18591
L38233 18573
L38214 18554
L38195 18516
" />
<path d="M38589 18010
L38589 18235
" />
<path d="M38589 18123
L38195 18123
L38252 18160
L38289 18198
L38308 18235
" />
<path d="M38439 17842
L38439 17542
" />
<path d="M38570 17373
L38589 17317
L38589 17223
L38570 17185
L38552 17167
L38514 17148
L38477 17148
L38439 17167
L38420 17185
L38402 17223
L38383 17298
L38364 17335
L38345 17354
L38308 17373
L38270 17373
L38233 17354
L38214 17335
L38195 17298
L38195 17204
L38214 17148
" />
<path d="M38195 16904
L38195 16829
L38214 16792
L38252 16754
L38327 16735
L38458 16735
L38533 16754
L38570 16792
L38589 16829
L38589 16904
L38570 16942
L38533 16979
L38458 16998
L38327 16998
L38252 16979
L38214 16942
L38195 16904
" />
<path d="M38195 16623
L38195 16398
" />
<path d="M38589 16510
L38195 16510
" />
<path d="M32802 2560
L32802 2785
" />
<path d="M32802 2673
L32408 2673
L32464 2710
L32502 2748
L32520 2785
" />
<path d="M32408 2317
L32408 2279
L32427 2242
L32446 2223
L32483 2204
L32558 2185
L32652 2185
L32727 2204
L32764 2223
L32783 2242
L32802 2279
L32802 2317
L32783 2354
L32764 2373
L32727 2392
L32652 2410
L32558 2410
L32483 2392
L32446 2373
L32427 2354
L32408 2317
" />
<path d="M32408 1942
L32408 1904
L32427 1867
L32446 1848
L32483 1829
L32558 1810
L32652 1810
L32727 1829
L32764 1848
L32783 1867
L32802 1904
L32802 1942
L32783 1979
L32764 1998
L32727 2017
L32652 2035
L32558 2035
L32483 2017
L32446 1998
L32427 1979
L32408 1942
" />
<path d="M32539 1642
L32802 1642
" />
<path d="M32577 1642
L32558 1623
L32539 1585
L32539 1529
L32558 1492
L32595 1473
L32802 1473
" />
<path d="M32595 1154
L32595 1286
" />
<path d="M32802 1286
L32408 1286
L32408 1098
" />
<path d="M35660 5268
L35266 5268
" />
<path d="M35454 5268
L35454 5043
" />
<path d="M35660 5043
L35266 5043
" />
<path d="M35454 4856
L35454 4725
" />
<path d="M35660 4669
L35660 4856
L35266 4856
L35266 4669
" />
<path d="M35547 4519
L35547 4331
" />
<path d="M35660 4556
L35266 4425
L35660 4294
" />
<path d="M35660 4162
L35266 4162
L35266 4069
L35285 4012
L35323 3975
L35360 3956
L35435 3937
L35491 3937
L35566 3956
L35604 3975
L35641 4012
L35660 4069
L35660 4162
" />
<path d="M35454 3769
L35454 3637
" />
<path d="M35660 3581
L35660 3769
L35266 3769
L35266 3581
" />
<path d="M35660 3187
L35473 3319
" />
<path d="M35660 3412
L35266 3412
L35266 3262
L35285 3225
L35304 3206
L35341 3187
L35398 3187
L35435 3206
L35454 3225
L35473 3262
L35473 3412
" />
<path d="M35697 3112
L35697 2813
" />
<path d="M35266 2550
L35266 2625
L35285 2663
L35304 2681
L35360 2719
L35435 2738
L35585 2738
L35622 2719
L35641 2700
L35660 2663
L35660 2588
L35641 2550
L35622 2531
L35585 2513
L35491 2513
L35454 2531
L35435 2550
L35416 2588
L35416 2663
L35435 2700
L35454 2719
L35491 2738
" />
<path d="M25660 5268
L25266 5268
" />
<path d="M25454 5268
L25454 5043
" />
<path d="M25660 5043
L25266 5043
" />
<path d="M25454 4856
L25454 4725
" />
<path d="M25660 4669
L25660 4856
L25266 4856
L25266 4669
" />
<path d="M25547 4519
L25547 4331
" />
<path d="M25660 4556
L25266 4425
L25660 4294
" />
<path d="M25660 4162
L25266 4162
L25266 4069
L25285 4012
L25323 3975
L25360 3956
L25435 3937
L25491 3937
L25566 3956
L25604 3975
L25641 4012
L25660 4069
L25660 4162
" />
<path d="M25454 3769
L25454 3637
" />
<path d="M25660 3581
L25660 3769
L25266 3769
L25266 3581
" />
<path d="M25660 3187
L25473 3319
" />
<path d="M25660 3412
L25266 3412
L25266 3262
L25285 3225
L25304 3206
L25341 3187
L25398 3187
L25435 3206
L25454 3225
L25473 3262
L25473 3412
" />
<path d="M25697 3112
L25697 2813
" />
<path d="M25266 2550
L25266 2625
L25285 2663
L25304 2681
L25360 2719
L25435 2738
L25585 2738
L25622 2719
L25641 2700
L25660 2663
L25660 2588
L25641 2550
L25622 2531
L25585 2513
L25491 2513
L25454 2531
L25435 2550
L25416 2588
L25416 2663
L25435 2700
L25454 2719
L25491 2738
" />
<path d="M36546 17690
L36152 17690
" />
<path d="M36340 17690
L36340 17465
" />
<path d="M36546 17465
L36152 17465
" />
<path d="M36340 17277
L36340 17146
" />
<path d="M36546 17090
L36546 17277
L36152 17277
L36152 17090
" />
<path d="M36433 16940
L36433 16752
" />
<path d="M36546 16977
L36152 16846
L36546 16715
" />
<path d="M36546 16584
L36152 16584
L36152 16490
L36171 16434
L36208 16396
L36246 16377
L36321 16359
L36377 16359
L36452 16377
L36490 16396
L36527 16434
L36546 16490
L36546 16584
" />
<path d="M36340 16190
L36340 16059
" />
<path d="M36546 16002
L36546 16190
L36152 16190
L36152 16002
" />
<path d="M36546 15609
L36358 15740
" />
<path d="M36546 15834
L36152 15834
L36152 15684
L36171 15646
L36190 15627
L36227 15609
L36283 15609
L36321 15627
L36340 15646
L36358 15684
L36358 15834
" />
<path d="M36583 15534
L36583 15234
" />
<path d="M36546 14934
L36546 15159
" />
<path d="M36546 15046
L36152 15046
L36208 15084
L36246 15121
L36265 15159
" />
<path d="M36546 10997
L36152 10997
" />
<path d="M36340 10997
L36340 10772
" />
<path d="M36546 10772
L36152 10772
" />
<path d="M36340 10584
L36340 10453
" />
<path d="M36546 10397
L36546 10584
L36152 10584
L36152 10397
" />
<path d="M36433 10247
L36433 10059
" />
<path d="M36546 10284
L36152 10153
L36546 10022
" />
<path d="M36546 9891
L36152 9891
L36152 9797
L36171 9741
L36208 9703
L36246 9684
L36321 9666
L36377 9666
L36452 9684
L36490 9703
L36527 9741
L36546 9797
L36546 9891
" />
<path d="M36340 9497
L36340 9366
" />
<path d="M36546 9310
L36546 9497
L36152 9497
L36152 9310
" />
<path d="M36546 8916
L36358 9047
" />
<path d="M36546 9141
L36152 9141
L36152 8991
L36171 8953
L36190 8935
L36227 8916
L36283 8916
L36321 8935
L36340 8953
L36358 8991
L36358 9141
" />
<path d="M36583 8841
L36583 8541
" />
<path d="M36546 8241
L36546 8466
" />
<path d="M36546 8353
L36152 8353
L36208 8391
L36246 8428
L36265 8466
" />
<path d="M24562 7256
L24562 7013
L24712 7144
L24712 7088
L24730 7050
L24749 7031
L24787 7013
L24880 7013
L24918 7031
L24937 7050
L24955 7088
L24955 7200
L24937 7238
L24918 7256
" />
<path d="M24599 6863
L24580 6844
L24562 6806
L24562 6713
L24580 6675
L24599 6656
L24637 6638
L24674 6638
L24730 6656
L24955 6881
L24955 6638
" />
<path d="M24918 6469
L24937 6450
L24955 6469
L24937 6488
L24918 6469
L24955 6469
" />
<path d="M24562 6319
L24562 6057
L24955 6225
" />
<path d="M24562 5738
L24562 5813
L24580 5850
L24599 5869
L24655 5907
L24730 5925
L24880 5925
L24918 5907
L24937 5888
L24955 5850
L24955 5775
L24937 5738
L24918 5719
L24880 5700
L24787 5700
L24749 5719
L24730 5738
L24712 5775
L24712 5850
L24730 5888
L24749 5907
L24787 5925
" />
<path d="M24730 5475
L24712 5513
L24693 5532
L24655 5550
L24637 5550
L24599 5532
L24580 5513
L24562 5475
L24562 5400
L24580 5363
L24599 5344
L24637 5325
L24655 5325
L24693 5344
L24712 5363
L24730 5400
L24730 5475
L24749 5513
L24768 5532
L24805 5550
L24880 5550
L24918 5532
L24937 5513
L24955 5475
L24955 5400
L24937 5363
L24918 5344
L24880 5325
L24805 5325
L24768 5344
L24749 5363
L24730 5400
" />
<path d="M24955 5157
L24562 5157
" />
<path d="M24955 4932
L24730 5100
" />
<path d="M24562 4932
L24787 5157
" />
</g>
<g style="fill:#000000; fill-opacity:0.0; 
stroke:#000000; stroke-width:39.3701; stroke-opacity:1; 
stroke-linecap:round; stroke-linejoin:round;">
<path d="M30183 1345
L30183 1975
" />
<path d="M28923 1345
L30183 1345
" />
<path d="M28923 1975
L28923 1345
" />
<path d="M30183 1975
L28923 1975
" />
<path d="M42151 15534
L42151 16164
" />
<path d="M40891 15534
L42151 15534
" />
<path d="M40891 16164
L40891 15534
" />
<path d="M42151 16164
L40891 16164
" />
<path d="M33175 17778
L33805 17778
" />
<path d="M33175 19038
L33175 17778
" />
<path d="M33805 19038
L33175 19038
" />
<path d="M33805 17778
L33805 19038
" />
</g>
<g style="fill:#000000; fill-opacity:0.0; 
stroke:#000000; stroke-width:59.0551; stroke-opacity:1; 
stroke-linecap:round; stroke-linejoin:round;">
<path d="M24750 6361
L24750 6990
" />
<path d="M23490 6361
L24750 6361
" />
<path d="M23490 6990
L23490 6361
" />
<path d="M24750 6990
L23490 6990
" />
<path d="M24750 5455
L24750 6085
" />
<path d="M23490 5455
L24750 5455
" />
<path d="M23490 6085
L23490 5455
" />
<path d="M24750 6085
L23490 6085
" />
<path d="M30591 5733
L30145 6178
" />
<path d="M29700 4842
L30591 5733
" />
<path d="M29254 5287
L29700 4842
" />
<path d="M30145 6178
L29254 5287
" />
<path d="M33820 2668
L33191 2668
" />
<path d="M33820 1408
L33820 2668
" />
<path d="M33191 1408
L33820 1408
" />
<path d="M33191 2668
L33191 1408
" />
<path d="M24612 18605
L23982 18605
" />
<path d="M24612 17345
L24612 18605
" />
<path d="M23982 17345
L24612 17345
" />
<path d="M23982 18605
L23982 17345
" />
<path d="M22722 18612
L22092 18612
" />
<path d="M22722 17353
L22722 18612
" />
<path d="M22092 17353
L22722 17353
" />
<path d="M22092 18612
L22092 17353
" />
<path d="M27958 18534
L27328 18534
" />
<path d="M27958 17274
L27958 18534
" />
<path d="M27328 17274
L27958 17274
" />
<path d="M27328 18534
L27328 17274
" />
<path d="M37235 18053
L37501 18624
" />
<path d="M36093 18585
L37235 18053
" />
<path d="M36359 19156
L36093 18585
" />
<path d="M37501 18624
L36359 19156
" />
<path d="M29946 7345
L30576 7345
" />
<path d="M29946 8605
L29946 7345
" />
<path d="M30576 8605
L29946 8605
" />
<path d="M30576 7345
L30576 8605
" />
<path d="M41517 1609
L42147 1609
" />
<path d="M41517 2868
L41517 1609
" />
<path d="M42147 2868
L41517 2868
" />
<path d="M42147 1609
L42147 2868
" />
<path d="M40659 1668
L41289 1668
" />
<path d="M40659 2927
L40659 1668
" />
<path d="M41289 2927
L40659 2927
" />
<path d="M41289 1668
L41289 2927
" />
</g>
<g style="fill:#000000; fill-opacity:0.0; 
stroke:#000000; stroke-width:39.3701; stroke-opacity:1; 
stroke-linecap:round; stroke-linejoin:round;">
<path d="M21887 7896
L21257 7896
" />
<path d="M21887 6636
L21887 7896
" />
<path d="M21257 6636
L21887 6636
" />
<path d="M21257 7896
L21257 6636
" />
<path d="M22348 5612
L22348 6242
" />
<path d="M21088 5612
L22348 5612
" />
<path d="M21088 6242
L21088 5612
" />
<path d="M22348 6242
L21088 6242
" />
<path d="M19238 6085
L18608 6085
" />
<path d="M19238 4825
L19238 6085
" />
<path d="M18608 4825
L19238 4825
" />
<path d="M18608 6085
L18608 4825
" />
<path d="M29238 17896
L29238 17266
" />
<path d="M30498 17896
L29238 17896
" />
<path d="M30498 17266
L30498 17896
" />
<path d="M29238 17266
L30498 17266
" />
<path d="M24927 17313
L25557 17313
" />
<path d="M24927 18573
L24927 17313
" />
<path d="M25557 18573
L24927 18573
" />
<path d="M25557 17313
L25557 18573
" />
<path d="M23037 17313
L23667 17313
" />
<path d="M23037 18573
L23037 17313
" />
<path d="M23667 18573
L23037 18573
" />
<path d="M23667 17313
L23667 18573
" />
<path d="M30655 1986
L30655 1357
" />
<path d="M31915 1986
L30655 1986
" />
<path d="M31915 1357
L31915 1986
" />
<path d="M30655 1357
L31915 1357
" />
<path d="M39356 17699
L39986 17699
" />
<path d="M39356 18959
L39356 17699
" />
<path d="M39986 18959
L39356 18959
" />
<path d="M39986 17699
L39986 18959
" />
<path d="M35261 19038
L34631 19038
" />
<path d="M35261 17778
L35261 19038
" />
<path d="M34631 17778
L35261 17778
" />
<path d="M34631 19038
L34631 17778
" />
<path d="M39080 16124
L39080 15494
" />
<path d="M40340 16124
L39080 16124
" />
<path d="M40340 15494
L40340 16124
" />
<path d="M39080 15494
L40340 15494
" />
<path d="M27710 2695
L27080 2695
" />
<path d="M27710 1435
L27710 2695
" />
<path d="M27080 1435
L27710 1435
" />
<path d="M27080 2695
L27080 1435
" />
<path d="M2927 13994
L2927 9994
" />
<path d="M2927 9994
L927 9994
" />
<path d="M927 9994
L927 13994
" />
<path d="M927 13994
L2927 13994
" />
<path d="M32309 1400
L32939 1400
" />
<path d="M32309 2660
L32309 1400
" />
<path d="M32939 2660
L32309 2660
" />
<path d="M32939 1400
L32939 2660
" />
<path d="M41923 3400
L35923 3400
" />
<path d="M35923 3400
L35923 4400
" />
<path d="M35923 4400
L41923 4400
" />
<path d="M41923 4400
L41923 3400
" />
<path d="M31923 3400
L25923 3400
" />
<path d="M25923 3400
L25923 4400
" />
<path d="M25923 4400
L31923 4400
" />
<path d="M31923 4400
L31923 3400
" />
<path d="M37809 15821
L36809 15821
" />
<path d="M36809 15821
L36809 16821
" />
<path d="M36809 16821
L37809 16821
" />
<path d="M37809 16821
L37809 15821
" />
<path d="M37809 9128
L36809 9128
" />
<path d="M36809 9128
L36809 10128
" />
<path d="M36809 10128
L37809 10128
" />
<path d="M37809 10128
L37809 9128
" />
<circle cx="25655.6" cy="6085.14" r="405.512" /> 
</g> 
</svg>
