<?xml version="1.0" standalone="no"?>
 <!DOCTYPE svg PUBLIC "-//W3C//DTD SVG 1.1//EN" 
 "http://www.w3.org/Graphics/SVG/1.1/DTD/svg11.dtd"> 
<svg xmlns="http://www.w3.org/2000/svg" version="1.1" 
    width="11.4706cm" height="5.18414cm" viewBox="0 0 45160 20410 ">
<title>SVG Picture created as proto_trapapoul4-B.SilkS.svg date 2017/04/03 21:15:02 </title>
  <desc>Picture generated by PCBNEW </desc>
<g style="fill:#000000; fill-opacity:1;stroke:#000000; stroke-opacity:1;
stroke-linecap:round; stroke-linejoin:round; "
 transform="translate(0 0) scale(1 1)">
</g>
<g style="fill:#000000; fill-opacity:0.0; 
stroke:#000000; stroke-width:-0.000393701; stroke-opacity:1; 
stroke-linecap:round; stroke-linejoin:round;">
</g>
<g style="fill:#000000; fill-opacity:0.0; 
stroke:#000000; stroke-width:39.3701; stroke-opacity:1; 
stroke-linecap:round; stroke-linejoin:round;">
<circle cx="10931.2" cy="6085.42" r="1574.8" /> 
<path d="M1856 764
L42013 764
" />
<path d="M43564.5 2070.46 A787.402 787.402 0.0 0 0 43999.9 2642.2 " />
<path d="M43999 2642
L44322 2796
" />
<path d="M44769.8 3506.17 A787.402 787.402 0.0 0 0 44322.1 2796.35 " />
<path d="M44353.3 17193.4 A787.402 787.402 0.0 0 0 44769.8 16498.8 " />
<path d="M44352 17193
L44005 17378
" />
<path d="M44005.2 17379 A787.402 787.402 0.0 0 0 43588.7 18073.6 " />
<path d="M281 18087
L281 2339
" />
<path d="M281.59 18087.5 A1574.8 1574.8 0.0 0 0 1856.39 19662.3 " />
<path d="M1856.39 764.641 A1574.8 1574.8 0.0 0 0 281.59 2339.44 " />
<path d="M17998.1 9426.06 A393.701 393.701 0.0 0 0 17604.4 9819.76 " />
<path d="M17604 16118
L17604 9819
" />
<path d="M17604.4 16119 A393.701 393.701 0.0 0 0 17998.1 16512.7 " />
<path d="M42013 19662
L1856 19662
" />
<path d="M35714.7 16512.7 A393.701 393.701 0.0 0 0 36108.4 16119 " />
<path d="M36108 9819
L36108 16118
" />
<path d="M36108.4 9819.07 A393.701 393.701 0.0 0 0 35714.7 9426.06 " />
<path d="M17998 9426
L35714 9426
" />
<path d="M43564.3 2063.28 A1574.8 1574.8 0.0 0 0 42013.9 764.641 " />
<path d="M44769 3500
L44769 16492
" />
<path d="M42013.9 19662.3 A1574.8 1574.8 0.0 0 0 43588.7 18087.5 " />
<path d="M17998 16512
L35714 16512
" />
</g>
<g style="fill:#000000; fill-opacity:0.0; 
stroke:#000000; stroke-width:59.0551; stroke-opacity:1; 
stroke-linecap:round; stroke-linejoin:round;">
<path d="M41345 6274
L41158 6143
" />
<path d="M41345 6049
L40951 6049
L40951 6199
L40970 6237
L40989 6256
L41026 6274
L41083 6274
L41120 6256
L41139 6237
L41158 6199
L41158 6049
" />
<path d="M41120 6499
L41101 6462
L41083 6443
L41045 6424
L41026 6424
L40989 6443
L40970 6462
L40951 6499
L40951 6574
L40970 6612
L40989 6630
L41026 6649
L41045 6649
L41083 6630
L41101 6612
L41120 6574
L41120 6499
L41139 6462
L41158 6443
L41195 6424
L41270 6424
L41308 6443
L41326 6462
L41345 6499
L41345 6574
L41326 6612
L41308 6630
L41270 6649
L41195 6649
L41158 6630
L41139 6612
L41120 6574
" />
<path d="M40989 6799
L40970 6818
L40951 6855
L40951 6949
L40970 6987
L40989 7005
L41026 7024
L41064 7024
L41120 7005
L41345 6780
L41345 7024
" />
<path d="M40951 7268
L40951 7305
L40970 7343
L40989 7362
L41026 7380
L41101 7399
L41195 7399
L41270 7380
L41308 7362
L41326 7343
L41345 7305
L41345 7268
L41326 7230
L41308 7212
L41270 7193
L41195 7174
L41101 7174
L41026 7193
L40989 7212
L40970 7230
L40951 7268
" />
<path d="M13664 12488
L13690 12488
L13743 12461
L13770 12435
L13796 12382
L13796 12329
L13783 12289
L13743 12223
L13703 12183
L13637 12143
L13597 12130
L13544 12130
L13491 12156
L13465 12183
L13438 12236
L13438 12262
" />
<path d="M13266 12567
L13452 12753
" />
<path d="M13226 12395
L13491 12528
L13319 12700
" />
<path d="M12974 12673
L12948 12700
L12935 12740
L12935 12766
L12948 12806
L12988 12872
L13054 12939
L13120 12978
L13160 12992
L13186 12992
L13226 12978
L13253 12952
L13266 12912
L13266 12886
L13253 12846
L13213 12779
L13147 12713
L13080 12673
L13041 12660
L13014 12660
L12974 12673
" />
<path d="M12802 12899
L12775 12899
L12736 12912
L12669 12978
L12656 13018
L12656 13045
L12669 13084
L12696 13111
L12749 13137
L13067 13137
L12895 13310
" />
<path d="M15249 10948
L15380 10761
" />
<path d="M15474 10948
L15474 10554
L15324 10554
L15287 10573
L15268 10592
L15249 10629
L15249 10686
L15268 10723
L15287 10742
L15324 10761
L15474 10761
" />
<path d="M14912 10554
L14987 10554
L15024 10573
L15043 10592
L15080 10648
L15099 10723
L15099 10873
L15080 10911
L15062 10929
L15024 10948
L14949 10948
L14912 10929
L14893 10911
L14874 10873
L14874 10779
L14893 10742
L14912 10723
L14949 10704
L15024 10704
L15062 10723
L15080 10742
L15099 10779
" />
<path d="M14499 10948
L14724 10948
" />
<path d="M14612 10948
L14612 10554
L14649 10611
L14687 10648
L14724 10667
" />
<path d="M14349 10592
L14331 10573
L14293 10554
L14199 10554
L14162 10573
L14143 10592
L14124 10629
L14124 10667
L14143 10723
L14368 10948
L14124 10948
" />
<path d="M39414 15789
L39451 15770
L39489 15732
L39545 15676
L39582 15657
L39620 15657
" />
<path d="M39601 15751
L39639 15732
L39676 15695
L39695 15620
L39695 15489
L39676 15414
L39639 15376
L39601 15358
L39526 15358
L39489 15376
L39451 15414
L39432 15489
L39432 15620
L39451 15695
L39489 15732
L39526 15751
L39601 15751
" />
<path d="M39207 15526
L39245 15507
L39264 15489
L39282 15451
L39282 15432
L39264 15395
L39245 15376
L39207 15358
L39132 15358
L39095 15376
L39076 15395
L39057 15432
L39057 15451
L39076 15489
L39095 15507
L39132 15526
L39207 15526
L39245 15545
L39264 15564
L39282 15601
L39282 15676
L39264 15714
L39245 15732
L39207 15751
L39132 15751
L39095 15732
L39076 15714
L39057 15676
L39057 15601
L39076 15564
L39095 15545
L39132 15526
" />
<path d="M38682 15751
L38907 15751
" />
<path d="M38795 15751
L38795 15358
L38832 15414
L38870 15451
L38907 15470
" />
<path d="M38532 15395
L38514 15376
L38476 15358
L38382 15358
L38345 15376
L38326 15395
L38307 15432
L38307 15470
L38326 15526
L38551 15751
L38307 15751
" />
<path d="M37907 15318
L38038 15131
" />
<path d="M38132 15318
L38132 14924
L37982 14924
L37944 14943
L37925 14962
L37907 14999
L37907 15056
L37925 15093
L37944 15112
L37982 15131
L38132 15131
" />
<path d="M37682 15093
L37719 15074
L37738 15056
L37757 15018
L37757 14999
L37738 14962
L37719 14943
L37682 14924
L37607 14924
L37569 14943
L37550 14962
L37532 14999
L37532 15018
L37550 15056
L37569 15074
L37607 15093
L37682 15093
L37719 15112
L37738 15131
L37757 15168
L37757 15243
L37738 15281
L37719 15299
L37682 15318
L37607 15318
L37569 15299
L37550 15281
L37532 15243
L37532 15168
L37550 15131
L37569 15112
L37607 15093
" />
<path d="M37157 15318
L37382 15318
" />
<path d="M37269 15318
L37269 14924
L37307 14981
L37344 15018
L37382 15037
" />
<path d="M37007 14962
L36988 14943
L36951 14924
L36857 14924
L36819 14943
L36801 14962
L36782 14999
L36782 15037
L36801 15093
L37026 15318
L36782 15318
" />
<path d="M38399 10869
L38530 10682
" />
<path d="M38624 10869
L38624 10476
L38474 10476
L38436 10494
L38418 10513
L38399 10551
L38399 10607
L38418 10644
L38436 10663
L38474 10682
L38624 10682
" />
<path d="M38174 10644
L38211 10626
L38230 10607
L38249 10569
L38249 10551
L38230 10513
L38211 10494
L38174 10476
L38099 10476
L38061 10494
L38043 10513
L38024 10551
L38024 10569
L38043 10607
L38061 10626
L38099 10644
L38174 10644
L38211 10663
L38230 10682
L38249 10719
L38249 10794
L38230 10832
L38211 10851
L38174 10869
L38099 10869
L38061 10851
L38043 10832
L38024 10794
L38024 10719
L38043 10682
L38061 10663
L38099 10644
" />
<path d="M37874 10513
L37855 10494
L37818 10476
L37724 10476
L37686 10494
L37668 10513
L37649 10551
L37649 10588
L37668 10644
L37893 10869
L37649 10869
" />
<path d="M37499 10513
L37480 10494
L37443 10476
L37349 10476
L37311 10494
L37293 10513
L37274 10551
L37274 10588
L37293 10644
L37518 10869
L37274 10869
" />
<path d="M40517 5968
L40498 5930
L40460 5893
L40404 5837
L40385 5799
L40385 5762
" />
<path d="M40479 5780
L40460 5743
L40423 5705
L40348 5687
L40217 5687
L40142 5705
L40104 5743
L40085 5780
L40085 5855
L40104 5893
L40142 5930
L40217 5949
L40348 5949
L40423 5930
L40460 5893
L40479 5855
L40479 5780
" />
<path d="M40254 6174
L40235 6136
L40217 6118
L40179 6099
L40160 6099
L40123 6118
L40104 6136
L40085 6174
L40085 6249
L40104 6286
L40123 6305
L40160 6324
L40179 6324
L40217 6305
L40235 6286
L40254 6249
L40254 6174
L40273 6136
L40292 6118
L40329 6099
L40404 6099
L40442 6118
L40460 6136
L40479 6174
L40479 6249
L40460 6286
L40442 6305
L40404 6324
L40329 6324
L40292 6305
L40273 6286
L40254 6249
" />
<path d="M40123 6474
L40104 6493
L40085 6530
L40085 6624
L40104 6661
L40123 6680
L40160 6699
L40198 6699
L40254 6680
L40479 6455
L40479 6699
" />
<path d="M40479 7074
L40479 6849
" />
<path d="M40479 6961
L40085 6961
L40142 6924
L40179 6886
L40198 6849
" />
<path d="M39954 9924
L40085 9737
" />
<path d="M40179 9924
L40179 9531
L40029 9531
L39991 9549
L39973 9568
L39954 9606
L39954 9662
L39973 9699
L39991 9718
L40029 9737
L40179 9737
" />
<path d="M39598 9531
L39785 9531
L39804 9718
L39785 9699
L39748 9681
L39654 9681
L39616 9699
L39598 9718
L39579 9756
L39579 9849
L39598 9887
L39616 9906
L39654 9924
L39748 9924
L39785 9906
L39804 9887
" />
<path d="M39204 9924
L39429 9924
" />
<path d="M39317 9924
L39317 9531
L39354 9587
L39392 9624
L39429 9643
" />
<path d="M38829 9924
L39054 9924
" />
<path d="M38942 9924
L38942 9531
L38979 9587
L39017 9624
L39054 9643
" />
<path d="M35455 6184
L35455 5791
L35361 5791
L35305 5809
L35267 5847
L35248 5884
L35230 5959
L35230 6016
L35248 6091
L35267 6128
L35305 6166
L35361 6184
L35455 6184
" />
<path d="M34873 5791
L35061 5791
L35080 5978
L35061 5959
L35023 5941
L34930 5941
L34892 5959
L34873 5978
L34855 6016
L34855 6109
L34873 6147
L34892 6166
L34930 6184
L35023 6184
L35061 6166
L35080 6147
" />
<path d="M34611 5791
L34573 5791
L34536 5809
L34517 5828
L34498 5866
L34480 5941
L34480 6034
L34498 6109
L34517 6147
L34536 6166
L34573 6184
L34611 6184
L34648 6166
L34667 6147
L34686 6109
L34705 6034
L34705 5941
L34686 5866
L34667 5828
L34648 5809
L34611 5791
" />
<path d="M34105 6184
L34330 6184
" />
<path d="M34217 6184
L34217 5791
L34255 5847
L34292 5884
L34330 5903
" />
<path d="M40297 14413
L40297 14019
L40203 14019
L40147 14038
L40110 14075
L40091 14113
L40072 14188
L40072 14244
L40091 14319
L40110 14356
L40147 14394
L40203 14413
L40297 14413
" />
<path d="M39716 14019
L39903 14019
L39922 14206
L39903 14188
L39866 14169
L39772 14169
L39735 14188
L39716 14206
L39697 14244
L39697 14338
L39716 14375
L39735 14394
L39772 14413
L39866 14413
L39903 14394
L39922 14375
" />
<path d="M39322 14413
L39547 14413
" />
<path d="M39435 14413
L39435 14019
L39472 14075
L39510 14113
L39547 14131
" />
<path d="M39078 14019
L39041 14019
L39003 14038
L38985 14056
L38966 14094
L38947 14169
L38947 14263
L38966 14338
L38985 14375
L39003 14394
L39041 14413
L39078 14413
L39116 14394
L39135 14375
L39153 14338
L39172 14263
L39172 14169
L39153 14094
L39135 14056
L39116 14038
L39078 14019
" />
<path d="M23762 4570
L23762 4176
L23668 4176
L23612 4195
L23574 4233
L23555 4270
L23537 4345
L23537 4401
L23555 4476
L23574 4514
L23612 4551
L23668 4570
L23762 4570
" />
<path d="M23180 4176
L23368 4176
L23387 4364
L23368 4345
L23330 4326
L23237 4326
L23199 4345
L23180 4364
L23162 4401
L23162 4495
L23180 4533
L23199 4551
L23237 4570
L23330 4570
L23368 4551
L23387 4533
" />
<path d="M23030 4176
L22787 4176
L22918 4326
L22862 4326
L22824 4345
L22805 4364
L22787 4401
L22787 4495
L22805 4533
L22824 4551
L22862 4570
L22974 4570
L23012 4551
L23030 4533
" />
<path d="M22543 4176
L22505 4176
L22468 4195
L22449 4214
L22431 4251
L22412 4326
L22412 4420
L22431 4495
L22449 4533
L22468 4551
L22505 4570
L22543 4570
L22580 4551
L22599 4533
L22618 4495
L22637 4420
L22637 4326
L22618 4251
L22599 4214
L22580 4195
L22543 4176
" />
</g>
<g style="fill:#000000; fill-opacity:0.0; 
stroke:#000000; stroke-width:59; stroke-opacity:1; 
stroke-linecap:round; stroke-linejoin:round;">
<path d="M9076 9949
L9315 9949
L9343 9963
L9357 9977
L9371 10005
L9371 10062
L9357 10090
L9343 10104
L9315 10118
L9076 10118
" />
<path d="M9371 10413
L9371 10244
" />
<path d="M9371 10329
L9076 10329
L9118 10300
L9146 10272
L9161 10244
" />
<path d="M9076 10595
L9076 10624
L9090 10652
L9104 10666
L9132 10680
L9189 10694
L9259 10694
L9315 10680
L9343 10666
L9357 10652
L9371 10624
L9371 10595
L9357 10567
L9343 10553
L9315 10539
L9259 10525
L9189 10525
L9132 10539
L9104 10553
L9090 10567
L9076 10595
" />
<path d="M9076 10876
L9076 10905
L9090 10933
L9104 10947
L9132 10961
L9189 10975
L9259 10975
L9315 10961
L9343 10947
L9357 10933
L9371 10905
L9371 10876
L9357 10848
L9343 10834
L9315 10820
L9259 10806
L9189 10806
L9132 10820
L9104 10834
L9090 10848
L9076 10876
" />
<path d="M9127 9014
L9028 9114
" />
<path d="M9207 9054
L8929 8915
L9068 9193
" />
<path d="M8819 9024
L8700 9143
" />
<path d="M8968 9292
L8760 9084
" />
<path d="M8839 9422
L8631 9213
L8710 9432
L8492 9352
L8700 9561
" />
<path d="M8492 9551
L8422 9620
" />
<path d="M8502 9759
L8601 9660
L8392 9451
L8293 9551
" />
<path d="M8104 9759
L8114 9730
L8144 9700
L8184 9680
L8223 9680
L8253 9690
L8303 9720
L8333 9749
L8362 9799
L8372 9829
L8372 9869
L8353 9908
L8333 9928
L8293 9948
L8273 9948
L8204 9879
L8243 9839
" />
<path d="M8154 9988
L8055 10087
" />
<path d="M8233 10028
L7955 9888
L8094 10167
" />
<path d="M7836 10008
L7707 10137
L7856 10147
L7826 10177
L7816 10206
L7816 10226
L7826 10256
L7876 10306
L7906 10316
L7925 10316
L7955 10306
L8015 10246
L8025 10216
L8025 10196
" />
<path d="M7647 10236
L7627 10236
L7598 10246
L7548 10296
L7538 10326
L7538 10345
L7548 10375
L7568 10395
L7608 10415
L7846 10415
L7717 10544
" />
<path d="M7478 10544
L7488 10514
L7488 10494
L7478 10465
L7468 10455
L7439 10445
L7419 10445
L7389 10455
L7349 10494
L7339 10524
L7339 10544
L7349 10574
L7359 10584
L7389 10594
L7409 10594
L7439 10584
L7478 10544
L7508 10534
L7528 10534
L7558 10544
L7598 10584
L7608 10614
L7608 10633
L7598 10663
L7558 10703
L7528 10713
L7508 10713
L7478 10703
L7439 10663
L7429 10633
L7429 10614
L7439 10584
" />
<path d="M7429 10832
L7220 10624
L7141 10703
L7131 10733
L7131 10753
L7141 10782
L7170 10812
L7200 10822
L7220 10822
L7250 10812
L7329 10733
" />
<path d="M7141 10961
L6982 11120
" />
<path d="M6912 11229
L6813 11329
" />
<path d="M6992 11269
L6714 11130
L6853 11408
" />
</g>
<g style="fill:#000000; fill-opacity:0.0; 
stroke:#000000; stroke-width:59.0551; stroke-opacity:1; 
stroke-linecap:round; stroke-linejoin:round;">
<path d="M5406 9476
L5406 9503
L5433 9556
L5459 9583
L5512 9609
L5565 9609
L5605 9596
L5671 9556
L5711 9516
L5751 9450
L5764 9410
L5764 9357
L5738 9304
L5711 9278
L5658 9251
L5632 9251
" />
<path d="M5115 9238
L5274 9397
" />
<path d="M5194 9317
L5473 9039
L5459 9105
L5459 9158
L5473 9198
" />
<path d="M5221 8787
L5194 8761
L5154 8747
L5128 8747
L5088 8761
L5022 8800
L4956 8867
L4916 8933
L4903 8973
L4903 8999
L4916 9039
L4942 9066
L4982 9079
L5009 9079
L5048 9066
L5115 9026
L5181 8959
L5221 8893
L5234 8853
L5234 8827
L5221 8787
" />
<path d="M4584 8708
L4743 8867
" />
<path d="M4664 8787
L4942 8509
L4929 8575
L4929 8628
L4942 8668
" />
<path d="M10513 13268
L10513 13294
L10539 13347
L10566 13374
L10619 13400
L10672 13400
L10712 13387
L10778 13347
L10818 13307
L10858 13241
L10871 13201
L10871 13148
L10844 13095
L10818 13069
L10765 13042
L10738 13042
" />
<path d="M10221 13029
L10380 13188
" />
<path d="M10301 13108
L10579 12830
L10566 12896
L10566 12949
L10579 12989
" />
<path d="M10327 12578
L10301 12552
L10261 12538
L10234 12538
L10195 12552
L10128 12591
L10062 12658
L10022 12724
L10009 12764
L10009 12790
L10022 12830
L10049 12857
L10089 12870
L10115 12870
L10155 12857
L10221 12817
L10288 12751
L10327 12684
L10341 12644
L10341 12618
L10327 12578
" />
<path d="M10102 12406
L10102 12379
L10089 12340
L10022 12273
L9983 12260
L9956 12260
L9916 12273
L9890 12300
L9863 12353
L9863 12671
L9691 12499
" />
<path d="M9824 17553
L9843 17571
L9899 17590
L9937 17590
L9993 17571
L10031 17534
L10049 17496
L10068 17421
L10068 17365
L10049 17290
L10031 17253
L9993 17215
L9937 17196
L9899 17196
L9843 17215
L9824 17234
" />
<path d="M9449 17590
L9674 17590
" />
<path d="M9562 17590
L9562 17196
L9599 17253
L9637 17290
L9674 17309
" />
<path d="M9206 17196
L9168 17196
L9131 17215
L9112 17234
L9093 17271
L9074 17346
L9074 17440
L9093 17515
L9112 17553
L9131 17571
L9168 17590
L9206 17590
L9243 17571
L9262 17553
L9281 17515
L9299 17440
L9299 17346
L9281 17271
L9262 17234
L9243 17215
L9206 17196
" />
<path d="M8737 17328
L8737 17590
" />
<path d="M8831 17178
L8924 17459
L8681 17459
" />
<path d="M7946 17525
L7965 17543
L8021 17562
L8059 17562
L8115 17543
L8152 17506
L8171 17468
L8190 17394
L8190 17337
L8171 17262
L8152 17225
L8115 17187
L8059 17169
L8021 17169
L7965 17187
L7946 17206
" />
<path d="M7571 17562
L7796 17562
" />
<path d="M7684 17562
L7684 17169
L7721 17225
L7759 17262
L7796 17281
" />
<path d="M7327 17169
L7290 17169
L7252 17187
L7234 17206
L7215 17244
L7196 17319
L7196 17412
L7215 17487
L7234 17525
L7252 17543
L7290 17562
L7327 17562
L7365 17543
L7384 17525
L7402 17487
L7421 17412
L7421 17319
L7402 17244
L7384 17206
L7365 17187
L7327 17169
" />
<path d="M6840 17169
L7027 17169
L7046 17356
L7027 17337
L6990 17319
L6896 17319
L6859 17337
L6840 17356
L6821 17394
L6821 17487
L6840 17525
L6859 17543
L6896 17562
L6990 17562
L7027 17543
L7046 17525
" />
<path d="M12316 13942
L12335 13961
L12391 13980
L12429 13980
L12485 13961
L12522 13923
L12541 13886
L12560 13811
L12560 13755
L12541 13680
L12522 13642
L12485 13605
L12429 13586
L12391 13586
L12335 13605
L12316 13623
" />
<path d="M11979 13717
L11979 13980
" />
<path d="M12072 13567
L12166 13848
L11922 13848
" />
<path d="M11697 13586
L11660 13586
L11622 13605
L11604 13623
L11585 13661
L11566 13736
L11566 13830
L11585 13905
L11604 13942
L11622 13961
L11660 13980
L11697 13980
L11735 13961
L11754 13942
L11772 13905
L11791 13830
L11791 13736
L11772 13661
L11754 13623
L11735 13605
L11697 13586
" />
<path d="M11191 13980
L11416 13980
" />
<path d="M11304 13980
L11304 13586
L11341 13642
L11379 13680
L11416 13698
" />
<path d="M5710 13742
L5736 13742
L5789 13716
L5816 13689
L5842 13636
L5842 13583
L5829 13543
L5789 13477
L5750 13437
L5683 13397
L5643 13384
L5590 13384
L5537 13411
L5511 13437
L5484 13490
L5484 13517
" />
<path d="M5312 13822
L5498 14007
" />
<path d="M5272 13649
L5537 13782
L5365 13954
" />
<path d="M5020 13928
L4994 13954
L4981 13994
L4981 14020
L4994 14060
L5034 14126
L5100 14193
L5166 14233
L5206 14246
L5233 14246
L5272 14233
L5299 14206
L5312 14166
L5312 14140
L5299 14100
L5259 14034
L5193 13967
L5126 13928
L5087 13914
L5060 13914
L5020 13928
" />
<path d="M4835 14113
L4662 14286
L4861 14299
L4822 14339
L4808 14378
L4808 14405
L4822 14445
L4888 14511
L4928 14524
L4954 14524
L4994 14511
L5073 14431
L5087 14392
L5087 14365
" />
<path d="M31504 4857
L31523 4838
L31542 4782
L31542 4744
L31523 4688
L31486 4651
L31448 4632
L31373 4613
L31317 4613
L31242 4632
L31204 4651
L31167 4688
L31148 4744
L31148 4782
L31167 4838
L31186 4857
" />
<path d="M31148 5213
L31148 5026
L31336 5007
L31317 5026
L31298 5063
L31298 5157
L31317 5194
L31336 5213
L31373 5232
L31467 5232
L31504 5213
L31523 5194
L31542 5157
L31542 5063
L31523 5026
L31504 5007
" />
<path d="M31148 5476
L31148 5513
L31167 5551
L31186 5569
L31223 5588
L31298 5607
L31392 5607
L31467 5588
L31504 5569
L31523 5551
L31542 5513
L31542 5476
L31523 5438
L31504 5419
L31467 5401
L31392 5382
L31298 5382
L31223 5401
L31186 5419
L31167 5438
L31148 5476
" />
<path d="M31148 5738
L31148 5982
L31298 5851
L31298 5907
L31317 5944
L31336 5963
L31373 5982
L31467 5982
L31504 5963
L31523 5944
L31542 5907
L31542 5794
L31523 5757
L31504 5738
" />
<path d="M33202 4761
L33221 4780
L33277 4798
L33314 4798
L33371 4780
L33408 4742
L33427 4705
L33446 4630
L33446 4573
L33427 4498
L33408 4461
L33371 4424
L33314 4405
L33277 4405
L33221 4424
L33202 4442
" />
<path d="M32846 4405
L33033 4405
L33052 4592
L33033 4573
L32996 4555
L32902 4555
L32865 4573
L32846 4592
L32827 4630
L32827 4723
L32846 4761
L32865 4780
L32902 4798
L32996 4798
L33033 4780
L33052 4761
" />
<path d="M32583 4405
L32546 4405
L32508 4424
L32490 4442
L32471 4480
L32452 4555
L32452 4648
L32471 4723
L32490 4761
L32508 4780
L32546 4798
L32583 4798
L32621 4780
L32640 4761
L32658 4723
L32677 4648
L32677 4555
L32658 4480
L32640 4442
L32621 4424
L32583 4405
" />
<path d="M32115 4536
L32115 4798
" />
<path d="M32208 4386
L32302 4667
L32058 4667
" />
<path d="M38261 12485
L38280 12504
L38336 12523
L38374 12523
L38430 12504
L38467 12467
L38486 12429
L38505 12354
L38505 12298
L38486 12223
L38467 12185
L38430 12148
L38374 12129
L38336 12129
L38280 12148
L38261 12167
" />
<path d="M37905 12129
L38092 12129
L38111 12317
L38092 12298
L38055 12279
L37961 12279
L37924 12298
L37905 12317
L37886 12354
L37886 12448
L37905 12485
L37924 12504
L37961 12523
L38055 12523
L38092 12504
L38111 12485
" />
<path d="M37511 12523
L37736 12523
" />
<path d="M37624 12523
L37624 12129
L37661 12185
L37699 12223
L37736 12242
" />
<path d="M37361 12167
L37342 12148
L37305 12129
L37211 12129
L37174 12148
L37155 12167
L37136 12204
L37136 12242
L37155 12298
L37380 12523
L37136 12523
" />
<path d="M40111 10832
L40130 10851
L40186 10869
L40224 10869
L40280 10851
L40318 10813
L40336 10776
L40355 10701
L40355 10644
L40336 10569
L40318 10532
L40280 10494
L40224 10476
L40186 10476
L40130 10494
L40111 10513
" />
<path d="M39755 10476
L39943 10476
L39961 10663
L39943 10644
L39905 10626
L39811 10626
L39774 10644
L39755 10663
L39736 10701
L39736 10794
L39755 10832
L39774 10851
L39811 10869
L39905 10869
L39943 10851
L39961 10832
" />
<path d="M39362 10869
L39586 10869
" />
<path d="M39474 10869
L39474 10476
L39511 10532
L39549 10569
L39586 10588
" />
<path d="M39230 10476
L38987 10476
L39118 10626
L39062 10626
L39024 10644
L39005 10663
L38987 10701
L38987 10794
L39005 10832
L39024 10851
L39062 10869
L39174 10869
L39212 10851
L39230 10832
" />
<path d="M40899 13430
L40918 13449
L40974 13468
L41011 13468
L41068 13449
L41105 13412
L41124 13374
L41143 13299
L41143 13243
L41124 13168
L41105 13130
L41068 13093
L41011 13074
L40974 13074
L40918 13093
L40899 13112
" />
<path d="M40543 13074
L40730 13074
L40749 13262
L40730 13243
L40693 13224
L40599 13224
L40561 13243
L40543 13262
L40524 13299
L40524 13393
L40543 13430
L40561 13449
L40599 13468
L40693 13468
L40730 13449
L40749 13430
" />
<path d="M40149 13468
L40374 13468
" />
<path d="M40261 13468
L40261 13074
L40299 13130
L40336 13168
L40374 13187
" />
<path d="M39811 13205
L39811 13468
" />
<path d="M39905 13055
L39999 13337
L39755 13337
" />
<path d="M22237 3600
L22256 3618
L22312 3637
L22350 3637
L22406 3618
L22444 3581
L22462 3543
L22481 3468
L22481 3412
L22462 3337
L22444 3300
L22406 3262
L22350 3243
L22312 3243
L22256 3262
L22237 3281
" />
<path d="M21881 3243
L22069 3243
L22087 3431
L22069 3412
L22031 3393
L21937 3393
L21900 3412
L21881 3431
L21862 3468
L21862 3562
L21881 3600
L21900 3618
L21937 3637
L22031 3637
L22069 3618
L22087 3600
" />
<path d="M21731 3243
L21488 3243
L21619 3393
L21562 3393
L21525 3412
L21506 3431
L21488 3468
L21488 3562
L21506 3600
L21525 3618
L21562 3637
L21675 3637
L21712 3618
L21731 3600
" />
<path d="M21113 3637
L21338 3637
" />
<path d="M21225 3637
L21225 3243
L21263 3300
L21300 3337
L21338 3356
" />
<path d="M4765 12930
L4765 12956
L4791 13009
L4818 13036
L4871 13062
L4924 13062
L4964 13049
L5030 13009
L5070 12969
L5110 12903
L5123 12863
L5123 12810
L5096 12757
L5070 12731
L5017 12704
L4990 12704
" />
<path d="M4765 12426
L4897 12558
L4778 12704
L4778 12678
L4765 12638
L4699 12572
L4659 12558
L4632 12558
L4593 12572
L4526 12638
L4513 12678
L4513 12704
L4526 12744
L4593 12810
L4632 12823
L4659 12823
" />
<path d="M4420 12267
L4235 12452
" />
<path d="M4593 12227
L4460 12492
L4288 12320
" />
<path d="M4354 12068
L4354 12041
L4341 12002
L4274 11935
L4235 11922
L4208 11922
L4168 11935
L4142 11962
L4115 12015
L4115 12333
L3943 12161
" />
<path d="M7434 5438
L7453 5457
L7509 5476
L7547 5476
L7603 5457
L7640 5419
L7659 5382
L7678 5307
L7678 5251
L7659 5176
L7640 5138
L7603 5101
L7547 5082
L7509 5082
L7453 5101
L7434 5119
" />
<path d="M7097 5082
L7172 5082
L7209 5101
L7228 5119
L7266 5176
L7284 5251
L7284 5401
L7266 5438
L7247 5457
L7209 5476
L7134 5476
L7097 5457
L7078 5438
L7059 5401
L7059 5307
L7078 5269
L7097 5251
L7134 5232
L7209 5232
L7247 5251
L7266 5269
L7284 5307
" />
<path d="M6816 5082
L6778 5082
L6741 5101
L6722 5119
L6703 5157
L6684 5232
L6684 5326
L6703 5401
L6722 5438
L6741 5457
L6778 5476
L6816 5476
L6853 5457
L6872 5438
L6891 5401
L6909 5326
L6909 5232
L6891 5157
L6872 5119
L6853 5101
L6816 5082
" />
<path d="M6534 5119
L6516 5101
L6478 5082
L6384 5082
L6347 5101
L6328 5119
L6309 5157
L6309 5194
L6328 5251
L6553 5476
L6309 5476
" />
<path d="M7474 6344
L7492 6362
L7549 6381
L7586 6381
L7642 6362
L7680 6325
L7699 6287
L7717 6212
L7717 6156
L7699 6081
L7680 6044
L7642 6006
L7586 5987
L7549 5987
L7492 6006
L7474 6025
" />
<path d="M7136 5987
L7211 5987
L7249 6006
L7267 6025
L7305 6081
L7324 6156
L7324 6306
L7305 6344
L7286 6362
L7249 6381
L7174 6381
L7136 6362
L7117 6344
L7099 6306
L7099 6212
L7117 6175
L7136 6156
L7174 6137
L7249 6137
L7286 6156
L7305 6175
L7324 6212
" />
<path d="M6724 6381
L6949 6381
" />
<path d="M6836 6381
L6836 5987
L6874 6044
L6911 6081
L6949 6100
" />
<path d="M6574 6025
L6555 6006
L6517 5987
L6424 5987
L6386 6006
L6368 6025
L6349 6062
L6349 6100
L6368 6156
L6592 6381
L6349 6381
" />
<path d="M28576 5714
L28595 5732
L28651 5751
L28688 5751
L28745 5732
L28782 5695
L28801 5657
L28820 5582
L28820 5526
L28801 5451
L28782 5414
L28745 5376
L28688 5358
L28651 5358
L28595 5376
L28576 5395
" />
<path d="M28445 5358
L28182 5358
L28351 5751
" />
<path d="M28051 5395
L28032 5376
L27995 5358
L27901 5358
L27864 5376
L27845 5395
L27826 5432
L27826 5470
L27845 5526
L28070 5751
L27826 5751
" />
<path d="M27676 5395
L27657 5376
L27620 5358
L27526 5358
L27489 5376
L27470 5395
L27451 5432
L27451 5470
L27470 5526
L27695 5751
L27451 5751
" />
<path d="M7434 7210
L7453 7229
L7509 7247
L7547 7247
L7603 7229
L7640 7191
L7659 7154
L7678 7079
L7678 7022
L7659 6947
L7640 6910
L7603 6872
L7547 6854
L7509 6854
L7453 6872
L7434 6891
" />
<path d="M7209 7022
L7247 7004
L7266 6985
L7284 6947
L7284 6929
L7266 6891
L7247 6872
L7209 6854
L7134 6854
L7097 6872
L7078 6891
L7059 6929
L7059 6947
L7078 6985
L7097 7004
L7134 7022
L7209 7022
L7247 7041
L7266 7060
L7284 7097
L7284 7172
L7266 7210
L7247 7229
L7209 7247
L7134 7247
L7097 7229
L7078 7210
L7059 7172
L7059 7097
L7078 7060
L7097 7041
L7134 7022
" />
<path d="M6928 6854
L6684 6854
L6816 7004
L6759 7004
L6722 7022
L6703 7041
L6684 7079
L6684 7172
L6703 7210
L6722 7229
L6759 7247
L6872 7247
L6909 7229
L6928 7210
" />
<path d="M6309 7247
L6534 7247
" />
<path d="M6422 7247
L6422 6854
L6459 6910
L6497 6947
L6534 6966
" />
<path d="M40871 16163
L40908 16144
L40946 16106
L41002 16050
L41039 16031
L41077 16031
" />
<path d="M41058 16125
L41096 16106
L41133 16069
L41152 15994
L41152 15863
L41133 15788
L41096 15750
L41058 15732
L40983 15732
L40946 15750
L40908 15788
L40889 15863
L40889 15994
L40908 16069
L40946 16106
L40983 16125
L41058 16125
" />
<path d="M40664 15900
L40702 15882
L40721 15863
L40739 15825
L40739 15807
L40721 15769
L40702 15750
L40664 15732
L40589 15732
L40552 15750
L40533 15769
L40514 15807
L40514 15825
L40533 15863
L40552 15882
L40589 15900
L40664 15900
L40702 15919
L40721 15938
L40739 15975
L40739 16050
L40721 16088
L40702 16106
L40664 16125
L40589 16125
L40552 16106
L40533 16088
L40514 16050
L40514 15975
L40533 15938
L40552 15919
L40589 15900
" />
<path d="M40140 16125
L40365 16125
" />
<path d="M40252 16125
L40252 15732
L40290 15788
L40327 15825
L40365 15844
" />
<path d="M39765 16125
L39990 16125
" />
<path d="M39877 16125
L39877 15732
L39915 15788
L39952 15825
L39990 15844
" />
<path d="M37957 8387
L37995 8368
L38032 8331
L38089 8275
L38126 8256
L38164 8256
" />
<path d="M38145 8350
L38182 8331
L38220 8293
L38239 8218
L38239 8087
L38220 8012
L38182 7975
L38145 7956
L38070 7956
L38032 7975
L37995 8012
L37976 8087
L37976 8218
L37995 8293
L38032 8331
L38070 8350
L38145 8350
" />
<path d="M37751 8125
L37789 8106
L37807 8087
L37826 8050
L37826 8031
L37807 7993
L37789 7975
L37751 7956
L37676 7956
L37639 7975
L37620 7993
L37601 8031
L37601 8050
L37620 8087
L37639 8106
L37676 8125
L37751 8125
L37789 8143
L37807 8162
L37826 8200
L37826 8275
L37807 8312
L37789 8331
L37751 8350
L37676 8350
L37639 8331
L37620 8312
L37601 8275
L37601 8200
L37620 8162
L37639 8143
L37676 8125
" />
<path d="M37451 7993
L37432 7975
L37395 7956
L37301 7956
L37264 7975
L37245 7993
L37226 8031
L37226 8068
L37245 8125
L37470 8350
L37226 8350
" />
<path d="M37076 7993
L37057 7975
L37020 7956
L36926 7956
L36889 7975
L36870 7993
L36851 8031
L36851 8068
L36870 8125
L37095 8350
L36851 8350
" />
<path d="M24534 6314
L24347 6182
" />
<path d="M24534 6089
L24140 6089
L24140 6239
L24159 6276
L24178 6295
L24215 6314
L24272 6314
L24309 6295
L24328 6276
L24347 6239
L24347 6089
" />
<path d="M24178 6464
L24159 6482
L24140 6520
L24140 6614
L24159 6651
L24178 6670
L24215 6689
L24253 6689
L24309 6670
L24534 6445
L24534 6689
" />
<path d="M24140 6932
L24140 6970
L24159 7007
L24178 7026
L24215 7045
L24290 7064
L24384 7064
L24459 7045
L24497 7026
L24515 7007
L24534 6970
L24534 6932
L24515 6895
L24497 6876
L24459 6857
L24384 6839
L24290 6839
L24215 6857
L24178 6876
L24159 6895
L24140 6932
" />
<path d="M24534 7438
L24534 7214
" />
<path d="M24534 7326
L24140 7326
L24197 7289
L24234 7251
L24253 7214
" />
<path d="M13117 11749
L13077 11524
" />
<path d="M13276 11590
L12997 11312
L12891 11418
L12878 11458
L12878 11484
L12891 11524
L12931 11564
L12971 11577
L12997 11577
L13037 11564
L13143 11458
" />
<path d="M12693 11802
L12878 11988
" />
<path d="M12653 11630
L12918 11762
L12746 11935
" />
<path d="M12401 11908
L12374 11935
L12361 11975
L12361 12001
L12374 12041
L12414 12107
L12480 12173
L12547 12213
L12586 12226
L12613 12226
L12653 12213
L12679 12187
L12693 12147
L12693 12120
L12679 12081
L12640 12014
L12573 11948
L12507 11908
L12467 11895
L12441 11895
L12401 11908
" />
<path d="M12321 12545
L12480 12385
" />
<path d="M12401 12465
L12123 12187
L12189 12200
L12242 12200
L12282 12187
" />
<path d="M12336 11191
L12296 10966
" />
<path d="M12495 11032
L12217 10754
L12111 10860
L12097 10900
L12097 10926
L12111 10966
L12151 11006
L12190 11019
L12217 11019
L12257 11006
L12363 10900
" />
<path d="M11912 11244
L12097 11430
" />
<path d="M11872 11072
L12137 11204
L11965 11377
" />
<path d="M11620 11350
L11594 11377
L11580 11417
L11580 11443
L11594 11483
L11634 11549
L11700 11615
L11766 11655
L11806 11668
L11832 11668
L11872 11655
L11899 11629
L11912 11589
L11912 11562
L11899 11523
L11859 11456
L11793 11390
L11726 11350
L11687 11337
L11660 11337
L11620 11350
" />
<path d="M11448 11576
L11421 11576
L11382 11589
L11315 11655
L11302 11695
L11302 11721
L11315 11761
L11342 11788
L11395 11814
L11713 11814
L11541 11987
" />
<path d="M5340 12203
L5566 12163
" />
<path d="M5499 12362
L5778 12084
L5672 11978
L5632 11965
L5606 11965
L5566 11978
L5526 12018
L5513 12057
L5513 12084
L5526 12124
L5632 12230
" />
<path d="M5287 11779
L5102 11965
" />
<path d="M5460 11739
L5327 12004
L5155 11832
" />
<path d="M5181 11487
L5155 11461
L5115 11448
L5089 11448
L5049 11461
L4982 11501
L4916 11567
L4876 11633
L4863 11673
L4863 11699
L4876 11739
L4903 11766
L4943 11779
L4969 11779
L5009 11766
L5075 11726
L5142 11660
L5181 11593
L5195 11554
L5195 11527
L5181 11487
" />
<path d="M4996 11302
L4823 11129
L4810 11328
L4770 11289
L4731 11275
L4704 11275
L4664 11289
L4598 11355
L4585 11395
L4585 11421
L4598 11461
L4678 11540
L4717 11554
L4744 11554
" />
<path d="M39147 13468
L39278 13280
" />
<path d="M39372 13468
L39372 13074
L39222 13074
L39184 13093
L39166 13112
L39147 13149
L39147 13205
L39166 13243
L39184 13262
L39222 13280
L39372 13280
" />
<path d="M38791 13074
L38978 13074
L38997 13262
L38978 13243
L38941 13224
L38847 13224
L38809 13243
L38791 13262
L38772 13299
L38772 13393
L38791 13430
L38809 13449
L38847 13468
L38941 13468
L38978 13449
L38997 13430
" />
<path d="M38397 13468
L38622 13468
" />
<path d="M38509 13468
L38509 13074
L38547 13130
L38584 13168
L38622 13187
" />
<path d="M38153 13074
L38116 13074
L38078 13093
L38059 13112
L38041 13149
L38022 13224
L38022 13318
L38041 13393
L38059 13430
L38078 13449
L38116 13468
L38153 13468
L38191 13449
L38209 13430
L38228 13393
L38247 13318
L38247 13224
L38228 13149
L38209 13112
L38191 13093
L38153 13074
" />
<path d="M39631 8171
L39591 7946
" />
<path d="M39790 8012
L39512 7734
L39406 7840
L39392 7880
L39392 7906
L39406 7946
L39446 7986
L39485 7999
L39512 7999
L39552 7986
L39658 7880
" />
<path d="M39101 8145
L39233 8012
L39379 8131
L39353 8131
L39313 8145
L39247 8211
L39233 8251
L39233 8277
L39247 8317
L39313 8383
L39353 8397
L39379 8397
L39419 8383
L39485 8317
L39499 8277
L39499 8251
" />
<path d="M39101 8702
L39260 8542
" />
<path d="M39180 8622
L38902 8344
L38968 8357
L39021 8357
L39061 8344
" />
<path d="M38743 8556
L38716 8556
L38677 8569
L38610 8635
L38597 8675
L38597 8702
L38610 8741
L38637 8768
L38690 8794
L39008 8794
L38836 8967
" />
<path d="M15741 13113
L15873 12926
" />
<path d="M15966 13113
L15966 12720
L15816 12720
L15779 12738
L15760 12757
L15741 12795
L15741 12851
L15760 12888
L15779 12907
L15816 12926
L15966 12926
" />
<path d="M15404 12720
L15479 12720
L15516 12738
L15535 12757
L15573 12813
L15591 12888
L15591 13038
L15573 13076
L15554 13095
L15516 13113
L15441 13113
L15404 13095
L15385 13076
L15366 13038
L15366 12945
L15385 12907
L15404 12888
L15441 12870
L15516 12870
L15554 12888
L15573 12907
L15591 12945
" />
<path d="M15123 12720
L15085 12720
L15048 12738
L15029 12757
L15010 12795
L14991 12870
L14991 12963
L15010 13038
L15029 13076
L15048 13095
L15085 13113
L15123 13113
L15160 13095
L15179 13076
L15198 13038
L15216 12963
L15216 12870
L15198 12795
L15179 12757
L15160 12738
L15123 12720
" />
<path d="M14841 12757
L14823 12738
L14785 12720
L14691 12720
L14654 12738
L14635 12757
L14616 12795
L14616 12832
L14635 12888
L14860 13113
L14616 13113
" />
<path d="M11064 2145
L11195 1957
" />
<path d="M11289 2145
L11289 1751
L11139 1751
L11102 1770
L11083 1789
L11064 1826
L11064 1882
L11083 1920
L11102 1939
L11139 1957
L11289 1957
" />
<path d="M10933 1751
L10670 1751
L10839 2145
" />
<path d="M10314 2145
L10539 2145
" />
<path d="M10427 2145
L10427 1751
L10464 1807
L10502 1845
L10539 1864
" />
<path d="M9939 2145
L10164 2145
" />
<path d="M10052 2145
L10052 1751
L10089 1807
L10127 1845
L10164 1864
" />
<path d="M8152 1794
L7965 1663
" />
<path d="M8152 1569
L7758 1569
L7758 1719
L7777 1756
L7796 1775
L7833 1794
L7890 1794
L7927 1775
L7946 1756
L7965 1719
L7965 1569
" />
<path d="M7758 1925
L7758 2188
L8152 2019
" />
<path d="M8152 2544
L8152 2319
" />
<path d="M8152 2431
L7758 2431
L7815 2394
L7852 2356
L7871 2319
" />
<path d="M7796 2694
L7777 2713
L7758 2750
L7758 2844
L7777 2881
L7796 2900
L7833 2919
L7871 2919
L7927 2900
L8152 2675
L8152 2919
" />
<path d="M9127 3700
L9258 3513
" />
<path d="M9352 3700
L9352 3306
L9202 3306
L9165 3325
L9146 3344
L9127 3381
L9127 3438
L9146 3475
L9165 3494
L9202 3513
L9352 3513
" />
<path d="M8996 3306
L8733 3306
L8902 3700
" />
<path d="M8377 3700
L8602 3700
" />
<path d="M8490 3700
L8490 3306
L8527 3363
L8565 3400
L8602 3419
" />
<path d="M8040 3438
L8040 3700
" />
<path d="M8134 3288
L8227 3569
L7984 3569
" />
<path d="M26896 5369
L26709 5238
" />
<path d="M26896 5144
L26502 5144
L26502 5294
L26521 5331
L26540 5350
L26577 5369
L26634 5369
L26671 5350
L26690 5331
L26709 5294
L26709 5144
" />
<path d="M26502 5500
L26502 5762
L26896 5594
" />
<path d="M26540 5894
L26521 5912
L26502 5950
L26502 6044
L26521 6081
L26540 6100
L26577 6119
L26615 6119
L26671 6100
L26896 5875
L26896 6119
" />
<path d="M26896 6494
L26896 6269
" />
<path d="M26896 6381
L26502 6381
L26559 6344
L26596 6306
L26615 6269
" />
<path d="M28733 6854
L28865 6666
" />
<path d="M28958 6854
L28958 6460
L28808 6460
L28771 6479
L28752 6497
L28733 6535
L28733 6591
L28752 6629
L28771 6647
L28808 6666
L28958 6666
" />
<path d="M28602 6460
L28340 6460
L28508 6854
" />
<path d="M28209 6497
L28190 6479
L28152 6460
L28059 6460
L28021 6479
L28002 6497
L27984 6535
L27984 6572
L28002 6629
L28227 6854
L27984 6854
" />
<path d="M27834 6497
L27815 6479
L27777 6460
L27684 6460
L27646 6479
L27627 6497
L27609 6535
L27609 6572
L27627 6629
L27852 6854
L27609 6854
" />
<path d="M42080 14924
L42211 14737
" />
<path d="M42305 14924
L42305 14531
L42155 14531
L42117 14549
L42099 14568
L42080 14606
L42080 14662
L42099 14699
L42117 14718
L42155 14737
L42305 14737
" />
<path d="M41855 14699
L41892 14681
L41911 14662
L41930 14624
L41930 14606
L41911 14568
L41892 14549
L41855 14531
L41780 14531
L41742 14549
L41724 14568
L41705 14606
L41705 14624
L41724 14662
L41742 14681
L41780 14699
L41855 14699
L41892 14718
L41911 14737
L41930 14774
L41930 14849
L41911 14887
L41892 14906
L41855 14924
L41780 14924
L41742 14906
L41724 14887
L41705 14849
L41705 14774
L41724 14737
L41742 14718
L41780 14699
" />
<path d="M41330 14924
L41555 14924
" />
<path d="M41443 14924
L41443 14531
L41480 14587
L41517 14624
L41555 14643
" />
<path d="M41086 14531
L41049 14531
L41011 14549
L40993 14568
L40974 14606
L40955 14681
L40955 14774
L40974 14849
L40993 14887
L41011 14906
L41049 14924
L41086 14924
L41124 14906
L41143 14887
L41161 14849
L41180 14774
L41180 14681
L41161 14606
L41143 14568
L41124 14549
L41086 14531
" />
<path d="M16242 7203
L16373 7016
" />
<path d="M16467 7203
L16467 6809
L16317 6809
L16279 6828
L16260 6847
L16242 6884
L16242 6941
L16260 6978
L16279 6997
L16317 7016
L16467 7016
" />
<path d="M16017 6978
L16054 6959
L16073 6941
L16092 6903
L16092 6884
L16073 6847
L16054 6828
L16017 6809
L15942 6809
L15904 6828
L15885 6847
L15867 6884
L15867 6903
L15885 6941
L15904 6959
L15942 6978
L16017 6978
L16054 6997
L16073 7016
L16092 7053
L16092 7128
L16073 7166
L16054 7184
L16017 7203
L15942 7203
L15904 7184
L15885 7166
L15867 7128
L15867 7053
L15885 7016
L15904 6997
L15942 6978
" />
<path d="M15492 7203
L15717 7203
" />
<path d="M15604 7203
L15604 6809
L15642 6866
L15679 6903
L15717 6922
" />
<path d="M15117 7203
L15342 7203
" />
<path d="M15229 7203
L15229 6809
L15267 6866
L15304 6903
L15342 6922
" />
<path d="M17985 7720
L18117 7532
" />
<path d="M18210 7720
L18210 7326
L18060 7326
L18023 7345
L18004 7364
L17985 7401
L17985 7457
L18004 7495
L18023 7513
L18060 7532
L18210 7532
" />
<path d="M17760 7495
L17798 7476
L17817 7457
L17835 7420
L17835 7401
L17817 7364
L17798 7345
L17760 7326
L17685 7326
L17648 7345
L17629 7364
L17610 7401
L17610 7420
L17629 7457
L17648 7476
L17685 7495
L17760 7495
L17798 7513
L17817 7532
L17835 7570
L17835 7645
L17817 7682
L17798 7701
L17760 7720
L17685 7720
L17648 7701
L17629 7682
L17610 7645
L17610 7570
L17629 7532
L17648 7513
L17685 7495
" />
<path d="M17461 7364
L17442 7345
L17404 7326
L17311 7326
L17273 7345
L17254 7364
L17236 7401
L17236 7438
L17254 7495
L17479 7720
L17236 7720
" />
<path d="M16861 7720
L17086 7720
" />
<path d="M16973 7720
L16973 7326
L17011 7382
L17048 7420
L17086 7438
" />
<path d="M34778 4162
L35097 4162
L35134 4181
L35153 4199
L35172 4237
L35172 4312
L35153 4349
L35134 4368
L35097 4387
L34778 4387
" />
<path d="M34778 4762
L34778 4574
L34966 4556
L34947 4574
L34928 4612
L34928 4706
L34947 4743
L34966 4762
L35003 4781
L35097 4781
L35134 4762
L35153 4743
L35172 4706
L35172 4612
L35153 4574
L35134 4556
" />
<path d="M34778 5024
L34778 5062
L34797 5099
L34816 5118
L34853 5137
L34928 5156
L35022 5156
L35097 5137
L35134 5118
L35153 5099
L35172 5062
L35172 5024
L35153 4987
L35134 4968
L35097 4949
L35022 4931
L34928 4931
L34853 4949
L34816 4968
L34797 4987
L34778 5024
" />
<path d="M34778 5399
L34778 5437
L34797 5474
L34816 5493
L34853 5512
L34928 5531
L35022 5531
L35097 5512
L35134 5493
L35153 5474
L35172 5437
L35172 5399
L35153 5362
L35134 5343
L35097 5324
L35022 5306
L34928 5306
L34853 5324
L34816 5343
L34797 5362
L34778 5399
" />
<path d="M40464 12129
L40464 12448
L40445 12485
L40426 12504
L40389 12523
L40314 12523
L40276 12504
L40258 12485
L40239 12448
L40239 12129
" />
<path d="M39864 12129
L40051 12129
L40070 12317
L40051 12298
L40014 12279
L39920 12279
L39883 12298
L39864 12317
L39845 12354
L39845 12448
L39864 12485
L39883 12504
L39920 12523
L40014 12523
L40051 12504
L40070 12485
" />
<path d="M39470 12523
L39695 12523
" />
<path d="M39583 12523
L39583 12129
L39620 12185
L39658 12223
L39695 12242
" />
<path d="M39227 12129
L39189 12129
L39152 12148
L39133 12167
L39114 12204
L39095 12279
L39095 12373
L39114 12448
L39133 12485
L39152 12504
L39189 12523
L39227 12523
L39264 12504
L39283 12485
L39302 12448
L39320 12373
L39320 12279
L39302 12204
L39283 12167
L39264 12148
L39227 12129
" />
<path d="M9771 2232
L9771 2550
L9752 2588
L9733 2606
L9696 2625
L9621 2625
L9583 2606
L9565 2588
L9546 2550
L9546 2232
" />
<path d="M9396 2232
L9134 2232
L9302 2625
" />
<path d="M8777 2625
L9002 2625
" />
<path d="M8890 2625
L8890 2232
L8927 2288
L8965 2325
L9002 2344
" />
<path d="M8421 2232
L8609 2232
L8627 2419
L8609 2400
L8571 2382
L8477 2382
L8440 2400
L8421 2419
L8402 2456
L8402 2550
L8421 2588
L8440 2606
L8477 2625
L8571 2625
L8609 2606
L8627 2588
" />
<path d="M9085 13554
L8822 13948
" />
<path d="M8822 13554
L9085 13948
" />
<path d="M8466 13948
L8691 13948
" />
<path d="M8578 13948
L8578 13554
L8616 13611
L8653 13648
L8691 13667
" />
<path d="M8222 13554
L8185 13554
L8147 13573
L8128 13592
L8110 13629
L8091 13704
L8091 13798
L8110 13873
L8128 13911
L8147 13929
L8185 13948
L8222 13948
L8260 13929
L8278 13911
L8297 13873
L8316 13798
L8316 13704
L8297 13629
L8278 13592
L8260 13573
L8222 13554
" />
<path d="M7753 13686
L7753 13948
" />
<path d="M7847 13536
L7941 13817
L7697 13817
" />
<path d="M6641 7564
L6641 7590
L6668 7644
L6694 7670
L6747 7697
L6800 7697
L6840 7683
L6906 7644
L6946 7604
L6986 7537
L6999 7498
L6999 7445
L6973 7392
L6946 7365
L6893 7339
L6866 7339
" />
<path d="M6349 7325
L6509 7484
" />
<path d="M6429 7405
L6707 7127
L6694 7193
L6694 7246
L6707 7286
" />
<path d="M6456 6875
L6429 6848
L6389 6835
L6363 6835
L6323 6848
L6257 6888
L6190 6954
L6151 7020
L6137 7060
L6137 7087
L6151 7127
L6177 7153
L6217 7166
L6243 7166
L6283 7153
L6349 7113
L6416 7047
L6456 6981
L6469 6941
L6469 6914
L6456 6875
" />
<path d="M6124 6543
L6177 6596
L6190 6636
L6190 6663
L6177 6729
L6137 6795
L6031 6901
L5992 6914
L5965 6914
L5925 6901
L5872 6848
L5859 6808
L5859 6782
L5872 6742
L5939 6676
L5978 6663
L6005 6663
L6045 6676
L6098 6729
L6111 6769
L6111 6795
L6098 6835
" />
<path d="M4796 6344
L4815 6362
L4871 6381
L4909 6381
L4965 6362
L5003 6325
L5021 6287
L5040 6212
L5040 6156
L5021 6081
L5003 6044
L4965 6006
L4909 5987
L4871 5987
L4815 6006
L4796 6025
" />
<path d="M4422 6381
L4646 6381
" />
<path d="M4534 6381
L4534 5987
L4571 6044
L4609 6081
L4646 6100
" />
<path d="M4178 5987
L4140 5987
L4103 6006
L4084 6025
L4065 6062
L4047 6137
L4047 6231
L4065 6306
L4084 6344
L4103 6362
L4140 6381
L4178 6381
L4215 6362
L4234 6344
L4253 6306
L4272 6231
L4272 6137
L4253 6062
L4234 6025
L4215 6006
L4178 5987
" />
<path d="M3915 5987
L3653 5987
L3822 6381
" />
<path d="M7395 3627
L7414 3646
L7470 3665
L7507 3665
L7564 3646
L7601 3608
L7620 3571
L7639 3496
L7639 3440
L7620 3365
L7601 3327
L7564 3290
L7507 3271
L7470 3271
L7414 3290
L7395 3308
" />
<path d="M7020 3665
L7245 3665
" />
<path d="M7132 3665
L7132 3271
L7170 3327
L7207 3365
L7245 3383
" />
<path d="M6776 3271
L6739 3271
L6701 3290
L6682 3308
L6664 3346
L6645 3421
L6645 3515
L6664 3590
L6682 3627
L6701 3646
L6739 3665
L6776 3665
L6814 3646
L6832 3627
L6851 3590
L6870 3515
L6870 3421
L6851 3346
L6832 3308
L6814 3290
L6776 3271
" />
<path d="M6420 3440
L6458 3421
L6476 3402
L6495 3365
L6495 3346
L6476 3308
L6458 3290
L6420 3271
L6345 3271
L6308 3290
L6289 3308
L6270 3346
L6270 3365
L6289 3402
L6308 3421
L6345 3440
L6420 3440
L6458 3458
L6476 3477
L6495 3515
L6495 3590
L6476 3627
L6458 3646
L6420 3665
L6345 3665
L6308 3646
L6289 3627
L6270 3590
L6270 3515
L6289 3477
L6308 3458
L6345 3440
" />
<path d="M15481 8597
L15500 8578
L15518 8522
L15518 8485
L15500 8428
L15462 8391
L15425 8372
L15350 8353
L15293 8353
L15218 8372
L15181 8391
L15143 8428
L15125 8485
L15125 8522
L15143 8578
L15162 8597
" />
<path d="M15518 8972
L15518 8747
" />
<path d="M15518 8860
L15125 8860
L15181 8822
L15218 8785
L15237 8747
" />
<path d="M15125 9216
L15125 9253
L15143 9291
L15162 9310
L15200 9328
L15275 9347
L15368 9347
L15443 9328
L15481 9310
L15500 9291
L15518 9253
L15518 9216
L15500 9178
L15481 9160
L15443 9141
L15368 9122
L15275 9122
L15200 9141
L15162 9160
L15143 9178
L15125 9216
" />
<path d="M15518 9534
L15518 9609
L15500 9647
L15481 9666
L15425 9703
L15350 9722
L15200 9722
L15162 9703
L15143 9684
L15125 9647
L15125 9572
L15143 9534
L15162 9516
L15200 9497
L15293 9497
L15331 9516
L15350 9534
L15368 9572
L15368 9647
L15350 9684
L15331 9703
L15293 9722
" />
<path d="M11056 4058
L11188 3871
" />
<path d="M11281 4058
L11281 3665
L11131 3665
L11094 3683
L11075 3702
L11056 3740
L11056 3796
L11075 3833
L11094 3852
L11131 3871
L11281 3871
" />
<path d="M10925 3665
L10663 3665
L10831 4058
" />
<path d="M10306 4058
L10531 4058
" />
<path d="M10419 4058
L10419 3665
L10456 3721
L10494 3758
L10531 3777
" />
<path d="M10175 3665
L9931 3665
L10063 3815
L10006 3815
L9969 3833
L9950 3852
L9931 3890
L9931 3983
L9950 4021
L9969 4040
L10006 4058
L10119 4058
L10156 4040
L10175 4021
" />
<path d="M33353 5329
L33165 5198
" />
<path d="M33353 5104
L32959 5104
L32959 5254
L32978 5292
L32997 5311
L33034 5329
L33090 5329
L33128 5311
L33147 5292
L33165 5254
L33165 5104
" />
<path d="M32959 5686
L32959 5498
L33147 5479
L33128 5498
L33109 5536
L33109 5629
L33128 5667
L33147 5686
L33184 5704
L33278 5704
L33315 5686
L33334 5667
L33353 5629
L33353 5536
L33334 5498
L33315 5479
" />
<path d="M32959 5948
L32959 5986
L32978 6023
L32997 6042
L33034 6061
L33109 6079
L33203 6079
L33278 6061
L33315 6042
L33334 6023
L33353 5986
L33353 5948
L33334 5911
L33315 5892
L33278 5873
L33203 5854
L33109 5854
L33034 5873
L32997 5892
L32978 5911
L32959 5948
" />
<path d="M33353 6454
L33353 6229
" />
<path d="M33353 6342
L32959 6342
L33015 6304
L33053 6267
L33072 6229
" />
<path d="M32447 5329
L32260 5198
" />
<path d="M32447 5104
L32054 5104
L32054 5254
L32072 5292
L32091 5311
L32129 5329
L32185 5329
L32222 5311
L32241 5292
L32260 5254
L32260 5104
" />
<path d="M32054 5686
L32054 5498
L32241 5479
L32222 5498
L32204 5536
L32204 5629
L32222 5667
L32241 5686
L32279 5704
L32372 5704
L32410 5686
L32429 5667
L32447 5629
L32447 5536
L32429 5498
L32410 5479
" />
<path d="M32054 5948
L32054 5986
L32072 6023
L32091 6042
L32129 6061
L32204 6079
L32297 6079
L32372 6061
L32410 6042
L32429 6023
L32447 5986
L32447 5948
L32429 5911
L32410 5892
L32372 5873
L32297 5854
L32204 5854
L32129 5873
L32091 5892
L32072 5911
L32054 5948
" />
<path d="M32091 6229
L32072 6248
L32054 6286
L32054 6379
L32072 6417
L32091 6435
L32129 6454
L32166 6454
L32222 6435
L32447 6211
L32447 6454
" />
<path d="M41647 9019
L41778 8831
" />
<path d="M41872 9019
L41872 8625
L41722 8625
L41684 8644
L41666 8663
L41647 8700
L41647 8756
L41666 8794
L41684 8813
L41722 8831
L41872 8831
" />
<path d="M41291 8625
L41478 8625
L41497 8813
L41478 8794
L41441 8775
L41347 8775
L41309 8794
L41291 8813
L41272 8850
L41272 8944
L41291 8981
L41309 9000
L41347 9019
L41441 9019
L41478 9000
L41497 8981
" />
<path d="M40897 9019
L41122 9019
" />
<path d="M41009 9019
L41009 8625
L41047 8681
L41084 8719
L41122 8738
" />
<path d="M40766 8625
L40522 8625
L40653 8775
L40597 8775
L40559 8794
L40541 8813
L40522 8850
L40522 8944
L40541 8981
L40559 9000
L40597 9019
L40709 9019
L40747 9000
L40766 8981
" />
<path d="M40704 6321
L40704 7109
" />
<path d="M41551 7109
L41551 6321
" />
<path d="M12745 12637
L13301 12080
" />
<path d="M13872 12651
L13315 13208
" />
<path d="M15183 10386
L14395 10386
" />
<path d="M14395 11233
L15183 11233
" />
<path d="M38784 16045
L38784 16026
" />
<path d="M39060 14943
L38784 14943
" />
<path d="M38784 14943
L38784 15041
" />
<path d="M38784 16045
L38784 16124
" />
<path d="M38784 16124
L39060 16124
" />
<path d="M37860 14677
L37072 14677
" />
<path d="M37072 15524
L37860 15524
" />
<path d="M38273 10229
L37486 10229
" />
<path d="M37486 11075
L38273 11075
" />
<path d="M39690 6872
L39690 6853
" />
<path d="M39966 5770
L39690 5770
" />
<path d="M39690 5770
L39690 5868
" />
<path d="M39690 6872
L39690 6951
" />
<path d="M39690 6951
L39966 6951
" />
<path d="M39120 10170
L39907 10170
" />
<path d="M39907 9323
L39120 9323
" />
<path d="M35576 6321
L34395 6321
" />
<path d="M35576 5612
L34395 5612
" />
<path d="M38805 13880
L39986 13880
" />
<path d="M38805 14589
L39986 14589
" />
<path d="M22191 3998
L23372 3998
" />
<path d="M22191 4707
L23372 4707
" />
</g>
<g style="fill:#000000; fill-opacity:0.0; 
stroke:#000000; stroke-width:59; stroke-opacity:1; 
stroke-linecap:round; stroke-linejoin:round;">
<path d="M10480 10511
L10480 10399
" />
<path d="M10425 10344
L10425 10566
" />
<path d="M10369 10622
L10369 10288
" />
<path d="M10313 10678
L10536 10455
" />
<path d="M10536 10455
L10313 10232
" />
<path d="M10313 10232
L10313 10678
" />
<path d="M8031 12515
L8254 12738
" />
<path d="M8254 12738
L8476 12515
" />
<path d="M6194 10232
L5971 10455
" />
<path d="M5971 10455
L6194 10678
" />
<path d="M8476 8395
L8254 8172
" />
<path d="M8254 8172
L8031 8395
" />
</g>
<g style="fill:#000000; fill-opacity:0.0; 
stroke:#000000; stroke-width:50; stroke-opacity:1; 
stroke-linecap:round; stroke-linejoin:round;">
<circle cx="9597.53" cy="10455.5" r="111.804" /> 
<path d="M8147 12329
L8360 12329
" />
<path d="M8360 12329
L10127 10561
" />
<path d="M10127 10561
L10127 10349
" />
<path d="M10127 10349
L8360 8581
" />
<path d="M8360 8581
L8147 8581
" />
<path d="M8147 8581
L6380 10349
" />
<path d="M6380 10349
L6380 10561
" />
<path d="M6380 10561
L8147 12329
" />
</g>
<g style="fill:#000000; fill-opacity:0.0; 
stroke:#000000; stroke-width:59.0551; stroke-opacity:1; 
stroke-linecap:round; stroke-linejoin:round;">
<path d="M5215 9601
L4658 9045
" />
<path d="M5229 8474
L5786 9031
" />
<path d="M10308 12293
L10865 12850
" />
<path d="M10294 13420
L9737 12864
" />
<path d="M9750 17788
L8962 17788
" />
<path d="M8962 16981
L9750 16981
" />
<path d="M7112 16981
L7899 16981
" />
<path d="M7899 17788
L7112 17788
" />
<path d="M11521 13437
L12309 13437
" />
<path d="M12309 14244
L11521 14244
" />
<path d="M4540 14031
L5097 13474
" />
<path d="M5668 14045
L5111 14601
" />
<path d="M31689 4904
L31689 5691
" />
<path d="M30881 5691
L30881 4904
" />
<path d="M32407 4177
L33194 4177
" />
<path d="M33194 4985
L32407 4985
" />
<path d="M37505 11941
L38293 11941
" />
<path d="M38293 12748
L37505 12748
" />
<path d="M39986 11095
L39198 11095
" />
<path d="M39198 10288
L39986 10288
" />
<path d="M40065 12847
L40852 12847
" />
<path d="M40852 13654
L40065 13654
" />
<path d="M21403 3083
L22191 3083
" />
<path d="M22191 3890
L21403 3890
" />
<path d="M4546 13027
L3989 12470
" />
<path d="M4560 11899
L5116 12456
" />
<path d="M6561 4894
L7348 4894
" />
<path d="M7348 5701
L6561 5701
" />
<path d="M7348 6607
L6561 6607
" />
<path d="M6561 5799
L7348 5799
" />
<path d="M27820 5209
L28608 5209
" />
<path d="M28608 6016
L27820 6016
" />
<path d="M6561 6705
L7348 6705
" />
<path d="M7348 7512
L6561 7512
" />
<path d="M40163 16498
L40163 16479
" />
<path d="M40439 15396
L40163 15396
" />
<path d="M40163 15396
L40163 15494
" />
<path d="M40163 16498
L40163 16577
" />
<path d="M40163 16577
L40439 16577
" />
<path d="M37289 8683
L37289 8664
" />
<path d="M37565 7581
L37289 7581
" />
<path d="M37289 7581
L37289 7679
" />
<path d="M37289 8683
L37289 8762
" />
<path d="M37289 8762
L37565 8762
" />
<path d="M24779 7187
L24779 6400
" />
<path d="M23933 6400
L23933 7187
" />
<path d="M12603 11413
L12046 11970
" />
<path d="M12644 12568
L13201 12011
" />
<path d="M11933 10743
L11377 11300
" />
<path d="M11975 11899
L12532 11342
" />
<path d="M5760 11773
L5204 11216
" />
<path d="M4605 11814
L5162 12371
" />
<path d="M38313 13713
L39100 13713
" />
<path d="M39100 12866
L38313 12866
" />
<path d="M39256 7751
L38699 8308
" />
<path d="M39298 8907
L39855 8350
" />
<path d="M14789 13319
L15576 13319
" />
<path d="M15576 12473
L14789 12473
" />
<path d="M10222 2453
L11009 2453
" />
<path d="M11009 1607
L10222 1607
" />
<path d="M8350 2735
L8350 1947
" />
<path d="M7504 1947
L7504 2735
" />
<path d="M8254 4067
L9041 4067
" />
<path d="M9041 3221
L8254 3221
" />
<path d="M27181 6242
L27181 5455
" />
<path d="M26334 5455
L26334 6242
" />
<path d="M27820 7099
L28608 7099
" />
<path d="M28608 6252
L27820 6252
" />
<path d="M41206 15130
L41994 15130
" />
<path d="M41994 14284
L41206 14284
" />
<path d="M15380 7532
L16167 7532
" />
<path d="M16167 6685
L15380 6685
" />
<path d="M17939 7079
L17151 7079
" />
<path d="M17151 7925
L17939 7925
" />
<circle cx="34600.5" cy="4207.46" r="39.3701" /> 
<path d="M34383 4305
L34580 4305
" />
<path d="M34383 5447
L34383 4305
" />
<path d="M34580 5447
L34383 5447
" />
<path d="M34580 4305
L34580 5447
" />
<circle cx="40380" cy="12069.7" r="39.3701" /> 
<path d="M40281 11853
L40281 12049
" />
<path d="M39139 11853
L40281 11853
" />
<path d="M39139 12049
L39139 11853
" />
<path d="M40281 12049
L39139 12049
" />
<path d="M9313 1944
L9313 1963
" />
<path d="M9037 3045
L9313 3045
" />
<path d="M9313 3045
L9313 2947
" />
<path d="M9313 1944
L9313 1865
" />
<path d="M9313 1865
L9037 1865
" />
<path d="M10694 16754
L6088 16754
" />
<path d="M6088 14786
L10694 14786
" />
<path d="M6088 16754
L6088 16420
" />
<path d="M6088 14786
L6088 15120
" />
<path d="M10694 16754
L10694 16420
" />
<path d="M10694 14786
L10694 15120
" />
</g>
<g style="fill:#000000; fill-opacity:0.0; 
stroke:#000000; stroke-width:47.2441; stroke-opacity:1; 
stroke-linecap:round; stroke-linejoin:round;">
<path d="M5796 7230
L6352 7786
" />
<path d="M5782 8357
L5225 7800
" />
<path d="M3962 6705
L4750 6705
" />
<path d="M4750 7512
L3962 7512
" />
<path d="M6561 3988
L7348 3988
" />
<path d="M7348 4796
L6561 4796
" />
<path d="M15842 9431
L15842 8644
" />
<path d="M16649 8644
L16649 9431
" />
</g>
<g style="fill:#000000; fill-opacity:0.0; 
stroke:#000000; stroke-width:59.0551; stroke-opacity:1; 
stroke-linecap:round; stroke-linejoin:round;">
<path d="M11009 2551
L10222 2551
" />
<path d="M10222 3398
L11009 3398
" />
<path d="M31846 5376
L31846 6164
" />
<path d="M32693 6164
L32693 5376
" />
<path d="M33598 6164
L33598 5376
" />
<path d="M32752 5376
L32752 6164
" />
<path d="M40813 10170
L41600 10170
" />
<path d="M41600 9323
L40813 9323
" />
</g> 
</svg>
