<?xml version="1.0" standalone="no"?>
 <!DOCTYPE svg PUBLIC "-//W3C//DTD SVG 1.1//EN" 
 "http://www.w3.org/Graphics/SVG/1.1/DTD/svg11.dtd"> 
<svg xmlns="http://www.w3.org/2000/svg" version="1.1" 
    width="11.4706cm" height="5.18414cm" viewBox="0 0 45160 20410 ">
<title>SVG Picture created as proto_trapapoul4-F.SilkS.svg date 2017/04/03 21:15:02 </title>
  <desc>Picture generated by PCBNEW </desc>
<g style="fill:#000000; fill-opacity:1;stroke:#000000; stroke-opacity:1;
stroke-linecap:round; stroke-linejoin:round; "
 transform="translate(0 0) scale(1 1)">
</g>
<g style="fill:#000000; fill-opacity:0.0; 
stroke:#000000; stroke-width:-0.000393701; stroke-opacity:1; 
stroke-linecap:round; stroke-linejoin:round;">
</g>
<g style="fill:#000000; fill-opacity:0.0; 
stroke:#000000; stroke-width:39.3701; stroke-opacity:1; 
stroke-linecap:round; stroke-linejoin:round;">
<circle cx="10931.2" cy="6085.42" r="1574.8" /> 
<path d="M1856 764
L42013 764
" />
<path d="M43564.5 2070.46 A787.402 787.402 0.0 0 0 43999.9 2642.2 " />
<path d="M43999 2642
L44322 2796
" />
<path d="M44769.8 3506.17 A787.402 787.402 0.0 0 0 44322.1 2796.35 " />
<path d="M44353.3 17193.4 A787.402 787.402 0.0 0 0 44769.8 16498.8 " />
<path d="M44352 17193
L44005 17378
" />
<path d="M44005.2 17379 A787.402 787.402 0.0 0 0 43588.7 18073.6 " />
<path d="M281 18087
L281 2339
" />
<path d="M281.59 18087.5 A1574.8 1574.8 0.0 0 0 1856.39 19662.3 " />
<path d="M1856.39 764.641 A1574.8 1574.8 0.0 0 0 281.59 2339.44 " />
<path d="M17998.1 9426.06 A393.701 393.701 0.0 0 0 17604.4 9819.76 " />
<path d="M17604 16118
L17604 9819
" />
<path d="M17604.4 16119 A393.701 393.701 0.0 0 0 17998.1 16512.7 " />
<path d="M42013 19662
L1856 19662
" />
<path d="M35714.7 16512.7 A393.701 393.701 0.0 0 0 36108.4 16119 " />
<path d="M36108 9819
L36108 16118
" />
<path d="M36108.4 9819.07 A393.701 393.701 0.0 0 0 35714.7 9426.06 " />
<path d="M17998 9426
L35714 9426
" />
<path d="M43564.3 2063.28 A1574.8 1574.8 0.0 0 0 42013.9 764.641 " />
<path d="M44769 3500
L44769 16492
" />
<path d="M42013.9 19662.3 A1574.8 1574.8 0.0 0 0 43588.7 18087.5 " />
<path d="M17998 16512
L35714 16512
" />
</g>
<g style="fill:#000000; fill-opacity:0.0; 
stroke:#000000; stroke-width:59.0551; stroke-opacity:1; 
stroke-linecap:round; stroke-linejoin:round;">
<path d="M33278 6896
L33597 6896
L33635 6877
L33653 6859
L33672 6821
L33672 6746
L33653 6709
L33635 6690
L33597 6671
L33278 6671
" />
<path d="M33672 6465
L33672 6390
L33653 6352
L33635 6334
L33578 6296
L33503 6277
L33353 6277
L33316 6296
L33297 6315
L33278 6352
L33278 6427
L33297 6465
L33316 6484
L33353 6502
L33447 6502
L33485 6484
L33503 6465
L33522 6427
L33522 6352
L33503 6315
L33485 6296
L33447 6277
" />
<path d="M33278 6034
L33278 5996
L33297 5959
L33316 5940
L33353 5921
L33428 5902
L33522 5902
L33597 5921
L33635 5940
L33653 5959
L33672 5996
L33672 6034
L33653 6071
L33635 6090
L33597 6109
L33522 6127
L33428 6127
L33353 6109
L33316 6090
L33297 6071
L33278 6034
" />
<path d="M33278 5659
L33278 5621
L33297 5584
L33316 5565
L33353 5546
L33428 5527
L33522 5527
L33597 5546
L33635 5565
L33653 5584
L33672 5621
L33672 5659
L33653 5696
L33635 5715
L33597 5734
L33522 5752
L33428 5752
L33353 5734
L33316 5715
L33297 5696
L33278 5659
" />
<path d="M29112 1877
L28981 1690
" />
<path d="M28887 1877
L28887 1483
L29037 1483
L29075 1502
L29093 1521
L29112 1558
L29112 1615
L29093 1652
L29075 1671
L29037 1690
L28887 1690
" />
<path d="M29243 1483
L29506 1483
L29337 1877
" />
<path d="M29618 1483
L29862 1483
L29731 1633
L29787 1633
L29825 1652
L29843 1671
L29862 1708
L29862 1802
L29843 1840
L29825 1858
L29787 1877
L29675 1877
L29637 1858
L29618 1840
" />
<path d="M30012 1521
L30031 1502
L30068 1483
L30162 1483
L30200 1502
L30218 1521
L30237 1558
L30237 1596
L30218 1652
L29993 1877
L30237 1877
" />
<path d="M41041 15948
L40910 15761
" />
<path d="M40816 15948
L40816 15554
L40966 15554
L41004 15573
L41023 15592
L41041 15629
L41041 15686
L41023 15723
L41004 15742
L40966 15761
L40816 15761
" />
<path d="M41266 15723
L41229 15704
L41210 15686
L41191 15648
L41191 15629
L41210 15592
L41229 15573
L41266 15554
L41341 15554
L41379 15573
L41398 15592
L41416 15629
L41416 15648
L41398 15686
L41379 15704
L41341 15723
L41266 15723
L41229 15742
L41210 15761
L41191 15798
L41191 15873
L41210 15911
L41229 15929
L41266 15948
L41341 15948
L41379 15929
L41398 15911
L41416 15873
L41416 15798
L41398 15761
L41379 15742
L41341 15723
" />
<path d="M41547 15554
L41791 15554
L41660 15704
L41716 15704
L41754 15723
L41772 15742
L41791 15779
L41791 15873
L41772 15911
L41754 15929
L41716 15948
L41604 15948
L41566 15929
L41547 15911
" />
<path d="M42147 15554
L41960 15554
L41941 15742
L41960 15723
L41997 15704
L42091 15704
L42129 15723
L42147 15742
L42166 15779
L42166 15873
L42147 15911
L42129 15929
L42091 15948
L41997 15948
L41960 15929
L41941 15911
" />
<path d="M34792 2302
L34792 1909
" />
<path d="M34792 2096
L35017 2096
" />
<path d="M35017 2302
L35017 1909
" />
<path d="M35373 2040
L35373 2302
" />
<path d="M35280 1890
L35186 2171
L35430 2171
" />
<path d="M38276 14833
L38295 14851
L38314 14908
L38314 14945
L38295 15001
L38257 15039
L38220 15058
L38145 15076
L38089 15076
L38014 15058
L37976 15039
L37939 15001
L37920 14945
L37920 14908
L37939 14851
L37957 14833
" />
<path d="M37920 14476
L37920 14664
L38107 14683
L38089 14664
L38070 14626
L38070 14533
L38089 14495
L38107 14476
L38145 14458
L38239 14458
L38276 14476
L38295 14495
L38314 14533
L38314 14626
L38295 14664
L38276 14683
" />
<path d="M38314 14083
L38314 14308
" />
<path d="M38314 14195
L37920 14195
L37976 14233
L38014 14270
L38032 14308
" />
<path d="M38314 13708
L38314 13933
" />
<path d="M38314 13820
L37920 13820
L37976 13858
L38014 13895
L38032 13933
" />
<path d="M43816 10410
L43816 10541
" />
<path d="M44022 10541
L43628 10541
L43628 10354
" />
<path d="M43628 10241
L43628 9979
L44022 10148
" />
<path d="M43666 9848
L43647 9829
L43628 9791
L43628 9698
L43647 9660
L43666 9641
L43703 9623
L43741 9623
L43797 9641
L44022 9866
L44022 9623
" />
<path d="M44022 9248
L44022 9473
" />
<path d="M44022 9360
L43628 9360
L43685 9398
L43722 9435
L43741 9473
" />
<path d="M37225 8302
L37094 8115
" />
<path d="M37000 8302
L37000 7908
L37150 7908
L37188 7927
L37206 7946
L37225 7983
L37225 8040
L37206 8077
L37188 8096
L37150 8115
L37000 8115
" />
<path d="M37394 8302
L37394 7908
L37544 7908
L37581 7927
L37600 7946
L37619 7983
L37619 8040
L37600 8077
L37581 8096
L37544 8115
L37394 8115
" />
<path d="M37806 8302
L37881 8302
L37919 8283
L37938 8265
L37975 8208
L37994 8133
L37994 7983
L37975 7946
L37956 7927
L37919 7908
L37844 7908
L37806 7927
L37788 7946
L37769 7983
L37769 8077
L37788 8115
L37806 8133
L37844 8152
L37919 8152
L37956 8133
L37975 8115
L37994 8077
" />
<path d="M38237 7908
L38275 7908
L38312 7927
L38331 7946
L38350 7983
L38369 8058
L38369 8152
L38350 8227
L38331 8265
L38312 8283
L38275 8302
L38237 8302
L38200 8283
L38181 8265
L38162 8227
L38144 8152
L38144 8058
L38162 7983
L38181 7946
L38200 7927
L38237 7908
" />
<path d="M33668 18848
L33480 18980
" />
<path d="M33668 19073
L33274 19073
L33274 18923
L33293 18886
L33312 18867
L33349 18848
L33405 18848
L33443 18867
L33462 18886
L33480 18923
L33480 19073
" />
<path d="M33443 18623
L33424 18661
L33405 18680
L33368 18698
L33349 18698
L33312 18680
L33293 18661
L33274 18623
L33274 18548
L33293 18511
L33312 18492
L33349 18473
L33368 18473
L33405 18492
L33424 18511
L33443 18548
L33443 18623
L33462 18661
L33480 18680
L33518 18698
L33593 18698
L33630 18680
L33649 18661
L33668 18623
L33668 18548
L33649 18511
L33630 18492
L33593 18473
L33518 18473
L33480 18492
L33462 18511
L33443 18548
" />
<path d="M33274 18342
L33274 18098
L33424 18230
L33424 18173
L33443 18136
L33462 18117
L33499 18098
L33593 18098
L33630 18117
L33649 18136
L33668 18173
L33668 18286
L33649 18323
L33630 18342
" />
<path d="M33405 17761
L33668 17761
" />
<path d="M33255 17855
L33537 17948
L33537 17705
" />
<path d="M42416 12021
L42417 12081
L42406 12105
L42377 12135
L42324 12154
L42283 12150
L42259 12138
L42228 12110
L42177 11969
L42547 11834
L42592 11957
L42587 11999
L42576 12023
L42547 12053
L42512 12066
L42470 12061
L42446 12050
L42416 12021
L42371 11898
" />
<path d="M42411 12282
L42475 12459
" />
<path d="M42292 12286
L42707 12274
L42382 12532
" />
<path d="M42778 12468
L42855 12680
" />
<path d="M42446 12709
L42816 12574
" />
<path d="M42600 13131
L42523 12920
" />
<path d="M42562 13026
L42932 12891
L42866 12875
L42818 12853
L42787 12824
" />
<path d="M42375 8001
L42415 7958
L42440 7949
L42482 7948
L42533 7972
L42559 8004
L42568 8029
L42569 8071
L42506 8207
L42149 8041
L42205 7922
L42238 7896
L42262 7887
L42304 7886
L42338 7901
L42364 7934
L42373 7959
L42375 8001
L42319 8120
" />
<path d="M42563 7820
L42642 7650
" />
<path d="M42649 7901
L42347 7616
L42760 7664
" />
<path d="M42434 7429
L42530 7225
" />
<path d="M42839 7494
L42482 7327
" />
<path d="M42611 7139
L42602 7114
L42601 7072
L42640 6987
L42673 6961
L42698 6952
L42740 6951
L42774 6967
L42817 7008
L42926 7307
L43029 7086
" />
<path d="M38276 12022
L38295 12040
L38314 12097
L38314 12134
L38295 12190
L38257 12228
L38220 12247
L38145 12265
L38089 12265
L38014 12247
L37976 12228
L37939 12190
L37920 12134
L37920 12097
L37939 12040
L37957 12022
" />
<path d="M37920 11665
L37920 11853
L38107 11872
L38089 11853
L38070 11815
L38070 11722
L38089 11684
L38107 11665
L38145 11647
L38239 11647
L38276 11665
L38295 11684
L38314 11722
L38314 11815
L38295 11853
L38276 11872
" />
<path d="M38314 11272
L38314 11497
" />
<path d="M38314 11384
L37920 11384
L37976 11422
L38014 11459
L38032 11497
" />
<path d="M37920 10915
L37920 11103
L38107 11122
L38089 11103
L38070 11065
L38070 10972
L38089 10934
L38107 10915
L38145 10897
L38239 10897
L38276 10915
L38295 10934
L38314 10972
L38314 11065
L38295 11103
L38276 11122
" />
<path d="M23516 3848
L23535 3867
L23554 3923
L23554 3961
L23535 4017
L23497 4055
L23460 4073
L23385 4092
L23329 4092
L23254 4073
L23216 4055
L23179 4017
L23160 3961
L23160 3923
L23179 3867
L23197 3848
" />
<path d="M23160 3492
L23160 3680
L23347 3698
L23329 3680
L23310 3642
L23310 3548
L23329 3511
L23347 3492
L23385 3473
L23479 3473
L23516 3492
L23535 3511
L23554 3548
L23554 3642
L23535 3680
L23516 3698
" />
<path d="M23160 3342
L23160 3098
L23310 3230
L23310 3173
L23329 3136
L23347 3117
L23385 3098
L23479 3098
L23516 3117
L23535 3136
L23554 3173
L23554 3286
L23535 3323
L23516 3342
" />
<path d="M23197 2948
L23179 2930
L23160 2892
L23160 2798
L23179 2761
L23197 2742
L23235 2723
L23272 2723
L23329 2742
L23554 2967
L23554 2723
" />
<path d="M2540 18665
L2540 18271
" />
<path d="M2540 18458
L2765 18458
" />
<path d="M2765 18665
L2765 18271
" />
<path d="M3159 18665
L2934 18665
" />
<path d="M3046 18665
L3046 18271
L3009 18327
L2971 18365
L2934 18383
" />
<path d="M19469 18665
L19469 18271
" />
<path d="M19469 18458
L19694 18458
" />
<path d="M19694 18665
L19694 18271
" />
<path d="M19863 18308
L19882 18290
L19919 18271
L20013 18271
L20050 18290
L20069 18308
L20088 18346
L20088 18383
L20069 18440
L19844 18665
L20088 18665
" />
<path d="M41320 18861
L41320 18468
" />
<path d="M41320 18655
L41545 18655
" />
<path d="M41545 18861
L41545 18468
" />
<path d="M41695 18468
L41938 18468
L41807 18618
L41863 18618
L41901 18636
L41920 18655
L41938 18693
L41938 18786
L41920 18824
L41901 18843
L41863 18861
L41751 18861
L41713 18843
L41695 18824
" />
<path d="M19469 2523
L19469 2129
" />
<path d="M19469 2317
L19694 2317
" />
<path d="M19694 2523
L19694 2129
" />
<path d="M20069 2129
L19882 2129
L19863 2317
L19882 2298
L19919 2279
L20013 2279
L20050 2298
L20069 2317
L20088 2354
L20088 2448
L20069 2485
L20050 2504
L20013 2523
L19919 2523
L19882 2504
L19863 2485
" />
<path d="M2540 2523
L2540 2129
" />
<path d="M2540 2317
L2765 2317
" />
<path d="M2765 2523
L2765 2129
" />
<path d="M3121 2129
L3046 2129
L3009 2148
L2990 2167
L2953 2223
L2934 2298
L2934 2448
L2953 2485
L2971 2504
L3009 2523
L3084 2523
L3121 2504
L3140 2485
L3159 2448
L3159 2354
L3140 2317
L3121 2298
L3084 2279
L3009 2279
L2971 2298
L2953 2317
L2934 2354
" />
<path d="M3377 6263
L3377 6544
L3359 6600
L3321 6638
L3265 6657
L3227 6657
" />
<path d="M3733 6394
L3733 6657
" />
<path d="M3640 6244
L3546 6525
L3790 6525
" />
<path d="M4015 6263
L4052 6263
L4090 6282
L4108 6301
L4127 6338
L4146 6413
L4146 6507
L4127 6582
L4108 6619
L4090 6638
L4052 6657
L4015 6657
L3977 6638
L3958 6619
L3940 6582
L3921 6507
L3921 6413
L3940 6338
L3958 6301
L3977 6282
L4015 6263
" />
<path d="M4521 6657
L4296 6657
" />
<path d="M4408 6657
L4408 6263
L4371 6319
L4333 6357
L4296 6376
" />
<path d="M3495 7798
L3495 8080
L3477 8136
L3439 8173
L3383 8192
L3345 8192
" />
<path d="M3852 7930
L3852 8192
" />
<path d="M3758 7780
L3664 8061
L3908 8061
" />
<path d="M4133 7798
L4170 7798
L4208 7817
L4227 7836
L4245 7873
L4264 7948
L4264 8042
L4245 8117
L4227 8155
L4208 8173
L4170 8192
L4133 8192
L4095 8173
L4077 8155
L4058 8117
L4039 8042
L4039 7948
L4058 7873
L4077 7836
L4095 7817
L4133 7798
" />
<path d="M4414 7836
L4433 7817
L4470 7798
L4564 7798
L4601 7817
L4620 7836
L4639 7873
L4639 7911
L4620 7967
L4395 8192
L4639 8192
" />
<path d="M3456 9176
L3456 9458
L3437 9514
L3400 9551
L3344 9570
L3306 9570
" />
<path d="M3812 9308
L3812 9570
" />
<path d="M3718 9158
L3625 9439
L3868 9439
" />
<path d="M4093 9176
L4131 9176
L4168 9195
L4187 9214
L4206 9251
L4225 9326
L4225 9420
L4206 9495
L4187 9533
L4168 9551
L4131 9570
L4093 9570
L4056 9551
L4037 9533
L4018 9495
L4000 9420
L4000 9326
L4018 9251
L4037 9214
L4056 9195
L4093 9176
" />
<path d="M4356 9176
L4600 9176
L4468 9326
L4525 9326
L4562 9345
L4581 9364
L4600 9401
L4600 9495
L4581 9533
L4562 9551
L4525 9570
L4412 9570
L4375 9551
L4356 9533
" />
<path d="M30791 3062
L30791 3343
L30772 3400
L30734 3437
L30678 3456
L30641 3456
" />
<path d="M30941 3062
L31203 3062
L31034 3456
" />
<path d="M31316 3062
L31559 3062
L31428 3212
L31484 3212
L31522 3231
L31541 3250
L31559 3287
L31559 3381
L31541 3418
L31522 3437
L31484 3456
L31372 3456
L31334 3437
L31316 3418
" />
<path d="M31803 3062
L31841 3062
L31878 3081
L31897 3100
L31916 3137
L31934 3212
L31934 3306
L31916 3381
L31897 3418
L31878 3437
L31841 3456
L31803 3456
L31766 3437
L31747 3418
L31728 3381
L31709 3306
L31709 3212
L31728 3137
L31747 3100
L31766 3081
L31803 3062
" />
<path d="M26936 6642
L27254 6642
L27292 6623
L27311 6604
L27329 6567
L27329 6492
L27311 6454
L27292 6435
L27254 6417
L26936 6417
" />
<path d="M26973 6248
L26954 6229
L26936 6192
L26936 6098
L26954 6061
L26973 6042
L27011 6023
L27048 6023
L27104 6042
L27329 6267
L27329 6023
" />
<path d="M26936 5779
L26936 5742
L26954 5704
L26973 5686
L27011 5667
L27086 5648
L27179 5648
L27254 5667
L27292 5686
L27311 5704
L27329 5742
L27329 5779
L27311 5817
L27292 5836
L27254 5854
L27179 5873
L27086 5873
L27011 5854
L26973 5836
L26954 5817
L26936 5779
" />
<path d="M27329 5273
L27329 5498
" />
<path d="M27329 5386
L26936 5386
L26992 5423
L27029 5461
L27048 5498
" />
<path d="M23718 6816
L23700 6835
L23643 6854
L23606 6854
L23550 6835
L23512 6797
L23494 6760
L23475 6685
L23475 6629
L23494 6554
L23512 6516
L23550 6479
L23606 6460
L23643 6460
L23700 6479
L23718 6497
" />
<path d="M23868 6497
L23887 6479
L23925 6460
L24018 6460
L24056 6479
L24075 6497
L24093 6535
L24093 6572
L24075 6629
L23850 6854
L24093 6854
" />
<path d="M24337 6460
L24375 6460
L24412 6479
L24431 6497
L24450 6535
L24468 6610
L24468 6704
L24450 6779
L24431 6816
L24412 6835
L24375 6854
L24337 6854
L24300 6835
L24281 6816
L24262 6779
L24243 6704
L24243 6610
L24262 6535
L24281 6497
L24300 6479
L24337 6460
" />
<path d="M24843 6854
L24618 6854
" />
<path d="M24731 6854
L24731 6460
L24693 6516
L24656 6554
L24618 6572
" />
<path d="M23718 5911
L23700 5929
L23643 5948
L23606 5948
L23550 5929
L23512 5892
L23494 5854
L23475 5779
L23475 5723
L23494 5648
L23512 5611
L23550 5573
L23606 5554
L23643 5554
L23700 5573
L23718 5592
" />
<path d="M23868 5592
L23887 5573
L23925 5554
L24018 5554
L24056 5573
L24075 5592
L24093 5629
L24093 5667
L24075 5723
L23850 5948
L24093 5948
" />
<path d="M24337 5554
L24375 5554
L24412 5573
L24431 5592
L24450 5629
L24468 5704
L24468 5798
L24450 5873
L24431 5911
L24412 5929
L24375 5948
L24337 5948
L24300 5929
L24281 5911
L24262 5873
L24243 5798
L24243 5704
L24262 5629
L24281 5592
L24300 5573
L24337 5554
" />
<path d="M24618 5592
L24637 5573
L24675 5554
L24768 5554
L24806 5573
L24825 5592
L24843 5629
L24843 5667
L24825 5723
L24600 5948
L24843 5948
" />
<path d="M29512 5337
L29485 5337
L29432 5311
L29406 5284
L29379 5231
L29379 5178
L29392 5138
L29432 5072
L29472 5032
L29538 4992
L29578 4979
L29631 4979
L29684 5006
L29710 5032
L29737 5085
L29737 5112
" />
<path d="M29843 5218
L29870 5218
L29909 5231
L29976 5297
L29989 5337
L29989 5364
L29976 5403
L29949 5430
L29896 5456
L29578 5456
L29750 5629
" />
<path d="M30201 5523
L30227 5549
L30241 5589
L30241 5616
L30227 5655
L30188 5722
L30121 5788
L30055 5828
L30015 5841
L29989 5841
L29949 5828
L29923 5801
L29909 5761
L29909 5735
L29923 5695
L29962 5629
L30029 5562
L30095 5523
L30135 5509
L30161 5509
L30201 5523
" />
<path d="M30387 5708
L30559 5881
L30360 5894
L30400 5934
L30413 5973
L30413 6000
L30400 6040
L30334 6106
L30294 6119
L30267 6119
L30227 6106
L30148 6026
L30135 5987
L30135 5960
" />
<path d="M33646 2478
L33665 2497
L33684 2553
L33684 2591
L33665 2647
L33627 2684
L33590 2703
L33515 2722
L33459 2722
L33384 2703
L33346 2684
L33309 2647
L33290 2591
L33290 2553
L33309 2497
L33327 2478
" />
<path d="M33290 2122
L33290 2310
L33477 2328
L33459 2310
L33440 2272
L33440 2178
L33459 2141
L33477 2122
L33515 2103
L33609 2103
L33646 2122
L33665 2141
L33684 2178
L33684 2272
L33665 2310
L33646 2328
" />
<path d="M33290 1860
L33290 1822
L33309 1785
L33327 1766
L33365 1747
L33440 1728
L33534 1728
L33609 1747
L33646 1766
L33665 1785
L33684 1822
L33684 1860
L33665 1897
L33646 1916
L33609 1935
L33534 1953
L33440 1953
L33365 1935
L33327 1916
L33309 1897
L33290 1860
" />
<path d="M33684 1353
L33684 1578
" />
<path d="M33684 1466
L33290 1466
L33346 1503
L33384 1541
L33402 1578
" />
<path d="M24398 18415
L24417 18434
L24436 18490
L24436 18528
L24417 18584
L24379 18621
L24342 18640
L24267 18659
L24211 18659
L24136 18640
L24098 18621
L24061 18584
L24042 18528
L24042 18490
L24061 18434
L24079 18415
" />
<path d="M24042 18059
L24042 18247
L24229 18265
L24211 18247
L24192 18209
L24192 18115
L24211 18078
L24229 18059
L24267 18040
L24361 18040
L24398 18059
L24417 18078
L24436 18115
L24436 18209
L24417 18247
L24398 18265
" />
<path d="M24079 17890
L24061 17872
L24042 17834
L24042 17740
L24061 17703
L24079 17684
L24117 17665
L24154 17665
L24211 17684
L24436 17909
L24436 17665
" />
<path d="M24436 17290
L24436 17515
" />
<path d="M24436 17403
L24042 17403
L24098 17440
L24136 17478
L24154 17515
" />
<path d="M22548 18423
L22566 18442
L22585 18498
L22585 18536
L22566 18592
L22529 18629
L22491 18648
L22416 18667
L22360 18667
L22285 18648
L22248 18629
L22210 18592
L22191 18536
L22191 18498
L22210 18442
L22229 18423
" />
<path d="M22191 18067
L22191 18254
L22379 18273
L22360 18254
L22341 18217
L22341 18123
L22360 18086
L22379 18067
L22416 18048
L22510 18048
L22548 18067
L22566 18086
L22585 18123
L22585 18217
L22566 18254
L22548 18273
" />
<path d="M22229 17898
L22210 17879
L22191 17842
L22191 17748
L22210 17711
L22229 17692
L22266 17673
L22304 17673
L22360 17692
L22585 17917
L22585 17673
" />
<path d="M22229 17523
L22210 17504
L22191 17467
L22191 17373
L22210 17336
L22229 17317
L22266 17298
L22304 17298
L22360 17317
L22585 17542
L22585 17298
" />
<path d="M27823 18305
L27842 18324
L27861 18380
L27861 18418
L27842 18474
L27805 18511
L27767 18530
L27692 18549
L27636 18549
L27561 18530
L27523 18511
L27486 18474
L27467 18418
L27467 18380
L27486 18324
L27505 18305
" />
<path d="M27467 17949
L27467 18136
L27655 18155
L27636 18136
L27617 18099
L27617 18005
L27636 17968
L27655 17949
L27692 17930
L27786 17930
L27823 17949
L27842 17968
L27861 18005
L27861 18099
L27842 18136
L27823 18155
" />
<path d="M27505 17780
L27486 17761
L27467 17724
L27467 17630
L27486 17593
L27505 17574
L27542 17555
L27580 17555
L27636 17574
L27861 17799
L27861 17555
" />
<path d="M27467 17424
L27467 17180
L27617 17311
L27617 17255
L27636 17218
L27655 17199
L27692 17180
L27786 17180
L27823 17199
L27842 17218
L27861 17255
L27861 17368
L27842 17405
L27823 17424
" />
<path d="M36564 18868
L36555 18893
L36512 18934
L36478 18950
L36419 18957
L36369 18938
L36336 18912
L36288 18852
L36264 18801
L36249 18726
L36250 18684
L36268 18634
L36312 18593
L36346 18577
L36404 18570
L36429 18579
" />
<path d="M36689 18603
L36647 18602
L36622 18593
L36589 18567
L36581 18550
L36582 18508
L36591 18483
L36617 18450
L36685 18419
L36727 18420
L36752 18429
L36785 18455
L36793 18472
L36792 18514
L36783 18539
L36757 18572
L36689 18603
L36663 18636
L36654 18661
L36652 18703
L36684 18771
L36717 18797
L36742 18806
L36784 18807
L36852 18776
L36878 18743
L36887 18718
L36888 18676
L36856 18608
L36823 18582
L36799 18573
L36757 18572
" />
<path d="M36872 18332
L37093 18229
L37038 18420
L37089 18396
L37130 18397
L37155 18406
L37188 18432
L37228 18517
L37227 18559
L37218 18584
L37192 18617
L37090 18665
L37048 18663
L37023 18654
" />
<path d="M37314 18126
L37348 18110
L37390 18111
L37415 18120
L37448 18146
L37496 18206
L37536 18291
L37551 18367
L37550 18409
L37540 18434
L37514 18467
L37480 18482
L37438 18481
L37414 18472
L37381 18446
L37332 18386
L37292 18301
L37278 18225
L37279 18183
L37288 18158
L37314 18126
" />
<path d="M30481 8455
L30500 8473
L30518 8530
L30518 8567
L30500 8623
L30462 8661
L30425 8680
L30350 8698
L30293 8698
L30218 8680
L30181 8661
L30143 8623
L30125 8567
L30125 8530
L30143 8473
L30162 8455
" />
<path d="M30518 8267
L30518 8192
L30500 8155
L30481 8136
L30425 8098
L30350 8080
L30200 8080
L30162 8098
L30143 8117
L30125 8155
L30125 8230
L30143 8267
L30162 8286
L30200 8305
L30293 8305
L30331 8286
L30350 8267
L30368 8230
L30368 8155
L30350 8117
L30331 8098
L30293 8080
" />
<path d="M30125 7836
L30125 7798
L30143 7761
L30162 7742
L30200 7723
L30275 7705
L30368 7705
L30443 7723
L30481 7742
L30500 7761
L30518 7798
L30518 7836
L30500 7873
L30481 7892
L30443 7911
L30368 7930
L30275 7930
L30200 7911
L30162 7892
L30143 7873
L30125 7836
" />
<path d="M30125 7461
L30125 7424
L30143 7386
L30162 7367
L30200 7349
L30275 7330
L30368 7330
L30443 7349
L30481 7367
L30500 7386
L30518 7424
L30518 7461
L30500 7498
L30481 7517
L30443 7536
L30368 7555
L30275 7555
L30200 7536
L30162 7517
L30143 7498
L30125 7461
" />
<path d="M42016 2770
L42035 2788
L42054 2845
L42054 2882
L42035 2938
L41997 2976
L41960 2995
L41885 3013
L41829 3013
L41754 2995
L41716 2976
L41679 2938
L41660 2882
L41660 2845
L41679 2788
L41697 2770
" />
<path d="M42054 2582
L42054 2507
L42035 2470
L42016 2451
L41960 2413
L41885 2395
L41735 2395
L41697 2413
L41679 2432
L41660 2470
L41660 2545
L41679 2582
L41697 2601
L41735 2620
L41829 2620
L41866 2601
L41885 2582
L41904 2545
L41904 2470
L41885 2432
L41866 2413
L41829 2395
" />
<path d="M41660 2151
L41660 2113
L41679 2076
L41697 2057
L41735 2038
L41810 2020
L41904 2020
L41979 2038
L42016 2057
L42035 2076
L42054 2113
L42054 2151
L42035 2188
L42016 2207
L41979 2226
L41904 2245
L41810 2245
L41735 2226
L41697 2207
L41679 2188
L41660 2151
" />
<path d="M42054 1645
L42054 1870
" />
<path d="M42054 1757
L41660 1757
L41716 1795
L41754 1832
L41772 1870
" />
<path d="M41107 2754
L41125 2773
L41144 2829
L41144 2866
L41125 2923
L41088 2960
L41050 2979
L40976 2998
L40919 2998
L40844 2979
L40807 2960
L40769 2923
L40751 2866
L40751 2829
L40769 2773
L40788 2754
" />
<path d="M41144 2566
L41144 2491
L41125 2454
L41107 2435
L41050 2398
L40976 2379
L40826 2379
L40788 2398
L40769 2416
L40751 2454
L40751 2529
L40769 2566
L40788 2585
L40826 2604
L40919 2604
L40957 2585
L40976 2566
L40994 2529
L40994 2454
L40976 2416
L40957 2398
L40919 2379
" />
<path d="M40751 2135
L40751 2098
L40769 2060
L40788 2041
L40826 2023
L40901 2004
L40994 2004
L41069 2023
L41107 2041
L41125 2060
L41144 2098
L41144 2135
L41125 2173
L41107 2191
L41069 2210
L40994 2229
L40901 2229
L40826 2210
L40788 2191
L40769 2173
L40751 2135
" />
<path d="M40788 1854
L40769 1835
L40751 1798
L40751 1704
L40769 1666
L40788 1648
L40826 1629
L40863 1629
L40919 1648
L41144 1873
L41144 1629
" />
<path d="M26418 2281
L26399 2318
L26362 2356
L26305 2412
L26287 2450
L26287 2487
" />
<path d="M26380 2468
L26362 2506
L26324 2543
L26249 2562
L26118 2562
L26043 2543
L26005 2506
L25987 2468
L25987 2393
L26005 2356
L26043 2318
L26118 2300
L26249 2300
L26324 2318
L26362 2356
L26380 2393
L26380 2468
" />
<path d="M26380 2112
L26380 2037
L26362 2000
L26343 1981
L26287 1943
L26212 1925
L26062 1925
L26024 1943
L26005 1962
L25987 2000
L25987 2075
L26005 2112
L26024 2131
L26062 2150
L26155 2150
L26193 2131
L26212 2112
L26230 2075
L26230 2000
L26212 1962
L26193 1943
L26155 1925
" />
<path d="M25987 1681
L25987 1643
L26005 1606
L26024 1587
L26062 1568
L26137 1550
L26230 1550
L26305 1568
L26343 1587
L26362 1606
L26380 1643
L26380 1681
L26362 1718
L26343 1737
L26305 1756
L26230 1775
L26137 1775
L26062 1756
L26024 1737
L26005 1718
L25987 1681
" />
<path d="M25987 1306
L25987 1268
L26005 1231
L26024 1212
L26062 1193
L26137 1175
L26230 1175
L26305 1193
L26343 1212
L26362 1231
L26380 1268
L26380 1306
L26362 1343
L26343 1362
L26305 1381
L26230 1400
L26137 1400
L26062 1381
L26024 1362
L26005 1343
L25987 1306
" />
<path d="M21711 7667
L21524 7798
" />
<path d="M21711 7892
L21317 7892
L21317 7742
L21336 7705
L21355 7686
L21392 7667
L21449 7667
L21486 7686
L21505 7705
L21524 7742
L21524 7892
" />
<path d="M21355 7517
L21336 7498
L21317 7461
L21317 7367
L21336 7330
L21355 7311
L21392 7292
L21430 7292
L21486 7311
L21711 7536
L21711 7292
" />
<path d="M21317 7049
L21317 7011
L21336 6974
L21355 6955
L21392 6936
L21467 6917
L21561 6917
L21636 6936
L21674 6955
L21692 6974
L21711 7011
L21711 7049
L21692 7086
L21674 7105
L21636 7124
L21561 7142
L21467 7142
L21392 7124
L21355 7105
L21336 7086
L21317 7049
" />
<path d="M21317 6786
L21317 6542
L21467 6674
L21467 6617
L21486 6580
L21505 6561
L21542 6542
L21636 6542
L21674 6561
L21692 6580
L21711 6617
L21711 6730
L21692 6767
L21674 6786
" />
<path d="M21238 6106
L21107 5918
" />
<path d="M21013 6106
L21013 5712
L21163 5712
L21201 5731
L21219 5749
L21238 5787
L21238 5843
L21219 5881
L21201 5899
L21163 5918
L21013 5918
" />
<path d="M21388 5749
L21407 5731
L21444 5712
L21538 5712
L21576 5731
L21594 5749
L21613 5787
L21613 5824
L21594 5881
L21369 6106
L21613 6106
" />
<path d="M21857 5712
L21894 5712
L21932 5731
L21951 5749
L21969 5787
L21988 5862
L21988 5956
L21969 6031
L21951 6068
L21932 6087
L21894 6106
L21857 6106
L21819 6087
L21801 6068
L21782 6031
L21763 5956
L21763 5862
L21782 5787
L21801 5749
L21819 5731
L21857 5712
" />
<path d="M22326 5843
L22326 6106
" />
<path d="M22232 5693
L22138 5974
L22382 5974
" />
<path d="M19101 5951
L18913 6082
" />
<path d="M19101 6176
L18707 6176
L18707 6026
L18726 5989
L18745 5970
L18782 5951
L18838 5951
L18876 5970
L18895 5989
L18913 6026
L18913 6176
" />
<path d="M18707 5595
L18707 5783
L18895 5801
L18876 5783
L18857 5745
L18857 5651
L18876 5614
L18895 5595
L18932 5576
L19026 5576
L19063 5595
L19082 5614
L19101 5651
L19101 5745
L19082 5783
L19063 5801
" />
<path d="M18707 5333
L18707 5295
L18726 5258
L18745 5239
L18782 5220
L18857 5201
L18951 5201
L19026 5220
L19063 5239
L19082 5258
L19101 5295
L19101 5333
L19082 5370
L19063 5389
L19026 5408
L18951 5426
L18857 5426
L18782 5408
L18745 5389
L18726 5370
L18707 5333
" />
<path d="M18707 4958
L18707 4920
L18726 4883
L18745 4864
L18782 4845
L18857 4826
L18951 4826
L19026 4845
L19063 4864
L19082 4883
L19101 4920
L19101 4958
L19082 4995
L19063 5014
L19026 5033
L18951 5051
L18857 5051
L18782 5033
L18745 5014
L18726 4995
L18707 4958
" />
<path d="M29545 17759
L29414 17572
" />
<path d="M29320 17759
L29320 17365
L29470 17365
L29508 17384
L29526 17403
L29545 17440
L29545 17497
L29526 17534
L29508 17553
L29470 17572
L29320 17572
" />
<path d="M29901 17365
L29714 17365
L29695 17553
L29714 17534
L29751 17515
L29845 17515
L29883 17534
L29901 17553
L29920 17590
L29920 17684
L29901 17722
L29883 17740
L29845 17759
L29751 17759
L29714 17740
L29695 17722
" />
<path d="M30070 17403
L30089 17384
L30126 17365
L30220 17365
L30258 17384
L30276 17403
L30295 17440
L30295 17478
L30276 17534
L30051 17759
L30295 17759
" />
<path d="M30539 17365
L30576 17365
L30614 17384
L30633 17403
L30651 17440
L30670 17515
L30670 17609
L30651 17684
L30633 17722
L30614 17740
L30576 17759
L30539 17759
L30501 17740
L30483 17722
L30464 17684
L30445 17609
L30445 17515
L30464 17440
L30483 17403
L30501 17384
L30539 17365
" />
<path d="M25538 18344
L25350 18476
" />
<path d="M25538 18569
L25144 18569
L25144 18419
L25163 18382
L25182 18363
L25219 18344
L25275 18344
L25313 18363
L25332 18382
L25350 18419
L25350 18569
" />
<path d="M25144 17988
L25144 18176
L25332 18194
L25313 18176
L25294 18138
L25294 18044
L25313 18007
L25332 17988
L25369 17969
L25463 17969
L25500 17988
L25519 18007
L25538 18044
L25538 18138
L25519 18176
L25500 18194
" />
<path d="M25182 17819
L25163 17801
L25144 17763
L25144 17669
L25163 17632
L25182 17613
L25219 17594
L25257 17594
L25313 17613
L25538 17838
L25538 17594
" />
<path d="M25144 17238
L25144 17426
L25332 17444
L25313 17426
L25294 17388
L25294 17295
L25313 17257
L25332 17238
L25369 17220
L25463 17220
L25500 17238
L25519 17257
L25538 17295
L25538 17388
L25519 17426
L25500 17444
" />
<path d="M23569 18423
L23382 18554
" />
<path d="M23569 18648
L23176 18648
L23176 18498
L23194 18461
L23213 18442
L23251 18423
L23307 18423
L23344 18442
L23363 18461
L23382 18498
L23382 18648
" />
<path d="M23176 18067
L23176 18254
L23363 18273
L23344 18254
L23326 18217
L23326 18123
L23344 18086
L23363 18067
L23401 18048
L23494 18048
L23532 18067
L23551 18086
L23569 18123
L23569 18217
L23551 18254
L23532 18273
" />
<path d="M23213 17898
L23194 17879
L23176 17842
L23176 17748
L23194 17711
L23213 17692
L23251 17673
L23288 17673
L23344 17692
L23569 17917
L23569 17673
" />
<path d="M23176 17336
L23176 17411
L23194 17448
L23213 17467
L23269 17504
L23344 17523
L23494 17523
L23532 17504
L23551 17486
L23569 17448
L23569 17373
L23551 17336
L23532 17317
L23494 17298
L23401 17298
L23363 17317
L23344 17336
L23326 17373
L23326 17448
L23344 17486
L23363 17504
L23401 17523
" />
<path d="M30844 1850
L30713 1662
" />
<path d="M30619 1850
L30619 1456
L30769 1456
L30807 1475
L30826 1493
L30844 1531
L30844 1587
L30826 1625
L30807 1643
L30769 1662
L30619 1662
" />
<path d="M30976 1456
L31238 1456
L31069 1850
" />
<path d="M31351 1456
L31594 1456
L31463 1606
L31519 1606
L31557 1625
L31576 1643
L31594 1681
L31594 1775
L31576 1812
L31557 1831
L31519 1850
L31407 1850
L31369 1831
L31351 1812
" />
<path d="M31969 1850
L31744 1850
" />
<path d="M31857 1850
L31857 1456
L31819 1512
L31782 1550
L31744 1568
" />
<path d="M39888 18691
L39701 18822
" />
<path d="M39888 18916
L39495 18916
L39495 18766
L39513 18728
L39532 18710
L39570 18691
L39626 18691
L39663 18710
L39682 18728
L39701 18766
L39701 18916
" />
<path d="M39663 18466
L39645 18503
L39626 18522
L39588 18541
L39570 18541
L39532 18522
L39513 18503
L39495 18466
L39495 18391
L39513 18353
L39532 18335
L39570 18316
L39588 18316
L39626 18335
L39645 18353
L39663 18391
L39663 18466
L39682 18503
L39701 18522
L39738 18541
L39813 18541
L39851 18522
L39870 18503
L39888 18466
L39888 18391
L39870 18353
L39851 18335
L39813 18316
L39738 18316
L39701 18335
L39682 18353
L39663 18391
" />
<path d="M39495 18185
L39495 17941
L39645 18072
L39645 18016
L39663 17978
L39682 17960
L39720 17941
L39813 17941
L39851 17960
L39870 17978
L39888 18016
L39888 18128
L39870 18166
L39851 18185
" />
<path d="M39888 17566
L39888 17791
" />
<path d="M39888 17678
L39495 17678
L39551 17716
L39588 17753
L39607 17791
" />
<path d="M35125 18966
L34937 19098
" />
<path d="M35125 19191
L34731 19191
L34731 19041
L34750 19004
L34768 18985
L34806 18966
L34862 18966
L34900 18985
L34918 19004
L34937 19041
L34937 19191
" />
<path d="M34900 18741
L34881 18779
L34862 18798
L34825 18816
L34806 18816
L34768 18798
L34750 18779
L34731 18741
L34731 18666
L34750 18629
L34768 18610
L34806 18591
L34825 18591
L34862 18610
L34881 18629
L34900 18666
L34900 18741
L34918 18779
L34937 18798
L34975 18816
L35050 18816
L35087 18798
L35106 18779
L35125 18741
L35125 18666
L35106 18629
L35087 18610
L35050 18591
L34975 18591
L34937 18610
L34918 18629
L34900 18666
" />
<path d="M34731 18460
L34731 18217
L34881 18348
L34881 18292
L34900 18254
L34918 18235
L34956 18217
L35050 18217
L35087 18235
L35106 18254
L35125 18292
L35125 18404
L35106 18441
L35087 18460
" />
<path d="M34768 18067
L34750 18048
L34731 18010
L34731 17917
L34750 17879
L34768 17860
L34806 17842
L34843 17842
L34900 17860
L35125 18085
L35125 17842
" />
<path d="M39270 15987
L39138 15800
" />
<path d="M39045 15987
L39045 15594
L39195 15594
L39232 15612
L39251 15631
L39270 15669
L39270 15725
L39251 15762
L39232 15781
L39195 15800
L39045 15800
" />
<path d="M39495 15762
L39457 15744
L39438 15725
L39420 15687
L39420 15669
L39438 15631
L39457 15612
L39495 15594
L39570 15594
L39607 15612
L39626 15631
L39645 15669
L39645 15687
L39626 15725
L39607 15744
L39570 15762
L39495 15762
L39457 15781
L39438 15800
L39420 15837
L39420 15912
L39438 15950
L39457 15969
L39495 15987
L39570 15987
L39607 15969
L39626 15950
L39645 15912
L39645 15837
L39626 15800
L39607 15781
L39570 15762
" />
<path d="M39776 15594
L40020 15594
L39888 15744
L39945 15744
L39982 15762
L40001 15781
L40020 15819
L40020 15912
L40001 15950
L39982 15969
L39945 15987
L39832 15987
L39795 15969
L39776 15950
" />
<path d="M40151 15594
L40395 15594
L40263 15744
L40320 15744
L40357 15762
L40376 15781
L40395 15819
L40395 15912
L40376 15950
L40357 15969
L40320 15987
L40207 15987
L40170 15969
L40151 15950
" />
<path d="M27534 2585
L27347 2716
" />
<path d="M27534 2810
L27140 2810
L27140 2660
L27159 2622
L27178 2603
L27215 2585
L27272 2585
L27309 2603
L27328 2622
L27347 2660
L27347 2810
" />
<path d="M27534 2397
L27534 2322
L27515 2285
L27497 2266
L27440 2228
L27365 2210
L27215 2210
L27178 2228
L27159 2247
L27140 2285
L27140 2360
L27159 2397
L27178 2416
L27215 2435
L27309 2435
L27347 2416
L27365 2397
L27384 2360
L27384 2285
L27365 2247
L27347 2228
L27309 2210
" />
<path d="M27140 1966
L27140 1928
L27159 1891
L27178 1872
L27215 1853
L27290 1835
L27384 1835
L27459 1853
L27497 1872
L27515 1891
L27534 1928
L27534 1966
L27515 2003
L27497 2022
L27459 2041
L27384 2060
L27290 2060
L27215 2041
L27178 2022
L27159 2003
L27140 1966
" />
<path d="M27178 1685
L27159 1666
L27140 1628
L27140 1535
L27159 1497
L27178 1478
L27215 1460
L27253 1460
L27309 1478
L27534 1703
L27534 1460
" />
<path d="M26640 18854
L26959 18854
L26997 18836
L27015 18817
L27034 18779
L27034 18704
L27015 18667
L26997 18648
L26959 18629
L26640 18629
" />
<path d="M26640 18254
L26640 18442
L26828 18461
L26809 18442
L26790 18404
L26790 18311
L26809 18273
L26828 18254
L26865 18236
L26959 18236
L26997 18254
L27015 18273
L27034 18311
L27034 18404
L27015 18442
L26997 18461
" />
<path d="M26678 18086
L26659 18067
L26640 18029
L26640 17936
L26659 17898
L26678 17879
L26715 17861
L26753 17861
L26809 17879
L27034 18104
L27034 17861
" />
<path d="M26640 17617
L26640 17579
L26659 17542
L26678 17523
L26715 17504
L26790 17486
L26884 17486
L26959 17504
L26997 17523
L27015 17542
L27034 17579
L27034 17617
L27015 17654
L26997 17673
L26959 17692
L26884 17711
L26790 17711
L26715 17692
L26678 17673
L26659 17654
L26640 17617
" />
<path d="M14980 13350
L14980 13668
L14999 13706
L15018 13725
L15055 13743
L15130 13743
L15168 13725
L15186 13706
L15205 13668
L15205 13350
" />
<path d="M15561 13350
L15486 13350
L15449 13368
L15430 13387
L15393 13443
L15374 13518
L15374 13668
L15393 13706
L15411 13725
L15449 13743
L15524 13743
L15561 13725
L15580 13706
L15599 13668
L15599 13575
L15580 13537
L15561 13518
L15524 13500
L15449 13500
L15411 13518
L15393 13537
L15374 13575
" />
<path d="M15843 13350
L15880 13350
L15918 13368
L15936 13387
L15955 13425
L15974 13500
L15974 13593
L15955 13668
L15936 13706
L15918 13725
L15880 13743
L15843 13743
L15805 13725
L15786 13706
L15768 13668
L15749 13593
L15749 13500
L15768 13425
L15786 13387
L15805 13368
L15843 13350
" />
<path d="M16105 13350
L16349 13350
L16218 13500
L16274 13500
L16311 13518
L16330 13537
L16349 13575
L16349 13668
L16330 13706
L16311 13725
L16274 13743
L16161 13743
L16124 13725
L16105 13706
" />
<path d="M15020 12011
L15020 12330
L15038 12367
L15057 12386
L15095 12405
L15170 12405
L15207 12386
L15226 12367
L15245 12330
L15245 12011
" />
<path d="M15601 12011
L15526 12011
L15488 12030
L15470 12049
L15432 12105
L15413 12180
L15413 12330
L15432 12367
L15451 12386
L15488 12405
L15563 12405
L15601 12386
L15619 12367
L15638 12330
L15638 12236
L15619 12199
L15601 12180
L15563 12161
L15488 12161
L15451 12180
L15432 12199
L15413 12236
" />
<path d="M15882 12011
L15919 12011
L15957 12030
L15976 12049
L15994 12086
L16013 12161
L16013 12255
L15994 12330
L15976 12367
L15957 12386
L15919 12405
L15882 12405
L15844 12386
L15826 12367
L15807 12330
L15788 12255
L15788 12161
L15807 12086
L15826 12049
L15844 12030
L15882 12011
" />
<path d="M16351 12142
L16351 12405
" />
<path d="M16257 11992
L16163 12274
L16407 12274
" />
<path d="M38707 18965
L39026 18965
L39063 18946
L39082 18927
L39101 18890
L39101 18815
L39082 18777
L39063 18758
L39026 18740
L38707 18740
" />
<path d="M38876 18496
L38857 18533
L38838 18552
L38801 18571
L38782 18571
L38745 18552
L38726 18533
L38707 18496
L38707 18421
L38726 18383
L38745 18365
L38782 18346
L38801 18346
L38838 18365
L38857 18383
L38876 18421
L38876 18496
L38895 18533
L38913 18552
L38951 18571
L39026 18571
L39063 18552
L39082 18533
L39101 18496
L39101 18421
L39082 18383
L39063 18365
L39026 18346
L38951 18346
L38913 18365
L38895 18383
L38876 18421
" />
<path d="M38707 18215
L38707 17971
L38857 18102
L38857 18046
L38876 18008
L38895 17990
L38932 17971
L39026 17971
L39063 17990
L39082 18008
L39101 18046
L39101 18158
L39082 18196
L39063 18215
" />
<path d="M38707 17727
L38707 17690
L38726 17652
L38745 17633
L38782 17615
L38857 17596
L38951 17596
L39026 17615
L39063 17633
L39082 17652
L39101 17690
L39101 17727
L39082 17765
L39063 17783
L39026 17802
L38951 17821
L38857 17821
L38782 17802
L38745 17783
L38726 17765
L38707 17727
" />
<path d="M42913 16480
L42913 16086
" />
<path d="M42913 16273
L43138 16273
" />
<path d="M43138 16480
L43138 16086
" />
<path d="M43344 16480
L43419 16480
L43457 16461
L43476 16442
L43513 16386
L43532 16311
L43532 16161
L43513 16123
L43494 16105
L43457 16086
L43382 16086
L43344 16105
L43326 16123
L43307 16161
L43307 16255
L43326 16292
L43344 16311
L43382 16330
L43457 16330
L43494 16311
L43513 16292
L43532 16255
" />
<path d="M43776 16086
L43813 16086
L43851 16105
L43869 16123
L43888 16161
L43907 16236
L43907 16330
L43888 16405
L43869 16442
L43851 16461
L43813 16480
L43776 16480
L43738 16461
L43719 16442
L43701 16405
L43682 16330
L43682 16236
L43701 16161
L43719 16123
L43738 16105
L43776 16086
" />
<path d="M44282 16480
L44057 16480
" />
<path d="M44169 16480
L44169 16086
L44132 16142
L44094 16180
L44057 16198
" />
<path d="M42913 4275
L42913 3881
" />
<path d="M42913 4069
L43138 4069
" />
<path d="M43138 4275
L43138 3881
" />
<path d="M43344 4275
L43419 4275
L43457 4256
L43476 4237
L43513 4181
L43532 4106
L43532 3956
L43513 3919
L43494 3900
L43457 3881
L43382 3881
L43344 3900
L43326 3919
L43307 3956
L43307 4050
L43326 4087
L43344 4106
L43382 4125
L43457 4125
L43494 4106
L43513 4087
L43532 4050
" />
<path d="M43776 3881
L43813 3881
L43851 3900
L43869 3919
L43888 3956
L43907 4031
L43907 4125
L43888 4200
L43869 4237
L43851 4256
L43813 4275
L43776 4275
L43738 4256
L43719 4237
L43701 4200
L43682 4125
L43682 4031
L43701 3956
L43719 3919
L43738 3900
L43776 3881
" />
<path d="M44057 3919
L44076 3900
L44113 3881
L44207 3881
L44244 3900
L44263 3919
L44282 3956
L44282 3994
L44263 4050
L44038 4275
L44282 4275
" />
<path d="M13386 4275
L13386 3881
" />
<path d="M13386 4069
L13611 4069
" />
<path d="M13611 4275
L13611 3881
" />
<path d="M13817 4275
L13892 4275
L13929 4256
L13948 4237
L13986 4181
L14004 4106
L14004 3956
L13986 3919
L13967 3900
L13929 3881
L13854 3881
L13817 3900
L13798 3919
L13779 3956
L13779 4050
L13798 4087
L13817 4106
L13854 4125
L13929 4125
L13967 4106
L13986 4087
L14004 4050
" />
<path d="M14248 3881
L14286 3881
L14323 3900
L14342 3919
L14361 3956
L14379 4031
L14379 4125
L14361 4200
L14342 4237
L14323 4256
L14286 4275
L14248 4275
L14211 4256
L14192 4237
L14173 4200
L14154 4125
L14154 4031
L14173 3956
L14192 3919
L14211 3900
L14248 3881
" />
<path d="M14511 3881
L14754 3881
L14623 4031
L14679 4031
L14717 4050
L14736 4069
L14754 4106
L14754 4200
L14736 4237
L14717 4256
L14679 4275
L14567 4275
L14529 4256
L14511 4237
" />
<path d="M13386 16480
L13386 16086
" />
<path d="M13386 16273
L13611 16273
" />
<path d="M13611 16480
L13611 16086
" />
<path d="M13817 16480
L13892 16480
L13929 16461
L13948 16442
L13986 16386
L14004 16311
L14004 16161
L13986 16123
L13967 16105
L13929 16086
L13854 16086
L13817 16105
L13798 16123
L13779 16161
L13779 16255
L13798 16292
L13817 16311
L13854 16330
L13929 16330
L13967 16311
L13986 16292
L14004 16255
" />
<path d="M14248 16086
L14286 16086
L14323 16105
L14342 16123
L14361 16161
L14379 16236
L14379 16330
L14361 16405
L14342 16442
L14323 16461
L14286 16480
L14248 16480
L14211 16461
L14192 16442
L14173 16405
L14154 16330
L14154 16236
L14173 16161
L14192 16123
L14211 16105
L14248 16086
" />
<path d="M14717 16217
L14717 16480
" />
<path d="M14623 16067
L14529 16348
L14773 16348
" />
<path d="M1421 14220
L1421 14501
L1402 14557
L1364 14595
L1308 14613
L1271 14613
" />
<path d="M1814 14613
L1589 14613
" />
<path d="M1702 14613
L1702 14220
L1664 14276
L1627 14313
L1589 14332
" />
<path d="M2058 14220
L2095 14220
L2133 14238
L2152 14257
L2170 14295
L2189 14370
L2189 14463
L2170 14538
L2152 14576
L2133 14595
L2095 14613
L2058 14613
L2020 14595
L2002 14576
L1983 14538
L1964 14463
L1964 14370
L1983 14295
L2002 14257
L2020 14238
L2058 14220
" />
<path d="M2564 14613
L2339 14613
" />
<path d="M2452 14613
L2452 14220
L2414 14276
L2377 14313
L2339 14332
" />
<path d="M33670 2470
L33688 2489
L33707 2545
L33707 2583
L33688 2639
L33651 2677
L33613 2695
L33538 2714
L33482 2714
L33407 2695
L33370 2677
L33332 2639
L33314 2583
L33314 2545
L33332 2489
L33351 2470
" />
<path d="M33314 2339
L33314 2077
L33707 2245
" />
<path d="M33314 1964
L33314 1720
L33464 1852
L33464 1795
L33482 1758
L33501 1739
L33538 1720
L33632 1720
L33670 1739
L33688 1758
L33707 1795
L33707 1908
L33688 1945
L33670 1964
" />
<path d="M33351 1570
L33332 1552
L33314 1514
L33314 1421
L33332 1383
L33351 1364
L33389 1346
L33426 1346
L33482 1364
L33707 1589
L33707 1346
" />
<path d="M42148 4406
L42429 4406
L42486 4425
L42523 4462
L42542 4519
L42542 4556
" />
<path d="M42542 4200
L42542 4125
L42523 4087
L42504 4069
L42448 4031
L42373 4012
L42223 4012
L42186 4031
L42167 4050
L42148 4087
L42148 4162
L42167 4200
L42186 4219
L42223 4237
L42317 4237
L42354 4219
L42373 4200
L42392 4162
L42392 4087
L42373 4050
L42354 4031
L42317 4012
" />
<path d="M42148 3769
L42148 3731
L42167 3694
L42186 3675
L42223 3656
L42298 3637
L42392 3637
L42467 3656
L42504 3675
L42523 3694
L42542 3731
L42542 3769
L42523 3806
L42504 3825
L42467 3844
L42392 3862
L42298 3862
L42223 3844
L42186 3825
L42167 3806
L42148 3769
" />
<path d="M42542 3262
L42542 3487
" />
<path d="M42542 3375
L42148 3375
L42204 3412
L42242 3450
L42261 3487
" />
<path d="M32148 4406
L32429 4406
L32486 4425
L32523 4462
L32542 4519
L32542 4556
" />
<path d="M32542 4200
L32542 4125
L32523 4087
L32504 4069
L32448 4031
L32373 4012
L32223 4012
L32186 4031
L32167 4050
L32148 4087
L32148 4162
L32167 4200
L32186 4219
L32223 4237
L32317 4237
L32354 4219
L32373 4200
L32392 4162
L32392 4087
L32373 4050
L32354 4031
L32317 4012
" />
<path d="M32148 3769
L32148 3731
L32167 3694
L32186 3675
L32223 3656
L32298 3637
L32392 3637
L32467 3656
L32504 3675
L32523 3694
L32542 3731
L32542 3769
L32523 3806
L32504 3825
L32467 3844
L32392 3862
L32298 3862
L32223 3844
L32186 3825
L32167 3806
L32148 3769
" />
<path d="M32186 3487
L32167 3469
L32148 3431
L32148 3337
L32167 3300
L32186 3281
L32223 3262
L32261 3262
L32317 3281
L32542 3506
L32542 3262
" />
<path d="M38034 16827
L38315 16827
L38371 16846
L38409 16884
L38428 16940
L38428 16977
" />
<path d="M38203 16584
L38184 16621
L38165 16640
L38128 16659
L38109 16659
L38071 16640
L38053 16621
L38034 16584
L38034 16509
L38053 16471
L38071 16452
L38109 16434
L38128 16434
L38165 16452
L38184 16471
L38203 16509
L38203 16584
L38221 16621
L38240 16640
L38278 16659
L38353 16659
L38390 16640
L38409 16621
L38428 16584
L38428 16509
L38409 16471
L38390 16452
L38353 16434
L38278 16434
L38240 16452
L38221 16471
L38203 16509
" />
<path d="M38034 16190
L38034 16152
L38053 16115
L38071 16096
L38109 16077
L38184 16059
L38278 16059
L38353 16077
L38390 16096
L38409 16115
L38428 16152
L38428 16190
L38409 16227
L38390 16246
L38353 16265
L38278 16284
L38184 16284
L38109 16265
L38071 16246
L38053 16227
L38034 16190
" />
<path d="M38071 15909
L38053 15890
L38034 15852
L38034 15759
L38053 15721
L38071 15702
L38109 15684
L38146 15684
L38203 15702
L38428 15927
L38428 15684
" />
<path d="M38034 10134
L38315 10134
L38371 10153
L38409 10191
L38428 10247
L38428 10284
" />
<path d="M38203 9891
L38184 9928
L38165 9947
L38128 9966
L38109 9966
L38071 9947
L38053 9928
L38034 9891
L38034 9816
L38053 9778
L38071 9759
L38109 9741
L38128 9741
L38165 9759
L38184 9778
L38203 9816
L38203 9891
L38221 9928
L38240 9947
L38278 9966
L38353 9966
L38390 9947
L38409 9928
L38428 9891
L38428 9816
L38409 9778
L38390 9759
L38353 9741
L38278 9741
L38240 9759
L38221 9778
L38203 9816
" />
<path d="M38034 9497
L38034 9459
L38053 9422
L38071 9403
L38109 9385
L38184 9366
L38278 9366
L38353 9385
L38390 9403
L38409 9422
L38428 9459
L38428 9497
L38409 9534
L38390 9553
L38353 9572
L38278 9591
L38184 9591
L38109 9572
L38071 9553
L38053 9534
L38034 9497
" />
<path d="M38428 8991
L38428 9216
" />
<path d="M38428 9103
L38034 9103
L38090 9141
L38128 9178
L38146 9216
" />
<path d="M26317 6778
L26711 6516
" />
<path d="M26317 6516
L26711 6778
" />
<path d="M26355 6385
L26336 6366
L26317 6328
L26317 6235
L26336 6197
L26355 6178
L26392 6160
L26430 6160
L26486 6178
L26711 6403
L26711 6160
" />
<path d="M26317 5916
L26317 5878
L26336 5841
L26355 5822
L26392 5803
L26467 5785
L26561 5785
L26636 5803
L26674 5822
L26692 5841
L26711 5878
L26711 5916
L26692 5953
L26674 5972
L26636 5991
L26561 6010
L26467 6010
L26392 5991
L26355 5972
L26336 5953
L26317 5916
" />
<path d="M26711 5410
L26711 5635
" />
<path d="M26711 5522
L26317 5522
L26374 5560
L26411 5597
L26430 5635
" />
<path d="M35394 8471
L32244 8471
" />
<path d="M32244 4171
L35394 4171
" />
<path d="M32244 8471
L32244 4171
" />
<path d="M35394 4171
L35394 8471
" />
<path d="M33644 8471
L33644 8171
" />
<path d="M33644 8171
L34044 8171
" />
<path d="M34044 8171
L34044 8471
" />
<path d="M29159 1236
L29946 1236
" />
<path d="M29946 2083
L29159 2083
" />
<path d="M41128 15425
L41915 15425
" />
<path d="M41915 16272
L41128 16272
" />
<path d="M37771 15632
L37771 13152
" />
<path d="M37716 15629
L37716 13155
" />
<path d="M37661 15624
L37661 14568
" />
<path d="M37661 14216
L37661 13160
" />
<path d="M37606 15617
L37606 14650
" />
<path d="M37606 14134
L37606 13167
" />
<path d="M37551 15607
L37551 14703
" />
<path d="M37551 14081
L37551 13177
" />
<path d="M37496 15594
L37496 14738
" />
<path d="M37496 14046
L37496 13190
" />
<path d="M37441 15579
L37441 14763
" />
<path d="M37441 14021
L37441 13205
" />
<path d="M37385 15561
L37385 14778
" />
<path d="M37385 14006
L37385 13224
" />
<path d="M37330 15540
L37330 14785
" />
<path d="M37330 13999
L37330 13244
" />
<path d="M37275 15515
L37275 14784
" />
<path d="M37275 14000
L37275 13269
" />
<path d="M37220 15488
L37220 14775
" />
<path d="M37220 14009
L37220 13296
" />
<path d="M37165 15457
L37165 14759
" />
<path d="M37165 14025
L37165 13327
" />
<path d="M37110 15422
L37110 14732
" />
<path d="M37110 14052
L37110 13362
" />
<path d="M37055 15383
L37055 14693
" />
<path d="M37055 14091
L37055 13401
" />
<path d="M37000 15338
L37000 14636
" />
<path d="M37000 14148
L37000 13446
" />
<path d="M36944 15289
L36944 14542
" />
<path d="M36944 14242
L36944 13495
" />
<path d="M36889 15233
L36889 13551
" />
<path d="M36834 15169
L36834 13615
" />
<path d="M36779 15095
L36779 13689
" />
<path d="M36724 15007
L36724 13777
" />
<path d="M36669 14899
L36669 13885
" />
<path d="M36614 14751
L36614 14033
" />
<circle cx="37309.1" cy="14392.5" r="393.701" /> 
<circle cx="37801.3" cy="14392.5" r="1254.92" /> 
<path d="M37575 6045
L37575 5745
" />
<path d="M37775 6045
L37775 5745
" />
<path d="M37575.3 6845.65 A657.647 657.647 0.0 0 0 38325.3 6295.65 " />
<path d="M37025.3 6245.65 A651.92 651.92 0.0 0 0 37725.3 6845.65 " />
<path d="M38225.3 6545.65 A651.92 651.92 0.0 0 0 38025.3 5645.65 " />
<path d="M37325.3 5645.65 A651.92 651.92 0.0 0 0 37125.3 6545.65 " />
<path d="M36375 7695
L36375 7645
" />
<path d="M36375 6195
L36375 6745
" />
<path d="M38975 7695
L38975 7645
" />
<path d="M38975 6195
L38975 6745
" />
<path d="M37225 7345
L37375 7395
" />
<path d="M37375 7395
L37675 7445
" />
<path d="M37675 7445
L37975 7395
" />
<path d="M37975 7395
L38125 7345
" />
<path d="M37175 6995
L38175 6995
" />
<path d="M38825.3 6695.65 A1253.99 1253.99 0.0 0 0 38175.3 5045.65 " />
<path d="M37175.3 5045.65 A1253.99 1253.99 0.0 0 0 36525.3 6695.65 " />
<path d="M38475 4895
L38125 4895
" />
<path d="M37225 4895
L36875 4895
" />
<path d="M38325 6045
L38525 6045
" />
<path d="M38525 6045
L38525 6345
" />
<path d="M38525 6345
L38325 6345
" />
<path d="M37025 6045
L36825 6045
" />
<path d="M36825 6045
L36825 6345
" />
<path d="M36825 6345
L37025 6345
" />
<path d="M37875 6295
L38325 6295
" />
<path d="M37875 6095
L38325 6095
" />
<path d="M37475 6295
L37025 6295
" />
<path d="M37475 6095
L37025 6095
" />
<path d="M37775 6345
L37775 6845
" />
<path d="M37575 6345
L37575 6845
" />
<path d="M37475 6045
L37475 6345
" />
<path d="M37475 6345
L37875 6345
" />
<path d="M37875 6345
L37875 6045
" />
<path d="M37875 6045
L37475 6045
" />
<path d="M36875 4895
L36375 5445
" />
<path d="M36375 5445
L36375 6195
" />
<path d="M38475 4895
L38975 5445
" />
<path d="M38975 5445
L38975 6195
" />
<path d="M38875 7695
L38875 7795
" />
<path d="M38875 7795
L38425 7795
" />
<path d="M38425 7795
L38425 7695
" />
<path d="M36475 7695
L36475 7795
" />
<path d="M36475 7795
L36925 7795
" />
<path d="M36925 7795
L36925 7695
" />
<path d="M36375 7695
L38975 7695
" />
<path d="M33067 18801
L33067 18014
" />
<path d="M33913 18014
L33913 18801
" />
</g>
<g style="fill:#000000; fill-opacity:0.0; 
stroke:#000000; stroke-width:98.4252; stroke-opacity:1; 
stroke-linecap:round; stroke-linejoin:round;">
<circle cx="41836.7" cy="12699.6" r="2598.43" /> 
<circle cx="41836.7" cy="7266.52" r="2598.43" /> 
</g>
<g style="fill:#000000; fill-opacity:0.0; 
stroke:#000000; stroke-width:59.0551; stroke-opacity:1; 
stroke-linecap:round; stroke-linejoin:round;">
<path d="M37771 12797
L37771 10318
" />
<path d="M37716 12795
L37716 10320
" />
<path d="M37661 12790
L37661 11733
" />
<path d="M37661 11382
L37661 10325
" />
<path d="M37606 12782
L37606 11816
" />
<path d="M37606 11299
L37606 10333
" />
<path d="M37551 12772
L37551 11868
" />
<path d="M37551 11247
L37551 10343
" />
<path d="M37496 12759
L37496 11904
" />
<path d="M37496 11211
L37496 10355
" />
<path d="M37441 12744
L37441 11928
" />
<path d="M37441 11186
L37441 10371
" />
<path d="M37385 12726
L37385 11944
" />
<path d="M37385 11171
L37385 10389
" />
<path d="M37330 12705
L37330 11950
" />
<path d="M37330 11164
L37330 10410
" />
<path d="M37275 12681
L37275 11949
" />
<path d="M37275 11165
L37275 10434
" />
<path d="M37220 12653
L37220 11941
" />
<path d="M37220 11174
L37220 10462
" />
<path d="M37165 12622
L37165 11924
" />
<path d="M37165 11191
L37165 10493
" />
<path d="M37110 12587
L37110 11897
" />
<path d="M37110 11218
L37110 10527
" />
<path d="M37055 12548
L37055 11858
" />
<path d="M37055 11257
L37055 10567
" />
<path d="M37000 12504
L37000 11801
" />
<path d="M37000 11314
L37000 10611
" />
<path d="M36944 12455
L36944 11707
" />
<path d="M36944 11408
L36944 10660
" />
<path d="M36889 12398
L36889 10716
" />
<path d="M36834 12335
L36834 10780
" />
<path d="M36779 12261
L36779 10854
" />
<path d="M36724 12173
L36724 10942
" />
<path d="M36669 12064
L36669 11051
" />
<path d="M36614 11916
L36614 11198
" />
<circle cx="37309.1" cy="11557.9" r="393.701" /> 
<circle cx="37801.3" cy="11557.9" r="1254.92" /> 
<path d="M23696 2129
L23696 4608
" />
<path d="M23752 2131
L23752 4606
" />
<path d="M23807 2136
L23807 3193
" />
<path d="M23807 3544
L23807 4601
" />
<path d="M23862 2144
L23862 3110
" />
<path d="M23862 3627
L23862 4593
" />
<path d="M23917 2154
L23917 3058
" />
<path d="M23917 3679
L23917 4583
" />
<path d="M23972 2166
L23972 3022
" />
<path d="M23972 3715
L23972 4570
" />
<path d="M24027 2182
L24027 2998
" />
<path d="M24027 3739
L24027 4555
" />
<path d="M24082 2200
L24082 2982
" />
<path d="M24082 3755
L24082 4537
" />
<path d="M24137 2221
L24137 2975
" />
<path d="M24137 3761
L24137 4516
" />
<path d="M24193 2245
L24193 2976
" />
<path d="M24193 3761
L24193 4492
" />
<path d="M24248 2273
L24248 2985
" />
<path d="M24248 3752
L24248 4464
" />
<path d="M24303 2304
L24303 3002
" />
<path d="M24303 3735
L24303 4433
" />
<path d="M24358 2338
L24358 3029
" />
<path d="M24358 3708
L24358 4398
" />
<path d="M24413 2378
L24413 3068
" />
<path d="M24413 3669
L24413 4359
" />
<path d="M24468 2422
L24468 3125
" />
<path d="M24468 3612
L24468 4315
" />
<path d="M24523 2471
L24523 3219
" />
<path d="M24523 3518
L24523 4266
" />
<path d="M24578 2527
L24578 4209
" />
<path d="M24633 2591
L24633 4146
" />
<path d="M24689 2665
L24689 4072
" />
<path d="M24744 2753
L24744 3984
" />
<path d="M24799 2862
L24799 3875
" />
<path d="M24854 3009
L24854 3727
" />
<circle cx="24159.5" cy="3368.88" r="393.701" /> 
<circle cx="23667.4" cy="3368.88" r="1254.92" /> 
<path d="M1966 7057
L966 7057
" />
<path d="M3076 7168
L2466 7168
" />
<path d="M1966 7057
L1966 6057
" />
<path d="M2466 5947
L3076 5947
" />
<path d="M3076 5947
L3076 7168
" />
<path d="M1966 6057
L966 6057
" />
<path d="M966 6057
L966 7057
" />
<path d="M1966 8435
L966 8435
" />
<path d="M3076 8546
L2466 8546
" />
<path d="M1966 8435
L1966 7435
" />
<path d="M2466 7325
L3076 7325
" />
<path d="M3076 7325
L3076 8546
" />
<path d="M1966 7435
L966 7435
" />
<path d="M966 7435
L966 8435
" />
<path d="M1966 9813
L966 9813
" />
<path d="M3076 9924
L2466 9924
" />
<path d="M1966 9813
L1966 8813
" />
<path d="M2466 8703
L3076 8703
" />
<path d="M3076 8703
L3076 9924
" />
<path d="M1966 8813
L966 8813
" />
<path d="M966 8813
L966 9813
" />
<path d="M33214 3975
L32214 3975
" />
<path d="M34324 4085
L33714 4085
" />
<path d="M33214 3975
L33214 2975
" />
<path d="M33714 2864
L34324 2864
" />
<path d="M34324 2864
L34324 4085
" />
<path d="M33214 2975
L32214 2975
" />
<path d="M32214 2975
L32214 3975
" />
<path d="M28563 5164
L28563 7164
" />
<path d="M28563 7164
L26763 7164
" />
<path d="M26763 7164
L26763 5164
" />
<path d="M26763 5164
L28563 5164
" />
<path d="M27963 5164
L27963 5364
" />
<path d="M27963 5364
L27463 5364
" />
<path d="M27463 5364
L27463 5164
" />
<path d="M23726 7079
L24513 7079
" />
<path d="M24513 6272
L23726 6272
" />
<path d="M23726 6174
L24513 6174
" />
<path d="M24513 5366
L23726 5366
" />
<path d="M29359 5517
L29916 6074
" />
<path d="M30486 5503
L29930 4946
" />
<path d="M33102 1644
L33102 2431
" />
<path d="M33909 2431
L33909 1644
" />
<path d="M23893 17581
L23893 18368
" />
<path d="M24700 18368
L24700 17581
" />
<path d="M22004 17589
L22004 18376
" />
<path d="M22811 18376
L22811 17589
" />
<path d="M27240 17510
L27240 18298
" />
<path d="M28047 18298
L28047 17510
" />
<path d="M36611 19137
L37324 18804
" />
<path d="M36983 18072
L36269 18405
" />
<path d="M30665 8368
L30665 7581
" />
<path d="M29858 7581
L29858 8368
" />
<path d="M42236 2632
L42236 1845
" />
<path d="M41429 1845
L41429 2632
" />
<path d="M41378 2691
L41378 1904
" />
<path d="M40570 1904
L40570 2691
" />
<path d="M25770 2085
L25789 2085
" />
<path d="M26872 1809
L26872 2085
" />
<path d="M26872 2085
L26774 2085
" />
<path d="M25770 2085
L25691 2085
" />
<path d="M25691 2085
L25691 1809
" />
<path d="M21996 6872
L21996 7660
" />
<path d="M21149 7660
L21149 6872
" />
<path d="M21324 5504
L22112 5504
" />
<path d="M22112 6351
L21324 6351
" />
<path d="M19346 5061
L19346 5849
" />
<path d="M18500 5849
L18500 5061
" />
<path d="M30261 18004
L29474 18004
" />
<path d="M29474 17158
L30261 17158
" />
<path d="M24818 18337
L24818 17549
" />
<path d="M25665 17549
L25665 18337
" />
<path d="M22929 18337
L22929 17549
" />
<path d="M23775 17549
L23775 18337
" />
<path d="M31679 2095
L30891 2095
" />
<path d="M30891 1248
L31679 1248
" />
<path d="M39248 18723
L39248 17935
" />
<path d="M40094 17935
L40094 18723
" />
<path d="M35370 18014
L35370 18801
" />
<path d="M34523 18801
L34523 18014
" />
<path d="M40104 16233
L39317 16233
" />
<path d="M39317 15386
L40104 15386
" />
<path d="M27818 1672
L27818 2459
" />
<path d="M26972 2459
L26972 1672
" />
<circle cx="26580.8" cy="18849.2" r="39.3701" /> 
<path d="M26364 18750
L26561 18750
" />
<path d="M26364 17609
L26364 18750
" />
<path d="M26561 17609
L26364 17609
" />
<path d="M26561 18750
L26561 17609
" />
<path d="M15399 13172
L15399 13191
" />
<path d="M15675 14274
L15399 14274
" />
<path d="M15399 14274
L15399 14176
" />
<path d="M15399 13172
L15399 13093
" />
<path d="M15399 13093
L15675 13093
" />
<path d="M15399 11755
L15399 11774
" />
<path d="M15675 12857
L15399 12857
" />
<path d="M15399 12857
L15399 12759
" />
<path d="M15399 11755
L15399 11676
" />
<path d="M15399 11676
L15675 11676
" />
<circle cx="38608.4" cy="18998.8" r="39.3701" /> 
<path d="M38391 18900
L38588 18900
" />
<path d="M38391 17758
L38391 18900
" />
<path d="M38588 17758
L38391 17758
" />
<path d="M38588 18900
L38588 17758
" />
</g>
<g style="fill:#000000; fill-opacity:0.0; 
stroke:#000000; stroke-width:47.2441; stroke-opacity:1; 
stroke-linecap:round; stroke-linejoin:round;">
<path d="M2974 12994
L2974 9947
" />
<path d="M2974 9947
L880 9947
" />
<path d="M880 9947
L880 14042
" />
<path d="M880 14042
L1927 14042
" />
<path d="M1927 14042
L1927 12994
" />
<path d="M1927 12994
L2974 12994
" />
<path d="M2974 13494
L2974 14042
" />
<path d="M2974 14042
L2427 14042
" />
<path d="M33027 2424
L33027 1636
" />
<path d="M32220 1636
L32220 2424
" />
<path d="M40923 3353
L35876 3353
" />
<path d="M35876 3353
L35876 4447
" />
<path d="M35876 4447
L40923 4447
" />
<path d="M40923 4447
L40923 3353
" />
<path d="M41423 3353
L41970 3353
" />
<path d="M41970 3353
L41970 3900
" />
<path d="M30923 3353
L25876 3353
" />
<path d="M25876 3353
L25876 4447
" />
<path d="M25876 4447
L30923 4447
" />
<path d="M30923 4447
L30923 3353
" />
<path d="M31423 3353
L31970 3353
" />
<path d="M31970 3353
L31970 3900
" />
<path d="M36809 15774
L36761 15774
" />
<path d="M36761 15774
L36761 16868
" />
<path d="M36761 16868
L36809 16868
" />
<path d="M36809 16868
L36809 15774
" />
<path d="M37309 15774
L37856 15774
" />
<path d="M37856 15774
L37856 16321
" />
<path d="M36809 9081
L36761 9081
" />
<path d="M36761 9081
L36761 10175
" />
<path d="M36761 10175
L36809 10175
" />
<path d="M36809 10175
L36809 9081
" />
<path d="M37309 9081
L37856 9081
" />
<path d="M37856 9081
L37856 9628
" />
<path d="M25963.4 6458.99 A484.252 484.252 0.0 0 0 25963.2 5711.13 " />
<path d="M25348 5711.13 A484.252 484.252 0.0 0 0 25347.8 6458.99 " />
</g>
<g style="fill:#000000; fill-opacity:1.0; 
stroke:#000000; stroke-width:0; stroke-opacity:1; 
stroke-linecap:round; stroke-linejoin:round;">
<circle cx="35092.6" cy="1927.94" r="984.252" /> 
</g>
<g style="fill:#000000; fill-opacity:1.0; 
stroke:#000000; stroke-width:39.3701; stroke-opacity:1; 
stroke-linecap:round; stroke-linejoin:round;">
</g>
<g style="fill:#000000; fill-opacity:1.0; 
stroke:#000000; stroke-width:0; stroke-opacity:1; 
stroke-linecap:round; stroke-linejoin:round;">
<circle cx="35092.6" cy="1927.94" r="787.402" /> 
</g>
<g style="fill:#000000; fill-opacity:1.0; 
stroke:#000000; stroke-width:39.3701; stroke-opacity:1; 
stroke-linecap:round; stroke-linejoin:round;">
</g>
<g style="fill:#000000; fill-opacity:1.0; 
stroke:#000000; stroke-width:0; stroke-opacity:1; 
stroke-linecap:round; stroke-linejoin:round;">
<circle cx="41500.1" cy="11774.7" r="492.126" /> 
</g>
<g style="fill:#000000; fill-opacity:1.0; 
stroke:#000000; stroke-width:39.3701; stroke-opacity:1; 
stroke-linecap:round; stroke-linejoin:round;">
</g>
<g style="fill:#000000; fill-opacity:1.0; 
stroke:#000000; stroke-width:0; stroke-opacity:1; 
stroke-linecap:round; stroke-linejoin:round;">
<circle cx="42173.3" cy="13624.5" r="492.126" /> 
</g>
<g style="fill:#000000; fill-opacity:1.0; 
stroke:#000000; stroke-width:39.3701; stroke-opacity:1; 
stroke-linecap:round; stroke-linejoin:round;">
</g>
<g style="fill:#000000; fill-opacity:1.0; 
stroke:#000000; stroke-width:0; stroke-opacity:1; 
stroke-linecap:round; stroke-linejoin:round;">
<circle cx="42252.7" cy="6374.49" r="492.126" /> 
</g>
<g style="fill:#000000; fill-opacity:1.0; 
stroke:#000000; stroke-width:39.3701; stroke-opacity:1; 
stroke-linecap:round; stroke-linejoin:round;">
</g>
<g style="fill:#000000; fill-opacity:1.0; 
stroke:#000000; stroke-width:0; stroke-opacity:1; 
stroke-linecap:round; stroke-linejoin:round;">
<circle cx="41420.7" cy="8158.56" r="492.126" /> 
</g>
<g style="fill:#000000; fill-opacity:1.0; 
stroke:#000000; stroke-width:39.3701; stroke-opacity:1; 
stroke-linecap:round; stroke-linejoin:round;">
</g>
<g style="fill:#000000; fill-opacity:1.0; 
stroke:#000000; stroke-width:0; stroke-opacity:1; 
stroke-linecap:round; stroke-linejoin:round;">
<circle cx="2840.64" cy="18290.1" r="1181.1" /> 
</g>
<g style="fill:#000000; fill-opacity:1.0; 
stroke:#000000; stroke-width:39.3701; stroke-opacity:1; 
stroke-linecap:round; stroke-linejoin:round;">
</g>
<g style="fill:#000000; fill-opacity:1.0; 
stroke:#000000; stroke-width:0; stroke-opacity:1; 
stroke-linecap:round; stroke-linejoin:round;">
<circle cx="2840.64" cy="18290.1" r="787.402" /> 
</g>
<g style="fill:#000000; fill-opacity:1.0; 
stroke:#000000; stroke-width:39.3701; stroke-opacity:1; 
stroke-linecap:round; stroke-linejoin:round;">
</g>
<g style="fill:#000000; fill-opacity:1.0; 
stroke:#000000; stroke-width:0; stroke-opacity:1; 
stroke-linecap:round; stroke-linejoin:round;">
<circle cx="19769.8" cy="18290.1" r="1181.1" /> 
</g>
<g style="fill:#000000; fill-opacity:1.0; 
stroke:#000000; stroke-width:39.3701; stroke-opacity:1; 
stroke-linecap:round; stroke-linejoin:round;">
</g>
<g style="fill:#000000; fill-opacity:1.0; 
stroke:#000000; stroke-width:0; stroke-opacity:1; 
stroke-linecap:round; stroke-linejoin:round;">
<circle cx="19769.8" cy="18290.1" r="787.402" /> 
</g>
<g style="fill:#000000; fill-opacity:1.0; 
stroke:#000000; stroke-width:39.3701; stroke-opacity:1; 
stroke-linecap:round; stroke-linejoin:round;">
</g>
<g style="fill:#000000; fill-opacity:1.0; 
stroke:#000000; stroke-width:0; stroke-opacity:1; 
stroke-linecap:round; stroke-linejoin:round;">
<circle cx="41620.2" cy="18487" r="984.252" /> 
</g>
<g style="fill:#000000; fill-opacity:1.0; 
stroke:#000000; stroke-width:39.3701; stroke-opacity:1; 
stroke-linecap:round; stroke-linejoin:round;">
</g>
<g style="fill:#000000; fill-opacity:1.0; 
stroke:#000000; stroke-width:0; stroke-opacity:1; 
stroke-linecap:round; stroke-linejoin:round;">
<circle cx="41620.2" cy="18487" r="787.402" /> 
</g>
<g style="fill:#000000; fill-opacity:1.0; 
stroke:#000000; stroke-width:39.3701; stroke-opacity:1; 
stroke-linecap:round; stroke-linejoin:round;">
</g>
<g style="fill:#000000; fill-opacity:1.0; 
stroke:#000000; stroke-width:0; stroke-opacity:1; 
stroke-linecap:round; stroke-linejoin:round;">
<circle cx="19769.8" cy="2148.41" r="1181.1" /> 
</g>
<g style="fill:#000000; fill-opacity:1.0; 
stroke:#000000; stroke-width:39.3701; stroke-opacity:1; 
stroke-linecap:round; stroke-linejoin:round;">
</g>
<g style="fill:#000000; fill-opacity:1.0; 
stroke:#000000; stroke-width:0; stroke-opacity:1; 
stroke-linecap:round; stroke-linejoin:round;">
<circle cx="19769.8" cy="2148.41" r="787.402" /> 
</g>
<g style="fill:#000000; fill-opacity:1.0; 
stroke:#000000; stroke-width:39.3701; stroke-opacity:1; 
stroke-linecap:round; stroke-linejoin:round;">
</g>
<g style="fill:#000000; fill-opacity:1.0; 
stroke:#000000; stroke-width:0; stroke-opacity:1; 
stroke-linecap:round; stroke-linejoin:round;">
<circle cx="2840.64" cy="2148.41" r="1181.1" /> 
</g>
<g style="fill:#000000; fill-opacity:1.0; 
stroke:#000000; stroke-width:39.3701; stroke-opacity:1; 
stroke-linecap:round; stroke-linejoin:round;">
</g>
<g style="fill:#000000; fill-opacity:1.0; 
stroke:#000000; stroke-width:0; stroke-opacity:1; 
stroke-linecap:round; stroke-linejoin:round;">
<circle cx="2840.64" cy="2148.41" r="787.402" /> 
</g>
<g style="fill:#000000; fill-opacity:1.0; 
stroke:#000000; stroke-width:39.3701; stroke-opacity:1; 
stroke-linecap:round; stroke-linejoin:round;">
</g>
<g style="fill:#000000; fill-opacity:1.0; 
stroke:#000000; stroke-width:0; stroke-opacity:1; 
stroke-linecap:round; stroke-linejoin:round;">
<circle cx="43588.7" cy="16105.1" r="984.252" /> 
</g>
<g style="fill:#000000; fill-opacity:1.0; 
stroke:#000000; stroke-width:39.3701; stroke-opacity:1; 
stroke-linecap:round; stroke-linejoin:round;">
</g>
<g style="fill:#000000; fill-opacity:1.0; 
stroke:#000000; stroke-width:0; stroke-opacity:1; 
stroke-linecap:round; stroke-linejoin:round;">
<circle cx="43588.7" cy="16105.1" r="787.402" /> 
</g>
<g style="fill:#000000; fill-opacity:1.0; 
stroke:#000000; stroke-width:39.3701; stroke-opacity:1; 
stroke-linecap:round; stroke-linejoin:round;">
</g>
<g style="fill:#000000; fill-opacity:1.0; 
stroke:#000000; stroke-width:0; stroke-opacity:1; 
stroke-linecap:round; stroke-linejoin:round;">
<circle cx="43588.7" cy="3900.38" r="984.252" /> 
</g>
<g style="fill:#000000; fill-opacity:1.0; 
stroke:#000000; stroke-width:39.3701; stroke-opacity:1; 
stroke-linecap:round; stroke-linejoin:round;">
</g>
<g style="fill:#000000; fill-opacity:1.0; 
stroke:#000000; stroke-width:0; stroke-opacity:1; 
stroke-linecap:round; stroke-linejoin:round;">
<circle cx="43588.7" cy="3900.38" r="787.402" /> 
</g>
<g style="fill:#000000; fill-opacity:1.0; 
stroke:#000000; stroke-width:39.3701; stroke-opacity:1; 
stroke-linecap:round; stroke-linejoin:round;">
</g>
<g style="fill:#000000; fill-opacity:1.0; 
stroke:#000000; stroke-width:0; stroke-opacity:1; 
stroke-linecap:round; stroke-linejoin:round;">
<circle cx="14061.1" cy="3900.38" r="1181.1" /> 
</g>
<g style="fill:#000000; fill-opacity:1.0; 
stroke:#000000; stroke-width:39.3701; stroke-opacity:1; 
stroke-linecap:round; stroke-linejoin:round;">
</g>
<g style="fill:#000000; fill-opacity:1.0; 
stroke:#000000; stroke-width:0; stroke-opacity:1; 
stroke-linecap:round; stroke-linejoin:round;">
<circle cx="14061.1" cy="3900.38" r="787.402" /> 
</g>
<g style="fill:#000000; fill-opacity:1.0; 
stroke:#000000; stroke-width:39.3701; stroke-opacity:1; 
stroke-linecap:round; stroke-linejoin:round;">
</g>
<g style="fill:#000000; fill-opacity:1.0; 
stroke:#000000; stroke-width:0; stroke-opacity:1; 
stroke-linecap:round; stroke-linejoin:round;">
<circle cx="14061.1" cy="16105.1" r="1181.1" /> 
</g>
<g style="fill:#000000; fill-opacity:1.0; 
stroke:#000000; stroke-width:39.3701; stroke-opacity:1; 
stroke-linecap:round; stroke-linejoin:round;">
</g>
<g style="fill:#000000; fill-opacity:1.0; 
stroke:#000000; stroke-width:0; stroke-opacity:1; 
stroke-linecap:round; stroke-linejoin:round;">
<circle cx="14061.1" cy="16105.1" r="787.402" /> 
</g>
<g style="fill:#000000; fill-opacity:1.0; 
stroke:#000000; stroke-width:39.3701; stroke-opacity:1; 
stroke-linecap:round; stroke-linejoin:round;">
</g> 
</svg>
