<?xml version="1.0" standalone="no"?>
 <!DOCTYPE svg PUBLIC "-//W3C//DTD SVG 1.1//EN" 
 "http://www.w3.org/Graphics/SVG/1.1/DTD/svg11.dtd"> 
<svg xmlns="http://www.w3.org/2000/svg" version="1.1" 
    width="29.7002cm" height="21.0007cm" viewBox="0 0 116930 82680 ">
<title>SVG Picture created as proto_trapapoul-F.SilkS.svg date 2016/10/11 09:02:36 </title>
  <desc>Picture generated by PCBNEW </desc>
<g style="fill:#000000; fill-opacity:1;stroke:#000000; stroke-opacity:1;
stroke-linecap:round; stroke-linejoin:round; "
 transform="translate(0 0) scale(1 1)">
</g>
<g style="fill:#000000; fill-opacity:0.0; 
stroke:#000000; stroke-width:-0.000393701; stroke-opacity:1; 
stroke-linecap:round; stroke-linejoin:round;">
</g>
<g style="fill:#000000; fill-opacity:0.0; 
stroke:#000000; stroke-width:59.0551; stroke-opacity:1; 
stroke-linecap:round; stroke-linejoin:round;">
<path d="M35196 27086
L52913 27086
" />
<path d="M34803 20393
L34803 26692
" />
<path d="M52913 20000
L35196 20000
" />
<path d="M53307 26692
L53307 20393
" />
<path d="M35196.9 20000 A393.701 393.701 0.0 0 0 34803.1 20393.7 " />
<path d="M34803.1 26692.9 A393.701 393.701 0.0 0 0 35196.9 27086.6 " />
<path d="M52913.4 27086.6 A393.701 393.701 0.0 0 0 53307.1 26692.9 " />
<path d="M53307.1 20393.7 A393.701 393.701 0.0 0 0 52913.4 20000 " />
<circle cx="28110.2" cy="16476.4" r="1574.8" /> 
<path d="M20236.2 10551.2 A1574.8 1574.8 0.0 0 0 18661.4 12126 " />
<path d="M18661 28661
L18661 12125
" />
<path d="M18661.4 28661.4 A1574.8 1574.8 0.0 0 0 20236.2 30236.2 " />
<path d="M58425 30236
L20236 30236
" />
<path d="M60000 28661
L60000 12125
" />
<path d="M58425.2 30236.2 A1574.8 1574.8 0.0 0 0 60000 28661.4 " />
<path d="M60000 12126 A1574.8 1574.8 0.0 0 0 58425.2 10551.2 " />
<path d="M20236 10551
L58425 10551
" />
</g>
<g style="fill:#000000; fill-opacity:0.0; 
stroke:#000000; stroke-width:98.4252; stroke-opacity:1; 
stroke-linecap:round; stroke-linejoin:round;">
<circle cx="40669.3" cy="16535.4" r="1968.5" /> 
<circle cx="40669.3" cy="12500" r="1968.5" /> 
</g>
<g style="fill:#000000; fill-opacity:0.0; 
stroke:#000000; stroke-width:59.0551; stroke-opacity:1; 
stroke-linecap:round; stroke-linejoin:round;">
<path d="M32096 11692
L32096 12480
" />
<path d="M32903 12480
L32903 11692
" />
<path d="M33198 29232
L33198 28444
" />
<path d="M32391 28444
L32391 29232
" />
<path d="M30187 28444
L30187 29232
" />
<path d="M30994 29232
L30994 28444
" />
<path d="M55994 27696
L55994 26909
" />
<path d="M55187 26909
L55187 27696
" />
<path d="M52854 13690
L52066 13690
" />
<path d="M52066 14498
L52854 14498
" />
<path d="M25460 19653
L25460 20653
" />
<path d="M25570 18543
L25570 19153
" />
<path d="M25460 19653
L24460 19653
" />
<path d="M24350 19153
L24350 18543
" />
<path d="M24350 18543
L25570 18543
" />
<path d="M24460 19653
L24460 20653
" />
<path d="M24460 20653
L25460 20653
" />
<path d="M28393 11960
L29393 11960
" />
<path d="M27283 11850
L27893 11850
" />
<path d="M28393 11960
L28393 12960
" />
<path d="M27893 13070
L27283 13070
" />
<path d="M27283 13070
L27283 11850
" />
<path d="M28393 12960
L29393 12960
" />
<path d="M29393 12960
L29393 11960
" />
<path d="M27767 26661
L26767 26661
" />
<path d="M28877 26771
L28267 26771
" />
<path d="M27767 26661
L27767 25661
" />
<path d="M28267 25551
L28877 25551
" />
<path d="M28877 25551
L28877 26771
" />
<path d="M27767 25661
L26767 25661
" />
<path d="M26767 25661
L26767 26661
" />
<path d="M49082 11015
L50082 11015
" />
<path d="M47972 10905
L48582 10905
" />
<path d="M49082 11015
L49082 12015
" />
<path d="M48582 12125
L47972 12125
" />
<path d="M47972 12125
L47972 10905
" />
<path d="M49082 12015
L50082 12015
" />
<path d="M50082 12015
L50082 11015
" />
<path d="M58515 15185
L53515 15185
" />
<path d="M53515 15185
L53515 14185
" />
<path d="M53515 14185
L58515 14185
" />
<path d="M59625 15295
L59015 15295
" />
<path d="M58515 15185
L58515 14185
" />
<path d="M59015 14074
L59625 14074
" />
<path d="M59625 14074
L59625 15295
" />
<path d="M48515 15165
L43515 15165
" />
<path d="M43515 15165
L43515 14165
" />
<path d="M43515 14165
L48515 14165
" />
<path d="M49625 15275
L49015 15275
" />
<path d="M48515 15165
L48515 14165
" />
<path d="M49015 14055
L49625 14055
" />
<path d="M49625 14055
L49625 15275
" />
<path d="M43976 15295
L44252 15295
" />
<path d="M44252 15295
L44252 15393
" />
<path d="M44252 16397
L44252 16476
" />
<path d="M44252 16476
L43976 16476
" />
<path d="M31289 28681
L31289 27893
" />
<path d="M32135 27893
L32135 28681
" />
<path d="M29970 27913
L29970 28700
" />
<path d="M29124 28700
L29124 27913
" />
<path d="M56437 21958
L55649 21958
" />
<path d="M55649 21112
L56437 21112
" />
<path d="M56948 25265
L56161 25265
" />
<path d="M56161 24419
L56948 24419
" />
<path d="M58848 25314
L58848 26102
" />
<path d="M58001 26102
L58001 25314
" />
<path d="M59153 23946
L58366 23946
" />
<path d="M58366 23100
L59153 23100
" />
<path d="M42706 14251
L42706 13464
" />
<path d="M43553 13464
L43553 14251
" />
<path d="M57881 17088
L57581 17088
" />
<path d="M57881 16888
L57581 16888
" />
<path d="M58681.7 17088.4 A657.647 657.647 0.0 0 0 58131.7 16338.4 " />
<path d="M58081.7 17638.4 A651.92 651.92 0.0 0 0 58681.7 16938.4 " />
<path d="M58381.7 16438.4 A651.92 651.92 0.0 0 0 57481.7 16638.4 " />
<path d="M57481.7 17338.4 A651.92 651.92 0.0 0 0 58381.7 17538.4 " />
<path d="M59531 18288
L59481 18288
" />
<path d="M58031 18288
L58581 18288
" />
<path d="M59531 15688
L59481 15688
" />
<path d="M58031 15688
L58581 15688
" />
<path d="M59181 17438
L59231 17288
" />
<path d="M59231 17288
L59281 16988
" />
<path d="M59281 16988
L59231 16688
" />
<path d="M59231 16688
L59181 16538
" />
<path d="M58831 17488
L58831 16488
" />
<path d="M58531.7 15838.4 A1253.99 1253.99 0.0 0 0 56881.7 16488.4 " />
<path d="M56881.7 17488.4 A1253.99 1253.99 0.0 0 0 58531.7 18138.4 " />
<path d="M56731 16188
L56731 16538
" />
<path d="M56731 17438
L56731 17788
" />
<path d="M57881 16338
L57881 16138
" />
<path d="M57881 16138
L58181 16138
" />
<path d="M58181 16138
L58181 16338
" />
<path d="M57881 17638
L57881 17838
" />
<path d="M57881 17838
L58181 17838
" />
<path d="M58181 17838
L58181 17638
" />
<path d="M58131 16788
L58131 16338
" />
<path d="M57931 16788
L57931 16338
" />
<path d="M58131 17188
L58131 17638
" />
<path d="M57931 17188
L57931 17638
" />
<path d="M58181 16888
L58681 16888
" />
<path d="M58181 17088
L58681 17088
" />
<path d="M57881 17188
L58181 17188
" />
<path d="M58181 17188
L58181 16788
" />
<path d="M58181 16788
L57881 16788
" />
<path d="M57881 16788
L57881 17188
" />
<path d="M56731 17788
L57281 18288
" />
<path d="M57281 18288
L58031 18288
" />
<path d="M56731 16188
L57281 15688
" />
<path d="M57281 15688
L58031 15688
" />
<path d="M59531 15788
L59631 15788
" />
<path d="M59631 15788
L59631 16238
" />
<path d="M59631 16238
L59531 16238
" />
<path d="M59531 18188
L59631 18188
" />
<path d="M59631 18188
L59631 17738
" />
<path d="M59631 17738
L59531 17738
" />
<path d="M59531 18288
L59531 15688
" />
<path d="M32846 25807
L31507 25807
" />
<path d="M32177.2 27421.3 A944.882 944.882 0.0 0 0 32845.3 25808.2 " />
<path d="M31509 25808.2 A944.882 944.882 0.0 0 0 32177.2 27421.3 " />
<path d="M32846 24842
L31507 24842
" />
<path d="M32177.2 26456.7 A944.882 944.882 0.0 0 0 32845.3 24843.7 " />
<path d="M31509 24843.7 A944.882 944.882 0.0 0 0 32177.2 26456.7 " />
<path d="M58602 21554
L58602 21830
" />
<path d="M58602 21830
L58504 21830
" />
<path d="M57500 21830
L57421 21830
" />
<path d="M57421 21830
L57421 21554
" />
<circle cx="55944.9" cy="26456.7" r="39.3701" /> 
<path d="M56141 26200
L56141 26397
" />
<path d="M57283 26200
L56141 26200
" />
<path d="M57283 26397
L57283 26200
" />
<path d="M56141 26397
L57283 26397
" />
<path d="M52750 18823
L49600 18823
" />
<path d="M49600 14523
L52750 14523
" />
<path d="M49600 18823
L49600 14523
" />
<path d="M52750 14523
L52750 18823
" />
<path d="M51000 18823
L51000 18523
" />
<path d="M51000 18523
L51400 18523
" />
<path d="M51400 18523
L51400 18823
" />
</g>
<g style="fill:#000000; fill-opacity:0.0; 
stroke:#000000; stroke-width:150; stroke-opacity:1; 
stroke-linecap:round; stroke-linejoin:round;">
<path d="M44897 15759
L42897 15759
" />
<path d="M44897 16759
L42897 16759
" />
<path d="M43897 14759
L43897 17759
" />
<path d="M42897 14759
L44897 14759
" />
<path d="M44897 14759
L44897 17759
" />
<path d="M44897 17759
L42897 17759
" />
<path d="M59897 12759
L42897 12759
" />
<path d="M42897 19759
L59897 19759
" />
<path d="M42897 19759
L42897 12759
" />
<path d="M59897 19759
L59897 12759
" />
<circle cx="43397.6" cy="13259.8" r="500" /> 
<circle cx="43397.6" cy="19259.8" r="500" /> 
<circle cx="59397.6" cy="13259.8" r="500" /> 
<circle cx="59397.6" cy="19259.8" r="500" /> 
<path d="M58897 13759
L43897 13759
" />
<path d="M43897 18759
L58897 18759
" />
<path d="M58897 19759
L58897 18759
" />
<path d="M58897 13759
L58897 12759
" />
<path d="M43897 12759
L43897 13759
" />
<path d="M43897 19759
L43897 18759
" />
</g>
<g style="fill:#000000; fill-opacity:0.0; 
stroke:#000000; stroke-width:59.0551; stroke-opacity:1; 
stroke-linecap:round; stroke-linejoin:round;">
<path d="M41535 28986
L39055 28986
" />
<path d="M41532 29041
L39057 29041
" />
<path d="M41527 29096
L40470 29096
" />
<path d="M40119 29096
L39062 29096
" />
<path d="M41520 29151
L40553 29151
" />
<path d="M40037 29151
L39070 29151
" />
<path d="M41509 29206
L40605 29206
" />
<path d="M39984 29206
L39080 29206
" />
<path d="M41497 29261
L40641 29261
" />
<path d="M39948 29261
L39093 29261
" />
<path d="M41481 29316
L40666 29316
" />
<path d="M39924 29316
L39108 29316
" />
<path d="M41463 29372
L40681 29372
" />
<path d="M39909 29372
L39126 29372
" />
<path d="M41442 29427
L40688 29427
" />
<path d="M39902 29427
L39147 29427
" />
<path d="M41418 29482
L40687 29482
" />
<path d="M39903 29482
L39172 29482
" />
<path d="M41390 29537
L40678 29537
" />
<path d="M39911 29537
L39199 29537
" />
<path d="M41359 29592
L40661 29592
" />
<path d="M39928 29592
L39230 29592
" />
<path d="M41325 29647
L40635 29647
" />
<path d="M39955 29647
L39265 29647
" />
<path d="M41285 29702
L40596 29702
" />
<path d="M39994 29702
L39304 29702
" />
<path d="M41241 29757
L40538 29757
" />
<path d="M40051 29757
L39348 29757
" />
<path d="M41192 29812
L40444 29812
" />
<path d="M40145 29812
L39398 29812
" />
<path d="M41136 29868
L39454 29868
" />
<path d="M41072 29923
L39518 29923
" />
<path d="M40998 29978
L39592 29978
" />
<path d="M40910 30033
L39679 30033
" />
<path d="M40801 30088
L39788 30088
" />
<path d="M40654 30143
L39936 30143
" />
<circle cx="40295.3" cy="29448.8" r="393.701" /> 
<circle cx="40295.3" cy="28956.7" r="1254.92" /> 
<path d="M28424 28651
L25945 28651
" />
<path d="M28422 28706
L25947 28706
" />
<path d="M28417 28761
L27360 28761
" />
<path d="M27009 28761
L25952 28761
" />
<path d="M28409 28816
L27443 28816
" />
<path d="M26926 28816
L25960 28816
" />
<path d="M28399 28872
L27495 28872
" />
<path d="M26874 28872
L25970 28872
" />
<path d="M28387 28927
L27531 28927
" />
<path d="M26838 28927
L25983 28927
" />
<path d="M28371 28982
L27555 28982
" />
<path d="M26814 28982
L25998 28982
" />
<path d="M28353 29037
L27571 29037
" />
<path d="M26798 29037
L26016 29037
" />
<path d="M28332 29092
L27577 29092
" />
<path d="M26792 29092
L26037 29092
" />
<path d="M28308 29147
L27577 29147
" />
<path d="M26792 29147
L26061 29147
" />
<path d="M28280 29202
L27568 29202
" />
<path d="M26801 29202
L26089 29202
" />
<path d="M28249 29257
L27551 29257
" />
<path d="M26818 29257
L26120 29257
" />
<path d="M28214 29312
L27524 29312
" />
<path d="M26845 29312
L26155 29312
" />
<path d="M28175 29368
L27485 29368
" />
<path d="M26884 29368
L26194 29368
" />
<path d="M28131 29423
L27428 29423
" />
<path d="M26941 29423
L26238 29423
" />
<path d="M28082 29478
L27334 29478
" />
<path d="M27035 29478
L26287 29478
" />
<path d="M28025 29533
L26344 29533
" />
<path d="M27962 29588
L26407 29588
" />
<path d="M27888 29643
L26481 29643
" />
<path d="M27800 29698
L26569 29698
" />
<path d="M27691 29753
L26678 29753
" />
<path d="M27544 29809
L26825 29809
" />
<circle cx="27185" cy="29114.2" r="393.701" /> 
<circle cx="27185" cy="28622" r="1254.92" /> 
<path d="M58769 21988
L58769 21200
" />
<path d="M59616 21200
L59616 21988
" />
<path d="M58700 20088
L57913 20088
" />
<path d="M57913 19242
L58700 19242
" />
<path d="M49054 28946
L46575 28946
" />
<path d="M49052 29001
L46577 29001
" />
<path d="M49047 29057
L47990 29057
" />
<path d="M47639 29057
L46582 29057
" />
<path d="M49039 29112
L48073 29112
" />
<path d="M47556 29112
L46590 29112
" />
<path d="M49029 29167
L48125 29167
" />
<path d="M47504 29167
L46600 29167
" />
<path d="M49016 29222
L48161 29222
" />
<path d="M47468 29222
L46612 29222
" />
<path d="M49001 29277
L48185 29277
" />
<path d="M47444 29277
L46628 29277
" />
<path d="M48983 29332
L48201 29332
" />
<path d="M47428 29332
L46646 29332
" />
<path d="M48962 29387
L48207 29387
" />
<path d="M47422 29387
L46667 29387
" />
<path d="M48938 29442
L48207 29442
" />
<path d="M47422 29442
L46691 29442
" />
<path d="M48910 29498
L48198 29498
" />
<path d="M47431 29498
L46719 29498
" />
<path d="M48879 29553
L48181 29553
" />
<path d="M47448 29553
L46750 29553
" />
<path d="M48844 29608
L48154 29608
" />
<path d="M47475 29608
L46785 29608
" />
<path d="M48805 29663
L48115 29663
" />
<path d="M47514 29663
L46824 29663
" />
<path d="M48761 29718
L48058 29718
" />
<path d="M47571 29718
L46868 29718
" />
<path d="M48712 29773
L47964 29773
" />
<path d="M47665 29773
L46917 29773
" />
<path d="M48655 29828
L46974 29828
" />
<path d="M48592 29883
L47037 29883
" />
<path d="M48518 29938
L47111 29938
" />
<path d="M48430 29994
L47199 29994
" />
<path d="M48321 30049
L47308 30049
" />
<path d="M48174 30104
L47455 30104
" />
<circle cx="47815" cy="29409.4" r="393.701" /> 
<circle cx="47815" cy="28917.3" r="1254.92" /> 
<path d="M43537 11030
L43537 11530
" />
<path d="M43847 11325
L43832 11225
" />
<path d="M43832 11225
L43762 11115
" />
<path d="M43762 11115
L43637 11030
" />
<path d="M43637 11030
L43462 11025
" />
<path d="M43462 11025
L43322 11105
" />
<path d="M43322 11105
L43252 11220
" />
<path d="M43252 11220
L43232 11345
" />
<path d="M43232 11345
L43272 11505
" />
<path d="M43272 11505
L43407 11605
" />
<path d="M43407 11605
L43477 11640
" />
<path d="M46837 12530
L43037 12530
" />
<path d="M43037 11330
L43037 10830
" />
<path d="M43037 10830
L46837 10830
" />
<path d="M46837 10830
L46837 12830
" />
<path d="M43037 12830
L43037 11830
" />
<path d="M43037 11830
L43037 11330
" />
<path d="M53182 28392
L53182 28892
" />
<path d="M53492 28687
L53477 28587
" />
<path d="M53477 28587
L53407 28477
" />
<path d="M53407 28477
L53282 28392
" />
<path d="M53282 28392
L53107 28387
" />
<path d="M53107 28387
L52967 28467
" />
<path d="M52967 28467
L52897 28582
" />
<path d="M52897 28582
L52877 28707
" />
<path d="M52877 28707
L52917 28867
" />
<path d="M52917 28867
L53052 28967
" />
<path d="M53052 28967
L53122 29002
" />
<path d="M56482 29892
L52682 29892
" />
<path d="M52682 28692
L52682 28192
" />
<path d="M52682 28192
L56482 28192
" />
<path d="M56482 28192
L56482 30192
" />
<path d="M52682 30192
L52682 29192
" />
<path d="M52682 29192
L52682 28692
" />
<path d="M24311 23641
L24311 23031
" />
<path d="M23799 23641
L24311 23641
" />
<path d="M22149 23081
L19849 23081
" />
<path d="M19849 23081
L19849 22981
" />
<path d="M19849 22981
L22149 22981
" />
<path d="M22149 22981
L22149 23031
" />
<path d="M22149 23031
L19849 23031
" />
<path d="M23199 23131
L23349 23131
" />
<path d="M23199 22931
L23349 22931
" />
<path d="M23199 22131
L23349 22131
" />
<path d="M23199 21931
L23349 21931
" />
<path d="M23199 21131
L23349 21131
" />
<path d="M23199 20931
L23349 20931
" />
<path d="M23199 19931
L23349 19931
" />
<path d="M23199 20131
L23349 20131
" />
<path d="M23199 23531
L22199 23531
" />
<path d="M23199 22531
L22199 22531
" />
<path d="M23199 22531
L23199 21531
" />
<path d="M23199 21531
L22199 21531
" />
<path d="M22199 22131
L19799 22131
" />
<path d="M19799 22131
L19799 21931
" />
<path d="M19799 21931
L22199 21931
" />
<path d="M22199 21531
L22199 22531
" />
<path d="M22199 22531
L22199 23531
" />
<path d="M19799 22931
L22199 22931
" />
<path d="M19799 23131
L19799 22931
" />
<path d="M22199 23131
L19799 23131
" />
<path d="M23199 22531
L22199 22531
" />
<path d="M23199 23531
L23199 22531
" />
<path d="M23199 20531
L22199 20531
" />
<path d="M23199 20531
L23199 19531
" />
<path d="M23199 19531
L22199 19531
" />
<path d="M22199 20131
L19799 20131
" />
<path d="M19799 20131
L19799 19931
" />
<path d="M19799 19931
L22199 19931
" />
<path d="M22199 19531
L22199 20531
" />
<path d="M22199 20531
L22199 21531
" />
<path d="M19799 20931
L22199 20931
" />
<path d="M19799 21131
L19799 20931
" />
<path d="M22199 21131
L19799 21131
" />
<path d="M23199 20531
L22199 20531
" />
<path d="M23199 21531
L23199 20531
" />
<path d="M23199 21531
L22199 21531
" />
</g> 
</svg>
