<?xml version="1.0" standalone="no"?>
 <!DOCTYPE svg PUBLIC "-//W3C//DTD SVG 1.1//EN" 
 "http://www.w3.org/Graphics/SVG/1.1/DTD/svg11.dtd"> 
<svg xmlns="http://www.w3.org/2000/svg" version="1.1" 
    width="29.7002cm" height="21.0007cm" viewBox="0 0 116930 82680 ">
<title>SVG Picture created as proto_trapapoul-F.Fab.svg date 2016/10/11 09:02:36 </title>
  <desc>Picture generated by PCBNEW </desc>
<g style="fill:#000000; fill-opacity:1;stroke:#000000; stroke-opacity:1;
stroke-linecap:round; stroke-linejoin:round; "
 transform="translate(0 0) scale(1 1)">
</g>
<g style="fill:#000000; fill-opacity:0.0; 
stroke:#000000; stroke-width:-0.000393701; stroke-opacity:1; 
stroke-linecap:round; stroke-linejoin:round;">
</g>
<g style="fill:#000000; fill-opacity:0.0; 
stroke:#000000; stroke-width:59.0551; stroke-opacity:1; 
stroke-linecap:round; stroke-linejoin:round;">
<path d="M35196 27086
L52913 27086
" />
<path d="M34803 20393
L34803 26692
" />
<path d="M52913 20000
L35196 20000
" />
<path d="M53307 26692
L53307 20393
" />
<path d="M35196.9 20000 A393.701 393.701 0.0 0 0 34803.1 20393.7 " />
<path d="M34803.1 26692.9 A393.701 393.701 0.0 0 0 35196.9 27086.6 " />
<path d="M52913.4 27086.6 A393.701 393.701 0.0 0 0 53307.1 26692.9 " />
<path d="M53307.1 20393.7 A393.701 393.701 0.0 0 0 52913.4 20000 " />
<circle cx="28110.2" cy="16476.4" r="1574.8" /> 
<path d="M20236.2 10551.2 A1574.8 1574.8 0.0 0 0 18661.4 12126 " />
<path d="M18661 28661
L18661 12125
" />
<path d="M18661.4 28661.4 A1574.8 1574.8 0.0 0 0 20236.2 30236.2 " />
<path d="M58425 30236
L20236 30236
" />
<path d="M60000 28661
L60000 12125
" />
<path d="M58425.2 30236.2 A1574.8 1574.8 0.0 0 0 60000 28661.4 " />
<path d="M60000 12126 A1574.8 1574.8 0.0 0 0 58425.2 10551.2 " />
<path d="M20236 10551
L58425 10551
" />
<path d="M40378 16704
L40434 16722
L40453 16741
L40472 16779
L40472 16835
L40453 16872
L40434 16891
L40397 16910
L40247 16910
L40247 16516
L40378 16516
L40416 16535
L40434 16554
L40453 16591
L40453 16629
L40434 16666
L40416 16685
L40378 16704
L40247 16704
" />
<path d="M40622 16797
L40809 16797
" />
<path d="M40584 16910
L40716 16516
L40847 16910
" />
<path d="M40922 16516
L41147 16516
" />
<path d="M41034 16910
L41034 16516
" />
<path d="M40444 12790
L40463 12734
L40481 12715
L40519 12696
L40575 12696
L40613 12715
L40631 12734
L40650 12771
L40650 12921
L40256 12921
L40256 12790
L40275 12753
L40294 12734
L40331 12715
L40369 12715
L40406 12734
L40425 12753
L40444 12790
L40444 12921
" />
<path d="M40538 12546
L40538 12359
" />
<path d="M40650 12584
L40256 12453
L40650 12321
" />
<path d="M40256 12246
L40256 12021
" />
<path d="M40650 12134
L40256 12134
" />
<path d="M32737 12300
L32737 12525
" />
<path d="M32737 12412
L32343 12412
L32399 12450
L32437 12487
L32455 12525
" />
<path d="M32343 12056
L32343 12019
L32362 11981
L32380 11962
L32418 11944
L32493 11925
L32587 11925
L32662 11944
L32699 11962
L32718 11981
L32737 12019
L32737 12056
L32718 12094
L32699 12112
L32662 12131
L32587 12150
L32493 12150
L32418 12131
L32380 12112
L32362 12094
L32343 12056
" />
<path d="M32474 11756
L32737 11756
" />
<path d="M32512 11756
L32493 11737
L32474 11700
L32474 11644
L32493 11606
L32530 11587
L32737 11587
" />
<path d="M33012 29329
L33012 29554
" />
<path d="M33012 29442
L32619 29442
L32675 29479
L32712 29517
L32731 29554
" />
<path d="M32619 29086
L32619 29048
L32637 29011
L32656 28992
L32694 28973
L32769 28954
L32862 28954
L32937 28973
L32975 28992
L32994 29011
L33012 29048
L33012 29086
L32994 29123
L32975 29142
L32937 29161
L32862 29179
L32769 29179
L32694 29161
L32656 29142
L32637 29123
L32619 29086
" />
<path d="M32619 28711
L32619 28673
L32637 28636
L32656 28617
L32694 28598
L32769 28579
L32862 28579
L32937 28598
L32975 28617
L32994 28636
L33012 28673
L33012 28711
L32994 28748
L32975 28767
L32937 28786
L32862 28804
L32769 28804
L32694 28786
L32656 28767
L32637 28748
L32619 28711
" />
<path d="M32750 28411
L33012 28411
" />
<path d="M32787 28411
L32769 28392
L32750 28354
L32750 28298
L32769 28261
L32806 28242
L33012 28242
" />
<path d="M32806 27923
L32806 28054
" />
<path d="M33012 28054
L32619 28054
L32619 27867
" />
<path d="M30808 29447
L30808 29672
" />
<path d="M30808 29560
L30414 29560
L30470 29597
L30508 29635
L30526 29672
" />
<path d="M30414 29204
L30414 29166
L30433 29129
L30451 29110
L30489 29091
L30564 29072
L30658 29072
L30733 29091
L30770 29110
L30789 29129
L30808 29166
L30808 29204
L30789 29241
L30770 29260
L30733 29279
L30658 29297
L30564 29297
L30489 29279
L30451 29260
L30433 29241
L30414 29204
" />
<path d="M30414 28829
L30414 28791
L30433 28754
L30451 28735
L30489 28716
L30564 28697
L30658 28697
L30733 28716
L30770 28735
L30789 28754
L30808 28791
L30808 28829
L30789 28866
L30770 28885
L30733 28904
L30658 28922
L30564 28922
L30489 28904
L30451 28885
L30433 28866
L30414 28829
" />
<path d="M30545 28529
L30808 28529
" />
<path d="M30583 28529
L30564 28510
L30545 28473
L30545 28416
L30564 28379
L30601 28360
L30808 28360
" />
<path d="M30601 28041
L30601 28173
" />
<path d="M30808 28173
L30414 28173
L30414 27985
" />
<path d="M55788 27724
L55788 27949
" />
<path d="M55788 27836
L55394 27836
L55450 27874
L55488 27911
L55507 27949
" />
<path d="M55394 27480
L55394 27442
L55413 27405
L55432 27386
L55469 27367
L55544 27349
L55638 27349
L55713 27367
L55750 27386
L55769 27405
L55788 27442
L55788 27480
L55769 27517
L55750 27536
L55713 27555
L55638 27574
L55544 27574
L55469 27555
L55432 27536
L55413 27517
L55394 27480
" />
<path d="M55394 27105
L55394 27067
L55413 27030
L55432 27011
L55469 26992
L55544 26974
L55638 26974
L55713 26992
L55750 27011
L55769 27030
L55788 27067
L55788 27105
L55769 27142
L55750 27161
L55713 27180
L55638 27199
L55544 27199
L55469 27180
L55432 27161
L55413 27142
L55394 27105
" />
<path d="M55525 26805
L55788 26805
" />
<path d="M55563 26805
L55544 26786
L55525 26749
L55525 26692
L55544 26655
L55582 26636
L55788 26636
" />
<path d="M51851 14371
L51626 14371
" />
<path d="M51738 14371
L51738 13977
L51701 14033
L51663 14071
L51626 14089
" />
<path d="M52095 13977
L52132 13977
L52170 13996
L52188 14014
L52207 14052
L52226 14127
L52226 14221
L52207 14296
L52188 14333
L52170 14352
L52132 14371
L52095 14371
L52057 14352
L52038 14333
L52020 14296
L52001 14221
L52001 14127
L52020 14052
L52038 14014
L52057 13996
L52095 13977
" />
<path d="M52470 13977
L52507 13977
L52544 13996
L52563 14014
L52582 14052
L52601 14127
L52601 14221
L52582 14296
L52563 14333
L52544 14352
L52507 14371
L52470 14371
L52432 14352
L52413 14333
L52395 14296
L52376 14221
L52376 14127
L52395 14052
L52413 14014
L52432 13996
L52470 13977
" />
<path d="M52769 14108
L52769 14371
" />
<path d="M52769 14146
L52788 14127
L52826 14108
L52882 14108
L52919 14127
L52938 14164
L52938 14371
" />
<path d="M53257 14164
L53126 14164
" />
<path d="M53126 14371
L53126 13977
L53313 13977
" />
<path d="M44196 16910
L44009 16910
L43990 17097
L44009 17079
L44046 17060
L44140 17060
L44177 17079
L44196 17097
L44215 17135
L44215 17229
L44196 17266
L44177 17285
L44140 17304
L44046 17304
L44009 17285
L43990 17266
" />
<path d="M44365 17191
L44552 17191
" />
<path d="M44327 17304
L44459 16910
L44590 17304
" />
<path d="M27575 16437
L27575 16044
" />
<path d="M27744 16437
L27744 16231
L27725 16194
L27688 16175
L27632 16175
L27594 16194
L27575 16212
" />
<path d="M27988 16437
L27950 16419
L27932 16400
L27913 16362
L27913 16250
L27932 16212
L27950 16194
L27988 16175
L28044 16175
L28082 16194
L28100 16212
L28119 16250
L28119 16362
L28100 16400
L28082 16419
L28044 16437
L27988 16437
" />
<path d="M28344 16437
L28307 16419
L28288 16381
L28288 16044
" />
<path d="M28644 16419
L28607 16437
L28532 16437
L28494 16419
L28475 16381
L28475 16231
L28494 16194
L28532 16175
L28607 16175
L28644 16194
L28663 16231
L28663 16269
L28475 16306
" />
<path d="M23592 18111
L23592 17717
" />
<path d="M23592 17904
L23817 17904
" />
<path d="M23817 18111
L23817 17717
" />
<path d="M24004 17904
L24135 17904
" />
<path d="M24191 18111
L24004 18111
L24004 17717
L24191 17717
" />
<path d="M24341 17998
L24529 17998
" />
<path d="M24304 18111
L24435 17717
L24566 18111
" />
<path d="M24698 18111
L24698 17717
L24791 17717
L24848 17736
L24885 17773
L24904 17811
L24923 17886
L24923 17942
L24904 18017
L24885 18054
L24848 18092
L24791 18111
L24698 18111
" />
<path d="M25091 17904
L25223 17904
" />
<path d="M25279 18111
L25091 18111
L25091 17717
L25279 17717
" />
<path d="M25673 18111
L25541 17923
" />
<path d="M25448 18111
L25448 17717
L25598 17717
L25635 17736
L25654 17754
L25673 17792
L25673 17848
L25654 17886
L25635 17904
L25598 17923
L25448 17923
" />
<path d="M25748 18148
L26047 18148
" />
<path d="M26122 17754
L26141 17736
L26179 17717
L26272 17717
L26310 17736
L26329 17754
L26347 17792
L26347 17829
L26329 17886
L26104 18111
L26347 18111
" />
<path d="M27017 13819
L27017 13426
" />
<path d="M27017 13613
L27242 13613
" />
<path d="M27242 13819
L27242 13426
" />
<path d="M27429 13613
L27560 13613
" />
<path d="M27617 13819
L27429 13819
L27429 13426
L27617 13426
" />
<path d="M27767 13707
L27954 13707
" />
<path d="M27729 13819
L27860 13426
L27992 13819
" />
<path d="M28123 13819
L28123 13426
L28217 13426
L28273 13444
L28310 13482
L28329 13519
L28348 13594
L28348 13651
L28329 13726
L28310 13763
L28273 13801
L28217 13819
L28123 13819
" />
<path d="M28517 13613
L28648 13613
" />
<path d="M28704 13819
L28517 13819
L28517 13426
L28704 13426
" />
<path d="M29098 13819
L28967 13632
" />
<path d="M28873 13819
L28873 13426
L29023 13426
L29060 13444
L29079 13463
L29098 13501
L29098 13557
L29079 13594
L29060 13613
L29023 13632
L28873 13632
" />
<path d="M29173 13857
L29473 13857
" />
<path d="M29548 13463
L29566 13444
L29604 13426
L29698 13426
L29735 13444
L29754 13463
L29773 13501
L29773 13538
L29754 13594
L29529 13819
L29773 13819
" />
<path d="M26485 25315
L26485 24922
" />
<path d="M26485 25109
L26710 25109
" />
<path d="M26710 25315
L26710 24922
" />
<path d="M26898 25109
L27029 25109
" />
<path d="M27085 25315
L26898 25315
L26898 24922
L27085 24922
" />
<path d="M27235 25203
L27423 25203
" />
<path d="M27198 25315
L27329 24922
L27460 25315
" />
<path d="M27591 25315
L27591 24922
L27685 24922
L27741 24940
L27779 24978
L27798 25015
L27816 25090
L27816 25147
L27798 25222
L27779 25259
L27741 25297
L27685 25315
L27591 25315
" />
<path d="M27985 25109
L28116 25109
" />
<path d="M28173 25315
L27985 25315
L27985 24922
L28173 24922
" />
<path d="M28566 25315
L28435 25128
" />
<path d="M28341 25315
L28341 24922
L28491 24922
L28529 24940
L28547 24959
L28566 24997
L28566 25053
L28547 25090
L28529 25109
L28491 25128
L28341 25128
" />
<path d="M28641 25353
L28941 25353
" />
<path d="M29016 24959
L29035 24940
L29072 24922
L29166 24922
L29204 24940
L29222 24959
L29241 24997
L29241 25034
L29222 25090
L28997 25315
L29241 25315
" />
<path d="M47568 9981
L47568 9587
" />
<path d="M47568 9775
L47793 9775
" />
<path d="M47793 9981
L47793 9587
" />
<path d="M47980 9775
L48112 9775
" />
<path d="M48168 9981
L47980 9981
L47980 9587
L48168 9587
" />
<path d="M48318 9868
L48505 9868
" />
<path d="M48280 9981
L48412 9587
L48543 9981
" />
<path d="M48674 9981
L48674 9587
L48768 9587
L48824 9606
L48862 9643
L48880 9681
L48899 9756
L48899 9812
L48880 9887
L48862 9925
L48824 9962
L48768 9981
L48674 9981
" />
<path d="M49068 9775
L49199 9775
" />
<path d="M49255 9981
L49068 9981
L49068 9587
L49255 9587
" />
<path d="M49649 9981
L49518 9793
" />
<path d="M49424 9981
L49424 9587
L49574 9587
L49611 9606
L49630 9625
L49649 9662
L49649 9718
L49630 9756
L49611 9775
L49574 9793
L49424 9793
" />
<path d="M49724 10018
L50024 10018
" />
<path d="M50099 9625
L50118 9606
L50155 9587
L50249 9587
L50286 9606
L50305 9625
L50324 9662
L50324 9700
L50305 9756
L50080 9981
L50324 9981
" />
<path d="M55304 14941
L55304 14548
" />
<path d="M55304 14735
L55529 14735
" />
<path d="M55529 14941
L55529 14548
" />
<path d="M55717 14735
L55848 14735
" />
<path d="M55904 14941
L55717 14941
L55717 14548
L55904 14548
" />
<path d="M56054 14829
L56242 14829
" />
<path d="M56017 14941
L56148 14548
L56279 14941
" />
<path d="M56410 14941
L56410 14548
L56504 14548
L56560 14566
L56598 14604
L56616 14641
L56635 14716
L56635 14773
L56616 14848
L56598 14885
L56560 14923
L56504 14941
L56410 14941
" />
<path d="M56804 14735
L56935 14735
" />
<path d="M56991 14941
L56804 14941
L56804 14548
L56991 14548
" />
<path d="M57385 14941
L57254 14754
" />
<path d="M57160 14941
L57160 14548
L57310 14548
L57348 14566
L57366 14585
L57385 14623
L57385 14679
L57366 14716
L57348 14735
L57310 14754
L57160 14754
" />
<path d="M57460 14979
L57760 14979
" />
<path d="M58023 14548
L57948 14548
L57910 14566
L57891 14585
L57854 14641
L57835 14716
L57835 14866
L57854 14904
L57873 14923
L57910 14941
L57985 14941
L58023 14923
L58041 14904
L58060 14866
L58060 14773
L58041 14735
L58023 14716
L57985 14698
L57910 14698
L57873 14716
L57854 14735
L57835 14773
" />
<path d="M45107 14922
L45107 14528
" />
<path d="M45107 14715
L45332 14715
" />
<path d="M45332 14922
L45332 14528
" />
<path d="M45520 14715
L45651 14715
" />
<path d="M45707 14922
L45520 14922
L45520 14528
L45707 14528
" />
<path d="M45857 14809
L46045 14809
" />
<path d="M45820 14922
L45951 14528
L46082 14922
" />
<path d="M46213 14922
L46213 14528
L46307 14528
L46363 14547
L46401 14584
L46420 14622
L46438 14697
L46438 14753
L46420 14828
L46401 14865
L46363 14903
L46307 14922
L46213 14922
" />
<path d="M46607 14715
L46738 14715
" />
<path d="M46795 14922
L46607 14922
L46607 14528
L46795 14528
" />
<path d="M47188 14922
L47057 14734
" />
<path d="M46963 14922
L46963 14528
L47113 14528
L47151 14547
L47170 14565
L47188 14603
L47188 14659
L47170 14697
L47151 14715
L47113 14734
L46963 14734
" />
<path d="M47263 14959
L47563 14959
" />
<path d="M47826 14528
L47751 14528
L47713 14547
L47694 14565
L47657 14622
L47638 14697
L47638 14847
L47657 14884
L47676 14903
L47713 14922
L47788 14922
L47826 14903
L47844 14884
L47863 14847
L47863 14753
L47844 14715
L47826 14697
L47788 14678
L47713 14678
L47676 14697
L47657 14715
L47638 14753
" />
<path d="M41901 16083
L41901 15689
L42051 15689
L42089 15708
L42108 15727
L42126 15764
L42126 15821
L42108 15858
L42089 15877
L42051 15896
L41901 15896
" />
<path d="M42426 15877
L42483 15896
L42501 15914
L42520 15952
L42520 16008
L42501 16046
L42483 16064
L42445 16083
L42295 16083
L42295 15689
L42426 15689
L42464 15708
L42483 15727
L42501 15764
L42501 15802
L42483 15839
L42464 15858
L42426 15877
L42295 15877
" />
<path d="M42670 16064
L42726 16083
L42820 16083
L42858 16064
L42876 16046
L42895 16008
L42895 15971
L42876 15933
L42858 15914
L42820 15896
L42745 15877
L42708 15858
L42689 15839
L42670 15802
L42670 15764
L42689 15727
L42708 15708
L42745 15689
L42839 15689
L42895 15708
" />
<path d="M43045 16064
L43101 16083
L43195 16083
L43233 16064
L43251 16046
L43270 16008
L43270 15971
L43251 15933
L43233 15914
L43195 15896
L43120 15877
L43083 15858
L43064 15839
L43045 15802
L43045 15764
L43064 15727
L43083 15708
L43120 15689
L43214 15689
L43270 15708
" />
<path d="M43607 15821
L43607 16083
" />
<path d="M43514 15671
L43420 15952
L43664 15952
" />
<path d="M43776 15689
L44020 15689
L43889 15839
L43945 15839
L43982 15858
L44001 15877
L44020 15914
L44020 16008
L44001 16046
L43982 16064
L43945 16083
L43832 16083
L43795 16064
L43776 16046
" />
<path d="M44170 15727
L44189 15708
L44226 15689
L44320 15689
L44357 15708
L44376 15727
L44395 15764
L44395 15802
L44376 15858
L44151 16083
L44395 16083
" />
<path d="M44639 15689
L44676 15689
L44714 15708
L44732 15727
L44751 15764
L44770 15839
L44770 15933
L44751 16008
L44732 16046
L44714 16064
L44676 16083
L44639 16083
L44601 16064
L44582 16046
L44564 16008
L44545 15933
L44545 15839
L44564 15764
L44582 15727
L44601 15708
L44639 15689
" />
<path d="M31628 28421
L31890 28421
" />
<path d="M31478 28515
L31759 28608
L31759 28365
" />
<path d="M31890 28215
L31497 28215
" />
<path d="M31740 28177
L31890 28065
" />
<path d="M31628 28065
L31778 28215
" />
<path d="M31497 27934
L31497 27671
L31890 27840
" />
<path d="M29541 28578
L29804 28578
" />
<path d="M29391 28672
L29672 28766
L29672 28522
" />
<path d="M29804 28372
L29410 28372
" />
<path d="M29654 28335
L29804 28222
" />
<path d="M29541 28222
L29691 28372
" />
<path d="M29410 28091
L29410 27829
L29804 27997
" />
<path d="M55907 21733
L55682 21733
" />
<path d="M55794 21733
L55794 21339
L55757 21395
L55719 21433
L55682 21452
" />
<path d="M56151 21339
L56188 21339
L56226 21358
L56244 21377
L56263 21414
L56282 21489
L56282 21583
L56263 21658
L56244 21695
L56226 21714
L56188 21733
L56151 21733
L56113 21714
L56094 21695
L56076 21658
L56057 21583
L56057 21489
L56076 21414
L56094 21377
L56113 21358
L56151 21339
" />
<path d="M56451 21733
L56451 21339
" />
<path d="M56488 21583
L56601 21733
" />
<path d="M56601 21470
L56451 21620
" />
<path d="M56261 25079
L56036 25079
" />
<path d="M56149 25079
L56149 24685
L56111 24742
L56074 24779
L56036 24798
" />
<path d="M56505 24685
L56542 24685
L56580 24704
L56599 24723
L56617 24760
L56636 24835
L56636 24929
L56617 25004
L56599 25042
L56580 25060
L56542 25079
L56505 25079
L56467 25060
L56449 25042
L56430 25004
L56411 24929
L56411 24835
L56430 24760
L56449 24723
L56467 24704
L56505 24685
" />
<path d="M56805 25079
L56805 24685
" />
<path d="M56842 24929
L56955 25079
" />
<path d="M56955 24817
L56805 24967
" />
<path d="M58603 25755
L58603 25980
" />
<path d="M58603 25868
L58209 25868
L58265 25905
L58303 25943
L58322 25980
" />
<path d="M58603 25586
L58209 25586
" />
<path d="M58453 25549
L58603 25436
" />
<path d="M58340 25436
L58490 25586
" />
<path d="M58693 23701
L58468 23701
" />
<path d="M58580 23701
L58580 23308
L58543 23364
L58505 23401
L58468 23420
" />
<path d="M58862 23701
L58862 23308
" />
<path d="M58899 23551
L59011 23701
" />
<path d="M59011 23439
L58862 23589
" />
<path d="M43065 14066
L43327 14066
" />
<path d="M42915 14160
L43196 14253
L43196 14010
" />
<path d="M43290 13860
L43308 13841
L43327 13860
L43308 13878
L43290 13860
L43327 13860
" />
<path d="M42934 13710
L42934 13447
L43327 13616
" />
<path d="M43327 13297
L42934 13297
" />
<path d="M43177 13260
L43327 13147
" />
<path d="M43065 13147
L43215 13297
" />
<path d="M58072 17185
L57847 17185
" />
<path d="M57960 17185
L57960 16792
L57922 16848
L57885 16886
L57847 16904
" />
<path d="M58316 16792
L58353 16792
L58391 16811
L58410 16829
L58428 16867
L58447 16942
L58447 17035
L58428 17110
L58410 17148
L58391 17167
L58353 17185
L58316 17185
L58278 17167
L58260 17148
L58241 17110
L58222 17035
L58222 16942
L58241 16867
L58260 16829
L58278 16811
L58316 16792
" />
<path d="M58616 17185
L58616 16792
" />
<path d="M58653 17035
L58766 17185
" />
<path d="M58766 16923
L58616 17073
" />
<path d="M33034 27250
L33221 27250
" />
<path d="M32996 27363
L33128 26969
L33259 27363
" />
<path d="M33353 26969
L33596 26969
L33465 27119
L33521 27119
L33559 27138
L33577 27156
L33596 27194
L33596 27288
L33577 27325
L33559 27344
L33521 27363
L33409 27363
L33371 27344
L33353 27325
" />
<path d="M33971 27363
L33746 27363
" />
<path d="M33859 27363
L33859 26969
L33821 27025
L33784 27063
L33746 27081
" />
<path d="M34309 27100
L34309 27363
" />
<path d="M34215 26950
L34121 27231
L34365 27231
" />
<path d="M34684 27100
L34684 27363
" />
<path d="M34590 26950
L34496 27231
L34740 27231
" />
<path d="M32994 24750
L33182 24750
" />
<path d="M32957 24863
L33088 24469
L33219 24863
" />
<path d="M33313 24469
L33557 24469
L33426 24619
L33482 24619
L33519 24638
L33538 24656
L33557 24694
L33557 24788
L33538 24825
L33519 24844
L33482 24863
L33369 24863
L33332 24844
L33313 24825
" />
<path d="M33932 24863
L33707 24863
" />
<path d="M33819 24863
L33819 24469
L33782 24525
L33744 24563
L33707 24581
" />
<path d="M34269 24600
L34269 24863
" />
<path d="M34176 24450
L34082 24731
L34326 24731
" />
<path d="M34644 24600
L34644 24863
" />
<path d="M34550 24450
L34457 24731
L34700 24731
" />
<path d="M57039 21201
L57264 21201
" />
<path d="M57152 21595
L57152 21201
" />
<path d="M57583 21595
L57395 21595
L57395 21201
" />
<path d="M57883 21332
L57883 21595
" />
<path d="M57789 21182
L57695 21464
L57939 21464
" />
<path d="M58052 21201
L58295 21201
L58164 21351
L58220 21351
L58258 21370
L58277 21389
L58295 21426
L58295 21520
L58277 21557
L58258 21576
L58220 21595
L58108 21595
L58070 21576
L58052 21557
" />
<path d="M58670 21595
L58445 21595
" />
<path d="M58558 21595
L58558 21201
L58520 21257
L58483 21295
L58445 21314
" />
<path d="M55299 26063
L55299 25670
L55431 25951
L55562 25670
L55562 26063
" />
<path d="M55974 26026
L55956 26045
L55899 26063
L55862 26063
L55806 26045
L55768 26007
L55749 25970
L55731 25895
L55731 25838
L55749 25763
L55768 25726
L55806 25688
L55862 25670
L55899 25670
L55956 25688
L55974 25707
" />
<path d="M56143 26063
L56143 25670
L56293 25670
L56331 25688
L56349 25707
L56368 25745
L56368 25801
L56349 25838
L56331 25857
L56293 25876
L56143 25876
" />
<path d="M56706 25670
L56631 25670
L56593 25688
L56574 25707
L56537 25763
L56518 25838
L56518 25988
L56537 26026
L56556 26045
L56593 26063
L56668 26063
L56706 26045
L56724 26026
L56743 25988
L56743 25895
L56724 25857
L56706 25838
L56668 25820
L56593 25820
L56556 25838
L56537 25857
L56518 25895
" />
<path d="M56987 25670
L57024 25670
L57062 25688
L57080 25707
L57099 25745
L57118 25820
L57118 25913
L57099 25988
L57080 26026
L57062 26045
L57024 26063
L56987 26063
L56949 26045
L56931 26026
L56912 25988
L56893 25913
L56893 25820
L56912 25745
L56931 25707
L56949 25688
L56987 25670
" />
<path d="M57362 25670
L57399 25670
L57437 25688
L57455 25707
L57474 25745
L57493 25820
L57493 25913
L57474 25988
L57455 26026
L57437 26045
L57399 26063
L57362 26063
L57324 26045
L57305 26026
L57287 25988
L57268 25913
L57268 25820
L57287 25745
L57305 25707
L57324 25688
L57362 25670
" />
<path d="M57868 26063
L57643 26063
" />
<path d="M57755 26063
L57755 25670
L57718 25726
L57680 25763
L57643 25782
" />
<path d="M52278 17841
L51885 17841
L51885 17691
L51903 17654
L51922 17635
L51960 17616
L52016 17616
L52053 17635
L52072 17654
L52091 17691
L52091 17841
" />
<path d="M52241 17223
L52260 17241
L52278 17298
L52278 17335
L52260 17391
L52222 17429
L52185 17448
L52110 17466
L52053 17466
L51978 17448
L51941 17429
L51903 17391
L51885 17335
L51885 17298
L51903 17241
L51922 17223
" />
<path d="M52072 16923
L52072 17054
" />
<path d="M52278 17054
L51885 17054
L51885 16866
" />
<path d="M52053 16660
L52035 16698
L52016 16716
L51978 16735
L51960 16735
L51922 16716
L51903 16698
L51885 16660
L51885 16585
L51903 16548
L51922 16529
L51960 16510
L51978 16510
L52016 16529
L52035 16548
L52053 16585
L52053 16660
L52072 16698
L52091 16716
L52128 16735
L52203 16735
L52241 16716
L52260 16698
L52278 16660
L52278 16585
L52260 16548
L52241 16529
L52203 16510
L52128 16510
L52091 16529
L52072 16548
L52053 16585
" />
<path d="M51885 16154
L51885 16342
L52072 16360
L52053 16342
L52035 16304
L52035 16210
L52053 16173
L52072 16154
L52110 16135
L52203 16135
L52241 16154
L52260 16173
L52278 16210
L52278 16304
L52260 16342
L52241 16360
" />
<path d="M51885 16004
L51885 15742
L52278 15910
" />
<path d="M52016 15423
L52278 15423
" />
<path d="M51866 15517
L52147 15610
L52147 15367
" />
<path d="M38478 29603
L38741 29603
" />
<path d="M38328 29697
L38609 29790
L38609 29547
" />
<path d="M38347 29434
L38347 29172
L38741 29341
" />
<path d="M38347 28947
L38347 28909
L38366 28872
L38384 28853
L38422 28834
L38497 28816
L38591 28816
L38666 28834
L38703 28853
L38722 28872
L38741 28909
L38741 28947
L38722 28984
L38703 29003
L38666 29022
L38591 29041
L38497 29041
L38422 29022
L38384 29003
L38366 28984
L38347 28947
" />
<path d="M38478 28478
L38741 28478
" />
<path d="M38478 28647
L38684 28647
L38722 28628
L38741 28591
L38741 28534
L38722 28497
L38703 28478
" />
<path d="M38534 28159
L38534 28291
" />
<path d="M38741 28291
L38347 28291
L38347 28103
" />
<path d="M25506 29288
L25768 29288
" />
<path d="M25356 29382
L25637 29476
L25637 29232
" />
<path d="M25374 29119
L25374 28857
L25768 29026
" />
<path d="M25374 28632
L25374 28594
L25393 28557
L25412 28538
L25449 28519
L25524 28501
L25618 28501
L25693 28519
L25731 28538
L25749 28557
L25768 28594
L25768 28632
L25749 28669
L25731 28688
L25693 28707
L25618 28726
L25524 28726
L25449 28707
L25412 28688
L25393 28669
L25374 28632
" />
<path d="M25506 28163
L25768 28163
" />
<path d="M25506 28332
L25712 28332
L25749 28313
L25768 28276
L25768 28219
L25749 28182
L25731 28163
" />
<path d="M25562 27844
L25562 27976
" />
<path d="M25768 27976
L25374 27976
L25374 27788
" />
<path d="M59292 21809
L59292 22034
" />
<path d="M59292 21921
L58898 21921
L58954 21959
L58992 21996
L59011 22034
" />
<path d="M58898 21565
L58898 21527
L58917 21490
L58936 21471
L58973 21452
L59048 21434
L59142 21434
L59217 21452
L59254 21471
L59273 21490
L59292 21527
L59292 21565
L59273 21602
L59254 21621
L59217 21640
L59142 21659
L59048 21659
L58973 21640
L58936 21621
L58917 21602
L58898 21565
" />
<path d="M59292 21265
L58898 21265
" />
<path d="M59142 21227
L59292 21115
" />
<path d="M59029 21115
L59179 21265
" />
<path d="M58092 19764
L57867 19764
" />
<path d="M57979 19764
L57979 19371
L57942 19427
L57904 19464
L57867 19483
" />
<path d="M58336 19371
L58373 19371
L58411 19389
L58429 19408
L58448 19446
L58467 19520
L58467 19614
L58448 19689
L58429 19727
L58411 19745
L58373 19764
L58336 19764
L58298 19745
L58279 19727
L58261 19689
L58242 19614
L58242 19520
L58261 19446
L58279 19408
L58298 19389
L58336 19371
" />
<path d="M58636 19764
L58636 19371
" />
<path d="M58673 19614
L58786 19764
" />
<path d="M58786 19502
L58636 19652
" />
<path d="M45998 29564
L46260 29564
" />
<path d="M45848 29657
L46129 29751
L46129 29507
" />
<path d="M45867 29395
L45867 29132
L46260 29301
" />
<path d="M45867 28907
L45867 28870
L45885 28832
L45904 28814
L45942 28795
L46017 28776
L46110 28776
L46185 28795
L46223 28814
L46242 28832
L46260 28870
L46260 28907
L46242 28945
L46223 28964
L46185 28982
L46110 29001
L46017 29001
L45942 28982
L45904 28964
L45885 28945
L45867 28907
" />
<path d="M45998 28439
L46260 28439
" />
<path d="M45998 28607
L46204 28607
L46242 28589
L46260 28551
L46260 28495
L46242 28458
L46223 28439
" />
<path d="M46054 28120
L46054 28251
" />
<path d="M46260 28251
L45867 28251
L45867 28064
" />
<path d="M45927 11378
L45702 11378
" />
<path d="M45814 11378
L45814 10985
L45777 11041
L45739 11078
L45702 11097
" />
<path d="M46170 10985
L46208 10985
L46245 11003
L46264 11022
L46283 11060
L46302 11135
L46302 11228
L46283 11303
L46264 11341
L46245 11360
L46208 11378
L46170 11378
L46133 11360
L46114 11341
L46095 11303
L46077 11228
L46077 11135
L46095 11060
L46114 11022
L46133 11003
L46170 10985
" />
<path d="M46470 11378
L46470 10985
" />
<path d="M46508 11228
L46620 11378
" />
<path d="M46620 11116
L46470 11266
" />
<path d="M53938 28741
L53713 28741
" />
<path d="M53826 28741
L53826 28347
L53788 28403
L53751 28441
L53713 28459
" />
<path d="M54182 28347
L54220 28347
L54257 28366
L54276 28384
L54295 28422
L54313 28497
L54313 28591
L54295 28666
L54276 28703
L54257 28722
L54220 28741
L54182 28741
L54145 28722
L54126 28703
L54107 28666
L54088 28591
L54088 28497
L54107 28422
L54126 28384
L54145 28366
L54182 28347
" />
<path d="M54482 28741
L54482 28347
" />
<path d="M54520 28591
L54632 28741
" />
<path d="M54632 28478
L54482 28628
" />
<path d="M19721 12107
L19721 11713
" />
<path d="M19890 12107
L19890 11901
L19871 11863
L19834 11844
L19777 11844
L19740 11863
L19721 11882
" />
<path d="M20134 12107
L20096 12088
L20077 12069
L20059 12032
L20059 11919
L20077 11882
L20096 11863
L20134 11844
L20190 11844
L20227 11863
L20246 11882
L20265 11919
L20265 12032
L20246 12069
L20227 12088
L20190 12107
L20134 12107
" />
<path d="M20490 12107
L20452 12088
L20434 12050
L20434 11713
" />
<path d="M20790 12088
L20752 12107
L20677 12107
L20640 12088
L20621 12050
L20621 11901
L20640 11863
L20677 11844
L20752 11844
L20790 11863
L20808 11901
L20808 11938
L20621 11976
" />
<path d="M19721 28642
L19721 28248
" />
<path d="M19890 28642
L19890 28436
L19871 28398
L19834 28380
L19777 28380
L19740 28398
L19721 28417
" />
<path d="M20134 28642
L20096 28623
L20077 28605
L20059 28567
L20059 28455
L20077 28417
L20096 28398
L20134 28380
L20190 28380
L20227 28398
L20246 28417
L20265 28455
L20265 28567
L20246 28605
L20227 28623
L20190 28642
L20134 28642
" />
<path d="M20490 28642
L20452 28623
L20434 28586
L20434 28248
" />
<path d="M20790 28623
L20752 28642
L20677 28642
L20640 28623
L20621 28586
L20621 28436
L20640 28398
L20677 28380
L20752 28380
L20790 28398
L20808 28436
L20808 28473
L20621 28511
" />
<path d="M36237 12107
L36237 11713
" />
<path d="M36406 12107
L36406 11901
L36387 11863
L36349 11844
L36293 11844
L36256 11863
L36237 11882
" />
<path d="M36649 12107
L36612 12088
L36593 12069
L36574 12032
L36574 11919
L36593 11882
L36612 11863
L36649 11844
L36706 11844
L36743 11863
L36762 11882
L36781 11919
L36781 12032
L36762 12069
L36743 12088
L36706 12107
L36649 12107
" />
<path d="M37005 12107
L36968 12088
L36949 12050
L36949 11713
" />
<path d="M37305 12088
L37268 12107
L37193 12107
L37155 12088
L37137 12050
L37137 11901
L37155 11863
L37193 11844
L37268 11844
L37305 11863
L37324 11901
L37324 11938
L37137 11976
" />
<path d="M36257 28622
L36257 28229
" />
<path d="M36425 28622
L36425 28416
L36407 28379
L36369 28360
L36313 28360
L36275 28379
L36257 28398
" />
<path d="M36669 28622
L36631 28604
L36613 28585
L36594 28547
L36594 28435
L36613 28398
L36631 28379
L36669 28360
L36725 28360
L36763 28379
L36781 28398
L36800 28435
L36800 28547
L36781 28585
L36763 28604
L36725 28622
L36669 28622
" />
<path d="M37025 28622
L36988 28604
L36969 28566
L36969 28229
" />
<path d="M37325 28604
L37288 28622
L37213 28622
L37175 28604
L37156 28566
L37156 28416
L37175 28379
L37213 28360
L37288 28360
L37325 28379
L37344 28416
L37344 28454
L37156 28491
" />
<path d="M57890 12126
L57890 11733
" />
<path d="M58059 12126
L58059 11920
L58040 11883
L58003 11864
L57947 11864
L57909 11883
L57890 11901
" />
<path d="M58303 12126
L58265 12108
L58247 12089
L58228 12051
L58228 11939
L58247 11901
L58265 11883
L58303 11864
L58359 11864
L58397 11883
L58415 11901
L58434 11939
L58434 12051
L58415 12089
L58397 12108
L58359 12126
L58303 12126
" />
<path d="M58659 12126
L58622 12108
L58603 12070
L58603 11733
" />
<path d="M58959 12108
L58922 12126
L58847 12126
L58809 12108
L58790 12070
L58790 11920
L58809 11883
L58847 11864
L58922 11864
L58959 11883
L58978 11920
L58978 11958
L58790 11995
" />
<path d="M58107 28859
L58107 28465
" />
<path d="M58276 28859
L58276 28652
L58257 28615
L58219 28596
L58163 28596
L58126 28615
L58107 28634
" />
<path d="M58519 28859
L58482 28840
L58463 28821
L58444 28784
L58444 28671
L58463 28634
L58482 28615
L58519 28596
L58576 28596
L58613 28615
L58632 28634
L58651 28671
L58651 28784
L58632 28821
L58613 28840
L58576 28859
L58519 28859
" />
<path d="M58876 28859
L58838 28840
L58819 28802
L58819 28465
" />
<path d="M59176 28840
L59138 28859
L59063 28859
L59026 28840
L59007 28802
L59007 28652
L59026 28615
L59063 28596
L59138 28596
L59176 28615
L59194 28652
L59194 28690
L59007 28727
" />
<path d="M24438 22638
L24438 22245
" />
<path d="M24438 22432
L24663 22432
" />
<path d="M24663 22638
L24663 22245
" />
<path d="M24850 22432
L24982 22432
" />
<path d="M25038 22638
L24850 22638
L24850 22245
L25038 22245
" />
<path d="M25188 22526
L25375 22526
" />
<path d="M25150 22638
L25282 22245
L25413 22638
" />
<path d="M25544 22638
L25544 22245
L25638 22245
L25694 22263
L25732 22301
L25750 22338
L25769 22413
L25769 22470
L25750 22544
L25732 22582
L25694 22619
L25638 22638
L25544 22638
" />
<path d="M25938 22432
L26069 22432
" />
<path d="M26125 22638
L25938 22638
L25938 22245
L26125 22245
" />
<path d="M26519 22638
L26388 22451
" />
<path d="M26294 22638
L26294 22245
L26444 22245
L26482 22263
L26500 22282
L26519 22320
L26519 22376
L26500 22413
L26482 22432
L26444 22451
L26294 22451
" />
<path d="M26594 22676
L26894 22676
" />
<path d="M27156 22376
L27156 22638
" />
<path d="M27063 22226
L26969 22507
L27213 22507
" />
</g> 
</svg>
