M48
;DRILL file {KiCad 4.0.2-stable} date 10/10/2016 15:11:37
;FORMAT={-:-/ absolute / metric / decimal}
FMAT,2
METRIC,TZ
T1C0.500
T2C0.599
T3C0.600
T4C0.800
T5C0.813
T6C0.998
T7C1.001
T8C1.016
T9C1.199
T10C3.000
T11C8.000
%
G90
G05
M71
T1
X62.6Y-46.6
X65.65Y-29.9
X66.8Y-64.8
X72.9Y-71.95
X80.25Y-60.2
X80.35Y-56.25
X80.75Y-49.1
X80.95Y-45.15
X81.8Y-62.6
X81.95Y-48.35
X84.05Y-47.4
X84.45Y-42.9
X99.55Y-38.
X100.4Y-36.6
X102.25Y-70.45
X115.15Y-39.8
X120.5Y-29.05
X120.95Y-43.5
X123.45Y-44.2
X125.45Y-71.8
X125.8Y-74.25
X125.95Y-70.45
X129.6Y-35.75
X136.1Y-51.85
X140.05Y-43.7
X140.05Y-47.
X140.2Y-41.25
X142.25Y-42.2
X142.65Y-75.85
X143.15Y-70.2
X146.95Y-46.2
X150.55Y-65.75
X151.85Y-55.3
T2
X74.301Y-60.15
X75.799Y-60.15
T3
X80.46Y-64.8
X80.46Y-67.25
X81.73Y-64.8
X81.73Y-67.25
X83.Y-64.8
X83.Y-67.25
T4
X69.05Y-71.45
X69.05Y-73.95
X100.6Y-42.
X102.35Y-72.3
X102.35Y-74.8
X103.3Y-29.05
X103.3Y-34.45
X106.Y-42.
X108.15Y-39.1
X113.65Y-71.75
X117.1Y-39.45
X121.45Y-72.2
X121.45Y-74.7
X137.25Y-44.15
T5
X111.6Y-30.05
X114.14Y-30.05
X116.68Y-30.05
X136.1Y-74.15
X138.64Y-74.15
X141.18Y-74.15
T6
X60.45Y-50.88
X60.45Y-53.42
X60.45Y-55.96
X112.77Y-33.68
X115.31Y-33.68
X117.85Y-33.68
X120.39Y-33.68
X122.93Y-33.68
X125.47Y-33.68
X128.01Y-33.68
T7
X111.8Y-37.25
X112.77Y-48.92
X114.34Y-37.25
X115.31Y-48.92
X116.88Y-37.25
X117.85Y-48.92
X119.42Y-37.25
X120.39Y-48.92
X121.96Y-37.25
X122.93Y-48.92
X125.47Y-48.92
X128.01Y-48.92
X130.55Y-33.68
X130.55Y-48.92
X133.09Y-48.92
X135.63Y-33.68
X135.63Y-48.92
X137.2Y-37.3
X138.17Y-33.68
X138.17Y-48.92
X139.74Y-37.3
X140.71Y-33.68
X140.71Y-48.92
X142.28Y-37.3
X143.25Y-33.68
X144.82Y-37.3
X147.36Y-37.3
T8
X60.45Y-58.5
X63.4Y-48.65
X63.4Y-51.19
X69.26Y-66.45
X70.85Y-31.65
X71.8Y-66.45
X73.39Y-31.65
X123.4Y-29.25
X124.5Y-37.25
X125.94Y-29.25
X144.7Y-57.66
X144.7Y-60.2
X149.9Y-37.3
T9
X144.861Y-43.151
X149.9Y-40.651
X149.9Y-45.65
T10
X51.45Y-30.8
X51.45Y-30.8
X51.45Y-72.8
X51.45Y-72.8
X93.4Y-30.8
X93.4Y-30.8
X93.45Y-72.75
X93.45Y-72.75
X148.4Y-30.85
X148.4Y-30.85
X148.45Y-72.8
X148.45Y-72.8
T11
X71.4Y-41.8
T0
M30
