<?xml version="1.0" standalone="no"?>
 <!DOCTYPE svg PUBLIC "-//W3C//DTD SVG 1.1//EN" 
 "http://www.w3.org/Graphics/SVG/1.1/DTD/svg11.dtd"> 
<svg xmlns="http://www.w3.org/2000/svg" version="1.1" 
    width="29.7002cm" height="21.0007cm" viewBox="0 0 116930 82680 ">
<title>SVG Picture created as proto_trapapoul-B.SilkS.svg date 2016/10/11 09:02:36 </title>
  <desc>Picture generated by PCBNEW </desc>
<g style="fill:#000000; fill-opacity:1;stroke:#000000; stroke-opacity:1;
stroke-linecap:round; stroke-linejoin:round; "
 transform="translate(0 0) scale(1 1)">
</g>
<g style="fill:#000000; fill-opacity:0.0; 
stroke:#000000; stroke-width:-0.000393701; stroke-opacity:1; 
stroke-linecap:round; stroke-linejoin:round;">
</g>
<g style="fill:#000000; fill-opacity:0.0; 
stroke:#000000; stroke-width:59.0551; stroke-opacity:1; 
stroke-linecap:round; stroke-linejoin:round;">
<path d="M35196 27086
L52913 27086
" />
<path d="M34803 20393
L34803 26692
" />
<path d="M52913 20000
L35196 20000
" />
<path d="M53307 26692
L53307 20393
" />
<path d="M35196.9 20000 A393.701 393.701 0.0 0 0 34803.1 20393.7 " />
<path d="M34803.1 26692.9 A393.701 393.701 0.0 0 0 35196.9 27086.6 " />
<path d="M52913.4 27086.6 A393.701 393.701 0.0 0 0 53307.1 26692.9 " />
<path d="M53307.1 20393.7 A393.701 393.701 0.0 0 0 52913.4 20000 " />
<circle cx="28110.2" cy="16476.4" r="1574.8" /> 
<path d="M20236.2 10551.2 A1574.8 1574.8 0.0 0 0 18661.4 12126 " />
<path d="M18661 28661
L18661 12125
" />
<path d="M18661.4 28661.4 A1574.8 1574.8 0.0 0 0 20236.2 30236.2 " />
<path d="M58425 30236
L20236 30236
" />
<path d="M60000 28661
L60000 12125
" />
<path d="M58425.2 30236.2 A1574.8 1574.8 0.0 0 0 60000 28661.4 " />
<path d="M60000 12126 A1574.8 1574.8 0.0 0 0 58425.2 10551.2 " />
<path d="M20236 10551
L58425 10551
" />
<path d="M23858 16210
L24645 16210
" />
<path d="M24645 17017
L23858 17017
" />
<path d="M56072 24665
L56072 23877
" />
<path d="M55226 23877
L55226 24665
" />
<path d="M26968 23375
L27755 23375
" />
<path d="M27755 24183
L26968 24183
" />
<path d="M27047 24360
L27834 24360
" />
<path d="M27834 25167
L27047 25167
" />
<path d="M24645 25915
L25433 25915
" />
<path d="M25433 26722
L24645 26722
" />
<path d="M33858 22529
L33070 22529
" />
<path d="M33070 21722
L33858 21722
" />
<path d="M33494 26082
L33494 25295
" />
<path d="M34301 25295
L34301 26082
" />
<path d="M23877 17155
L24665 17155
" />
<path d="M24665 17962
L23877 17962
" />
<path d="M25354 12017
L26141 12017
" />
<path d="M26141 12824
L25354 12824
" />
<path d="M24311 13277
L25098 13277
" />
<path d="M25098 14084
L24311 14084
" />
<path d="M46387 29389
L46387 28602
" />
<path d="M47194 28602
L47194 29389
" />
<path d="M45285 29389
L45285 28602
" />
<path d="M46092 28602
L46092 29389
" />
<path d="M38986 29370
L38986 28582
" />
<path d="M39793 28582
L39793 29370
" />
<path d="M54527 27982
L55314 27982
" />
<path d="M55314 28789
L54527 28789
" />
<path d="M51870 27805
L52657 27805
" />
<path d="M52657 28612
L51870 28612
" />
<path d="M48316 29192
L48316 28405
" />
<path d="M49124 28405
L49124 29192
" />
<path d="M25029 23582
L25029 22795
" />
<path d="M25836 22795
L25836 23582
" />
<path d="M55607 11209
L56210 11715
" />
<path d="M55691 12333
L55088 11827
" />
<path d="M50740 15499
L50184 16055
" />
<path d="M49613 15485
L50170 14928
" />
<path d="M54426 11425
L55029 11932
" />
<path d="M54510 12550
L53907 12044
" />
<path d="M42657 28169
L42716 28169
" />
<path d="M42323 28169
L42244 28169
" />
<path d="M42657 28169
L42657 28464
" />
<path d="M42657 28169
L42657 27893
" />
<path d="M42657 28169
L42323 27893
" />
<path d="M42323 27893
L42323 28445
" />
<path d="M42323 28445
L42657 28169
" />
<path d="M25728 27283
L25669 27283
" />
<path d="M26062 27283
L26141 27283
" />
<path d="M25728 27283
L25728 26988
" />
<path d="M25728 27283
L25728 27559
" />
<path d="M25728 27283
L26062 27559
" />
<path d="M26062 27559
L26062 27007
" />
<path d="M26062 27007
L25728 27283
" />
<path d="M57468 23200
L57468 22200
" />
<path d="M57578 24311
L57578 23700
" />
<path d="M57468 23200
L56468 23200
" />
<path d="M56358 23700
L56358 24311
" />
<path d="M56358 24311
L57578 24311
" />
<path d="M56468 23200
L56468 22200
" />
<path d="M56468 22200
L57468 22200
" />
<path d="M55000 21791
L55000 22067
" />
<path d="M55000 22067
L55098 22067
" />
<path d="M56102 22067
L56181 22067
" />
<path d="M56181 22067
L56181 21791
" />
<path d="M55019 24075
L55019 23799
" />
<path d="M55019 23799
L54921 23799
" />
<path d="M53917 23799
L53838 23799
" />
<path d="M53838 23799
L53838 24075
" />
<path d="M57854 22952
L57854 23228
" />
<path d="M57854 23228
L57952 23228
" />
<path d="M58956 23228
L59035 23228
" />
<path d="M59035 23228
L59035 22952
" />
<path d="M55255 26456
L55531 26456
" />
<path d="M55531 26456
L55531 26358
" />
<path d="M55531 25354
L55531 25275
" />
<path d="M55531 25275
L55255 25275
" />
<path d="M31053 21633
L31053 20846
" />
<path d="M30206 20846
L30206 21633
" />
<path d="M29498 25314
L29498 26102
" />
<path d="M30344 26102
L30344 25314
" />
<path d="M31446 18740
L31446 17952
" />
<path d="M30600 17952
L30600 18740
" />
<path d="M30501 25314
L30501 26102
" />
<path d="M31348 26102
L31348 25314
" />
<path d="M32431 16476
L32431 15688
" />
<path d="M31584 15688
L31584 16476
" />
<path d="M42283 28769
L41496 28769
" />
<path d="M41496 29616
L42283 29616
" />
<path d="M49852 28562
L49852 29350
" />
<path d="M50698 29350
L50698 28562
" />
<path d="M53021 15570
L53021 14783
" />
<path d="M52175 14783
L52175 15570
" />
<path d="M50845 15583
L50288 16140
" />
<path d="M50887 16739
L51443 16182
" />
<path d="M51437 12627
L52224 12627
" />
<path d="M52224 11781
L51437 11781
" />
<path d="M51437 11683
L52224 11683
" />
<path d="M52224 10836
L51437 10836
" />
<path d="M55669 20797
L56456 20797
" />
<path d="M56456 19950
L55669 19950
" />
<path d="M53809 20767
L53809 21555
" />
<path d="M54655 21555
L54655 20767
" />
<path d="M58267 20935
L57480 20935
" />
<path d="M57480 21781
L58267 21781
" />
<path d="M57480 18927
L56692 18927
" />
<path d="M56692 19773
L57480 19773
" />
<path d="M58267 24438
L57480 24438
" />
<path d="M57480 25285
L58267 25285
" />
<path d="M55413 15246
L54625 15246
" />
<path d="M54625 16092
L55413 16092
" />
<path d="M58248 20757
L59035 20757
" />
<path d="M59035 19911
L58248 19911
" />
<path d="M30074 20615
L28074 20615
" />
<path d="M28074 20615
L28074 22415
" />
<path d="M28074 22415
L30074 22415
" />
<path d="M30074 22415
L30074 20615
" />
<path d="M30074 21215
L29874 21215
" />
<path d="M29874 21215
L29874 21715
" />
<path d="M29874 21715
L30074 21715
" />
<circle cx="25393.7" cy="15315" r="39.3701" /> 
<path d="M25196 15059
L25196 15255
" />
<path d="M24055 15059
L25196 15059
" />
<path d="M24055 15255
L24055 15059
" />
<path d="M25196 15255
L24055 15255
" />
<circle cx="44035.4" cy="30098.4" r="39.3701" /> 
<path d="M44291 29901
L44094 29901
" />
<path d="M44291 28759
L44291 29901
" />
<path d="M44094 28759
L44291 28759
" />
<path d="M44094 29901
L44094 28759
" />
<circle cx="52027.6" cy="30059.1" r="39.3701" /> 
<path d="M52283 29862
L52086 29862
" />
<path d="M52283 28720
L52283 29862
" />
<path d="M52086 28720
L52283 28720
" />
<path d="M52086 29862
L52086 28720
" />
<path d="M29134 24134
L29075 24075
" />
<path d="M29901 23189
L30000 23287
" />
<path d="M29134 24134
L29271 24232
" />
<path d="M29271 24232
L29488 24291
" />
<path d="M29488 24291
L29645 24291
" />
<path d="M29645 24291
L29842 24212
" />
<path d="M29842 24212
L30000 24075
" />
<path d="M29094 23268
L29212 23169
" />
<path d="M29212 23169
L29390 23090
" />
<path d="M29390 23090
L29567 23071
" />
<path d="M29567 23071
L29764 23110
" />
<path d="M29764 23110
L29901 23189
" />
<path d="M27135 21417
L27135 22204
" />
<path d="M27982 22204
L27982 21417
" />
<path d="M26092 21397
L26092 22185
" />
<path d="M26938 22185
L26938 21397
" />
<path d="M43272 29075
L43272 28682
" />
<path d="M43047 29075
L43216 28850
" />
<path d="M43047 28682
L43272 28907
" />
<path d="M41845 28963
L41658 28963
" />
<path d="M41883 29075
L41751 28682
L41620 29075
" />
<path d="M25319 26733
L25319 26339
" />
<path d="M25094 26733
L25263 26508
" />
<path d="M25094 26339
L25319 26564
" />
<path d="M26727 26620
L26540 26620
" />
<path d="M26765 26733
L26633 26339
L26502 26733
" />
</g> 
</svg>
