<?xml version="1.0" standalone="no"?>
 <!DOCTYPE svg PUBLIC "-//W3C//DTD SVG 1.1//EN" 
 "http://www.w3.org/Graphics/SVG/1.1/DTD/svg11.dtd"> 
<svg xmlns="http://www.w3.org/2000/svg" version="1.1" 
    width="29.7002cm" height="21.0007cm" viewBox="0 0 116930 82680 ">
<title>SVG Picture created as proto_trapapoul-B.Fab.svg date 2016/10/11 09:02:36 </title>
  <desc>Picture generated by PCBNEW </desc>
<g style="fill:#000000; fill-opacity:1;stroke:#000000; stroke-opacity:1;
stroke-linecap:round; stroke-linejoin:round; "
 transform="translate(0 0) scale(1 1)">
</g>
<g style="fill:#000000; fill-opacity:0.0; 
stroke:#000000; stroke-width:-0.000393701; stroke-opacity:1; 
stroke-linecap:round; stroke-linejoin:round;">
</g>
<g style="fill:#000000; fill-opacity:0.0; 
stroke:#000000; stroke-width:59.0551; stroke-opacity:1; 
stroke-linecap:round; stroke-linejoin:round;">
<path d="M35196 27086
L52913 27086
" />
<path d="M34803 20393
L34803 26692
" />
<path d="M52913 20000
L35196 20000
" />
<path d="M53307 26692
L53307 20393
" />
<path d="M35196.9 20000 A393.701 393.701 0.0 0 0 34803.1 20393.7 " />
<path d="M34803.1 26692.9 A393.701 393.701 0.0 0 0 35196.9 27086.6 " />
<path d="M52913.4 27086.6 A393.701 393.701 0.0 0 0 53307.1 26692.9 " />
<path d="M53307.1 20393.7 A393.701 393.701 0.0 0 0 52913.4 20000 " />
<circle cx="28110.2" cy="16476.4" r="1574.8" /> 
<path d="M20236.2 10551.2 A1574.8 1574.8 0.0 0 0 18661.4 12126 " />
<path d="M18661 28661
L18661 12125
" />
<path d="M18661.4 28661.4 A1574.8 1574.8 0.0 0 0 20236.2 30236.2 " />
<path d="M58425 30236
L20236 30236
" />
<path d="M60000 28661
L60000 12125
" />
<path d="M58425.2 30236.2 A1574.8 1574.8 0.0 0 0 60000 28661.4 " />
<path d="M60000 12126 A1574.8 1574.8 0.0 0 0 58425.2 10551.2 " />
<path d="M20236 10551
L58425 10551
" />
<path d="M24831 16792
L25056 16792
" />
<path d="M24943 16792
L24943 16398
L24981 16454
L25018 16492
L25056 16511
" />
<path d="M24587 16398
L24550 16398
L24512 16417
L24493 16436
L24475 16473
L24456 16548
L24456 16642
L24475 16717
L24493 16754
L24512 16773
L24550 16792
L24587 16792
L24625 16773
L24643 16754
L24662 16717
L24681 16642
L24681 16548
L24662 16473
L24643 16436
L24625 16417
L24587 16398
" />
<path d="M24118 16529
L24118 16792
" />
<path d="M24287 16529
L24287 16736
L24268 16773
L24231 16792
L24175 16792
L24137 16773
L24118 16754
" />
<path d="M23800 16586
L23931 16586
" />
<path d="M23931 16792
L23931 16398
L23743 16398
" />
<path d="M55512 23785
L55512 24028
L55662 23897
L55662 23953
L55681 23991
L55700 24010
L55737 24028
L55831 24028
L55868 24010
L55887 23991
L55906 23953
L55906 23841
L55887 23803
L55868 23785
" />
<path d="M55512 24160
L55512 24403
L55662 24272
L55662 24328
L55681 24366
L55700 24385
L55737 24403
L55831 24403
L55868 24385
L55887 24366
L55906 24328
L55906 24216
L55887 24178
L55868 24160
" />
<path d="M55512 24647
L55512 24685
L55531 24722
L55550 24741
L55587 24760
L55662 24778
L55756 24778
L55831 24760
L55868 24741
L55887 24722
L55906 24685
L55906 24647
L55887 24610
L55868 24591
L55831 24572
L55756 24553
L55662 24553
L55587 24572
L55550 24591
L55531 24610
L55512 24647
" />
<path d="M27595 23957
L27820 23957
" />
<path d="M27708 23957
L27708 23563
L27745 23620
L27783 23657
L27820 23676
" />
<path d="M27351 23563
L27314 23563
L27276 23582
L27258 23601
L27239 23638
L27220 23713
L27220 23807
L27239 23882
L27258 23920
L27276 23938
L27314 23957
L27351 23957
L27389 23938
L27408 23920
L27426 23882
L27445 23807
L27445 23713
L27426 23638
L27408 23601
L27389 23582
L27351 23563
" />
<path d="M27051 23695
L27051 24088
" />
<path d="M27051 23713
L27014 23695
L26939 23695
L26901 23713
L26883 23732
L26864 23770
L26864 23882
L26883 23920
L26901 23938
L26939 23957
L27014 23957
L27051 23938
" />
<path d="M27713 25020
L27938 25020
" />
<path d="M27826 25020
L27826 24626
L27863 24683
L27901 24720
L27938 24739
" />
<path d="M27470 24626
L27432 24626
L27395 24645
L27376 24664
L27357 24701
L27338 24776
L27338 24870
L27357 24945
L27376 24983
L27395 25001
L27432 25020
L27470 25020
L27507 25001
L27526 24983
L27544 24945
L27563 24870
L27563 24776
L27544 24701
L27526 24664
L27507 24645
L27470 24626
" />
<path d="M27170 24758
L27170 25151
" />
<path d="M27170 24776
L27132 24758
L27057 24758
L27020 24776
L27001 24795
L26982 24833
L26982 24945
L27001 24983
L27020 25001
L27057 25020
L27132 25020
L27170 25001
" />
<path d="M25253 26437
L25478 26437
" />
<path d="M25365 26437
L25365 26044
L25403 26100
L25440 26137
L25478 26156
" />
<path d="M25009 26044
L24971 26044
L24934 26062
L24915 26081
L24896 26119
L24878 26194
L24878 26287
L24896 26362
L24915 26400
L24934 26419
L24971 26437
L25009 26437
L25046 26419
L25065 26400
L25084 26362
L25103 26287
L25103 26194
L25084 26119
L25065 26081
L25046 26062
L25009 26044
" />
<path d="M24709 26175
L24709 26437
" />
<path d="M24709 26212
L24690 26194
L24653 26175
L24596 26175
L24559 26194
L24540 26231
L24540 26437
" />
<path d="M33757 22304
L33982 22304
" />
<path d="M33869 22304
L33869 21910
L33907 21966
L33944 22004
L33982 22022
" />
<path d="M33513 21910
L33475 21910
L33438 21929
L33419 21947
L33400 21985
L33382 22060
L33382 22154
L33400 22229
L33419 22266
L33438 22285
L33475 22304
L33513 22304
L33550 22285
L33569 22266
L33588 22229
L33607 22154
L33607 22060
L33588 21985
L33569 21947
L33550 21929
L33513 21910
" />
<path d="M33213 22041
L33213 22304
" />
<path d="M33213 22079
L33194 22060
L33157 22041
L33100 22041
L33063 22060
L33044 22097
L33044 22304
" />
<path d="M34174 25376
L34174 25151
" />
<path d="M34174 25264
L33780 25264
L33836 25226
L33874 25189
L33892 25151
" />
<path d="M33780 25620
L33780 25658
L33799 25695
L33817 25714
L33855 25733
L33930 25751
L34024 25751
L34099 25733
L34136 25714
L34155 25695
L34174 25658
L34174 25620
L34155 25583
L34136 25564
L34099 25545
L34024 25526
L33930 25526
L33855 25545
L33817 25564
L33799 25583
L33780 25620
" />
<path d="M33911 25920
L34174 25920
" />
<path d="M33949 25920
L33930 25939
L33911 25976
L33911 26032
L33930 26070
L33967 26089
L34174 26089
" />
<path d="M24544 17678
L24769 17678
" />
<path d="M24656 17678
L24656 17284
L24694 17340
L24731 17378
L24769 17396
" />
<path d="M24300 17284
L24263 17284
L24225 17303
L24206 17321
L24188 17359
L24169 17434
L24169 17528
L24188 17603
L24206 17640
L24225 17659
L24263 17678
L24300 17678
L24338 17659
L24356 17640
L24375 17603
L24394 17528
L24394 17434
L24375 17359
L24356 17321
L24338 17303
L24300 17284
" />
<path d="M24000 17415
L24000 17678
" />
<path d="M24000 17453
L23982 17434
L23944 17415
L23888 17415
L23850 17434
L23832 17471
L23832 17678
" />
<path d="M25961 12619
L26186 12619
" />
<path d="M26074 12619
L26074 12225
L26111 12281
L26149 12319
L26186 12337
" />
<path d="M25718 12225
L25680 12225
L25643 12244
L25624 12262
L25605 12300
L25586 12375
L25586 12469
L25605 12544
L25624 12581
L25643 12600
L25680 12619
L25718 12619
L25755 12600
L25774 12581
L25793 12544
L25811 12469
L25811 12375
L25793 12300
L25774 12262
L25755 12244
L25718 12225
" />
<path d="M25418 12356
L25418 12619
" />
<path d="M25418 12394
L25399 12375
L25361 12356
L25305 12356
L25268 12375
L25249 12412
L25249 12619
" />
<path d="M25165 13878
L25390 13878
" />
<path d="M25278 13878
L25278 13485
L25315 13541
L25353 13578
L25390 13597
" />
<path d="M24922 13485
L24884 13485
L24847 13503
L24828 13522
L24809 13560
L24790 13635
L24790 13728
L24809 13803
L24828 13841
L24847 13860
L24884 13878
L24922 13878
L24959 13860
L24978 13841
L24997 13803
L25015 13728
L25015 13635
L24997 13560
L24978 13522
L24959 13503
L24922 13485
" />
<path d="M24453 13616
L24453 13878
" />
<path d="M24622 13616
L24622 13822
L24603 13860
L24565 13878
L24509 13878
L24472 13860
L24453 13841
" />
<path d="M24134 13672
L24266 13672
" />
<path d="M24266 13878
L24266 13485
L24078 13485
" />
<path d="M47048 28593
L47048 28368
" />
<path d="M47048 28481
L46654 28481
L46710 28443
L46748 28406
L46766 28368
" />
<path d="M46654 28837
L46654 28875
L46673 28912
L46691 28931
L46729 28950
L46804 28968
L46898 28968
L46973 28950
L47010 28931
L47029 28912
L47048 28875
L47048 28837
L47029 28800
L47010 28781
L46973 28762
L46898 28743
L46804 28743
L46729 28762
L46691 28781
L46673 28800
L46654 28837
" />
<path d="M46785 29306
L47048 29306
" />
<path d="M46785 29137
L46991 29137
L47029 29156
L47048 29193
L47048 29250
L47029 29287
L47010 29306
" />
<path d="M46841 29625
L46841 29493
" />
<path d="M47048 29493
L46654 29493
L46654 29681
" />
<path d="M45886 28742
L45886 28517
" />
<path d="M45886 28630
L45493 28630
L45549 28592
L45586 28555
L45605 28517
" />
<path d="M45493 28986
L45493 29024
L45511 29061
L45530 29080
L45568 29099
L45643 29117
L45736 29117
L45811 29099
L45849 29080
L45868 29061
L45886 29024
L45886 28986
L45868 28949
L45849 28930
L45811 28911
L45736 28892
L45643 28892
L45568 28911
L45530 28930
L45511 28949
L45493 28986
" />
<path d="M45624 29286
L45886 29286
" />
<path d="M45661 29286
L45643 29305
L45624 29342
L45624 29399
L45643 29436
L45680 29455
L45886 29455
" />
<path d="M39626 28554
L39626 28329
" />
<path d="M39626 28442
L39233 28442
L39289 28404
L39326 28367
L39345 28329
" />
<path d="M39233 28798
L39233 28835
L39251 28873
L39270 28892
L39308 28910
L39383 28929
L39476 28929
L39551 28910
L39589 28892
L39608 28873
L39626 28835
L39626 28798
L39608 28760
L39589 28742
L39551 28723
L39476 28704
L39383 28704
L39308 28723
L39270 28742
L39251 28760
L39233 28798
" />
<path d="M39364 29266
L39626 29266
" />
<path d="M39364 29098
L39570 29098
L39608 29116
L39626 29154
L39626 29210
L39608 29248
L39589 29266
" />
<path d="M39420 29585
L39420 29454
" />
<path d="M39626 29454
L39233 29454
L39233 29641
" />
<path d="M55303 28603
L55528 28603
" />
<path d="M55416 28603
L55416 28209
L55453 28265
L55491 28303
L55528 28322
" />
<path d="M55059 28209
L55022 28209
L54985 28228
L54966 28247
L54947 28284
L54928 28359
L54928 28453
L54947 28528
L54966 28565
L54985 28584
L55022 28603
L55059 28603
L55097 28584
L55116 28565
L55134 28528
L55153 28453
L55153 28359
L55134 28284
L55116 28247
L55097 28228
L55059 28209
" />
<path d="M54591 28340
L54591 28603
" />
<path d="M54760 28340
L54760 28547
L54741 28584
L54703 28603
L54647 28603
L54610 28584
L54591 28565
" />
<path d="M54272 28397
L54403 28397
" />
<path d="M54403 28603
L54403 28209
L54216 28209
" />
<path d="M52556 28465
L52781 28465
" />
<path d="M52668 28465
L52668 28071
L52706 28128
L52743 28165
L52781 28184
" />
<path d="M52312 28071
L52275 28071
L52237 28090
L52218 28109
L52200 28146
L52181 28221
L52181 28315
L52200 28390
L52218 28428
L52237 28446
L52275 28465
L52312 28465
L52350 28446
L52368 28428
L52387 28390
L52406 28315
L52406 28221
L52387 28146
L52368 28109
L52350 28090
L52312 28071
" />
<path d="M52012 28203
L52012 28465
" />
<path d="M52012 28240
L51993 28221
L51956 28203
L51900 28203
L51862 28221
L51843 28259
L51843 28465
" />
<path d="M48937 28436
L48937 28211
" />
<path d="M48937 28323
L48544 28323
L48600 28286
L48637 28248
L48656 28211
" />
<path d="M48544 28680
L48544 28717
L48562 28755
L48581 28773
L48619 28792
L48694 28811
L48787 28811
L48862 28792
L48900 28773
L48919 28755
L48937 28717
L48937 28680
L48919 28642
L48900 28623
L48862 28605
L48787 28586
L48694 28586
L48619 28605
L48581 28623
L48562 28642
L48544 28680
" />
<path d="M48675 29148
L48937 29148
" />
<path d="M48675 28980
L48881 28980
L48919 28998
L48937 29036
L48937 29092
L48919 29130
L48900 29148
" />
<path d="M48731 29467
L48731 29336
" />
<path d="M48937 29336
L48544 29336
L48544 29523
" />
<path d="M25709 22806
L25709 22581
" />
<path d="M25709 22694
L25315 22694
L25372 22656
L25409 22619
L25428 22581
" />
<path d="M25315 23050
L25315 23087
L25334 23125
L25353 23143
L25390 23162
L25465 23181
L25559 23181
L25634 23162
L25672 23143
L25690 23125
L25709 23087
L25709 23050
L25690 23012
L25672 22994
L25634 22975
L25559 22956
L25465 22956
L25390 22975
L25353 22994
L25334 23012
L25315 23050
" />
<path d="M25447 23518
L25709 23518
" />
<path d="M25447 23350
L25653 23350
L25690 23368
L25709 23406
L25709 23462
L25690 23500
L25672 23518
" />
<path d="M25503 23837
L25503 23706
" />
<path d="M25709 23706
L25315 23706
L25315 23893
" />
<path d="M55689 11972
L55861 12116
" />
<path d="M55775 12044
L56028 11743
L56021 11810
L56026 11863
L56042 11901
" />
<path d="M55756 11514
L55727 11489
L55686 11480
L55660 11482
L55621 11499
L55559 11544
L55498 11616
L55464 11685
L55455 11726
L55457 11753
L55474 11791
L55502 11815
L55543 11825
L55570 11823
L55608 11806
L55671 11761
L55731 11689
L55765 11619
L55774 11578
L55772 11552
L55756 11514
" />
<path d="M55441 11421
L55273 11622
" />
<path d="M55417 11450
L55415 11424
L55398 11385
L55355 11349
L55314 11339
L55276 11356
L55143 11514
" />
<path d="M50581 15300
L50740 15141
" />
<path d="M50661 15220
L50382 14942
L50449 14955
L50502 14955
L50541 14942
" />
<path d="M50130 15194
L50104 15220
L50091 15260
L50091 15286
L50104 15326
L50144 15392
L50210 15459
L50276 15498
L50316 15512
L50343 15512
L50382 15498
L50409 15472
L50422 15432
L50422 15406
L50409 15366
L50369 15300
L50303 15233
L50237 15194
L50197 15180
L50170 15180
L50130 15194
" />
<path d="M49892 15618
L50077 15803
" />
<path d="M50011 15498
L50157 15644
L50170 15684
L50157 15724
L50117 15764
L50077 15777
L50051 15777
" />
<path d="M49706 15883
L49799 15790
" />
<path d="M49945 15936
L49666 15658
L49534 15790
" />
<path d="M54730 12427
L54903 12572
" />
<path d="M54817 12499
L55070 12198
L55062 12265
L55067 12318
L55083 12356
" />
<path d="M54797 11969
L54768 11945
L54727 11935
L54701 11937
L54662 11954
L54600 11999
L54540 12071
L54506 12141
L54496 12181
L54498 12208
L54515 12246
L54544 12270
L54584 12280
L54611 12278
L54649 12261
L54712 12216
L54772 12144
L54806 12074
L54816 12034
L54813 12007
L54797 11969
" />
<path d="M54510 11728
L54481 11704
L54440 11694
L54414 11696
L54375 11713
L54313 11758
L54252 11830
L54218 11900
L54209 11940
L54211 11967
L54228 12005
L54256 12029
L54297 12039
L54324 12037
L54362 12020
L54425 11975
L54485 11903
L54519 11833
L54529 11793
L54526 11766
L54510 11728
" />
<path d="M54195 11635
L54027 11837
" />
<path d="M54171 11664
L54169 11638
L54152 11599
L54109 11563
L54068 11553
L54030 11570
L53897 11728
" />
<path d="M43710 28328
L43653 28347
L43560 28347
L43522 28328
L43503 28309
L43485 28272
L43485 28234
L43503 28197
L43522 28178
L43560 28159
L43635 28141
L43672 28122
L43691 28103
L43710 28066
L43710 28028
L43691 27991
L43672 27972
L43635 27953
L43541 27953
L43485 27972
" />
<path d="M43091 28309
L43110 28328
L43166 28347
L43203 28347
L43260 28328
L43297 28291
L43316 28253
L43335 28178
L43335 28122
L43316 28047
L43297 28009
L43260 27972
L43203 27953
L43166 27953
L43110 27972
L43091 27991
" />
<path d="M42922 28347
L42922 27953
" />
<path d="M42922 28141
L42697 28141
" />
<path d="M42697 28347
L42697 27953
" />
<path d="M42435 27953
L42360 27953
L42322 27972
L42285 28009
L42266 28084
L42266 28216
L42285 28291
L42322 28328
L42360 28347
L42435 28347
L42472 28328
L42510 28291
L42529 28216
L42529 28084
L42510 28009
L42472 27972
L42435 27953
" />
<path d="M42154 27953
L41929 27953
" />
<path d="M42041 28347
L42041 27953
" />
<path d="M41854 27953
L41629 27953
" />
<path d="M41741 28347
L41741 27953
" />
<path d="M41497 28347
L41497 27953
" />
<path d="M41272 28347
L41441 28122
" />
<path d="M41272 27953
L41497 28178
" />
<path d="M41029 28159
L41029 28347
" />
<path d="M41160 27953
L41029 28159
L40898 27953
" />
<path d="M27174 27462
L27118 27481
L27024 27481
L26987 27462
L26968 27443
L26949 27406
L26949 27368
L26968 27331
L26987 27312
L27024 27293
L27099 27275
L27137 27256
L27155 27237
L27174 27200
L27174 27162
L27155 27125
L27137 27106
L27099 27087
L27005 27087
L26949 27106
" />
<path d="M26556 27443
L26574 27462
L26631 27481
L26668 27481
L26724 27462
L26762 27425
L26781 27387
L26799 27312
L26799 27256
L26781 27181
L26762 27143
L26724 27106
L26668 27087
L26631 27087
L26574 27106
L26556 27125
" />
<path d="M26387 27481
L26387 27087
" />
<path d="M26387 27275
L26162 27275
" />
<path d="M26162 27481
L26162 27087
" />
<path d="M25899 27087
L25824 27087
L25787 27106
L25749 27143
L25731 27218
L25731 27350
L25749 27425
L25787 27462
L25824 27481
L25899 27481
L25937 27462
L25974 27425
L25993 27350
L25993 27218
L25974 27143
L25937 27106
L25899 27087
" />
<path d="M25618 27087
L25393 27087
" />
<path d="M25506 27481
L25506 27087
" />
<path d="M25318 27087
L25093 27087
" />
<path d="M25206 27481
L25206 27087
" />
<path d="M24962 27481
L24962 27087
" />
<path d="M24737 27481
L24906 27256
" />
<path d="M24737 27087
L24962 27312
" />
<path d="M24493 27293
L24493 27481
" />
<path d="M24625 27087
L24493 27293
L24362 27087
" />
<path d="M52963 23367
L52963 22973
" />
<path d="M52963 23160
L52738 23160
" />
<path d="M52738 23367
L52738 22973
" />
<path d="M52550 23160
L52419 23160
" />
<path d="M52363 23367
L52550 23367
L52550 22973
L52363 22973
" />
<path d="M52213 23254
L52025 23254
" />
<path d="M52250 23367
L52119 22973
L51988 23367
" />
<path d="M51856 23367
L51856 22973
L51763 22973
L51706 22992
L51669 23029
L51650 23067
L51631 23142
L51631 23198
L51650 23273
L51669 23310
L51706 23348
L51763 23367
L51856 23367
" />
<path d="M51463 23160
L51332 23160
" />
<path d="M51275 23367
L51463 23367
L51463 22973
L51275 22973
" />
<path d="M50882 23367
L51013 23179
" />
<path d="M51107 23367
L51107 22973
L50957 22973
L50919 22992
L50900 23010
L50882 23048
L50882 23104
L50900 23142
L50919 23160
L50957 23179
L51107 23179
" />
<path d="M50807 23404
L50507 23404
" />
<path d="M50432 23010
L50413 22992
L50375 22973
L50282 22973
L50244 22992
L50225 23010
L50207 23048
L50207 23085
L50225 23142
L50450 23367
L50207 23367
" />
<path d="M55808 20425
L55414 20425
L55414 20575
L55433 20613
L55451 20631
L55489 20650
L55545 20650
L55583 20631
L55601 20613
L55620 20575
L55620 20425
" />
<path d="M55601 20950
L55620 21006
L55639 21025
L55676 21044
L55733 21044
L55770 21025
L55789 21006
L55808 20969
L55808 20819
L55414 20819
L55414 20950
L55433 20988
L55451 21006
L55489 21025
L55526 21025
L55564 21006
L55583 20988
L55601 20950
L55601 20819
" />
<path d="M55789 21194
L55808 21250
L55808 21344
L55789 21381
L55770 21400
L55733 21419
L55695 21419
L55658 21400
L55639 21381
L55620 21344
L55601 21269
L55583 21231
L55564 21212
L55526 21194
L55489 21194
L55451 21212
L55433 21231
L55414 21269
L55414 21362
L55433 21419
" />
<path d="M55789 21569
L55808 21625
L55808 21719
L55789 21756
L55770 21775
L55733 21794
L55695 21794
L55658 21775
L55639 21756
L55620 21719
L55601 21644
L55583 21606
L55564 21587
L55526 21569
L55489 21569
L55451 21587
L55433 21606
L55414 21644
L55414 21737
L55433 21794
" />
<path d="M55545 22131
L55808 22131
" />
<path d="M55395 22037
L55676 21944
L55676 22187
" />
<path d="M55414 22300
L55414 22544
L55564 22412
L55564 22469
L55583 22506
L55601 22525
L55639 22544
L55733 22544
L55770 22525
L55789 22506
L55808 22469
L55808 22356
L55789 22319
L55770 22300
" />
<path d="M55451 22694
L55433 22712
L55414 22750
L55414 22844
L55433 22881
L55451 22900
L55489 22919
L55526 22919
L55583 22900
L55808 22675
L55808 22919
" />
<path d="M55414 23162
L55414 23200
L55433 23237
L55451 23256
L55489 23275
L55564 23293
L55658 23293
L55733 23275
L55770 23256
L55789 23237
L55808 23200
L55808 23162
L55789 23125
L55770 23106
L55733 23087
L55658 23068
L55564 23068
L55489 23087
L55451 23106
L55433 23125
L55414 23162
" />
<path d="M54810 24351
L54810 23957
L54660 23957
L54623 23976
L54604 23995
L54585 24032
L54585 24088
L54604 24126
L54623 24145
L54660 24163
L54810 24163
" />
<path d="M54285 24145
L54229 24163
L54210 24182
L54191 24220
L54191 24276
L54210 24313
L54229 24332
L54266 24351
L54416 24351
L54416 23957
L54285 23957
L54248 23976
L54229 23995
L54210 24032
L54210 24070
L54229 24107
L54248 24126
L54285 24145
L54416 24145
" />
<path d="M54041 24332
L53985 24351
L53892 24351
L53854 24332
L53835 24313
L53817 24276
L53817 24238
L53835 24201
L53854 24182
L53892 24163
L53967 24145
L54004 24126
L54023 24107
L54041 24070
L54041 24032
L54023 23995
L54004 23976
L53967 23957
L53873 23957
L53817 23976
" />
<path d="M53667 24332
L53610 24351
L53517 24351
L53479 24332
L53460 24313
L53442 24276
L53442 24238
L53460 24201
L53479 24182
L53517 24163
L53592 24145
L53629 24126
L53648 24107
L53667 24070
L53667 24032
L53648 23995
L53629 23976
L53592 23957
L53498 23957
L53442 23976
" />
<path d="M53085 23957
L53273 23957
L53292 24145
L53273 24126
L53235 24107
L53142 24107
L53104 24126
L53085 24145
L53067 24182
L53067 24276
L53085 24313
L53104 24332
L53142 24351
L53235 24351
L53273 24332
L53292 24313
" />
<path d="M52935 23957
L52692 23957
L52823 24107
L52767 24107
L52729 24126
L52710 24145
L52692 24182
L52692 24276
L52710 24313
L52729 24332
L52767 24351
L52879 24351
L52917 24332
L52935 24313
" />
<path d="M52335 23957
L52523 23957
L52542 24145
L52523 24126
L52485 24107
L52392 24107
L52354 24126
L52335 24145
L52317 24182
L52317 24276
L52335 24313
L52354 24332
L52392 24351
L52485 24351
L52523 24332
L52542 24313
" />
<path d="M52073 23957
L52035 23957
L51998 23976
L51979 23995
L51961 24032
L51942 24107
L51942 24201
L51961 24276
L51979 24313
L51998 24332
L52035 24351
L52073 24351
L52110 24332
L52129 24313
L52148 24276
L52167 24201
L52167 24107
L52148 24032
L52129 23995
L52110 23976
L52073 23957
" />
<path d="M60972 23071
L60972 22678
L60822 22678
L60784 22696
L60765 22715
L60747 22753
L60747 22809
L60765 22846
L60784 22865
L60822 22884
L60972 22884
" />
<path d="M60447 22865
L60390 22884
L60372 22903
L60353 22940
L60353 22996
L60372 23034
L60390 23053
L60428 23071
L60578 23071
L60578 22678
L60447 22678
L60409 22696
L60390 22715
L60372 22753
L60372 22790
L60390 22828
L60409 22846
L60447 22865
L60578 22865
" />
<path d="M60203 23053
L60147 23071
L60053 23071
L60015 23053
L59997 23034
L59978 22996
L59978 22959
L59997 22921
L60015 22903
L60053 22884
L60128 22865
L60165 22846
L60184 22828
L60203 22790
L60203 22753
L60184 22715
L60165 22696
L60128 22678
L60034 22678
L59978 22696
" />
<path d="M59828 23053
L59772 23071
L59678 23071
L59640 23053
L59622 23034
L59603 22996
L59603 22959
L59622 22921
L59640 22903
L59678 22884
L59753 22865
L59790 22846
L59809 22828
L59828 22790
L59828 22753
L59809 22715
L59790 22696
L59753 22678
L59659 22678
L59603 22696
" />
<path d="M59266 22809
L59266 23071
" />
<path d="M59359 22659
L59453 22940
L59209 22940
" />
<path d="M59097 22678
L58853 22678
L58984 22828
L58928 22828
L58891 22846
L58872 22865
L58853 22903
L58853 22996
L58872 23034
L58891 23053
L58928 23071
L59041 23071
L59078 23053
L59097 23034
" />
<path d="M58703 22715
L58684 22696
L58647 22678
L58553 22678
L58516 22696
L58497 22715
L58478 22753
L58478 22790
L58497 22846
L58722 23071
L58478 23071
" />
<path d="M58234 22678
L58197 22678
L58159 22696
L58141 22715
L58122 22753
L58103 22828
L58103 22921
L58122 22996
L58141 23034
L58159 23053
L58197 23071
L58234 23071
L58272 23053
L58291 23034
L58309 22996
L58328 22921
L58328 22828
L58309 22753
L58291 22715
L58272 22696
L58234 22678
" />
<path d="M55991 26162
L55991 25768
L55841 25768
L55804 25787
L55785 25806
L55766 25843
L55766 25899
L55785 25937
L55804 25956
L55841 25974
L55991 25974
" />
<path d="M55466 25956
L55410 25974
L55391 25993
L55373 26031
L55373 26087
L55391 26124
L55410 26143
L55448 26162
L55598 26162
L55598 25768
L55466 25768
L55429 25787
L55410 25806
L55391 25843
L55391 25881
L55410 25918
L55429 25937
L55466 25956
L55598 25956
" />
<path d="M55223 26143
L55166 26162
L55073 26162
L55035 26143
L55016 26124
L54998 26087
L54998 26049
L55016 26012
L55035 25993
L55073 25974
L55148 25956
L55185 25937
L55204 25918
L55223 25881
L55223 25843
L55204 25806
L55185 25787
L55148 25768
L55054 25768
L54998 25787
" />
<path d="M54848 26143
L54791 26162
L54698 26162
L54660 26143
L54641 26124
L54623 26087
L54623 26049
L54641 26012
L54660 25993
L54698 25974
L54773 25956
L54810 25937
L54829 25918
L54848 25881
L54848 25843
L54829 25806
L54810 25787
L54773 25768
L54679 25768
L54623 25787
" />
<path d="M54266 25768
L54454 25768
L54473 25956
L54454 25937
L54416 25918
L54323 25918
L54285 25937
L54266 25956
L54248 25993
L54248 26087
L54266 26124
L54285 26143
L54323 26162
L54416 26162
L54454 26143
L54473 26124
" />
<path d="M54116 25768
L53873 25768
L54004 25918
L53948 25918
L53910 25937
L53892 25956
L53873 25993
L53873 26087
L53892 26124
L53910 26143
L53948 26162
L54060 26162
L54098 26143
L54116 26124
" />
<path d="M53517 25768
L53704 25768
L53723 25956
L53704 25937
L53667 25918
L53573 25918
L53535 25937
L53517 25956
L53498 25993
L53498 26087
L53517 26124
L53535 26143
L53573 26162
L53667 26162
L53704 26143
L53723 26124
" />
<path d="M53254 25768
L53217 25768
L53179 25787
L53160 25806
L53142 25843
L53123 25918
L53123 26012
L53142 26087
L53160 26124
L53179 26143
L53217 26162
L53254 26162
L53292 26143
L53310 26124
L53329 26087
L53348 26012
L53348 25918
L53329 25843
L53310 25806
L53292 25787
L53254 25768
" />
<path d="M30906 21005
L30906 20780
" />
<path d="M30906 20893
L30512 20893
L30568 20855
L30606 20818
L30625 20780
" />
<path d="M30512 21249
L30512 21287
L30531 21324
L30550 21343
L30587 21362
L30662 21380
L30756 21380
L30831 21362
L30868 21343
L30887 21324
L30906 21287
L30906 21249
L30887 21212
L30868 21193
L30831 21174
L30756 21155
L30662 21155
L30587 21174
L30550 21193
L30531 21212
L30512 21249
" />
<path d="M30906 21549
L30512 21549
" />
<path d="M30756 21586
L30906 21699
" />
<path d="M30643 21699
L30793 21549
" />
<path d="M30138 25494
L30138 25269
" />
<path d="M30138 25381
L29745 25381
L29801 25344
L29838 25306
L29857 25269
" />
<path d="M29745 25737
L29745 25775
L29763 25812
L29782 25831
L29820 25850
L29895 25868
L29988 25868
L30063 25850
L30101 25831
L30119 25812
L30138 25775
L30138 25737
L30119 25700
L30101 25681
L30063 25662
L29988 25643
L29895 25643
L29820 25662
L29782 25681
L29763 25700
L29745 25737
" />
<path d="M30138 26037
L29745 26037
" />
<path d="M29988 26075
L30138 26187
" />
<path d="M29876 26187
L30026 26037
" />
<path d="M31122 18033
L31122 17808
" />
<path d="M31122 17920
L30729 17920
L30785 17883
L30823 17845
L30841 17808
" />
<path d="M30729 18277
L30729 18314
L30748 18352
L30766 18370
L30804 18389
L30879 18408
L30973 18408
L31047 18389
L31085 18370
L31104 18352
L31122 18314
L31122 18277
L31104 18239
L31085 18220
L31047 18202
L30973 18183
L30879 18183
L30804 18202
L30766 18220
L30748 18239
L30729 18277
" />
<path d="M31122 18577
L30729 18577
" />
<path d="M30973 18614
L31122 18727
" />
<path d="M30860 18727
L31010 18577
" />
<path d="M31103 25513
L31103 25288
" />
<path d="M31103 25401
L30709 25401
L30765 25363
L30803 25326
L30822 25288
" />
<path d="M30709 25757
L30709 25794
L30728 25832
L30747 25851
L30784 25869
L30859 25888
L30953 25888
L31028 25869
L31065 25851
L31084 25832
L31103 25794
L31103 25757
L31084 25719
L31065 25701
L31028 25682
L30953 25663
L30859 25663
L30784 25682
L30747 25701
L30728 25719
L30709 25757
" />
<path d="M31103 26057
L30709 26057
" />
<path d="M30953 26094
L31103 26207
" />
<path d="M30840 26207
L30990 26057
" />
<path d="M32264 15868
L32264 15643
" />
<path d="M32264 15755
L31871 15755
L31927 15718
L31964 15680
L31983 15643
" />
<path d="M31871 16111
L31871 16149
L31889 16186
L31908 16205
L31946 16224
L32020 16242
L32114 16242
L32189 16224
L32227 16205
L32245 16186
L32264 16149
L32264 16111
L32245 16074
L32227 16055
L32189 16036
L32114 16017
L32020 16017
L31946 16036
L31908 16055
L31889 16074
L31871 16111
" />
<path d="M32264 16411
L31871 16411
" />
<path d="M32114 16449
L32264 16561
" />
<path d="M32002 16561
L32152 16411
" />
<path d="M42104 29371
L42329 29371
" />
<path d="M42216 29371
L42216 28977
L42254 29033
L42291 29071
L42329 29089
" />
<path d="M41860 28977
L41823 28977
L41785 28996
L41766 29014
L41748 29052
L41729 29127
L41729 29221
L41748 29296
L41766 29333
L41785 29352
L41823 29371
L41860 29371
L41898 29352
L41916 29333
L41935 29296
L41954 29221
L41954 29127
L41935 29052
L41916 29014
L41898 28996
L41860 28977
" />
<path d="M41560 29371
L41560 28977
" />
<path d="M41523 29221
L41410 29371
" />
<path d="M41410 29108
L41560 29258
" />
<path d="M50434 28682
L50434 28458
" />
<path d="M50434 28570
L50040 28570
L50096 28532
L50134 28495
L50152 28458
" />
<path d="M50040 28926
L50040 28964
L50059 29001
L50077 29020
L50115 29039
L50190 29057
L50284 29057
L50359 29039
L50396 29020
L50415 29001
L50434 28964
L50434 28926
L50415 28889
L50396 28870
L50359 28851
L50284 28832
L50190 28832
L50115 28851
L50077 28870
L50059 28889
L50040 28926
" />
<path d="M50434 29226
L50040 29226
" />
<path d="M50284 29264
L50434 29376
" />
<path d="M50171 29376
L50321 29226
" />
<path d="M52776 14962
L52776 14737
" />
<path d="M52776 14850
L52382 14850
L52439 14812
L52476 14775
L52495 14737
" />
<path d="M52382 15206
L52382 15243
L52401 15281
L52420 15299
L52457 15318
L52532 15337
L52626 15337
L52701 15318
L52739 15299
L52757 15281
L52776 15243
L52776 15206
L52757 15168
L52739 15149
L52701 15131
L52626 15112
L52532 15112
L52457 15131
L52420 15149
L52401 15168
L52382 15206
" />
<path d="M52776 15506
L52382 15506
" />
<path d="M52626 15543
L52776 15656
" />
<path d="M52514 15656
L52664 15506
" />
<path d="M51157 16180
L51316 16021
" />
<path d="M51237 16101
L50958 15822
L51025 15836
L51078 15836
L51118 15822
" />
<path d="M50707 16074
L50680 16101
L50667 16140
L50667 16167
L50680 16207
L50720 16273
L50786 16339
L50852 16379
L50892 16392
L50919 16392
L50958 16379
L50985 16353
L50998 16313
L50998 16286
L50985 16246
L50945 16180
L50879 16114
L50813 16074
L50773 16061
L50746 16061
L50707 16074
" />
<path d="M50773 16565
L50494 16286
" />
<path d="M50640 16485
L50667 16671
" />
<path d="M50481 16485
L50693 16485
" />
<path d="M52084 12441
L52309 12441
" />
<path d="M52197 12441
L52197 12048
L52234 12104
L52272 12141
L52309 12160
" />
<path d="M51841 12048
L51803 12048
L51766 12066
L51747 12085
L51728 12123
L51709 12198
L51709 12291
L51728 12366
L51747 12404
L51766 12423
L51803 12441
L51841 12441
L51878 12423
L51897 12404
L51916 12366
L51934 12291
L51934 12198
L51916 12123
L51897 12085
L51878 12066
L51841 12048
" />
<path d="M51541 12441
L51541 12048
" />
<path d="M51503 12291
L51391 12441
" />
<path d="M51391 12179
L51541 12329
" />
<path d="M52104 11457
L52329 11457
" />
<path d="M52216 11457
L52216 11063
L52254 11120
L52291 11157
L52329 11176
" />
<path d="M51860 11063
L51823 11063
L51785 11082
L51766 11101
L51748 11138
L51729 11213
L51729 11307
L51748 11382
L51766 11420
L51785 11438
L51823 11457
L51860 11457
L51898 11438
L51916 11420
L51935 11382
L51954 11307
L51954 11213
L51935 11138
L51916 11101
L51898 11082
L51860 11063
" />
<path d="M51560 11457
L51560 11063
" />
<path d="M51523 11307
L51410 11457
" />
<path d="M51410 11195
L51560 11345
" />
<path d="M56836 20158
L56592 20158
L56723 20308
L56667 20308
L56630 20327
L56611 20345
L56592 20383
L56592 20477
L56611 20514
L56630 20533
L56667 20552
L56780 20552
L56817 20533
L56836 20514
" />
<path d="M56423 20552
L56423 20158
" />
<path d="M56386 20402
L56273 20552
" />
<path d="M56273 20289
L56423 20439
" />
<path d="M56142 20158
L55898 20158
L56030 20308
L55973 20308
L55936 20327
L55917 20345
L55898 20383
L55898 20477
L55917 20514
L55936 20533
L55973 20552
L56086 20552
L56123 20533
L56142 20514
" />
<path d="M53997 20655
L53997 20898
L54146 20767
L54146 20823
L54165 20861
L54184 20880
L54221 20898
L54315 20898
L54353 20880
L54371 20861
L54390 20823
L54390 20711
L54371 20673
L54353 20655
" />
<path d="M53997 21030
L53997 21273
L54146 21142
L54146 21198
L54165 21236
L54184 21255
L54221 21273
L54315 21273
L54353 21255
L54371 21236
L54390 21198
L54390 21086
L54371 21048
L54353 21030
" />
<path d="M53997 21517
L53997 21555
L54015 21592
L54034 21611
L54071 21630
L54146 21648
L54240 21648
L54315 21630
L54353 21611
L54371 21592
L54390 21555
L54390 21517
L54371 21480
L54353 21461
L54315 21442
L54240 21423
L54146 21423
L54071 21442
L54034 21461
L54015 21480
L53997 21517
" />
<path d="M58352 21142
L58108 21142
L58239 21292
L58183 21292
L58145 21311
L58127 21330
L58108 21367
L58108 21461
L58127 21498
L58145 21517
L58183 21536
L58295 21536
L58333 21517
L58352 21498
" />
<path d="M57939 21536
L57939 21142
" />
<path d="M57902 21386
L57789 21536
" />
<path d="M57789 21273
L57939 21423
" />
<path d="M57658 21142
L57414 21142
L57545 21292
L57489 21292
L57452 21311
L57433 21330
L57414 21367
L57414 21461
L57433 21498
L57452 21517
L57489 21536
L57602 21536
L57639 21517
L57658 21498
" />
<path d="M57612 19134
L57368 19134
L57500 19284
L57443 19284
L57406 19303
L57387 19322
L57368 19359
L57368 19453
L57387 19491
L57406 19509
L57443 19528
L57556 19528
L57593 19509
L57612 19491
" />
<path d="M57237 19134
L56993 19134
L57125 19284
L57068 19284
L57031 19303
L57012 19322
L56993 19359
L56993 19453
L57012 19491
L57031 19509
L57068 19528
L57181 19528
L57218 19509
L57237 19491
" />
<path d="M56750 19134
L56712 19134
L56675 19153
L56656 19172
L56637 19209
L56618 19284
L56618 19378
L56637 19453
L56656 19491
L56675 19509
L56712 19528
L56750 19528
L56787 19509
L56806 19491
L56825 19453
L56843 19378
L56843 19284
L56825 19209
L56806 19172
L56787 19153
L56750 19134
" />
<path d="M58262 24646
L58018 24646
L58149 24796
L58093 24796
L58055 24815
L58037 24834
L58018 24871
L58018 24965
L58037 25002
L58055 25021
L58093 25040
L58205 25040
L58243 25021
L58262 25002
" />
<path d="M57887 24646
L57643 24646
L57774 24796
L57718 24796
L57680 24815
L57662 24834
L57643 24871
L57643 24965
L57662 25002
L57680 25021
L57718 25040
L57830 25040
L57868 25021
L57887 25002
" />
<path d="M57399 24646
L57362 24646
L57324 24665
L57305 24684
L57287 24721
L57268 24796
L57268 24890
L57287 24965
L57305 25002
L57324 25021
L57362 25040
L57399 25040
L57437 25021
L57455 25002
L57474 24965
L57493 24890
L57493 24796
L57474 24721
L57455 24684
L57437 24665
L57399 24646
" />
<path d="M55086 15729
L55311 15729
" />
<path d="M55198 15729
L55198 15335
L55236 15391
L55273 15429
L55311 15448
" />
<path d="M54917 15729
L54917 15335
" />
<path d="M54880 15579
L54767 15729
" />
<path d="M54767 15466
L54917 15616
" />
<path d="M59084 20217
L59046 20217
L59009 20236
L58990 20254
L58971 20292
L58952 20367
L58952 20461
L58971 20536
L58990 20573
L59009 20592
L59046 20611
L59084 20611
L59121 20592
L59140 20573
L59159 20536
L59177 20461
L59177 20367
L59159 20292
L59140 20254
L59121 20236
L59084 20217
" />
<path d="M58559 20611
L58690 20423
" />
<path d="M58784 20611
L58784 20217
L58634 20217
L58596 20236
L58577 20254
L58559 20292
L58559 20348
L58577 20386
L58596 20404
L58634 20423
L58784 20423
" />
<path d="M58409 20254
L58390 20236
L58353 20217
L58259 20217
L58221 20236
L58203 20254
L58184 20292
L58184 20329
L58203 20386
L58428 20611
L58184 20611
" />
<path d="M30056 21674
L30056 21280
L29962 21280
L29906 21299
L29868 21336
L29850 21374
L29831 21449
L29831 21505
L29850 21580
L29868 21617
L29906 21655
L29962 21674
L30056 21674
" />
<path d="M29681 21655
L29625 21674
L29531 21674
L29493 21655
L29475 21636
L29456 21599
L29456 21561
L29475 21524
L29493 21505
L29531 21486
L29606 21467
L29643 21449
L29662 21430
L29681 21392
L29681 21355
L29662 21317
L29643 21299
L29606 21280
L29512 21280
L29456 21299
" />
<path d="M29081 21674
L29306 21674
" />
<path d="M29193 21674
L29193 21280
L29231 21336
L29268 21374
L29306 21392
" />
<path d="M28950 21280
L28706 21280
L28837 21430
L28781 21430
L28743 21449
L28725 21467
L28706 21505
L28706 21599
L28725 21636
L28743 21655
L28781 21674
L28893 21674
L28931 21655
L28950 21636
" />
<path d="M28575 21280
L28331 21280
L28462 21430
L28406 21430
L28368 21449
L28350 21467
L28331 21505
L28331 21599
L28350 21636
L28368 21655
L28406 21674
L28518 21674
L28556 21655
L28575 21636
" />
<path d="M28200 21280
L27937 21280
L28106 21674
" />
<path d="M25699 15079
L25699 14685
L25568 14967
L25436 14685
L25436 15079
" />
<path d="M25249 15079
L25249 14685
" />
<path d="M24836 15042
L24855 15060
L24911 15079
L24949 15079
L25005 15060
L25043 15023
L25061 14985
L25080 14910
L25080 14854
L25061 14779
L25043 14742
L25005 14704
L24949 14685
L24911 14685
L24855 14704
L24836 14723
" />
<path d="M24480 14685
L24668 14685
L24686 14873
L24668 14854
L24630 14835
L24536 14835
L24499 14854
L24480 14873
L24461 14910
L24461 15004
L24480 15042
L24499 15060
L24536 15079
L24630 15079
L24668 15060
L24686 15042
" />
<path d="M24311 14723
L24293 14704
L24255 14685
L24161 14685
L24124 14704
L24105 14723
L24086 14760
L24086 14798
L24105 14854
L24330 15079
L24086 15079
" />
<path d="M23843 14685
L23805 14685
L23768 14704
L23749 14723
L23730 14760
L23712 14835
L23712 14929
L23730 15004
L23749 15042
L23768 15060
L23805 15079
L23843 15079
L23880 15060
L23899 15042
L23918 15004
L23937 14929
L23937 14835
L23918 14760
L23899 14723
L23880 14704
L23843 14685
" />
<path d="M23355 14685
L23543 14685
L23562 14873
L23543 14854
L23505 14835
L23412 14835
L23374 14854
L23355 14873
L23337 14910
L23337 15004
L23355 15042
L23374 15060
L23412 15079
L23505 15079
L23543 15060
L23562 15042
" />
<path d="M45246 29725
L45246 29331
L45115 29612
L44984 29331
L44984 29725
" />
<path d="M44796 29725
L44796 29331
" />
<path d="M44384 29687
L44402 29706
L44459 29725
L44496 29725
L44552 29706
L44590 29669
L44609 29631
L44627 29556
L44627 29500
L44609 29425
L44590 29387
L44552 29350
L44496 29331
L44459 29331
L44402 29350
L44384 29369
" />
<path d="M44027 29331
L44215 29331
L44234 29519
L44215 29500
L44177 29481
L44084 29481
L44046 29500
L44027 29519
L44009 29556
L44009 29650
L44027 29687
L44046 29706
L44084 29725
L44177 29725
L44215 29706
L44234 29687
" />
<path d="M43859 29369
L43840 29350
L43802 29331
L43709 29331
L43671 29350
L43652 29369
L43634 29406
L43634 29444
L43652 29500
L43877 29725
L43634 29725
" />
<path d="M43390 29331
L43353 29331
L43315 29350
L43296 29369
L43278 29406
L43259 29481
L43259 29575
L43278 29650
L43296 29687
L43315 29706
L43353 29725
L43390 29725
L43428 29706
L43446 29687
L43465 29650
L43484 29575
L43484 29481
L43465 29406
L43446 29369
L43428 29350
L43390 29331
" />
<path d="M42903 29331
L43090 29331
L43109 29519
L43090 29500
L43053 29481
L42959 29481
L42921 29500
L42903 29519
L42884 29556
L42884 29650
L42903 29687
L42921 29706
L42959 29725
L43053 29725
L43090 29706
L43109 29687
" />
<path d="M53199 29567
L53199 29174
L53068 29455
L52936 29174
L52936 29567
" />
<path d="M52749 29567
L52749 29174
" />
<path d="M52336 29530
L52355 29549
L52411 29567
L52449 29567
L52505 29549
L52543 29511
L52561 29474
L52580 29399
L52580 29342
L52561 29267
L52543 29230
L52505 29192
L52449 29174
L52411 29174
L52355 29192
L52336 29211
" />
<path d="M51980 29174
L52168 29174
L52186 29361
L52168 29342
L52130 29324
L52036 29324
L51999 29342
L51980 29361
L51961 29399
L51961 29492
L51980 29530
L51999 29549
L52036 29567
L52130 29567
L52168 29549
L52186 29530
" />
<path d="M51811 29211
L51793 29192
L51755 29174
L51661 29174
L51624 29192
L51605 29211
L51586 29249
L51586 29286
L51605 29342
L51830 29567
L51586 29567
" />
<path d="M51343 29174
L51305 29174
L51268 29192
L51249 29211
L51230 29249
L51212 29324
L51212 29417
L51230 29492
L51249 29530
L51268 29549
L51305 29567
L51343 29567
L51380 29549
L51399 29530
L51418 29492
L51437 29417
L51437 29324
L51418 29249
L51399 29211
L51380 29192
L51343 29174
" />
<path d="M50855 29174
L51043 29174
L51062 29361
L51043 29342
L51005 29324
L50912 29324
L50874 29342
L50855 29361
L50837 29399
L50837 29492
L50855 29530
L50874 29549
L50912 29567
L51005 29567
L51043 29549
L51062 29530
" />
<path d="M30758 23071
L30514 23071
L30645 23221
L30589 23221
L30552 23240
L30533 23259
L30514 23296
L30514 23390
L30533 23428
L30552 23446
L30589 23465
L30702 23465
L30739 23446
L30758 23428
" />
<path d="M30364 23109
L30345 23090
L30308 23071
L30214 23071
L30177 23090
L30158 23109
L30139 23146
L30139 23184
L30158 23240
L30383 23465
L30139 23465
" />
<path d="M29970 23428
L29952 23446
L29970 23465
L29989 23446
L29970 23428
L29970 23465
" />
<path d="M29820 23071
L29558 23071
L29727 23465
" />
<path d="M29239 23071
L29314 23071
L29352 23090
L29371 23109
L29408 23165
L29427 23240
L29427 23390
L29408 23428
L29389 23446
L29352 23465
L29277 23465
L29239 23446
L29221 23428
L29202 23390
L29202 23296
L29221 23259
L29239 23240
L29277 23221
L29352 23221
L29389 23240
L29408 23259
L29427 23296
" />
<path d="M28977 23240
L29014 23221
L29033 23203
L29052 23165
L29052 23146
L29033 23109
L29014 23090
L28977 23071
L28902 23071
L28864 23090
L28846 23109
L28827 23146
L28827 23165
L28846 23203
L28864 23221
L28902 23240
L28977 23240
L29014 23259
L29033 23278
L29052 23315
L29052 23390
L29033 23428
L29014 23446
L28977 23465
L28902 23465
L28864 23446
L28846 23428
L28827 23390
L28827 23315
L28846 23278
L28864 23259
L28902 23240
" />
<path d="M28658 23465
L28658 23071
" />
<path d="M28433 23465
L28602 23240
" />
<path d="M28433 23071
L28658 23296
" />
<path d="M27380 21257
L27362 21276
L27343 21314
L27343 21407
L27362 21445
L27380 21464
L27418 21482
L27455 21482
L27512 21464
L27737 21239
L27737 21482
" />
<path d="M27699 21651
L27718 21670
L27737 21651
L27718 21632
L27699 21651
L27737 21651
" />
<path d="M27380 21820
L27362 21839
L27343 21876
L27343 21970
L27362 22007
L27380 22026
L27418 22045
L27455 22045
L27512 22026
L27737 21801
L27737 22045
" />
<path d="M27737 22214
L27343 22214
" />
<path d="M27587 22251
L27737 22364
" />
<path d="M27474 22364
L27624 22214
" />
<path d="M26317 21218
L26299 21237
L26280 21274
L26280 21368
L26299 21406
L26317 21424
L26355 21443
L26392 21443
L26449 21424
L26674 21199
L26674 21443
" />
<path d="M26636 21612
L26655 21631
L26674 21612
L26655 21593
L26636 21612
L26674 21612
" />
<path d="M26317 21781
L26299 21799
L26280 21837
L26280 21931
L26299 21968
L26317 21987
L26355 22005
L26392 22005
L26449 21987
L26674 21762
L26674 22005
" />
<path d="M26674 22174
L26280 22174
" />
<path d="M26524 22212
L26674 22324
" />
<path d="M26411 22324
L26561 22174
" />
</g> 
</svg>
